<?xml version="1.0" encoding="UTF-8" standalone="no"?>
<!DOCTYPE svg PUBLIC "-//W3C//DTD SVG 1.1//EN" "http://www.w3.org/Graphics/SVG/1.1/DTD/svg11.dtd">
<svg width="100%" height="100%" viewBox="0 0 58 58" version="1.1" xmlns="http://www.w3.org/2000/svg" xmlns:xlink="http://www.w3.org/1999/xlink" xml:space="preserve" xmlns:serif="http://www.serif.com/" style="fill-rule:evenodd;clip-rule:evenodd;stroke-linejoin:round;stroke-miterlimit:2;">
    <g transform="matrix(0.0688385,0,0,0.0772721,23.0032,24.7885)">
        <g transform="matrix(1,0,0,1,-118.232,-118.232)">
            <g>
                <path d="M174.432,32.465C167.632,22.465 161.632,13.265 156.032,4.865C155.232,3.665 154.032,2.465 152.832,1.665C148.032,-1.535 141.632,0.065 138.432,4.865C133.232,13.265 127.232,22.065 120.032,32.465C88.432,78.865 41.232,148.865 41.232,188.865C41.232,218.065 53.232,244.465 72.432,263.665C91.632,282.465 118.032,294.465 147.232,294.465C176.432,294.465 202.832,282.465 222.032,263.265C241.232,244.065 253.232,217.665 253.232,188.465C253.232,148.465 206.032,78.865 174.432,32.465ZM207.632,248.865C192.032,264.465 170.832,273.665 147.232,273.665C123.632,273.665 102.432,264.065 86.832,248.865C71.232,233.265 62.032,212.065 62.032,188.465C62.032,154.865 107.232,88.065 137.232,43.665C140.832,38.465 144.032,33.265 147.232,28.865C150.432,33.265 153.632,38.465 157.232,43.665C187.232,88.465 232.432,154.865 232.432,188.465C232.432,212.065 222.832,233.265 207.632,248.865Z" style="fill-rule:nonzero;"/>
            </g>
        </g>
        <g transform="matrix(1,0,0,1,-118.232,-118.232)">
            <g>
                <path d="M209.232,181.265C203.632,180.865 198.832,185.265 198.432,190.865C198.032,199.665 195.232,208.065 190.832,215.265C186.432,222.465 180.032,228.865 172.432,232.865C167.632,235.665 165.632,242.065 168.432,246.865C171.632,252.465 178.032,254.065 182.832,251.265C193.632,245.265 202.432,236.465 208.432,226.465C214.832,216.465 218.432,204.465 218.832,192.065C219.232,186.465 214.832,181.665 209.232,181.265Z" style="fill-rule:nonzero;"/>
            </g>
        </g>
    </g>
</svg>
