<?xml version="1.0" encoding="UTF-8" standalone="no"?>
<!DOCTYPE svg PUBLIC "-//W3C//DTD SVG 1.1//EN" "http://www.w3.org/Graphics/SVG/1.1/DTD/svg11.dtd">
<svg width="100%" height="100%" viewBox="0 0 58 58" version="1.1" xmlns="http://www.w3.org/2000/svg" xmlns:xlink="http://www.w3.org/1999/xlink" xml:space="preserve" xmlns:serif="http://www.serif.com/" style="fill-rule:evenodd;clip-rule:evenodd;stroke-linejoin:round;stroke-miterlimit:2;">
    <g transform="matrix(0.185861,0,0,0.258898,9.37887,3.23998)">
        <g>
            <circle cx="84.048" cy="84.044" r="20.699"/>
            <path d="M167.055,81.422C165.539,79.818 129.476,42.012 84.038,42.012C38.605,42.012 2.547,79.818 1.035,81.422C-0.344,82.895 -0.344,85.192 1.035,86.658C2.553,88.262 38.612,126.085 84.038,126.085C129.476,126.085 165.55,88.262 167.055,86.658C168.444,85.192 168.444,82.883 167.055,81.422ZM84.048,116.043C66.409,116.043 52.059,101.69 52.059,84.037C52.059,66.398 66.409,52.037 84.048,52.037C101.686,52.037 116.056,66.393 116.056,84.037C116.052,101.68 101.686,116.043 84.048,116.043ZM58.682,53.829C50.037,61.104 44.413,71.873 44.413,84.037C44.413,96.196 50.037,106.966 58.682,114.254C34.762,106.561 15.978,90.374 9.264,84.037C15.979,77.707 34.767,61.518 58.682,53.829ZM109.426,114.242C118.065,106.962 123.696,96.19 123.696,84.037C123.696,71.884 118.07,61.12 109.419,53.84C133.338,61.533 152.108,77.7 158.826,84.037C152.107,90.368 133.337,106.538 109.426,114.242Z" style="fill-rule:nonzero;"/>
        </g>
    </g>
</svg>
