<?xml version="1.0" encoding="UTF-8" standalone="no"?>
<!DOCTYPE svg PUBLIC "-//W3C//DTD SVG 1.1//EN" "http://www.w3.org/Graphics/SVG/1.1/DTD/svg11.dtd">
<svg width="100%" height="100%" viewBox="0 0 58 58" version="1.1" xmlns="http://www.w3.org/2000/svg" xmlns:xlink="http://www.w3.org/1999/xlink" xml:space="preserve" xmlns:serif="http://www.serif.com/" style="fill-rule:evenodd;clip-rule:evenodd;stroke-linejoin:round;stroke-miterlimit:2;">
    <g transform="matrix(0.0544457,0,0,0.0544457,11.0611,11.0627)">
        <path d="M460.621,414.317L447.147,414.317L447.147,401.184C447.147,397.414 444.093,394.358 440.32,394.358L437.443,394.358L429.693,365.292C429.235,363.569 428.102,362.214 426.667,361.32L426.667,159.517C426.667,159.184 426.639,158.846 426.593,158.517L416.353,89.337C415.86,85.99 412.986,83.511 409.6,83.511C406.214,83.511 403.34,85.99 402.847,89.337L392.607,158.517C392.561,158.846 392.533,159.184 392.533,159.517L392.533,361.172C390.965,362.051 389.719,363.464 389.233,365.292L385.323,379.959L358.932,316.254C358.81,315.955 358.562,315.74 358.4,315.465L358.4,179.997C358.4,179.664 358.373,179.326 358.327,178.997L348.087,109.817C347.593,106.47 344.719,103.991 341.333,103.991C337.947,103.991 335.073,106.47 334.58,109.817L324.34,178.997C324.294,179.326 324.267,179.664 324.267,179.997L324.267,300.544L269.653,279.357L269.653,257.824C269.653,254.054 266.6,250.998 262.827,250.998C259.053,250.998 256,254.054 256,257.824L256,278.327L194.56,299.513L194.56,179.997C194.56,179.664 194.533,179.326 194.487,178.997L184.247,109.817C183.753,106.47 180.879,103.991 177.493,103.991C174.107,103.991 171.233,106.47 170.74,109.817L160.5,178.997C160.454,179.326 160.427,179.664 160.427,179.997L160.427,311.282L157.146,312.414C155.153,313.1 153.593,314.67 152.914,316.663L132.398,376.834L129.321,365.29C128.864,363.568 127.73,362.213 126.295,361.318L126.295,159.517C126.295,159.184 126.268,158.846 126.222,158.517L115.982,89.337C115.488,85.99 112.614,83.511 109.228,83.511C105.842,83.511 102.968,85.99 102.475,89.337L92.235,158.517C92.187,158.846 92.16,159.183 92.16,159.517L92.16,361.172C90.592,362.051 89.346,363.464 88.859,365.292L81.109,394.358L71.68,394.358C67.907,394.358 64.853,397.414 64.853,401.184L64.853,414.317L51.379,414.317C47.606,414.317 44.553,417.374 44.553,421.144C44.553,424.914 47.606,427.971 51.379,427.971L69.103,427.971C69.898,428.297 70.765,428.491 71.678,428.491L440.318,428.491C441.233,428.491 442.098,428.297 442.895,427.971L460.619,427.971C464.393,427.971 467.446,424.914 467.446,421.144C467.446,417.374 464.393,414.317 460.621,414.317ZM303.787,373.876C300.013,373.876 296.96,376.933 296.96,380.703L296.96,394.356L290.133,394.356L290.133,367.049C290.133,363.279 287.08,360.223 283.307,360.223C279.533,360.223 276.48,363.279 276.48,367.049L276.48,394.356L269.041,394.356L269.041,340.425C269.041,336.655 265.987,333.599 262.214,333.599C258.441,333.599 255.387,336.655 255.387,340.425L255.387,394.356L249.173,394.356L249.173,367.049C249.173,363.279 246.12,360.223 242.347,360.223C238.573,360.223 235.52,363.279 235.52,367.049L235.52,394.356L228.693,394.356L228.693,380.703C228.693,376.933 225.64,373.876 221.867,373.876C218.093,373.876 215.04,376.933 215.04,380.703L215.04,394.356L179.434,394.356L261.733,326.499L345.885,394.356L310.613,394.356L310.613,380.703C310.613,376.933 307.56,373.876 303.787,373.876ZM265.974,312.376C263.453,310.347 259.854,310.359 257.347,312.422L157.972,394.356L156.839,394.356L261.733,293.036L368.585,394.356L367.631,394.356L265.974,312.376ZM112.64,210.036L105.813,210.036L105.813,203.209L112.64,203.209L112.64,210.036ZM105.813,223.689L112.64,223.689L112.64,360.223L105.813,360.223L105.813,223.689ZM413.013,210.036L406.187,210.036L406.187,203.209L413.013,203.209L413.013,210.036ZM406.187,223.689L413.013,223.689L413.013,360.223L406.187,360.223L406.187,223.689ZM401.073,373.876L417.853,373.876L423.313,394.356L395.614,394.356L401.073,373.876ZM409.6,136.96L413.013,160.02L413.013,189.558L406.187,189.558L406.187,160.02L409.6,136.96ZM368.792,375.735L291.555,302.498L347.433,324.176L368.792,375.735ZM337.92,223.689L344.747,223.689L344.747,230.516L337.92,230.516L337.92,223.689ZM341.333,157.44L344.747,180.5L344.747,210.038L337.92,210.038L337.92,180.5L341.333,157.44ZM337.92,244.169L344.747,244.169L344.747,308.489L337.92,305.84L337.92,244.169ZM174.08,223.689L180.907,223.689L180.907,230.516L174.08,230.516L174.08,223.689ZM177.493,157.44L180.907,180.5L180.907,210.038L174.08,210.038L174.08,180.5L177.493,157.44ZM174.08,244.169L180.907,244.169L180.907,304.22L174.08,306.574L174.08,244.169ZM164.76,324.231L234.784,300.085L142.641,389.091L164.76,324.231ZM109.227,136.96L112.64,160.02L112.64,189.558L105.813,189.558L105.813,160.02L109.227,136.96ZM100.7,373.876L117.48,373.876L122.94,394.356L95.241,394.356L100.7,373.876ZM78.507,408.009L433.493,408.009L433.493,414.316L78.507,414.316L78.507,408.009Z" style="fill-rule:nonzero;"/>
    </g>
</svg>
