<?xml version="1.0" encoding="UTF-8" standalone="no"?>
<!DOCTYPE svg PUBLIC "-//W3C//DTD SVG 1.1//EN" "http://www.w3.org/Graphics/SVG/1.1/DTD/svg11.dtd">
<svg width="100%" height="100%" viewBox="0 0 58 58" version="1.1" xmlns="http://www.w3.org/2000/svg" xmlns:xlink="http://www.w3.org/1999/xlink" xml:space="preserve" xmlns:serif="http://www.serif.com/" style="fill-rule:evenodd;clip-rule:evenodd;stroke-linejoin:round;stroke-miterlimit:2;">
    <g transform="matrix(0.088318,0,0,0.0811674,9.10505,12.7851)">
        <g>
            <path d="M337.6,114.25L198.4,46.25C186.4,40.25 166,40.25 154,46.25L11.6,114.25C1.6,119.05 0,125.85 0,129.45C0,133.05 1.6,139.45 11.6,144.65L23.2,150.25L23.2,214.25C16,217.05 10.8,224.25 10.8,232.25C10.8,240.25 16,247.45 22.8,250.25L4.8,307.45L55.2,307.45L37.2,250.25C44.4,247.45 49.2,240.25 49.2,232.25C49.2,223.85 44,217.05 36.8,214.25L36.8,157.05L58,167.45L58,250.65C58,251.85 58.4,253.05 59.2,254.25C61.2,256.65 98.4,307.45 174.4,307.45C250.4,307.45 287.6,256.25 289.2,254.25C290,253.05 290.4,251.85 290.4,250.65L290.4,167.85L337.6,144.65C347.6,139.85 349.2,133.05 349.2,129.45C348.8,125.85 347.6,119.05 337.6,114.25ZM277.6,248.65C271.2,256.65 236.8,295.05 174.4,295.05C112,295.05 77.6,256.65 71.2,248.65L71.2,173.05L154,212.65C160,215.45 168,217.05 176,217.05C184.4,217.05 192.4,215.45 198.4,212.25L277.6,173.45L277.6,248.65ZM332,133.45L284,157.05C282,157.05 280.4,157.85 279.6,159.45L192.8,201.45C184.4,205.85 168,205.85 159.2,201.45L52.4,150.25L175.2,135.85C178.8,135.45 181.2,132.25 180.8,129.05C180.4,125.45 177.2,123.05 174,123.45L31.6,140.25L17.2,133.45C13.6,131.85 12.8,129.85 12.8,129.85C12.8,129.45 13.6,127.85 17.2,126.25L159.6,57.85C164,55.85 170,54.65 176,54.65C182.4,54.65 188.8,55.85 192.8,57.85L332,125.85C335.6,127.45 336.4,129.05 336.4,129.85C336.4,129.85 335.2,131.85 332,133.45Z" style="fill-rule:nonzero;"/>
        </g>
    </g>
</svg>
