<?xml version="1.0" encoding="UTF-8" standalone="no"?>
<!DOCTYPE svg PUBLIC "-//W3C//DTD SVG 1.1//EN" "http://www.w3.org/Graphics/SVG/1.1/DTD/svg11.dtd">
<svg width="100%" height="100%" viewBox="0 0 58 58" version="1.1" xmlns="http://www.w3.org/2000/svg" xmlns:xlink="http://www.w3.org/1999/xlink" xml:space="preserve" xmlns:serif="http://www.serif.com/" style="fill-rule:evenodd;clip-rule:evenodd;stroke-linejoin:round;stroke-miterlimit:2;">
    <g transform="matrix(0.0511864,0,0,0.0498446,11.0686,13.4336)">
        <path d="M304.468,3.651C289.491,1.194 275.927,0 262.999,0C122.392,0 7.999,114.841 7.999,256C7.999,397.159 122.392,512 262.999,512C371.485,512 468.02,441.828 503.214,337.384C505.538,330.487 502.575,322.916 496.187,319.428C489.798,315.941 481.828,317.543 477.284,323.227C442.85,366.298 392.083,391 337.999,391C238.747,391 157.999,310.252 157.999,211C157.999,123.852 219.734,49.075 304.791,33.199C311.952,31.862 317.118,25.574 317.038,18.289C316.958,11.005 311.656,4.831 304.468,3.651ZM127.999,211C127.999,326.794 222.205,421 337.999,421C373.99,421 408.702,411.674 439.338,394.379C397.689,448.612 333.169,482 262.999,482C138.934,482 37.999,380.617 37.999,256C37.999,144.321 119.072,51.3 225.201,33.189C163.13,73.036 127.999,141.02 127.999,211Z" style="fill-rule:nonzero;"/>
        <path d="M427.719,176.963C425.962,171.56 421.304,167.613 415.686,166.767L361.103,158.551L336.416,109.165C333.876,104.082 328.681,100.872 322.999,100.872C317.317,100.872 312.122,104.082 309.582,109.165L284.895,158.551L230.312,166.767C224.694,167.613 220.036,171.559 218.279,176.963C216.523,182.366 217.969,188.297 222.016,192.285L261.337,231.028L252.274,285.485C251.341,291.089 253.656,296.74 258.252,300.081C262.848,303.421 268.938,303.88 273.98,301.262L323,275.828L372.02,301.262C377.063,303.878 383.151,303.422 387.748,300.081C392.344,296.74 394.658,291.09 393.726,285.485L384.663,231.028L423.984,192.285C428.028,188.298 429.475,182.366 427.719,176.963ZM358.058,215.125C354.579,218.551 352.988,223.456 353.788,228.272L359.205,260.816L329.907,245.615C327.741,244.491 325.37,243.929 322.999,243.929C320.628,243.929 318.257,244.491 316.091,245.615L286.793,260.816L292.21,228.272C293.011,223.456 291.419,218.551 287.94,215.125L264.439,191.969L297.062,187.059C301.891,186.332 306.063,183.301 308.247,178.933L322.999,149.421L337.751,178.933C339.935,183.301 344.106,186.332 348.936,187.059L381.559,191.969L358.058,215.125Z" style="fill-rule:nonzero;"/>
    </g>
</svg>
