<?xml version="1.0" encoding="UTF-8" standalone="no"?>
<!DOCTYPE svg PUBLIC "-//W3C//DTD SVG 1.1//EN" "http://www.w3.org/Graphics/SVG/1.1/DTD/svg11.dtd">
<svg width="100%" height="100%" viewBox="0 0 58 58" version="1.1" xmlns="http://www.w3.org/2000/svg" xmlns:xlink="http://www.w3.org/1999/xlink" xml:space="preserve" xmlns:serif="http://www.serif.com/" style="fill-rule:evenodd;clip-rule:evenodd;stroke-linejoin:round;stroke-miterlimit:2;">
    <g transform="matrix(1,0,0,1,11.919,12.919)">
        <g>
            <path d="M16.751,0.197C13.326,0.197 10.257,1.72 8.163,4.116C8.912,3.942 9.686,3.838 10.478,3.801C10.431,3.703 10.388,3.614 10.352,3.536C12.113,2.138 14.332,1.297 16.75,1.297C17.443,1.297 18.121,1.368 18.775,1.499C18.159,2.26 17.215,3.603 16.818,5.118C17.082,5.248 17.339,5.385 17.589,5.531C17.956,3.868 19.133,2.348 19.668,1.725C21.465,2.257 23.054,3.268 24.297,4.607C23.435,5.014 21.75,5.87 19.795,7.152C20.002,7.342 20.207,7.534 20.401,7.737C22.428,6.422 24.131,5.589 24.854,5.257C26.004,6.724 26.772,8.507 26.992,10.456C26.143,10.592 24.332,10.815 22.5,10.606C22.653,10.889 22.788,11.181 22.92,11.476C23.316,11.506 23.71,11.525 24.085,11.525C25.319,11.525 26.399,11.389 27.044,11.285C27.048,11.394 27.062,11.5 27.062,11.61C27.062,14.563 25.799,17.214 23.802,19.095C23.685,19.724 23.517,20.335 23.312,20.929C26.24,18.862 28.162,15.457 28.162,11.61C28.162,5.317 23.043,0.197 16.751,0.197Z" style="fill-rule:nonzero;"/>
            <path d="M20.85,10.147C19.292,7.858 16.92,6.173 14.156,5.487C13.274,5.27 12.359,5.14 11.412,5.14C10.185,5.14 9.005,5.34 7.897,5.7C5.219,6.569 2.98,8.405 1.575,10.792C0.803,12.107 0.284,13.587 0.092,15.17C0.036,15.624 0,16.083 0,16.551C0,19.076 0.834,21.405 2.227,23.297C3.607,25.17 5.538,26.608 7.786,27.363C8.928,27.747 10.143,27.965 11.412,27.965C13.126,27.965 14.747,27.573 16.206,26.895C17.793,26.155 19.185,25.072 20.273,23.728C21.866,21.764 22.824,19.27 22.824,16.551C22.824,16.35 22.804,16.152 22.793,15.95C22.682,13.808 21.988,11.818 20.85,10.147ZM20.479,15.951L18.131,20.013L19.676,22.692C18.637,24.088 17.257,25.213 15.655,25.941L14.478,23.901L9.785,23.901L8.343,26.398C6.102,25.699 4.187,24.252 2.892,22.352L4.693,19.233L2.346,15.17L1.202,15.17C1.419,13.566 1.994,12.075 2.861,10.794L6.143,10.794L8.49,6.729L8.461,6.675C9.396,6.395 10.385,6.239 11.411,6.239C12.157,6.239 12.883,6.323 13.584,6.474L13.438,6.728L15.784,10.79L19.963,10.79C20.968,12.279 21.582,14.048 21.692,15.949L20.479,15.951Z" style="fill-rule:nonzero;"/>
            <path d="M9.064,12.351L6.718,16.415L9.064,20.479L13.757,20.479L16.104,16.415L13.757,12.351L9.064,12.351Z" style="fill-rule:nonzero;"/>
        </g>
    </g>
</svg>
