<svg version="1.1" id="Layer1" xmlns="http://www.w3.org/2000/svg" xmlns:xlink="http://www.w3.org/1999/xlink" x="0px" y="0px" viewBox="0 0 573.4 197.5" style="enable-background:new 0 0 573.4 197.5;" xml:space="preserve">
<style type="text/css">
	.st0{display:none;}
	.st1{display:inline;fill:#FFFFFF;}
	.st2{fill-rule:evenodd;clip-rule:evenodd;fill:#FFFFFF;}
	
		.st3{fill-rule:evenodd;clip-rule:evenodd;fill:none;stroke:#FFFFFF;stroke-linecap:round;stroke-linejoin:round;stroke-miterlimit:10;}
	.st4{fill-rule:evenodd;clip-rule:evenodd;fill:#51CC41;}
	.st5{display:inline;fill-rule:evenodd;clip-rule:evenodd;fill:#51CC41;}
	.st6{display:inline;fill-rule:evenodd;clip-rule:evenodd;fill:#292929;}
	.st7{display:inline;fill:#292929;}
	.st8{display:inline;}
	.st9{fill:#292929;}
	.st10{fill:#FFFFFF;}
	.st11{fill:#51CC41;}
</style>
<g id="Layer_2" class="st0">
	<rect id="background" x="-82.5" y="-23.5" class="st1" width="593" height="250"/>
</g>
<g>
	<path class="st2" d="M41,139.6L41.8,81h48.7l-0.8,59.4C79.8,137.3,41,139.6,41,139.6z M57.7,54.3h15.2l17.5,17.5v6.1H41.8v-3.8   L57.7,54.3z M97.3,54.3l9.1-0.8l-9.1,12.2V54.3z M78.3,54.3h12.9v12.2L78.3,54.3z M41.8,53.5l12.2,0.8L41.8,68V53.5z M22.8,53.5   h12.9v15.2L22.8,53.5z M31.1,192.2C56.1,203.7,98,193,98,193l0.8-45.7c13.4-3.9-2.3-6.1-2.3-6.1V82.5h3c1.3,4.1-0.8,21.3-0.8,21.3   c1,3.6,6.1,0,6.1,0h7.6v-3.1h-7.6c-0.4-3.7-4.6-3-4.6-3c2.4-14.9,0.8-20.6,0.8-20.6c-2.3-3.1-3.8,0-3.8,0v-3.8l16-20.6h15.2v-9.9   l3-0.8L117,5.5H19v6.1l-14.5,32l0.8,9.9h12.2l18.2,20.6v3.8h-7.6v2.3h7.6v61c-12.8-0.2-11.4,3-11.4,3c1.1,1.3,6.1,2.3,6.1,2.3   L31.1,192.2z"/>
	<g>
		<line class="st3" x1="66.9" y1="83.2" x2="66.9" y2="80.2"/>
		<path class="st3" d="M55.5,97c0,0-0.6-12.8,11.4-13"/>
		<path class="st3" d="M77.5,97c0,0,0.6-12.8-11.4-13"/>
	</g>
	<path class="st4" d="M53.1,96.6v5l1.2,5.4l2.6,12.7c0,0,8.7,2.3,18.5,0l2.5-13l1.2-5.3v-5C79.1,96.4,66.7,92.3,53.1,96.6z"/>
</g>
<g class="st0">
	<polygon class="st5" points="259.4,112.4 243.5,41 264.5,41 272,80.8 283.1,41 303.9,41 315,80.9 322.6,41 343.5,41 327.7,112.4    306.1,112.4 293.5,67.5 281,112.4  "/>
	<path class="st5" d="M372.2,80.8h19.6c-0.4-3.8-1.4-6.6-3.1-8.3c-1.7-1.7-3.9-2.5-6.6-2.5c-3.2,0-5.7,1.3-7.6,3.8   C373.3,75.4,372.5,77.7,372.2,80.8z M412,88v2.2h-39.9c0.4,3.2,1.2,5.5,2.6,7.1c1.9,2.2,4.4,3.4,7.5,3.4c2,0,3.8-0.5,5.6-1.5   c1.1-0.6,2.2-1.7,3.5-3.2l19.6,1.8c-3,5.2-6.6,8.9-10.8,11.2c-4.2,2.3-10.3,3.4-18.2,3.4c-6.9,0-12.3-1-16.2-2.9   c-3.9-1.9-7.2-5-9.8-9.2c-2.6-4.2-3.9-9.2-3.9-14.9c0-8.1,2.6-14.7,7.8-19.7c5.2-5,12.4-7.5,21.5-7.5c7.4,0,13.3,1.1,17.6,3.4   c4.3,2.2,7.6,5.5,9.8,9.8C410.9,75.7,412,81.2,412,88z"/>
	<rect x="426.2" y="41" class="st5" width="19.9" height="71.4"/>
	<rect x="463.2" y="41" class="st5" width="19.9" height="71.4"/>
	<path class="st6" d="M146.5,184.1c-3.2,0-4.9-1.3-6.3-3.4c-2.1-3.4-2.5-6.5-2.5-11.1c0-5.8,1-9.2,3.4-12c1.4-1.5,3-2.2,5-2.2   c3.7,0,8.3,5.1,8.3,13.9C154.4,177.5,151.7,184.1,146.5,184.1z M146.6,152.2c-3.3,0-7.4,0.6-11.3,3.8c-4.8,3.8-6.7,9.4-6.7,13.3   c0,4.9,0.8,8.2,4.3,12.4c3.6,4.3,7.9,5.8,12.9,5.8c5.3,0,10.1-2.1,13.4-5.8c3-3.4,4.9-7.7,4.9-12.2c0-4.7-1.8-8.9-5.5-12.6   C155.9,154.3,152,152.2,146.6,152.2z"/>
	<path class="st6" d="M197.2,186.5c0.1,0.6,0.5,1,1.1,1c0.6,0,1.1-0.2,1.6-0.3l9.9-2.8c0.3-0.1,0.5-0.2,0.4-0.7l-0.2-1.3   c-0.1-0.3-0.3-0.4-1-0.3c-0.9,0.2-2.1,0.2-2.5,0.2c-0.6,0-1.4-0.3-1.8-2.7c-0.2-1.6-0.2-5.4-0.2-9.3v-5.8c0-7.9,0.5-10,0.5-10.8   c0-0.3-0.2-0.8-0.6-0.8c-0.3,0-0.6,0.1-1,0.2c-0.4,0.1-0.8,0.2-1.4,0.2h-9.9c-0.7,0-0.9,0.1-0.9,0.6v1.4c0,0.3,0.2,0.5,1.6,0.6   c1.9,0.2,3.4,0.6,3.4,2.7v18.8c0,1-0.5,2.1-0.9,2.6c-1.3,1.8-3.7,3-5.6,3c-1.8,0-3.5,0.2-5.1-2.2c-2.1-3.4-1.6-8.8-1.6-12v-5   c0-5.5,0.3-9.2,0.3-10c0-0.5-0.3-1-0.8-1c-0.2,0-0.6,0.1-0.9,0.2c-0.3,0.1-0.7,0.2-1.2,0.2h-9.6c-0.8,0-1,0.2-1,0.6v1.4   c0,0.5,0.5,0.5,1.8,0.6c1.4,0.2,2.5,0.9,2.8,2.9c0.2,1,0.2,3.8,0.2,5.8c0,1.7-0.1,4.4-0.1,8.2c0,4.5,0.1,7.5,3,11.2   c2.8,3.5,5.3,3.5,8.2,3.5c4.1,0,8.8-2.6,10.5-5.4h0.5L197.2,186.5z"/>
	<path class="st6" d="M216.8,157.7c-0.5,0.2-0.8,0.5-0.8,0.8v0.6c0,0.3,0.2,0.6,0.6,0.8l0.6,0.3c1.9,1,3.3,2.2,3.3,4.6v18   c0,1.3-1.1,1.6-2.1,1.6H217c-0.6,0-0.8,0.2-0.8,0.6v1.5c0,0.5,0.2,0.8,0.5,0.8c0.5,0,3-0.2,8-0.2c4.8,0,7,0.2,7.5,0.2   c0.5,0,0.6-0.3,0.6-0.8v-1.4c0-0.6-0.2-0.7-0.8-0.7h-1.4c-1.1,0-1.5-1-1.5-2.7v-16.5c0-2.2,0.4-4.4,1.7-5.7   c1.9-1.8,3.8-2.1,5.1-2.1c1.8,0,3.2,0,4.8,1.4c1.9,1.6,2.1,3.7,2.1,6.9v9.2c0,3.2-0.1,5.4-0.3,7.5c-0.2,1.4-0.8,1.9-1.4,1.9h-1.6   c-0.8,0-1,0.2-1,0.6v1.4c0,0.6,0.2,1,0.6,1c0.5,0,3-0.2,7.8-0.2c5.6,0,8,0.2,8.6,0.2c0.5,0,0.6-0.2,0.6-0.6v-1.8   c0-0.4-0.2-0.6-1-0.6h-2.2c-1,0-1.9-0.5-1.9-2.2c0-1.6,0.1-5.1,0.1-7.7v-11.5c0-3.3-0.9-5.7-4.4-8.2c-1.8-1.4-4.3-1.9-7-1.9   c-2.4,0-4.5,0.8-6.4,1.9c-1.6,0.8-3,2.1-4,3.2h-0.5l-0.6-4.2c-0.2-0.6-0.5-1-0.9-1c-0.5,0-1,0.3-1.6,0.6L216.8,157.7z"/>
	<path class="st6" d="M286.7,176.9c0,1.3-0.2,2.2-0.6,3.2c-0.8,1.3-2.9,2.9-6.1,2.9c-4.9,0-9.8-6.6-9.8-15.7c0-3.3,0.7-6.6,3.2-9.6   c1.5-1.9,3.6-2.4,5.5-2.4c3.3,0,5.9,1.8,7,3.8c0.6,1.1,0.8,2.6,0.8,3.8V176.9z M294.9,156c0-10.3,0-21.8,0.3-25.8   c0.2-1-0.2-1.4-0.5-1.4c-0.6,0-1.1,0.2-2.1,0.3c-2.1,0.5-7.3,1-11.3,1.4c-0.5,0.2-0.6,0.3-0.6,0.6v1.4c0,0.3,0.2,0.5,0.6,0.6   c4.3,0.8,4.9,1.9,5,4.6l0.2,15.5c-1.9-0.6-4.5-1.1-7.5-1.1c-4.8,0-8.6,1.8-11.8,5.1c-4.1,4.5-5.6,9-5.6,14.5   c0,5.1,1.6,8.5,4.9,11.8c2.9,3,6.5,3.9,9.5,3.9c3.7,0,8.6-1.9,11.2-4.6l1.1,3.7c0.2,0.6,0.6,1,1.1,0.8l10.7-3   c0.5-0.2,0.6-0.5,0.5-1l-0.2-1c-0.2-0.3-0.5-0.5-1.6-0.5c-1.1-0.2-2.5-0.5-3.3-1.4c-0.6-0.8-0.8-4-0.8-7V156z"/>
	<path class="st6" d="M324.4,179.2c0,1.4-2.9,3.7-5.1,3.8c-1.9,0-3.7-1.6-3.7-4.9c0-5.8,5.2-7.2,8.8-9.5V179.2z M325.2,182.6   c1.1,3.4,3.7,4.9,6.7,4.9c4.6,0,6.5-3.2,7.3-4.6c0.3-0.8,0.2-1.1-0.2-1.3l-1-0.6c-0.3-0.2-0.5-0.2-0.8,0.3   c-0.3,0.6-1.4,1.3-2.5,1.3c-1.4,0-2.1-1.3-2.1-5.6v-3.9l-0.2-12.6c0-2.2-0.2-4.4-1.9-6c-1.4-1.3-2.9-2.2-7.3-2.2   c-5.3,0-9.6,1.9-12.9,4.5c-2.4,1.8-3.7,4.3-3.7,6.6c0,1.8,1.3,2.7,2.7,2.7c3.4,0,4.8-1.8,4.8-4.6c0-1.9-0.8-3.1,0.3-3.9   c1.3-1,3.2-1.4,4.6-1.4c1.8,0,3.2,0.3,4,1.2c1,1,1.1,2.9,1.3,4.5v4.2c-1.8,1.3-4.8,2.6-9.7,5c-5.7,2.6-7.3,6.2-7.3,9.9   c0,4.5,2.5,6.9,5.5,6.9c1.6,0,3.3,0,5.1-0.6c3.1-1,5.2-2.4,6.9-4.3H325.2z"/>
	<path class="st6" d="M350.9,157.6V168c0,3-0.2,9.4-0.2,12.3c0,3.4,3.6,7.2,8.4,7.2c5.6,0,8.9-2.4,10-3.2c0.3-0.3,0.5-0.6,0.3-1.1   l-0.5-1c-0.2-0.4-0.4-0.4-1-0.2c-1.1,0.6-2.9,1-4.6,1c-1.6,0-4.2-1.3-4.2-7.5v-7.2c0-3.5,0.1-7.3,0.2-10.7h9.6   c0.5,0,0.7-0.2,0.8-0.5l0.8-3.4c0.1-0.3-0.1-0.6-0.6-0.6h-10.5l0.3-7.9c0-0.6-0.3-1.1-1-1.1c-0.5,0-1,0.2-1.3,0.8   c-1.8,3.4-8.7,9.3-10.9,10.1c-1,0.4-1.5,0.9-1.5,1.5c0,0.8,0.5,1.1,1.1,1.1H350.9z"/>
	<path class="st6" d="M390.1,139.9c0-1.8-1.5-4.2-4.7-4.2c-3.2,0-5.3,2.2-5.3,4.5c0,2.7,2.4,4.5,4.9,4.5   C388.5,144.7,390.1,142.2,390.1,139.9z M382.2,175.7c0,2.2-0.1,4.8-0.2,7.2c-0.1,1.3-0.5,1.6-1.3,1.6h-3.5c-0.5,0-0.8,0.2-0.8,0.6   v1.5c0,0.6,0.2,0.8,0.6,0.8c1,0,4-0.2,8.6-0.2c5.3,0,9,0.2,9.6,0.2c0.5,0,0.6-0.3,0.6-0.8v-1.6c0-0.4-0.2-0.6-0.8-0.6H392   c-0.8,0-1.1-0.6-1.3-2.1c-0.2-1-0.2-3.8-0.2-6.9v-8.7c0-6.6,0-11.8,0.2-13c0.1-0.6-0.2-1-0.6-1c-0.5,0-1.1,0.2-1.9,0.5   c-1.3,0.6-9.2,3.4-10.3,3.8c-0.4,0.2-0.6,0.3-0.6,0.6v0.9c0,0.3,0.1,0.6,0.8,0.7c3.7,1,4.1,2.6,4.1,5V175.7z"/>
	<path class="st6" d="M419.6,184.1c-3.2,0-4.9-1.3-6.3-3.4c-2.1-3.4-2.5-6.5-2.5-11.1c0-5.8,1-9.2,3.4-12c1.3-1.5,3-2.2,5-2.2   c3.7,0,8.3,5.1,8.3,13.9C427.6,177.5,424.9,184.1,419.6,184.1z M419.8,152.2c-3.3,0-7.4,0.6-11.3,3.8c-4.8,3.8-6.7,9.4-6.7,13.3   c0,4.9,0.8,8.2,4.3,12.4c3.6,4.3,7.9,5.8,12.9,5.8c5.3,0,10.1-2.1,13.4-5.8c3-3.4,4.9-7.7,4.9-12.2c0-4.7-1.8-8.9-5.5-12.6   C429.1,154.3,425.1,152.2,419.8,152.2z"/>
	<path class="st6" d="M443.9,157.7c-0.5,0.2-0.8,0.5-0.8,0.8v0.6c0,0.3,0.2,0.6,0.6,0.8l0.6,0.3c1.9,1,3.3,2.2,3.3,4.6v18   c0,1.3-1.1,1.6-2.1,1.6h-1.6c-0.6,0-0.8,0.2-0.8,0.6v1.5c0,0.5,0.2,0.8,0.5,0.8c0.5,0,3-0.2,8-0.2c4.8,0,7,0.2,7.5,0.2   c0.5,0,0.6-0.3,0.6-0.8v-1.4c0-0.6-0.2-0.7-0.8-0.7h-1.4c-1.1,0-1.5-1-1.5-2.7v-16.5c0-2.2,0.4-4.4,1.7-5.7   c1.9-1.8,3.8-2.1,5.1-2.1c1.8,0,3.2,0,4.8,1.4c1.9,1.6,2.1,3.7,2.1,6.9v9.2c0,3.2-0.1,5.4-0.3,7.5c-0.2,1.4-0.8,1.9-1.4,1.9h-1.6   c-0.8,0-1,0.2-1,0.6v1.4c0,0.6,0.2,1,0.6,1c0.5,0,3-0.2,7.8-0.2c5.6,0,8,0.2,8.6,0.2c0.5,0,0.6-0.2,0.6-0.6v-1.8   c0-0.4-0.2-0.6-0.9-0.6h-2.2c-1,0-1.9-0.5-1.9-2.2c0-1.6,0.1-5.1,0.1-7.7v-11.5c0-3.3-0.9-5.7-4.4-8.2c-1.8-1.4-4.3-1.9-7-1.9   c-2.4,0-4.5,0.8-6.4,1.9c-1.6,0.8-3,2.1-4,3.2h-0.5l-0.6-4.2c-0.2-0.6-0.5-1-1-1c-0.5,0-1,0.3-1.6,0.6L443.9,157.7z"/>
	<path class="st7" d="M90.9,82.5c-0.6,0-1.1-0.3-1.1-1.1c0-0.6,0.5-1.1,1.5-1.5c2.2-0.8,9.2-6.7,11-10.1c0.3-0.6,0.8-0.8,1.3-0.8   c0.6,0,1,0.5,1,1.1l-0.3,7.9h10.6c0.5,0,0.6,0.3,0.6,0.6l-0.8,3.4c-0.1,0.3-0.3,0.5-0.8,0.5H104c-0.2,3.4-0.2,7.2-0.2,10.7v7.2   c0,6.2,2.6,7.5,4.2,7.5c1.8,0,3.5-0.4,4.6-1c0.6-0.2,0.8-0.2,1,0.2l0.5,1c0.2,0.5,0,0.8-0.3,1.1c-1.1,0.8-4.5,3.2-10.1,3.2   c-4.8,0-8.4-3.8-8.4-7.2c0-2.9,0.2-9.3,0.2-12.3V82.5H90.9z"/>
	<path class="st7" d="M158.6,94.6c0-4.2,0-8.6-2.1-10.7c-1.3-1.3-2.6-1.9-4.5-1.9c-2.1,0-4.2,1.1-5.9,2.9c-0.6,0.8-1.4,2.4-1.4,3.9   v17.3c0,2.6,0.3,3.4,1.4,3.4h1.9c0.5,0,0.8,0.2,0.8,0.7v1.4c0,0.5-0.2,0.8-0.6,0.8c-0.6,0-4.2-0.2-8.3-0.2c-5,0-8,0.2-8.6,0.2   c-0.4,0-0.6-0.2-0.6-0.6V110c0-0.4,0.3-0.6,0.7-0.6h2c1.3,0,2.4-0.3,2.6-1.3c0.3-1.6,0.4-6.2,0.4-9.9l-0.2-28.6   c0-4.5-1-6.1-3.7-7.2l-1.4-0.5c-0.5-0.2-0.6-0.3-0.6-0.6v-0.8c0-0.3,0.2-0.5,1.1-1c2.4-0.6,7.8-3.4,10.4-4.6c1-0.3,1.4-0.6,2.2-0.6   c0.6,0,0.8,0.6,0.6,1.9c-0.2,1.4-0.2,17.6-0.2,21.5v5h0.5c2.2-3.1,6.6-4.9,10.3-4.9c3.5,0,5.6,1.1,8,3.2c3.7,3.2,3.5,7.2,3.5,11.8   v4.8v10.6c0,1.1,1.4,1.3,2.7,1.3h1.4c0.6,0,0.8,0.2,0.8,0.6v1.8c0,0.4-0.2,0.6-0.6,0.6c-0.5,0-3-0.2-7.9-0.2   c-4.8,0-7.7,0.2-8.5,0.2c-0.5,0-0.6-0.2-0.6-0.6v-1.9c0-0.3,0.2-0.5,0.6-0.5h1.4c1,0,2.1-0.3,2.2-1.6c0.2-1.1,0.2-5.3,0.2-7.8V94.6   z"/>
	<path class="st7" d="M195.5,93.7c0,8.2,5.8,13,10.4,13c5,0,8-2.1,9.7-4.6c0.3-0.6,0.6-0.6,1-0.4l1.2,0.7c0.4,0.2,0.6,0.6,0,1.6   c-1.7,3-5.8,8.5-14.6,8.5c-5.1,0-8.7-1.1-11.5-4.3c-3.7-4.2-4.5-8.2-4.5-13.2c0-4.4,0.5-7.4,3.9-11.8c3.4-4.3,7-5.9,13.9-5.9   c9.1,0,12.1,9.5,12.1,12.8c0,1.2-0.8,1.3-2.2,1.3h-19.4V93.7z M205.4,88.3c1.7,0,2.6-0.5,2.6-1.1c0-2.4-0.8-7.1-5-7.1   c-3.9,0-6.3,2.9-7.4,8.2H205.4z"/>
	<g class="st8">
		<path class="st9" d="M104,164.8c0,6.4-0.1,15.2,0.1,17.4c0.2,1.4,0.8,2.2,2.2,2.2h3.7c0.6,0,0.8,0.2,0.8,0.7v1.4    c0,0.5-0.2,0.8-0.5,0.8c-0.5,0-3.5-0.2-10.6-0.2c-4.8,0-9,0.2-9.6,0.2c-0.5,0-0.6-0.2-0.6-0.6V185c0-0.3,0.2-0.5,0.8-0.5h3.2    c1.6,0,2.1-1,2.1-2.7v-23.9h-5.4c-0.3,0-0.5-0.2-0.4-0.9l0.3-2.7c0-0.3,0.4-0.4,1-0.4h4.5v-1.6c0-8.2,2.4-13.4,5.9-17.1    c4.3-4.2,8.6-5.8,13.4-5.8c4.3,0,7.8,1.6,7.8,5c0,2.2-2.4,3.8-4,3.8c-1,0-1.9-0.2-2.6-0.6c-1-0.3-1.8-1.3-2.2-2.1    c-1-1.4-2.1-2.1-3.2-2.1c-1.9,0-3.5,0.5-5,2.6c-2.1,2.9-1.8,9.3-1.8,15.3v2.6h9.5c0.6,0,0.6,0.4,0.6,0.7l-0.4,2.9    c-0.1,0.3-0.4,0.4-1,0.4H104V164.8z"/>
	</g>
</g>
<g>
	<path class="st10" d="M162.9,44.3v17.9h20.1v6.7h-20.1v25.3c0,8.2,3.3,12.7,9.4,12.7c4.1,0,8.9-1.6,12.2-4v8.8   c-3.7,1.1-8.3,1.9-12.2,1.9c-11.9,0-18.3-6.8-18.3-19.4V47.7L162.9,44.3z"/>
	<path class="st10" d="M205.4,32.4v41.4c4-7.4,10.9-12.3,18.6-12.3c11.6,0,19.4,6,19.4,14.9v36.5h-8.9v-35c0-5.8-4.5-9.7-11.2-9.7   c-9.9,0-17.9,9.3-17.9,20.9v23.8h-8.9V32.4H205.4z"/>
	<path class="st10" d="M277.6,61.4c13.4,0,22.3,9.1,22.3,22.6v2.7c0,2.9-1.6,4.5-4.5,4.5H263c1.1,9.7,7,14.9,16.9,14.9   c5.1,0,9.3-1,13.4-4v9.5c-4.7,1.4-8.5,1.9-13.4,1.9c-15.6,0-26.1-10.4-26.1-26.1C253.8,71.8,263.3,61.4,277.6,61.4z M262.8,90   l5.9-5.5h22.8c0-10.6-4.8-16.4-13.9-16.4c-9.7,0-14.9,6.8-14.9,19.4C262.7,88.3,262.8,89.2,262.8,90z"/>
</g>
<g>
	<path class="st11" d="M342.4,112.8l-28.6-95.3h20.7l16.1,81.4l18.1-81.4h15.5l18.1,81.4l16.1-81.4H439l-28.6,95.3h-16.3L376.4,46   l-17.7,66.8H342.4z"/>
	<path class="st11" d="M478.1,101.9c6.7,0,13.4-1.4,18.9-5.3v14.7c-6.3,1.8-12.3,2.5-18.9,2.5c-22,0-36.7-13.9-36.7-34.8   c0-20.9,13.5-34.8,33.8-34.8c18.5,0,30.8,11.7,30.8,29.2V78c0,3.9-2.2,6-6,6h-42.4C459.1,95.7,466.1,101.9,478.1,101.9z    M465.2,73.1H492c0-11.6-5.9-17.9-16.9-17.9c-11.6,0-17.9,8.3-17.9,23.8c0,0.9,0,1.8,0.1,2.7L465.2,73.1z"/>
	<path class="st11" d="M537.1,5.6v89c0,7.9,0.6,18.7,0.6,18.7l-15.5-0.8l-1-17.5V5.6H537.1z"/>
	<path class="st11" d="M572.8,5.6v89c0,7.9,0.6,18.7,0.6,18.7l-15.5-0.8l-1-17.5V5.6H572.8z"/>
</g>
<g>
	<path class="st10" d="M154.4,144.1c0-10.5,5.3-16.1,15.2-16.1c3.2,0,7.1,0.7,10.1,1.6v7.3c-2.7-1.9-6.8-3.3-10.1-3.3   c-5.1,0-7.8,3.7-7.8,10.5v9.3h15.5v5.6h-15.5v36.5h-7.4V144.1z"/>
	<path class="st10" d="M202.2,152.8c12.2,0,20.4,8.7,20.4,21.6c0,13-8.2,21.6-20.4,21.6c-12.2,0-20.4-8.7-20.4-21.6   C181.8,161.4,190,152.8,202.2,152.8z M202.2,190.5c7.6,0,12.6-6.4,12.6-16.1c0-9.6-5-16.1-12.6-16.1c-7.6,0-12.6,6.4-12.6,16.1   C189.6,184.1,194.7,190.5,202.2,190.5z"/>
	<path class="st10" d="M263.5,195.4l-0.6-9.5c-3.3,6.1-9,10.1-15.5,10.1c-9.6,0-16.1-4.9-16.1-12.4v-30.3h7.4v29.1   c0,4.8,3.7,8,9.3,8c8.2,0,14.8-7.5,14.8-16.7v-20.4h7.4v42.1H263.5z"/>
	<path class="st10" d="M282.6,153.4h6.8l0.6,9.5c3.3-6.1,9-10.1,15.5-10.1c9.6,0,16.1,4.9,16.1,12.4v30.3h-7.4v-29.1   c0-4.8-3.7-8-9.3-8c-8.2,0-14.8,7.5-14.8,16.7v20.4h-7.4V153.4z"/>
	<path class="st10" d="M348.6,153.4h9.9l4.6,5.1v0l0-29.8h7.4v55.4c0,4.9,0.4,11.6,0.4,11.6l-6.6-0.4l-0.6-10.4   c-3.1,6.7-9,11.2-15.8,11.2c-10.6,0-17.7-8.7-17.7-21.6C330.3,161.8,337.6,153.4,348.6,153.4z M349.3,190.5   c7.6,0,13.7-7.5,13.7-16.7v-14.8h-13.7c-6.8,0-11.3,6.2-11.3,15.5C338.1,184.1,342.6,190.5,349.3,190.5z"/>
	<path class="st10" d="M398,153.4h10.1l4.3,5l0.9-5h6.6v30.7c0,4.9,0.4,11.6,0.4,11.6l-6.6-0.4l-0.5-10.2c-3.1,6.5-9,10.9-15.8,10.9   c-10.6,0-17.7-8.7-17.7-21.6C379.7,161.8,387.1,153.4,398,153.4z M398.8,190.5c7.6,0,13.7-7.2,13.7-16.1v-15.5h-13.7   c-6.8,0-11.3,6.2-11.3,15.5C387.5,184.1,392,190.5,398.8,190.5z"/>
	<path class="st10" d="M439.4,138.5v14.8h16.7v5.6h-16.7v21c0,6.8,2.7,10.5,7.8,10.5c3.4,0,7.4-1.4,10.1-3.3v7.3   c-3.1,0.9-6.9,1.6-10.1,1.6c-9.9,0-15.2-5.6-15.2-16.1v-38.6L439.4,138.5z"/>
	<path class="st10" d="M467.2,133.7c0-1.2,0.1-1.4,1.4-1.4h6.1v6.1c0,1.2-0.1,1.4-1.4,1.4h-6.1V133.7z M474.6,153.4v30.7   c0,4.9,0.4,11.6,0.4,11.6l-7.2-0.5l-0.6-10.9v-30.9H474.6z"/>
	<path class="st10" d="M504.3,152.8c12.2,0,20.4,8.7,20.4,21.6c0,13-8.2,21.6-20.4,21.6c-12.2,0-20.4-8.7-20.4-21.6   C483.9,161.4,492,152.8,504.3,152.8z M504.3,190.5c7.6,0,12.6-6.4,12.6-16.1c0-9.6-5-16.1-12.6-16.1c-7.6,0-12.6,6.4-12.6,16.1   C491.7,184.1,496.7,190.5,504.3,190.5z"/>
	<path class="st10" d="M534,153.4h6.8l0.6,9.5c3.3-6.1,9-10.1,15.5-10.1c9.6,0,16.1,4.9,16.1,12.4v30.3h-7.4v-29.1   c0-4.8-3.7-8-9.3-8c-8.2,0-14.8,7.5-14.8,16.7v20.4H534V153.4z"/>
</g>
</svg>