<?xml version="1.0" encoding="UTF-8" standalone="no"?>
<!DOCTYPE svg PUBLIC "-//W3C//DTD SVG 1.1//EN" "http://www.w3.org/Graphics/SVG/1.1/DTD/svg11.dtd">
<svg width="100%" height="100%" viewBox="0 0 1788 1192" version="1.1" xmlns="http://www.w3.org/2000/svg" xmlns:xlink="http://www.w3.org/1999/xlink" xml:space="preserve" xmlns:serif="http://www.serif.com/" style="fill-rule:evenodd;clip-rule:evenodd;stroke-linejoin:round;stroke-miterlimit:2;">
    <g transform="matrix(4.16667,0,0,4.16667,-606.25,-529.167)">
        <clipPath id="_clip1">
            <path d="M546.695,284.701L542.902,279.421L539.545,274.737L535.989,269.759L533.932,266.896L533.025,265.193L533.142,263.776L533.862,263.188L536.615,262.613L536.837,262.445L537.174,261.976L537.476,261.807L537.627,261.853L538.132,262.091L538.371,262.144L541.217,261.904L541.908,261.719L542.244,261.196L542.158,260.133L542.158,259.883L542.309,259.378L542.309,259.174L542.13,258.802L541.521,258.146L541.251,257.757L540.846,257.02L540.625,256.393L540.253,253.458L540.102,252.854L539.781,252.198L539.346,251.658L538.487,251.118L537.975,250.71L537.476,250.188L537.291,249.92L536.999,248.974L535.756,247.51L533.85,247.004L529.196,246.616L528.761,246.87L527.948,247.743L527.425,248.097L527.054,248.033L526.717,247.865L526.333,247.945L526.112,248.184L525.787,248.839L524.984,250.037L524.474,250.983L523.906,251.826L523.091,252.367L522.249,252.448L516.2,251.924L511.311,251.507L509.724,251.083L508.394,250.338L505.106,247.574L502.475,245.367L498.581,242.095L493.813,238.07L490.961,235.659L488.247,233.381L486.796,232.655L483.391,232.37L482.008,231.609L481.59,230.836L481.45,229.908L481.438,225.911L481.403,221.327L481.386,217.196L482.008,215.244L483.018,215.407L486.847,216.929L489.409,217.586L490.472,218.021L490.809,217.923L491.278,216.255L491.5,215.715L491.757,215.442L492.627,215.697L493.404,216.407L494.335,216.842L495.63,216.319L494.72,215.309L493.976,214.786L493.185,214.582L491.163,214.333L490.304,214.06L485.109,211.649L483.53,210.487L482.635,209.005L482.381,206.814L480.457,204.753L477.878,203.207L475.669,202.545L473.864,202.714L473.026,202.667L472.097,202.208L471.522,201.668L471.47,201.348L471.645,201.146L471.68,200.965L471.645,200.658L471.645,200.273L471.504,199.937L471.017,199.832L464.678,200.035L463.432,199.594L462.773,198.386L462.977,197.643L463.432,196.614L463.718,195.702L463.396,195.231L462.488,194.894L461.948,194.319L461.461,193.681L459.839,192.617L459.116,191.943L458.54,191.153L458.138,190.242L457.767,189.817L456.771,189.161L456.471,188.806L456.451,188.301L456.839,187.406L456.855,186.988L456.333,186.413L455.509,185.977L454.715,185.454L454.345,184.577L454.242,183.717L453.735,183.293L453.115,182.974L452.677,182.486L452.677,182.05L453.063,181.272L453.115,180.952L452.911,180.528L452.658,180.278L452.354,180.04L452.052,179.703L451.462,178.791L451.241,178.239L451.445,177.664L452.593,175.892L452.811,175.305L453.063,173.789L453.248,173.347L453.705,172.761L453.755,172.354L453.62,172.081L451.577,169.339L444.062,162.472L442.629,160.096L442.358,157.621L445.546,148.565L445.223,147.083L443.84,144.231L443.925,142.836L444.5,142.058L445.156,141.518L445.594,140.862L445.475,139.751L433.457,135.587L427.068,132.938L423.745,132.147L420.763,132.688L417.78,134.506L416.061,135.267L414.717,135.25L414.247,134.64L413.146,131.677L412.705,131.456L400.679,131.52L399.098,131.944L397.668,133.007L395.115,135.569L395.105,135.569L385.226,144.317L383.547,145.381L381.725,146.153L372.6,148.397L370.57,149.378L354.016,160.096L350.685,160.736L347.33,160.91L343.405,160.602L341.119,160.706L339.686,161.345L339.304,162.641L338.427,174.678L338.241,175.183L337.829,175.52L334.562,176.99L333.824,177.106L332.29,176.752L321.128,171.441L317.499,170.652L314.898,171.291L311.019,173.516L309.949,174.428L306.443,178.372L299.392,182.283L298.13,184.356L298.404,184.304L298.543,184.373L298.618,184.507L298.7,184.577L296.832,190.915L295.987,192.315L295.229,194.186L295.452,196.8L296.794,201.418L293.465,202.685L293.114,202.749L292.78,202.597L292.443,202.377L292.042,202.225L290.88,202.109L290.502,202.208L289.948,202.499L289.117,203.404L288.568,203.608L288.234,202.854L288.101,202.145L287.868,201.685L287.017,200.878L285.818,200.169L284.818,200.187L283.772,200.425L282.441,200.273L280.313,198.67L279.04,198.217L278.088,199.158L279.075,199.919L279.389,201.081L279.188,203.812L278.939,204.956L278.233,206.763L279.92,218.916L279.262,219.357L271.424,219.828L270.373,220.247L270.196,221.612L270.753,223.302L270.806,224.179L270.33,224.969L269.752,225.121L267.146,224.713L266.08,224.749L265.767,224.685L265.342,224.411L264.575,223.604L264.258,223.487L263.629,223.569L263.292,223.471L259.381,220.433L257.2,219.12L253.657,216.273L252.774,215.901L250.816,215.378L249.169,214.722L248.391,214.564L247.438,214.652L246.505,214.634L245.396,214.35L244.803,213.862L245.396,213.287L245.805,213.048L246.775,212.143L247.147,211.985L247.595,211.921L247.929,211.735L247.958,211.212L247.7,211.079L246.549,210.859L246.14,210.69L245.982,210.388L245.736,209.406L245.457,209.005L245.277,208.872L245.103,208.819L244.934,208.872L244.783,209.005L244.138,209.76L244.411,209.981L245.021,210.016L245.396,210.284L245.144,210.742L244.506,211.294L243.787,211.771L243.275,211.957L242.695,212.154L241.962,212.984L241.532,213.252L240.255,213.589L239.859,213.792L239.061,214.535L238.567,215.425L237.757,217.417L237.016,218.597L236.112,219.642L235.592,219.909L235.137,219.892L234.689,219.811L234.227,219.892L233.504,220.386L232.638,221.158L231.936,222.036L231.714,222.762L232.046,223.215L233.057,223.79L233.164,224.208L232.831,224.633L232.284,224.783L229.229,224.633L228.424,224.987L227.823,226.603L227.523,226.991L227.277,227.433L227.277,228.02L227.549,228.461L228.932,229.739L230.208,232.539L230.817,233.381L232.206,234.56L233.092,235.676L233.472,237.024L233.313,239.789L233.922,241.996L233.855,242.572L232.862,245.721L232.392,246.33L231.738,246.766L230.846,247.068L229.847,247.207L229.193,247.004L227.832,246.197L226.429,245.889L224.842,246.011L223.256,246.412L221.871,246.952L221.363,247.021L221.038,246.935L220.869,247.068L220.581,249.601L220.997,250.409L223.073,252.012L223.867,252.785L224.872,255.062L225.292,255.701L225.548,255.87L225.566,256.038L225.251,256.711L224.579,257.606L223.669,258.501L222.853,259.478L222.475,260.655L224.207,264.788L224.645,266.861L223.23,267.15L222.8,266.779L222.422,266.238L221.955,265.866L221.255,265.901L220.729,266.221L220.608,266.559L220.619,266.947L220.451,267.702L220.535,268.26L220.474,268.551L220.288,268.749L216.079,272.223L217.278,274.535L216.811,275.058L215.373,275.12L213.666,276.086L213.163,277.026L213.064,277.822L212.826,278.444L211.876,278.897L211.391,278.932L210.423,278.817L209.918,278.932L209.416,279.357L208.753,280.57L208.376,281.06L207.688,281.46L206.34,281.698L205.515,281.965L204.585,281.174L203.583,281.157L201.544,281.884L200.553,281.884L199.531,281.629L198.497,281.547L197.459,281.965L197.027,282.337L196.563,282.61L196.063,282.726L195.522,282.691L194.651,282.796L192.766,282.743L192.022,282.796L191.326,283.115L189.748,284.057L188.275,284.532L187.556,285.137L186.286,286.572L184.436,288.07L183.48,289.401L183.152,289.674L182.8,289.721L182.536,289.587L182.274,289.384L181.955,289.233L181.653,289.249L181.435,289.401L181.254,289.587L181.054,289.674L179.396,289.942L179.239,290.057L178.882,290.43L178.625,290.516L178.354,290.412L177.767,289.993L177.554,289.925L176.904,290.011L176.599,290.109L176.607,290.348L176.9,290.888L177.167,290.987L178.405,291.714L178.591,291.917L179.419,291.747L179.832,291.778L180.328,291.928L181.258,292.334L182.013,292.806L182.577,293.485L182.94,294.443L182.986,295.286L182.888,296.366L182.478,298.255L182.211,298.742L181.853,299.247L181.589,299.77L181.601,300.327L181.966,300.861L182.396,300.968L182.882,300.896L183.422,300.985L185.121,302.332L185.563,304.053L185.563,308.05L185.824,309.158L185.865,309.786L185.478,310.205L184.438,310.71L183.707,311.336L183.498,312.215L183.829,317.269L183.738,318.047L183.146,319.058L181.641,320.575L181.191,321.684L180.897,323.659L180.413,324.333L179.273,325.041L178.475,325.378L177.659,325.633L172.901,326.237L172.212,326.691L172.062,327.453L172.622,330.385L172.329,331.651L173.41,331.396L174.058,332.728L174.943,336.104L175.512,337.131L175.687,337.718L175.024,340.5L175.04,340.905L174.97,341.378L174.659,341.614L174.267,341.796L173.944,342.15L173.697,342.877L173.244,345.455L173.267,345.897L173.505,346.687L173.563,347.093L174.295,347.379L173.821,347.802L173.49,348.574L173.435,349.318L173.792,349.655L173.935,350.109L173.288,352.654L172.167,354.391L171.983,354.797L171.597,357.242L171.335,357.951L172.169,358.422L173.011,359.514L173.592,360.728L173.647,361.57L174.324,361.826L174.655,361.879L175.097,361.895L175.381,362.063L175.591,362.464L175.75,362.89L175.899,363.19L176.413,363.627L177.066,363.97L177.868,364.167L178.833,364.202L179.059,364.052L179.239,363.783L179.416,363.598L179.663,363.713L179.873,363.848L180.125,363.899L180.668,363.884L181.223,363.748L181.524,363.447L181.766,363.11L182.123,362.89L182.928,362.925L185.135,363.243L185.899,363.04L188.246,364.424L188.67,364.371L189.028,363.73L189.809,363.802L190.596,364.307L190.95,365.026L190.95,367.677L190.826,367.943L190.646,368.217L190.698,368.437L191.279,368.483L191.616,368.367L191.901,368.129L192.119,367.81L192.258,367.491L192.391,368.483L191.984,369.36L191.959,369.883L193.237,369.832L192.911,370.69L193.199,371.202L194.404,371.992L194.495,372.365L193.376,372.748L192.943,373.153L193.341,373.153L193.655,373.259L193.931,373.375L194.241,373.475L193.591,373.781L193.98,374.351L194.512,374.42L195.069,374.184L195.546,373.781L195.787,374.653L196.298,375.111L196.928,375.415L197.506,375.786L198.041,376.513L198.369,377.4L198.189,378.045L197.179,378.074L197.39,378.567L197.925,379.276L198.447,380.403L198.535,380.707L197.849,382.683L197.907,383.223L199.313,384.535L199.726,384.669L199.996,384.366L200.249,383.925L200.614,383.71L201.158,383.809L201.375,384.028L201.538,384.262L201.937,384.366L203.054,384.447L204.004,384.755L204.681,385.342L205,386.336L205.913,386.033L206.302,386.76L206.534,387.857L206.99,388.665L206.226,388.932L205.819,389.003L205.358,388.967L205.358,389.321L205.778,389.711L205.872,389.896L206.009,390.279L206.642,390.101L207.272,391.11L207.998,390.971L207.728,390.721L207.646,390.501L207.815,390.332L208.292,390.279L208.786,390.352L209.024,390.519L209.18,390.774L209.45,391.11L210.002,391.615L210.18,391.919L210.25,392.441L210.354,392.795L210.609,392.999L211.254,393.266L211.496,393.539L211.484,393.72L211.519,393.772L211.908,393.604L212.295,393.354L212.608,393.017L212.776,392.725L212.724,392.61L213.427,392.61L214.017,392.523L214.58,392.237L215.196,391.601L215.739,392.052L216.425,393.063L216.979,393.266L217.67,393.081L217.851,392.575L217.874,391.937L218.11,391.262L218.26,390.942L218.298,390.757L218.449,390.652L219.314,390.652L219.69,390.738L219.977,390.874L220.087,391.11L219.98,391.954L219.513,393.203L219.405,394.073L220.082,395.072L221.636,395.226L223.346,395.136L224.505,395.427L224.933,396.119L225.342,397.698L225.662,398.221L226.318,398.541L226.478,398.106L226.466,397.315L226.611,396.554L227.343,396.758L228.639,397.28L228.952,396.908L229.571,395.713L229.69,395.101L229.551,393.959L229.557,393.539L229.821,393.098L231.268,391.601L230.707,391.414L230.495,391.361L231.131,390.792L231.953,390.501L233.754,390.27L234.634,389.774L236.005,387.857L236.864,387.213L237.687,387.113L240.403,387.904L240.902,388.177L241.182,388.276L241.477,388.212L241.573,387.975L241.588,387.718L241.637,387.585L242.372,387.249L242.767,387.113L244.298,387.096L244.603,386.423L244.803,385.633L245.512,385.244L246.537,384.987L248.332,383.826L249.305,383.541L252.469,383.488L253.387,383.205L253.793,382.897L254.557,382.089L255.042,381.77L255.739,381.549L258.057,381.265L258.415,381.316L259.036,381.67L259.338,381.717L259.591,381.584L260.035,381.025L260.198,380.926L260.84,381.13L261.206,381.484L261.517,381.868L262.025,382.222L262.841,382.392L265.699,382.025L273.208,382.629L273.81,382.868L274.649,383.641L275.16,383.896L275.593,383.756L276.154,383.408L276.647,383.205L276.859,383.541L276.819,384.5L276.903,385.477L277.385,386.104L278.524,386L279.183,385.342L280.798,383.054L281.536,382.531L282.119,382.886L282.134,383.809L282.032,384.941L282.241,385.899L283.075,386.388L284.147,386.423L285.254,386.679L286.209,387.84L286.808,390.147L287.278,391.279L288.112,391.97L288.972,392.001L290.616,391.528L291.522,391.732L292.272,392.494L292.852,393.62L293.707,395.862L296.083,400.465L300.843,406.803L301.936,407.633L303.077,407.731L303.974,406.941L305.139,404.495L306.635,403.06L304.91,400.905L303.199,399.338L302.955,398.848L302.871,398.054L302.943,397.28L303.181,396.502L303.591,395.794L304.201,395.271L303.681,394.87L303.527,394.429L303.469,393.991L303.228,393.604L302.81,393.382L302.545,393.418L302.284,393.372L301.895,392.946L301.567,391.937L301.744,390.942L302.545,389.321L304.195,387.485L304.497,386.998L304.364,386.522L303.228,384.687L303.022,383.471L303.463,381.299L303.521,380.05L303.21,379.189L302.127,377.569L301.895,376.592L301.895,372.462L301.396,370.29L301.416,369.327L302.04,368.332L303.007,367.577L303.364,367.153L303.521,366.515L303.495,365.887L303.332,365.638L303.022,365.486L302.545,365.195L302.086,365.026L301.668,365.026L301.36,364.911L301.244,364.371L301.07,364.052L300.664,363.952L300.175,363.899L299.76,363.713L299.37,362.925L299.37,361.908L299.612,360.932L299.937,360.223L300.277,359.77L300.643,359.485L301.104,359.317L301.727,359.265L302.246,359.061L302.684,358.608L302.891,358.147L302.708,357.951L301.541,357.916L300.762,357.782L300.175,357.493L298.499,356.011L298.125,355.4L297.979,354.461L297.84,354.239L297.192,353.582L296.971,353.316L296.844,352.839L296.765,351.811L296.648,351.323L295.217,348.796L295.017,347.866L295.153,347.396L295.792,346.234L296.083,345.438L296.216,345.269L296.323,345.055L296.321,344.729L296.184,344.531L295.963,344.409L295.757,344.374L295.665,344.374L295.501,343.672L295.647,343.382L296.158,342.877L296.419,342.423L296.593,341.325L297.395,340.012L297.924,337.771L298.275,336.758L298.914,336.031L299.678,335.44L300.32,334.736L300.591,333.639L300.303,332.71L299.78,331.849L299.495,330.926L299.626,330.589L299.56,330.299L303.679,330.385L303.695,330.892L309.224,330.839L318.544,330.739L330.096,330.617L340.84,330.521L351.286,330.421L358.708,330.352L359.265,330.031L359.608,329.189L360.439,328.916L366.475,329.103L369.131,330.147L370.328,330.367L376.404,330.421L382.16,330.485L382.58,329.747L383.938,329.544L390.521,330.066L390.923,330.13L391.287,330.385L391.62,331.043L391.864,331.193L392.361,331.176L392.042,331.834L392.874,331.716L393.944,330.554L394.967,330.385L395.24,330.049L395.521,329.927L395.788,330.031L396.036,330.385L401.813,330.503L401.877,331.043L402.091,331.094L402.424,330.955L402.864,331.008L403.151,331.344L402.945,331.733L402.588,332.105L402.442,332.442L404.738,334.65L405.575,334.146L406.056,333.046L406.405,331.866L406.847,331.061L407.531,330.804L408.524,330.688L410.386,330.757L410.552,330.705L410.706,330.617L410.851,330.521L410.969,330.385L411.418,329.829L412.677,329.242L413.239,328.782L413.498,328.259L413.604,327.168L413.826,326.459L414.742,325.291L415.665,325.291L416.571,326.033L417.425,327.046L419.818,325.309L420.425,324.723L420.794,323.996L420.696,323.561L420.51,323.119L420.643,322.329L427.117,323.675L432.042,324.688L437.892,325.884L448.781,328.108L458.289,330.049L458.391,330.112L458.456,330.234L458.476,330.385L458.408,330.606L458.372,330.804L458.305,330.99L458.138,331.193L458.913,331.379L458.341,333.437L464.308,331.344L467.293,330.757L471.895,330.67L478.098,330.554L479.546,331.361L480.189,331.448L481.05,331.466L481.251,331.193L481.368,330.635L481.315,330.066L481.05,329.812L480.659,329.625L480.492,329.189L480.475,328.649L480.527,328.161L480.694,328.04L481.101,327.436L481.386,326.842L481.707,326.424L481.908,326.337L482.124,326.406L483.169,326.574L483.496,326.813L483.744,327.027L483.995,327.133L484.135,327.249L484.391,327.719L484.471,327.823L484.771,327.807L485.296,327.551L485.48,327.504L486.946,327.655L487.434,327.823L487.556,328.056L487.893,328.549L488.247,328.87L488.415,328.649L488.468,327.869L487.928,327.318L487.62,326.813L487.538,326.272L487.538,325.732L487.434,325.157L487.334,325.157L486.882,324.955L486.747,324.855L486.731,324.635L486.796,324.03L486.747,323.828L486.307,323.728L486.003,323.996L485.818,324.065L485.772,323.339L486.023,323.234L487.591,322.88L487.876,322.683L488.194,321.807L488.415,321.55L488.922,321.55L489.861,322.008L490.374,322.194L490.118,321.346L489.932,319.696L489.037,318.231L489.274,317.622L489.764,317.151L490.269,316.392L490.721,316.764L491.083,317.32L491.03,317.552L491.431,317.569L491.686,317.455L491.942,317.304L492.359,317.204L493.254,317.251L494.033,317.473L495.613,318.214L496.217,317.1L496.287,316.729L496.188,316.241L495.718,315.787L495.613,315.397L495.852,314.822L496.392,315.079L496.949,315.716L497.253,316.241L497.565,315.833L497.908,315.701L498.245,315.833L498.581,316.241L499.407,315.531L499.32,314.91L498.855,314.253L498.581,313.422L498.983,312.499L499.946,311.877L501.026,311.4L501.8,310.931L501.363,309.885L501.412,309.479L501.8,308.909L502.422,308.451L503.031,308.251L503.52,307.979L503.793,307.288L504.564,307.729L505.49,307.915L509.997,308.282L509.893,308.601L509.777,309.281L509.689,309.6L510.521,309.547L511.532,311.4L512.455,311.081L513.284,310.663L515.469,310.187L516.398,309.751L517.143,309.514L519.247,309.664L520.163,309.6L522.033,308.838L522.94,308.652L523.765,308.909L524.219,308.601L524.81,308.688L526.041,309.281L528.065,310.054L529.748,310.187L531.068,309.564L537.574,302.937L541.064,300.091L543.61,298.655L544.284,298.016L544.453,297.563L544.399,297.022L544.435,296.18L544.958,294.816L546.794,292.759L547.456,291.492L548.769,287.008L549.193,286.804L546.695,284.701Z"/>
        </clipPath>
        <g clip-path="url(#_clip1)">
            <rect x="145.5" y="127" width="429" height="286" style="fill:rgb(19,159,74);fill-rule:nonzero;"/>
            <rect x="145.5" y="127" width="429" height="143" style="fill:rgb(238,45,47);fill-rule:nonzero;"/>
            <path d="M405.334,255.271L370.702,255.271L360,222.333L349.298,255.271L314.666,255.271L342.684,275.626L331.982,308.563L360,288.207L388.018,308.563L377.315,275.626L405.334,255.271Z" style="fill:rgb(251,209,19);fill-rule:nonzero;"/>
        </g>
    </g>
</svg>
