<?xml version="1.0" encoding="UTF-8" standalone="no"?>
<!DOCTYPE svg PUBLIC "-//W3C//DTD SVG 1.1//EN" "http://www.w3.org/Graphics/SVG/1.1/DTD/svg11.dtd">
<svg width="100%" height="100%" viewBox="0 0 1640 1094" version="1.1" xmlns="http://www.w3.org/2000/svg" xmlns:xlink="http://www.w3.org/1999/xlink" xml:space="preserve" xmlns:serif="http://www.serif.com/" style="fill-rule:evenodd;clip-rule:evenodd;stroke-linejoin:round;stroke-miterlimit:2;">
    <g transform="matrix(4.16667,0,0,4.16667,-680.221,-578.479)">
        <clipPath id="_clip1">
            <path d="M447.23,341.234L443.97,340.855L443.427,340.578L443.011,340.096L442.496,339.301L442.192,338.955L441.899,338.789L441.608,338.664L441.288,338.439L440.678,337.57L439.649,334.43L436.651,334.416L435.847,334.191L435.347,333.818L434.057,332.277L433.068,331.65L431.126,330.693L430.306,329.848L429.681,328.904L429.21,327.971L428.959,327.002L429.028,325.957L429.28,325.461L429.558,325.088L429.586,324.723L429.085,324.227L428.724,324.154L427.626,324.197L427.253,324.154L426.904,323.531L426.349,323.127L425.837,322.656L425.615,321.838L425.962,319.854L425.919,319.211L425.586,318.576L425.017,318.031L424.323,317.658L423.655,317.506L423.393,317.16L422.254,315.049L421.768,314.686L421.394,314.467L421.269,314.088L421.532,313.256L422.366,311.883L422.462,311.217L421.991,310.381L420.88,309.523L420.421,308.912L421.005,308.744L421.574,308.701L423.239,308.27L423.739,307.979L424.49,306.635L424.517,304.912L424.353,303.15L424.476,301.605L425.433,299.248L425.794,297.414L426.323,295.971L426.364,295.123L425.739,292.539L425.476,292.195L424.032,292.721L423.254,292.859L422.531,292.764L421.297,291.668L420.659,289.947L420.462,288.004L420.614,285.713L420.754,285.225L421.005,284.809L421.407,284.422L421.921,284.182L422.546,284.02L423.075,283.74L423.308,283.211L423.294,282.145L423.407,280.924L423.921,280.115L425.06,280.311L424.947,279.531L425.031,277.479L424.67,275.23L424.71,272.855L424.294,270.063L424.323,268.594L424.309,267.83L423.933,266.355L423.794,264.508L423.587,263.537L423.782,263.26L424.087,263.025L424.309,262.514L424.239,261.969L423.962,261.623L423.655,261.332L423.503,260.916L423.546,260.398L423.739,260.246L424.046,260.223L424.378,260.055L425.685,258.887L426.335,258.457L428.071,257.682L428.71,257.289L429.003,256.697L428.849,255.721L428.71,255.582L428.239,255.514L428.071,255.375L428.058,255.193L428.086,254.791L427.987,254.223L428.002,253.762L427.919,253.348L426.407,252.113L425.907,250.615L425.21,249.156L422.644,247.945L421.615,247.213L420.659,246.338L419.991,245.559L418.421,244.491L416.853,242.309L415.702,239.841L415.366,237.879L415.632,237.506L416.132,237.41L416.589,237.586L417.006,238.477L417.421,238.018L417.688,237.367L417.479,237.199L417.896,237.061L418.257,237.119L418.659,237.242L419.159,237.324L419.604,237.119L419.728,236.592L419.798,235.979L419.991,235.478L420.866,234.243L420.366,232.301L418.479,229.09L418.466,229.09L417.937,227.855L418.338,226.65L419.005,225.425L419.213,224.147L419.213,223.525L419.464,223.147L420.353,222.358L420.823,221.541L420.812,220.914L420.323,219.497L420.366,218.724L420.685,218.335L421.13,218.081L421.521,217.665L421.685,217.167L421.754,216.015L422.115,214.001L421.866,213.073L421.159,212.46L419.991,212.058L419.964,212.015L419.95,211.972L419.964,211.935L420.228,211.489L420.312,211.087L420.242,210.695L419.991,210.35L417.909,209.584L417.158,209.459L415.575,209.556L414.702,209.709L414.104,209.977L413.911,210.278L413.786,211.087L413.633,211.417L413.326,211.67L411.536,212.307L410.8,212.446L410.077,212.364L409.899,211.834L410.217,211.393L409.938,210.751L409.938,210.197L411.578,209.862L412.202,209.614L412.702,209.278L412.854,208.862L412.509,208.432L411.953,208.408L410.938,208.598L410.538,208.422L410.147,208.14L409.855,207.892L409.76,207.78L409.745,207.533L409.925,206.408L410.022,206.154L412.009,206.378L412.954,206.322L413.661,205.867L414.202,206.226L414.925,206.336L415.563,206.154L415.826,205.614L415.493,204.795L414.716,204.642L413.118,205.045L411.896,204.92L411.271,204.088L411.245,202.934L411.8,201.81L412.854,202.905L413.508,203.27L414.216,203.183L414.618,202.7L414.728,202.007L414.647,201.285L414.465,200.7L414.202,200.298L413.925,199.992L413.716,199.563L413.661,198.824L414.494,195.743L414.509,195.298L414.326,193.701L414.41,193.146L414.728,192.553L415.228,192.007L415.505,191.759L415.534,191.438L415.271,190.647L414.8,189.72L414.728,189.453L414.812,189.08L414.938,188.845L414.965,188.582L414.728,188.189L415.425,188.064L416.021,188.166L416.465,188.051L416.632,187.275L416.52,186.471L416.201,186.204L415.771,186.094L415.271,185.772L414.882,184.749L415.09,181.945L415.021,180.61L415.312,180.071L415.425,179.416L415.604,178.822L416.575,178.1L415.771,177.43L415.396,177.252L413.673,177.544L413.118,177.544L413.466,176.737L413.05,176.114L412.384,175.5L411.939,174.778L411.993,174.445L412.133,174.028L412.106,173.583L411.717,173.195L411.314,173.1L410.968,173.211L410.593,173.392L410.147,173.516L409.771,173.459L408.731,173.042L408.621,173.167L408.509,173.42L408.344,173.656L408.052,173.698L407.938,173.544L405.928,169.823L405.304,169.157L403.233,167.851L402.901,167.464L402.442,166.574L402.136,166.201L401.775,165.991L400.54,165.574L400.193,165.34L399.942,165.101L399.665,164.909L398.749,164.799L398.292,164.669L397.86,164.464L397.515,164.186L397.11,163.354L397.139,162.537L397.515,160.967L397.723,159.297L398.015,158.603L398.569,157.896L399.372,157.355L399.72,157.035L399.79,156.604L399.581,155.828L399.556,155.441L400.401,151.441L400.596,151.078L400.916,150.748L401.263,150.523L401.54,150.245L401.624,149.748L401.733,148.346L401.61,147.107L401.026,146.179L399.708,145.681L398.972,145.691L397.639,146.041L396.917,146.112L396.194,145.93L395.391,145.484L394.737,144.887L394.445,144.221L389.114,143.112L389.003,143.762L389.156,144.127L389.237,144.484L388.935,145.083L388.435,145.566L386.463,146.997L385.759,146.164L385.013,145.552L384.252,145.552L383.499,146.513L383.317,147.097L383.229,147.997L383.016,148.427L382.552,148.805L381.517,149.288L381.146,149.748L381.05,149.857L380.931,149.94L380.804,150.01L380.664,150.054L379.134,149.996L378.315,150.092L377.751,150.303L377.387,150.968L377.101,151.939L376.702,152.843L376.015,153.259L374.124,151.441L374.244,151.164L374.537,150.857L374.708,150.537L374.471,150.26L374.107,150.217L373.832,150.332L373.657,150.289L373.604,149.844L368.847,149.748L368.644,149.456L368.423,149.37L368.191,149.471L367.968,149.748L367.124,149.887L366.245,150.844L365.558,150.939L365.821,150.398L365.411,150.413L365.212,150.289L364.936,149.748L364.638,149.537L364.304,149.484L358.884,149.054L357.767,149.221L357.42,149.829L352.681,149.777L347.677,149.732L346.691,149.552L344.503,148.69L339.531,148.538L338.847,148.762L338.565,149.456L338.105,149.719L331.994,149.777L323.392,149.857L314.543,149.94L305.029,150.039L297.353,150.121L292.801,150.164L292.786,149.748L289.394,149.676L289.449,149.916L289.342,150.193L289.577,150.953L290.007,151.662L290.244,152.427L290.021,153.331L289.493,153.91L288.864,154.398L288.337,154.996L288.048,155.828L287.613,157.675L286.952,158.757L286.809,159.661L286.593,160.034L286.172,160.45L286.052,160.689L286.187,161.268L286.263,161.268L286.433,161.297L286.615,161.398L286.728,161.56L286.729,161.828L286.641,162.005L286.531,162.145L286.292,162.8L285.766,163.757L285.653,164.144L285.818,164.909L286.997,166.99L287.093,167.393L287.158,168.24L287.263,168.631L287.445,168.851L287.978,169.392L288.093,169.573L288.212,170.349L288.521,170.852L289.902,172.07L290.385,172.311L291.026,172.419L291.988,172.449L292.138,172.611L291.969,172.989L291.607,173.363L291.179,173.531L290.667,173.573L290.287,173.711L289.985,173.947L289.705,174.32L289.437,174.903L289.239,175.708L289.239,176.545L289.56,177.195L289.902,177.348L290.304,177.391L290.639,177.473L290.782,177.736L290.878,178.181L291.131,178.277L291.476,178.277L291.854,178.416L292.246,178.654L292.502,178.779L292.636,178.984L292.657,179.501L292.528,180.026L292.234,180.377L291.437,180.999L290.923,181.816L290.907,182.611L291.317,184.4L291.317,187.802L291.509,188.605L292.401,189.941L292.657,190.647L292.61,191.677L292.246,193.467L292.416,194.467L293.351,195.979L293.461,196.37L293.212,196.772L291.854,198.284L291.193,199.619L291.047,200.438L291.317,201.269L291.638,201.618L291.854,201.658L292.071,201.628L292.416,201.81L292.614,202.131L292.662,202.489L292.789,202.853L293.217,203.183L292.715,203.614L292.378,204.197L292.181,204.838L292.121,205.475L292.19,206.13L292.392,206.533L293.801,207.825L295.222,209.599L295.752,210.278L295.796,210.848L295.633,212.11L295.686,212.417L295.879,213.087L295.879,214.153L295.679,214.819L295.212,215.11L294.677,215.36L294.272,215.89L294.205,216.636L294.516,217.249L295.071,217.665L295.758,217.804L296.375,218.153L296.323,218.899L295.853,219.65L294.605,220.307L294.148,221.023L293.461,222.431L292.624,223.292L292.461,223.622L292.385,225.593L292.222,226.219L291.854,226.775L292.237,226.995L292.488,227.258L292.798,227.468L293.341,227.564L294.351,227.606L295.343,227.827L296.339,228.358L296.592,228.995L296.633,229.804L297.245,231.659L297.48,231.841L297.743,231.885L297.963,231.965L298.054,232.314L298.102,232.993L298.903,235.755L298.86,236.285L298.444,236.52L298.152,236.783L298.05,237.285L298.25,237.616L298.607,237.452L298.793,238.061L302.413,260.193L302.143,260.807L300.376,261.83L299.841,262.01L299.387,261.969L298.887,261.734L298.562,261.721L298.308,261.953L298.035,262.471L297.867,263.094L297.963,263.596L298.485,264.732L298.738,265.676L298.703,266.369L298.313,266.873L297.501,267.289L295.155,268.064L294.432,268.58L292.636,270.646L291.995,271.188L291.939,271.063L291.741,270.844L291.479,270.66L291.232,270.689L291.117,270.982L290.947,273.926L290.818,274.369L290.502,274.699L289.629,275.23L289.289,275.545L289.258,275.742L289.373,276.254L289.361,276.465L289.21,276.729L288.815,277.201L288.663,277.465L285.823,283.531L285.299,285.129L283.374,297.209L283.41,297.664L283.659,298.219L283.921,298.539L284.096,298.859L284.067,299.4L283.718,300.166L281.914,302.414L281.715,302.803L281.39,304.773L281.192,305.051L279.242,305.691L278.688,306.037L274.152,313.781L273.494,315.299L273.439,316.73L273.609,317.117L274.102,317.754L274.63,318.766L274.724,319.031L273.951,321.197L273.738,321.447L273.013,321.848L272.729,322.27L272.676,322.92L275.778,336.805L276.359,337.512L277.518,338.564L278.355,340.762L279.546,347.314L280.118,348.717L281.632,351.463L282.112,352.893L282.213,354.311L281.828,358.797L284.381,358.572L283.984,361.031L284.197,362.045L285.127,362.557L285.897,362.461L287.177,361.695L287.815,361.432L290.617,362.156L291.121,362.572L291.43,363.084L291.579,363.711L291.672,365.764L292.368,368.58L293.442,371.084L293.609,371.791L293.509,372.471L293.119,372.967L292.598,373.055L291.275,372.82L291.017,375.246L291.128,375.791L291.677,376.582L291.852,377.025L291.829,377.355L291.665,378.178L291.695,378.537L291.82,378.676L292.339,379.121L292.554,379.369L292.177,380.105L291.614,380.508L290.71,380.633L289.169,380.58L288.318,380.969L286.909,381.188L285.818,381.646L285.921,382.719L285.491,382.844L284.68,383.186L284.166,383.258L283.955,383.121L283.476,382.426L283.24,382.188L282.388,381.939L279.575,381.926L279.127,381.996L278.764,382.135L278.46,382.203L278.295,382.844L278.938,382.996L284.397,384.66L290.064,385.646L295.2,386.033L301.67,388.217L308.324,389.588L312.406,391.172L312.625,391.406L312.796,391.713L312.871,391.99L313.026,392.34L313.407,392.574L314.236,392.924L315.906,394.254L316.275,394.641L316.234,394.822L316.679,394.865L317.272,395.047L317.593,395.086L318.102,395.225L318.193,395.588L318.15,396.02L318.261,396.42L318.547,396.684L318.787,396.74L319.837,396.699L320.368,396.488L323.078,396.143L323.633,395.908L324.224,395.35L325.173,394.004L325.808,393.465L328.817,392.115L331.518,391.354L331.883,391.311L332.231,391.238L332.25,391.063L332.183,390.799L332.273,390.521L333.405,389.268L333.883,388.908L336.573,387.574L336.739,387.436L336.983,387.158L337.077,386.844L336.799,386.258L336.862,385.939L337.355,385.551L338.02,385.383L338.713,385.436L339.28,385.689L339.971,385.201L340.859,384.867L343.599,384.48L345.019,383.785L345.748,383.551L346.146,383.535L346.959,383.58L347.358,383.551L347.784,383.383L348.693,382.844L349.116,382.719L351.679,382.646L352.484,382.48L354.04,381.785L354.846,381.318L355.195,380.969L355.613,380.398L359.714,378.633L360.343,378.471L360.991,378.412L361.475,378.01L361.79,377.924L361.931,378.273L362.134,378.633L362.599,378.646L363.541,378.412L364.513,378.346L364.886,378.217L365.153,377.887L365.732,378.385L366.632,378.426L369.556,378.01L370.15,377.637L371.083,376.537L373.378,374.666L373.882,374.471L375.918,373.055L376.245,373.609L376.896,373.412L377.532,372.93L377.822,372.639L378.294,372.639L381.042,371.959L382.458,371.098L382.985,370.553L383.19,369.959L383.494,369.514L386.38,367.1L387.113,366.75L388.892,366.527L397.333,363.807L397.957,363.754L398.304,363.625L398.526,363.447L399.04,362.93L399.234,362.82L402.358,361.777L402.983,361.127L403.429,360.418L403.969,359.85L405.511,359.404L406.581,358.404L407.19,358.002L409.815,357.295L410.563,356.754L410.898,356.645L411.841,356.6L412.049,356.492L412.245,356.256L412.716,356.074L413.661,355.852L415.341,355.77L429.446,356.783L436.956,355.936L438.54,355.395L439.803,354.229L440.138,353.492L440.554,351.658L440.595,350.855L440.788,350.074L441.762,348.162L442.204,347.469L444.204,345.344L445.565,344.287L447.343,343.33L447.591,343.244L447.689,341.842L447.23,341.234Z"/>
        </clipPath>
        <g clip-path="url(#_clip1)">
            <path d="M163.253,138.835L556.747,138.835L556.747,401.165L163.253,401.165" style="fill:rgb(12,108,64);fill-rule:nonzero;"/>
            <path d="M163.253,138.835L556.747,138.835L556.747,313.722L163.253,313.722" style="fill:rgb(251,209,19);fill-rule:nonzero;"/>
            <path d="M163.253,138.835L556.747,138.835L556.747,226.278L163.253,226.278" style="fill:rgb(207,32,40);fill-rule:nonzero;"/>
            <path d="M405.471,259.507L370.605,259.507L359.125,225.404L348.321,259.507L312.781,259.507L341.774,280.169L331.144,313.722L359.665,292.918L388.856,313.722L377.479,279.924L405.471,259.507Z" style="fill:rgb(3,4,4);fill-rule:nonzero;"/>
        </g>
    </g>
</svg>
