<?xml version="1.0" encoding="UTF-8" standalone="no"?>
<!DOCTYPE svg PUBLIC "-//W3C//DTD SVG 1.1//EN" "http://www.w3.org/Graphics/SVG/1.1/DTD/svg11.dtd">
<svg width="100%" height="100%" viewBox="0 0 2670 1780" version="1.1" xmlns="http://www.w3.org/2000/svg" xmlns:xlink="http://www.w3.org/1999/xlink" xml:space="preserve" xmlns:serif="http://www.serif.com/" style="fill-rule:evenodd;clip-rule:evenodd;stroke-linecap:round;stroke-linejoin:round;stroke-miterlimit:2;">
    <g transform="matrix(4.16667,0,0,4.16667,-161.971,-239.254)">
        <clipPath id="_clip1">
            <path d="M522.208,125.467L520.375,125.089L518.57,124.143L516.62,123.517L514.875,124.522L514.281,124.643L513.697,124.54L512.615,124.092L511.961,124.041L508.669,124.841L507.586,124.917L505.522,125.493L500.915,125.742L496.72,125.991L494.571,125.742L492.576,124.943L490.755,123.517L488.124,119.854L487.041,118.856L486.388,118.453L484.428,117.808L483.671,117.43L483.25,117.009L482.563,115.737L481.557,114.593L479.081,112.917L478.17,111.749L475.583,113.441L472.171,114.74L467.829,116.381L462.525,118.427L462.285,118.66L462.044,119.304L461.829,119.502L458.588,120.628L454.427,122.072L454.307,122.072L454.187,122.046L454.066,121.977L453.672,121.952L453.637,122.098L453.663,122.347L453.474,122.596L451.617,123.517L447.637,125.441L444.095,127.136L440.579,128.812L439.755,129.834L438.945,131.975L437.803,134.966L437.115,136.238L436.334,137.261L433.109,140.209L430.41,142.65L429.344,143.922L428.449,146.647L427.762,147.714L426.446,147.791L425.794,147.345L425.484,146.82L425.271,146.244L424.908,145.797L423.653,145.375L418.514,145.221L418.892,144.474L418.701,144.053L418.169,144.001L416.313,145.075L414.748,145.126L413.149,144.775L408.921,142.849L408.523,142.755L406.161,143.252L405.524,143.252L404.915,143.03L404.226,142.925L402.498,143.252L401.424,143.279L398.363,142.454L394.314,141.353L393.567,140.958L392.922,140.305L391.813,138.86L391.831,139.109L391.771,139.686L391.779,139.986L389.381,139.806L389.166,139.659L389.124,139.437L389.046,139.308L388.461,139.539L388.238,139.557L387.705,139.513L387.138,139.358L386.966,139.109L386.896,138.782L386.554,138.413L385.779,137.759L385.565,137.665L385.169,137.837L385.083,138.165L385.118,138.533L385.074,138.765L382.978,139.686L380.674,139.884L376.289,139.384L371.923,138.887L370.643,138.989L369.344,139.308L368.845,139.238L367.899,138.413L366.67,138.036L366.146,137.743L365.509,136.995L364.461,135.344L363.705,134.571L362.441,133.771L358.34,131.15L354.43,128.631L350.191,125.94L346.426,123.517L343.101,121.401L338.414,118.385L334.409,115.84L330.403,113.27L328.186,111.842L327.944,111.773L327.695,111.8L327.481,111.749L327.353,111.525L327.137,110.596L326.982,110.227L326.707,109.848L326.397,109.753L325.572,109.797L325.28,109.625L324.626,108.525L324.231,108.232L322.555,107.854L319.632,106.384L317.182,105.705L309.266,105.783L308.922,105.688L308.311,105.335L307.959,105.258L301.539,105.387L293.905,105.533L293.371,105.456L292.624,105.112L292.219,104.983L291.79,105.009L290.371,105.189L284.207,105.232L283.271,105.009L282.403,104.458L280.804,103.066L280.064,102.619L279.789,102.017L279.807,101.347L279.927,100.521L279.892,99.722L279.342,98.751L279.266,98.055L275.526,94.11L273.669,92.116L272.655,90.421L272.311,88.445L272.311,88.419L272.483,79.865L272.689,79.342L274.271,77.373L274.597,76.548L274.597,75.696L274.228,74.699L273.412,73.152L273.29,72.361L273.566,71.407L274.675,69.816L274.477,69.439L272.225,68.562L269.526,66.92L268.477,66.645L267.72,66.816L266.98,67.144L266.01,67.367L265.013,67.091L263.243,65.673L262.305,65.123L261.574,64.926L260.713,64.822L259.846,64.822L259.107,64.977L258.213,65.571L256.536,67.393L255.609,68.037L254.621,68.192L253.864,67.813L253.245,67.144L251.904,65.02L251.741,64.65L251.783,64.126L252.075,63.705L252.437,63.275L252.677,62.802L252.505,62.33L250.227,64.547L247.949,66.774L245.663,69.018L243.394,71.261L241.107,73.478L238.83,75.696L236.552,77.949L234.265,80.166L231.986,82.41L229.708,84.628L227.43,86.88L225.144,89.098L222.866,91.341L220.58,93.559L218.311,95.777L216.024,98.029L211.881,102.121L207.729,106.204L203.577,110.295L199.434,114.413L200.619,114.988L201.548,115.71L202.055,116.656L201.996,117.912L202.046,118.453L202.416,118.909L202.873,119.33L203.215,119.803L203.335,120.275L203.353,120.748L203.233,121.702L203.078,122.269L202.897,122.648L202.88,123.069L203.198,123.722L203.697,124.169L204.291,124.564L204.762,125.038L204.867,125.716L204.437,126.765L203.912,127.71L203.852,128.408L204.806,128.759L205.451,128.631L207.083,128.037L207.875,128.063L208.786,128.537L208.89,129.086L208.442,129.628L206.481,130.651L206.568,130.882L207.204,131.107L207.72,131.725L206.903,132.25L206.636,132.577L207.153,132.774L207.496,132.748L208.209,132.551L209.019,132.499L209.834,132.276L210.265,132.25L210.291,132.447L211.209,133.625L211.829,135.267L212.302,135.516L212.49,135.37L212.671,134.966L213.101,134.571L214.218,134.244L214.958,134.545L216.282,135.972L217.056,136.367L217.829,136.591L218.431,136.995L218.706,137.837L218.603,141.129L218.216,142.755L217.434,143.949L217.056,144.147L216.635,144.25L216.264,144.422L216.033,144.775L216.059,145.221L216.574,146.098L216.746,146.545L216.677,146.94L216.264,147.937L216.144,148.393L216.247,148.892L216.574,149.313L216.952,149.734L217.261,150.19L217.787,151.805L218.19,156.825L218.638,157.771L219.497,158.322L221.439,158.872L222.299,159.413L222.781,160.29L223.966,166.479L224.38,167.175L225.685,168.62L226.305,169.59L226.675,169.97L227.233,170.116L227.491,170.046L227.956,169.668L228.119,169.59L228.222,169.522L228.403,169.195L228.505,169.119L228.661,169.195L228.754,169.342L228.824,169.497L228.901,169.566L228.979,169.668L230.138,170.219L230.362,170.271L230.637,170.614L230.801,170.993L231.634,173.563L232.262,177.104L233.99,180.697L234.385,181.066L234.944,181.092L235.28,180.792L235.555,180.475L235.924,180.396L236.336,180.972L236.569,182.993L236.809,183.767L237.926,184.91L238.304,185.606L238.193,186.534L237.583,187.256L236.757,187.729L236.018,188.305L235.657,189.302L235.924,190.927L238.253,196.515L240.11,200.95L240.11,201.723L239.724,203.546L239.663,204.345L239.715,205.187L239.886,206.012L240.178,206.709L240.54,207.14L241.502,208.032L241.709,208.505L241.555,208.936L240.789,209.906L240.608,210.406L240.566,218.34L240.316,219.207L239.018,221.958L238.718,222.431L238.304,222.8L237.892,222.999L237.032,223.18L236.62,223.376L235.675,224.779L234.807,228.071L232.365,230.065L232.52,231.509L233.233,233.176L233.663,234.801L233.146,236.451L231.841,237.044L228.454,237.397L227.603,237.895L226.202,239.246L224.208,239.693L223.933,240.439L223.863,241.36L223.416,242.108L222.557,242.263L221.895,241.884L221.216,241.738L220.374,242.564L219.969,243.286L219.626,244.102L219.41,244.979L219.393,246.801L219.153,247.652L218.079,250.266L216.901,251.787L216.308,253.437L215.603,254.056L212.963,255.38L212.629,255.733L212.379,257.177L211.708,258.947L210.729,259.996L209.396,260.666L207.729,261.268L206.516,262.093L205.812,263.34L204.78,267.51L204.66,267.853L204.367,268.283L203.663,269.124L203.473,269.504L203.525,270.25L203.99,271.721L203.87,272.572L203.517,273.098L202.038,274.24L198.385,279.08L195.996,282.252L195.874,283.042L197.146,287.237L198.419,291.433L198.461,293.022L197.706,299.487L196.733,307.895L196.046,313.756L196.201,319.318L196.441,327.621L199.571,327.621L199.733,327.598L200.37,327.621L200.447,328.697L201.007,329.049L202.528,329.17L205.604,330.871L214.425,335.754L223.244,340.646L232.064,345.537L240.883,350.428L249.703,355.336L258.515,360.227L267.325,365.119L276.145,370.01L284.964,374.893L293.767,379.783L302.586,384.676L311.406,389.592L320.225,394.473L329.045,399.365L337.864,404.256L346.685,409.174L350.071,411.039L350.708,412.035L351.43,416.48L352.34,422.016L351.592,422.068L351.188,422.42L351.042,422.986L351.103,423.717L350.329,423.762L349.349,424.285L348.429,425.006L347.837,425.688L347.63,426.029L347.424,426.512L347.32,426.984L347.39,427.406L347.682,427.705L348.352,427.783L348.567,428.102L348.404,428.781L348.077,429.58L348.197,430.146L350.156,430.027L351.033,430.096L351.901,430.328L352.685,430.699L353.252,431.223L353.562,431.875L354.275,434.395L354.688,435.211L355.246,435.959L357.489,437.559L360.997,440.049L364.495,442.568L368.003,445.096L371.511,447.615L375.017,450.107L378.524,452.627L382.022,455.145L385.539,457.664L389.037,460.156L392.536,462.676L396.051,465.203L399.55,467.721L403.058,470.24L406.564,472.732L410.072,475.252L413.579,477.77L413.708,477.6L413.845,477.547L413.991,477.521L414.163,477.469L414.971,476.877L415.728,475.725L416.604,474.873L417.809,475.225L418.049,474.623L418.093,474.4L419.081,475.604L420.646,476L422.02,475.775L422.433,475.225L421.797,474.33L421.712,473.979L421.832,473.404L422.09,473.377L422.373,473.531L422.578,473.559L422.914,472.93L423.154,472.311L423.455,471.734L423.98,471.314L424.136,471.906L423.998,473.102L424.256,473.859L425.665,469.639L425.794,469.465L426.379,468.941L426.508,468.693L426.473,468.193L426.525,467.971L426.86,467.516L427.212,467.145L427.574,467.119L427.935,467.67L428.391,466.492L429.74,461.48L431.046,458.137L433.109,454.646L433.265,453.65L432.457,452.902L431.013,452.48L429.653,452.574L429.052,453.375L428.881,452.953L428.794,452.549L428.776,451.68L428.932,451.406L429.293,451.355L429.756,451.379L430.178,451.379L431.467,451.08L431.854,450.752L432.164,450.004L431.072,449.756L430.583,449.557L430.178,449.18L430.634,448.809L431.115,448.887L432.164,449.455L432.887,448.861L432.938,449.412L432.852,450.357L433.136,450.855L433.454,451.08L433.729,451.998L434.124,452.23L434.484,452.025L434.846,451.578L435.139,451.08L435.241,450.709L435.379,450.434L436.247,449.455L436.358,448.758L435.911,448.561L435.001,448.613L434.588,448.232L434.398,447.865L434.262,447.486L433.986,447.066L433.831,446.66L434.089,446.344L435.001,445.844L434.992,447.236L435.825,447.865L436.995,447.658L438.053,446.66L441.361,437.559L441.448,436.285L441.345,435.666L441.077,435.039L440.623,434.713L439.196,435.289L438.62,435.117L438.448,434.643L438.945,434.041L438.112,434.066L437.621,433.689L437.51,433.07L437.82,432.322L438.25,432.666L438.215,432.82L438.053,433.189L439.144,433.268L439.341,433.318L439.884,433.912L440.071,434.041L440.966,434.438L441.319,434.369L441.834,433.895L442.308,432.941L442.737,430.604L443.837,428.85L444.68,426.658L445.401,425.488L445.316,425.24L445.161,425.006L445.092,424.783L445.333,423.787L445.366,423.416L445.359,422.84L445.437,422.291L445.764,421.895L446.494,421.715L446.416,422.291L445.969,423.838L445.65,424.535L446.381,424.414L446.933,423.984L447.93,422.84L448.462,422.471L450.438,421.568L451.032,421.191L451.506,420.691L451.874,420.1L452.123,419.471L452.141,418.697L451.693,417.229L451.72,416.678L453.12,414.684L453.38,413.986L453.55,411.916L453.774,411.416L454.625,410.266L456.078,408.924L456.396,408.426L456.354,407.969L455.511,408.598L454.651,408.701L454.152,408.219L454.377,407.127L453.5,406.475L453.603,405.16L454.377,402.537L454.419,402.184L454.564,401.566L454.522,401.291L453.912,400.465L453.834,400.166L454.015,399.467L455.236,397.947L455.991,396.227L456.354,395.652L456.835,395.154L458.889,393.502L460.102,392.754L461.125,392.436L462.835,391.207L466.996,389.91L468.336,389.764L469.643,390.064L470.864,390.613L472.118,390.889L473.545,390.365L476.055,387.391L477.964,386.592L479.244,385.697L480.37,384.57L480.852,383.625L480.577,383.051L479.408,382.301L479.15,381.709L479.425,381.252L479.502,380.986L479.305,380.883L478.961,380.754L478.746,380.463L478.634,380.084L478.617,379.732L479.46,380.188L480.319,379.439L481.247,378.34L482.279,377.789L482.863,377.668L483.156,377.564L483.104,377.488L483.524,377.643L483.56,377.814L483.5,378.012L483.662,378.34L484.652,379.387L485.22,379.758L485.933,380.006L484.592,380.686L484.72,381.133L485.632,380.961L486.646,379.715L487.109,378.664L487.041,378.211L486.646,377.643L486.13,377.264L485.623,377.238L485.167,377.316L484.807,377.188L484.29,376.164L484.033,374.6L483.963,371.6L483.835,371.352L483.533,371.281L483.232,371.18L483.104,370.783L483.19,370.551L483.568,370.328L483.662,370.053L483.533,369.408L483.173,368.934L482.641,368.805L481.978,369.08L482.089,368.582L481.969,368.033L481.694,367.414L482.193,366.838L482.571,366.992L482.949,367.439L483.379,367.662L484.127,368.238L484.893,370.758L485.649,371.324L486.526,370.232L486.697,365.445L488.15,364.32L487.53,365.238L487.359,365.738L487.463,366.314L487.488,366.785L487.094,367.938L487.05,368.531L487.23,369.133L487.497,369.51L487.884,369.785L488.434,370.053L489.079,370.104L489.518,369.631L489.947,369.08L491.064,368.633L491.872,367.74L492.38,367.414L492.731,367.439L494.339,367.834L495.534,367.938L495.912,366.992L496.067,366.012L496.892,365.17L496.944,366.039L497.4,366.51L498.113,366.588L498.887,366.287L499.506,367.061L500.356,366.537L501.827,364.766L504.164,362.65L505.05,362.102L505.248,361.379L506.727,359.152L509.855,355.963L509.993,352.566L509.855,351.795L509.356,350.9L507.774,348.854L505.712,346.207L503.631,343.568L501.518,340.842L499.506,338.246L497.623,335.832L495.362,332.934L493.264,330.217L491.219,327.621L490.188,326.281L489.139,324.932L488.091,323.582L487.041,322.232L487.007,319.146L486.972,316.275L486.93,313.379L486.869,308.969L486.817,304.525L486.749,300.105L486.697,295.67L486.662,292.928L486.629,290.178L486.577,286.842L486.577,184.814L486.526,179.296L486.474,174.035L486.457,171.861L487.041,170.718L488.451,169.342L491.821,166.023L495.208,162.705L498.576,159.371L501.955,156.053L504.078,153.026L506.201,150.009L508.326,146.966L510.449,143.949L513.896,139.042L517.343,134.15L520.789,129.232L524.229,124.315L522.208,125.467ZM492.938,370.285L491.699,369.881L490.6,369.803L490.109,370.354L489.758,371.18L488.915,371.6L487.944,371.9L487.188,372.305L486.646,373.225L486.147,374.521L486.147,375.441L487.05,375.244L487.136,375.744L487.316,376.146L487.644,376.396L488.15,376.396L488.305,375.967L487.986,375.691L487.548,375.416L487.334,375.123L487.445,374.549L487.72,374.195L488.082,374.145L488.451,374.42L489.98,373.621L490.72,373.369L491.253,373.303L491.305,373.396L491.442,373.576L491.666,373.775L491.959,373.852L492.208,373.799L492.319,373.697L492.397,373.604L492.526,373.551L492.783,373.422L492.938,373.078L493.007,372.598L492.965,372.15L493.523,373.053L494.278,372.898L494.579,372.057L493.78,370.758L492.938,370.285Z"/>
        </clipPath>
        <g clip-path="url(#_clip1)">
            <rect x="38.873" y="57.421" width="640.739" height="427.159" style="fill:white;fill-rule:nonzero;"/>
            <rect x="38.873" y="57.421" width="640.739" height="128.147" style="fill:rgb(3,4,4);fill-rule:nonzero;"/>
            <rect x="38.873" y="356.432" width="640.739" height="128.148" style="fill:rgb(21,103,52);fill-rule:nonzero;"/>
            <path d="M282.945,397.813L287.569,400.482L412.28,184.477C419.574,182.522 423.578,175.586 427.583,168.65C430.253,164.025 440.932,145.529 445.561,121.494C427.06,137.52 416.381,156.016 413.711,160.641C409.706,167.577 405.701,174.513 407.656,181.807L282.945,397.813Z" style="fill:rgb(3,4,4);fill-rule:nonzero;"/>
            <path d="M283.431,397.683L287.438,399.997L412.046,184.171L412.188,184.133C419.339,182.217 423.373,175.23 427.273,168.474C437.947,149.984 442.804,133.407 445.01,122.448C436.618,129.84 424.688,142.337 414.019,160.819C410.118,167.576 406.083,174.563 408,181.715L408.038,181.857L407.964,181.985L283.431,397.683ZM287.699,400.969L282.458,397.943L282.636,397.635L407.274,181.756C405.372,174.371 409.454,167.301 413.403,160.463C424.457,141.312 436.865,128.555 445.327,121.225L446.104,120.552L445.91,121.562C443.794,132.551 438.949,149.671 427.893,168.826C423.942,175.667 419.861,182.737 412.515,184.781L287.699,400.969Z" style="fill:rgb(3,4,4);fill-rule:nonzero;"/>
            <path d="M282.945,397.813L287.569,400.482L412.28,184.477C419.574,182.522 423.578,175.586 427.583,168.65C430.253,164.025 440.932,145.529 445.561,121.494C427.06,137.52 416.381,156.016 413.711,160.641C409.706,167.577 405.701,174.513 407.656,181.807L282.945,397.813Z" style="fill:white;fill-rule:nonzero;"/>
            <path d="M435.541,397.813L430.917,400.482L306.206,184.477C298.912,182.522 294.907,175.586 290.902,168.65C288.233,164.025 277.554,145.529 272.925,121.494C291.426,137.52 302.105,156.016 304.775,160.641C308.779,167.577 312.784,174.513 310.83,181.807L435.541,397.813Z" style="fill:rgb(3,4,4);fill-rule:nonzero;"/>
            <path d="M273.476,122.448C275.682,133.407 280.539,149.984 291.209,168.47C295.113,175.23 299.147,182.217 306.298,184.133L306.44,184.171L306.514,184.299L431.047,399.997L435.055,397.683L310.448,181.857L310.486,181.715C312.402,174.563 308.368,167.576 304.466,160.819C293.797,142.337 281.868,129.84 273.476,122.448ZM430.787,400.969L430.608,400.661L305.971,184.781C298.624,182.737 294.543,175.667 290.595,168.83C279.536,149.671 274.692,132.551 272.576,121.562L272.381,120.552L273.158,121.225C281.621,128.555 294.028,141.312 305.083,160.463C309.031,167.301 313.114,174.371 311.211,181.756L436.027,397.943L430.787,400.969Z" style="fill:rgb(3,4,4);fill-rule:nonzero;"/>
            <path d="M435.541,397.813L430.917,400.482L306.206,184.477C298.912,182.522 294.907,175.586 290.902,168.65C288.233,164.025 277.554,145.529 272.925,121.494C291.426,137.52 302.105,156.016 304.775,160.641C308.779,167.577 312.784,174.513 310.83,181.807L435.541,397.813Z" style="fill:white;fill-rule:nonzero;"/>
            <path d="M38.873,206.926L38.873,335.074L308.518,335.074C316.527,356.432 343.225,399.147 359.243,399.147C375.262,399.147 401.959,356.432 409.969,335.074L679.612,335.074L679.612,206.926L409.969,206.926C401.959,185.568 375.262,142.852 359.243,142.852C343.225,142.852 316.527,185.568 308.518,206.926L38.873,206.926Z" style="fill:rgb(186,31,37);fill-rule:nonzero;"/>
            <path d="M409.969,335.074C417.978,313.716 423.317,292.358 423.317,271C423.317,249.642 417.978,228.284 409.969,206.926C401.959,228.284 396.62,249.642 396.62,271C396.62,292.358 401.959,313.716 409.969,335.074Z" style="fill:rgb(3,4,4);fill-rule:nonzero;"/>
            <path d="M308.518,335.074C300.509,313.716 295.169,292.358 295.169,271C295.169,249.642 300.509,228.284 308.518,206.926C316.527,228.284 321.867,249.642 321.867,271C321.867,292.358 316.527,313.716 308.518,335.074Z" style="fill:rgb(3,4,4);fill-rule:nonzero;"/>
            <path d="M359.243,254.981C365.141,254.981 369.922,262.154 369.922,271C369.922,279.847 365.141,287.019 359.243,287.019C353.345,287.019 348.564,279.847 348.564,271C348.564,262.154 353.345,254.981 359.243,254.981Z" style="fill:white;fill-rule:nonzero;"/>
            <path d="M361.913,286.618C361.913,286.618 372.592,307.976 372.592,342.683C372.592,377.39 361.913,398.747 361.913,398.747L361.913,286.618Z" style="fill:white;fill-rule:nonzero;"/>
            <path d="M356.573,255.382C356.573,255.382 345.895,234.024 345.895,199.317C345.895,164.611 356.573,143.252 356.573,143.252L356.573,255.382Z" style="fill:white;fill-rule:nonzero;"/>
            <path d="M356.573,286.618C356.573,286.618 345.895,307.976 345.895,342.683C345.895,377.39 356.573,398.747 356.573,398.747L356.573,286.618Z" style="fill:white;fill-rule:nonzero;"/>
            <path d="M361.913,255.382C361.913,255.382 372.592,234.024 372.592,199.317C372.592,164.611 361.913,143.252 361.913,143.252L361.913,255.382Z" style="fill:white;fill-rule:nonzero;"/>
        </g>
    </g>
    <g transform="matrix(4.16667,0,0,4.16667,-161.971,-239.254)">
        <path d="M521.208,125.467L519.375,125.089L517.57,124.143L515.62,123.517L513.875,124.522L513.281,124.643L512.697,124.54L511.615,124.092L510.961,124.041L507.669,124.841L506.586,124.917L504.522,125.493L499.915,125.742L495.72,125.991L493.571,125.742L491.576,124.943L489.755,123.517L487.124,119.854L486.041,118.856L485.388,118.453L483.428,117.808L482.671,117.43L482.25,117.009L481.563,115.737L480.557,114.593L478.081,112.917L477.17,111.749L474.583,113.441L471.171,114.74L466.829,116.381L461.525,118.427L461.285,118.66L461.044,119.304L460.829,119.502L457.588,120.628L453.427,122.072L453.307,122.072L453.187,122.046L453.066,121.977L452.672,121.952L452.637,122.098L452.663,122.347L452.474,122.596L450.617,123.517L446.637,125.441L443.095,127.136L439.579,128.812L438.755,129.834L437.945,131.975L436.803,134.966L436.115,136.238L435.334,137.261L432.109,140.209L429.41,142.65L428.344,143.922L427.449,146.647L426.762,147.714L425.446,147.791L424.794,147.345L424.484,146.82L424.271,146.244L423.908,145.797L422.653,145.375L417.514,145.221L417.892,144.474L417.701,144.053L417.169,144.001L415.313,145.075L413.748,145.126L412.149,144.775L407.921,142.849L407.523,142.755L405.161,143.252L404.524,143.252L403.915,143.03L403.226,142.925L401.498,143.252L400.424,143.279L397.363,142.454L393.314,141.353L392.567,140.958L391.922,140.305L390.813,138.86L390.831,139.109L390.771,139.686L390.779,139.986L388.381,139.806L388.166,139.659L388.124,139.437L388.046,139.308L387.461,139.539L387.238,139.557L386.705,139.513L386.138,139.358L385.966,139.109L385.896,138.782L385.554,138.413L384.779,137.759L384.565,137.665L384.169,137.837L384.083,138.165L384.118,138.533L384.074,138.765L381.978,139.686L379.674,139.884L375.289,139.384L370.923,138.887L369.643,138.989L368.344,139.308L367.845,139.238L366.899,138.413L365.67,138.036L365.146,137.743L364.509,136.995L363.461,135.344L362.705,134.571L361.441,133.771L357.34,131.15L353.43,128.631L349.191,125.94L345.426,123.517L342.101,121.401L337.414,118.385L333.409,115.84L329.403,113.27L327.186,111.842L326.944,111.773L326.695,111.8L326.481,111.749L326.353,111.525L326.137,110.596L325.982,110.227L325.707,109.848L325.397,109.753L324.572,109.797L324.28,109.625L323.626,108.525L323.231,108.232L321.555,107.854L318.632,106.384L316.182,105.705L308.266,105.783L307.922,105.688L307.311,105.335L306.959,105.258L300.539,105.387L292.905,105.533L292.371,105.456L291.624,105.112L291.219,104.983L290.79,105.009L289.371,105.189L283.207,105.232L282.271,105.009L281.403,104.458L279.804,103.066L279.064,102.619L278.789,102.017L278.807,101.347L278.927,100.521L278.892,99.722L278.342,98.751L278.266,98.055L274.526,94.11L272.669,92.116L271.655,90.421L271.311,88.445L271.311,88.419L271.483,79.865L271.689,79.342L273.271,77.373L273.597,76.548L273.597,75.696L273.228,74.699L272.412,73.152L272.29,72.361L272.566,71.407L273.675,69.816L273.477,69.439L271.225,68.562L268.526,66.92L267.477,66.645L266.72,66.816L265.98,67.144L265.01,67.367L264.013,67.091L262.243,65.673L261.305,65.123L260.574,64.926L259.713,64.822L258.846,64.822L258.107,64.977L257.213,65.571L255.537,67.393L254.609,68.037L253.621,68.192L252.864,67.813L252.245,67.144L250.904,65.02L250.741,64.65L250.783,64.126L251.075,63.705L251.437,63.275L251.677,62.802L251.505,62.33L249.227,64.547L246.949,66.774L244.663,69.018L242.394,71.261L240.107,73.478L237.83,75.696L235.552,77.949L233.265,80.166L230.986,82.41L228.708,84.628L226.43,86.88L224.144,89.098L221.866,91.341L219.58,93.559L217.311,95.777L215.024,98.029L210.881,102.121L206.729,106.204L202.577,110.295L198.434,114.413L199.619,114.988L200.548,115.71L201.055,116.656L200.996,117.912L201.046,118.453L201.416,118.909L201.873,119.33L202.215,119.803L202.335,120.275L202.353,120.748L202.233,121.702L202.078,122.269L201.897,122.648L201.88,123.069L202.198,123.722L202.697,124.169L203.291,124.564L203.762,125.038L203.867,125.716L203.437,126.765L202.912,127.71L202.852,128.408L203.806,128.759L204.451,128.631L206.083,128.037L206.875,128.063L207.786,128.537L207.89,129.086L207.442,129.628L205.481,130.651L205.568,130.882L206.204,131.107L206.72,131.725L205.903,132.25L205.636,132.577L206.153,132.774L206.496,132.748L207.209,132.551L208.019,132.499L208.834,132.276L209.265,132.25L209.291,132.447L210.209,133.625L210.829,135.267L211.302,135.516L211.49,135.37L211.671,134.966L212.101,134.571L213.218,134.244L213.958,134.545L215.282,135.972L216.056,136.367L216.829,136.591L217.431,136.995L217.706,137.837L217.603,141.129L217.216,142.755L216.434,143.949L216.056,144.147L215.635,144.25L215.264,144.422L215.033,144.775L215.059,145.221L215.574,146.098L215.746,146.545L215.677,146.94L215.264,147.937L215.144,148.393L215.247,148.892L215.574,149.313L215.952,149.734L216.261,150.19L216.787,151.805L217.19,156.825L217.638,157.771L218.497,158.322L220.439,158.872L221.299,159.413L221.781,160.29L222.966,166.479L223.38,167.175L224.685,168.62L225.305,169.59L225.675,169.97L226.233,170.116L226.491,170.046L226.956,169.668L227.119,169.59L227.222,169.522L227.403,169.195L227.505,169.119L227.661,169.195L227.754,169.342L227.824,169.497L227.901,169.566L227.979,169.668L229.138,170.219L229.362,170.271L229.637,170.614L229.801,170.993L230.634,173.563L231.262,177.104L232.99,180.697L233.385,181.066L233.944,181.092L234.28,180.792L234.555,180.475L234.924,180.396L235.336,180.972L235.569,182.993L235.809,183.767L236.926,184.91L237.304,185.606L237.193,186.534L236.583,187.256L235.757,187.729L235.018,188.305L234.657,189.302L234.924,190.927L237.253,196.515L239.11,200.95L239.11,201.723L238.724,203.546L238.663,204.345L238.715,205.187L238.886,206.012L239.178,206.709L239.54,207.14L240.502,208.032L240.709,208.505L240.555,208.936L239.789,209.906L239.608,210.406L239.566,218.34L239.316,219.207L238.018,221.958L237.718,222.431L237.304,222.8L236.892,222.999L236.032,223.18L235.62,223.376L234.675,224.779L233.807,228.071L231.365,230.065L231.52,231.509L232.233,233.176L232.663,234.801L232.146,236.451L230.841,237.044L227.454,237.397L226.603,237.895L225.202,239.246L223.208,239.693L222.933,240.439L222.863,241.36L222.416,242.108L221.557,242.263L220.895,241.884L220.216,241.738L219.374,242.564L218.969,243.286L218.626,244.102L218.41,244.979L218.393,246.801L218.153,247.652L217.079,250.266L215.901,251.787L215.308,253.437L214.603,254.056L211.963,255.38L211.629,255.733L211.379,257.177L210.708,258.947L209.729,259.996L208.396,260.666L206.729,261.268L205.516,262.093L204.812,263.34L203.78,267.51L203.66,267.853L203.367,268.283L202.663,269.124L202.473,269.504L202.525,270.25L202.99,271.721L202.87,272.572L202.517,273.098L201.038,274.24L197.385,279.08L194.996,282.252L194.874,283.042L196.146,287.237L197.419,291.433L197.461,293.022L196.706,299.487L195.733,307.895L195.046,313.756L195.201,319.318L195.441,327.621L198.571,327.621L198.733,327.598L199.37,327.621L199.447,328.697L200.007,329.049L201.528,329.17L204.604,330.871L213.425,335.754L222.244,340.646L231.064,345.537L239.883,350.428L248.703,355.336L257.515,360.227L266.325,365.119L275.145,370.01L283.964,374.893L292.767,379.783L301.586,384.676L310.406,389.592L319.225,394.473L328.045,399.365L336.864,404.256L345.685,409.174L349.071,411.039L349.708,412.035L350.43,416.48L351.34,422.016L350.592,422.068L350.188,422.42L350.042,422.986L350.103,423.717L349.329,423.762L348.349,424.285L347.429,425.006L346.837,425.688L346.63,426.029L346.424,426.512L346.32,426.984L346.39,427.406L346.682,427.705L347.352,427.783L347.567,428.102L347.404,428.781L347.077,429.58L347.197,430.146L349.156,430.027L350.033,430.096L350.901,430.328L351.685,430.699L352.252,431.223L352.562,431.875L353.275,434.395L353.688,435.211L354.246,435.959L356.489,437.559L359.997,440.049L363.495,442.568L367.003,445.096L370.511,447.615L374.017,450.107L377.524,452.627L381.022,455.145L384.539,457.664L388.037,460.156L391.536,462.676L395.051,465.203L398.55,467.721L402.058,470.24L405.564,472.732L409.072,475.252L412.579,477.77L412.708,477.6L412.845,477.547L412.991,477.521L413.163,477.469L413.971,476.877L414.728,475.725L415.604,474.873L416.809,475.225L417.049,474.623L417.093,474.4L418.081,475.604L419.646,476L421.02,475.775L421.433,475.225L420.797,474.33L420.712,473.979L420.832,473.404L421.09,473.377L421.373,473.531L421.578,473.559L421.914,472.93L422.154,472.311L422.455,471.734L422.98,471.314L423.136,471.906L422.998,473.102L423.256,473.859L424.665,469.639L424.794,469.465L425.379,468.941L425.508,468.693L425.473,468.193L425.525,467.971L425.86,467.516L426.212,467.145L426.574,467.119L426.935,467.67L427.391,466.492L428.74,461.48L430.046,458.137L432.109,454.646L432.265,453.65L431.457,452.902L430.013,452.48L428.653,452.574L428.052,453.375L427.881,452.953L427.794,452.549L427.776,451.68L427.932,451.406L428.293,451.355L428.756,451.379L429.178,451.379L430.467,451.08L430.854,450.752L431.164,450.004L430.072,449.756L429.583,449.557L429.178,449.18L429.634,448.809L430.115,448.887L431.164,449.455L431.887,448.861L431.938,449.412L431.852,450.357L432.136,450.855L432.454,451.08L432.729,451.998L433.124,452.23L433.484,452.025L433.846,451.578L434.139,451.08L434.241,450.709L434.379,450.434L435.247,449.455L435.358,448.758L434.911,448.561L434.001,448.613L433.588,448.232L433.398,447.865L433.262,447.486L432.986,447.066L432.831,446.66L433.089,446.344L434.001,445.844L433.992,447.236L434.825,447.865L435.995,447.658L437.053,446.66L440.361,437.559L440.448,436.285L440.345,435.666L440.077,435.039L439.623,434.713L438.196,435.289L437.62,435.117L437.448,434.643L437.945,434.041L437.112,434.066L436.621,433.689L436.51,433.07L436.82,432.322L437.25,432.666L437.215,432.82L437.053,433.189L438.144,433.268L438.341,433.318L438.884,433.912L439.071,434.041L439.966,434.438L440.319,434.369L440.834,433.895L441.308,432.941L441.737,430.604L442.837,428.85L443.68,426.658L444.401,425.488L444.316,425.24L444.161,425.006L444.092,424.783L444.333,423.787L444.366,423.416L444.359,422.84L444.437,422.291L444.764,421.895L445.494,421.715L445.416,422.291L444.969,423.838L444.65,424.535L445.381,424.414L445.933,423.984L446.93,422.84L447.462,422.471L449.438,421.568L450.032,421.191L450.506,420.691L450.874,420.1L451.123,419.471L451.141,418.697L450.693,417.229L450.72,416.678L452.12,414.684L452.38,413.986L452.55,411.916L452.774,411.416L453.625,410.266L455.078,408.924L455.396,408.426L455.354,407.969L454.511,408.598L453.651,408.701L453.152,408.219L453.377,407.127L452.5,406.475L452.603,405.16L453.377,402.537L453.419,402.184L453.564,401.566L453.522,401.291L452.912,400.465L452.834,400.166L453.015,399.467L454.236,397.947L454.991,396.227L455.354,395.652L455.835,395.154L457.889,393.502L459.102,392.754L460.125,392.436L461.835,391.207L465.996,389.91L467.336,389.764L468.643,390.064L469.864,390.613L471.118,390.889L472.545,390.365L475.055,387.391L476.964,386.592L478.244,385.697L479.37,384.57L479.852,383.625L479.577,383.051L478.408,382.301L478.15,381.709L478.425,381.252L478.502,380.986L478.305,380.883L477.961,380.754L477.746,380.463L477.634,380.084L477.617,379.732L478.46,380.188L479.319,379.439L480.247,378.34L481.279,377.789L481.863,377.668L482.156,377.564L482.104,377.488L482.524,377.643L482.56,377.814L482.5,378.012L482.662,378.34L483.652,379.387L484.22,379.758L484.933,380.006L483.592,380.686L483.72,381.133L484.632,380.961L485.646,379.715L486.109,378.664L486.041,378.211L485.646,377.643L485.13,377.264L484.623,377.238L484.167,377.316L483.807,377.188L483.29,376.164L483.033,374.6L482.963,371.6L482.835,371.352L482.533,371.281L482.232,371.18L482.104,370.783L482.19,370.551L482.568,370.328L482.662,370.053L482.533,369.408L482.173,368.934L481.641,368.805L480.978,369.08L481.089,368.582L480.969,368.033L480.694,367.414L481.193,366.838L481.571,366.992L481.949,367.439L482.379,367.662L483.127,368.238L483.893,370.758L484.649,371.324L485.526,370.232L485.697,365.445L487.15,364.32L486.53,365.238L486.359,365.738L486.463,366.314L486.488,366.785L486.094,367.938L486.05,368.531L486.23,369.133L486.497,369.51L486.884,369.785L487.434,370.053L488.079,370.104L488.518,369.631L488.947,369.08L490.064,368.633L490.872,367.74L491.38,367.414L491.731,367.439L493.339,367.834L494.534,367.938L494.912,366.992L495.067,366.012L495.892,365.17L495.944,366.039L496.4,366.51L497.113,366.588L497.887,366.287L498.506,367.061L499.356,366.537L500.827,364.766L503.164,362.65L504.05,362.102L504.248,361.379L505.727,359.152L508.855,355.963L508.993,352.566L508.855,351.795L508.356,350.9L506.774,348.854L504.712,346.207L502.631,343.568L500.518,340.842L498.506,338.246L496.623,335.832L494.362,332.934L492.264,330.217L490.219,327.621L489.188,326.281L488.139,324.932L487.091,323.582L486.041,322.232L486.007,319.146L485.972,316.275L485.93,313.379L485.869,308.969L485.817,304.525L485.749,300.105L485.697,295.67L485.662,292.928L485.629,290.178L485.577,286.842L485.577,184.814L485.526,179.296L485.474,174.035L485.457,171.861L486.041,170.718L487.451,169.342L490.821,166.023L494.208,162.705L497.576,159.371L500.955,156.053L503.078,153.026L505.201,150.009L507.326,146.966L509.449,143.949L512.896,139.042L516.343,134.15L519.789,129.232L523.229,124.315L521.208,125.467ZM491.938,370.285L490.699,369.881L489.6,369.803L489.109,370.354L488.758,371.18L487.915,371.6L486.944,371.9L486.188,372.305L485.646,373.225L485.147,374.521L485.147,375.441L486.05,375.244L486.136,375.744L486.316,376.146L486.644,376.396L487.15,376.396L487.305,375.967L486.986,375.691L486.548,375.416L486.334,375.123L486.445,374.549L486.72,374.195L487.082,374.145L487.451,374.42L488.98,373.621L489.72,373.369L490.253,373.303L490.305,373.396L490.442,373.576L490.666,373.775L490.959,373.852L491.208,373.799L491.319,373.697L491.397,373.604L491.526,373.551L491.783,373.422L491.938,373.078L492.007,372.598L491.965,372.15L492.523,373.053L493.278,372.898L493.579,372.057L492.78,370.758L491.938,370.285Z" style="fill:none;stroke:rgb(153,153,153);stroke-width:0.25px;"/>
    </g>
</svg>
