<?xml version="1.0" encoding="UTF-8" standalone="no"?>
<!DOCTYPE svg PUBLIC "-//W3C//DTD SVG 1.1//EN" "http://www.w3.org/Graphics/SVG/1.1/DTD/svg11.dtd">
<svg width="100%" height="100%" viewBox="0 0 2067 1378" version="1.1" xmlns="http://www.w3.org/2000/svg" xmlns:xlink="http://www.w3.org/1999/xlink" xml:space="preserve" xmlns:serif="http://www.serif.com/" style="fill-rule:evenodd;clip-rule:evenodd;stroke-linecap:round;stroke-linejoin:round;stroke-miterlimit:2;">
    <g transform="matrix(4.16667,0,0,4.16667,-466.667,-436.112)">
        <clipPath id="_clip1">
            <path d="M529.646,238.974C529.676,247.768 529.701,256.562 529.727,265.355C529.746,271.95 529.771,278.544 529.792,285.139L529.517,285.334L529.299,285.35L529.131,285.414L529.017,285.792L528.986,286.179L529.102,288.278L529.009,288.503L528.738,288.923L528.688,289.118C528.703,291.917 528.717,294.716 528.724,297.515L528.565,298.016L528.275,298.286L527.374,298.74L526.895,299.119L526.502,299.534L526.19,300.021L524.352,304.537L524.266,305.126L524.347,305.714L524.6,306.347L524.614,306.367L524.622,306.397L524.629,306.427L524.629,306.585L524.622,306.652L524.6,306.709L523.4,307.908L523.09,308.394L522.958,308.786L522.77,310.863L522.61,311.686L522.297,312.434L521.773,313.057L521.005,313.477L519.37,313.79L518.615,314.205L517.003,315.977L515.202,317.08L514.999,317.646L514.802,320.086L514.424,320.014L514.315,319.979C511.504,319.496 508.691,319.016 505.878,318.539L505.063,318.556L504.736,318.627L504.584,318.737L504.533,318.955L504.49,319.339L504.49,320.124L504.373,320.406C495.491,320.68 486.611,321.015 477.73,321.315C475.171,321.402 472.61,321.486 470.051,321.582L469.354,321.75L468.802,322.083C466.762,323.977 464.728,325.876 462.687,327.769L462.186,328.017L461.626,328.143L458.482,328.243L457.879,328.468L457.291,328.7L456.725,328.838L456.44,328.86L453.253,327.719L452.606,327.757L451.277,328.221L450.625,328.365L449.926,328.359L447.211,327.678L447.043,327.895L447.036,328.418L447.152,329.472L441.975,327.678L439.222,326.536L437.791,326.195L436.506,326.428L435.221,327.212L434.479,327.539L433.902,327.531L433.699,327.269L433.225,325.993L433.034,325.897L427.854,325.925L427.173,326.107L426.557,326.565L425.457,327.669L425.452,327.669L421.197,331.438L420.473,331.896L419.688,332.229L415.758,333.194L414.883,333.617L407.752,338.235L406.316,338.51L404.871,338.586L403.181,338.453L402.196,338.498L401.578,338.772L401.414,339.332L401.035,344.517L400.956,344.734L400.778,344.88L399.37,345.513L399.053,345.563L398.392,345.411L393.585,343.123L392.021,342.782L390.9,343.058L389.228,344.017L388.769,344.41L387.258,346.108L384.22,347.793L383.676,348.686L383.794,348.664L383.854,348.694L383.887,348.751L383.922,348.781L383.117,351.512L382.753,352.115L382.427,352.921L382.522,354.047L383.101,356.036L381.666,356.582L381.516,356.609L381.371,356.545L381.227,356.449L381.054,356.384L380.554,356.334L380.391,356.377L380.151,356.502L379.794,356.893L379.557,356.98L379.413,356.654L379.355,356.35L379.256,356.151L378.89,355.803L378.373,355.498L377.941,355.506L377.492,355.609L376.918,355.544L376.001,354.853L375.453,354.657L375.042,355.063L375.468,355.392L375.603,355.892L375.517,357.067L375.408,357.561L375.105,358.339L375.832,363.574L375.548,363.765L372.172,363.967L371.718,364.147L371.643,364.736L371.883,365.463L371.905,365.842L371.7,366.183L371.452,366.247L370.329,366.071L369.869,366.087L369.734,366.06L369.552,365.941L369.221,365.594L369.085,365.544L368.813,365.579L368.669,365.536L366.984,364.228L366.045,363.662L364.518,362.436L364.137,362.275L363.294,362.051L362.584,361.768L362.248,361.7L361.838,361.737L361.437,361.73L360.958,361.607L360.704,361.396L360.958,361.149L361.136,361.047L361.553,360.656L361.713,360.589L361.906,360.562L362.05,360.481L362.063,360.256L361.951,360.198L361.455,360.103L361.279,360.03L361.212,359.9L361.105,359.478L360.985,359.306L360.908,359.247L360.833,359.225L360.759,359.247L360.694,359.306L360.417,359.63L360.534,359.726L360.798,359.74L360.958,359.855L360.85,360.053L360.576,360.291L360.266,360.496L360.045,360.576L359.795,360.661L359.479,361.02L359.294,361.134L358.744,361.279L358.574,361.367L358.229,361.688L358.017,362.07L357.668,362.929L357.349,363.438L356.959,363.887L356.736,364.003L356.54,363.994L356.347,363.96L356.147,363.994L355.836,364.207L355.463,364.541L355.16,364.918L355.065,365.231L355.208,365.427L355.644,365.674L355.689,365.854L355.546,366.037L355.31,366.103L353.994,366.037L353.647,366.189L353.388,366.886L353.26,367.053L353.153,367.243L353.153,367.496L353.271,367.686L353.866,368.237L354.416,369.442L354.679,369.806L355.277,370.314L355.658,370.794L355.822,371.375L355.753,372.566L356.016,373.518L355.988,373.766L355.56,375.121L355.356,375.384L355.075,375.572L354.691,375.702L354.261,375.762L353.979,375.675L353.393,375.327L352.788,375.193L352.104,375.246L351.421,375.419L350.825,375.652L350.605,375.682L350.465,375.645L350.393,375.702L350.269,376.794L350.448,377.142L351.343,377.832L351.684,378.165L352.117,379.146L352.298,379.421L352.409,379.493L352.417,379.566L352.281,379.856L351.991,380.242L351.599,380.627L351.248,381.048L351.085,381.556L351.831,383.335L352.02,384.229L351.41,384.354L351.225,384.193L351.062,383.961L350.86,383.801L350.559,383.815L350.333,383.953L350.28,384.098L350.285,384.266L350.213,384.591L350.249,384.831L350.223,384.956L350.143,385.042L348.329,386.538L348.846,387.534L348.645,387.76L348.025,387.787L347.289,388.202L347.073,388.608L347.03,388.951L346.928,389.219L346.519,389.414L346.31,389.429L345.893,389.379L345.676,389.429L345.459,389.612L345.173,390.135L345.011,390.345L344.714,390.518L344.133,390.62L343.778,390.735L343.378,390.396L342.946,390.387L342.067,390.7L341.641,390.7L341.201,390.591L340.755,390.555L340.309,390.735L340.122,390.896L339.922,391.013L339.707,391.063L339.474,391.048L339.099,391.093L338.286,391.07L337.966,391.093L337.666,391.23L336.986,391.637L336.352,391.842L336.042,392.103L335.495,392.72L334.698,393.365L334.286,393.939L334.145,394.056L333.993,394.076L333.879,394.019L333.767,393.931L333.629,393.866L333.499,393.874L333.405,393.939L333.328,394.019L333.241,394.056L332.526,394.171L332.459,394.222L332.305,394.382L332.195,394.419L332.078,394.374L331.825,394.194L331.733,394.164L331.453,394.201L331.322,394.244L331.325,394.347L331.452,394.579L331.567,394.622L332.1,394.935L332.18,395.022L332.537,394.95L332.714,394.962L332.928,395.027L333.329,395.202L333.654,395.405L333.896,395.698L334.053,396.11L334.073,396.474L334.03,396.939L333.854,397.753L333.739,397.963L333.585,398.181L333.472,398.405L333.476,398.646L333.634,398.877L333.819,398.921L334.028,398.892L334.261,398.93L334.993,399.509L335.183,400.251L335.183,401.972L335.296,402.45L335.313,402.721L335.147,402.9L334.699,403.118L334.383,403.389L334.293,403.766L334.437,405.943L334.397,406.279L334.142,406.715L333.494,407.368L333.3,407.846L333.173,408.696L332.964,408.987L332.474,409.292L332.13,409.438L331.778,409.548L329.729,409.808L329.432,410.003L329.367,410.331L329.608,411.594L329.482,412.141L329.947,412.03L330.227,412.604L330.608,414.057L330.854,414.5L330.929,414.753L330.643,415.952L330.65,416.127L330.619,416.33L330.485,416.432L330.317,416.51L330.178,416.663L330.072,416.975L329.876,418.087L329.886,418.277L329.989,418.617L330.014,418.792L330.33,418.915L330.125,419.098L329.982,419.431L329.958,419.751L330.113,419.896L330.174,420.091L329.895,421.188L329.412,421.936L329.333,422.11L329.167,423.165L329.054,423.47L328.496,423.257L328.043,422.959L327.781,422.874L327.584,422.882L327.014,423.026L325.866,423.134L323.218,423.715L321.741,424.493L321.428,424.726L321.191,425.074L321.105,425.452L321.193,426.591L320.952,426.766L319.993,426.433L319.752,426.621L319.678,427.144L319.537,427.586L319.292,427.979L318.904,428.362L317.066,428.378L315.512,427.826L315.236,427.651L314.831,427.159L314.608,427.014L314.296,427.07L314.228,426.301L314.282,426.024L314.536,425.742L314.586,425.77L314.684,425.857L314.823,425.915L314.992,425.85L315.037,425.742L315.008,425.604L314.958,425.479L314.947,425.406L315.449,424.856L315.144,424.601L315.208,424.224L315.518,423.577L315.182,423.184L315.111,422.981L315.156,422.807L315.376,422.432L315.41,422.306L315.318,422.104L315.198,422.03L315.032,422.038L314.797,422.073L314.658,422.03L314.539,421.908L314.429,421.763L314.324,421.653L314.139,421.631L313.966,421.676L313.858,421.622L313.864,421.313L313.962,421.145L314.339,420.839L314.473,420.664L314.501,420.419L314.443,420.171L314.324,419.881L314.487,419.698L314.712,419.59L314.917,419.474L315.027,419.229L314.958,419.061L314.77,418.899L314.547,418.784L314.16,418.639L314.101,418.479L314.204,417.616L314.176,417.331L313.967,417.208L313.473,417.273L312.989,417.483L312.604,417.753L312.203,417.941L311.672,417.919L311.249,417.854L310.803,417.876L310.448,418.051L310.304,418.43L310.267,419.242L310.374,419.533L310.612,419.678L310.868,419.801L311.021,419.996L310.947,420.484L310.562,420.745L310.059,420.832L309.626,420.805L308.507,420.584L308.175,420.469L307.341,420.025L306.92,419.735L306.609,419.46L306.19,418.74L305.921,418.567L305.467,418.713L305.493,418.784L305.204,419.27L305.158,419.285L305.06,419.678L305.017,420.063L305.055,420.236L305.129,420.382L305.187,420.55L305.084,421.492L304.884,422.16L304.92,422.517L305.182,422.925L305.334,423.004L305.561,423.069L305.78,423.165L305.908,423.317L305.903,423.542L305.799,423.722L305.664,423.89L305.574,424.042L305.472,424.804L305.298,425.059L304.826,425.211L304.37,425.161L303.595,424.703L303.145,424.559L302.696,424.601L301.485,425.169L301.089,425.22L299.922,425.074L299.459,425.146L299.214,425.406L298.721,427.057L298.768,427.331L298.985,427.521L299.255,427.694L299.451,427.919L299.497,428.45L299.246,428.894L298.817,429.205L298.337,429.381L297.828,429.396L297.463,429.068L297.158,428.596L296.822,428.205L296.474,427.999L294.449,427.434L292.818,427.187L291.524,427.159L291.187,427.07L291.013,426.808L290.994,426.314L291.125,425.467L291.003,425.146L290.536,425.116L289.977,425.327L289.788,425.372L289.521,425.363L289.493,425.233L289.543,425.036L289.514,424.812L289.168,424.23L289.087,424.028L289.071,423.84L289.088,423.622L289.071,423.382L288.961,423.143L288.782,422.952L288.585,422.829L288.347,422.779L288.05,422.794L287.561,423.425L287.4,423.569L287.216,423.635L286.847,423.635L286.64,423.657L286.159,423.607L285.419,423.156L284.994,423.229L284.878,423.401L284.798,423.657L284.693,423.876L284.511,423.933L284.266,423.905L284.084,423.948L283.803,424.181L283.803,424.318L283.712,424.355L283.521,424.448L283.768,424.753L283.535,425.096L283.081,425.372L282.666,425.459L282.937,425.808L282.691,426.228L282.652,426.525L282.538,426.685L282.385,426.788L282.251,426.903L282.18,427.121L282.1,427.281L281.608,427.915L281.409,428.072L281.229,428.197L281.027,428.27L280.5,428.342L280.307,428.465L279.923,428.785L279.551,428.966L279.122,429.075L278.689,429.084L278.304,428.945L278.749,427.942L278.86,427.464L278.819,426.926L278.683,426.453L278.471,425.93L278.167,425.486L277.768,425.254L276.649,425.204L276.113,425.104L275.714,424.825L275.603,424.559L275.578,424.005L275.51,423.753L275.305,423.432L275.167,423.382L274.994,423.49L274.676,423.622L274.203,423.715L273.759,423.708L273.382,423.513L272.868,422.546L272.24,421.683L272.012,421.145L271.69,417.028L271.599,416.657L271.056,416.445L271.1,416.017L271.53,414.855L271.677,414.695L271.798,414.508L271.844,414.122L271.814,411.973L271.69,411.5L271.373,411.021L270.946,410.621L270.493,410.389L270.247,410.396L269.85,410.613L269.647,410.645L269.264,410.511L269.078,410.483L268.859,410.533L268.442,410.549L268.03,410.418L267.686,410.418L267.154,411.537L266.95,411.854L266.58,412.11L266.25,412.213L265.884,412.256L265.514,412.24L265.167,412.19L264.76,412.225L264.406,412.415L264.083,412.509L263.768,412.29L263.675,411.966L263.754,411.603L263.923,411.251L264.106,410.992L265.056,410.033L265.272,409.62L265.287,409.38L265.235,409.183L265.243,408.979L265.431,408.727L265.599,408.658L266.016,408.654L266.197,408.559L266.372,408.231L266.49,407.49L266.739,407.128L266.888,407.04L267.31,406.859L267.483,406.742L267.557,406.722L267.761,406.699L267.83,406.655L267.866,406.504L267.821,406.379L267.757,406.279L267.741,406.199L267.958,405.733L268.15,405.581L268.945,405.764L269.309,405.807L269.725,405.784L270.101,405.654L270.342,405.378L270.458,404.84L270.248,404.744L269.871,404.806L269.493,404.737L269.325,404.427L269.572,404.149L269.998,403.954L270.37,403.858L269.911,403.474L269.292,403.184L268.049,402.806L267.479,402.785L267.238,402.698L267.074,402.393L266.9,401.563L266.785,401.304L266.258,401.717L265.703,401.682L264.58,401.174L264.35,400.876L264.123,400.476L263.951,400.056L263.882,399.677L263.427,398.174L263.145,397.979L262.861,398.051L262.528,398.203L262.103,398.261L261.732,398.138L261.393,397.933L261.047,397.772L260.663,397.803L261.696,392.473L261.678,392.225L261.566,392.021L261.428,391.819L261.327,391.594L261.295,391.143L261.315,390.75L261.226,390.396L260.853,390.066L260.424,389.994L259.954,390.048L259.5,390.025L259.122,389.712L259.036,389.314L259.125,388.863L259.433,388.043L259.452,387.569L259.29,387.112L259.021,386.741L258.712,386.568L258.308,386.729L258.057,386.741L257.907,386.504L257.838,386.291L257.637,385.957L257.569,385.755L257.604,385.201L257.821,384.759L258.092,384.346L258.278,383.88L258.245,383.415L258.015,382.952L257.646,382.559L254.488,380.926L253.621,380.635L252.05,380.3L251.782,380.322L251.628,380.452L251.47,380.54L251.18,380.432L250.906,380.271L250.787,380.257L250.645,380.279L250.302,380.524L249.329,380.765L249.033,381.135L249.142,381.353L249.439,381.709L249.813,382.066L250.378,382.369L250.435,382.521L250.444,382.712L250.543,382.907L250.697,383.003L251.044,383.074L251.16,383.178L251.174,383.445L251.083,383.846L250.9,384.171L250.628,384.251L250.692,384.744L250.591,385.021L250.11,385.5L248.848,385.282L248.492,385.332L247.654,385.732L247.318,385.966L246.913,386.328L244.598,387.104L243.942,387.526L243.631,387.859L243.484,388.18L243.456,388.536L243.5,388.972L243.402,389.233L243.144,389.597L242.647,390.127L241.502,390.104L241.132,389.982L240.923,389.857L240.589,389.597L240.37,389.51L240.226,389.51L239.806,389.574L239.607,389.574L239.236,389.395L238.528,388.826L238.151,388.727L237.739,388.653L237.021,388.275L236.628,388.15L236.379,388.035L235.959,387.707L235.71,387.577L235.501,387.526L235.158,387.512L234.947,387.446L234.784,387.345L234.504,387.104L234.302,387.011L234.155,386.988L233.651,387.011L233.25,386.932L232.529,386.588L231.85,386.459L231.721,386.328L231.621,386.19L231.457,386.111L230.675,386.423L230.551,386.668L230.497,386.661L230.438,386.546L230.292,386.436L230.25,386.481L230.163,386.677L229.968,386.786L229.78,386.802L229.664,386.879L229.679,387.179L229.374,387.076L229.237,387.004L229.102,386.895L228.832,387.076L228.125,387.664L227.981,387.832L227.78,388.137L226.797,388.058L226.424,388.195L226.403,388.391L226.571,388.811L226.5,388.891L226.307,388.979L226.3,389.181L226.356,389.401L226.353,389.552L225.935,389.849L225.523,390.048L225.294,390.3L225.439,390.758L225.12,390.86L224.695,391.078L224.322,391.331L224.162,391.544L224.086,391.834L223.902,392.217L223.677,392.575L223.473,392.771L223.167,392.915L222.314,392.952L221.718,392.334L220.882,390.735L220.331,390.185L220.235,389.96L220.264,389.792L220.466,389.422L220.521,389.233L220.39,388.653L220.02,388.355L219.538,388.123L219.059,387.767L218.233,386.473L217.865,386.205L217.362,386.073L216.953,386.088L216.058,386.386L215.579,386.37L215.301,386.431L215.147,386.641L214.879,387.534L214.643,387.803L213.979,388.282L213.866,388.42L213.573,388.884L213.41,388.956L213.235,388.972L213.099,389.036L212.97,389.646L212.75,390.048L212.444,390.359L212.119,390.445L211.784,390.468L211.121,390.735L210.72,390.735L210.316,390.598L209.895,390.38L209.493,390.112L209.151,389.814L208.319,388.703L207.952,388.405L206.692,387.846L206.305,387.497L205.932,386.656L206.263,386.046L206.848,385.435L207.231,384.606L207.226,384.129L207.09,383.301L207.178,382.827L207.497,382.654L207.993,382.674L208.382,382.617L208.388,382.211L208.425,381.659L208.564,381.105L208.605,380.612L208.345,380.257L208.301,380.372L208.139,380.627L208.1,380.438L207.971,380.097L207.926,379.922L207.8,379.589L207.641,379.646L207.524,379.871L207.536,380.024L207.37,379.879L207.131,379.466L206.982,379.371L206.753,379.291L206.902,379.16L207.329,378.963L207.38,378.718L207.354,378.572L207.306,378.427L207.289,378.202L207.395,377.541L207.39,377.323L207.29,377.104L207.13,376.996L206.974,376.938L206.894,376.886L206.875,376.576L207.001,376.422L207.163,376.306L207.38,375.755L207.652,375.667L207.936,375.617L208.104,375.346L208.066,375.152L207.85,374.758L207.85,374.664L207.993,374.511L208.037,374.288L208.018,374.04L207.975,373.822L207.908,373.647L207.819,373.495L207.745,373.399L207.717,373.38L207.666,373.364L207.569,373.35L207.489,373.3L207.48,373.177L207.532,373.06L207.593,372.972L207.624,372.88L207.561,372.537L207.637,372.318L207.751,372.101L207.837,371.891L207.792,371.78L207.673,371.673L207.574,371.555L207.588,371.432L207.723,371.359L207.87,371.41L207.999,371.475L208.09,371.475L208.269,371.33L208.4,371.25L208.469,371.127L208.425,370.582L208.379,370.344L208.284,370.126L208.111,369.944L208.063,370.306L207.912,370.547L207.673,370.648L207.353,370.582L207.409,370.379L207.459,369.967L207.462,369.783L207.529,369.703L207.643,369.618L207.675,369.522L207.497,369.442L207.416,369.37L207.335,369.24L207.22,368.984L206.936,368.58L206.977,368.455L207.091,368.294L207.114,368.148L206.897,368.064L206.563,367.977L206.304,367.816L206.06,367.634L205.775,367.461L205.412,367.381L205.31,367.038L205.298,366.305L205.108,366.03L204.862,365.804L204.665,365.544L204.604,365.166L204.682,364.94L204.944,364.563L204.976,364.33L204.888,364.128L204.422,363.72L203.916,363.016L203.767,362.608L203.766,362.15L203.616,362.216L203.358,362.282L203.13,362.26L203.076,362.051L203.104,361.753L203.011,361.657L202.493,361.68L202.091,361.768L201.896,361.737L201.689,361.578L201.57,361.367L201.424,361.206L201.13,361.165L200.814,361.329L200.608,361.68L200.485,362.107L200.432,362.514L199.57,363.169L199.457,363.284L199.342,363.276L199.097,363.074L199.004,362.929L198.876,362.521L198.797,362.363L198.638,362.245L198.093,361.978L197.913,361.933L197.864,361.7L198.158,360.576L198.203,360.198L198.061,359.958L197.895,359.885L197.704,359.862L197.49,359.755L197.374,359.617L197.189,359.306L197.06,359.16L195.872,358.294L195.494,357.866L195.039,357.155L194.781,356.399L194.358,355.578L194.082,355.165L193.797,354.926L195.553,353.937L196.241,353.232L196.569,352.295L196.691,351.438L196.694,351.012L196.569,350.619L196.21,350.184L195.826,349.893L195.492,349.557L195.285,349.014L195.288,348.136L195.749,346.521L195.901,345.665L195.856,345.2L195.098,343.429L194.895,343.116L194.606,342.921L193.794,342.63L193.543,342.42L193.346,342.157L193.177,341.867L193.481,341.751L193.571,341.488L193.428,341.214L191.51,340.503L191.245,340.45L191.283,339.536L191.231,339.106L190.988,338.185L190.943,337.742L191.067,337.379L191.456,337.147L191.606,337.009L191.663,336.777L191.683,336.521L191.725,336.303L191.877,336.085L192.278,335.694L192.392,335.513L192.411,335.157L192.256,335.031L192.045,334.981L191.902,334.858L191.853,334.634L191.892,334.488L191.983,334.336L192.097,334.081L191.869,334.068L191.535,334.001L191.222,333.863L191.064,333.623L190.938,333.324L190.53,332.963L190.372,332.346L190.729,332.512L191.182,332.593L191.625,332.534L192.511,332.222L192.949,332.141L193.262,332.31L194.13,333.087L194.358,333.202L194.524,332.957L194.632,332.622L194.785,332.512L195.167,332.6L195.578,332.606L195.982,332.491L196.341,332.244L196.828,331.575L197.124,331.315L197.952,331.14L198.327,330.938L198.632,330.675L198.795,330.393L198.875,330.204L198.983,330.06L199.088,329.949L199.158,329.846L199.239,329.812L199.384,329.773L199.501,329.701L199.501,329.563L199.358,329.376L199.301,329.273L199.284,329.143L199.39,328.38L199.497,328.002L199.648,327.678L199.648,327.669L199.692,327.283L199.637,326.985L199.485,326.745L199.244,326.55L199.114,326.55L199.005,326.646L198.87,326.695L198.667,326.55L198.704,326.44L198.752,325.802L198.991,324.953L199.01,324.733L198.948,324.438L198.929,324.241L198.981,323.798L199.369,322.665L199.487,321.655L199.572,321.314L200.26,319.841L200.586,318.321L200.848,317.646L201.372,317.073L201.421,316.84L201.421,316.122L202.027,316.21L202.578,316.39L203.127,316.436L203.729,316.122L204.462,315.337L204.805,315.142L205.352,314.98L205.592,314.866L205.775,314.655L205.822,314.553L205.838,314.442L205.822,314.335L205.775,314.226L205.69,314.176L205.618,314.124L205.565,314.06L205.53,313.965L205.59,313.949L205.775,313.927L206.951,314.167L207.433,314.371L207.952,314.82L209.858,317.596L210.243,318.031L215.444,321.865L216.115,322.511L216.682,323.617L217.447,324.37L218.123,325.409L218.307,325.054L218.622,323.843L218.8,323.5L219.354,322.977L219.585,322.622L219.783,321.839L219.933,321.495L220.264,321.169L220.488,321.09L220.695,321.09L220.867,321.053L221.095,320.712L221.428,320.521L221.585,320.364L221.748,319.914L221.723,319.033L221.8,318.635L222.027,318.409L222.36,318.395L223.6,318.582L224.459,318.597L224.865,318.532L225.603,318.287L225.943,318.227L226.344,318.314L226.654,318.256L228.753,318.292L229.322,318.401L230.312,318.329L230.597,318.364L232.357,319.07L232.535,319.07L232.915,318.998L233.073,319.013L233.493,319.216L234.241,319.693L234.72,319.841L235.557,319.861L237.948,319.514L240.33,319.723L241.117,319.527L242.282,318.845L242.691,318.669L243.694,318.46L248.8,318.256L248.554,317.08L248.225,315.736L248.228,315.118L248.53,314.553L249.786,313.048L250.186,312.796L250.681,313.014L250.746,313.697L250.464,315.148L250.335,317.089C258.956,317.089 267.576,317.096 276.197,317.096C284.82,317.096 293.444,317.103 302.067,317.103C310.848,317.103 319.627,317.115 328.408,317.115L329.205,317.115L329.209,317.123L329.229,317.123L329.235,317.131L329.279,317.131L329.281,317.123L329.286,317.123L329.287,317.115L329.293,317.115L329.293,317.08L329.314,316.979C330.335,311.22 331.482,305.482 332.537,299.729C332.524,299.64 332.51,299.551 332.496,299.462C332.43,299.389 332.364,299.316 332.298,299.244C330.649,298.093 328.989,296.96 327.341,295.809C327.22,295.584 327.1,295.358 326.981,295.133C326.093,286.511 325.154,277.893 324.252,269.272C323.378,260.908 322.498,252.545 321.622,244.181C321.173,239.893 320.726,235.604 320.279,231.316C319.348,222.769 318.426,214.22 317.487,205.673C316.538,197.034 315.592,188.393 314.645,179.753C313.699,171.132 312.764,162.51 311.832,153.888C310.907,145.332 309.98,136.775 309.064,128.218C308.405,122.06 307.715,115.905 307.032,109.75C315.842,109.736 324.651,109.743 333.461,109.73C336.8,109.725 340.139,109.729 343.478,109.729L343.482,109.735C345.575,111.168 347.666,112.604 349.759,114.035C356.543,118.909 363.347,123.755 370.148,128.603C377.06,133.527 383.982,138.434 390.901,143.348C397.966,148.366 405.043,153.365 412.123,158.361C419.127,163.305 426.14,168.239 433.16,173.159C440.089,178.015 447.018,182.869 453.951,187.716C458.046,190.579 462.144,193.437 466.245,196.289L466.507,196.734L466.892,198.141L466.935,198.621L466.674,201.019L466.217,202.994L466.201,203.421L466.261,203.959L466.412,204.242L466.696,204.357L467.168,204.417L467.604,204.41L468.417,204.234L468.854,204.228L469.332,204.357L469.615,204.593L470.051,205.354L470.37,205.759L470.719,206.014L471.604,206.289L472.433,206.43L472.812,206.537L473.175,206.777L473.937,206.9L474.742,207.33L476.064,208.339L476.479,208.962L476.602,209.74L476.587,211.375L476.79,211.695L479.237,213.728L479.673,213.932L480.116,213.96L480.486,213.907L480.82,213.932L481.142,214.178L481.336,214.628L481.408,215.033L481.569,215.309L482.02,215.324L482.244,215.216L482.593,214.889L482.884,214.804L483.123,214.838L483.297,214.948L483.457,215.086L483.667,215.216L484.961,215.674L485.266,215.709L485.804,215.469L486.646,214.678L487.117,214.368L487.553,214.288L487.931,214.388L488.286,214.605L489.55,215.609L490.313,216.43L490.967,217.358L491.795,218.893L492.042,219.123L492.354,219.238L492.849,219.355L493.246,219.508L493.995,219.914L494.396,220.009L494.613,220.023L496.495,220.395L497.618,220.439L503.262,221.621L505.869,222.769L507.054,223.72L507.394,223.88L508.142,224.105L508.462,224.258L508.752,224.534L508.833,224.831L508.455,229.211L508.478,230.055L508.737,230.845L508.848,230.976L508.955,231.04L509.065,231.128L509.152,231.316L509.139,231.456L509.027,231.884L509.021,232.094L509.204,232.494L509.464,232.812L509.684,233.163L509.741,233.641L509.535,234.133L509.161,234.434L508.723,234.674L508.339,235L508.157,235.39L508.049,236.236L507.962,236.606L507.511,237.069L507.236,237.242L507.133,237.439L506.973,237.867L506.675,238.34L506.487,238.723L506.516,239.119L506.858,239.609L507.229,239.975L507.634,240.285L508.069,240.533L509.021,240.946L510.234,242.137L510.715,242.442L510.925,242.53L511.223,242.572L511.753,242.553L513.414,242.147L513.422,242.147C518.83,241.086 524.237,240.03 529.646,238.974Z"/>
        </clipPath>
        <g clip-path="url(#_clip1)">
            <rect x="112" y="104.667" width="165.333" height="330.666" style="fill:rgb(26,178,75);fill-rule:nonzero;"/>
            <rect x="277.333" y="104.667" width="165.334" height="330.666" style="fill:rgb(251,209,19);fill-rule:nonzero;"/>
            <rect x="442.667" y="104.667" width="165.333" height="330.666" style="fill:rgb(207,32,40);fill-rule:nonzero;"/>
        </g>
    </g>
    <g transform="matrix(4.16667,0,0,4.16667,-466.667,-436.112)">
        <path d="M529.646,238.974C529.676,247.768 529.701,256.562 529.727,265.355C529.746,271.95 529.771,278.544 529.792,285.139L529.517,285.334L529.299,285.35L529.131,285.414L529.017,285.792L528.986,286.179L529.102,288.278L529.009,288.503L528.738,288.923L528.688,289.118C528.703,291.917 528.717,294.716 528.724,297.515L528.565,298.016L528.275,298.286L527.374,298.74L526.895,299.119L526.502,299.534L526.19,300.021L524.352,304.537L524.266,305.126L524.347,305.714L524.6,306.347L524.614,306.367L524.622,306.397L524.629,306.427L524.629,306.585L524.622,306.652L524.6,306.709L523.4,307.908L523.09,308.394L522.958,308.786L522.77,310.863L522.61,311.686L522.297,312.434L521.773,313.057L521.005,313.477L519.37,313.79L518.615,314.205L517.003,315.977L515.202,317.08L514.999,317.646L514.802,320.086L514.424,320.014L514.315,319.979C511.504,319.496 508.691,319.016 505.878,318.539L505.063,318.556L504.736,318.627L504.584,318.737L504.533,318.955L504.49,319.339L504.49,320.124L504.373,320.406C495.491,320.68 486.611,321.015 477.73,321.315C475.171,321.402 472.61,321.486 470.051,321.582L469.354,321.75L468.802,322.083C466.762,323.977 464.728,325.876 462.687,327.769L462.186,328.017L461.626,328.143L458.482,328.243L457.879,328.468L457.291,328.7L456.725,328.838L456.44,328.86L453.253,327.719L452.606,327.757L451.277,328.221L450.625,328.365L449.926,328.359L447.211,327.678L447.043,327.895L447.036,328.418L447.152,329.472L441.975,327.678L439.222,326.536L437.791,326.195L436.506,326.428L435.221,327.212L434.479,327.539L433.902,327.531L433.699,327.269L433.225,325.993L433.034,325.897L427.854,325.925L427.173,326.107L426.557,326.565L425.457,327.669L425.452,327.669L421.197,331.438L420.473,331.896L419.688,332.229L415.758,333.194L414.883,333.617L407.752,338.235L406.316,338.51L404.871,338.586L403.181,338.453L402.196,338.498L401.578,338.772L401.414,339.332L401.035,344.517L400.956,344.734L400.778,344.88L399.37,345.513L399.053,345.563L398.392,345.411L393.585,343.123L392.021,342.782L390.9,343.058L389.228,344.017L388.769,344.41L387.258,346.108L384.22,347.793L383.676,348.686L383.794,348.664L383.854,348.694L383.887,348.751L383.922,348.781L383.117,351.512L382.753,352.115L382.427,352.921L382.522,354.047L383.101,356.036L381.666,356.582L381.516,356.609L381.371,356.545L381.227,356.449L381.054,356.384L380.554,356.334L380.391,356.377L380.151,356.502L379.794,356.893L379.557,356.98L379.413,356.654L379.355,356.35L379.256,356.151L378.89,355.803L378.373,355.498L377.941,355.506L377.492,355.609L376.918,355.544L376.001,354.853L375.453,354.657L375.042,355.063L375.468,355.392L375.603,355.892L375.517,357.067L375.408,357.561L375.105,358.339L375.832,363.574L375.548,363.765L372.172,363.967L371.718,364.147L371.643,364.736L371.883,365.463L371.905,365.842L371.7,366.183L371.452,366.247L370.329,366.071L369.869,366.087L369.734,366.06L369.552,365.941L369.221,365.594L369.085,365.544L368.813,365.579L368.669,365.536L366.984,364.228L366.045,363.662L364.518,362.436L364.137,362.275L363.294,362.051L362.584,361.768L362.248,361.7L361.838,361.737L361.437,361.73L360.958,361.607L360.704,361.396L360.958,361.149L361.136,361.047L361.553,360.656L361.713,360.589L361.906,360.562L362.05,360.481L362.063,360.256L361.951,360.198L361.455,360.103L361.279,360.03L361.212,359.9L361.105,359.478L360.985,359.306L360.908,359.247L360.833,359.225L360.759,359.247L360.694,359.306L360.417,359.63L360.534,359.726L360.798,359.74L360.958,359.855L360.85,360.053L360.576,360.291L360.266,360.496L360.045,360.576L359.795,360.661L359.479,361.02L359.294,361.134L358.744,361.279L358.574,361.367L358.229,361.688L358.017,362.07L357.668,362.929L357.349,363.438L356.959,363.887L356.736,364.003L356.54,363.994L356.347,363.96L356.147,363.994L355.836,364.207L355.463,364.541L355.16,364.918L355.065,365.231L355.208,365.427L355.644,365.674L355.689,365.854L355.546,366.037L355.31,366.103L353.994,366.037L353.647,366.189L353.388,366.886L353.26,367.053L353.153,367.243L353.153,367.496L353.271,367.686L353.866,368.237L354.416,369.442L354.679,369.806L355.277,370.314L355.658,370.794L355.822,371.375L355.753,372.566L356.016,373.518L355.988,373.766L355.56,375.121L355.356,375.384L355.075,375.572L354.691,375.702L354.261,375.762L353.979,375.675L353.393,375.327L352.788,375.193L352.104,375.246L351.421,375.419L350.825,375.652L350.605,375.682L350.465,375.645L350.393,375.702L350.269,376.794L350.448,377.142L351.343,377.832L351.684,378.165L352.117,379.146L352.298,379.421L352.409,379.493L352.417,379.566L352.281,379.856L351.991,380.242L351.599,380.627L351.248,381.048L351.085,381.556L351.831,383.335L352.02,384.229L351.41,384.354L351.225,384.193L351.062,383.961L350.86,383.801L350.559,383.815L350.333,383.953L350.28,384.098L350.285,384.266L350.213,384.591L350.249,384.831L350.223,384.956L350.143,385.042L348.329,386.538L348.846,387.534L348.645,387.76L348.025,387.787L347.289,388.202L347.073,388.608L347.03,388.951L346.928,389.219L346.519,389.414L346.31,389.429L345.893,389.379L345.676,389.429L345.459,389.612L345.173,390.135L345.011,390.345L344.714,390.518L344.133,390.62L343.778,390.735L343.378,390.396L342.946,390.387L342.067,390.7L341.641,390.7L341.201,390.591L340.755,390.555L340.309,390.735L340.122,390.896L339.922,391.013L339.707,391.063L339.474,391.048L339.099,391.093L338.286,391.07L337.966,391.093L337.666,391.23L336.986,391.637L336.352,391.842L336.042,392.103L335.495,392.72L334.698,393.365L334.286,393.939L334.145,394.056L333.993,394.076L333.879,394.019L333.767,393.931L333.629,393.866L333.499,393.874L333.405,393.939L333.328,394.019L333.241,394.056L332.526,394.171L332.459,394.222L332.305,394.382L332.195,394.419L332.078,394.374L331.825,394.194L331.733,394.164L331.453,394.201L331.322,394.244L331.325,394.347L331.452,394.579L331.567,394.622L332.1,394.935L332.18,395.022L332.537,394.95L332.714,394.962L332.928,395.027L333.329,395.202L333.654,395.405L333.896,395.698L334.053,396.11L334.073,396.474L334.03,396.939L333.854,397.753L333.739,397.963L333.585,398.181L333.472,398.405L333.476,398.646L333.634,398.877L333.819,398.921L334.028,398.892L334.261,398.93L334.993,399.509L335.183,400.251L335.183,401.972L335.296,402.45L335.313,402.721L335.147,402.9L334.699,403.118L334.383,403.389L334.293,403.766L334.437,405.943L334.397,406.279L334.142,406.715L333.494,407.368L333.3,407.846L333.173,408.696L332.964,408.987L332.474,409.292L332.13,409.438L331.778,409.548L329.729,409.808L329.432,410.003L329.367,410.331L329.608,411.594L329.482,412.141L329.947,412.03L330.227,412.604L330.608,414.057L330.854,414.5L330.929,414.753L330.643,415.952L330.65,416.127L330.619,416.33L330.485,416.432L330.317,416.51L330.178,416.663L330.072,416.975L329.876,418.087L329.886,418.277L329.989,418.617L330.014,418.792L330.33,418.915L330.125,419.098L329.982,419.431L329.958,419.751L330.113,419.896L330.174,420.091L329.895,421.188L329.412,421.936L329.333,422.11L329.167,423.165L329.054,423.47L328.496,423.257L328.043,422.959L327.781,422.874L327.584,422.882L327.014,423.026L325.866,423.134L323.218,423.715L321.741,424.493L321.428,424.726L321.191,425.074L321.105,425.452L321.193,426.591L320.952,426.766L319.993,426.433L319.752,426.621L319.678,427.144L319.537,427.586L319.292,427.979L318.904,428.362L317.066,428.378L315.512,427.826L315.236,427.651L314.831,427.159L314.608,427.014L314.296,427.07L314.228,426.301L314.282,426.024L314.536,425.742L314.586,425.77L314.684,425.857L314.823,425.915L314.992,425.85L315.037,425.742L315.008,425.604L314.958,425.479L314.947,425.406L315.449,424.856L315.144,424.601L315.208,424.224L315.518,423.577L315.182,423.184L315.111,422.981L315.156,422.807L315.376,422.432L315.41,422.306L315.318,422.104L315.198,422.03L315.032,422.038L314.797,422.073L314.658,422.03L314.539,421.908L314.429,421.763L314.324,421.653L314.139,421.631L313.966,421.676L313.858,421.622L313.864,421.313L313.962,421.145L314.339,420.839L314.473,420.664L314.501,420.419L314.443,420.171L314.324,419.881L314.487,419.698L314.712,419.59L314.917,419.474L315.027,419.229L314.958,419.061L314.77,418.899L314.547,418.784L314.16,418.639L314.101,418.479L314.204,417.616L314.176,417.331L313.967,417.208L313.473,417.273L312.989,417.483L312.604,417.753L312.203,417.941L311.672,417.919L311.249,417.854L310.803,417.876L310.448,418.051L310.304,418.43L310.267,419.242L310.374,419.533L310.612,419.678L310.868,419.801L311.021,419.996L310.947,420.484L310.562,420.745L310.059,420.832L309.626,420.805L308.507,420.584L308.175,420.469L307.341,420.025L306.92,419.735L306.609,419.46L306.19,418.74L305.921,418.567L305.467,418.713L305.493,418.784L305.204,419.27L305.158,419.285L305.06,419.678L305.017,420.063L305.055,420.236L305.129,420.382L305.187,420.55L305.084,421.492L304.884,422.16L304.92,422.517L305.182,422.925L305.334,423.004L305.561,423.069L305.78,423.165L305.908,423.317L305.903,423.542L305.799,423.722L305.664,423.89L305.574,424.042L305.472,424.804L305.298,425.059L304.826,425.211L304.37,425.161L303.595,424.703L303.145,424.559L302.696,424.601L301.485,425.169L301.089,425.22L299.922,425.074L299.459,425.146L299.214,425.406L298.721,427.057L298.768,427.331L298.985,427.521L299.255,427.694L299.451,427.919L299.497,428.45L299.246,428.894L298.817,429.205L298.337,429.381L297.828,429.396L297.463,429.068L297.158,428.596L296.822,428.205L296.474,427.999L294.449,427.434L292.818,427.187L291.524,427.159L291.187,427.07L291.013,426.808L290.994,426.314L291.125,425.467L291.003,425.146L290.536,425.116L289.977,425.327L289.788,425.372L289.521,425.363L289.493,425.233L289.543,425.036L289.514,424.812L289.168,424.23L289.087,424.028L289.071,423.84L289.088,423.622L289.071,423.382L288.961,423.143L288.782,422.952L288.585,422.829L288.347,422.779L288.05,422.794L287.561,423.425L287.4,423.569L287.216,423.635L286.847,423.635L286.64,423.657L286.159,423.607L285.419,423.156L284.994,423.229L284.878,423.401L284.798,423.657L284.693,423.876L284.511,423.933L284.266,423.905L284.084,423.948L283.803,424.181L283.803,424.318L283.712,424.355L283.521,424.448L283.768,424.753L283.535,425.096L283.081,425.372L282.666,425.459L282.937,425.808L282.691,426.228L282.652,426.525L282.538,426.685L282.385,426.788L282.251,426.903L282.18,427.121L282.1,427.281L281.608,427.915L281.409,428.072L281.229,428.197L281.027,428.27L280.5,428.342L280.307,428.465L279.923,428.785L279.551,428.966L279.122,429.075L278.689,429.084L278.304,428.945L278.749,427.942L278.86,427.464L278.819,426.926L278.683,426.453L278.471,425.93L278.167,425.486L277.768,425.254L276.649,425.204L276.113,425.104L275.714,424.825L275.603,424.559L275.578,424.005L275.51,423.753L275.305,423.432L275.167,423.382L274.994,423.49L274.676,423.622L274.203,423.715L273.759,423.708L273.382,423.513L272.868,422.546L272.24,421.683L272.012,421.145L271.69,417.028L271.599,416.657L271.056,416.445L271.1,416.017L271.53,414.855L271.677,414.695L271.798,414.508L271.844,414.122L271.814,411.973L271.69,411.5L271.373,411.021L270.946,410.621L270.493,410.389L270.247,410.396L269.85,410.613L269.647,410.645L269.264,410.511L269.078,410.483L268.859,410.533L268.442,410.549L268.03,410.418L267.686,410.418L267.154,411.537L266.95,411.854L266.58,412.11L266.25,412.213L265.884,412.256L265.514,412.24L265.167,412.19L264.76,412.225L264.406,412.415L264.083,412.509L263.768,412.29L263.675,411.966L263.754,411.603L263.923,411.251L264.106,410.992L265.056,410.033L265.272,409.62L265.287,409.38L265.235,409.183L265.243,408.979L265.431,408.727L265.599,408.658L266.016,408.654L266.197,408.559L266.372,408.231L266.49,407.49L266.739,407.128L266.888,407.04L267.31,406.859L267.483,406.742L267.557,406.722L267.761,406.699L267.83,406.655L267.866,406.504L267.821,406.379L267.757,406.279L267.741,406.199L267.958,405.733L268.15,405.581L268.945,405.764L269.309,405.807L269.725,405.784L270.101,405.654L270.342,405.378L270.458,404.84L270.248,404.744L269.871,404.806L269.493,404.737L269.325,404.427L269.572,404.149L269.998,403.954L270.37,403.858L269.911,403.474L269.292,403.184L268.049,402.806L267.479,402.785L267.238,402.698L267.074,402.393L266.9,401.563L266.785,401.304L266.258,401.717L265.703,401.682L264.58,401.174L264.35,400.876L264.123,400.476L263.951,400.056L263.882,399.677L263.427,398.174L263.145,397.979L262.861,398.051L262.528,398.203L262.103,398.261L261.732,398.138L261.393,397.933L261.047,397.772L260.663,397.803L261.696,392.473L261.678,392.225L261.566,392.021L261.428,391.819L261.327,391.594L261.295,391.143L261.315,390.75L261.226,390.396L260.853,390.066L260.424,389.994L259.954,390.048L259.5,390.025L259.122,389.712L259.036,389.314L259.125,388.863L259.433,388.043L259.452,387.569L259.29,387.112L259.021,386.741L258.712,386.568L258.308,386.729L258.057,386.741L257.907,386.504L257.838,386.291L257.637,385.957L257.569,385.755L257.604,385.201L257.821,384.759L258.092,384.346L258.278,383.88L258.245,383.415L258.015,382.952L257.646,382.559L254.488,380.926L253.621,380.635L252.05,380.3L251.782,380.322L251.628,380.452L251.47,380.54L251.18,380.432L250.906,380.271L250.787,380.257L250.645,380.279L250.302,380.524L249.329,380.765L249.033,381.135L249.142,381.353L249.439,381.709L249.813,382.066L250.378,382.369L250.435,382.521L250.444,382.712L250.543,382.907L250.697,383.003L251.044,383.074L251.16,383.178L251.174,383.445L251.083,383.846L250.9,384.171L250.628,384.251L250.692,384.744L250.591,385.021L250.11,385.5L248.848,385.282L248.492,385.332L247.654,385.732L247.318,385.966L246.913,386.328L244.598,387.104L243.942,387.526L243.631,387.859L243.484,388.18L243.456,388.536L243.5,388.972L243.402,389.233L243.144,389.597L242.647,390.127L241.502,390.104L241.132,389.982L240.923,389.857L240.589,389.597L240.37,389.51L240.226,389.51L239.806,389.574L239.607,389.574L239.236,389.395L238.528,388.826L238.151,388.727L237.739,388.653L237.021,388.275L236.628,388.15L236.379,388.035L235.959,387.707L235.71,387.577L235.501,387.526L235.158,387.512L234.947,387.446L234.784,387.345L234.504,387.104L234.302,387.011L234.155,386.988L233.651,387.011L233.25,386.932L232.529,386.588L231.85,386.459L231.721,386.328L231.621,386.19L231.457,386.111L230.675,386.423L230.551,386.668L230.497,386.661L230.438,386.546L230.292,386.436L230.25,386.481L230.163,386.677L229.968,386.786L229.78,386.802L229.664,386.879L229.679,387.179L229.374,387.076L229.237,387.004L229.102,386.895L228.832,387.076L228.125,387.664L227.981,387.832L227.78,388.137L226.797,388.058L226.424,388.195L226.403,388.391L226.571,388.811L226.5,388.891L226.307,388.979L226.3,389.181L226.356,389.401L226.353,389.552L225.935,389.849L225.523,390.048L225.294,390.3L225.439,390.758L225.12,390.86L224.695,391.078L224.322,391.331L224.162,391.544L224.086,391.834L223.902,392.217L223.677,392.575L223.473,392.771L223.167,392.915L222.314,392.952L221.718,392.334L220.882,390.735L220.331,390.185L220.235,389.96L220.264,389.792L220.466,389.422L220.521,389.233L220.39,388.653L220.02,388.355L219.538,388.123L219.059,387.767L218.233,386.473L217.865,386.205L217.362,386.073L216.953,386.088L216.058,386.386L215.579,386.37L215.301,386.431L215.147,386.641L214.879,387.534L214.643,387.803L213.979,388.282L213.866,388.42L213.573,388.884L213.41,388.956L213.235,388.972L213.099,389.036L212.97,389.646L212.75,390.048L212.444,390.359L212.119,390.445L211.784,390.468L211.121,390.735L210.72,390.735L210.316,390.598L209.895,390.38L209.493,390.112L209.151,389.814L208.319,388.703L207.952,388.405L206.692,387.846L206.305,387.497L205.932,386.656L206.263,386.046L206.848,385.435L207.231,384.606L207.226,384.129L207.09,383.301L207.178,382.827L207.497,382.654L207.993,382.674L208.382,382.617L208.388,382.211L208.425,381.659L208.564,381.105L208.605,380.612L208.345,380.257L208.301,380.372L208.139,380.627L208.1,380.438L207.971,380.097L207.926,379.922L207.8,379.589L207.641,379.646L207.524,379.871L207.536,380.024L207.37,379.879L207.131,379.466L206.982,379.371L206.753,379.291L206.902,379.16L207.329,378.963L207.38,378.718L207.354,378.572L207.306,378.427L207.289,378.202L207.395,377.541L207.39,377.323L207.29,377.104L207.13,376.996L206.974,376.938L206.894,376.886L206.875,376.576L207.001,376.422L207.163,376.306L207.38,375.755L207.652,375.667L207.936,375.617L208.104,375.346L208.066,375.152L207.85,374.758L207.85,374.664L207.993,374.511L208.037,374.288L208.018,374.04L207.975,373.822L207.908,373.647L207.819,373.495L207.745,373.399L207.717,373.38L207.666,373.364L207.569,373.35L207.489,373.3L207.48,373.177L207.532,373.06L207.593,372.972L207.624,372.88L207.561,372.537L207.637,372.318L207.751,372.101L207.837,371.891L207.792,371.78L207.673,371.673L207.574,371.555L207.588,371.432L207.723,371.359L207.87,371.41L207.999,371.475L208.09,371.475L208.269,371.33L208.4,371.25L208.469,371.127L208.425,370.582L208.379,370.344L208.284,370.126L208.111,369.944L208.063,370.306L207.912,370.547L207.673,370.648L207.353,370.582L207.409,370.379L207.459,369.967L207.462,369.783L207.529,369.703L207.643,369.618L207.675,369.522L207.497,369.442L207.416,369.37L207.335,369.24L207.22,368.984L206.936,368.58L206.977,368.455L207.091,368.294L207.114,368.148L206.897,368.064L206.563,367.977L206.304,367.816L206.06,367.634L205.775,367.461L205.412,367.381L205.31,367.038L205.298,366.305L205.108,366.03L204.862,365.804L204.665,365.544L204.604,365.166L204.682,364.94L204.944,364.563L204.976,364.33L204.888,364.128L204.422,363.72L203.916,363.016L203.767,362.608L203.766,362.15L203.616,362.216L203.358,362.282L203.13,362.26L203.076,362.051L203.104,361.753L203.011,361.657L202.493,361.68L202.091,361.768L201.896,361.737L201.689,361.578L201.57,361.367L201.424,361.206L201.13,361.165L200.814,361.329L200.608,361.68L200.485,362.107L200.432,362.514L199.57,363.169L199.457,363.284L199.342,363.276L199.097,363.074L199.004,362.929L198.876,362.521L198.797,362.363L198.638,362.245L198.093,361.978L197.913,361.933L197.864,361.7L198.158,360.576L198.203,360.198L198.061,359.958L197.895,359.885L197.704,359.862L197.49,359.755L197.374,359.617L197.189,359.306L197.06,359.16L195.872,358.294L195.494,357.866L195.039,357.155L194.781,356.399L194.358,355.578L194.082,355.165L193.797,354.926L195.553,353.937L196.241,353.232L196.569,352.295L196.691,351.438L196.694,351.012L196.569,350.619L196.21,350.184L195.826,349.893L195.492,349.557L195.285,349.014L195.288,348.136L195.749,346.521L195.901,345.665L195.856,345.2L195.098,343.429L194.895,343.116L194.606,342.921L193.794,342.63L193.543,342.42L193.346,342.157L193.177,341.867L193.481,341.751L193.571,341.488L193.428,341.214L191.51,340.503L191.245,340.45L191.283,339.536L191.231,339.106L190.988,338.185L190.943,337.742L191.067,337.379L191.456,337.147L191.606,337.009L191.663,336.777L191.683,336.521L191.725,336.303L191.877,336.085L192.278,335.694L192.392,335.513L192.411,335.157L192.256,335.031L192.045,334.981L191.902,334.858L191.853,334.634L191.892,334.488L191.983,334.336L192.097,334.081L191.869,334.068L191.535,334.001L191.222,333.863L191.064,333.623L190.938,333.324L190.53,332.963L190.372,332.346L190.729,332.512L191.182,332.593L191.625,332.534L192.511,332.222L192.949,332.141L193.262,332.31L194.13,333.087L194.358,333.202L194.524,332.957L194.632,332.622L194.785,332.512L195.167,332.6L195.578,332.606L195.982,332.491L196.341,332.244L196.828,331.575L197.124,331.315L197.952,331.14L198.327,330.938L198.632,330.675L198.795,330.393L198.875,330.204L198.983,330.06L199.088,329.949L199.158,329.846L199.239,329.812L199.384,329.773L199.501,329.701L199.501,329.563L199.358,329.376L199.301,329.273L199.284,329.143L199.39,328.38L199.497,328.002L199.648,327.678L199.648,327.669L199.692,327.283L199.637,326.985L199.485,326.745L199.244,326.55L199.114,326.55L199.005,326.646L198.87,326.695L198.667,326.55L198.704,326.44L198.752,325.802L198.991,324.953L199.01,324.733L198.948,324.438L198.929,324.241L198.981,323.798L199.369,322.665L199.487,321.655L199.572,321.314L200.26,319.841L200.586,318.321L200.848,317.646L201.372,317.073L201.421,316.84L201.421,316.122L202.027,316.21L202.578,316.39L203.127,316.436L203.729,316.122L204.462,315.337L204.805,315.142L205.352,314.98L205.592,314.866L205.775,314.655L205.822,314.553L205.838,314.442L205.822,314.335L205.775,314.226L205.69,314.176L205.618,314.124L205.565,314.06L205.53,313.965L205.59,313.949L205.775,313.927L206.951,314.167L207.433,314.371L207.952,314.82L209.858,317.596L210.243,318.031L215.444,321.865L216.115,322.511L216.682,323.617L217.447,324.37L218.123,325.409L218.307,325.054L218.622,323.843L218.8,323.5L219.354,322.977L219.585,322.622L219.783,321.839L219.933,321.495L220.264,321.169L220.488,321.09L220.695,321.09L220.867,321.053L221.095,320.712L221.428,320.521L221.585,320.364L221.748,319.914L221.723,319.033L221.8,318.635L222.027,318.409L222.36,318.395L223.6,318.582L224.459,318.597L224.865,318.532L225.603,318.287L225.943,318.227L226.344,318.314L226.654,318.256L228.753,318.292L229.322,318.401L230.312,318.329L230.597,318.364L232.357,319.07L232.535,319.07L232.915,318.998L233.073,319.013L233.493,319.216L234.241,319.693L234.72,319.841L235.557,319.861L237.948,319.514L240.33,319.723L241.117,319.527L242.282,318.845L242.691,318.669L243.694,318.46L248.8,318.256L248.554,317.08L248.225,315.736L248.228,315.118L248.53,314.553L249.786,313.048L250.186,312.796L250.681,313.014L250.746,313.697L250.464,315.148L250.335,317.089C258.956,317.089 267.576,317.096 276.197,317.096C284.82,317.096 293.444,317.103 302.067,317.103C310.848,317.103 319.627,317.115 328.408,317.115L329.205,317.115L329.209,317.123L329.229,317.123L329.235,317.131L329.279,317.131L329.281,317.123L329.286,317.123L329.287,317.115L329.293,317.115L329.293,317.08L329.314,316.979C330.335,311.22 331.482,305.482 332.537,299.729C332.524,299.64 332.51,299.551 332.496,299.462C332.43,299.389 332.364,299.316 332.298,299.244C330.649,298.093 328.989,296.96 327.341,295.809C327.22,295.584 327.1,295.358 326.981,295.133C326.093,286.511 325.154,277.893 324.252,269.272C323.378,260.908 322.498,252.545 321.622,244.181C321.173,239.893 320.726,235.604 320.279,231.316C319.348,222.769 318.426,214.22 317.487,205.673C316.538,197.034 315.592,188.393 314.645,179.753C313.699,171.132 312.764,162.51 311.832,153.888C310.907,145.332 309.98,136.775 309.064,128.218C308.405,122.06 307.715,115.905 307.032,109.75C315.842,109.736 324.651,109.743 333.461,109.73C336.8,109.725 340.139,109.729 343.478,109.729L343.482,109.735C345.575,111.168 347.666,112.604 349.759,114.035C356.543,118.909 363.347,123.755 370.148,128.603C377.06,133.527 383.982,138.434 390.901,143.348C397.966,148.366 405.043,153.365 412.123,158.361C419.127,163.305 426.14,168.239 433.16,173.159C440.089,178.015 447.018,182.869 453.951,187.716C458.046,190.579 462.144,193.437 466.245,196.289L466.507,196.734L466.892,198.141L466.935,198.621L466.674,201.019L466.217,202.994L466.201,203.421L466.261,203.959L466.412,204.242L466.696,204.357L467.168,204.417L467.604,204.41L468.417,204.234L468.854,204.228L469.332,204.357L469.615,204.593L470.051,205.354L470.37,205.759L470.719,206.014L471.604,206.289L472.433,206.43L472.812,206.537L473.175,206.777L473.937,206.9L474.742,207.33L476.064,208.339L476.479,208.962L476.602,209.74L476.587,211.375L476.79,211.695L479.237,213.728L479.673,213.932L480.116,213.96L480.486,213.907L480.82,213.932L481.142,214.178L481.336,214.628L481.408,215.033L481.569,215.309L482.02,215.324L482.244,215.216L482.593,214.889L482.884,214.804L483.123,214.838L483.297,214.948L483.457,215.086L483.667,215.216L484.961,215.674L485.266,215.709L485.804,215.469L486.646,214.678L487.117,214.368L487.553,214.288L487.931,214.388L488.286,214.605L489.55,215.609L490.313,216.43L490.967,217.358L491.795,218.893L492.042,219.123L492.354,219.238L492.849,219.355L493.246,219.508L493.995,219.914L494.396,220.009L494.613,220.023L496.495,220.395L497.618,220.439L503.262,221.621L505.869,222.769L507.054,223.72L507.394,223.88L508.142,224.105L508.462,224.258L508.752,224.534L508.833,224.831L508.455,229.211L508.478,230.055L508.737,230.845L508.848,230.976L508.955,231.04L509.065,231.128L509.152,231.316L509.139,231.456L509.027,231.884L509.021,232.094L509.204,232.494L509.464,232.812L509.684,233.163L509.741,233.641L509.535,234.133L509.161,234.434L508.723,234.674L508.339,235L508.157,235.39L508.049,236.236L507.962,236.606L507.511,237.069L507.236,237.242L507.133,237.439L506.973,237.867L506.675,238.34L506.487,238.723L506.516,239.119L506.858,239.609L507.229,239.975L507.634,240.285L508.069,240.533L509.021,240.946L510.234,242.137L510.715,242.442L510.925,242.53L511.223,242.572L511.753,242.553L513.414,242.147L513.422,242.147C518.83,241.086 524.237,240.03 529.646,238.974Z" style="fill:none;stroke:rgb(153,153,153);stroke-width:0.25px;"/>
    </g>
</svg>
