<?xml version="1.0" encoding="UTF-8" standalone="no"?>
<!DOCTYPE svg PUBLIC "-//W3C//DTD SVG 1.1//EN" "http://www.w3.org/Graphics/SVG/1.1/DTD/svg11.dtd">
<svg width="100%" height="100%" viewBox="0 0 1813 1209" version="1.1" xmlns="http://www.w3.org/2000/svg" xmlns:xlink="http://www.w3.org/1999/xlink" xml:space="preserve" xmlns:serif="http://www.serif.com/" style="fill-rule:evenodd;clip-rule:evenodd;stroke-linecap:round;stroke-linejoin:round;stroke-miterlimit:2;">
    <g transform="matrix(4.16667,0,0,4.16667,-593.075,-520.833)">
        <clipPath id="_clip1">
            <path d="M243.059,297.505L243.063,297.282L243.008,296.955L242.589,297.097L242.631,297.402L242.602,297.607L243.059,297.505ZM244.328,302.146L244.185,302.563L244.338,302.964L244.474,303.186L244.47,303.407L244.422,303.615L244.417,303.794L244.484,303.936L244.845,304.414L245.69,303.148L246.222,301.755L246.854,298.765L246.664,298.483L246.405,298.823L245.994,299.707L245.721,299.427L245.415,299.536L245.147,299.876L244.977,300.293L244.951,300.495L244.977,301.139L244.933,301.235L244.328,302.146ZM243.878,302.54L244.013,302.228L244.065,301.782L244.055,301.553L243.895,301.518L243.602,301.665L243.479,302.095L243.586,302.569L243.747,302.711L243.878,302.54ZM245.563,304.438L245.63,304.438L246.382,303.378L246.729,302.738L246.988,302.443L247.336,302.118L247.582,301.717L247.415,301.537L247.176,301.584L246.385,302.719L245.667,304.06L245.563,304.438ZM465.464,182.613L470.115,182.606L474.766,182.606L479.419,182.598L488.72,182.598L485.074,180.129L481.428,177.661L477.782,175.182L474.135,172.706L471.594,171.058L468.072,168.783L464.55,166.499L461.029,164.209L457.509,161.925L453.351,159.216L449.195,156.51L445.037,153.804L440.881,151.09L436.723,148.375L432.569,145.652L428.412,142.933L424.253,140.209L420.097,137.49L415.94,134.75L411.782,132.024L407.625,129.287L407.627,129.614L407.627,131.95L407.631,133.795L407.633,135.967L407.637,138.399L407.64,140.996L407.643,143.674L407.644,146.352L407.647,148.938L407.65,151.355L407.652,153.512L407.654,155.347L407.656,156.755L407.656,157.66L407.658,157.979L407.658,159.032L407.514,159.333L407.104,159.454L337.616,159.454L337.616,216.956L337.532,217.735L337.251,218.098L335.111,218.683L330.504,220.886L329.747,221.116L326.209,221.62L324.926,222.064L323.608,222.979L321.345,224.543L318.715,226.352L316.612,227.803L316.211,228.325L314.415,230.852L313.733,232.299L313.456,233.819L313.677,235.265L314.698,238.179L314.973,239.64L315.665,250.928L316.382,262.169L316.612,265.795L313.536,265.795L312.667,265.803L274.874,265.803L267.664,265.81L233.777,265.81L233.577,265.997L233.212,267.939L232.81,270.091L231.916,272.656L231.777,273.367L231.285,275.398L231.207,276.064L231.732,278.478L231.94,278.237L232.12,277.741L232.319,276.801L232.34,276.525L232.327,276.385L232.174,276.021L231.969,275.791L231.873,275.621L231.887,275.43L232.058,275.25L232.548,275.102L232.749,274.969L232.834,274.782L232.879,274.057L233.009,273.238L232.986,272.855L232.749,272.974L232.592,272.574L232.713,272.307L232.923,272.13L233.825,270.903L234.371,269.881L234.657,269.702L235.056,270.208L235.324,270.837L235.43,271.199L235.474,271.512L235.587,271.823L236.088,272.514L236.203,272.738L236.278,273.055L236.45,273.265L236.642,273.426L236.777,273.581L236.882,273.967L236.938,274.332L237.059,274.672L237.364,274.969L237.426,274.879L237.56,274.777L237.651,274.665L237.69,275.007L237.779,275.355L237.924,275.682L238.144,275.955L238.274,276.209L238.511,277.262L238.862,277.645L238.938,277.823L238.932,278.237L239.013,278.411L239.594,278.876L239.834,279.143L239.932,279.477L239.962,279.648L240.083,279.826L240.087,280.019L240.017,280.078L239.886,280.115L239.784,280.221L239.802,280.479L239.962,280.635L240.619,280.977L240.884,281.168L241.079,281.437L241.351,281.953L241.522,282.154L242.054,282.489L242.325,282.732L242.54,283.082L242.83,282.236L242.665,280.078L242.814,279.105L243.259,279.29L243.399,279.397L243.701,280.019L243.542,280.166L243.832,280.532L244.171,280.598L244.912,280.479L245.347,280.532L245.068,280.664L244.117,280.931L244.117,281.102L244.547,281.391L244.907,281.219L244.998,281.621L245.026,282.178L245.199,282.451L245.506,282.576L245.714,282.889L246.505,284.958L246.594,285.388L246.731,285.653L246.791,285.75L246.831,285.867L246.746,285.929L246.627,285.975L246.568,286.058L246.623,286.271L246.762,286.41L246.948,286.545L247.142,286.744L247.732,288.214L248.068,288.42L248.152,288.51L248.212,288.726L248.312,288.933L248.511,289.029L248.811,289.045L248.939,289.111L249.541,290.039L249.682,290.379L249.737,290.779L249.664,291.217L249.485,291.662L249.019,292.379L248.897,292.491L248.761,292.543L248.612,292.559L248.446,292.553L248.708,293.15L249.344,294.281L249.437,294.822L249.258,295.486L248.909,296.028L247.67,297.282L247.545,297.475L247.429,297.719L247.35,298.017L247.36,298.283L247.512,298.38L247.86,298.172L247.912,297.996L248.067,297.669L248.332,297.482L248.718,297.719L248.815,298.04L248.515,298.578L248.576,298.936L248.687,298.819L249.019,298.632L249.035,298.862L248.991,299.063L248.886,299.241L248.718,299.389L248.869,299.536L248.974,299.707L249.026,299.908L249.019,300.145L248.922,300.277L248.552,300.679L248.511,300.761L248.38,300.835L248.312,300.998L248.289,301.442L248.242,301.649L248.127,301.768L247.985,301.86L247.86,301.977L245.85,305.018L245.539,305.284L245.26,305.455L245.057,305.685L244.977,306.143L244.863,306.521L244.314,307.108L244.117,307.451L244.089,307.643L244.083,308.182L244.117,308.361L244.156,308.488L244.148,308.547L244.162,308.591L244.26,308.657L244.371,308.688L244.514,308.68L244.638,308.643L244.691,308.574L244.74,308.371L244.921,307.946L244.912,307.813L244.81,307.553L244.852,307.292L244.977,307.042L245.122,306.833L245.417,306.5L246.27,305.791L246.568,305.626L245.708,307.451L246.309,306.969L247.477,305.693L247.586,305.697L247.648,305.615L247.787,305.626L247.926,305.708L247.989,305.856L247.946,306.005L247.759,306.302L247.639,306.729L247.142,307.589L246.385,308.52L245.366,309.111L244.19,309.28L242.97,308.948L242.683,309.297L242.921,309.624L243.328,309.979L243.542,310.4L243.611,310.793L243.962,311.728L244.117,311.989L244.457,312.188L245.278,312.425L245.636,312.664L245.814,312.752L246.022,312.773L246.196,312.817L246.268,312.976L246.356,313.02L246.751,313.389L247.992,314.836L248.913,316.364L249.633,318.097L250.453,321.153L250.487,321.756L250.298,322.282L250.66,323.177L251.157,325.905L252.239,328.304L252.474,329.091L253.19,336.624L253.424,340.604L253.061,344.121L252.901,347.027L252.273,349.712L250.305,355.889L250.01,356.298L249.885,356.831L248.089,360.732L247.082,362.163L246.725,362.883L246.416,364.358L245.966,365.091L244.284,369.386L244.117,370.342L244.12,372.679L243.895,373.248L243.72,373.575L243.542,374.667L242.961,375.777L242.814,376.163L242.606,377.587L242.814,381.962L242.855,383.885L242.54,387.54L242.555,387.584L243,386.724L243.207,385.528L243.256,383.162L243.381,382.912L243.671,381.954L244.035,381.08L244.129,379.61L244.281,379.173L244.587,378.908L245.362,378.722L245.69,378.506L245.822,378.284L245.912,378.031L246.772,374.346L246.882,373.479L247.041,373.071L247.331,372.663L247.719,372.284L248.167,372.012L248.644,371.914L249.339,372.048L249.574,372.063L249.814,372.026L250.028,371.922L250.645,371.484L250.887,371.372L251.14,371.329L251.404,371.381L251.597,371.5L251.753,371.656L252.006,372.035L252.363,372.413L252.788,372.619L253.262,372.67L253.764,372.604L253.914,372.491L254.063,372.417L254.22,372.39L254.395,372.433L254.665,372.537L254.798,372.553L254.954,372.522L255.785,372.151L256.083,372.113L256.816,372.292L256.993,372.292L257.51,372.203L257.846,372.219L258.795,372.53L259.478,372.569L259.656,372.619L260.151,372.857L260.48,372.944L260.803,372.924L261.114,372.818L261.403,372.635L261.867,372.21L262.117,372.054L262.436,372.003L263.339,372.187L263.648,372.159L263.898,372.035L264.101,371.847L264.61,371.114L264.871,370.885L265.177,370.743L265.495,370.771L265.692,370.936L265.813,371.158L265.956,371.357L266.215,371.469L266.524,371.462L266.82,371.387L267.704,371.024L268.032,370.95L268.707,370.928L269.701,371.083L270.04,371.068L272.294,370.72L272.738,370.549L272.875,370.46L272.964,370.335L272.972,370.171L272.903,370.038L272.563,369.703L272.438,369.415L272.479,369.134L272.663,368.92L272.961,368.837L273.266,368.927L273.455,369.134L273.62,369.386L273.839,369.594L273.99,369.646L274.146,369.63L274.295,369.57L274.426,369.466L274.528,369.333L274.576,369.191L274.642,368.888L274.777,368.689L274.993,368.548L275.462,368.347L275.701,368.474L275.976,368.764L276.154,369.118L276.373,369.393L276.76,369.453L277.4,369.305L280.988,369.563L281.231,369.535L281.94,369.348L282.148,369.341L282.333,369.393L282.924,369.675L283.155,369.711L283.388,369.703L284.267,369.461L284.492,369.453L285.343,369.63L285.57,369.63L285.795,369.609L286.014,369.548L286.222,369.453L286.772,369.118L286.975,369.044L287.386,369.014L288.717,369.542L288.879,369.652L288.967,369.816L288.958,370.053L288.849,370.468L288.883,370.631L289.08,370.72L289.886,370.654L290.089,370.752L290.16,370.92L290.188,371.306L290.296,371.478L290.515,371.581L291.02,371.61L291.259,371.656L291.429,371.759L291.785,372.226L291.935,372.366L292.433,372.717L293.146,373.547L294.394,374.682L295.09,375.081L295.233,375.214L295.6,375.652L295.787,375.777L296.199,375.941L296.393,376.043L296.519,376.195L296.533,376.343L296.401,376.674L296.362,376.862L296.405,377.001L296.612,377.275L296.704,377.47L296.71,377.653L296.603,378.047L296.683,378.391L297.041,378.589L297.863,378.827L298.037,378.929L298.367,379.182L298.507,379.329L298.61,379.509L298.788,380.094L298.888,380.301L299.021,380.487L299.187,380.65L299.377,380.769L299.555,380.813L299.725,380.799L299.891,380.737L300.234,380.539L300.573,380.28L300.717,380.125L301.089,379.583L301.248,379.427L301.426,379.322L301.611,379.271L301.806,379.264L302.007,379.286L301.963,379.568L301.751,380.219L301.819,380.441L301.917,380.511L302.134,380.59L302.23,380.659L302.253,380.695L302.285,380.776L302.313,380.807L302.365,380.834L302.492,380.886L302.551,380.917L302.688,381.041L302.735,381.064L302.881,381.096L303.019,381.057L303.594,380.746L303.715,380.725L304.109,380.725L304.183,380.71L304.342,380.663L304.979,380.39L306.085,380.152L306.371,380.034L306.487,379.996L306.607,379.996L306.747,380.02L306.785,380.323L306.433,380.983L306.395,381.326L306.607,381.466L307.373,381.17L307.69,381.178L307.793,381.295L307.963,381.584L308.066,381.711L308.645,382.103L308.771,382.259L308.824,382.422L308.845,382.808L308.873,382.972L309.166,383.705L309.301,383.927L309.459,384.137L309.644,384.327L310.174,384.737L310.296,384.897L310.342,385.077L310.33,385.264L310.249,385.634L310.249,385.811L310.294,385.959L310.385,386.086L310.764,386.531L310.95,386.862L311.053,387.236L311.058,387.658L311.012,387.837L310.941,388.021L310.895,388.207L310.922,388.391L311.031,388.539L311.178,388.652L311.5,388.844L311.667,388.971L311.81,389.127L312.048,389.476L312.138,389.654L312.162,389.815L312.125,389.971L311.807,390.469L311.729,390.645L311.708,390.839L311.738,391.022L311.937,391.558L312.252,391.551L312.883,391.44L313.189,391.455L313.34,391.521L313.728,391.795L313.882,391.861L314.366,391.989L314.628,392.146L314.853,392.353L315.003,392.605L315.053,392.914L314.936,393.725L314.938,393.916L314.977,394.103L315.051,394.303L315.173,394.392L315.815,394.555L316.116,394.517L316.434,394.325L316.711,394.103L317.02,393.924L317.35,393.881L317.681,394.037L317.814,394.197L317.88,394.384L317.964,394.984L318.033,395.132L318.244,395.409L318.339,395.569L318.378,395.74L318.382,396.466L318.461,396.816L318.635,397.149L318.89,397.425L320.14,398.278L320.408,398.56L320.545,398.915L320.431,399.211L320.083,399.27L319.366,399.195L319.151,399.36L319.277,399.628L319.758,400.108L319.94,400.249L320.127,400.318L320.329,400.324L320.777,400.228L320.999,400.228L321.21,400.286L321.402,400.42L321.512,400.567L321.564,400.739L321.57,400.918L321.456,401.464L321.47,401.637L321.534,401.83L321.559,401.889L322.087,402.06L322.875,402.817L323.438,403.052L323.669,403.024L324.333,402.821L324.657,402.771L324.854,402.845L325.018,403.009L325.291,403.352L326.447,404.031L326.813,404.313L327.037,404.439L327.529,404.56L327.752,404.677L327.934,404.884L328.033,405.099L328.523,406.821L328.535,407.052L328.824,407.228L329.534,408.065L329.903,408.377L331.224,409.001L332.389,409.913L332.753,410.082L333.216,410.164L333.668,410.104L334.573,409.785L335.02,409.703L335.339,409.875L336.226,410.669L336.458,410.787L336.628,410.536L336.738,410.194L336.895,410.082L337.286,410.171L337.705,410.18L338.117,410.062L338.484,409.808L338.981,409.126L339.282,408.86L340.128,408.681L340.512,408.474L340.824,408.206L340.989,407.917L341.071,407.726L341.181,407.577L341.289,407.465L341.36,407.359L341.443,407.324L341.591,407.285L341.71,407.212L341.71,407.071L341.564,406.881L341.506,406.774L341.489,406.642L341.597,405.863L341.707,405.477L341.861,405.146L341.861,405.137L341.906,404.743L341.85,404.439L341.694,404.193L341.448,403.995L341.315,403.995L341.204,404.092L341.066,404.143L340.859,403.995L340.896,403.882L340.946,403.231L341.19,402.364L341.209,402.14L341.146,401.838L341.126,401.637L341.18,401.184L341.576,400.027L341.696,398.997L341.783,398.648L342.486,397.144L342.818,395.593L343.086,394.902L343.62,394.317L343.671,394.079L343.671,393.347L344.29,393.436L344.852,393.62L345.413,393.665L346.027,393.347L346.776,392.545L347.126,392.344L347.685,392.182L347.93,392.063L348.117,391.849L348.165,391.744L348.182,391.632L348.165,391.521L348.117,391.409L348.029,391.358L347.957,391.308L347.902,391.24L347.866,391.143L347.928,391.128L348.117,391.105L349.317,391.35L349.81,391.558L350.34,392.017L352.286,394.852L352.679,395.296L357.989,399.211L358.675,399.871L359.253,401L360.035,401.769L360.725,402.83L360.913,402.467L361.234,401.23L361.416,400.88L361.982,400.346L362.219,399.982L362.421,399.183L362.572,398.832L362.911,398.501L363.141,398.419L363.352,398.419L363.527,398.381L363.76,398.032L364.1,397.838L364.26,397.678L364.427,397.218L364.401,396.318L364.48,395.912L364.711,395.682L365.051,395.666L366.318,395.858L367.195,395.873L367.609,395.808L368.363,395.557L368.711,395.495L369.119,395.585L369.436,395.525L371.579,395.562L372.16,395.675L373.171,395.601L373.463,395.637L375.26,396.356L375.441,396.356L375.829,396.282L375.991,396.297L376.419,396.504L377.184,396.993L377.673,397.144L378.527,397.165L380.969,396.809L383.4,397.023L384.204,396.824L385.394,396.126L385.812,395.947L386.836,395.733L392.05,395.525L391.797,394.325L391.461,392.953L391.465,392.322L391.773,391.744L393.057,390.208L393.465,389.95L393.971,390.172L394.036,390.871L393.749,392.353L393.617,394.332L409.271,394.332L412.081,394.341L428.528,394.341L432.099,394.348L449.813,394.348L453.129,394.354L468.016,394.354L470.834,394.36L474.149,394.36L474.155,394.368L474.175,394.368L474.182,394.377L474.227,394.377L474.228,394.368L474.233,394.368L474.234,394.36L474.24,394.36L474.24,394.325L474.263,394.221L474.281,394.11L474.301,394.005L474.322,393.896L474.715,391.795L475.11,389.688L475.505,387.584L475.899,385.478L476.281,383.424L476.668,381.368L477.05,379.307L477.434,377.255L477.552,376.608L477.532,376.468L477.51,376.334L477.409,376.223L477.309,376.112L476.467,375.524L475.606,374.932L474.777,374.362L473.846,373.715L473.074,373.181L472.248,372.604L472.064,372.264L471.88,371.914L471.789,371.032L471.581,369.067L471.371,367.103L471.164,365.137L470.956,363.164L470.746,361.198L470.539,359.227L470.332,357.254L470.125,355.28L469.914,353.309L469.5,349.361L469.29,347.382L469.084,345.411L468.666,341.451L468.46,339.471L468.246,337.438L468.033,335.399L467.816,333.36L467.603,331.321L467.392,329.282L467.175,327.235L466.961,325.196L466.747,323.149L466.534,321.102L466.32,319.056L466.105,317.009L465.893,314.962L465.758,313.671L465.625,312.38L465.489,311.091L465.354,309.802L465.035,306.751L464.733,303.98L464.435,301.206L464.132,298.431L463.83,295.66L463.528,292.877L463.226,290.098L462.924,287.313L462.623,284.533L462.355,282.127L462.213,280.818L461.897,277.941L461.58,275.063L461.437,273.753L461.141,271.052L460.844,268.353L460.546,265.646L460.25,262.941L459.953,260.231L459.657,257.518L459.36,254.804L459.063,252.09L458.767,249.372L458.472,246.647L458.174,243.928L457.877,241.204L457.581,238.475L457.284,235.746L456.987,233.012L456.692,230.282L456.395,227.538L456.097,224.801L455.802,222.059L455.504,219.314L455.208,216.57L454.91,213.82L454.615,211.06L454.317,208.309L454.168,206.893L453.832,203.785L453.499,200.67L453.347,199.254L453.134,197.261L452.93,195.437L452.726,193.612L452.524,191.779L452.322,189.947L452.117,188.115L451.917,186.283L451.713,184.453L451.511,182.621L456.161,182.613L465.464,182.613Z"/>
        </clipPath>
        <g clip-path="url(#_clip1)">
            <rect x="142.338" y="125" width="435" height="290" style="fill:rgb(11,98,51);fill-rule:nonzero;"/>
            <path d="M338.531,238.911L359.837,223.43L381.145,238.911L373.006,213.862L394.313,198.382L367.977,198.382L359.838,173.333L351.699,198.382L325.362,198.382L346.669,213.862L338.531,238.911ZM450.457,210.056C450.202,259.889 409.73,300.208 359.838,300.208C309.945,300.208 269.474,259.889 269.219,210.056C267.246,217.624 266.192,225.564 266.192,233.75C266.192,285.47 308.118,327.396 359.838,327.396C411.557,327.396 453.483,285.47 453.483,233.75C453.483,225.564 452.431,217.624 450.457,210.056Z" style="fill:rgb(255,197,12);fill-rule:nonzero;"/>
        </g>
    </g>
    <g transform="matrix(4.16667,0,0,4.16667,-593.075,-520.833)">
        <path d="M243.059,297.505L243.063,297.282L243.008,296.955L242.589,297.097L242.631,297.402L242.602,297.607L243.059,297.505ZM244.328,302.146L244.185,302.563L244.338,302.964L244.474,303.186L244.47,303.407L244.422,303.615L244.417,303.794L244.484,303.936L244.845,304.414L245.69,303.148L246.222,301.755L246.854,298.765L246.664,298.483L246.405,298.823L245.994,299.707L245.721,299.427L245.415,299.536L245.147,299.876L244.977,300.293L244.951,300.495L244.977,301.139L244.933,301.235L244.328,302.146ZM243.878,302.54L244.013,302.228L244.065,301.782L244.055,301.553L243.895,301.518L243.602,301.665L243.479,302.095L243.586,302.569L243.747,302.711L243.878,302.54ZM245.563,304.438L245.63,304.438L246.382,303.378L246.729,302.738L246.988,302.443L247.336,302.118L247.582,301.717L247.415,301.537L247.176,301.584L246.385,302.719L245.667,304.06L245.563,304.438ZM465.464,182.613L470.115,182.606L474.766,182.606L479.419,182.598L488.72,182.598L485.074,180.129L481.428,177.661L477.782,175.182L474.135,172.706L471.594,171.058L468.072,168.783L464.55,166.499L461.029,164.209L457.509,161.925L453.351,159.216L449.195,156.51L445.037,153.804L440.881,151.09L436.723,148.375L432.569,145.652L428.412,142.933L424.253,140.209L420.097,137.49L415.94,134.75L411.782,132.024L407.625,129.287L407.627,129.614L407.627,131.95L407.631,133.795L407.633,135.967L407.637,138.399L407.64,140.996L407.643,143.674L407.644,146.352L407.647,148.938L407.65,151.355L407.652,153.512L407.654,155.347L407.656,156.755L407.656,157.66L407.658,157.979L407.658,159.032L407.514,159.333L407.104,159.454L337.616,159.454L337.616,216.956L337.532,217.735L337.251,218.098L335.111,218.683L330.504,220.886L329.747,221.116L326.209,221.62L324.926,222.064L323.608,222.979L321.345,224.543L318.715,226.352L316.612,227.803L316.211,228.325L314.415,230.852L313.733,232.299L313.456,233.819L313.677,235.265L314.698,238.179L314.973,239.64L315.665,250.928L316.382,262.169L316.612,265.795L313.536,265.795L312.667,265.803L274.874,265.803L267.664,265.81L233.777,265.81L233.577,265.997L233.212,267.939L232.81,270.091L231.916,272.656L231.777,273.367L231.285,275.398L231.207,276.064L231.732,278.478L231.94,278.237L232.12,277.741L232.319,276.801L232.34,276.525L232.327,276.385L232.174,276.021L231.969,275.791L231.873,275.621L231.887,275.43L232.058,275.25L232.548,275.102L232.749,274.969L232.834,274.782L232.879,274.057L233.009,273.238L232.986,272.855L232.749,272.974L232.592,272.574L232.713,272.307L232.923,272.13L233.825,270.903L234.371,269.881L234.657,269.702L235.056,270.208L235.324,270.837L235.43,271.199L235.474,271.512L235.587,271.823L236.088,272.514L236.203,272.738L236.278,273.055L236.45,273.265L236.642,273.426L236.777,273.581L236.882,273.967L236.938,274.332L237.059,274.672L237.364,274.969L237.426,274.879L237.56,274.777L237.651,274.665L237.69,275.007L237.779,275.355L237.924,275.682L238.144,275.955L238.274,276.209L238.511,277.262L238.862,277.645L238.938,277.823L238.932,278.237L239.013,278.411L239.594,278.876L239.834,279.143L239.932,279.477L239.962,279.648L240.083,279.826L240.087,280.019L240.017,280.078L239.886,280.115L239.784,280.221L239.802,280.479L239.962,280.635L240.619,280.977L240.884,281.168L241.079,281.437L241.351,281.953L241.522,282.154L242.054,282.489L242.325,282.732L242.54,283.082L242.83,282.236L242.665,280.078L242.814,279.105L243.259,279.29L243.399,279.397L243.701,280.019L243.542,280.166L243.832,280.532L244.171,280.598L244.912,280.479L245.347,280.532L245.068,280.664L244.117,280.931L244.117,281.102L244.547,281.391L244.907,281.219L244.998,281.621L245.026,282.178L245.199,282.451L245.506,282.576L245.714,282.889L246.505,284.958L246.594,285.388L246.731,285.653L246.791,285.75L246.831,285.867L246.746,285.929L246.627,285.975L246.568,286.058L246.623,286.271L246.762,286.41L246.948,286.545L247.142,286.744L247.732,288.214L248.068,288.42L248.152,288.51L248.212,288.726L248.312,288.933L248.511,289.029L248.811,289.045L248.939,289.111L249.541,290.039L249.682,290.379L249.737,290.779L249.664,291.217L249.485,291.662L249.019,292.379L248.897,292.491L248.761,292.543L248.612,292.559L248.446,292.553L248.708,293.15L249.344,294.281L249.437,294.822L249.258,295.486L248.909,296.028L247.67,297.282L247.545,297.475L247.429,297.719L247.35,298.017L247.36,298.283L247.512,298.38L247.86,298.172L247.912,297.996L248.067,297.669L248.332,297.482L248.718,297.719L248.815,298.04L248.515,298.578L248.576,298.936L248.687,298.819L249.019,298.632L249.035,298.862L248.991,299.063L248.886,299.241L248.718,299.389L248.869,299.536L248.974,299.707L249.026,299.908L249.019,300.145L248.922,300.277L248.552,300.679L248.511,300.761L248.38,300.835L248.312,300.998L248.289,301.442L248.242,301.649L248.127,301.768L247.985,301.86L247.86,301.977L245.85,305.018L245.539,305.284L245.26,305.455L245.057,305.685L244.977,306.143L244.863,306.521L244.314,307.108L244.117,307.451L244.089,307.643L244.083,308.182L244.117,308.361L244.156,308.488L244.148,308.547L244.162,308.591L244.26,308.657L244.371,308.688L244.514,308.68L244.638,308.643L244.691,308.574L244.74,308.371L244.921,307.946L244.912,307.813L244.81,307.553L244.852,307.292L244.977,307.042L245.122,306.833L245.417,306.5L246.27,305.791L246.568,305.626L245.708,307.451L246.309,306.969L247.477,305.693L247.586,305.697L247.648,305.615L247.787,305.626L247.926,305.708L247.989,305.856L247.946,306.005L247.759,306.302L247.639,306.729L247.142,307.589L246.385,308.52L245.366,309.111L244.19,309.28L242.97,308.948L242.683,309.297L242.921,309.624L243.328,309.979L243.542,310.4L243.611,310.793L243.962,311.728L244.117,311.989L244.457,312.188L245.278,312.425L245.636,312.664L245.814,312.752L246.022,312.773L246.196,312.817L246.268,312.976L246.356,313.02L246.751,313.389L247.992,314.836L248.913,316.364L249.633,318.097L250.453,321.153L250.487,321.756L250.298,322.282L250.66,323.177L251.157,325.905L252.239,328.304L252.474,329.091L253.19,336.624L253.424,340.604L253.061,344.121L252.901,347.027L252.273,349.712L250.305,355.889L250.01,356.298L249.885,356.831L248.089,360.732L247.082,362.163L246.725,362.883L246.416,364.358L245.966,365.091L244.284,369.386L244.117,370.342L244.12,372.679L243.895,373.248L243.72,373.575L243.542,374.667L242.961,375.777L242.814,376.163L242.606,377.587L242.814,381.962L242.855,383.885L242.54,387.54L242.555,387.584L243,386.724L243.207,385.528L243.256,383.162L243.381,382.912L243.671,381.954L244.035,381.08L244.129,379.61L244.281,379.173L244.587,378.908L245.362,378.722L245.69,378.506L245.822,378.284L245.912,378.031L246.772,374.346L246.882,373.479L247.041,373.071L247.331,372.663L247.719,372.284L248.167,372.012L248.644,371.914L249.339,372.048L249.574,372.063L249.814,372.026L250.028,371.922L250.645,371.484L250.887,371.372L251.14,371.329L251.404,371.381L251.597,371.5L251.753,371.656L252.006,372.035L252.363,372.413L252.788,372.619L253.262,372.67L253.764,372.604L253.914,372.491L254.063,372.417L254.22,372.39L254.395,372.433L254.665,372.537L254.798,372.553L254.954,372.522L255.785,372.151L256.083,372.113L256.816,372.292L256.993,372.292L257.51,372.203L257.846,372.219L258.795,372.53L259.478,372.569L259.656,372.619L260.151,372.857L260.48,372.944L260.803,372.924L261.114,372.818L261.403,372.635L261.867,372.21L262.117,372.054L262.436,372.003L263.339,372.187L263.648,372.159L263.898,372.035L264.101,371.847L264.61,371.114L264.871,370.885L265.177,370.743L265.495,370.771L265.692,370.936L265.813,371.158L265.956,371.357L266.215,371.469L266.524,371.462L266.82,371.387L267.704,371.024L268.032,370.95L268.707,370.928L269.701,371.083L270.04,371.068L272.294,370.72L272.738,370.549L272.875,370.46L272.964,370.335L272.972,370.171L272.903,370.038L272.563,369.703L272.438,369.415L272.479,369.134L272.663,368.92L272.961,368.837L273.266,368.927L273.455,369.134L273.62,369.386L273.839,369.594L273.99,369.646L274.146,369.63L274.295,369.57L274.426,369.466L274.528,369.333L274.576,369.191L274.642,368.888L274.777,368.689L274.993,368.548L275.462,368.347L275.701,368.474L275.976,368.764L276.154,369.118L276.373,369.393L276.76,369.453L277.4,369.305L280.988,369.563L281.231,369.535L281.94,369.348L282.148,369.341L282.333,369.393L282.924,369.675L283.155,369.711L283.388,369.703L284.267,369.461L284.492,369.453L285.343,369.63L285.57,369.63L285.795,369.609L286.014,369.548L286.222,369.453L286.772,369.118L286.975,369.044L287.386,369.014L288.717,369.542L288.879,369.652L288.967,369.816L288.958,370.053L288.849,370.468L288.883,370.631L289.08,370.72L289.886,370.654L290.089,370.752L290.16,370.92L290.188,371.306L290.296,371.478L290.515,371.581L291.02,371.61L291.259,371.656L291.429,371.759L291.785,372.226L291.935,372.366L292.433,372.717L293.146,373.547L294.394,374.682L295.09,375.081L295.233,375.214L295.6,375.652L295.787,375.777L296.199,375.941L296.393,376.043L296.519,376.195L296.533,376.343L296.401,376.674L296.362,376.862L296.405,377.001L296.612,377.275L296.704,377.47L296.71,377.653L296.603,378.047L296.683,378.391L297.041,378.589L297.863,378.827L298.037,378.929L298.367,379.182L298.507,379.329L298.61,379.509L298.788,380.094L298.888,380.301L299.021,380.487L299.187,380.65L299.377,380.769L299.555,380.813L299.725,380.799L299.891,380.737L300.234,380.539L300.573,380.28L300.717,380.125L301.089,379.583L301.248,379.427L301.426,379.322L301.611,379.271L301.806,379.264L302.007,379.286L301.963,379.568L301.751,380.219L301.819,380.441L301.917,380.511L302.134,380.59L302.23,380.659L302.253,380.695L302.285,380.776L302.313,380.807L302.365,380.834L302.492,380.886L302.551,380.917L302.688,381.041L302.735,381.064L302.881,381.096L303.019,381.057L303.594,380.746L303.715,380.725L304.109,380.725L304.183,380.71L304.342,380.663L304.979,380.39L306.085,380.152L306.371,380.034L306.487,379.996L306.607,379.996L306.747,380.02L306.785,380.323L306.433,380.983L306.395,381.326L306.607,381.466L307.373,381.17L307.69,381.178L307.793,381.295L307.963,381.584L308.066,381.711L308.645,382.103L308.771,382.259L308.824,382.422L308.845,382.808L308.873,382.972L309.166,383.705L309.301,383.927L309.459,384.137L309.644,384.327L310.174,384.737L310.296,384.897L310.342,385.077L310.33,385.264L310.249,385.634L310.249,385.811L310.294,385.959L310.385,386.086L310.764,386.531L310.95,386.862L311.053,387.236L311.058,387.658L311.012,387.837L310.941,388.021L310.895,388.207L310.922,388.391L311.031,388.539L311.178,388.652L311.5,388.844L311.667,388.971L311.81,389.127L312.048,389.476L312.138,389.654L312.162,389.815L312.125,389.971L311.807,390.469L311.729,390.645L311.708,390.839L311.738,391.022L311.937,391.558L312.252,391.551L312.883,391.44L313.189,391.455L313.34,391.521L313.728,391.795L313.882,391.861L314.366,391.989L314.628,392.146L314.853,392.353L315.003,392.605L315.053,392.914L314.936,393.725L314.938,393.916L314.977,394.103L315.051,394.303L315.173,394.392L315.815,394.555L316.116,394.517L316.434,394.325L316.711,394.103L317.02,393.924L317.35,393.881L317.681,394.037L317.814,394.197L317.88,394.384L317.964,394.984L318.033,395.132L318.244,395.409L318.339,395.569L318.378,395.74L318.382,396.466L318.461,396.816L318.635,397.149L318.89,397.425L320.14,398.278L320.408,398.56L320.545,398.915L320.431,399.211L320.083,399.27L319.366,399.195L319.151,399.36L319.277,399.628L319.758,400.108L319.94,400.249L320.127,400.318L320.329,400.324L320.777,400.228L320.999,400.228L321.21,400.286L321.402,400.42L321.512,400.567L321.564,400.739L321.57,400.918L321.456,401.464L321.47,401.637L321.534,401.83L321.559,401.889L322.087,402.06L322.875,402.817L323.438,403.052L323.669,403.024L324.333,402.821L324.657,402.771L324.854,402.845L325.018,403.009L325.291,403.352L326.447,404.031L326.813,404.313L327.037,404.439L327.529,404.56L327.752,404.677L327.934,404.884L328.033,405.099L328.523,406.821L328.535,407.052L328.824,407.228L329.534,408.065L329.903,408.377L331.224,409.001L332.389,409.913L332.753,410.082L333.216,410.164L333.668,410.104L334.573,409.785L335.02,409.703L335.339,409.875L336.226,410.669L336.458,410.787L336.628,410.536L336.738,410.194L336.895,410.082L337.286,410.171L337.705,410.18L338.117,410.062L338.484,409.808L338.981,409.126L339.282,408.86L340.128,408.681L340.512,408.474L340.824,408.206L340.989,407.917L341.071,407.726L341.181,407.577L341.289,407.465L341.36,407.359L341.443,407.324L341.591,407.285L341.71,407.212L341.71,407.071L341.564,406.881L341.506,406.774L341.489,406.642L341.597,405.863L341.707,405.477L341.861,405.146L341.861,405.137L341.906,404.743L341.85,404.439L341.694,404.193L341.448,403.995L341.315,403.995L341.204,404.092L341.066,404.143L340.859,403.995L340.896,403.882L340.946,403.231L341.19,402.364L341.209,402.14L341.146,401.838L341.126,401.637L341.18,401.184L341.576,400.027L341.696,398.997L341.783,398.648L342.486,397.144L342.818,395.593L343.086,394.902L343.62,394.317L343.671,394.079L343.671,393.347L344.29,393.436L344.852,393.62L345.413,393.665L346.027,393.347L346.776,392.545L347.126,392.344L347.685,392.182L347.93,392.063L348.117,391.849L348.165,391.744L348.182,391.632L348.165,391.521L348.117,391.409L348.029,391.358L347.957,391.308L347.902,391.24L347.866,391.143L347.928,391.128L348.117,391.105L349.317,391.35L349.81,391.558L350.34,392.017L352.286,394.852L352.679,395.296L357.989,399.211L358.675,399.871L359.253,401L360.035,401.769L360.725,402.83L360.913,402.467L361.234,401.23L361.416,400.88L361.982,400.346L362.219,399.982L362.421,399.183L362.572,398.832L362.911,398.501L363.141,398.419L363.352,398.419L363.527,398.381L363.76,398.032L364.1,397.838L364.26,397.678L364.427,397.218L364.401,396.318L364.48,395.912L364.711,395.682L365.051,395.666L366.318,395.858L367.195,395.873L367.609,395.808L368.363,395.557L368.711,395.495L369.119,395.585L369.436,395.525L371.579,395.562L372.16,395.675L373.171,395.601L373.463,395.637L375.26,396.356L375.441,396.356L375.829,396.282L375.991,396.297L376.419,396.504L377.184,396.993L377.673,397.144L378.527,397.165L380.969,396.809L383.4,397.023L384.204,396.824L385.394,396.126L385.812,395.947L386.836,395.733L392.05,395.525L391.797,394.325L391.461,392.953L391.465,392.322L391.773,391.744L393.057,390.208L393.465,389.95L393.971,390.172L394.036,390.871L393.749,392.353L393.617,394.332L409.271,394.332L412.081,394.341L428.528,394.341L432.099,394.348L449.813,394.348L453.129,394.354L468.016,394.354L470.834,394.36L474.149,394.36L474.155,394.368L474.175,394.368L474.182,394.377L474.227,394.377L474.228,394.368L474.233,394.368L474.234,394.36L474.24,394.36L474.24,394.325L474.263,394.221L474.281,394.11L474.301,394.005L474.322,393.896L474.715,391.795L475.11,389.688L475.505,387.584L475.899,385.478L476.281,383.424L476.668,381.368L477.05,379.307L477.434,377.255L477.552,376.608L477.532,376.468L477.51,376.334L477.409,376.223L477.309,376.112L476.467,375.524L475.606,374.932L474.777,374.362L473.846,373.715L473.074,373.181L472.248,372.604L472.064,372.264L471.88,371.914L471.789,371.032L471.581,369.067L471.371,367.103L471.164,365.137L470.956,363.164L470.746,361.198L470.539,359.227L470.332,357.254L470.125,355.28L469.914,353.309L469.5,349.361L469.29,347.382L469.084,345.411L468.666,341.451L468.46,339.471L468.246,337.438L468.033,335.399L467.816,333.36L467.603,331.321L467.392,329.282L467.175,327.235L466.961,325.196L466.747,323.149L466.534,321.102L466.32,319.056L466.105,317.009L465.893,314.962L465.758,313.671L465.625,312.38L465.489,311.091L465.354,309.802L465.035,306.751L464.733,303.98L464.435,301.206L464.132,298.431L463.83,295.66L463.528,292.877L463.226,290.098L462.924,287.313L462.623,284.533L462.355,282.127L462.213,280.818L461.897,277.941L461.58,275.063L461.437,273.753L461.141,271.052L460.844,268.353L460.546,265.646L460.25,262.941L459.953,260.231L459.657,257.518L459.36,254.804L459.063,252.09L458.767,249.372L458.472,246.647L458.174,243.928L457.877,241.204L457.581,238.475L457.284,235.746L456.987,233.012L456.692,230.282L456.395,227.538L456.097,224.801L455.802,222.059L455.504,219.314L455.208,216.57L454.91,213.82L454.615,211.06L454.317,208.309L454.168,206.893L453.832,203.785L453.499,200.67L453.347,199.254L453.134,197.261L452.93,195.437L452.726,193.612L452.524,191.779L452.322,189.947L452.117,188.115L451.917,186.283L451.713,184.453L451.511,182.621L456.161,182.613L465.464,182.613Z" style="fill:none;stroke:rgb(153,153,153);stroke-width:0.25px;"/>
    </g>
</svg>
