<?xml version="1.0" encoding="UTF-8" standalone="no"?>
<!DOCTYPE svg PUBLIC "-//W3C//DTD SVG 1.1//EN" "http://www.w3.org/Graphics/SVG/1.1/DTD/svg11.dtd">
<svg width="100%" height="100%" viewBox="0 0 2248 1136" version="1.1" xmlns="http://www.w3.org/2000/svg" xmlns:xlink="http://www.w3.org/1999/xlink" xml:space="preserve" xmlns:serif="http://www.serif.com/" style="fill-rule:evenodd;clip-rule:evenodd;stroke-linecap:round;stroke-linejoin:round;stroke-miterlimit:2;">
    <g transform="matrix(4.16667,0,0,4.16667,-411.287,-479.167)">
        <clipPath id="_clip1">
            <path d="M603.367,353.394L602.827,350.957L602.599,348.313L602.357,347.256L601.833,346.298L600.456,344.429L599.925,343.479L599.005,341.33L597.782,339.33L596.493,337.718L595.694,337.051L594.741,336.658L593.639,336.024L592.521,333.824L591.558,332.983L591.262,332.517L591.167,332.02L591.264,331.5L592.166,329.714L592.403,325.411L593.342,323.533L594.846,320.519L595.218,319.013L595.058,318.315L594.297,317.121L594.026,316.455L593.963,315.604L594.11,314.916L594.644,313.515L594.878,313.104L595.195,312.795L595.481,312.443L595.618,311.913L595.505,311.651L594.951,311.14L594.79,310.871L594.49,309.667L594.419,309.079L594.49,308.426L596.058,305.326L599.869,299.541L601.346,294.4L602.231,292.829L602.862,291.271L602.553,288.749L603.29,287.618L603.164,286.896L602.67,286.53L601.843,286.259L600.315,285.94L600.289,285.936L598.94,285.669L596.3,284.365L594.896,283.945L594.165,284.021L592.556,284.602L591.738,284.733L590.995,284.6L589.692,284.011L589.038,283.826L584.218,283.621L583.023,283.028L582.362,283.132L581.643,284.094L580.687,285.783L579.533,287.258L578.097,288.427L576.274,289.205L574.654,289.335L573.32,288.867L572.165,288.46L570.7,288.227L569.777,288.479L567.866,289.397L566.848,289.372L566.338,289.014L566.019,288.506L565.778,288.016L565.491,287.719L564.28,287.418L563.233,287.516L560.843,288.041L555.383,289.409L554.298,289.438L554.298,288.508L555.013,287.479L555.292,286.642L553.974,286.285L552.252,286.83L550.907,287.925L549.468,288.692L545.927,287.854L542.807,288.175L541.194,288.095L538.781,286.939L535.431,283.021L533.502,281.195L531.974,280.374L530.938,280.318L530.533,280.422L529.793,280.62L527.961,280.889L526.387,280.765L525.054,280.209L524.07,279.197L523.53,277.718L523.53,277.707L521.822,276.486L517.495,276.65L515.638,276.075L515.174,275.247L515.401,273.411L515.146,272.669L514.284,271.972L513.166,271.328L511.967,270.897L510.862,270.829L510.087,271.181L508.716,272.266L507.808,272.464L506.853,272.078L506.011,271.373L505.174,270.846L504.201,270.994L503.615,271.681L503.44,272.588L503.405,273.576L503.261,274.493L502.805,275.322L502.279,275.938L501.909,276.644L501.92,277.718L501.938,279.153L501.938,279.163L501.55,280.318L500.716,281.21L499.401,281.841L497.146,282.871L496.315,282.927L495.121,282.493L493.039,280.962L492.491,280.703L491.918,280.785L491.427,281.023L490.927,281.2L490.322,281.099L489.74,280.721L488.297,279.089L487.274,278.396L486.099,278.151L484.846,278.035L483.604,277.718L483.581,277.705L483.579,277.705L483.566,277.703L482.665,277.234L482.238,276.496L481.813,274.714L481.358,274.02L480.902,273.559L480.766,272.982L481.293,271.94L481.686,270.714L481.614,269.188L481.004,267.995L479.774,267.775L474.412,272.677L474.503,273.298L475.204,274.217L475.397,274.699L475.35,275.026L475.072,276.064L475.072,276.574L474.956,276.971L475.052,277.322L475.674,277.707L475.681,277.705L475.684,277.707L475.684,277.718L476.219,278.278L476.213,278.772L476.033,279.307L476.062,279.983L476.374,280.448L476.771,280.82L477.083,281.248L477.12,281.893L476.771,282.134L474.834,283.858L473.979,284.208L473.56,284.271L473.345,284.3L471.807,284.156L468.982,284.447L467.895,284.067L467.191,282.542L467.229,281.276L467.504,280.044L467.517,278.854L466.752,277.718L464.595,276.02L463.943,275.179L463.464,273.759L463.427,273.016L463.503,272.426L463.376,271.848L462.309,270.577L462.019,269.226L461.794,268.586L460.871,267.63L459.559,266.919L456.842,265.837L455.234,264.91L453.875,263.785L452.72,262.445L451.743,260.862L451.632,258.138L451.323,256.799L450.486,256.944L450.289,257.446L450.3,258.032L450.23,258.571L449.805,258.931L448.495,259.352L448.016,259.707L446.345,261.965L445.553,261.983L444.73,261.222L443.486,260.477L442.155,260.168L440.738,260.011L439.324,260.031L437.98,260.248L436.194,259.448L435.266,259.144L434.264,259.182L433.412,259.654L431.964,261.053L431.031,261.437L429.972,261.345L429.324,260.885L428.767,260.354L427.961,260.021L427.254,260.125L425.534,260.819L424.701,260.997L423.703,260.933L422.51,260.703L421.393,260.299L419.415,258.698L418.248,258.911L416.989,259.458L415.477,259.44L414.13,258.709L413.689,257.808L413.782,257.038L414.017,255.186L414.021,253.988L413.52,250.63L413.892,250.024L415.483,249.175L415.855,248.351L415.861,247.2L415.955,246.838L416.322,246.394L417.387,246.006L417.831,245.703L418.198,245.146L418.396,244.64L419.077,241.567L418.649,240.841L415.628,239.99L413.367,238.589L412.129,238.159L410.726,238.439L410.308,238.787L409.907,239.314L409.317,240.375L408.908,240.875L408.391,241.097L407.819,241.232L405.996,242.111L405.621,242.481L404.858,243.929L404.363,244.314L403.758,244.482L403.096,244.401L402.085,244.111L401.348,243.997L397.932,244.186L397.201,244.1L396.416,243.813L395.351,243.061L393.741,241.43L392.575,240.892L389.762,240.77L388.961,240.262L389.277,237.417L388.553,236.911L387.392,236.7L386.188,236.306L385.77,235.86L385.177,234.779L384.627,234.5L381.224,233.997L380.001,233.611L379,233.074L377.947,232.679L376.554,232.712L375.015,232.309L374.219,231.114L373.289,228.296L372.774,227.74L371.467,226.75L370.461,225.246L369.827,224.76L369.066,224.484L364.892,223.718L361.765,222.103L361.174,221.251L360.023,219.602L361.535,214.361L360.87,213.571L359.506,213.175L358.104,212.431L357.747,210.496L357.534,209.912L357.156,209.479L355.793,208.3L355.445,207.126L356.024,206.117L356.852,205.152L357.25,204.13L356.877,203.267L356.043,203.166L355.06,203.289L354.227,203.115L353.79,202.45L353.416,200.785L352.832,200.194L351.744,200.171L350.579,200.58L349.487,200.746L348.645,200L348.093,199.359L347.377,199.216L346.594,199.402L345.833,199.754L345.677,198.941L345.307,198.468L344.739,198.203L343.979,198.032L343.206,198.037L342.067,198.181L340.156,198.635L339.793,198.959L339.264,199.773L338.818,199.975L337.36,200.356L334.62,201.537L333.229,201.692L331.678,201.554L330.101,201.608L328.622,202.064L327.362,203.133L326.903,204.145L326.641,205.223L326.19,206.084L326.127,206.107L325.164,206.451L324.249,206.408L321.758,205.997L321.03,205.615L320.374,205.132L318.814,204.95L318.07,204.678L317.646,204.183L317.494,203.561L317.371,202.23L316.787,199.924L316.198,198.997L315.122,198.332L313.424,197.729L312.747,197.209L312.196,195.472L311.558,195.017L310.77,194.673L310.039,194.073L309.738,193.216L309.809,192.465L309.677,191.782L307.822,190.441L307.705,189.667L307.863,188.759L307.705,187.655L306.042,186.163L302.104,186.901L301.072,185.565L301.165,184.838L301.49,184.428L301.855,184.087L302.066,183.578L301.914,182.657L301.399,181.849L299.972,180.578L299.521,180.339L298.477,180.026L298.003,179.77L297.832,179.49L297.61,178.675L297.389,178.355L296.55,177.792L295.854,177.552L295.103,177.523L293.67,177.663L292.056,178.016L291.623,178.169L291.319,178.828L291.141,179.69L290.774,180.352L289.876,180.403L289.24,179.957L288.394,178.467L287.905,177.839L284.406,175.165L283.697,175.05L282.333,175.231L281.702,175.155L281.198,174.818L280.303,173.901L279.726,173.666L278.519,174.117L277.128,175.031L275.845,175.426L274.976,174.312L274.56,173.562L273.921,173.206L273.176,172.987L272.433,172.644L271.767,172.085L270.624,170.539L266.904,167.996L266.34,166.952L266.512,166.214L266.793,165.608L266.781,165.107L266.061,164.697L265.425,164.662L264.162,165.01L263.521,165.031L262.447,164.364L257.738,159.242L256.66,158.68L253.692,157.872L252.534,157.348L251.42,156.627L250.433,155.775L249.631,154.854L248.684,154.333L247.748,154.329L246.792,154.452L245.787,154.314L245.29,153.958L244.554,152.946L244.045,152.572L242.664,152.263L241.409,152.259L240.159,152.086L237.4,150.567L236.256,150.75L235.158,151.116L233.901,150.951L233.329,150.258L232.761,149.013L232.361,147.719L232.288,146.882L233.72,144.558L234.016,143.383L233.075,142.608L231.469,142.101L230.336,141.411L229.672,140.346L229.498,138.716L230.183,135.191L229.907,134.244L228.955,133.809L227.513,133.686L224.919,133.834L224.335,134.001L223.745,134.263L223.151,134.444L222.551,134.356L222.129,134.028L221.39,133.125L220.84,132.779L219.631,132.569L217.52,132.714L214.897,131.723L213.567,131.908L212.262,132.328L210.878,132.526L209.544,132.228L202.075,129.276L200.735,128.911L199.363,129.076L198.963,129.452L198.775,129.988L198.449,130.507L197.624,130.834L196.455,131.017L195.998,131.271L195.702,131.772L195.007,134.13L194.306,134.349L192.697,134.134L191.452,133.554L189.201,131.64L188.049,131.228L186.826,131.557L186.665,132.35L186.807,133.322L186.499,134.172L185.845,135.057L185.626,136.029L185.689,138.179L185.778,138.717L186.179,139.708L186.235,140.233L186.023,140.816L185.245,141.944L184.962,143.861L184.521,144.865L183.801,145.706L182.833,146.307L182.033,146.411L181.033,146.365L180.077,146.425L179.42,146.84L179.379,147.288L179.883,148.246L179.972,148.663L179.734,149.615L179.477,150.113L179.417,150.228L178.813,150.622L177.737,150.913L176.889,151.423L176.978,153.147L176.341,154.022L174.969,154.25L172.115,153.099L170.68,153.127L169.019,153.484L168.229,152.917L168.21,152.833L167.575,150.108L167.118,149.171L165.702,147.138L164.915,145.141L164.209,143.941L163.419,142.919L163.035,142.621L162.984,142.581L162.977,142.576L162.775,142.422L162.295,142.448L158.152,143.671L157.085,143.439L156.479,142.352L155.882,141.6L155.868,141.609L154.902,142.225L153.834,143.349L152.965,144.078L153.787,145.718L152.555,147.331L148.866,149.776L148.009,150.557L146.165,153.127L145.558,153.707L143.447,154.964L143.368,155.011L141.765,156.332L141.754,156.337L140.99,156.77L139.812,157.097L137.596,157.343L136.679,157.791L136.678,157.793L136.161,158.845L135.346,161.056L133.974,162.977L130.83,166.432L129.526,167.391L129.518,167.393L125.859,168.253L125.849,168.26L124.243,169.397L123.348,171.095L123.352,172.658L123.938,174.203L124.777,175.847L125.338,177.45L125.25,178.801L124.51,180.071L123.129,181.429L122.786,181.658L122.783,181.659L122.024,182.019L122.016,182.024L121.684,182.26L121.456,182.684L121.551,183.063L121.713,183.403L121.688,183.716L121.24,184.268L120.716,184.743L119.487,185.565L119.469,185.574L118.91,186.206L118.357,186.554L117.932,186.954L117.761,187.747L117.396,188.311L117.386,188.313L115.608,188.82L115.599,188.826L114.951,189.259L114.709,190.348L115.161,191.377L116.456,193.387L116.91,195.87L117.243,196.509L117.77,196.587L118.342,196.567L118.792,196.905L118.958,198.065L118.707,199.491L117.443,203.521L117.43,203.518L116.856,203.402L116.084,202.87L115.021,202.994L115.019,202.999L114.709,203.885L115.745,206.455L115.903,207.4L115.141,208.213L115.132,208.216L113.957,208.518L112.675,208.508L111.624,208.38L109.732,209.188L109.729,209.193L108.525,211.523L108.014,214.264L108.208,216.277L108.208,216.292L107.69,217.358L106.881,217.909L106.814,217.955L105.789,218.423L105.786,218.425L104.83,219.088L104.068,220.088L103.661,221.125L103.49,222.241L103.442,223.476L103.814,225.972L104.944,226.76L106.608,227.057L108.595,228.088L110.646,230.498L111.535,231.119L112.713,231.485L114.875,231.813L115.913,232.379L116.259,232.777L116.903,233.763L117.37,234.221L117.872,234.433L118.992,234.674L119.462,235.023L121.135,238.068L121.84,238.844L123.065,239.292L124.253,239.143L125.44,238.859L126.668,238.915L127.78,239.5L130.382,242.265L131.584,242.834L131.593,242.838L131.895,242.028L131.374,238.121L131.542,237.065L132.15,236.228L132.151,236.225L133.377,235.618L134.425,235.646L135.726,235.682L135.926,236.045L135.828,236.578L135.793,237.153L136.203,237.643L137.295,238.141L138.352,238.459L140.627,238.821L141.412,239.32L142.634,241.373L143.266,242.085L144.323,242.529L146.25,243.013L147.257,243.608L149.6,245.77L150.631,246.326L151.774,246.52L154.295,246.525L155.168,246.869L155.673,247.789L155.759,248.716L156.054,249.581L157.2,250.311L158.184,250.594L159.4,250.813L160.597,250.838L161.546,250.551L162.27,250.919L162.479,251.576L162.6,252.338L163.042,253.005L165.917,253.495L172.007,254.526L173.442,255.199L174.715,256.622L175.959,260.276L176.804,261.987L180.369,265.625L181.204,267.107L181.186,267.113L180.267,267.444L180.265,267.45L180.02,267.95L180.413,268.417L181.413,268.636L181.213,269.513L181.88,269.79L182.909,269.64L183.79,269.245L183.797,269.239L184.353,268.52L184.61,267.759L184.996,267.205L185,267.196L185.95,267.079L187.347,267.523L188.658,268.362L189.763,269.421L190.554,270.548L190.852,271.432L190.909,272.076L191.169,272.646L192.103,273.315L197.538,275.794L198.785,276.577L199.583,277.707L199.583,277.71L199.592,277.716L199.592,277.718L200.801,278.544L203.9,279.191L205.344,279.653L206.665,280.617L209.106,282.944L212.179,284.513L213.872,285.648L215.589,286.552L217.276,286.664L217.281,286.668L218.688,285.803L221.152,283.21L221.154,283.208L222.977,282.499L226.123,282.776L227.551,283.198L227.618,283.218L228.859,284.153L230.002,285.235L231.056,285.774L233.729,286.714L241.069,292.109L245.824,294.226L249.145,297.224L251.527,297.886L256.784,297.347L264.521,295.569L265.864,296.046L266.206,296.168L267.278,297.706L268.022,300.07L268.616,304.663L269.277,306.995L270.662,308.42L278.286,308.877L279.819,309.317L282.643,310.733L286.531,311.591L294.044,311.538L296.302,312.342L299.355,314.635L300.116,315.408L300.824,316.579L301.209,317.44L301.833,318.057L303.239,318.495L304.61,318.435L304.644,318.418L305.817,317.836L306.846,316.898L308.174,315.137L308.592,314.368L308.681,313.623L307.746,312.496L307.625,311.78L307.749,311.034L308.067,310.435L308.067,310.432L309.662,309.928L315.436,309.97L322.16,310.776L326.641,312.272L335.158,316.35L337.981,317.263L338.385,317.621L338.389,317.626L338.826,317.05L339.175,316.815L339.183,316.81L339.771,316.609L339.787,316.604L339.802,316.105L339.565,315.479L339.409,314.903L337.658,313.145L337.135,312.168L337.132,312.167L338.324,311.738L341.17,311.56L342.589,311.183L343.388,311.426L345.833,311.813L347.793,311.748L347.796,311.748L349.101,310.957L352.206,307.528L352.208,307.525L353.435,307.074L354.52,307.294L354.787,308.42L355.364,308.947L356.026,309.293L357.506,309.822L358.076,310.385L358.732,311.88L359.31,312.039L361.174,311.773L362.01,312.344L362.611,313.489L363.769,314.956L365.1,315.725L382.771,318.619L384.589,319.752L386.141,321.809L387.144,324.044L387.719,326.333L387.858,328.687L387.523,331.125L386.915,332.456L386.047,333.863L385.504,335.267L385.856,336.588L386.654,337.087L394.048,338.887L394.74,338.882L395.576,338.308L395.579,338.307L396.588,337.983L397.543,338.177L398.197,339.14L398.21,339.145L399.649,339.928L402.709,340.846L404.091,341.55L404.982,342.725L405.333,344.007L405.849,345.116L407.266,345.775L408.026,345.968L408.813,346.063L409.861,346.541L409.793,347.478L409.895,348.303L411.461,348.428L414.91,347.21L416.305,347.078L418.707,347.979L418.925,349.839L418.938,351.961L420.735,353.641L426.4,354.988L427.333,354.964L429.462,354.386L430.048,353.992L430.454,353.719L430.592,353.568L431.441,352.651L432.448,351.831L432.455,351.822L433.527,351.877L434.65,352.181L435.761,351.867L437.98,350.791L440.676,349.492L445.527,347.775L446.192,347.979L451.007,350.386L451.87,351.326L452.346,353.422L451.896,357.968L452.551,360.133L453.419,361.091L456.737,363.452L457.29,363.583L457.905,363.358L458.499,363.214L458.987,363.604L459.102,364.118L459.115,364.658L459.229,365.144L459.66,365.485L460.654,365.339L461.531,364.872L461.974,364.636L466.182,361.378L466.385,361.271L467.248,360.819L468.695,360.674L470.883,360.059L472.754,360.611L476.989,362.99L477.306,363.244L477.686,363.381L479.083,363.306L479.197,363.317L479.569,363.36L480.5,363.611L480.902,363.817L481.196,364.104L481.575,364.359L482.223,364.467L482.651,364.349L484.022,363.563L486.35,362.847L487.663,362.663L488.706,362.849L489.148,363.271L489.174,364.141L489.602,364.573L490.044,364.625L491.379,364.468L491.918,364.471L493.756,365.069L497.515,366.899L499.401,367.581L500.595,367.835L501.56,368.305L502.399,368.987L503.223,369.859L503.233,369.859L504.462,370.529L508.611,372.232L512.899,374.569L514.03,374.795L514.031,374.795L514.672,374.341L515.077,373.616L515.536,373.01L515.541,373.003L516.379,372.891L518.555,373.656L519.117,373.753L520.682,373.351L520.685,373.348L522.18,372.455L523.367,371.238L524.004,369.857L524.004,369.854L525.918,368.839L527.656,368.293L529.934,367.583L529.937,367.581L530.298,367.333L530.708,367.054L530.717,367.047L532.572,365.311L533.453,364.653L533.464,364.646L534.158,364.619L534.355,365.79L534.386,366.822L535.091,369.854L535.091,369.859L535.104,369.859L535.725,371.656L536.749,373.719L538.152,375.397L539.919,376.045L543.207,375.715L545.08,375.193L545.716,375.765L546.143,376.713L546.695,377.519L547.498,377.966L550.089,379.005L550.915,379.141L550.917,379.141L551.668,378.559L552.813,376.344L553.52,375.464L555.216,374.548L555.227,374.542L557.21,374.032L559.251,373.934L561.127,374.249L565.54,376.506L567.684,377.04L569.919,376.141L569.96,376.123L571.481,375.072L572.147,374.616L572.152,374.612L573.473,374.198L574.477,374.688L575.295,375.34L576.324,375.46L577.209,375.054L577.22,375.048L577.66,374.108L578.068,372.813L578.071,372.806L578.866,372.529L579.906,372.863L581.041,373.396L582.094,373.382L582.098,373.382L583.964,371.968L583.969,371.964L585.064,371.723L585.12,371.961L586.592,373.05L586.749,373.021L587.036,373.521L587.434,374.592L587.829,375.183L588.693,375.91L590.676,376.98L591.558,377.745L593.461,377.54L593.469,377.54L595.78,375.34L597.621,372.373L598.115,369.859L598.115,369.854L597.92,369.092L597.957,368.468L598.404,367.16L599.306,364.511L602.066,359.643L603.09,356.943L603.344,355.719L603.442,354.555L603.367,353.394Z"/>
        </clipPath>
        <g clip-path="url(#_clip1)">
            <path d="M334.877,115L98.709,115L98.709,387.553L638,387.553L638,304.823L334.877,115Z" style="fill:rgb(33,64,141);fill-rule:nonzero;"/>
            <path d="M306.801,115L113.611,115L113.611,372.651L638,372.651L638,322.405L306.801,115Z" style="fill:rgb(221,29,62);fill-rule:nonzero;"/>
            <path d="M264.768,351.088C331.276,351.088 385.19,297.173 385.19,230.664C374.646,257.496 355.524,279.832 331.11,294.413L320.806,286.703L341.099,271.521L316.548,265.261C316.547,265.257 316.546,265.254 316.544,265.251L329.477,243.466L304.393,247.078L308.005,221.994L286.22,234.926C286.217,234.924 286.214,234.923 286.21,234.922L279.95,210.373L264.768,230.664L249.584,210.373L243.324,234.922C243.321,234.923 243.318,234.924 243.315,234.926L221.529,221.994L225.142,247.078L200.057,243.466L212.99,265.251C212.988,265.254 212.987,265.257 212.986,265.26L188.437,271.521L208.728,286.703L198.419,294.418C174.663,280.251 155.244,258.398 144.343,230.664C144.343,297.173 198.259,351.088 264.768,351.088Z" style="fill:white;fill-rule:nonzero;"/>
        </g>
    </g>
    <g transform="matrix(4.16667,0,0,4.16667,-411.287,-479.167)">
        <path d="M603.367,353.394L602.827,350.957L602.599,348.313L602.357,347.256L601.833,346.298L600.456,344.429L599.925,343.479L599.005,341.33L597.782,339.33L596.493,337.718L595.694,337.051L594.741,336.658L593.639,336.024L592.521,333.824L591.558,332.983L591.262,332.517L591.167,332.02L591.264,331.5L592.166,329.714L592.403,325.411L593.342,323.533L594.846,320.519L595.218,319.013L595.058,318.315L594.297,317.121L594.026,316.455L593.963,315.604L594.11,314.916L594.644,313.515L594.878,313.104L595.195,312.795L595.481,312.443L595.618,311.913L595.505,311.651L594.951,311.14L594.79,310.871L594.49,309.667L594.419,309.079L594.49,308.426L596.058,305.326L599.869,299.541L601.346,294.4L602.231,292.829L602.862,291.271L602.553,288.749L603.29,287.618L603.164,286.896L602.67,286.53L601.843,286.259L600.315,285.94L600.289,285.936L598.94,285.669L596.3,284.365L594.896,283.945L594.165,284.021L592.556,284.602L591.738,284.733L590.995,284.6L589.692,284.011L589.038,283.826L584.218,283.621L583.023,283.028L582.362,283.132L581.643,284.094L580.687,285.783L579.533,287.258L578.097,288.427L576.274,289.205L574.654,289.335L573.32,288.867L572.165,288.46L570.7,288.227L569.777,288.479L567.866,289.397L566.848,289.372L566.338,289.014L566.019,288.506L565.778,288.016L565.491,287.719L564.28,287.418L563.233,287.516L560.843,288.041L555.383,289.409L554.298,289.438L554.298,288.508L555.013,287.479L555.292,286.642L553.974,286.285L552.252,286.83L550.907,287.925L549.468,288.692L545.927,287.854L542.807,288.175L541.194,288.095L538.781,286.939L535.431,283.021L533.502,281.195L531.974,280.374L530.938,280.318L530.533,280.422L529.793,280.62L527.961,280.889L526.387,280.765L525.054,280.209L524.07,279.197L523.53,277.718L523.53,277.707L521.822,276.486L517.495,276.65L515.638,276.075L515.174,275.247L515.401,273.411L515.146,272.669L514.284,271.972L513.166,271.328L511.967,270.897L510.862,270.829L510.087,271.181L508.716,272.266L507.808,272.464L506.853,272.078L506.011,271.373L505.174,270.846L504.201,270.994L503.615,271.681L503.44,272.588L503.405,273.576L503.261,274.493L502.805,275.322L502.279,275.938L501.909,276.644L501.92,277.718L501.938,279.153L501.938,279.163L501.55,280.318L500.716,281.21L499.401,281.841L497.146,282.871L496.315,282.927L495.121,282.493L493.039,280.962L492.491,280.703L491.918,280.785L491.427,281.023L490.927,281.2L490.322,281.099L489.74,280.721L488.297,279.089L487.274,278.396L486.099,278.151L484.846,278.035L483.604,277.718L483.581,277.705L483.579,277.705L483.566,277.703L482.665,277.234L482.238,276.496L481.813,274.714L481.358,274.02L480.902,273.559L480.766,272.982L481.293,271.94L481.686,270.714L481.614,269.188L481.004,267.995L479.774,267.775L474.412,272.677L474.503,273.298L475.204,274.217L475.397,274.699L475.35,275.026L475.072,276.064L475.072,276.574L474.956,276.971L475.052,277.322L475.674,277.707L475.681,277.705L475.684,277.707L475.684,277.718L476.219,278.278L476.213,278.772L476.033,279.307L476.062,279.983L476.374,280.448L476.771,280.82L477.083,281.248L477.12,281.893L476.771,282.134L474.834,283.858L473.979,284.208L473.56,284.271L473.345,284.3L471.807,284.156L468.982,284.447L467.895,284.067L467.191,282.542L467.229,281.276L467.504,280.044L467.517,278.854L466.752,277.718L464.595,276.02L463.943,275.179L463.464,273.759L463.427,273.016L463.503,272.426L463.376,271.848L462.309,270.577L462.019,269.226L461.794,268.586L460.871,267.63L459.559,266.919L456.842,265.837L455.234,264.91L453.875,263.785L452.72,262.445L451.743,260.862L451.632,258.138L451.323,256.799L450.486,256.944L450.289,257.446L450.3,258.032L450.23,258.571L449.805,258.931L448.495,259.352L448.016,259.707L446.345,261.965L445.553,261.983L444.73,261.222L443.486,260.477L442.155,260.168L440.738,260.011L439.324,260.031L437.98,260.248L436.194,259.448L435.266,259.144L434.264,259.182L433.412,259.654L431.964,261.053L431.031,261.437L429.972,261.345L429.324,260.885L428.767,260.354L427.961,260.021L427.254,260.125L425.534,260.819L424.701,260.997L423.703,260.933L422.51,260.703L421.393,260.299L419.415,258.698L418.248,258.911L416.989,259.458L415.477,259.44L414.13,258.709L413.689,257.808L413.782,257.038L414.017,255.186L414.021,253.988L413.52,250.63L413.892,250.024L415.483,249.175L415.855,248.351L415.861,247.2L415.955,246.838L416.322,246.394L417.387,246.006L417.831,245.703L418.198,245.146L418.396,244.64L419.077,241.567L418.649,240.841L415.628,239.99L413.367,238.589L412.129,238.159L410.726,238.439L410.308,238.787L409.907,239.314L409.317,240.375L408.908,240.875L408.391,241.097L407.819,241.232L405.996,242.111L405.621,242.481L404.858,243.929L404.363,244.314L403.758,244.482L403.096,244.401L402.085,244.111L401.348,243.997L397.932,244.186L397.201,244.1L396.416,243.813L395.351,243.061L393.741,241.43L392.575,240.892L389.762,240.77L388.961,240.262L389.277,237.417L388.553,236.911L387.392,236.7L386.188,236.306L385.77,235.86L385.177,234.779L384.627,234.5L381.224,233.997L380.001,233.611L379,233.074L377.947,232.679L376.554,232.712L375.015,232.309L374.219,231.114L373.289,228.296L372.774,227.74L371.467,226.75L370.461,225.246L369.827,224.76L369.066,224.484L364.892,223.718L361.765,222.103L361.174,221.251L360.023,219.602L361.535,214.361L360.87,213.571L359.506,213.175L358.104,212.431L357.747,210.496L357.534,209.912L357.156,209.479L355.793,208.3L355.445,207.126L356.024,206.117L356.852,205.152L357.25,204.13L356.877,203.267L356.043,203.166L355.06,203.289L354.227,203.115L353.79,202.45L353.416,200.785L352.832,200.194L351.744,200.171L350.579,200.58L349.487,200.746L348.645,200L348.093,199.359L347.377,199.216L346.594,199.402L345.833,199.754L345.677,198.941L345.307,198.468L344.739,198.203L343.979,198.032L343.206,198.037L342.067,198.181L340.156,198.635L339.793,198.959L339.264,199.773L338.818,199.975L337.36,200.356L334.62,201.537L333.229,201.692L331.678,201.554L330.101,201.608L328.622,202.064L327.362,203.133L326.903,204.145L326.641,205.223L326.19,206.084L326.127,206.107L325.164,206.451L324.249,206.408L321.758,205.997L321.03,205.615L320.374,205.132L318.814,204.95L318.07,204.678L317.646,204.183L317.494,203.561L317.371,202.23L316.787,199.924L316.198,198.997L315.122,198.332L313.424,197.729L312.747,197.209L312.196,195.472L311.558,195.017L310.77,194.673L310.039,194.073L309.738,193.216L309.809,192.465L309.677,191.782L307.822,190.441L307.705,189.667L307.863,188.759L307.705,187.655L306.042,186.163L302.104,186.901L301.072,185.565L301.165,184.838L301.49,184.428L301.855,184.087L302.066,183.578L301.914,182.657L301.399,181.849L299.972,180.578L299.521,180.339L298.477,180.026L298.003,179.77L297.832,179.49L297.61,178.675L297.389,178.355L296.55,177.792L295.854,177.552L295.103,177.523L293.67,177.663L292.056,178.016L291.623,178.169L291.319,178.828L291.141,179.69L290.774,180.352L289.876,180.403L289.24,179.957L288.394,178.467L287.905,177.839L284.406,175.165L283.697,175.05L282.333,175.231L281.702,175.155L281.198,174.818L280.303,173.901L279.726,173.666L278.519,174.117L277.128,175.031L275.845,175.426L274.976,174.312L274.56,173.562L273.921,173.206L273.176,172.987L272.433,172.644L271.767,172.085L270.624,170.539L266.904,167.996L266.34,166.952L266.512,166.214L266.793,165.608L266.781,165.107L266.061,164.697L265.425,164.662L264.162,165.01L263.521,165.031L262.447,164.364L257.738,159.242L256.66,158.68L253.692,157.872L252.534,157.348L251.42,156.627L250.433,155.775L249.631,154.854L248.684,154.333L247.748,154.329L246.792,154.452L245.787,154.314L245.29,153.958L244.554,152.946L244.045,152.572L242.664,152.263L241.409,152.259L240.159,152.086L237.4,150.567L236.256,150.75L235.158,151.116L233.901,150.951L233.329,150.258L232.761,149.013L232.361,147.719L232.288,146.882L233.72,144.558L234.016,143.383L233.075,142.608L231.469,142.101L230.336,141.411L229.672,140.346L229.498,138.716L230.183,135.191L229.907,134.244L228.955,133.809L227.513,133.686L224.919,133.834L224.335,134.001L223.745,134.263L223.151,134.444L222.551,134.356L222.129,134.028L221.39,133.125L220.84,132.779L219.631,132.569L217.52,132.714L214.897,131.723L213.567,131.908L212.262,132.328L210.878,132.526L209.544,132.228L202.075,129.276L200.735,128.911L199.363,129.076L198.963,129.452L198.775,129.988L198.449,130.507L197.624,130.834L196.455,131.017L195.998,131.271L195.702,131.772L195.007,134.13L194.306,134.349L192.697,134.134L191.452,133.554L189.201,131.64L188.049,131.228L186.826,131.557L186.665,132.35L186.807,133.322L186.499,134.172L185.845,135.057L185.626,136.029L185.689,138.179L185.778,138.717L186.179,139.708L186.235,140.233L186.023,140.816L185.245,141.944L184.962,143.861L184.521,144.865L183.801,145.706L182.833,146.307L182.033,146.411L181.033,146.365L180.077,146.425L179.42,146.84L179.379,147.288L179.883,148.246L179.972,148.663L179.734,149.615L179.477,150.113L179.417,150.228L178.813,150.622L177.737,150.913L176.889,151.423L176.978,153.147L176.341,154.022L174.969,154.25L172.115,153.099L170.68,153.127L169.019,153.484L168.229,152.917L168.21,152.833L167.575,150.108L167.118,149.171L165.702,147.138L164.915,145.141L164.209,143.941L163.419,142.919L163.035,142.621L162.984,142.581L162.977,142.576L162.775,142.422L162.295,142.448L158.152,143.671L157.085,143.439L156.479,142.352L155.882,141.6L155.868,141.609L154.902,142.225L153.834,143.349L152.965,144.078L153.787,145.718L152.555,147.331L148.866,149.776L148.009,150.557L146.165,153.127L145.558,153.707L143.447,154.964L143.368,155.011L141.765,156.332L141.754,156.337L140.99,156.77L139.812,157.097L137.596,157.343L136.679,157.791L136.678,157.793L136.161,158.845L135.346,161.056L133.974,162.977L130.83,166.432L129.526,167.391L129.518,167.393L125.859,168.253L125.849,168.26L124.243,169.397L123.348,171.095L123.352,172.658L123.938,174.203L124.777,175.847L125.338,177.45L125.25,178.801L124.51,180.071L123.129,181.429L122.786,181.658L122.783,181.659L122.024,182.019L122.016,182.024L121.684,182.26L121.456,182.684L121.551,183.063L121.713,183.403L121.688,183.716L121.24,184.268L120.716,184.743L119.487,185.565L119.469,185.574L118.91,186.206L118.357,186.554L117.932,186.954L117.761,187.747L117.396,188.311L117.386,188.313L115.608,188.82L115.599,188.826L114.951,189.259L114.709,190.348L115.161,191.377L116.456,193.387L116.91,195.87L117.243,196.509L117.77,196.587L118.342,196.567L118.792,196.905L118.958,198.065L118.707,199.491L117.443,203.521L117.43,203.518L116.856,203.402L116.084,202.87L115.021,202.994L115.019,202.999L114.709,203.885L115.745,206.455L115.903,207.4L115.141,208.213L115.132,208.216L113.957,208.518L112.675,208.508L111.624,208.38L109.732,209.188L109.729,209.193L108.525,211.523L108.014,214.264L108.208,216.277L108.208,216.292L107.69,217.358L106.881,217.909L106.814,217.955L105.789,218.423L105.786,218.425L104.83,219.088L104.068,220.088L103.661,221.125L103.49,222.241L103.442,223.476L103.814,225.972L104.944,226.76L106.608,227.057L108.595,228.088L110.646,230.498L111.535,231.119L112.713,231.485L114.875,231.813L115.913,232.379L116.259,232.777L116.903,233.763L117.37,234.221L117.872,234.433L118.992,234.674L119.462,235.023L121.135,238.068L121.84,238.844L123.065,239.292L124.253,239.143L125.44,238.859L126.668,238.915L127.78,239.5L130.382,242.265L131.584,242.834L131.593,242.838L131.895,242.028L131.374,238.121L131.542,237.065L132.15,236.228L132.151,236.225L133.377,235.618L134.425,235.646L135.726,235.682L135.926,236.045L135.828,236.578L135.793,237.153L136.203,237.643L137.295,238.141L138.352,238.459L140.627,238.821L141.412,239.32L142.634,241.373L143.266,242.085L144.323,242.529L146.25,243.013L147.257,243.608L149.6,245.77L150.631,246.326L151.774,246.52L154.295,246.525L155.168,246.869L155.673,247.789L155.759,248.716L156.054,249.581L157.2,250.311L158.184,250.594L159.4,250.813L160.597,250.838L161.546,250.551L162.27,250.919L162.479,251.576L162.6,252.338L163.042,253.005L165.917,253.495L172.007,254.526L173.442,255.199L174.715,256.622L175.959,260.276L176.804,261.987L180.369,265.625L181.204,267.107L181.186,267.113L180.267,267.444L180.265,267.45L180.02,267.95L180.413,268.417L181.413,268.636L181.213,269.513L181.88,269.79L182.909,269.64L183.79,269.245L183.797,269.239L184.353,268.52L184.61,267.759L184.996,267.205L185,267.196L185.95,267.079L187.347,267.523L188.658,268.362L189.763,269.421L190.554,270.548L190.852,271.432L190.909,272.076L191.169,272.646L192.103,273.315L197.538,275.794L198.785,276.577L199.583,277.707L199.583,277.71L199.592,277.716L199.592,277.718L200.801,278.544L203.9,279.191L205.344,279.653L206.665,280.617L209.106,282.944L212.179,284.513L213.872,285.648L215.589,286.552L217.276,286.664L217.281,286.668L218.688,285.803L221.152,283.21L221.154,283.208L222.977,282.499L226.123,282.776L227.551,283.198L227.618,283.218L228.859,284.153L230.002,285.235L231.056,285.774L233.729,286.714L241.069,292.109L245.824,294.226L249.145,297.224L251.527,297.886L256.784,297.347L264.521,295.569L265.864,296.046L266.206,296.168L267.278,297.706L268.022,300.07L268.616,304.663L269.277,306.995L270.662,308.42L278.286,308.877L279.819,309.317L282.643,310.733L286.531,311.591L294.044,311.538L296.302,312.342L299.355,314.635L300.116,315.408L300.824,316.579L301.209,317.44L301.833,318.057L303.239,318.495L304.61,318.435L304.644,318.418L305.817,317.836L306.846,316.898L308.174,315.137L308.592,314.368L308.681,313.623L307.746,312.496L307.625,311.78L307.749,311.034L308.067,310.435L308.067,310.432L309.662,309.928L315.436,309.97L322.16,310.776L326.641,312.272L335.158,316.35L337.981,317.263L338.385,317.621L338.389,317.626L338.826,317.05L339.175,316.815L339.183,316.81L339.771,316.609L339.787,316.604L339.802,316.105L339.565,315.479L339.409,314.903L337.658,313.145L337.135,312.168L337.132,312.167L338.324,311.738L341.17,311.56L342.589,311.183L343.388,311.426L345.833,311.813L347.793,311.748L347.796,311.748L349.101,310.957L352.206,307.528L352.208,307.525L353.435,307.074L354.52,307.294L354.787,308.42L355.364,308.947L356.026,309.293L357.506,309.822L358.076,310.385L358.732,311.88L359.31,312.039L361.174,311.773L362.01,312.344L362.611,313.489L363.769,314.956L365.1,315.725L382.771,318.619L384.589,319.752L386.141,321.809L387.144,324.044L387.719,326.333L387.858,328.687L387.523,331.125L386.915,332.456L386.047,333.863L385.504,335.267L385.856,336.588L386.654,337.087L394.048,338.887L394.74,338.882L395.576,338.308L395.579,338.307L396.588,337.983L397.543,338.177L398.197,339.14L398.21,339.145L399.649,339.928L402.709,340.846L404.091,341.55L404.982,342.725L405.333,344.007L405.849,345.116L407.266,345.775L408.026,345.968L408.813,346.063L409.861,346.541L409.793,347.478L409.895,348.303L411.461,348.428L414.91,347.21L416.305,347.078L418.707,347.979L418.925,349.839L418.938,351.961L420.735,353.641L426.4,354.988L427.333,354.964L429.462,354.386L430.048,353.992L430.454,353.719L430.592,353.568L431.441,352.651L432.448,351.831L432.455,351.822L433.527,351.877L434.65,352.181L435.761,351.867L437.98,350.791L440.676,349.492L445.527,347.775L446.192,347.979L451.007,350.386L451.87,351.326L452.346,353.422L451.896,357.968L452.551,360.133L453.419,361.091L456.737,363.452L457.29,363.583L457.905,363.358L458.499,363.214L458.987,363.604L459.102,364.118L459.115,364.658L459.229,365.144L459.66,365.485L460.654,365.339L461.531,364.872L461.974,364.636L466.182,361.378L466.385,361.271L467.248,360.819L468.695,360.674L470.883,360.059L472.754,360.611L476.989,362.99L477.306,363.244L477.686,363.381L479.083,363.306L479.197,363.317L479.569,363.36L480.5,363.611L480.902,363.817L481.196,364.104L481.575,364.359L482.223,364.467L482.651,364.349L484.022,363.563L486.35,362.847L487.663,362.663L488.706,362.849L489.148,363.271L489.174,364.141L489.602,364.573L490.044,364.625L491.379,364.468L491.918,364.471L493.756,365.069L497.515,366.899L499.401,367.581L500.595,367.835L501.56,368.305L502.399,368.987L503.223,369.859L503.233,369.859L504.462,370.529L508.611,372.232L512.899,374.569L514.03,374.795L514.031,374.795L514.672,374.341L515.077,373.616L515.536,373.01L515.541,373.003L516.379,372.891L518.555,373.656L519.117,373.753L520.682,373.351L520.685,373.348L522.18,372.455L523.367,371.238L524.004,369.857L524.004,369.854L525.918,368.839L527.656,368.293L529.934,367.583L529.937,367.581L530.298,367.333L530.708,367.054L530.717,367.047L532.572,365.311L533.453,364.653L533.464,364.646L534.158,364.619L534.355,365.79L534.386,366.822L535.091,369.854L535.091,369.859L535.104,369.859L535.725,371.656L536.749,373.719L538.152,375.397L539.919,376.045L543.207,375.715L545.08,375.193L545.716,375.765L546.143,376.713L546.695,377.519L547.498,377.966L550.089,379.005L550.915,379.141L550.917,379.141L551.668,378.559L552.813,376.344L553.52,375.464L555.216,374.548L555.227,374.542L557.21,374.032L559.251,373.934L561.127,374.249L565.54,376.506L567.684,377.04L569.919,376.141L569.96,376.123L571.481,375.072L572.147,374.616L572.152,374.612L573.473,374.198L574.477,374.688L575.295,375.34L576.324,375.46L577.209,375.054L577.22,375.048L577.66,374.108L578.068,372.813L578.071,372.806L578.866,372.529L579.906,372.863L581.041,373.396L582.094,373.382L582.098,373.382L583.964,371.968L583.969,371.964L585.064,371.723L585.12,371.961L586.592,373.05L586.749,373.021L587.036,373.521L587.434,374.592L587.829,375.183L588.693,375.91L590.676,376.98L591.558,377.745L593.461,377.54L593.469,377.54L595.78,375.34L597.621,372.373L598.115,369.859L598.115,369.854L597.92,369.092L597.957,368.468L598.404,367.16L599.306,364.511L602.066,359.643L603.09,356.943L603.344,355.719L603.442,354.555L603.367,353.394Z" style="fill:none;stroke:rgb(153,153,153);stroke-width:0.25px;"/>
    </g>
</svg>
