<?xml version="1.0" encoding="UTF-8" standalone="no"?>
<!DOCTYPE svg PUBLIC "-//W3C//DTD SVG 1.1//EN" "http://www.w3.org/Graphics/SVG/1.1/DTD/svg11.dtd">
<svg width="100%" height="100%" viewBox="0 0 1564 1340" version="1.1" xmlns="http://www.w3.org/2000/svg" xmlns:xlink="http://www.w3.org/1999/xlink" xml:space="preserve" xmlns:serif="http://www.serif.com/" style="fill-rule:evenodd;clip-rule:evenodd;stroke-linecap:round;stroke-linejoin:round;stroke-miterlimit:2;">
    <g transform="matrix(4.16667,0,0,4.16667,-718.413,-455.067)">
        <clipPath id="_clip1">
            <path d="M499.041,151.651L499.373,151.829L499.727,151.779C505.411,148.702 511.084,145.603 516.761,142.512L516.77,142.501L516.776,142.495L516.828,142.737C518.234,150.86 519.763,158.961 521.156,167.086C521.213,171.041 521.31,174.995 521.348,178.949L521.443,179.334L521.8,179.698L522.879,180.258L523.313,180.565L524.102,181.522C526.053,184.59 528.048,187.63 529.983,190.707L530.371,191.292C530.621,191.688 530.873,192.082 531.127,192.476L530.211,193.009L529.645,193.94L529.453,195.061L529.639,196.153L529.912,196.774L530.233,197.296L530.643,197.762L532.495,199.236C534.668,201.625 536.811,204.039 538.981,206.43L539.303,206.951L539.351,207.356L539.189,207.767C537.702,210.479 536.224,213.196 534.726,215.903L534.016,217.799C533.358,225.9 532.64,233.997 531.974,242.097C531.307,250.203 530.568,258.303 529.926,266.41C529.325,273.987 528.612,281.555 527.997,289.131L527.852,289.645L527.546,290.09C521.823,296.259 516.106,302.432 510.38,308.597C507.875,311.292 505.361,313.979 502.857,316.676C498.787,322.392 494.724,328.113 490.657,333.832C490.102,335.029 489.539,336.224 488.984,337.422L488.862,337.873L488.831,338.369L488.93,338.844L489.25,339.842L489.271,340.324L489.073,340.875L488.727,341.061L488.291,341.09L487.833,341.197L487.608,341.373L486.877,342.186L486.425,342.5L486.345,342.627L486.386,342.748L486.627,342.963L486.7,343.104L486.852,343.996L486.818,344.438L486.642,344.855L485.878,345.5L484.969,345.676L484.042,345.748L483.222,346.096L482.642,346.389L481.894,347.424L481.886,348.799C482.138,349.737 482.39,350.677 482.642,351.615L482.883,352.686L483.036,353.436C483.881,357.146 484.688,360.867 485.49,364.588L479.858,364.348L479.165,364.459L478.957,364.627L478.973,365.029L478.627,365.273L477.718,366.125L477.558,366.336L477.438,366.576L477.429,366.666L477.54,366.834L477.581,366.963L477.519,367.146L477.37,367.178L477.21,367.172L477.106,367.213L476.896,367.533L476.946,367.646L477.268,367.688L476.85,368.227L476.301,368.428L475.682,368.539L475.069,368.813L475.149,368.629L475.198,368.393L475.149,368.211L474.934,368.162L474.806,368.258L474.638,368.652L474.467,368.813L474.477,368.563L474.467,368.48L474.089,368.613L473.664,368.629L473.405,368.533L473.532,368.309L473.532,368.162L472.897,368.217L472.318,368.428L470.267,369.455L469.639,369.576L469.002,369.432L468.905,369.82L468.697,369.836L468.407,369.699L468.053,369.594L468.053,369.771L468.248,369.828L468.407,369.916L468.544,370.061L468.687,370.246L468.392,370.496L467.756,371.201L467.739,371.266L467.77,371.453L467.756,371.518L467.69,371.533L467.49,371.502L467.432,371.518L467.338,371.576L467.029,371.678L466.966,371.766L467.056,372.039L467.2,372.209L467.207,372.297L466.885,372.328L466.839,372.242L466.709,372.082L466.572,371.986L466.518,372.074L466.484,372.088L466.331,372.475L465.743,373.189L465.366,373.48L464.851,373.602L464.584,373.721L464.423,374.26L464.228,374.379L463.885,374.309L463.652,374.148L463.458,373.949L463.217,373.764L463.185,374.133L463.145,374.277L462.992,374.432L462.838,374.549L462.668,374.6L462.597,374.463L462.477,374.549L461.647,375.33L461.584,375.709L461.285,376.137L461.124,376.482L461.486,376.617L461.351,377.133L461.221,377.375L461.035,377.582L460.865,377.641L460.353,377.729L460.248,377.818L460.053,379.059L459.95,379.33L459.629,379.484L459.258,379.41L458.822,379.258L458.301,379.17L456.866,379.121L456.499,379.018L456.279,379.145L456.109,379.025L455.941,378.822L455.716,378.695L455.5,378.729L455.361,378.84L455.259,378.961L455.178,379.018L454.993,378.984L454.951,378.896L454.945,378.766L454.856,378.607L454.598,378.471L453.448,378.063L453.068,378.141L452.585,378.471L452.264,378.525L451.507,378.59L450.173,378.26L449.721,378.045L448.676,377.207L445.507,375.268L442.986,374.244L436.088,372.498L424.99,372.564L420.849,372.074L418.652,372.248L406.949,374.76L406.002,375.164L401.681,377.582L401.271,377.973L401.175,378.213L401.095,378.783L400.979,379.018L400.802,379.203L400.704,379.225L400.595,379.203L400.354,379.291L399.918,379.572L399.153,380.295L395.081,385.102L394.815,385.326L394.574,385.486L394.413,385.559L393.93,385.592L389.087,385.029L388.676,385.051L387.461,385.396L386.616,385.396L379.172,384.531L373.168,382.752L372.332,382.268L371.938,381.795L371.287,380.713L370.834,380.225L369.844,379.475L369.299,379.211L368.688,379.08L368.413,379.08L367.85,379.145L367.584,379.232L367.326,379.365L367.229,379.428L367.14,379.418L366.916,379.33L366.747,379.225L364.47,377.152L363.907,376.467L363.602,376.207L363.277,376.057L362.604,375.871L362.273,375.709L361.501,375.107L360.874,374.719L360.341,374.207L360.074,374.012L359.449,373.771L353.668,372.949L352.889,373.023L352.111,373.367L343.82,378.365L343.112,378.59L342.292,378.59L339.917,378.15L339.402,378.244L338.018,379.877L336.94,380.828L336.458,381.068L335.91,381.158L334.214,381.166L333.457,381.086L332.755,380.82L332.023,380.273L331.193,379.5L329.844,377.947L327.42,373.504L323.703,369.432L320.5,366.4L318.979,365.52L317.329,365.17L316.896,365.258L315.576,366L315.34,366.063L315.187,366L315.044,365.867L314.837,365.756L301.936,360.639L301.195,360.477L297.823,361.064L297.197,361.387L296.93,361.732L296.551,362.584L296.237,362.957L295.538,363.463L295.272,363.564L294.493,363.719L291.223,363.574L288.914,363.994L287.597,363.912L287.072,363.678L286.565,363.189L286.041,362.957L285.309,363.037L278.06,364.805L276.821,365.297L275.758,366.053L272.17,369.48L271.532,369.795L270.85,369.924L269.378,369.973L269.328,375.549L268.532,381.068L264.894,386.775L263.413,388.182L258.433,391.924L258.334,392.176L258.56,397.941L257.95,400.984L257.933,401.992L258.505,403.689L258.609,404.48L258.221,405.25L257.836,405.652L257.579,405.982L257.48,406.363L257.611,407.674L257.683,407.908L257.812,408.148L257.892,408.227L257.989,408.283L258.521,408.855L258.801,409.281L258.915,409.742L258.754,410.24L258.479,410.514L257.307,411.215L257.146,411.084L256.935,410.715L256.741,410.611L256.661,410.434L256.621,410.232L256.532,410.057L256.419,409.684L256.331,409.51L256.236,409.412L256.105,409.34L255.953,409.201L255.188,408.111L255.005,407.939L254.755,407.762L253.918,407.463L252.895,406.826L252.637,406.748L252.396,406.604L252.125,406.553L251.811,406.748L251.502,406.883L251.181,406.803L250.91,406.619L250.715,406.434L250.385,406.057L249.861,405.186L249.7,404.758L249.589,404.238L249.531,403.738L249.459,403.617L249.146,403.385L249.082,403.266L245.155,399.689L244.237,398.332L244.013,397.896L243.924,397.775L243.739,397.719L242.981,397.631L242.707,397.533L242.459,397.396L242.274,397.201L242.127,396.689L241.952,396.398L241.717,396.148L241.259,395.898L240.164,394.926L239.892,395.281L239.352,395.297L239.118,395.346L238.661,395.328L238.437,395.369L238.187,395.539L237.823,395.971L237.612,396.141L237.372,396.199L237.13,396.037L236.88,396.131L236.761,396.271L236.697,396.441L236.647,396.619L236.576,396.801L236.254,397.299L236.055,397.422L235.248,397.201L235.086,397.236L234.814,397.438L234.676,397.512L234.565,397.492L234.371,397.379L234.282,397.363L233.47,397.582L233.364,397.654L233.157,397.85L233.026,397.93L232.857,397.941L232.785,397.84L232.754,397.711L232.688,397.654L232.416,397.646L232.205,397.613L232.044,397.68L231.942,397.967L231.803,398.207L231.692,398.17L231.562,398.031L231.393,398L231.273,398.082L231.088,398.348L231.032,398.404L230.742,398.434L230.22,398.41L229.903,398.451L229.349,398.701L229.158,399.104L229.172,399.637L229.398,400.922L230.161,403.094L230.292,403.328L230.453,403.514L230.686,403.705L230.936,403.82L231.151,403.865L231.295,403.973L231.345,404.262L231.33,404.664L231.16,404.695L230.927,404.605L230.694,404.631L230.541,404.801L230.356,405.131L230.203,405.309L230.009,405.363L229.793,405.332L229.599,405.379L229.471,405.676L229.501,405.934L229.768,406.338L229.817,406.57L228.625,405.566C226.591,402.735 224.568,399.896 222.533,397.066L222.099,396.254L222.156,395.578L222.501,395.297L223.812,395.023L223.918,394.941L224.079,394.719L224.224,394.637L224.297,394.66L224.538,394.775L224.65,394.797L226.01,394.686L226.34,394.598L226.501,394.346L226.459,393.84L226.459,393.721L226.531,393.479L226.531,393.383L226.446,393.205L226.154,392.891L226.026,392.705L225.833,392.352L225.729,392.055L225.552,390.652L225.479,390.365L225.325,390.051L225.118,389.791L224.707,389.537L224.464,389.34L224.224,389.092L224.136,388.963L223.998,388.512L223.402,387.814L222.494,387.57L220.273,387.387L220.063,387.508L219.677,387.924L219.428,388.092L219.25,388.063L219.089,387.982L218.904,388.021L218.801,388.133L218.646,388.447L218.261,389.02L218.019,389.473L217.746,389.873L217.36,390.131L216.957,390.17C215.216,390.021 213.476,389.871 211.735,389.721L210.978,389.518L210.342,389.162C207.135,386.467 203.934,383.763 200.726,381.068L200.034,380.723L198.408,380.586L197.748,380.225L197.546,379.854L197.483,379.41C197.474,377.388 197.46,375.364 197.451,373.342L197.748,372.412L198.232,372.49L200.058,373.217L201.281,373.529L201.788,373.738L201.948,373.689L202.175,372.895L202.279,372.637L202.399,372.506L202.818,372.629L203.188,372.967L203.631,373.176L204.25,372.924L203.817,372.443L203.462,372.193L203.083,372.094L202.118,371.977L201.708,371.846L199.228,370.695L198.473,370.141L198.045,369.432L197.926,368.389L197.007,367.404L195.776,366.666L194.723,366.35L193.861,366.43L193.459,366.408L193.017,366.189L192.742,365.93L192.719,365.779L192.799,365.682L192.816,365.596L192.799,365.449L192.799,365.266L192.736,365.104L192.501,365.055L189.476,365.152L188.881,364.941L188.566,364.363L188.663,364.012L188.881,363.518L189.017,363.082L188.865,362.859L188.43,362.697L188.173,362.424L187.94,362.119L187.166,361.611L186.821,361.289L186.546,360.912L186.354,360.477L186.176,360.273L185.702,359.961L185.558,359.791L185.549,359.551L185.733,359.125L185.742,358.924L185.492,358.65L185.098,358.441L184.72,358.191L184.542,357.773L184.494,357.363L184.253,357.16L183.956,357.008L183.747,356.773L183.747,356.566L183.931,356.195L183.956,356.043L183.859,355.842L183.738,355.721L183.593,355.607L183.449,355.447L183.167,355.012L183.062,354.748L183.159,354.473L183.706,353.627L183.81,353.348L183.931,352.623L184.02,352.412L184.237,352.133L184.261,351.938L184.197,351.809L183.222,350.5L179.634,347.221L178.951,346.088L178.822,344.906L180.342,340.582L180.189,339.875L179.529,338.514L179.569,337.85L179.844,337.477L180.157,337.221L180.367,336.906C180.306,336.341 180.244,335.774 180.182,335.209L180.189,334.629L180.374,334.389L183.383,335.146L184.157,335.152L184.881,334.99L186.354,334.477L187.07,334.436L190.603,335.699L190.916,335.674L191.544,335.521C191.983,335.35 192.423,335.18 192.864,335.014L196.349,334.902L196.968,334.766L197.523,334.49C199.784,332.394 202.036,330.287 204.299,328.191L204.911,327.82L205.683,327.635C214.314,327.313 222.947,327.036 231.579,326.742C235.623,326.604 239.668,326.451 243.713,326.332L243.844,326.02L243.844,325.148L243.891,324.725L243.946,324.482L244.116,324.361L244.479,324.281L245.379,324.262C248.497,324.792 251.613,325.326 254.73,325.857L254.85,325.898L255.269,325.977L255.487,323.275L255.712,322.646L257.709,321.424L259.495,319.461L260.332,319.002L262.143,318.654L262.994,318.186L263.574,317.496L263.92,316.668L264.098,315.758L264.306,313.459L264.453,313.021L264.797,312.484L266.125,311.156L266.149,311.092L266.158,311.016L266.158,310.844C266.152,310.821 266.147,310.798 266.141,310.775L266.125,310.754L265.845,310.053L265.755,309.402L265.851,308.748L267.889,303.742L268.233,303.205L268.668,302.744L269.2,302.326L270.199,301.822L270.52,301.523L270.694,300.969C270.688,297.866 270.673,294.765 270.656,291.662L270.711,291.447L271.011,290.982L271.113,290.732L270.986,288.406L271.019,287.979L271.147,287.561L271.333,287.488L271.573,287.471L271.879,287.256C271.851,278.735 271.818,270.215 271.796,261.695C271.773,253.164 271.742,244.632 271.718,236.101C280.194,234.384 288.671,232.675 297.148,230.965C300.225,230.344 303.302,229.724 306.378,229.097L307.407,228.714L308.389,228.021C314.765,222.27 321.111,216.487 327.454,210.701C333.522,205.165 339.692,199.765 345.888,194.373C353.242,189.758 360.601,185.151 367.94,180.513C375.392,175.803 382.841,171.088 390.309,166.405C397.71,161.764 405.063,157.043 412.448,152.375C419.769,147.749 427.064,143.082 434.367,138.427C438.962,135.498 443.566,132.584 448.144,129.628C456.521,131.661 464.899,133.695 473.283,135.704C476.404,136.452 479.52,137.218 482.642,137.964L485.314,139.462C489.893,143.521 494.452,147.603 499.041,151.651Z"/>
        </clipPath>
        <g clip-path="url(#_clip1)">
            <rect x="172.419" y="109.216" width="375.162" height="321.568" style="fill:rgb(13,177,75);fill-rule:nonzero;"/>
            <rect x="172.419" y="109.216" width="375.162" height="214.379" style="fill:white;fill-rule:nonzero;"/>
            <rect x="172.419" y="109.216" width="375.162" height="107.189" style="fill:rgb(224,85,38);fill-rule:nonzero;"/>
            <path d="M360,224.445C385.159,224.445 405.556,244.84 405.556,270C405.556,295.159 385.159,315.556 360,315.556C334.84,315.556 314.445,295.159 314.445,270C314.445,244.84 334.84,224.445 360,224.445Z" style="fill:rgb(224,85,38);fill-rule:nonzero;"/>
        </g>
    </g>
    <g transform="matrix(4.16667,0,0,4.16667,-718.413,-455.067)">
        <path d="M499.041,151.651L499.373,151.829L499.727,151.779C505.411,148.702 511.084,145.603 516.761,142.512L516.77,142.501L516.776,142.495L516.828,142.737C518.234,150.86 519.763,158.961 521.156,167.086C521.213,171.041 521.31,174.995 521.348,178.949L521.443,179.334L521.8,179.698L522.879,180.258L523.313,180.565L524.102,181.522C526.053,184.59 528.048,187.63 529.983,190.707L530.371,191.292C530.621,191.688 530.873,192.082 531.127,192.476L530.211,193.009L529.645,193.94L529.453,195.061L529.639,196.153L529.912,196.774L530.233,197.296L530.643,197.762L532.495,199.236C534.668,201.625 536.811,204.039 538.981,206.43L539.303,206.951L539.351,207.356L539.189,207.767C537.702,210.479 536.224,213.196 534.726,215.903L534.016,217.799C533.358,225.9 532.64,233.997 531.974,242.097C531.307,250.203 530.568,258.303 529.926,266.41C529.325,273.987 528.612,281.555 527.997,289.131L527.852,289.645L527.546,290.09C521.823,296.259 516.106,302.432 510.38,308.597C507.875,311.292 505.361,313.979 502.857,316.676C498.787,322.392 494.724,328.113 490.657,333.832C490.102,335.029 489.539,336.224 488.984,337.422L488.862,337.873L488.831,338.369L488.93,338.844L489.25,339.842L489.271,340.324L489.073,340.875L488.727,341.061L488.291,341.09L487.833,341.197L487.608,341.373L486.877,342.186L486.425,342.5L486.345,342.627L486.386,342.748L486.627,342.963L486.7,343.104L486.852,343.996L486.818,344.438L486.642,344.855L485.878,345.5L484.969,345.676L484.042,345.748L483.222,346.096L482.642,346.389L481.894,347.424L481.886,348.799C482.138,349.737 482.39,350.677 482.642,351.615L482.883,352.686L483.036,353.436C483.881,357.146 484.688,360.867 485.49,364.588L479.858,364.348L479.165,364.459L478.957,364.627L478.973,365.029L478.627,365.273L477.718,366.125L477.558,366.336L477.438,366.576L477.429,366.666L477.54,366.834L477.581,366.963L477.519,367.146L477.37,367.178L477.21,367.172L477.106,367.213L476.896,367.533L476.946,367.646L477.268,367.688L476.85,368.227L476.301,368.428L475.682,368.539L475.069,368.813L475.149,368.629L475.198,368.393L475.149,368.211L474.934,368.162L474.806,368.258L474.638,368.652L474.467,368.813L474.477,368.563L474.467,368.48L474.089,368.613L473.664,368.629L473.405,368.533L473.532,368.309L473.532,368.162L472.897,368.217L472.318,368.428L470.267,369.455L469.639,369.576L469.002,369.432L468.905,369.82L468.697,369.836L468.407,369.699L468.053,369.594L468.053,369.771L468.248,369.828L468.407,369.916L468.544,370.061L468.687,370.246L468.392,370.496L467.756,371.201L467.739,371.266L467.77,371.453L467.756,371.518L467.69,371.533L467.49,371.502L467.432,371.518L467.338,371.576L467.029,371.678L466.966,371.766L467.056,372.039L467.2,372.209L467.207,372.297L466.885,372.328L466.839,372.242L466.709,372.082L466.572,371.986L466.518,372.074L466.484,372.088L466.331,372.475L465.743,373.189L465.366,373.48L464.851,373.602L464.584,373.721L464.423,374.26L464.228,374.379L463.885,374.309L463.652,374.148L463.458,373.949L463.217,373.764L463.185,374.133L463.145,374.277L462.992,374.432L462.838,374.549L462.668,374.6L462.597,374.463L462.477,374.549L461.647,375.33L461.584,375.709L461.285,376.137L461.124,376.482L461.486,376.617L461.351,377.133L461.221,377.375L461.035,377.582L460.865,377.641L460.353,377.729L460.248,377.818L460.053,379.059L459.95,379.33L459.629,379.484L459.258,379.41L458.822,379.258L458.301,379.17L456.866,379.121L456.499,379.018L456.279,379.145L456.109,379.025L455.941,378.822L455.716,378.695L455.5,378.729L455.361,378.84L455.259,378.961L455.178,379.018L454.993,378.984L454.951,378.896L454.945,378.766L454.856,378.607L454.598,378.471L453.448,378.063L453.068,378.141L452.585,378.471L452.264,378.525L451.507,378.59L450.173,378.26L449.721,378.045L448.676,377.207L445.507,375.268L442.986,374.244L436.088,372.498L424.99,372.564L420.849,372.074L418.652,372.248L406.949,374.76L406.002,375.164L401.681,377.582L401.271,377.973L401.175,378.213L401.095,378.783L400.979,379.018L400.802,379.203L400.704,379.225L400.595,379.203L400.354,379.291L399.918,379.572L399.153,380.295L395.081,385.102L394.815,385.326L394.574,385.486L394.413,385.559L393.93,385.592L389.087,385.029L388.676,385.051L387.461,385.396L386.616,385.396L379.172,384.531L373.168,382.752L372.332,382.268L371.938,381.795L371.287,380.713L370.834,380.225L369.844,379.475L369.299,379.211L368.688,379.08L368.413,379.08L367.85,379.145L367.584,379.232L367.326,379.365L367.229,379.428L367.14,379.418L366.916,379.33L366.747,379.225L364.47,377.152L363.907,376.467L363.602,376.207L363.277,376.057L362.604,375.871L362.273,375.709L361.501,375.107L360.874,374.719L360.341,374.207L360.074,374.012L359.449,373.771L353.668,372.949L352.889,373.023L352.111,373.367L343.82,378.365L343.112,378.59L342.292,378.59L339.917,378.15L339.402,378.244L338.018,379.877L336.94,380.828L336.458,381.068L335.91,381.158L334.214,381.166L333.457,381.086L332.755,380.82L332.023,380.273L331.193,379.5L329.844,377.947L327.42,373.504L323.703,369.432L320.5,366.4L318.979,365.52L317.329,365.17L316.896,365.258L315.576,366L315.34,366.063L315.187,366L315.044,365.867L314.837,365.756L301.936,360.639L301.195,360.477L297.823,361.064L297.197,361.387L296.93,361.732L296.551,362.584L296.237,362.957L295.538,363.463L295.272,363.564L294.493,363.719L291.223,363.574L288.914,363.994L287.597,363.912L287.072,363.678L286.565,363.189L286.041,362.957L285.309,363.037L278.06,364.805L276.821,365.297L275.758,366.053L272.17,369.48L271.532,369.795L270.85,369.924L269.378,369.973L269.328,375.549L268.532,381.068L264.894,386.775L263.413,388.182L258.433,391.924L258.334,392.176L258.56,397.941L257.95,400.984L257.933,401.992L258.505,403.689L258.609,404.48L258.221,405.25L257.836,405.652L257.579,405.982L257.48,406.363L257.611,407.674L257.683,407.908L257.812,408.148L257.892,408.227L257.989,408.283L258.521,408.855L258.801,409.281L258.915,409.742L258.754,410.24L258.479,410.514L257.307,411.215L257.146,411.084L256.935,410.715L256.741,410.611L256.661,410.434L256.621,410.232L256.532,410.057L256.419,409.684L256.331,409.51L256.236,409.412L256.105,409.34L255.953,409.201L255.188,408.111L255.005,407.939L254.755,407.762L253.918,407.463L252.895,406.826L252.637,406.748L252.396,406.604L252.125,406.553L251.811,406.748L251.502,406.883L251.181,406.803L250.91,406.619L250.715,406.434L250.385,406.057L249.861,405.186L249.7,404.758L249.589,404.238L249.531,403.738L249.459,403.617L249.146,403.385L249.082,403.266L245.155,399.689L244.237,398.332L244.013,397.896L243.924,397.775L243.739,397.719L242.981,397.631L242.707,397.533L242.459,397.396L242.274,397.201L242.127,396.689L241.952,396.398L241.717,396.148L241.259,395.898L240.164,394.926L239.892,395.281L239.352,395.297L239.118,395.346L238.661,395.328L238.437,395.369L238.187,395.539L237.823,395.971L237.612,396.141L237.372,396.199L237.13,396.037L236.88,396.131L236.761,396.271L236.697,396.441L236.647,396.619L236.576,396.801L236.254,397.299L236.055,397.422L235.248,397.201L235.086,397.236L234.814,397.438L234.676,397.512L234.565,397.492L234.371,397.379L234.282,397.363L233.47,397.582L233.364,397.654L233.157,397.85L233.026,397.93L232.857,397.941L232.785,397.84L232.754,397.711L232.688,397.654L232.416,397.646L232.205,397.613L232.044,397.68L231.942,397.967L231.803,398.207L231.692,398.17L231.562,398.031L231.393,398L231.273,398.082L231.088,398.348L231.032,398.404L230.742,398.434L230.22,398.41L229.903,398.451L229.349,398.701L229.158,399.104L229.172,399.637L229.398,400.922L230.161,403.094L230.292,403.328L230.453,403.514L230.686,403.705L230.936,403.82L231.151,403.865L231.295,403.973L231.345,404.262L231.33,404.664L231.16,404.695L230.927,404.605L230.694,404.631L230.541,404.801L230.356,405.131L230.203,405.309L230.009,405.363L229.793,405.332L229.599,405.379L229.471,405.676L229.501,405.934L229.768,406.338L229.817,406.57L228.625,405.566C226.591,402.735 224.568,399.896 222.533,397.066L222.099,396.254L222.156,395.578L222.501,395.297L223.812,395.023L223.918,394.941L224.079,394.719L224.224,394.637L224.297,394.66L224.538,394.775L224.65,394.797L226.01,394.686L226.34,394.598L226.501,394.346L226.459,393.84L226.459,393.721L226.531,393.479L226.531,393.383L226.446,393.205L226.154,392.891L226.026,392.705L225.833,392.352L225.729,392.055L225.552,390.652L225.479,390.365L225.325,390.051L225.118,389.791L224.707,389.537L224.464,389.34L224.224,389.092L224.136,388.963L223.998,388.512L223.402,387.814L222.494,387.57L220.273,387.387L220.063,387.508L219.677,387.924L219.428,388.092L219.25,388.063L219.089,387.982L218.904,388.021L218.801,388.133L218.646,388.447L218.261,389.02L218.019,389.473L217.746,389.873L217.36,390.131L216.957,390.17C215.216,390.021 213.476,389.871 211.735,389.721L210.978,389.518L210.342,389.162C207.135,386.467 203.934,383.763 200.726,381.068L200.034,380.723L198.408,380.586L197.748,380.225L197.546,379.854L197.483,379.41C197.474,377.388 197.46,375.364 197.451,373.342L197.748,372.412L198.232,372.49L200.058,373.217L201.281,373.529L201.788,373.738L201.948,373.689L202.175,372.895L202.279,372.637L202.399,372.506L202.818,372.629L203.188,372.967L203.631,373.176L204.25,372.924L203.817,372.443L203.462,372.193L203.083,372.094L202.118,371.977L201.708,371.846L199.228,370.695L198.473,370.141L198.045,369.432L197.926,368.389L197.007,367.404L195.776,366.666L194.723,366.35L193.861,366.43L193.459,366.408L193.017,366.189L192.742,365.93L192.719,365.779L192.799,365.682L192.816,365.596L192.799,365.449L192.799,365.266L192.736,365.104L192.501,365.055L189.476,365.152L188.881,364.941L188.566,364.363L188.663,364.012L188.881,363.518L189.017,363.082L188.865,362.859L188.43,362.697L188.173,362.424L187.94,362.119L187.166,361.611L186.821,361.289L186.546,360.912L186.354,360.477L186.176,360.273L185.702,359.961L185.558,359.791L185.549,359.551L185.733,359.125L185.742,358.924L185.492,358.65L185.098,358.441L184.72,358.191L184.542,357.773L184.494,357.363L184.253,357.16L183.956,357.008L183.747,356.773L183.747,356.566L183.931,356.195L183.956,356.043L183.859,355.842L183.738,355.721L183.593,355.607L183.449,355.447L183.167,355.012L183.062,354.748L183.159,354.473L183.706,353.627L183.81,353.348L183.931,352.623L184.02,352.412L184.237,352.133L184.261,351.938L184.197,351.809L183.222,350.5L179.634,347.221L178.951,346.088L178.822,344.906L180.342,340.582L180.189,339.875L179.529,338.514L179.569,337.85L179.844,337.477L180.157,337.221L180.367,336.906C180.306,336.341 180.244,335.774 180.182,335.209L180.189,334.629L180.374,334.389L183.383,335.146L184.157,335.152L184.881,334.99L186.354,334.477L187.07,334.436L190.603,335.699L190.916,335.674L191.544,335.521C191.983,335.35 192.423,335.18 192.864,335.014L196.349,334.902L196.968,334.766L197.523,334.49C199.784,332.394 202.036,330.287 204.299,328.191L204.911,327.82L205.683,327.635C214.314,327.313 222.947,327.036 231.579,326.742C235.623,326.604 239.668,326.451 243.713,326.332L243.844,326.02L243.844,325.148L243.891,324.725L243.946,324.482L244.116,324.361L244.479,324.281L245.379,324.262C248.497,324.792 251.613,325.326 254.73,325.857L254.85,325.898L255.269,325.977L255.487,323.275L255.712,322.646L257.709,321.424L259.495,319.461L260.332,319.002L262.143,318.654L262.994,318.186L263.574,317.496L263.92,316.668L264.098,315.758L264.306,313.459L264.453,313.021L264.797,312.484L266.125,311.156L266.149,311.092L266.158,311.016L266.158,310.844C266.152,310.821 266.147,310.798 266.141,310.775L266.125,310.754L265.845,310.053L265.755,309.402L265.851,308.748L267.889,303.742L268.233,303.205L268.668,302.744L269.2,302.326L270.199,301.822L270.52,301.523L270.694,300.969C270.688,297.866 270.673,294.765 270.656,291.662L270.711,291.447L271.011,290.982L271.113,290.732L270.986,288.406L271.019,287.979L271.147,287.561L271.333,287.488L271.573,287.471L271.879,287.256C271.851,278.735 271.818,270.215 271.796,261.695C271.773,253.164 271.742,244.632 271.718,236.101C280.194,234.384 288.671,232.675 297.148,230.965C300.225,230.344 303.302,229.724 306.378,229.097L307.407,228.714L308.389,228.021C314.765,222.27 321.111,216.487 327.454,210.701C333.522,205.165 339.692,199.765 345.888,194.373C353.242,189.758 360.601,185.151 367.94,180.513C375.392,175.803 382.841,171.088 390.309,166.405C397.71,161.764 405.063,157.043 412.448,152.375C419.769,147.749 427.064,143.082 434.367,138.427C438.962,135.498 443.566,132.584 448.144,129.628C456.521,131.661 464.899,133.695 473.283,135.704C476.404,136.452 479.52,137.218 482.642,137.964L485.314,139.462C489.893,143.521 494.452,147.603 499.041,151.651Z" style="fill:none;stroke:rgb(153,153,153);stroke-width:0.25px;"/>
    </g>
</svg>
