<?xml version="1.0" encoding="UTF-8" standalone="no"?>
<!DOCTYPE svg PUBLIC "-//W3C//DTD SVG 1.1//EN" "http://www.w3.org/Graphics/SVG/1.1/DTD/svg11.dtd">
<svg width="100%" height="100%" viewBox="0 0 1853 1236" version="1.1" xmlns="http://www.w3.org/2000/svg" xmlns:xlink="http://www.w3.org/1999/xlink" xml:space="preserve" xmlns:serif="http://www.serif.com/" style="fill-rule:evenodd;clip-rule:evenodd;stroke-linecap:round;stroke-linejoin:round;stroke-miterlimit:2;">
    <g transform="matrix(4.16667,0,0,4.16667,-573.613,-507.408)">
        <clipPath id="_clip1">
            <path d="M513.143,169.216L508.007,156.858L507.745,156.835L507.407,156.651L507.167,156.383L506.714,155.748L506.109,155.29L504.736,154.782L504.107,154.422L503.736,153.661L503.999,151.772L503.815,151.02L503.473,150.913L502.769,151.632L502.323,151.777L501.9,151.787L501.689,151.823L501.482,151.887L501.299,152.032L501.076,152.437L500.94,152.573L500.58,152.637L500.24,152.575L499.91,152.573L499.212,153.067L498.927,153.071L498.622,152.961L498.24,152.878L497.799,152.933L496.908,153.175L496.455,153.146L495.929,152.673L495.736,151.851L495.661,150.89L495.483,150L495.021,149.155L494.482,148.841L493.024,148.748L492.429,148.478L491.852,147.91L491.431,147.169L491.319,146.38L491.458,146.003L491.704,145.763L492.643,145.158L492.778,145.038L492.877,144.858L492.892,144.602L492.738,144.183L492.756,143.935L493.007,143.63L493.352,143.474L493.59,143.28L493.545,142.867L493.352,142.556L492.877,141.96L492.732,141.611L492.727,140.681L493.081,138.826L492.877,137.856L490.955,134.184L490.48,133.591L489.364,132.58L488.193,131.751L486.701,131.026L485.2,130.728L484.025,131.177L483.908,131.403L483.851,131.646L483.732,131.808L482.582,131.756L482.182,131.185L482.045,130.304L482.011,129.338L481.879,128.436L481.565,127.73L481.062,127.224L480.348,126.918L478.111,126.445L477.47,126.085L476.933,125.602L476.664,125.448L476.316,125.379L474.696,125.606L473.988,125.612L473.336,125.783L473.004,125.927L472.735,126.123L472.546,126.421L472.381,127.102L472.266,127.326L472.014,127.429L471.904,127.206L471.796,126.492L471.648,126.207L471.104,125.379L470.504,124.883L469.115,124.853L468.606,124.396L468.336,124.022L468.045,123.957L467.359,124.233L466.142,124.542L465.774,124.731L465.874,124.872L465.907,125.031L465.885,125.203L465.81,125.382L465.684,126.13L465.381,126.219L465.01,125.891L464.665,125.383L464.603,125.314L464.535,125.257L464.163,125.138L463.756,125.165L462.973,125.382L462.481,125.789L460.903,126.791L459.983,127.544L459.53,127.709L458.284,127.555L457.976,127.633L457.708,127.842L457.581,128.169L457.489,128.976L457.312,129.212L456.198,129.581L455.647,129.577L455.089,129.363L454.526,129.221L452.979,128.241L452.395,127.998L451.239,127.783L448.729,127.675L446.258,128.097L445.647,127.998L445.058,127.914L443.811,128.084L442.902,128.017L441.958,128.348L441.688,128.382L441.408,128.347L440.854,128.199L440.26,128.136L437.434,128.436L437.132,128.549L436.672,128.862L436.45,128.97L436.194,128.957L435.611,128.719L435.142,128.833L434.683,129.077L434.135,129.232L432.466,129.316L430.887,129.084L429.634,129.173L428.415,129.462L427.502,129.933L426.317,130.935L425.923,131.041L425.054,130.985L424.276,131.242L423.44,131.292L421.771,131.674L420.94,132.028L420.639,132.246L420.564,132.545L420.845,132.997L420.98,133.382L420.649,133.574L419.552,133.728L419.077,133.882L418.854,134.003L418.689,134.203L418.722,134.397L418.798,134.596L418.773,134.808L418.471,135.098L417.694,135.286L417.303,135.506L416.996,135.821L416.103,136.336L415.842,136.553L415.61,136.795L415.367,137.004L415.063,137.118L413.84,137.199L413.449,137.449L413.479,138.189L413.801,138.823L413.852,139.143L413.626,139.402L413.331,139.511L413.033,139.528L412.752,139.416L412.197,138.82L411.112,138.087L410.729,137.929L410.372,137.967L410.189,138.168L409.967,138.89L409.807,139.266L409.654,139.515L409.179,139.983L409.086,140.34L409.281,140.7L409.39,141.006L409.023,141.206L408.566,141.302L408.211,141.432L407.893,141.645L406.452,143.257L406.067,143.557L404.873,143.976L404.774,144.129L404.678,144.625L404.546,144.844L404.368,144.971L403.798,145.246L403.055,145.728L402.956,145.899L402.858,146.394L402.763,146.607L402.155,147.223L401.973,147.583L402.071,148.019L402.275,148.209L402.956,148.583L403.22,148.786L403.707,149.308L404.216,149.519L404.747,149.637L405.295,149.873L405.576,150.203L405.655,150.964L405.856,151.315L406.714,151.925L406.982,152.277L407.618,153.414L407.735,153.757L407.76,153.988L407.743,154.188L407.743,154.397L407.829,154.659L407.937,154.819L408.218,155.039L408.337,155.167L408.578,155.575L408.664,155.985L408.554,156.407L408.211,156.846L407.971,157.31L408.148,157.703L408.532,158.011L409.572,158.521L409.877,158.753L410.055,159.095L410.042,159.539L409.916,159.957L409.831,160.395L409.945,160.908L410.189,161.265L410.441,161.548L410.602,161.862L410.573,162.312L410.385,162.65L409.464,163.455L408.887,164.208L408.853,164.831L409.19,165.414L410.237,166.618L410.814,167.084L410.894,167.394L410.729,167.844L410.253,168.579L408.95,169.489L408.458,170.099L408.43,171.106L408.532,171.338L408.503,171.555L408.372,171.741L408.166,171.888L408.166,171.889L408.16,171.889L408.16,171.892L408.013,172.133L407.847,172.666L407.715,172.908L407.531,173.07L404.981,174.105L404.312,174.622L403.957,175.327L403.671,176.106L402.676,177.528L402.42,177.783L401.692,178.166L400.36,179.25L400.165,179.518L400.138,179.867L400.279,180.377L400.349,180.851L400.286,181.409L400.087,181.867L399.737,182.034L398.972,181.914L398.571,181.918L398.25,182.066L398.027,182.471L398.003,182.972L398.108,183.485L398.289,183.911L398.679,184.5L399.218,185.152L399.801,185.716L401.145,186.466L401.229,187.028L400.676,188.616L400.67,189.026L400.854,189.822L400.91,190.281L400.881,190.827L400.766,191.13L400.234,191.736L400.029,192.187L400.045,192.562L400.108,192.922L400.022,193.348L399.72,193.629L398.8,193.822L398.409,193.957L398.192,194.264L397.97,194.469L397.702,194.558L397.354,194.528L396.843,194.366L396.653,194.418L396.575,194.709L396.237,195.379L394.899,195.631L392.342,195.604L389.811,195.968L389.232,195.949L387.67,195.612L386.144,195.549L385.801,195.448L385.149,195.119L384.08,195.017L379.996,193.586L379.361,193.541L378.354,193.696L377.852,193.87L377.537,194.189L377.498,194.548L377.56,194.888L377.524,195.226L377.188,195.568L376.941,195.9L377.056,196.234L377.611,196.788L377.777,197.086L378.029,197.945L378.194,198.304L378.646,198.966L378.812,199.305L378.949,199.747L379.145,200.181L379.431,200.359L380.167,200.461L381.187,200.897L381.986,200.755L382.176,200.999L382.336,201.895L382.449,202.245L382.53,202.361L382.702,202.505L383.015,202.654L383.159,202.759L383.233,202.907L383.222,203.455L382.832,204.879L382.804,205.307L382.872,205.741L383.039,206.145L383.301,206.489L383.45,206.588L383.977,206.762L384.108,206.88L384.25,207.243L384.348,207.408L385.342,208.529L385.64,209.229L385.51,209.97L382.302,212.666L381.936,212.873L381.523,212.839L381.071,212.688L380.848,212.775L380.219,213.974L380.076,214.175L379.843,214.277L379.299,214.23L379.109,214.27L377.69,215.13L376.896,215.19L375.633,214.557L374.9,214.682L374.01,215.322L373.666,215.407L373.493,215.373L373.336,215.298L373.157,215.243L372.545,215.362L372.156,215.349L371.396,215.452L370.767,215.862L370.263,216.496L369.902,217.261L370.252,219.693L370.067,220.341L369.954,220.446L369.47,220.815L369.004,221.463L368.366,221.941L368.158,222.242L368.191,222.68L368.29,222.856L368.429,223.003L368.594,223.114L368.754,223.18L368.885,223.279L368.932,223.449L368.965,223.839L369.159,224.58L369.097,224.852L368.867,225.292L367.873,226.787L367.542,227.065L366.757,227.339L366.375,227.583L365.802,228.303L365.448,229.148L365.355,230.068L365.557,231.027L366.043,232.271L366.111,232.738L366.094,233.223L365.962,234.174L365.951,235.115L365.809,236.053L365.791,236.534L366.162,238.634L366.757,240.321L366.809,240.609L366.694,240.813L365.791,241.492L365.276,242.049L363.206,245.24L362.938,245.543L362.651,245.724L362.401,246.121L361.806,246.667L361.124,247.155L360.616,247.368L359.935,247.319L359.289,247.525L358.094,248.141L357.339,248.228L356.841,247.873L355.967,246.615L355.481,246.046L355.338,245.721L355.28,244.828L355.161,244.558L354.92,244.422L353.855,244.227L352.752,243.601L352.118,243.354L351.695,243.359L351.248,243.515L350.432,243.951L350.064,244.239L350.128,244.456L350.46,244.602L350.872,244.668L352.003,244.641L352.369,244.692L352.542,244.891L352.295,245.167L351.89,245.411L351.563,245.515L350.86,245.401L348.881,244.692L348.132,244.632L347.383,244.668L346.972,244.605L346.737,244.373L346.542,244.081L346.063,243.687L345.645,243.458L345.158,243.289L344.77,243.317L344.529,243.608L344.129,244.554L343.917,244.934L343.294,245.508L343.203,245.709L343.14,246.174L343.031,246.33L342.042,246.882L341.722,247.138L341.51,247.439L341.304,247.549L340.537,247.591L339.966,247.494L339.709,247.506L339.183,247.762L338.016,249.075L336.986,249.796L336.415,250.03L335.831,250.089L334.604,249.817L334.008,249.831L333.765,250.222L333.901,250.549L334.18,250.884L334.426,251.266L334.537,252.126L334.81,252.457L335.188,252.693L335.561,252.797L337.129,252.59L337.816,252.811L337.901,253.733L337.707,254.145L337.415,254.279L336.654,254.25L336.346,254.34L336.083,254.53L335.84,254.758L334.635,255.531L334.285,255.66L333.275,255.85L332.578,256.149L331.455,256.303L330.146,256.859L329.798,256.925L328.588,256.815L327.608,256.862L327.295,256.825L326.906,256.687L326.217,256.305L325.841,256.192L325.464,256.208L324.739,256.389L324.356,256.383L323.922,256.305L323.689,256.228L323.545,256.114L323.519,255.936L323.594,255.803L323.699,255.668L323.747,255.489L323.708,254.998L323.573,254.695L323.295,254.545L322.185,254.57L321.478,254.773L320.204,255.4L319.639,255.891L319.199,256.396L318.712,256.768L317.989,256.869L317.53,257.186L316.89,259.663L316.529,260.165L314.754,261.992L314.328,262.181L311.773,262.701L311.452,262.875L311.281,263.176L309.423,270.211L309.367,271.163L309.688,272.03L310.145,272.619L310.289,272.899L310.395,273.344L310.441,273.792L310.086,276.671L310.129,277.987L310.046,278.405L308.826,280.885L308.549,281.708L308.503,282.051L308.617,282.343L309.282,282.806L310.059,283.596L310.641,284.045L310.794,284.25L310.724,284.348L310.566,284.404L310.453,284.469L310.063,285.137L309.561,285.801L308.057,286.879L306.447,287.351L305.35,287.671L304.252,287.992L303.153,288.31L302.06,288.633L300.961,288.952L299.864,289.271L298.768,289.591L297.668,289.911L296.571,290.233L295.473,290.553L294.378,290.871L293.28,291.19L292.187,291.51L289.989,292.152L288.893,292.469L286.151,293.268L285.212,293.238L282.068,292.668L279.491,292.648L275.595,292.615L270.494,294.135L269.83,294.474L269.398,295.033L268.711,296.375L268.194,296.582L266.039,295.656L262.561,294.985L258.417,294.19L255.532,294.459L254.603,294.547L253.677,294.636L252.749,294.722L251.824,294.809L250.897,294.895L249.97,294.982L249.044,295.068L248.119,295.157L247.19,295.246L246.266,295.331L245.337,295.42L244.412,295.506L243.485,295.593L242.558,295.679L241.633,295.767L240.707,295.853L237.799,296.124L235.852,295.758L234.057,295.183L232.486,294.678L230.912,294.174L229.336,293.667L227.766,293.16L226.192,292.658L224.617,292.152L223.044,291.646L221.471,291.144L219.899,290.637L218.325,290.128L216.752,289.624L215.179,289.117L213.607,288.612L212.035,288.106L210.459,287.6L208.886,287.092L207.537,286.657L206.94,286.387L208.465,288.188L209.464,289.365L210.699,290.84L212.123,292.536L213.601,294.302L215.155,296.152L215.525,296.451L215.923,296.61L216.255,296.847L216.429,297.394L216.394,297.815L216.169,298.57L216.169,298.992L216.349,299.432L216.951,300.094L217.193,300.465L217.251,300.704L217.302,301.24L217.4,301.487L217.601,301.714L217.772,301.776L217.947,301.798L218.152,301.906L218.345,302.212L218.444,302.578L218.589,302.89L218.913,303.027L219.097,303.176L219.152,303.361L219.086,303.557L218.913,303.741L218.776,303.879L218.723,304.012L218.767,304.137L218.913,304.25L219.157,304.362L219.368,304.527L219.534,304.75L220.333,306.581L220.441,306.999L220.487,307.359L220.585,307.681L221.13,308.288L221.671,309.47L222.219,310.141L224.168,311.906L224.954,312.92L226.152,314.029L226.75,314.72L227.1,314.909L228.23,315.225L229.132,315.744L229.703,315.922L230.96,316.028L231.563,316.158L233.135,316.859L235.631,317.364L236.155,317.637L236.375,317.895L236.538,318.181L236.731,318.439L237.037,318.613L237.352,318.717L237.549,318.84L237.681,319.057L237.804,319.428L238.079,319.891L239.272,321.179L239.654,321.42L242.746,320.793L243.166,321.047L243.257,321.794L242.98,323.985L242.678,326.405L243.026,327.879L243.521,329.921L243.636,331.187L243.793,332.9L243.887,333.966L244.069,335.924L244.171,337.027L244.056,337.908L243.062,340.137L243.433,340.586L243.527,340.814L243.492,341.157L243.404,341.461L243.29,341.697L243.104,341.837L242.804,341.854L243.621,342.58L243.904,342.736L244.054,342.731L244.315,342.58L244.448,342.557L244.599,342.608L245.043,342.853L245.64,342.982L246.153,342.955L247.254,342.736L247.745,342.658L248.733,342.355L249.236,342.33L249.551,342.363L249.794,342.355L250.828,342.028L251.019,342.032L251.254,342.117L251.744,342.564L251.958,342.698L252.424,342.867L252.597,342.978L252.798,343.194L253.069,343.593L253.711,345.016L253.386,344.888L252.974,344.89L252.602,345.051L252.395,345.391L252.325,345.603L252.124,345.891L252.044,346.102L252.017,346.35L252.112,348.732L252.283,349.126L252.519,349.469L252.677,349.808L252.616,350.194L252.333,350.45L251.565,350.575L251.254,350.738L251.116,351.069L250.965,354.124L250.766,354.966L250.342,355.379L250.152,355.371L250.005,355.295L249.869,355.198L249.705,355.123L249.524,355.105L248.974,355.229L248.227,355.208L247.492,355.096L245.782,355.054L244.303,355.019L243.016,354.985L242.81,355.046L242.666,355.235L242.471,355.596L242.344,355.692L242.203,355.768L242.04,355.831L241.456,355.961L241.294,355.949L241.083,355.846L240.88,355.807L240.718,355.905L240.569,356.063L240.412,356.186L240.025,356.318L236.864,356.654L236.684,356.705L236.536,356.819L236.382,357.096L236.271,357.194L236.077,357.245L235.678,357.226L235.5,357.245L235.344,357.314L235.1,357.494L234.946,357.58L234.577,357.727L234.412,357.831L234.294,357.99L234.258,358.173L234.314,358.312L234.387,358.43L234.405,358.56L234.209,358.925L233.616,359.508L233.481,359.769L233.584,360.248L233.769,360.635L233.786,360.933L233.375,361.148L232.667,361.051L231.828,360.753L231.116,360.659L230.795,361.169L230.727,361.685L230.556,361.899L229.773,362.029L229.386,362.15L229.034,362.324L228.355,362.774L226.077,363.417L225.619,363.775L225.345,364.339L225.184,364.988L225.01,366.263L224.86,367.386L224.681,368.689L224.442,370.429L224.243,371.887L224.137,372.254L223.851,372.603L223.521,372.677L223.157,372.669L222.756,372.766L222.358,373.313L222.453,374.083L222.66,374.906L222.606,375.627L222.487,375.788L222.209,376.065L222.098,376.266L222.034,376.565L221.956,377.781L221.843,379.564L221.709,381.634L221.596,383.388L221.006,385.126L221.46,385.156L221.684,385.078L221.871,385.087L222.175,385.156L222.792,385.134L223.006,385.156L223.163,385.228L223.256,385.33L223.374,385.417L223.595,385.454L223.704,385.498L223.954,385.689L224.052,385.725L224.157,385.675L224.324,385.492L224.379,385.454L224.51,385.409L224.617,385.354L224.688,385.417L224.698,385.725L224.629,385.945L224.378,386.297L224.32,386.517L224.303,386.787L224.249,386.927L224.052,387.155L223.729,387.416L223.656,387.595L223.794,387.876L223.603,388.095L223.69,388.321L223.913,388.499L224.116,388.57L224.426,388.519L224.915,388.31L225.225,388.274L225.673,388.522L225.901,388.53L226.09,387.932L226.259,387.754L226.327,387.576L226.128,387.309L226.54,387.179L227.337,386.809L227.747,386.729L229.365,386.857L230.207,387.061L230.62,387.097L230.795,386.935L230.336,386.304L230.165,386.193L230.141,385.938L230.2,385.65L230.267,385.454L230.726,385.061L231.528,384.784L232.413,384.627L233.117,384.59L233.551,384.681L233.975,384.889L234.376,385.181L234.731,385.523L234.801,385.692L234.817,385.926L234.795,386.375L234.742,386.619L234.61,386.659L234.441,386.646L234.278,386.729L234.219,386.781L234.151,386.828L234.081,386.899L234.02,387.014L234.472,387.215L235.196,387.348L235.881,387.315L236.226,387.014L235.997,386.946L235.382,386.842L235.191,386.729L235.135,386.418L235.267,386.091L235.489,385.803L235.698,385.594L236.063,385.325L236.603,385.031L237.178,384.879L237.656,385.027L238.031,384.873L237.622,384.681L237.57,384.393L237.804,384.136L238.236,384.024L240.68,383.828L243.346,383.88L246.594,384.59L248.206,384.745L248.644,384.666L249.817,384.024L250.401,383.901L251.051,383.961L252.294,384.306L253.183,384.693L253.502,384.745L254.802,384.59L255.448,384.701L256.538,385.188L257.138,385.299L257.252,385.262L257.347,385.161L257.42,385.027L257.465,384.873L257.483,384.735L257.448,384.679L257.354,384.613L256.78,383.919L256.638,383.65L256.551,383.313L256.851,383.415L257.045,383.27L257.325,382.745L257.837,382.165L258.152,381.922L258.497,381.737L259.103,381.543L260.34,381.35L261.62,381.314L262.891,381.531L264.811,382.232L265.52,382.364L266.003,382.165L266.333,382.294L266.668,382.28L267.37,382.165L267.704,382.165L267.837,382.128L268.08,381.737L267.739,381.026L267.5,380.668L267.242,380.674L266.98,380.953L266.796,381.068L266.656,380.968L266.519,380.601L266.414,380.664L266.133,380.745L266.38,380.482L267.435,379.964L267.643,380.144L268.118,380.101L268.983,379.892L269.234,379.899L269.425,379.939L269.51,380.035L269.427,380.341L269.237,380.409L268.794,380.318L268.582,380.318L268.349,380.349L268.16,380.453L268.08,380.674L268.153,380.936L268.321,381.094L268.496,381.2L268.595,381.313L268.533,381.681L268.367,382.052L268.363,382.343L270.053,382.701L271.2,382.745L271.355,382.847L271.597,383.117L271.775,383.171L272.592,383.25L273.394,383.442L273.808,383.683L274.464,384.319L274.876,384.447L275.042,384.424L275.411,384.329L275.649,384.306L275.875,384.219L276.147,383.779L276.375,383.597L276.728,383.59L277.26,383.707L277.783,383.892L278.114,384.093L278.437,384.575L278.425,384.929L277.92,385.725L278.203,385.725L278.681,385.862L278.953,385.879L279.845,385.61L279.998,385.594L279.977,385.362L279.732,385.228L279.419,385.137L279.212,385.027L279.111,384.814L279.101,384.563L279.212,384.024L279.397,383.572L279.728,383.139L280.155,382.79L280.641,382.591L281.829,382.497L282.432,382.563L282.846,382.745L283.386,382.5L283.973,382.528L285.104,382.745L286.265,382.745L286.583,382.788L287.166,382.974L287.702,383.051L288.183,383.174L288.404,383.171L288.69,383.102L288.879,383.016L289.024,382.859L289.459,382.097L289.862,381.622L290.378,381.417L290.998,381.737L291.392,381.491L291.824,381.314L292.328,381.208L292.944,381.171L292.786,381.501L292.699,381.609L293.047,381.703L293.461,381.587L293.901,381.405L294.31,381.313L294.694,381.361L297.371,382.114L297.794,382.165L298.16,382.104L299.159,381.609L299.936,381.469L300.594,381.098L301.042,380.963L301.692,380.645L302.127,380.601L302.94,380.623L304.454,380.395L305.672,380.05L307.377,380.035L307.903,379.907L308.517,379.661L309.127,379.494L309.633,379.607L310.26,379.452L311.16,379.654L312.625,380.318L313.162,380.771L313.511,380.999L313.787,381.043L314.035,380.714L313.779,380.377L313.011,379.892L313.669,379.324L313.361,379.068L312.99,379.013L312.629,379.111L312.365,379.324L312.152,379.115L311.873,378.662L311.71,378.471L311.49,378.366L311.237,378.297L311.031,378.188L310.95,377.967L310.726,377.818L310.213,377.803L309.642,377.89L309.246,378.031L309.223,378.13L309.248,378.277L309.258,378.414L309.188,378.471L309.083,378.479L309.002,378.505L308.934,378.544L308.873,378.599L308.596,378.94L308.395,379.111L308.157,379.182L306.657,379.446L306.15,379.454L306.256,379.253L306.438,379.024L306.653,378.835L306.856,378.754L306.962,378.643L307.311,377.901L307.528,377.554L307.836,377.227L308.221,376.987L308.898,376.85L309.061,376.749L309.174,376.646L309.246,376.597L309.479,376.604L309.873,376.721L310.097,376.75L310.765,376.678L311.145,376.543L311.465,376.312L311.408,376.767L311.696,377.003L312.156,377.042L312.625,376.893L312.761,377.212L313.398,377.901L313.494,378.134L313.562,378.396L313.681,378.552L313.927,378.471L313.956,378.563L314.014,378.658L314.055,378.754L314.399,378.552L314.601,379.091L314.773,379.823L315.029,380.189L315.461,380.465L315.541,381.019L315.312,381.44L314.831,381.313L314.723,381.727L314.964,382.058L315.615,382.461L316.62,383.438L316.831,383.597L317.107,383.734L317.79,384.354L317.927,384.521L318.001,384.905L318.297,385.56L318.313,386.009L318.206,386.346L317.851,386.813L317.681,387.155L317.587,387.549L317.54,388.789L317.241,390.377L317.244,391.172L317.681,391.416L317.681,391.556L317.161,391.813L316.779,392.245L316.729,392.649L317.21,392.827L317.433,392.787L317.906,392.602L318.905,392.483L319.097,392.404L319.535,392.642L320,392.547L320.503,392.382L321.035,392.404L321.438,392.649L321.788,392.959L322.15,393.201L322.606,393.253L322.51,393.093L322.467,392.936L322.464,392.559L322.606,392.559L322.755,392.775L323.023,393.004L323.359,393.182L323.699,393.253L324.469,393.84L324.825,393.997L324.659,393.548L324.798,393.395L325.153,393.522L325.364,393.509L325.566,393.438L325.901,393.395L326.065,393.465L326.212,393.635L326.319,393.848L326.428,394.287L326.593,394.336L327.284,394.192L327.491,394.088L327.662,394.066L327.894,394.254L328.09,394.539L328.043,394.694L327.508,394.975L327.041,395.31L326.582,395.764L326.229,396.299L326.088,396.874L326.139,397.272L326.287,397.346L326.529,397.272L326.861,397.232L327.212,397.312L327.495,397.449L328.036,397.796L327.74,397.929L327.387,397.962L327.034,397.911L326.734,397.796L326.764,398.093L326.827,398.396L326.94,398.688L327.121,398.939L327.548,398.995L327.627,399.145L327.251,399.489L327.623,399.894L327.926,400.326L328.118,400.8L328.152,401.336L328.433,401.172L328.565,401.062L328.681,400.912L328.434,401.831L328.396,402.366L328.611,402.604L329.411,402.602L329.738,402.682L330.112,402.885L329.623,402.833L329.043,402.908L328.67,403.18L328.798,403.728L328.731,403.818L328.627,404.04L328.542,404.178L328.715,404.409L328.789,404.577L328.811,405.6L328.85,405.868L328.939,406.134L329.434,407.009L329.633,407.52L329.715,408.191L329.953,408.509L330.513,408.596L331.59,408.524L332.094,408.649L332.508,408.855L332.896,408.899L333.338,408.524L333.275,408.838L333.09,409.043L332.564,409.392L332.3,409.301L332.111,409.518L331.789,410.224L332.023,410.337L332.83,410.503L332.709,410.962L332.656,411.291L332.693,411.498L332.882,411.547L333.087,411.441L333.291,411.296L333.478,411.217L333.323,411.426L333.1,411.881L332.95,412.061L332.761,412.171L332.623,412.182L332.488,412.166L332.307,412.201L332.544,412.371L333.595,412.621L333.392,412.437L333.282,412.206L333.327,412.04L333.595,412.061L333.811,412.257L333.959,412.509L334.122,412.606L334.381,412.339L334.402,412.712L334.595,412.964L334.875,413.052L335.155,412.915L335.307,412.555L335.323,411.697L335.555,411.347L335.572,411.414L335.565,411.473L335.586,411.505L335.673,411.498L335.673,411.626L335.565,411.881L335.414,413.042L335.335,413.246L335.251,413.4L335.184,413.569L335.155,413.819L335.198,414.007L335.316,414.043L335.481,414.021L335.673,414.036L336.369,414.212L336.786,414.252L337.101,414.176L337.318,413.9L337.266,413.605L337.072,413.349L336.844,413.183L337.873,413.645L338.433,413.817L338.977,413.883L339.119,413.598L339.308,412.241L339.422,411.78L339.577,411.967L339.6,412.728L339.685,413.042L339.96,412.747L340.121,412.651L340.269,412.69L340.383,412.86L340.36,413.128L340.458,413.335L340.589,413.389L340.761,413.38L340.915,413.401L340.983,413.539L341.058,413.755L341.23,413.896L341.441,413.983L341.63,414.036L341.658,413.972L341.841,413.881L342.047,413.849L342.145,413.96L342.167,414.135L342.225,414.382L342.311,414.608L342.42,414.725L342.619,414.602L342.831,414.235L343.18,413.475L342.945,413.006L342.42,411.217L342.619,411.299L343.064,411.591L343.362,411.547L343.322,411.792L343.18,412.339L343.283,412.809L343.534,413.219L343.831,413.544L344.095,413.755L344.095,413.883L343.831,413.883L343.706,413.964L343.563,414.318L343.546,414.419L343.563,414.801L343.506,414.888L343.237,415.086L343.18,415.232L343.346,415.658L343.706,415.954L344.026,415.941L344.095,415.438L344.627,415.966L344.976,416.245L345.136,416.21L345.084,415.839L344.884,415.246L344.867,414.877L344.97,414.472L345.308,413.668L345.381,413.258L345.347,413.16L345.187,412.89L345.136,412.762L345.118,412.558L345.136,411.918L345.622,413.185L346.068,412.493L346.216,412.395L346.554,412.245L346.685,412.162L346.742,412.154L346.932,412.19L347.005,412.186L347.074,412.111L347.028,412.032L346.948,411.963L346.914,411.922L346.937,411.79L346.926,411.606L346.972,411.421L347.137,411.281L347.331,411.246L347.4,411.33L347.445,411.492L347.56,411.685L347.828,411.804L348.086,411.693L348.31,411.448L348.481,411.178L348.458,411.033L348.384,410.826L348.396,410.653L348.624,410.611L348.744,410.692L348.813,410.857L348.836,411.051L348.836,411.212L349.436,410.779L350.306,410.642L352.507,410.656L354.365,410.669L355.84,410.681L355.853,407.823L355.863,405.663L355.868,404.008L356.275,403.145L357.254,403.188L357.527,403.614L357.643,404.813L358.002,405.096L358.19,404.94L358.781,403.843L358.843,403.677L358.877,403.507L358.975,403.386L359.238,403.361L359.408,403.431L359.575,403.57L359.713,403.738L360.078,404.398L360.341,404.668L360.685,404.706L361.193,404.517L361.965,404.091L362.325,404.023L362.783,404.16L363.847,404.68L364.195,404.753L364.944,404.641L366.352,404.122L371.688,404.267L372.242,404.517L373.718,406.081L374.554,406.495L375.582,406.619L379.412,406.563L380.248,406.382L380.929,405.806L381.136,405.431L381.593,404.146L381.792,403.812L382.014,403.685L382.678,403.624L383.764,403.259L384.154,403.235L384.524,403.157L385.218,402.65L385.582,402.479L386.619,402.42L386.95,402.294L387.813,401.683L389.786,401.21L390.582,401.226L390.816,401.722L390.703,401.933L390.376,402.149L390.272,402.277L390.255,402.505L390.438,403.229L390.53,404.05L390.673,404.347L390.994,404.654L391.691,404.999L394.218,405.2L394.608,405.092L395.315,404.726L395.706,404.584L396.031,404.51L396.15,404.37L395.898,404.027L395.836,403.665L396.127,403.295L397.285,402.515L397.639,402.399L397.998,402.427L398.409,402.604L398.776,402.621L398.978,402.467L399.112,402.234L399.313,402.006L400.222,401.681L400.405,401.485L400.258,400.974L399.6,400.759L398.839,400.632L398.409,400.384L398.353,400.234L398.33,400.08L398.337,399.925L398.364,399.763L398.409,399.35L398.473,399.207L398.496,399.069L398.478,398.943L398.409,398.825L398.045,398.502L397.987,397.915L398.136,397.269L398.409,396.774L399.656,396.165L400.045,395.887L399.537,395.097L398.902,393.287L397.763,391.511L397.236,390.421L396.827,389.275L396.19,386.42L395.979,385.926L395.654,385.51L394.464,384.475L393.83,383.764L393.607,383.351L393.521,382.859L393.372,382.34L392.612,381.516L392.309,381.078L392.164,380.353L392.28,377.969L392.365,376.14L392.297,375.29L391.891,374.729L391.136,374.573L390.42,374.782L389.707,375.095L388.962,375.251L386.749,375.313L385.682,375.079L384.942,374.813L384.65,374.597L384.377,374.11L383.989,372.955L383.64,372.525L382.862,371.848L382.119,370.965L381.518,369.956L381.162,368.903L381.157,368.586L381.322,367.501L381.34,366.754L381.427,366.409L382.438,364.716L382.718,363.941L382.811,363.173L382.666,362.329L382.639,361.924L382.741,361.514L382.912,361.078L382.976,360.716L382.912,359.884L383.021,358.155L382.931,357.383L382.393,356.701L381.713,356.327L381.003,356.144L376.457,356.327L375.639,356.016L374.277,354.8L373.504,354.279L370.572,353.071L369.984,352.409L369.836,351.542L370.229,349.033L370.64,346.435L371.15,344.84L371.92,343.512L373.637,341.788L374.854,340.937L377.073,338.818L378.207,336.976L379.825,335.413L380.265,334.788L381.662,330.691L381.871,330.304L383.703,328.407L385.005,327.466L386.064,326.291L386.406,326.054L386.739,325.952L387.471,325.838L388.201,325.547L388.563,325.451L388.962,325.507L389.519,325.685L390.05,325.96L390.525,326.332L391.147,327.056L391.68,327.489L391.908,327.755L392.068,328.187L391.993,328.976L392.051,329.389L392.634,330.742L393.366,331.805L394.339,332.471L395.66,332.646L397.209,332.299L399.359,331.233L401.688,330.078L403.116,329.59L404.724,329.243L406.358,329.101L407.856,329.227L409.436,329.097L412.096,328.283L415.108,327.359L415.36,327.158L415.469,326.835L415.686,324.231L415.788,323.84L416.002,323.412L417.511,321.439L419.831,319.528L420.569,318.756L421.091,317.831L421.474,316.809L422.583,312.512L423.034,311.621L424.436,309.907L424.955,309.547L427.667,308.134L430.178,306.821L432.334,305.696L434.77,304.423L435.085,304.203L435.319,303.886L435.93,302.396L436.416,301.584L437.595,299.999L439.069,297.151L439.995,295.356L441.032,293.347L442.016,290.162L442.82,287.533L443.627,284.884L443.912,284.562L447.172,283.036L450.609,282.256L451.336,281.846L454.476,279.217L454.563,278.587L454.292,277.633L453.864,276.703L453.479,276.138L452.548,275.631L452.604,275.544L452.726,275.203L453.029,274.88L453.405,274.683L453.756,274.721L453.721,274.574L453.675,274.267L453.636,274.125L453.955,274.231L454.189,274.192L454.379,274.038L455.332,272.69L455.453,272.404L455.615,272.229L456.363,272.019L456.613,271.74L456.688,271.212L456.631,270.801L456.608,270.427L456.803,270.012L457.082,269.676L457.341,269.431L457.632,269.231L458.032,269.029L458.474,268.94L458.621,268.823L458.679,268.513L458.741,268.337L459.017,268.127L459.142,267.685L459.285,267.51L459.593,267.237L459.983,266.654L460.143,266.499L460.423,266.284L460.566,266.125L460.549,265.968L460.377,265.535L460.445,265.444L460.817,265.328L461.201,265.033L461.412,264.643L461.276,264.248L461.4,264.02L461.562,263.822L461.761,263.689L462.001,263.637L462.212,263.653L462.705,263.799L463.111,263.83L463.26,263.657L463.339,263.349L463.547,262.972L463.871,262.667L464.192,262.508L464.548,262.449L464.963,262.439L465.342,262.309L465.633,262.008L465.896,261.659L466.187,261.391L466.192,260.938L466.479,260.55L466.884,260.244L467.979,259.646L467.816,259.442L467.467,259.126L467.188,258.955L466.806,258.945L465.982,259.095L465.672,258.959L465.421,258.647L465.255,258.372L465.157,258.061L465.095,257.635L465.146,257.189L465.45,256.316L465.456,255.33L465.588,254.825L466.331,252.929L466.56,252.549L466.869,252.161L467.092,251.808L467.188,251.396L467.143,250.978L466.571,250.104L466.026,248.012L464.963,246.075L464.775,245.827L464.837,245.752L465.038,245.397L465.077,245.366L465.227,245.296L465.283,245.248L465.323,245.149L465.374,244.885L465.41,244.781L465.558,244.574L465.64,244.501L465.672,244.4L465.684,244.109L465.748,243.622L465.931,243.265L466.216,242.966L467.64,241.858L467.949,241.744L468.188,241.557L468.727,240.534L469.944,240.786L470.338,240.7L470.694,240.125L470.859,239.349L471.187,238.867L472.025,239.174L472.329,238.792L472.701,238.725L473.129,238.772L473.587,238.717L473.817,238.591L473.936,238.436L474.016,238.248L474.165,238.031L474.343,237.937L474.807,237.972L474.993,237.958L474.851,237.332L475.194,237.258L476.355,237.7L476.509,237.71L476.67,237.635L476.875,237.43L477.041,237.357L477.47,237.479L477.717,237.507L477.693,236.999L478.122,236.577L478.705,236.279L479.146,236.127L479.397,236.084L479.993,236.127L480.056,235.888L480.249,235.128L480.404,234.754L481.01,234.059L481.211,233.621L481.097,233.117L480.604,232.492L478.775,230.985L478.129,230.603L476.807,230.281L476.166,229.889L475.463,229.306L474.873,229.067L474.25,229.132L473.45,229.455L472.666,229.538L471.369,228.876L470.63,228.923L469.956,229.148L469.229,229.187L468.555,228.954L468.045,228.352L467.479,226.795L467.423,226.35L467.566,225.943L467.771,225.556L467.927,225.175L467.949,224.73L467.811,223.823L467.807,223.333L467.942,222.836L468.424,221.896L468.55,221.415L468.475,220.914L468.223,220.705L467.88,220.776L467.543,221.12L467.359,221.555L467.28,221.939L467.131,222.274L466.742,222.556L466.37,222.676L465.369,222.838L464.992,222.822L464.683,222.652L464.135,222.093L463.82,221.928L463.441,221.959L462.831,222.333L462.477,222.43L462.07,222.353L461.749,222.14L461.505,221.813L461.321,221.392L461.628,220.93L461.836,220.512L461.893,220.043L461.658,218.896L461.613,217.762L461.412,217.261L460.892,216.936L459.136,216.638L458.433,216.232L457.386,214.782L456.769,214.159L456.083,213.674L455.572,213.146L455.311,212.448L455.374,211.461L455.563,211.065L455.865,210.856L456.574,210.573L456.89,210.344L457.135,210.072L457.341,209.753L457.523,209.379L458.102,207.739L458.508,206.021L458.204,204.775L457.193,203.963L455.984,203.309L455.089,202.541L454.927,202.229L454.83,201.898L454.784,201.548L454.83,200.885L454.888,200.594L454.974,200.31L455.089,200.042L455.738,198.875L456.181,198.464L458.216,198.111L458.886,197.807L459.542,197.334L460.057,196.824L460.485,196.167L460.675,195.438L460.436,194.705L459.845,194.287L459.159,194.31L458.443,194.484L457.765,194.52L456.764,194.162L456.381,194.138L455.089,194.475L454.506,194.356L453.943,193.945L453.52,193.346L453.345,192.667L453.51,191.974L453.955,191.509L455.089,190.91L455.442,190.571L455.494,190.11L455.35,189.616L455.089,189.182L454.665,188.053L454.349,187.664L453.778,187.607L453.239,187.663L452.755,187.591L452.296,187.41L451.829,187.134L451.421,186.692L451.273,186.145L451.364,185.572L451.679,185.059L451.88,184.908L452.349,184.651L452.514,184.47L452.611,184.194L452.635,183.335L452.635,183.331L452.942,182.811L453.847,182.174L454.127,181.717L454.12,181.069L453.967,180.477L454.006,179.946L454.557,179.483L454.813,179.359L457.809,178.84L458.303,178.588L459.719,177.538L460.931,177.054L462.121,176.95L463.317,177.154L468.093,178.898L474.759,180.238L476.521,180.148L477.756,179.88L478.447,179.889L478.899,180.188L479.175,180.619L479.477,180.957L480.228,181.511L481.004,181.895L485.979,183.238L486.814,183.272L487.906,183.008L488.307,183.004L489.106,183.114L489.461,183.02L489.846,182.707L490.938,181.571L492.173,180.642L492.682,180.481L492.819,180.407L493.07,180.093L493.46,179.429L493.764,179.153L494.419,179.01L495.621,179.525L496.251,179.508L498.269,178.982L500.877,177.469L501.597,177.19L502.323,177.309L503.147,177.919L503.445,178.031L503.77,178.04L505.405,177.689L505.651,177.556L507.378,175.9L507.556,175.462L507.481,174.231L507.637,173.703L508.1,173.341L508.756,173.114L509.432,173.054L509.94,173.198L510.438,173.518L510.725,173.575L510.965,173.387L511.323,172.981L512.461,172.067L512.754,171.677L512.88,170.961L512.724,170.328L512.651,169.771L513.021,169.292L513.143,169.216ZM331.971,409.419L332.057,409.134L332.436,408.97L332.293,408.915L331.918,408.679L331.07,408.966L330.64,408.954L330.359,408.679L330.473,409.018L330.698,409.392L331,409.691L331.332,409.813L331.843,409.691L331.971,409.419Z"/>
        </clipPath>
        <g clip-path="url(#_clip1)">
            <rect x="137.667" y="121.778" width="444.666" height="296.444" style="fill:white;fill-rule:nonzero;"/>
            <rect x="248.833" y="121.778" width="333.5" height="296.444" style="fill:rgb(10,65,31);fill-rule:nonzero;"/>
            <path d="M492.476,310.725C458.825,340.636 407.297,337.605 377.386,303.954C347.473,270.303 350.504,218.775 384.155,188.863C385.574,187.601 387.037,186.419 388.518,185.275C352.638,196.728 326.65,230.323 326.65,270C326.65,319.117 366.467,358.934 415.583,358.934C451.553,358.934 482.513,337.566 496.521,306.844C495.22,308.169 493.885,309.472 492.476,310.725Z" style="fill:white;fill-rule:nonzero;"/>
            <path d="M448.013,203.453L485.474,245.597L430.395,233.521L482.053,210.917L453.548,259.568L448.013,203.453Z" style="fill:white;fill-rule:nonzero;"/>
        </g>
    </g>
    <g transform="matrix(4.16667,0,0,4.16667,-573.613,-507.408)">
        <path d="M513.143,169.216L508.007,156.858L507.745,156.835L507.407,156.651L507.167,156.383L506.714,155.748L506.109,155.29L504.736,154.782L504.107,154.422L503.736,153.661L503.999,151.772L503.815,151.02L503.473,150.913L502.769,151.632L502.323,151.777L501.9,151.787L501.689,151.823L501.482,151.887L501.299,152.032L501.076,152.437L500.94,152.573L500.58,152.637L500.24,152.575L499.91,152.573L499.212,153.067L498.927,153.071L498.622,152.961L498.24,152.878L497.799,152.933L496.908,153.175L496.455,153.146L495.929,152.673L495.736,151.851L495.661,150.89L495.483,150L495.021,149.155L494.482,148.841L493.024,148.748L492.429,148.478L491.852,147.91L491.431,147.169L491.319,146.38L491.458,146.003L491.704,145.763L492.643,145.158L492.778,145.038L492.877,144.858L492.892,144.602L492.738,144.183L492.756,143.935L493.007,143.63L493.352,143.474L493.59,143.28L493.545,142.867L493.352,142.556L492.877,141.96L492.732,141.611L492.727,140.681L493.081,138.826L492.877,137.856L490.955,134.184L490.48,133.591L489.364,132.58L488.193,131.751L486.701,131.026L485.2,130.728L484.025,131.177L483.908,131.403L483.851,131.646L483.732,131.808L482.582,131.756L482.182,131.185L482.045,130.304L482.011,129.338L481.879,128.436L481.565,127.73L481.062,127.224L480.348,126.918L478.111,126.445L477.47,126.085L476.933,125.602L476.664,125.448L476.316,125.379L474.696,125.606L473.988,125.612L473.336,125.783L473.004,125.927L472.735,126.123L472.546,126.421L472.381,127.102L472.266,127.326L472.014,127.429L471.904,127.206L471.796,126.492L471.648,126.207L471.104,125.379L470.504,124.883L469.115,124.853L468.606,124.396L468.336,124.022L468.045,123.957L467.359,124.233L466.142,124.542L465.774,124.731L465.874,124.872L465.907,125.031L465.885,125.203L465.81,125.382L465.684,126.13L465.381,126.219L465.01,125.891L464.665,125.383L464.603,125.314L464.535,125.257L464.163,125.138L463.756,125.165L462.973,125.382L462.481,125.789L460.903,126.791L459.983,127.544L459.53,127.709L458.284,127.555L457.976,127.633L457.708,127.842L457.581,128.169L457.489,128.976L457.312,129.212L456.198,129.581L455.647,129.577L455.089,129.363L454.526,129.221L452.979,128.241L452.395,127.998L451.239,127.783L448.729,127.675L446.258,128.097L445.647,127.998L445.058,127.914L443.811,128.084L442.902,128.017L441.958,128.348L441.688,128.382L441.408,128.347L440.854,128.199L440.26,128.136L437.434,128.436L437.132,128.549L436.672,128.862L436.45,128.97L436.194,128.957L435.611,128.719L435.142,128.833L434.683,129.077L434.135,129.232L432.466,129.316L430.887,129.084L429.634,129.173L428.415,129.462L427.502,129.933L426.317,130.935L425.923,131.041L425.054,130.985L424.276,131.242L423.44,131.292L421.771,131.674L420.94,132.028L420.639,132.246L420.564,132.545L420.845,132.997L420.98,133.382L420.649,133.574L419.552,133.728L419.077,133.882L418.854,134.003L418.689,134.203L418.722,134.397L418.798,134.596L418.773,134.808L418.471,135.098L417.694,135.286L417.303,135.506L416.996,135.821L416.103,136.336L415.842,136.553L415.61,136.795L415.367,137.004L415.063,137.118L413.84,137.199L413.449,137.449L413.479,138.189L413.801,138.823L413.852,139.143L413.626,139.402L413.331,139.511L413.033,139.528L412.752,139.416L412.197,138.82L411.112,138.087L410.729,137.929L410.372,137.967L410.189,138.168L409.967,138.89L409.807,139.266L409.654,139.515L409.179,139.983L409.086,140.34L409.281,140.7L409.39,141.006L409.023,141.206L408.566,141.302L408.211,141.432L407.893,141.645L406.452,143.257L406.067,143.557L404.873,143.976L404.774,144.129L404.678,144.625L404.546,144.844L404.368,144.971L403.798,145.246L403.055,145.728L402.956,145.899L402.858,146.394L402.763,146.607L402.155,147.223L401.973,147.583L402.071,148.019L402.275,148.209L402.956,148.583L403.22,148.786L403.707,149.308L404.216,149.519L404.747,149.637L405.295,149.873L405.576,150.203L405.655,150.964L405.856,151.315L406.714,151.925L406.982,152.277L407.618,153.414L407.735,153.757L407.76,153.988L407.743,154.188L407.743,154.397L407.829,154.659L407.937,154.819L408.218,155.039L408.337,155.167L408.578,155.575L408.664,155.985L408.554,156.407L408.211,156.846L407.971,157.31L408.148,157.703L408.532,158.011L409.572,158.521L409.877,158.753L410.055,159.095L410.042,159.539L409.916,159.957L409.831,160.395L409.945,160.908L410.189,161.265L410.441,161.548L410.602,161.862L410.573,162.312L410.385,162.65L409.464,163.455L408.887,164.208L408.853,164.831L409.19,165.414L410.237,166.618L410.814,167.084L410.894,167.394L410.729,167.844L410.253,168.579L408.95,169.489L408.458,170.099L408.43,171.106L408.532,171.338L408.503,171.555L408.372,171.741L408.166,171.888L408.166,171.889L408.16,171.889L408.16,171.892L408.013,172.133L407.847,172.666L407.715,172.908L407.531,173.07L404.981,174.105L404.312,174.622L403.957,175.327L403.671,176.106L402.676,177.528L402.42,177.783L401.692,178.166L400.36,179.25L400.165,179.518L400.138,179.867L400.279,180.377L400.349,180.851L400.286,181.409L400.087,181.867L399.737,182.034L398.972,181.914L398.571,181.918L398.25,182.066L398.027,182.471L398.003,182.972L398.108,183.485L398.289,183.911L398.679,184.5L399.218,185.152L399.801,185.716L401.145,186.466L401.229,187.028L400.676,188.616L400.67,189.026L400.854,189.822L400.91,190.281L400.881,190.827L400.766,191.13L400.234,191.736L400.029,192.187L400.045,192.562L400.108,192.922L400.022,193.348L399.72,193.629L398.8,193.822L398.409,193.957L398.192,194.264L397.97,194.469L397.702,194.558L397.354,194.528L396.843,194.366L396.653,194.418L396.575,194.709L396.237,195.379L394.899,195.631L392.342,195.604L389.811,195.968L389.232,195.949L387.67,195.612L386.144,195.549L385.801,195.448L385.149,195.119L384.08,195.017L379.996,193.586L379.361,193.541L378.354,193.696L377.852,193.87L377.537,194.189L377.498,194.548L377.56,194.888L377.524,195.226L377.188,195.568L376.941,195.9L377.056,196.234L377.611,196.788L377.777,197.086L378.029,197.945L378.194,198.304L378.646,198.966L378.812,199.305L378.949,199.747L379.145,200.181L379.431,200.359L380.167,200.461L381.187,200.897L381.986,200.755L382.176,200.999L382.336,201.895L382.449,202.245L382.53,202.361L382.702,202.505L383.015,202.654L383.159,202.759L383.233,202.907L383.222,203.455L382.832,204.879L382.804,205.307L382.872,205.741L383.039,206.145L383.301,206.489L383.45,206.588L383.977,206.762L384.108,206.88L384.25,207.243L384.348,207.408L385.342,208.529L385.64,209.229L385.51,209.97L382.302,212.666L381.936,212.873L381.523,212.839L381.071,212.688L380.848,212.775L380.219,213.974L380.076,214.175L379.843,214.277L379.299,214.23L379.109,214.27L377.69,215.13L376.896,215.19L375.633,214.557L374.9,214.682L374.01,215.322L373.666,215.407L373.493,215.373L373.336,215.298L373.157,215.243L372.545,215.362L372.156,215.349L371.396,215.452L370.767,215.862L370.263,216.496L369.902,217.261L370.252,219.693L370.067,220.341L369.954,220.446L369.47,220.815L369.004,221.463L368.366,221.941L368.158,222.242L368.191,222.68L368.29,222.856L368.429,223.003L368.594,223.114L368.754,223.18L368.885,223.279L368.932,223.449L368.965,223.839L369.159,224.58L369.097,224.852L368.867,225.292L367.873,226.787L367.542,227.065L366.757,227.339L366.375,227.583L365.802,228.303L365.448,229.148L365.355,230.068L365.557,231.027L366.043,232.271L366.111,232.738L366.094,233.223L365.962,234.174L365.951,235.115L365.809,236.053L365.791,236.534L366.162,238.634L366.757,240.321L366.809,240.609L366.694,240.813L365.791,241.492L365.276,242.049L363.206,245.24L362.938,245.543L362.651,245.724L362.401,246.121L361.806,246.667L361.124,247.155L360.616,247.368L359.935,247.319L359.289,247.525L358.094,248.141L357.339,248.228L356.841,247.873L355.967,246.615L355.481,246.046L355.338,245.721L355.28,244.828L355.161,244.558L354.92,244.422L353.855,244.227L352.752,243.601L352.118,243.354L351.695,243.359L351.248,243.515L350.432,243.951L350.064,244.239L350.128,244.456L350.46,244.602L350.872,244.668L352.003,244.641L352.369,244.692L352.542,244.891L352.295,245.167L351.89,245.411L351.563,245.515L350.86,245.401L348.881,244.692L348.132,244.632L347.383,244.668L346.972,244.605L346.737,244.373L346.542,244.081L346.063,243.687L345.645,243.458L345.158,243.289L344.77,243.317L344.529,243.608L344.129,244.554L343.917,244.934L343.294,245.508L343.203,245.709L343.14,246.174L343.031,246.33L342.042,246.882L341.722,247.138L341.51,247.439L341.304,247.549L340.537,247.591L339.966,247.494L339.709,247.506L339.183,247.762L338.016,249.075L336.986,249.796L336.415,250.03L335.831,250.089L334.604,249.817L334.008,249.831L333.765,250.222L333.901,250.549L334.18,250.884L334.426,251.266L334.537,252.126L334.81,252.457L335.188,252.693L335.561,252.797L337.129,252.59L337.816,252.811L337.901,253.733L337.707,254.145L337.415,254.279L336.654,254.25L336.346,254.34L336.083,254.53L335.84,254.758L334.635,255.531L334.285,255.66L333.275,255.85L332.578,256.149L331.455,256.303L330.146,256.859L329.798,256.925L328.588,256.815L327.608,256.862L327.295,256.825L326.906,256.687L326.217,256.305L325.841,256.192L325.464,256.208L324.739,256.389L324.356,256.383L323.922,256.305L323.689,256.228L323.545,256.114L323.519,255.936L323.594,255.803L323.699,255.668L323.747,255.489L323.708,254.998L323.573,254.695L323.295,254.545L322.185,254.57L321.478,254.773L320.204,255.4L319.639,255.891L319.199,256.396L318.712,256.768L317.989,256.869L317.53,257.186L316.89,259.663L316.529,260.165L314.754,261.992L314.328,262.181L311.773,262.701L311.452,262.875L311.281,263.176L309.423,270.211L309.367,271.163L309.688,272.03L310.145,272.619L310.289,272.899L310.395,273.344L310.441,273.792L310.086,276.671L310.129,277.987L310.046,278.405L308.826,280.885L308.549,281.708L308.503,282.051L308.617,282.343L309.282,282.806L310.059,283.596L310.641,284.045L310.794,284.25L310.724,284.348L310.566,284.404L310.453,284.469L310.063,285.137L309.561,285.801L308.057,286.879L306.447,287.351L305.35,287.671L304.252,287.992L303.153,288.31L302.06,288.633L300.961,288.952L299.864,289.271L298.768,289.591L297.668,289.911L296.571,290.233L295.473,290.553L294.378,290.871L293.28,291.19L292.187,291.51L289.989,292.152L288.893,292.469L286.151,293.268L285.212,293.238L282.068,292.668L279.491,292.648L275.595,292.615L270.494,294.135L269.83,294.474L269.398,295.033L268.711,296.375L268.194,296.582L266.039,295.656L262.561,294.985L258.417,294.19L255.532,294.459L254.603,294.547L253.677,294.636L252.749,294.722L251.824,294.809L250.897,294.895L249.97,294.982L249.044,295.068L248.119,295.157L247.19,295.246L246.266,295.331L245.337,295.42L244.412,295.506L243.485,295.593L242.558,295.679L241.633,295.767L240.707,295.853L237.799,296.124L235.852,295.758L234.057,295.183L232.486,294.678L230.912,294.174L229.336,293.667L227.766,293.16L226.192,292.658L224.617,292.152L223.044,291.646L221.471,291.144L219.899,290.637L218.325,290.128L216.752,289.624L215.179,289.117L213.607,288.612L212.035,288.106L210.459,287.6L208.886,287.092L207.537,286.657L206.94,286.387L208.465,288.188L209.464,289.365L210.699,290.84L212.123,292.536L213.601,294.302L215.155,296.152L215.525,296.451L215.923,296.61L216.255,296.847L216.429,297.394L216.394,297.815L216.169,298.57L216.169,298.992L216.349,299.432L216.951,300.094L217.193,300.465L217.251,300.704L217.302,301.24L217.4,301.487L217.601,301.714L217.772,301.776L217.947,301.798L218.152,301.906L218.345,302.212L218.444,302.578L218.589,302.89L218.913,303.027L219.097,303.176L219.152,303.361L219.086,303.557L218.913,303.741L218.776,303.879L218.723,304.012L218.767,304.137L218.913,304.25L219.157,304.362L219.368,304.527L219.534,304.75L220.333,306.581L220.441,306.999L220.487,307.359L220.585,307.681L221.13,308.288L221.671,309.47L222.219,310.141L224.168,311.906L224.954,312.92L226.152,314.029L226.75,314.72L227.1,314.909L228.23,315.225L229.132,315.744L229.703,315.922L230.96,316.028L231.563,316.158L233.135,316.859L235.631,317.364L236.155,317.637L236.375,317.895L236.538,318.181L236.731,318.439L237.037,318.613L237.352,318.717L237.549,318.84L237.681,319.057L237.804,319.428L238.079,319.891L239.272,321.179L239.654,321.42L242.746,320.793L243.166,321.047L243.257,321.794L242.98,323.985L242.678,326.405L243.026,327.879L243.521,329.921L243.636,331.187L243.793,332.9L243.887,333.966L244.069,335.924L244.171,337.027L244.056,337.908L243.062,340.137L243.433,340.586L243.527,340.814L243.492,341.157L243.404,341.461L243.29,341.697L243.104,341.837L242.804,341.854L243.621,342.58L243.904,342.736L244.054,342.731L244.315,342.58L244.448,342.557L244.599,342.608L245.043,342.853L245.64,342.982L246.153,342.955L247.254,342.736L247.745,342.658L248.733,342.355L249.236,342.33L249.551,342.363L249.794,342.355L250.828,342.028L251.019,342.032L251.254,342.117L251.744,342.564L251.958,342.698L252.424,342.867L252.597,342.978L252.798,343.194L253.069,343.593L253.711,345.016L253.386,344.888L252.974,344.89L252.602,345.051L252.395,345.391L252.325,345.603L252.124,345.891L252.044,346.102L252.017,346.35L252.112,348.732L252.283,349.126L252.519,349.469L252.677,349.808L252.616,350.194L252.333,350.45L251.565,350.575L251.254,350.738L251.116,351.069L250.965,354.124L250.766,354.966L250.342,355.379L250.152,355.371L250.005,355.295L249.869,355.198L249.705,355.123L249.524,355.105L248.974,355.229L248.227,355.208L247.492,355.096L245.782,355.054L244.303,355.019L243.016,354.985L242.81,355.046L242.666,355.235L242.471,355.596L242.344,355.692L242.203,355.768L242.04,355.831L241.456,355.961L241.294,355.949L241.083,355.846L240.88,355.807L240.718,355.905L240.569,356.063L240.412,356.186L240.025,356.318L236.864,356.654L236.684,356.705L236.536,356.819L236.382,357.096L236.271,357.194L236.077,357.245L235.678,357.226L235.5,357.245L235.344,357.314L235.1,357.494L234.946,357.58L234.577,357.727L234.412,357.831L234.294,357.99L234.258,358.173L234.314,358.312L234.387,358.43L234.405,358.56L234.209,358.925L233.616,359.508L233.481,359.769L233.584,360.248L233.769,360.635L233.786,360.933L233.375,361.148L232.667,361.051L231.828,360.753L231.116,360.659L230.795,361.169L230.727,361.685L230.556,361.899L229.773,362.029L229.386,362.15L229.034,362.324L228.355,362.774L226.077,363.417L225.619,363.775L225.345,364.339L225.184,364.988L225.01,366.263L224.86,367.386L224.681,368.689L224.442,370.429L224.243,371.887L224.137,372.254L223.851,372.603L223.521,372.677L223.157,372.669L222.756,372.766L222.358,373.313L222.453,374.083L222.66,374.906L222.606,375.627L222.487,375.788L222.209,376.065L222.098,376.266L222.034,376.565L221.956,377.781L221.843,379.564L221.709,381.634L221.596,383.388L221.006,385.126L221.46,385.156L221.684,385.078L221.871,385.087L222.175,385.156L222.792,385.134L223.006,385.156L223.163,385.228L223.256,385.33L223.374,385.417L223.595,385.454L223.704,385.498L223.954,385.689L224.052,385.725L224.157,385.675L224.324,385.492L224.379,385.454L224.51,385.409L224.617,385.354L224.688,385.417L224.698,385.725L224.629,385.945L224.378,386.297L224.32,386.517L224.303,386.787L224.249,386.927L224.052,387.155L223.729,387.416L223.656,387.595L223.794,387.876L223.603,388.095L223.69,388.321L223.913,388.499L224.116,388.57L224.426,388.519L224.915,388.31L225.225,388.274L225.673,388.522L225.901,388.53L226.09,387.932L226.259,387.754L226.327,387.576L226.128,387.309L226.54,387.179L227.337,386.809L227.747,386.729L229.365,386.857L230.207,387.061L230.62,387.097L230.795,386.935L230.336,386.304L230.165,386.193L230.141,385.938L230.2,385.65L230.267,385.454L230.726,385.061L231.528,384.784L232.413,384.627L233.117,384.59L233.551,384.681L233.975,384.889L234.376,385.181L234.731,385.523L234.801,385.692L234.817,385.926L234.795,386.375L234.742,386.619L234.61,386.659L234.441,386.646L234.278,386.729L234.219,386.781L234.151,386.828L234.081,386.899L234.02,387.014L234.472,387.215L235.196,387.348L235.881,387.315L236.226,387.014L235.997,386.946L235.382,386.842L235.191,386.729L235.135,386.418L235.267,386.091L235.489,385.803L235.698,385.594L236.063,385.325L236.603,385.031L237.178,384.879L237.656,385.027L238.031,384.873L237.622,384.681L237.57,384.393L237.804,384.136L238.236,384.024L240.68,383.828L243.346,383.88L246.594,384.59L248.206,384.745L248.644,384.666L249.817,384.024L250.401,383.901L251.051,383.961L252.294,384.306L253.183,384.693L253.502,384.745L254.802,384.59L255.448,384.701L256.538,385.188L257.138,385.299L257.252,385.262L257.347,385.161L257.42,385.027L257.465,384.873L257.483,384.735L257.448,384.679L257.354,384.613L256.78,383.919L256.638,383.65L256.551,383.313L256.851,383.415L257.045,383.27L257.325,382.745L257.837,382.165L258.152,381.922L258.497,381.737L259.103,381.543L260.34,381.35L261.62,381.314L262.891,381.531L264.811,382.232L265.52,382.364L266.003,382.165L266.333,382.294L266.668,382.28L267.37,382.165L267.704,382.165L267.837,382.128L268.08,381.737L267.739,381.026L267.5,380.668L267.242,380.674L266.98,380.953L266.796,381.068L266.656,380.968L266.519,380.601L266.414,380.664L266.133,380.745L266.38,380.482L267.435,379.964L267.643,380.144L268.118,380.101L268.983,379.892L269.234,379.899L269.425,379.939L269.51,380.035L269.427,380.341L269.237,380.409L268.794,380.318L268.582,380.318L268.349,380.349L268.16,380.453L268.08,380.674L268.153,380.936L268.321,381.094L268.496,381.2L268.595,381.313L268.533,381.681L268.367,382.052L268.363,382.343L270.053,382.701L271.2,382.745L271.355,382.847L271.597,383.117L271.775,383.171L272.592,383.25L273.394,383.442L273.808,383.683L274.464,384.319L274.876,384.447L275.042,384.424L275.411,384.329L275.649,384.306L275.875,384.219L276.147,383.779L276.375,383.597L276.728,383.59L277.26,383.707L277.783,383.892L278.114,384.093L278.437,384.575L278.425,384.929L277.92,385.725L278.203,385.725L278.681,385.862L278.953,385.879L279.845,385.61L279.998,385.594L279.977,385.362L279.732,385.228L279.419,385.137L279.212,385.027L279.111,384.814L279.101,384.563L279.212,384.024L279.397,383.572L279.728,383.139L280.155,382.79L280.641,382.591L281.829,382.497L282.432,382.563L282.846,382.745L283.386,382.5L283.973,382.528L285.104,382.745L286.265,382.745L286.583,382.788L287.166,382.974L287.702,383.051L288.183,383.174L288.404,383.171L288.69,383.102L288.879,383.016L289.024,382.859L289.459,382.097L289.862,381.622L290.378,381.417L290.998,381.737L291.392,381.491L291.824,381.314L292.328,381.208L292.944,381.171L292.786,381.501L292.699,381.609L293.047,381.703L293.461,381.587L293.901,381.405L294.31,381.313L294.694,381.361L297.371,382.114L297.794,382.165L298.16,382.104L299.159,381.609L299.936,381.469L300.594,381.098L301.042,380.963L301.692,380.645L302.127,380.601L302.94,380.623L304.454,380.395L305.672,380.05L307.377,380.035L307.903,379.907L308.517,379.661L309.127,379.494L309.633,379.607L310.26,379.452L311.16,379.654L312.625,380.318L313.162,380.771L313.511,380.999L313.787,381.043L314.035,380.714L313.779,380.377L313.011,379.892L313.669,379.324L313.361,379.068L312.99,379.013L312.629,379.111L312.365,379.324L312.152,379.115L311.873,378.662L311.71,378.471L311.49,378.366L311.237,378.297L311.031,378.188L310.95,377.967L310.726,377.818L310.213,377.803L309.642,377.89L309.246,378.031L309.223,378.13L309.248,378.277L309.258,378.414L309.188,378.471L309.083,378.479L309.002,378.505L308.934,378.544L308.873,378.599L308.596,378.94L308.395,379.111L308.157,379.182L306.657,379.446L306.15,379.454L306.256,379.253L306.438,379.024L306.653,378.835L306.856,378.754L306.962,378.643L307.311,377.901L307.528,377.554L307.836,377.227L308.221,376.987L308.898,376.85L309.061,376.749L309.174,376.646L309.246,376.597L309.479,376.604L309.873,376.721L310.097,376.75L310.765,376.678L311.145,376.543L311.465,376.312L311.408,376.767L311.696,377.003L312.156,377.042L312.625,376.893L312.761,377.212L313.398,377.901L313.494,378.134L313.562,378.396L313.681,378.552L313.927,378.471L313.956,378.563L314.014,378.658L314.055,378.754L314.399,378.552L314.601,379.091L314.773,379.823L315.029,380.189L315.461,380.465L315.541,381.019L315.312,381.44L314.831,381.313L314.723,381.727L314.964,382.058L315.615,382.461L316.62,383.438L316.831,383.597L317.107,383.734L317.79,384.354L317.927,384.521L318.001,384.905L318.297,385.56L318.313,386.009L318.206,386.346L317.851,386.813L317.681,387.155L317.587,387.549L317.54,388.789L317.241,390.377L317.244,391.172L317.681,391.416L317.681,391.556L317.161,391.813L316.779,392.245L316.729,392.649L317.21,392.827L317.433,392.787L317.906,392.602L318.905,392.483L319.097,392.404L319.535,392.642L320,392.547L320.503,392.382L321.035,392.404L321.438,392.649L321.788,392.959L322.15,393.201L322.606,393.253L322.51,393.093L322.467,392.936L322.464,392.559L322.606,392.559L322.755,392.775L323.023,393.004L323.359,393.182L323.699,393.253L324.469,393.84L324.825,393.997L324.659,393.548L324.798,393.395L325.153,393.522L325.364,393.509L325.566,393.438L325.901,393.395L326.065,393.465L326.212,393.635L326.319,393.848L326.428,394.287L326.593,394.336L327.284,394.192L327.491,394.088L327.662,394.066L327.894,394.254L328.09,394.539L328.043,394.694L327.508,394.975L327.041,395.31L326.582,395.764L326.229,396.299L326.088,396.874L326.139,397.272L326.287,397.346L326.529,397.272L326.861,397.232L327.212,397.312L327.495,397.449L328.036,397.796L327.74,397.929L327.387,397.962L327.034,397.911L326.734,397.796L326.764,398.093L326.827,398.396L326.94,398.688L327.121,398.939L327.548,398.995L327.627,399.145L327.251,399.489L327.623,399.894L327.926,400.326L328.118,400.8L328.152,401.336L328.433,401.172L328.565,401.062L328.681,400.912L328.434,401.831L328.396,402.366L328.611,402.604L329.411,402.602L329.738,402.682L330.112,402.885L329.623,402.833L329.043,402.908L328.67,403.18L328.798,403.728L328.731,403.818L328.627,404.04L328.542,404.178L328.715,404.409L328.789,404.577L328.811,405.6L328.85,405.868L328.939,406.134L329.434,407.009L329.633,407.52L329.715,408.191L329.953,408.509L330.513,408.596L331.59,408.524L332.094,408.649L332.508,408.855L332.896,408.899L333.338,408.524L333.275,408.838L333.09,409.043L332.564,409.392L332.3,409.301L332.111,409.518L331.789,410.224L332.023,410.337L332.83,410.503L332.709,410.962L332.656,411.291L332.693,411.498L332.882,411.547L333.087,411.441L333.291,411.296L333.478,411.217L333.323,411.426L333.1,411.881L332.95,412.061L332.761,412.171L332.623,412.182L332.488,412.166L332.307,412.201L332.544,412.371L333.595,412.621L333.392,412.437L333.282,412.206L333.327,412.04L333.595,412.061L333.811,412.257L333.959,412.509L334.122,412.606L334.381,412.339L334.402,412.712L334.595,412.964L334.875,413.052L335.155,412.915L335.307,412.555L335.323,411.697L335.555,411.347L335.572,411.414L335.565,411.473L335.586,411.505L335.673,411.498L335.673,411.626L335.565,411.881L335.414,413.042L335.335,413.246L335.251,413.4L335.184,413.569L335.155,413.819L335.198,414.007L335.316,414.043L335.481,414.021L335.673,414.036L336.369,414.212L336.786,414.252L337.101,414.176L337.318,413.9L337.266,413.605L337.072,413.349L336.844,413.183L337.873,413.645L338.433,413.817L338.977,413.883L339.119,413.598L339.308,412.241L339.422,411.78L339.577,411.967L339.6,412.728L339.685,413.042L339.96,412.747L340.121,412.651L340.269,412.69L340.383,412.86L340.36,413.128L340.458,413.335L340.589,413.389L340.761,413.38L340.915,413.401L340.983,413.539L341.058,413.755L341.23,413.896L341.441,413.983L341.63,414.036L341.658,413.972L341.841,413.881L342.047,413.849L342.145,413.96L342.167,414.135L342.225,414.382L342.311,414.608L342.42,414.725L342.619,414.602L342.831,414.235L343.18,413.475L342.945,413.006L342.42,411.217L342.619,411.299L343.064,411.591L343.362,411.547L343.322,411.792L343.18,412.339L343.283,412.809L343.534,413.219L343.831,413.544L344.095,413.755L344.095,413.883L343.831,413.883L343.706,413.964L343.563,414.318L343.546,414.419L343.563,414.801L343.506,414.888L343.237,415.086L343.18,415.232L343.346,415.658L343.706,415.954L344.026,415.941L344.095,415.438L344.627,415.966L344.976,416.245L345.136,416.21L345.084,415.839L344.884,415.246L344.867,414.877L344.97,414.472L345.308,413.668L345.381,413.258L345.347,413.16L345.187,412.89L345.136,412.762L345.118,412.558L345.136,411.918L345.622,413.185L346.068,412.493L346.216,412.395L346.554,412.245L346.685,412.162L346.742,412.154L346.932,412.19L347.005,412.186L347.074,412.111L347.028,412.032L346.948,411.963L346.914,411.922L346.937,411.79L346.926,411.606L346.972,411.421L347.137,411.281L347.331,411.246L347.4,411.33L347.445,411.492L347.56,411.685L347.828,411.804L348.086,411.693L348.31,411.448L348.481,411.178L348.458,411.033L348.384,410.826L348.396,410.653L348.624,410.611L348.744,410.692L348.813,410.857L348.836,411.051L348.836,411.212L349.436,410.779L350.306,410.642L352.507,410.656L354.365,410.669L355.84,410.681L355.853,407.823L355.863,405.663L355.868,404.008L356.275,403.145L357.254,403.188L357.527,403.614L357.643,404.813L358.002,405.096L358.19,404.94L358.781,403.843L358.843,403.677L358.877,403.507L358.975,403.386L359.238,403.361L359.408,403.431L359.575,403.57L359.713,403.738L360.078,404.398L360.341,404.668L360.685,404.706L361.193,404.517L361.965,404.091L362.325,404.023L362.783,404.16L363.847,404.68L364.195,404.753L364.944,404.641L366.352,404.122L371.688,404.267L372.242,404.517L373.718,406.081L374.554,406.495L375.582,406.619L379.412,406.563L380.248,406.382L380.929,405.806L381.136,405.431L381.593,404.146L381.792,403.812L382.014,403.685L382.678,403.624L383.764,403.259L384.154,403.235L384.524,403.157L385.218,402.65L385.582,402.479L386.619,402.42L386.95,402.294L387.813,401.683L389.786,401.21L390.582,401.226L390.816,401.722L390.703,401.933L390.376,402.149L390.272,402.277L390.255,402.505L390.438,403.229L390.53,404.05L390.673,404.347L390.994,404.654L391.691,404.999L394.218,405.2L394.608,405.092L395.315,404.726L395.706,404.584L396.031,404.51L396.15,404.37L395.898,404.027L395.836,403.665L396.127,403.295L397.285,402.515L397.639,402.399L397.998,402.427L398.409,402.604L398.776,402.621L398.978,402.467L399.112,402.234L399.313,402.006L400.222,401.681L400.405,401.485L400.258,400.974L399.6,400.759L398.839,400.632L398.409,400.384L398.353,400.234L398.33,400.08L398.337,399.925L398.364,399.763L398.409,399.35L398.473,399.207L398.496,399.069L398.478,398.943L398.409,398.825L398.045,398.502L397.987,397.915L398.136,397.269L398.409,396.774L399.656,396.165L400.045,395.887L399.537,395.097L398.902,393.287L397.763,391.511L397.236,390.421L396.827,389.275L396.19,386.42L395.979,385.926L395.654,385.51L394.464,384.475L393.83,383.764L393.607,383.351L393.521,382.859L393.372,382.34L392.612,381.516L392.309,381.078L392.164,380.353L392.28,377.969L392.365,376.14L392.297,375.29L391.891,374.729L391.136,374.573L390.42,374.782L389.707,375.095L388.962,375.251L386.749,375.313L385.682,375.079L384.942,374.813L384.65,374.597L384.377,374.11L383.989,372.955L383.64,372.525L382.862,371.848L382.119,370.965L381.518,369.956L381.162,368.903L381.157,368.586L381.322,367.501L381.34,366.754L381.427,366.409L382.438,364.716L382.718,363.941L382.811,363.173L382.666,362.329L382.639,361.924L382.741,361.514L382.912,361.078L382.976,360.716L382.912,359.884L383.021,358.155L382.931,357.383L382.393,356.701L381.713,356.327L381.003,356.144L376.457,356.327L375.639,356.016L374.277,354.8L373.504,354.279L370.572,353.071L369.984,352.409L369.836,351.542L370.229,349.033L370.64,346.435L371.15,344.84L371.92,343.512L373.637,341.788L374.854,340.937L377.073,338.818L378.207,336.976L379.825,335.413L380.265,334.788L381.662,330.691L381.871,330.304L383.703,328.407L385.005,327.466L386.064,326.291L386.406,326.054L386.739,325.952L387.471,325.838L388.201,325.547L388.563,325.451L388.962,325.507L389.519,325.685L390.05,325.96L390.525,326.332L391.147,327.056L391.68,327.489L391.908,327.755L392.068,328.187L391.993,328.976L392.051,329.389L392.634,330.742L393.366,331.805L394.339,332.471L395.66,332.646L397.209,332.299L399.359,331.233L401.688,330.078L403.116,329.59L404.724,329.243L406.358,329.101L407.856,329.227L409.436,329.097L412.096,328.283L415.108,327.359L415.36,327.158L415.469,326.835L415.686,324.231L415.788,323.84L416.002,323.412L417.511,321.439L419.831,319.528L420.569,318.756L421.091,317.831L421.474,316.809L422.583,312.512L423.034,311.621L424.436,309.907L424.955,309.547L427.667,308.134L430.178,306.821L432.334,305.696L434.77,304.423L435.085,304.203L435.319,303.886L435.93,302.396L436.416,301.584L437.595,299.999L439.069,297.151L439.995,295.356L441.032,293.347L442.016,290.162L442.82,287.533L443.627,284.884L443.912,284.562L447.172,283.036L450.609,282.256L451.336,281.846L454.476,279.217L454.563,278.587L454.292,277.633L453.864,276.703L453.479,276.138L452.548,275.631L452.604,275.544L452.726,275.203L453.029,274.88L453.405,274.683L453.756,274.721L453.721,274.574L453.675,274.267L453.636,274.125L453.955,274.231L454.189,274.192L454.379,274.038L455.332,272.69L455.453,272.404L455.615,272.229L456.363,272.019L456.613,271.74L456.688,271.212L456.631,270.801L456.608,270.427L456.803,270.012L457.082,269.676L457.341,269.431L457.632,269.231L458.032,269.029L458.474,268.94L458.621,268.823L458.679,268.513L458.741,268.337L459.017,268.127L459.142,267.685L459.285,267.51L459.593,267.237L459.983,266.654L460.143,266.499L460.423,266.284L460.566,266.125L460.549,265.968L460.377,265.535L460.445,265.444L460.817,265.328L461.201,265.033L461.412,264.643L461.276,264.248L461.4,264.02L461.562,263.822L461.761,263.689L462.001,263.637L462.212,263.653L462.705,263.799L463.111,263.83L463.26,263.657L463.339,263.349L463.547,262.972L463.871,262.667L464.192,262.508L464.548,262.449L464.963,262.439L465.342,262.309L465.633,262.008L465.896,261.659L466.187,261.391L466.192,260.938L466.479,260.55L466.884,260.244L467.979,259.646L467.816,259.442L467.467,259.126L467.188,258.955L466.806,258.945L465.982,259.095L465.672,258.959L465.421,258.647L465.255,258.372L465.157,258.061L465.095,257.635L465.146,257.189L465.45,256.316L465.456,255.33L465.588,254.825L466.331,252.929L466.56,252.549L466.869,252.161L467.092,251.808L467.188,251.396L467.143,250.978L466.571,250.104L466.026,248.012L464.963,246.075L464.775,245.827L464.837,245.752L465.038,245.397L465.077,245.366L465.227,245.296L465.283,245.248L465.323,245.149L465.374,244.885L465.41,244.781L465.558,244.574L465.64,244.501L465.672,244.4L465.684,244.109L465.748,243.622L465.931,243.265L466.216,242.966L467.64,241.858L467.949,241.744L468.188,241.557L468.727,240.534L469.944,240.786L470.338,240.7L470.694,240.125L470.859,239.349L471.187,238.867L472.025,239.174L472.329,238.792L472.701,238.725L473.129,238.772L473.587,238.717L473.817,238.591L473.936,238.436L474.016,238.248L474.165,238.031L474.343,237.937L474.807,237.972L474.993,237.958L474.851,237.332L475.194,237.258L476.355,237.7L476.509,237.71L476.67,237.635L476.875,237.43L477.041,237.357L477.47,237.479L477.717,237.507L477.693,236.999L478.122,236.577L478.705,236.279L479.146,236.127L479.397,236.084L479.993,236.127L480.056,235.888L480.249,235.128L480.404,234.754L481.01,234.059L481.211,233.621L481.097,233.117L480.604,232.492L478.775,230.985L478.129,230.603L476.807,230.281L476.166,229.889L475.463,229.306L474.873,229.067L474.25,229.132L473.45,229.455L472.666,229.538L471.369,228.876L470.63,228.923L469.956,229.148L469.229,229.187L468.555,228.954L468.045,228.352L467.479,226.795L467.423,226.35L467.566,225.943L467.771,225.556L467.927,225.175L467.949,224.73L467.811,223.823L467.807,223.333L467.942,222.836L468.424,221.896L468.55,221.415L468.475,220.914L468.223,220.705L467.88,220.776L467.543,221.12L467.359,221.555L467.28,221.939L467.131,222.274L466.742,222.556L466.37,222.676L465.369,222.838L464.992,222.822L464.683,222.652L464.135,222.093L463.82,221.928L463.441,221.959L462.831,222.333L462.477,222.43L462.07,222.353L461.749,222.14L461.505,221.813L461.321,221.392L461.628,220.93L461.836,220.512L461.893,220.043L461.658,218.896L461.613,217.762L461.412,217.261L460.892,216.936L459.136,216.638L458.433,216.232L457.386,214.782L456.769,214.159L456.083,213.674L455.572,213.146L455.311,212.448L455.374,211.461L455.563,211.065L455.865,210.856L456.574,210.573L456.89,210.344L457.135,210.072L457.341,209.753L457.523,209.379L458.102,207.739L458.508,206.021L458.204,204.775L457.193,203.963L455.984,203.309L455.089,202.541L454.927,202.229L454.83,201.898L454.784,201.548L454.83,200.885L454.888,200.594L454.974,200.31L455.089,200.042L455.738,198.875L456.181,198.464L458.216,198.111L458.886,197.807L459.542,197.334L460.057,196.824L460.485,196.167L460.675,195.438L460.436,194.705L459.845,194.287L459.159,194.31L458.443,194.484L457.765,194.52L456.764,194.162L456.381,194.138L455.089,194.475L454.506,194.356L453.943,193.945L453.52,193.346L453.345,192.667L453.51,191.974L453.955,191.509L455.089,190.91L455.442,190.571L455.494,190.11L455.35,189.616L455.089,189.182L454.665,188.053L454.349,187.664L453.778,187.607L453.239,187.663L452.755,187.591L452.296,187.41L451.829,187.134L451.421,186.692L451.273,186.145L451.364,185.572L451.679,185.059L451.88,184.908L452.349,184.651L452.514,184.47L452.611,184.194L452.635,183.335L452.635,183.331L452.942,182.811L453.847,182.174L454.127,181.717L454.12,181.069L453.967,180.477L454.006,179.946L454.557,179.483L454.813,179.359L457.809,178.84L458.303,178.588L459.719,177.538L460.931,177.054L462.121,176.95L463.317,177.154L468.093,178.898L474.759,180.238L476.521,180.148L477.756,179.88L478.447,179.889L478.899,180.188L479.175,180.619L479.477,180.957L480.228,181.511L481.004,181.895L485.979,183.238L486.814,183.272L487.906,183.008L488.307,183.004L489.106,183.114L489.461,183.02L489.846,182.707L490.938,181.571L492.173,180.642L492.682,180.481L492.819,180.407L493.07,180.093L493.46,179.429L493.764,179.153L494.419,179.01L495.621,179.525L496.251,179.508L498.269,178.982L500.877,177.469L501.597,177.19L502.323,177.309L503.147,177.919L503.445,178.031L503.77,178.04L505.405,177.689L505.651,177.556L507.378,175.9L507.556,175.462L507.481,174.231L507.637,173.703L508.1,173.341L508.756,173.114L509.432,173.054L509.94,173.198L510.438,173.518L510.725,173.575L510.965,173.387L511.323,172.981L512.461,172.067L512.754,171.677L512.88,170.961L512.724,170.328L512.651,169.771L513.021,169.292L513.143,169.216ZM331.971,409.419L332.057,409.134L332.436,408.97L332.293,408.915L331.918,408.679L331.07,408.966L330.64,408.954L330.359,408.679L330.473,409.018L330.698,409.392L331,409.691L331.332,409.813L331.843,409.691L331.971,409.419Z" style="fill:none;stroke:rgb(153,153,153);stroke-width:0.25px;"/>
    </g>
</svg>
