<?xml version="1.0" encoding="UTF-8" standalone="no"?>
<!DOCTYPE svg PUBLIC "-//W3C//DTD SVG 1.1//EN" "http://www.w3.org/Graphics/SVG/1.1/DTD/svg11.dtd">
<svg width="100%" height="100%" viewBox="0 0 328 516" version="1.1" xmlns="http://www.w3.org/2000/svg" xmlns:xlink="http://www.w3.org/1999/xlink" xml:space="preserve" xmlns:serif="http://www.serif.com/" style="fill-rule:evenodd;clip-rule:evenodd;stroke-linejoin:round;stroke-miterlimit:2;">
    <path id="_x31_0m-admin-1-states-provinces-shp.3555_" serif:id="_x31_0m-admin-1-states-provinces-shp.3555" d="M295.301,509.799L287.2,503.9L287.099,503.9L286.998,502.1L287.398,499.999L287.398,498.499L286.998,496.799L286.099,495.1L285.599,494.4L285.498,493.701L285.398,492.1L286.198,488.901L288.198,489.6L290.597,491.901L292.797,493.501L292.097,491.701L289.898,487.501L289.898,486.102L290.398,484.703L289.698,483.303L287.898,481.303L286.597,478.803L285.797,476.203L285.398,470.503L284.297,468.003L279.196,463.104L277.996,459.303L277.696,451.803L276.996,448.503L272.696,439.604L272.296,437.704L273.098,435.904L276.796,434.303L277.996,432.904L278.396,430.005L277.896,427.106L276.696,424.305L274.396,420.906L274.294,419.506L274.294,418.006L273.994,416.608L273.294,415.408L271.896,414.009L271.396,413.208L270.596,408.208L269.696,405.608L267.796,404.506L262.296,405.206L259.996,405.006L258.296,403.608L258.098,402.506L258.098,400.706L258.398,399.006L258.698,398.006L259.698,397.608L260.998,399.307L262.898,398.608L264.398,400.006L265.698,400.206L266.598,399.506L268.098,397.307L268.998,396.603L267.6,394.603L266.9,392.302L265.798,390.502L262.9,389.802L261.1,388.903L260.298,386.903L259.698,384.504L258.698,382.504L252.598,375.703L250.098,372.103L248.398,368.302L250.098,368.701L250.496,367.502L249.296,357.103L248.796,355.703L236.898,344.103L236.898,343.103L237.698,343.103L239.998,344.802L244.398,344.802L252.498,343.103L250.6,342.302L249.298,341.403L246.4,343.503L244.5,342.703L240.9,337.203L237.4,332.804L236.7,330.405L236.9,326.804L235.6,327.804L234.998,329.503L234.998,331.403L235.198,332.802L233.298,333.302L230.798,332.701L228.4,331.201L227,329.302L225.9,329.903L225.4,330.203L223.6,328.003L222.798,324.203L223.4,320.503L225.4,318.203L223.798,313.804L223.698,312.105L223.898,310.503L225.098,308.403L225.398,307.403L226.598,305.103L226.898,304.802L226.698,304.001L226.398,303.001L226.198,302.201L229.398,300.101L230.296,299.201L228.6,299.201L225.798,300.001L224.6,300.001L222.7,299.103L222.5,298.203L223.102,296.903L223.702,294.801L223.502,293.501L222.803,290.801L222.904,288.903L223.504,287.301L225.004,284.001L225.404,282.301L224.504,271.801L225.004,269.801L226.204,268.603L227.404,266.001L227.904,263.103L227.004,261.203L225.805,264.403L222.704,270.403L222.004,274.103L223.004,280.603L223.004,284.403L221.704,286.103L220.204,287.501L218.305,290.201L215.805,291.801L212.606,290.103L212.106,288.801L211.906,285.603L211.506,284.403L210.108,283.703L208.908,284.503L208.208,286.105L208.208,287.905L208.809,288.804L212.61,292.703L213.71,294.203L213.71,295.304L213.311,296.405L213.01,297.804L213.311,306.203L213.912,308.703L214.712,310.103L216.712,312.603L217.112,314.302L217.01,315.701L216.41,317.601L216.309,318.601L215.91,319.901L213.01,323.401L212.71,323.502L211.51,324.103L211.51,324.802L211.71,325.802L212.01,326.603L212.311,326.802L210.71,328.001L209.41,326.901L207.91,325.101L202.91,323.401L196.61,317.3L194.309,315.999L189.008,313.899L187.11,312.599L186.21,311.199L185.51,309.999L184.811,308.899L183.51,307.899L182.21,307.599L181.311,307.899L180.51,307.699L179.41,306.099L179.11,304.699L179.508,301.8L179.008,300.401L178.208,299.401L177.608,298.001L177.108,296.501L176.908,295.302L176.108,293.302L171.908,289.802L170.307,287.903L167.006,281.103L165.807,280.203L158.706,270.703L157.406,268.203L157.006,266.003L157.108,260.703L157.908,258.804L159.908,257.003L162.608,255.804L165.307,256.003L166.206,256.804L166.706,258.003L167.106,259.003L168.305,259.403L172.406,259.403L174.706,263.301L175.406,266.201L173.506,268.101L178.807,271.701L181.506,272.801L185.108,273.201L185.708,276.401L189.508,279.101L194.61,280.601L199.11,280.201L202.809,278.201L210.61,272.401L213,269.799L213.102,269.199L212.902,267.699L213.002,267.098L213.402,266.898L214.402,266.598L214.702,266.398L216.702,263.297L217.502,261.497L217.502,259.196L217.104,255.096L217.802,253.495L217.904,252.596L217.104,251.696L216.404,251.797L212.604,252.497L209.802,251.896L208.802,250.596L209.302,249.196L211.502,248.196L210.202,247.596L208.902,247.295L206.102,247.295L204.8,246.994L201.602,243.795L196.702,240.494L194.302,238.194L193.302,235.694L192.302,234.194L187.802,232.394L186.702,230.494L187.602,228.096L189.702,226.896L192.402,226.696L195.002,227.497L194.302,225.297L195.302,223.398L196.904,221.598L198.302,219.698L196.604,216.998L195.802,216.198L194.904,219.799L193.104,223.1L190.302,225.2L186.702,224.801L185.502,223.902L184.604,222.301L184.104,220.301L184.302,218L185.302,216.5L188.002,215.2L189.202,213.7L185.602,213.3L184,215.199L183.3,217.699L182.2,218.898L176.8,218.797L175.402,217.598L175.3,214.497L173.8,217.797L172.902,218.997L171.202,219.696L171.202,211.497L171.802,209.896L178.302,200.497L180.604,198.896L183.502,198.697L187.502,198.997L186.402,197.598L186.102,196.098L186.702,194.997L188.502,194.697L187.802,193.596L187.002,192.795L186.104,192.195L185.104,192.094L184.404,192.493L184.404,194.293L183.904,194.693L177.802,194.793L176.404,195.094L175.604,195.493L174.502,195.594L172.402,195.493L172.002,195.993L171.104,198.193L170.302,198.993L168.702,199.193L167.002,198.592L165.604,197.592L164.604,196.393L165.204,196.092L166.204,195.193L166.904,194.693L162.504,192.993L161.204,191.793L162.805,190.293L161.004,189.395L160.404,187.895L161.004,186.594L162.805,186.094L162.504,185.195L162.106,184.295L160.606,185.096L159.406,185.897L158.506,187.096L158.108,188.596L157.506,187.995L156.006,186.795L155.406,186.096L154.606,188.995L153.805,189.995L152.606,190.295L151.206,189.795L149.807,188.597L148.608,186.995L148.208,185.597L147.508,182.597L145.11,176.097L144.91,173.097L144,173.097L143.9,177.795L143.6,180.295L142.4,180.897L141.7,179.397L139.9,171.295L139.1,171.295L138.2,173.995L136.5,175.995L134.3,177.395L131.7,178.195L128.3,177.895L124.8,176.695L121.8,176.095L120.102,177.395L118.402,176.595L116.702,175.395L115.302,173.895L114.404,172.294L114.604,174.693L115.404,176.693L117.704,180.893L120.104,189.493L127.302,203.493L127.604,206.794L125.104,204.693L123.204,201.493L120.104,194.693L118.302,188.393L116.802,184.893L114.802,183.393L112.104,184.993L111.204,188.693L111.704,192.893L113.904,197.592L114.604,201.491L115.204,203.291L117.004,205.593L115.704,205.393L115.204,205.093L114.004,203.491L112.504,199.991L106.106,190.391L105.305,188.191L104.805,184.791L103.606,182.593L100.406,179.193L98.006,175.693L96.706,174.393L96.106,173.093L95.906,169.393L95.406,167.893L97.606,168.493L104.106,167.893L105.504,167.193L106.805,165.693L108.606,162.693L108.906,163.393L109.206,163.893L109.406,164.393L109.406,165.291L110.305,165.291L112.906,158.691L113.506,157.491L113.506,156.691L109.706,157.691L104.706,162.991L101.206,165.292L97.906,164.691L97.506,160.691L99.108,154.091L101.307,151.891L103.908,142.391L105.708,140.191L108.708,138.992L109.908,136.191L111.108,129.891L108.807,131.691L107.706,136.792L106.106,138.593L104.206,138.193L103.106,135.794L102.706,132.595L102.906,129.895L107.506,121.695L109.307,117.095L107.807,114.294L107.206,116.694L106.206,119.494L104.906,122.194L103.305,124.294L101.704,127.194L101.404,130.794L102.004,137.794L101.004,143.294L98.404,148.095L91.302,157.494L86.802,167.095L86.404,167.395L85.704,168.095L84.704,168.695L83.104,168.796L82.204,168.496L81.604,167.796L80.604,166.195L72.904,160.296L71.704,158.796L71.805,156.897L72.406,154.998L73.406,153.197L74.906,151.498L82.706,146.298L87.106,145.399L92.106,143.699L91.106,143.099L90.004,142.899L87.6,142.899L86.2,142.7L85.7,142.2L85.5,141.3L84.7,140.2L81.8,137.899L80.602,136.7L79.8,135L78.8,123.9L78.2,121.798L76.8,120.599L74.102,120.4L74.602,123.2L73.202,125.9L71.302,126.9L70.002,124.7L71.802,124.099L72.502,123.9L69.104,121.4L68,117.499L67.4,113.299L65.5,109.6L62.9,106.1L58.5,98.6L55.2,96.299L58.1,101.9L63.498,110.001L63.998,111.301L64.998,121.201L67.498,128.201L67.6,130.201L66.7,136.001L67.7,149.001L66.7,151.501L65.9,150.001L63.7,147.301L62.6,145.402L57.4,131.503L54.9,127.902L43.8,117.699L42.5,115.699L41.4,109.898L39.798,107.398L35.498,103.098L34.6,101.798L34.1,100.698L33.4,99.998L31.7,99.698L30.5,99.298L28,97.498L26.8,97.099L24.7,95.998L23.5,93.298L22.3,87.599L15.602,68.599L13.602,65.298L12.702,63.298L11.502,51.998L10.802,50.498L5.904,46.397L5.204,44.498L4.404,42.599L1.504,39.998L0.606,38.298L0,35.999L0.4,34.1L1,30.299L1.2,27.9L0.3,22.9L0.3,20.4L1,18.199L4.3,13.499L6,8.099L7.3,5.599L9.3,5.298L13.101,5.399L17.701,0L21.501,1.3L23.103,3.3L23.603,5.401L23.903,7.502L24.703,9.701L25.703,10.701L27.003,11.401L29.703,12.401L34.803,12.8L38.803,12L41.905,12.7L44.205,17.7L45.105,22.8L46.002,25.4L47.402,27.001L49.902,26.801L52.702,25.001L55.002,22.601L56.104,20.601L55.904,19.3L59.302,20.8L65.302,30.401L72.604,38.502L75.502,43.002L76.502,45.702L77.604,47.901L79.204,50.702L81.604,52.702L83.302,53.502L84.702,53.302L86.102,52.302L89,49.302L90.3,48.403L91.8,48.203L93.902,48.403L114.902,52.603L116.102,53.802L116.8,55.702L118.2,68.502L119.2,70.603L120.2,72.203L125.9,75.804L126.9,80.105L127.4,81.105L128.5,82.504L130.6,84.199L148.498,95.899L155.898,99.298L159.098,99.698L162.198,98.597L164.698,98.496L166.898,98.996L169.398,100.296L171.296,100.597L172.796,100.296L175.496,98.097L176.996,97.097L179.598,96.198L180.598,95.298L180.996,93.998L180.598,92.599L178.998,89.199L178.6,88.699L178.2,87.799L177.7,87.1L177.4,86.4L177.2,85.6L177.1,83.9L177.7,76.6L178.3,74.9L179.102,73.4L181.702,71.799L186.002,72.299L187.202,73.1L189.002,74.701L190.803,77.4L192.604,80.6L192.904,81.299L193.404,82.299L194.303,84.799L194.702,86.699L195.303,88.199L196.104,88.799L199.502,88.999L201.502,89.6L203.303,90.799L206.303,93.799L207.604,95.799L207.502,110.998L208.702,113.1L210.202,113.799L215.102,114.698L217.102,115.598L219,117.199L220.4,118.898L221.7,121.098L222.2,122.198L237.7,147.999L239.4,151.499L242.2,160.1L243.9,163.2L249.7,170.2L249.3,178.1L250,180.1L250.8,182.1L253.102,183.999L253.402,184.198L257.002,187.898L259.104,190.598L260.002,192.598L260.202,194.398L259.803,196.098L258.604,200.098L257.904,203.398L258.004,205.398L258.404,207.098L263.404,218.098L268.004,239.698L270.606,253.299L271.706,255.698L282.807,271.698L285.706,276.898L286.307,279.198L286.107,280.398L285.408,280.698L284.107,280.799L283.208,282.4L283.009,285.299L284.908,292.498L286.107,295.698L287.507,297.698L289.107,298.198L291.208,298.498L295.107,300.698L300.908,307.098L305.208,317.296L307.107,319.796L308.607,319.796L313.708,326.598L314.509,328.098L315.609,330.698L315.509,332.398L314.708,333.796L313.208,334.598L311.208,335.296L307.309,335.796L305.708,336.496L305.408,337.396L305.509,338.396L305.908,338.996L306.408,339.696L311.708,344.496L314.009,348.396L313.908,349.896L313.307,351.496L309.607,355.098L308.307,357.598L308.607,359.898L311.708,366.398L312.107,368.698L311.708,370.498L311.208,372.198L310.607,375.098L310.607,377.398L316.007,387.198L317.507,389.198L319.406,391.098L324.507,401.198L325.807,406.398L326.007,413.498L323.906,423.398L324.007,436.297L322.007,441.496L321.906,443.496L322.105,445.297L322.605,446.598L323.004,447.398L324.004,448.998L327.305,454.998L327.406,457.1L327.206,459.498L325.706,463.498L325.007,470.198L323.307,474.398L317.107,481.398L316.107,483.598L315.807,485.796L315.908,489.496L315.307,494.098L314.908,503.598L313.509,508.098L309.509,515.398L308.309,515.998L307.41,515.698L306.609,515.098L304.809,513.198L302.509,511.598L300.609,511.198L297.71,510.898L295.301,509.799ZM189.9,339.799L190.1,340.999L189.7,343.999L188.6,346.898L186.798,349.297L184.298,350.997L182.198,351.297L179.098,351.196L176.398,350.596L175.296,349.696L174.598,348.096L173.198,346.596L170.298,344.096L158.698,330.196L158.198,329.196L157.098,325.896L168.296,325.096L170.996,323.995L172.296,322.096L173.598,321.495L175.998,324.097L178.6,326.198L179.7,326.498L181,326.698L183.9,326.798L188.1,326.298L188.9,327.198L189.2,330.198L188.5,333.998L188.5,335.397L188.8,336.897L189.9,339.799ZM177.3,248.099L177.8,247.498L177.602,246.697L176.902,245.498L181.602,239.697L182.602,239.597L183.602,239.897L185.8,240.097L186.7,240.397L187.9,241.296L188.5,242.296L188.9,243.296L189.6,244.296L195.4,248.796L197.4,250.796L199.4,249.796L202,249.397L204.602,249.796L206.902,251.296L209.102,252.996L213.702,255.696L215.502,257.696L215.802,259.496L215.702,262.097L214.902,264.496L213.502,265.496L211.802,266.296L209.002,270.097L207.104,271.698L206.904,271.998L206.504,272.298L205.704,272.498L205.004,272.198L204.704,271.498L204.504,270.898L204.004,270.698L202.504,271.398L202.504,272.398L203.004,273.498L202.805,274.599L201.805,275.099L200.504,275.2L197.805,275L195.305,275.3L194.606,275.101L193.305,274.101L191.805,272.601L189.004,268.202L188.504,266.702L188.204,265.402L187.004,263.902L186.704,262.402L186.604,262.101L186.302,261.902L186.002,261.502L185.902,260.702L186.202,260.202L187.404,260.202L187.504,259.401L186.704,257.401L185.004,256.401L181.004,255.101L179.305,253.901L178.106,252.601L176,248.199L177.3,248.099ZM160.4,216.199L153.798,210.799L151.9,207.999L147.8,194.199L147.3,190.098L149.602,190.297L152.102,191.997L153.402,193.196L154.3,194.297L154.7,195.098L155.5,196.198L157.2,197.198L158.9,198.398L159.6,200.297L159.1,206.196L159.6,208.497L160.998,212.297L161.198,214.196L160.4,216.199ZM119.2,208.499L117,205.6L117.102,205.6L117.702,205.9L118.102,206.4L119.2,208.499ZM101.6,200.599L101.998,205.899L101.198,205.899L100.598,203.5L99.998,198.1L99.1,195.999L97.498,193.6L90.099,180L89.699,177.8L89.399,177.2L88.699,176.7L88.099,176L87.997,174.8L88.397,173.5L88.997,173L89.697,173.2L90.497,174L92.599,175.3L93.997,177.3L94.497,178.402L94.697,179.601L95.097,181.402L100.795,196.101L101.6,200.599Z" style="fill:rgb(193,40,56);fill-rule:nonzero;"/>
    <g transform="matrix(0.998422,0,0,0.998422,-100,0.315685)">
        <clipPath id="_clip1">
            <path d="M395.926,510.289L387.812,504.38L387.711,504.38L387.61,502.578L388.01,500.473L388.01,498.971L387.61,497.268L386.709,495.567L386.209,494.865L386.107,494.165L386.007,492.562L386.809,489.358L388.812,490.058L391.215,492.362L393.418,493.965L392.717,492.162L390.514,487.956L390.514,486.554L391.015,485.153L390.314,483.751L388.511,481.748L387.208,479.244L386.407,476.64L386.007,470.931L384.905,468.427L379.795,463.52L378.594,459.713L378.293,452.201L377.592,448.896L373.285,439.983L372.885,438.08L373.688,436.277L377.392,434.673L378.594,433.272L378.994,430.369L378.493,427.465L377.292,424.66L374.988,421.255L374.886,419.853L374.886,418.351L374.585,416.95L373.884,415.749L372.484,414.347L371.983,413.545L371.182,408.537L370.28,405.933L368.377,404.829L362.869,405.53L360.565,405.33L358.862,403.93L358.664,402.826L358.664,401.023L358.965,399.321L359.265,398.319L360.267,397.92L361.569,399.622L363.472,398.922L364.974,400.322L366.276,400.523L367.178,399.821L368.68,397.619L369.581,396.914L368.181,394.911L367.48,392.606L366.376,390.803L363.474,390.102L361.671,389.202L360.868,387.198L360.267,384.796L359.265,382.793L353.155,375.981L350.651,372.375L348.949,368.568L350.651,368.968L351.05,367.767L349.848,357.351L349.347,355.949L337.431,344.331L337.431,343.329L338.232,343.329L340.536,345.031L344.942,345.031L353.055,343.329L351.154,342.527L349.85,341.627L346.948,343.73L345.045,342.929L341.439,337.42L337.933,333.014L337.232,330.611L337.433,327.004L336.131,328.006L335.528,329.708L335.528,331.611L335.728,333.012L333.825,333.513L331.321,332.911L328.919,331.408L327.517,329.506L326.415,330.108L325.914,330.409L324.112,328.205L323.308,324.399L323.911,320.694L325.914,318.39L324.31,313.984L324.21,312.282L324.41,310.678L325.612,308.574L325.912,307.573L327.114,305.269L327.415,304.968L327.214,304.165L326.914,303.164L326.714,302.363L329.919,300.259L330.818,299.358L329.119,299.358L326.313,300.159L325.113,300.159L323.21,299.26L323.01,298.358L323.613,297.056L324.214,294.951L324.013,293.649L323.313,290.945L323.414,289.044L324.015,287.439L325.518,284.134L325.918,282.431L325.017,271.915L325.518,269.911L326.72,268.711L327.922,266.105L328.422,263.203L327.521,261.3L326.32,264.505L323.214,270.514L322.513,274.22L323.515,280.73L323.515,284.536L322.213,286.239L320.71,287.639L318.808,290.344L316.304,291.946L313.1,290.245L312.599,288.941L312.399,285.738L311.998,284.536L310.598,283.835L309.396,284.637L308.695,286.241L308.695,288.044L309.297,288.944L313.104,292.85L314.206,294.352L314.206,295.455L313.806,296.557L313.505,297.959L313.806,306.371L314.408,308.875L315.21,310.277L317.213,312.781L317.613,314.483L317.511,315.884L316.91,317.787L316.809,318.788L316.409,320.091L313.505,323.596L313.204,323.697L312.002,324.299L312.002,324.999L312.203,326.001L312.503,326.803L312.805,327.002L311.201,328.203L309.899,327.102L308.397,325.299L303.389,323.596L297.079,317.485L294.774,316.182L289.465,314.079L287.564,312.777L286.662,311.375L285.961,310.173L285.261,309.071L283.958,308.07L282.656,307.769L281.756,308.07L280.953,307.869L279.852,306.267L279.551,304.865L279.95,301.961L279.449,300.56L278.648,299.558L278.047,298.156L277.546,296.654L277.346,295.453L276.545,293.45L272.338,289.944L270.734,288.042L267.428,281.231L266.227,280.33L259.115,270.815L257.813,268.311L257.412,266.107L257.514,260.799L258.316,258.897L260.319,257.093L263.023,255.892L265.726,256.092L266.627,256.894L267.128,258.095L267.528,259.096L268.729,259.497L272.837,259.497L275.14,263.401L275.841,266.306L273.938,268.209L279.248,271.814L281.951,272.916L285.559,273.317L286.16,276.522L289.966,279.226L295.076,280.728L299.583,280.328L303.288,278.325L311.101,272.515L313.495,269.909L313.597,269.308L313.397,267.806L313.497,267.204L313.897,267.004L314.899,266.703L315.2,266.503L317.203,263.397L318.004,261.594L318.004,259.29L317.605,255.183L318.304,253.58L318.407,252.679L317.605,251.778L316.904,251.879L313.098,252.58L310.292,251.978L309.29,250.676L309.791,249.274L311.994,248.272L310.692,247.671L309.39,247.37L306.586,247.37L305.282,247.068L302.079,243.864L297.171,240.558L294.767,238.254L293.766,235.75L292.764,234.248L288.257,232.445L287.155,230.542L288.057,228.14L290.16,226.939L292.864,226.738L295.468,227.54L294.767,225.337L295.769,223.435L297.373,221.632L298.774,219.729L297.073,217.025L296.27,216.224L295.37,219.83L293.567,223.137L290.761,225.24L287.155,224.84L285.953,223.94L285.054,222.336L284.553,220.333L284.751,218.028L285.753,216.526L288.457,215.224L289.659,213.722L286.054,213.321L284.449,215.223L283.748,217.727L282.646,218.928L277.238,218.827L275.837,217.626L275.735,214.52L274.233,217.825L273.333,219.027L271.631,219.727L271.631,211.515L272.232,209.912L278.742,200.498L281.048,198.894L283.95,198.695L287.957,198.995L286.855,197.594L286.554,196.092L287.155,194.989L288.958,194.689L288.257,193.586L287.456,192.784L286.556,192.183L285.555,192.082L284.854,192.481L284.854,194.284L284.353,194.685L278.241,194.785L276.841,195.086L276.04,195.486L274.936,195.587L272.833,195.486L272.432,195.987L271.533,198.19L270.729,198.991L269.127,199.192L267.424,198.59L266.024,197.588L265.022,196.387L265.623,196.086L266.625,195.185L267.326,194.685L262.919,192.982L261.617,191.78L263.22,190.278L261.417,189.378L260.816,187.876L261.417,186.573L263.22,186.072L262.919,185.172L262.52,184.27L261.018,185.072L259.816,185.875L258.915,187.076L258.516,188.578L257.913,187.976L256.411,186.774L255.81,186.074L255.009,188.978L254.206,189.979L253.005,190.28L251.603,189.779L250.202,188.579L249.001,186.974L248.6,185.574L247.899,182.569L245.497,176.059L245.297,173.054L244.386,173.054L244.286,177.76L243.985,180.264L242.783,180.867L242.082,179.364L240.279,171.25L239.478,171.25L238.577,173.954L236.874,175.957L234.67,177.359L232.066,178.161L228.661,177.86L225.155,176.658L222.151,176.057L220.45,177.359L218.747,176.558L217.045,175.356L215.642,173.854L214.743,172.25L214.943,174.653L215.745,176.656L218.048,180.863L220.452,189.476L227.661,203.499L227.964,206.805L225.46,204.7L223.557,201.495L220.452,194.685L218.647,188.375L217.145,184.869L215.142,183.367L212.439,184.969L211.538,188.675L212.039,192.882L214.242,197.588L214.943,201.493L215.544,203.296L217.347,205.602L216.045,205.402L215.544,205.101L214.342,203.497L212.84,199.991L206.432,190.376L205.63,188.172L205.129,184.767L203.928,182.565L200.723,179.16L198.319,175.655L197.017,174.353L196.416,173.05L196.216,169.345L195.715,167.842L197.918,168.443L204.429,167.842L205.829,167.141L207.132,165.639L208.936,162.634L209.236,163.335L209.537,163.836L209.737,164.337L209.737,165.236L210.637,165.236L213.243,158.626L213.844,157.424L213.844,156.623L210.038,157.624L205.03,162.932L201.524,165.237L198.219,164.635L197.818,160.629L199.423,154.018L201.625,151.815L204.23,142.3L206.033,140.096L209.038,138.896L210.24,136.09L211.442,129.78L209.137,131.583L208.034,136.692L206.432,138.496L204.529,138.095L203.427,135.692L203.026,132.488L203.227,129.784L207.834,121.571L209.638,116.964L208.136,114.159L207.534,116.562L206.532,119.367L205.23,122.071L203.626,124.174L202.023,127.079L201.722,130.685L202.323,137.696L201.322,143.204L198.718,148.013L191.604,157.427L187.097,167.043L186.699,167.343L185.998,168.045L184.996,168.646L183.393,168.747L182.492,168.446L181.891,167.745L180.89,166.142L173.177,160.233L171.975,158.731L172.077,156.829L172.679,154.927L173.68,153.123L175.183,151.421L182.995,146.213L187.402,145.313L192.41,143.61L191.408,143.009L190.304,142.809L187.897,142.809L186.494,142.609L185.994,142.109L185.793,141.207L184.992,140.105L182.087,137.801L180.888,136.6L180.084,134.897L179.083,123.78L178.482,121.674L177.08,120.473L174.377,120.274L174.878,123.079L173.476,125.783L171.573,126.784L170.271,124.581L172.074,123.979L172.775,123.78L169.371,121.276L168.266,117.369L167.665,113.162L165.762,109.457L163.158,105.952L158.751,98.44L155.445,96.135L158.35,101.745L163.756,109.859L164.257,111.161L165.259,121.076L167.763,128.087L167.865,130.091L166.964,135.9L167.965,148.92L166.964,151.424L166.162,149.922L163.959,147.218L162.857,145.316L157.649,131.395L155.145,127.788L144.027,117.569L142.725,115.566L141.624,109.756L140.019,107.252L135.712,102.945L134.813,101.643L134.312,100.541L133.611,99.84L131.908,99.539L130.706,99.139L128.202,97.336L127,96.936L124.897,95.834L123.695,93.129L122.493,87.421L115.785,68.391L113.782,65.085L112.88,63.082L111.678,51.764L110.977,50.262L106.071,46.154L105.37,44.252L104.569,42.35L101.664,39.745L100.765,38.042L100.158,35.74L100.559,33.838L101.16,30.031L101.36,27.628L100.459,22.62L100.459,20.116L101.16,17.912L104.465,13.204L106.168,7.796L107.47,5.292L109.473,4.99L113.28,5.091L117.887,-0.316L121.693,0.986L123.298,2.989L123.798,5.093L124.099,7.198L124.9,9.4L125.902,10.402L127.204,11.103L129.908,12.104L135.016,12.504L139.022,11.703L142.129,12.404L144.433,17.412L145.334,22.52L146.233,25.124L147.635,26.728L150.139,26.527L152.943,24.724L155.247,22.321L156.351,20.317L156.15,19.014L159.554,20.517L165.563,30.133L172.877,38.247L175.779,42.754L176.781,45.458L177.885,47.661L179.487,50.466L181.891,52.469L183.592,53.27L184.994,53.07L186.396,52.069L189.299,49.064L190.601,48.163L192.103,47.963L194.209,48.163L215.242,52.37L216.444,53.571L217.143,55.474L218.545,68.294L219.547,70.398L220.548,72.001L226.257,75.608L227.259,79.915L227.76,80.917L228.861,82.318L230.965,84.016L248.891,95.734L256.303,99.139L259.508,99.539L262.613,98.437L265.116,98.336L267.32,98.836L269.824,100.138L271.725,100.44L273.227,100.138L275.932,97.936L277.434,96.934L280.04,96.034L281.042,95.132L281.44,93.83L281.042,92.429L279.439,89.024L279.04,88.523L278.64,87.622L278.139,86.922L277.839,86.22L277.638,85.419L277.538,83.716L278.139,76.405L278.74,74.702L279.543,73.2L282.147,71.596L286.454,72.097L287.656,72.899L289.459,74.503L291.263,77.206L293.067,80.411L293.367,81.111L293.868,82.113L294.768,84.617L295.168,86.52L295.77,88.022L296.572,88.623L299.975,88.824L301.979,89.425L303.782,90.626L306.787,93.631L308.09,95.634L307.988,110.857L309.19,112.963L310.692,113.663L315.6,114.563L317.603,115.465L319.504,117.068L320.907,118.77L322.209,120.973L322.709,122.075L338.234,147.917L339.937,151.422L342.741,160.037L344.444,163.142L350.253,170.153L349.852,178.065L350.553,180.069L351.355,182.072L353.66,183.974L353.961,184.173L357.566,187.879L359.672,190.583L360.571,192.586L360.771,194.389L360.372,196.092L359.171,200.098L358.47,203.403L358.57,205.407L358.971,207.109L363.979,218.127L368.586,239.761L371.192,253.383L372.294,255.786L383.412,271.811L386.316,277.02L386.918,279.323L386.717,280.525L386.017,280.826L384.714,280.927L383.814,282.53L383.615,285.434L385.517,292.644L386.717,295.849L388.12,297.852L389.722,298.353L391.826,298.654L395.732,300.857L401.542,307.267L405.849,317.481L407.751,319.985L409.253,319.985L414.362,326.798L415.164,328.301L416.266,330.905L416.166,332.607L415.364,334.008L413.861,334.811L411.858,335.51L407.953,336.011L406.349,336.712L406.049,337.613L406.15,338.615L406.55,339.216L407.05,339.917L412.359,344.724L414.664,348.631L414.562,350.133L413.96,351.736L410.255,355.343L408.953,357.847L409.253,360.151L412.359,366.661L412.759,368.965L412.359,370.768L411.858,372.47L411.256,375.375L411.256,377.678L416.665,387.494L418.167,389.497L420.069,391.4L425.178,401.516L426.48,406.724L426.68,413.836L424.576,423.751L424.677,436.671L422.674,441.878L422.573,443.881L422.772,445.685L423.273,446.988L423.673,447.789L424.674,449.392L427.981,455.401L428.082,457.506L427.881,459.908L426.379,463.915L425.679,470.625L423.976,474.832L417.766,481.843L416.765,484.046L416.464,486.248L416.566,489.954L415.964,494.563L415.564,504.078L414.163,508.585L410.156,515.897L408.955,516.498L408.054,516.197L407.252,515.596L405.449,513.693L403.145,512.091L401.242,511.69L398.339,511.39L395.926,510.289ZM290.358,340.02L290.559,341.222L290.158,344.227L289.056,347.13L287.251,349.533L284.747,351.236L282.644,351.536L279.539,351.435L276.835,350.834L275.731,349.933L275.032,348.33L273.63,346.828L270.725,344.324L259.107,330.402L258.606,329.4L257.504,326.095L268.72,325.294L271.424,324.191L272.726,322.289L274.031,321.687L276.434,324.293L279.04,326.398L280.142,326.698L281.444,326.898L284.349,326.998L288.555,326.498L289.357,327.399L289.657,330.404L288.956,334.21L288.956,335.611L289.257,337.113L290.358,340.02ZM277.738,248.175L278.239,247.573L278.041,246.771L277.34,245.57L282.047,239.76L283.049,239.66L284.05,239.96L286.252,240.16L287.153,240.461L288.355,241.361L288.956,242.363L289.357,243.364L290.058,244.366L295.867,248.873L297.87,250.876L299.873,249.875L302.477,249.475L305.084,249.875L307.387,251.377L309.591,253.08L314.198,255.784L316.001,257.787L316.301,259.59L316.201,262.195L315.4,264.598L313.998,265.6L312.295,266.401L309.491,270.208L307.59,271.811L307.389,272.112L306.989,272.412L306.187,272.613L305.486,272.312L305.186,271.611L304.985,271.01L304.485,270.81L302.982,271.511L302.982,272.512L303.483,273.614L303.284,274.717L302.282,275.218L300.979,275.319L298.276,275.119L295.772,275.419L295.072,275.22L293.769,274.218L292.266,272.716L289.461,268.31L288.96,266.807L288.66,265.505L287.458,264.003L287.157,262.501L287.057,262.199L286.755,262L286.454,261.599L286.354,260.798L286.654,260.297L287.858,260.297L287.959,259.495L287.157,257.492L285.455,256.49L281.448,255.188L279.747,253.986L278.546,252.684L276.436,248.275L277.738,248.175ZM260.812,216.225L254.199,210.816L252.298,208.012L248.192,194.19L247.691,190.082L249.997,190.282L252.501,191.984L253.803,193.185L254.702,194.288L255.103,195.09L255.904,196.192L257.607,197.194L259.309,198.395L260.01,200.297L259.51,206.206L260.01,208.51L261.411,212.316L261.611,214.218L260.812,216.225ZM219.547,208.512L217.343,205.609L217.445,205.609L218.046,205.909L218.447,206.41L219.547,208.512ZM201.919,200.6L202.317,205.908L201.516,205.908L200.915,203.506L200.314,198.097L199.415,195.993L197.81,193.59L190.4,179.968L189.999,177.765L189.698,177.164L188.997,176.663L188.396,175.962L188.294,174.76L188.695,173.458L189.296,172.957L189.997,173.158L190.798,173.959L192.903,175.261L194.304,177.264L194.804,178.368L195.005,179.569L195.405,181.373L201.112,196.095L201.919,200.6Z" clip-rule="nonzero"/>
        </clipPath>
        <g clip-path="url(#_clip1)">
            <g id="rect4677" transform="matrix(1,0,0,0.5,0,5.55112e-17)">
                <rect x="0" y="0" width="600" height="400" style="fill:white;"/>
            </g>
            <g>
                <path id="path3777" d="M415.2,200.7C415.2,262.8 363.5,313.1 299.8,313.1C236.1,313.1 184.4,262.8 184.4,200.7C184.4,138.6 236,88.4 299.8,88.4C363.6,88.4 415.2,138.7 415.2,200.7Z" style="fill:rgb(41,22,111);fill-rule:nonzero;"/>
                <path id="path3775" d="M407.1,200.7C407.1,258.9 359,306 299.8,306C240.6,306 192.5,258.9 192.5,200.7C192.5,142.5 240.5,95.4 299.8,95.4C359.1,95.4 407.1,142.6 407.1,200.7Z" style="fill:white;fill-rule:nonzero;"/>
                <path id="path3773" d="M396.5,200.7C396.5,254.1 353.2,297.4 299.8,297.4C246.4,297.4 203,254.2 203,200.7C203,147.2 246.3,104 299.7,104C353.1,104 396.5,147.3 396.5,200.7Z" style="fill:rgb(41,22,111);fill-rule:nonzero;"/>
                <path id="path1949" d="M299,239.1C299,239.1 291.3,238.6 287.5,237.6C283.9,236.7 278.7,232.5 278.7,232.5C278.7,232.5 283,229.9 285,227.5C287.9,224 291.1,215.4 291.3,206.3C291.5,197.2 286.5,189.5 286.5,178.8C286.5,169.7 288.8,160.8 291.1,155.8C293.1,151.4 298.4,140.2 298.7,140.2C299,140.2 305,151.3 306.9,155.8C309.1,160.8 311.4,169.7 311.4,178.8C311.4,189.5 306.4,197.2 306.6,206.3C306.8,215.4 310.1,224.1 312.9,227.5C314.9,229.9 319.2,232.5 319.2,232.5C319.2,232.5 314,236.7 310.4,237.6C306.6,238.6 299,239.1 299,239.1Z" style="fill:white;fill-rule:nonzero;"/>
                <path id="path2843" d="M298.4,257.2C298.4,257.2 306,257.3 312.9,256.6C320.3,255.8 330.9,251.5 336.9,248.8C343,246 349.5,241.8 353.8,237.6C357.6,233.9 359.7,228 360.2,224.5C360.7,221 359.1,217.4 356.9,215.3C355.9,214.3 353,213.6 350.4,213.7C348.8,213.7 347.3,214 346.4,214.5C343.9,216 343.3,219.4 343.8,222C344.2,223.8 347.3,225.3 347.2,227.2C347.1,229.1 343.5,231.1 338.9,233.4C333.6,236 328.4,239 320.6,241.1C313,243.2 299,244.4 298.7,244.4C298.4,244.4 284.4,243.2 276.8,241.1C269,238.9 263.8,235.9 258.5,233.4C253.8,231.1 250.3,229.1 250.2,227.2C250.1,225.3 252.8,224.2 253.6,222C254.3,220.2 253,216.9 251,214.5C250.3,213.7 248.6,213.7 247,213.7C244.4,213.7 241.5,214.3 240.5,215.3C238.4,217.4 236.7,221 237.2,224.5C237.7,228 239.8,234 243.6,237.6C248,241.8 254.4,246 260.5,248.8C266.5,251.5 277,255.9 284.5,256.6C291.3,257.3 298.4,257.2 298.4,257.2Z" style="fill:white;fill-rule:nonzero;"/>
                <path id="path2848" d="M342.2,226.5C342.2,226.5 338.7,226.4 334.8,222.8C330.9,219.2 328,212.3 328,208.2C328,204 329.6,196.7 330.5,194.4C331.4,192.1 333.4,187 332.4,184C331.4,181.1 327.5,184 324.4,181C321.4,178 319.5,172.9 320.6,170.3C321.7,167.6 326.9,165 329.3,163.5C331.7,162 334.6,160.1 337.9,159.5C341.2,158.9 343.3,158.9 344.6,157.1C345.9,155.3 348.3,152.9 351.5,153.7C354.8,154.5 357.1,159.1 355.8,162.2C354.8,164.7 352.4,165 353.3,166.7C354.2,168.5 357.5,169.5 359.5,168.7C361.5,167.9 364.4,169.3 365.2,171.7C366,174.1 365.2,178.1 363.8,179.7C362.4,181.3 361,183.5 361.9,184.4C362.8,185.3 363.9,183 365.9,182.6C367.9,182.2 369.9,183.7 371.2,185.9C372.5,188 372.6,191.7 370.4,193.6C368.3,195.5 366.1,197.4 366.4,198.5C366.7,199.6 370.3,199.9 372.3,199.9C374.3,199.9 377.2,201.3 377.2,204.1C377.2,206.9 374,209 372.9,211C371.8,213 373.3,215 375.3,213.7C377.3,212.3 380.9,211.7 382.2,213.6C383.6,215.5 385.1,218.9 382.8,222.6C380.6,226.1 372.1,226.8 369,223.6C365.9,220.4 358.6,211.7 357.1,205.2C355.6,198.7 353.4,192.2 352.7,188.3C351.9,184.4 347.4,174 345.9,172.5C344.4,171 339.2,167.6 339.2,167.6C339.2,167.6 342.4,171.4 342.7,174.3C343.1,177.2 344.3,184.4 343.1,188.6C341.8,192.8 339.1,200.6 338.4,203.1C337.8,205.6 337.9,213.3 338.7,215.6C339.5,217.9 341.1,220.9 341.6,222.4C342.1,223.9 342.3,226.4 342.2,226.5Z" style="fill:white;fill-rule:nonzero;"/>
                <path id="path2850" d="M256.9,225.5C256.9,225.5 260.4,225.4 264.3,221.8C268.2,218.3 271.1,211.3 271.1,207.2C271.1,203.1 269.5,195.7 268.6,193.4C267.7,191.1 265.7,186 266.7,183C267.7,180.1 271.6,183 274.7,180C277.7,177 279.6,171.9 278.5,169.3C277.4,166.6 272.2,164 269.8,162.5C267.4,161 264.5,159.1 261.2,158.5C257.9,157.9 255.8,157.9 254.5,156.1C253.2,154.3 250.8,151.9 247.6,152.7C244.3,153.5 242,158.1 243.3,161.2C244.3,163.7 246.7,164 245.8,165.7C244.9,167.5 241.6,168.5 239.6,167.7C237.6,166.9 234.7,168.3 233.9,170.7C233.1,173.1 233.9,177.1 235.3,178.7C236.7,180.2 238.1,182.5 237.2,183.4C236.3,184.3 235.2,182 233.2,181.6C231.2,181.2 229.2,182.7 227.9,184.9C226.6,187 226.5,190.7 228.7,192.6C230.8,194.5 233,196.4 232.7,197.5C232.4,198.6 228.8,198.9 226.8,198.9C224.8,198.9 221.9,200.3 221.9,203.1C221.9,205.9 225.1,208 226.2,210C227.3,212 225.8,214 223.8,212.7C221.8,211.3 218.2,210.7 216.9,212.6C215.5,214.5 214,217.9 216.3,221.6C218.5,225.1 227,225.8 230.1,222.6C233.1,219.4 240.5,210.7 242,204.2C243.5,197.6 245.7,191.2 246.4,187.3C247.1,183.4 251.7,173 253.2,171.5C254.7,170 259.9,166.6 259.9,166.6C259.9,166.6 256.7,170.4 256.4,173.3C256,176.2 254.8,183.4 256,187.6C257.3,191.8 260,199.6 260.7,202.1C261.4,204.6 261.2,212.3 260.4,214.6C259.6,216.9 258,219.9 257.5,221.4C256.8,222.7 256.8,225.4 256.9,225.5Z" style="fill:white;fill-rule:nonzero;"/>
                <path id="path2852" d="M343.7,134.7C343.7,134.7 339.9,140.8 335.9,142.8C331.9,144.8 324.3,146.3 319.2,144.1C314.1,141.8 310.4,138.7 309,135C307.6,131.3 308.4,127 311.5,123.6C314.7,120.2 320.7,117.7 320.7,117.7C320.7,117.7 317.6,121.5 317.8,124.8C318,127.8 319.8,131 322.3,132.5C324.8,134 330.7,136.3 333.8,136.5C337.6,136.7 343.8,134.8 343.7,134.7Z" style="fill:white;fill-rule:nonzero;"/>
                <path id="path2854" d="M272.1,115.9C263.5,115.9 256.6,122.7 256.6,131.1C256.6,139.5 263.6,146.2 272.1,146.2C280.7,146.2 287.6,139.4 287.6,131.1C287.6,122.8 280.7,115.9 272.1,115.9ZM272.1,123.8C276.2,123.8 279.5,127 279.5,130.9C279.5,134.8 276.2,138 272.1,138C268,138 264.7,134.8 264.7,130.9C264.7,127 268,123.8 272.1,123.8Z" style="fill:white;fill-rule:nonzero;"/>
                <path id="path3756" d="M310.6,275.6C310.6,282.2 305.2,287.6 298.6,287.6C292,287.6 286.6,282.2 286.6,275.6C286.6,269 292,263.6 298.6,263.6C305.2,263.6 310.6,269 310.6,275.6Z" style="fill:white;fill-rule:nonzero;"/>
                <path id="path3758" d="M338.1,268.6C338.1,273.6 334.1,277.6 329.1,277.6C324.1,277.6 320.1,273.6 320.1,268.6C320.1,263.6 324.1,259.6 329.1,259.6C334.1,259.6 338.1,263.6 338.1,268.6Z" style="fill:white;fill-rule:nonzero;"/>
                <path id="path3760" d="M278,268.8C278,273.8 274,277.8 269,277.8C264,277.8 260,273.8 260,268.8C260,263.8 264,259.8 269,259.8C274,259.8 278,263.9 278,268.8Z" style="fill:white;fill-rule:nonzero;"/>
                <path id="path3762" d="M365.4,252.4C365.4,256.4 362,259.6 357.7,259.6C353.4,259.6 350,256.4 350,252.4C350,248.4 353.4,245.2 357.7,245.2C362,245.2 365.4,248.4 365.4,252.4Z" style="fill:white;fill-rule:nonzero;"/>
                <path id="path3764" d="M246.7,251.9C246.7,255.9 243.3,259.1 239,259.1C234.7,259.1 231.3,255.9 231.3,251.9C231.3,247.9 234.7,244.7 239,244.7C243.3,244.7 246.7,247.9 246.7,251.9Z" style="fill:white;fill-rule:nonzero;"/>
            </g>
        </g>
    </g>
    <path id="_x31_0m-admin-1-states-provinces-shp.3555_1" serif:id="_x31_0m-admin-1-states-provinces-shp.3555" d="M295.301,509.799L287.2,503.9L287.099,503.9L286.998,502.1L287.398,499.999L287.398,498.499L286.998,496.799L286.099,495.1L285.599,494.4L285.498,493.701L285.398,492.1L286.198,488.901L288.198,489.6L290.597,491.901L292.797,493.501L292.097,491.701L289.898,487.501L289.898,486.102L290.398,484.703L289.698,483.303L287.898,481.303L286.597,478.803L285.797,476.203L285.398,470.503L284.297,468.003L279.196,463.104L277.996,459.303L277.696,451.803L276.996,448.503L272.696,439.604L272.296,437.704L273.098,435.904L276.796,434.303L277.996,432.904L278.396,430.005L277.896,427.106L276.696,424.305L274.396,420.906L274.294,419.506L274.294,418.006L273.994,416.608L273.294,415.408L271.896,414.009L271.396,413.208L270.596,408.208L269.696,405.608L267.796,404.506L262.296,405.206L259.996,405.006L258.296,403.608L258.098,402.506L258.098,400.706L258.398,399.006L258.698,398.006L259.698,397.608L260.998,399.307L262.898,398.608L264.398,400.006L265.698,400.206L266.598,399.506L268.098,397.307L268.998,396.603L267.6,394.603L266.9,392.302L265.798,390.502L262.9,389.802L261.1,388.903L260.298,386.903L259.698,384.504L258.698,382.504L252.598,375.703L250.098,372.103L248.398,368.302L250.098,368.701L250.496,367.502L249.296,357.103L248.796,355.703L236.898,344.103L236.898,343.103L237.698,343.103L239.998,344.802L244.398,344.802L252.498,343.103L250.6,342.302L249.298,341.403L246.4,343.503L244.5,342.703L240.9,337.203L237.4,332.804L236.7,330.405L236.9,326.804L235.6,327.804L234.998,329.503L234.998,331.403L235.198,332.802L233.298,333.302L230.798,332.701L228.4,331.201L227,329.302L225.9,329.903L225.4,330.203L223.6,328.003L222.798,324.203L223.4,320.503L225.4,318.203L223.798,313.804L223.698,312.105L223.898,310.503L225.098,308.403L225.398,307.403L226.598,305.103L226.898,304.802L226.698,304.001L226.398,303.001L226.198,302.201L229.398,300.101L230.296,299.201L228.6,299.201L225.798,300.001L224.6,300.001L222.7,299.103L222.5,298.203L223.102,296.903L223.702,294.801L223.502,293.501L222.803,290.801L222.904,288.903L223.504,287.301L225.004,284.001L225.404,282.301L224.504,271.801L225.004,269.801L226.204,268.603L227.404,266.001L227.904,263.103L227.004,261.203L225.805,264.403L222.704,270.403L222.004,274.103L223.004,280.603L223.004,284.403L221.704,286.103L220.204,287.501L218.305,290.201L215.805,291.801L212.606,290.103L212.106,288.801L211.906,285.603L211.506,284.403L210.108,283.703L208.908,284.503L208.208,286.105L208.208,287.905L208.809,288.804L212.61,292.703L213.71,294.203L213.71,295.304L213.311,296.405L213.01,297.804L213.311,306.203L213.912,308.703L214.712,310.103L216.712,312.603L217.112,314.302L217.01,315.701L216.41,317.601L216.309,318.601L215.91,319.901L213.01,323.401L212.71,323.502L211.51,324.103L211.51,324.802L211.71,325.802L212.01,326.603L212.311,326.802L210.71,328.001L209.41,326.901L207.91,325.101L202.91,323.401L196.61,317.3L194.309,315.999L189.008,313.899L187.11,312.599L186.21,311.199L185.51,309.999L184.811,308.899L183.51,307.899L182.21,307.599L181.311,307.899L180.51,307.699L179.41,306.099L179.11,304.699L179.508,301.8L179.008,300.401L178.208,299.401L177.608,298.001L177.108,296.501L176.908,295.302L176.108,293.302L171.908,289.802L170.307,287.903L167.006,281.103L165.807,280.203L158.706,270.703L157.406,268.203L157.006,266.003L157.108,260.703L157.908,258.804L159.908,257.003L162.608,255.804L165.307,256.003L166.206,256.804L166.706,258.003L167.106,259.003L168.305,259.403L172.406,259.403L174.706,263.301L175.406,266.201L173.506,268.101L178.807,271.701L181.506,272.801L185.108,273.201L185.708,276.401L189.508,279.101L194.61,280.601L199.11,280.201L202.809,278.201L210.61,272.401L213,269.799L213.102,269.199L212.902,267.699L213.002,267.098L213.402,266.898L214.402,266.598L214.702,266.398L216.702,263.297L217.502,261.497L217.502,259.196L217.104,255.096L217.802,253.495L217.904,252.596L217.104,251.696L216.404,251.797L212.604,252.497L209.802,251.896L208.802,250.596L209.302,249.196L211.502,248.196L210.202,247.596L208.902,247.295L206.102,247.295L204.8,246.994L201.602,243.795L196.702,240.494L194.302,238.194L193.302,235.694L192.302,234.194L187.802,232.394L186.702,230.494L187.602,228.096L189.702,226.896L192.402,226.696L195.002,227.497L194.302,225.297L195.302,223.398L196.904,221.598L198.302,219.698L196.604,216.998L195.802,216.198L194.904,219.799L193.104,223.1L190.302,225.2L186.702,224.801L185.502,223.902L184.604,222.301L184.104,220.301L184.302,218L185.302,216.5L188.002,215.2L189.202,213.7L185.602,213.3L184,215.199L183.3,217.699L182.2,218.898L176.8,218.797L175.402,217.598L175.3,214.497L173.8,217.797L172.902,218.997L171.202,219.696L171.202,211.497L171.802,209.896L178.302,200.497L180.604,198.896L183.502,198.697L187.502,198.997L186.402,197.598L186.102,196.098L186.702,194.997L188.502,194.697L187.802,193.596L187.002,192.795L186.104,192.195L185.104,192.094L184.404,192.493L184.404,194.293L183.904,194.693L177.802,194.793L176.404,195.094L175.604,195.493L174.502,195.594L172.402,195.493L172.002,195.993L171.104,198.193L170.302,198.993L168.702,199.193L167.002,198.592L165.604,197.592L164.604,196.393L165.204,196.092L166.204,195.193L166.904,194.693L162.504,192.993L161.204,191.793L162.805,190.293L161.004,189.395L160.404,187.895L161.004,186.594L162.805,186.094L162.504,185.195L162.106,184.295L160.606,185.096L159.406,185.897L158.506,187.096L158.108,188.596L157.506,187.995L156.006,186.795L155.406,186.096L154.606,188.995L153.805,189.995L152.606,190.295L151.206,189.795L149.807,188.597L148.608,186.995L148.208,185.597L147.508,182.597L145.11,176.097L144.91,173.097L144,173.097L143.9,177.795L143.6,180.295L142.4,180.897L141.7,179.397L139.9,171.295L139.1,171.295L138.2,173.995L136.5,175.995L134.3,177.395L131.7,178.195L128.3,177.895L124.8,176.695L121.8,176.095L120.102,177.395L118.402,176.595L116.702,175.395L115.302,173.895L114.404,172.294L114.604,174.693L115.404,176.693L117.704,180.893L120.104,189.493L127.302,203.493L127.604,206.794L125.104,204.693L123.204,201.493L120.104,194.693L118.302,188.393L116.802,184.893L114.802,183.393L112.104,184.993L111.204,188.693L111.704,192.893L113.904,197.592L114.604,201.491L115.204,203.291L117.004,205.593L115.704,205.393L115.204,205.093L114.004,203.491L112.504,199.991L106.106,190.391L105.305,188.191L104.805,184.791L103.606,182.593L100.406,179.193L98.006,175.693L96.706,174.393L96.106,173.093L95.906,169.393L95.406,167.893L97.606,168.493L104.106,167.893L105.504,167.193L106.805,165.693L108.606,162.693L108.906,163.393L109.206,163.893L109.406,164.393L109.406,165.291L110.305,165.291L112.906,158.691L113.506,157.491L113.506,156.691L109.706,157.691L104.706,162.991L101.206,165.292L97.906,164.691L97.506,160.691L99.108,154.091L101.307,151.891L103.908,142.391L105.708,140.191L108.708,138.992L109.908,136.191L111.108,129.891L108.807,131.691L107.706,136.792L106.106,138.593L104.206,138.193L103.106,135.794L102.706,132.595L102.906,129.895L107.506,121.695L109.307,117.095L107.807,114.294L107.206,116.694L106.206,119.494L104.906,122.194L103.305,124.294L101.704,127.194L101.404,130.794L102.004,137.794L101.004,143.294L98.404,148.095L91.302,157.494L86.802,167.095L86.404,167.395L85.704,168.095L84.704,168.695L83.104,168.796L82.204,168.496L81.604,167.796L80.604,166.195L72.904,160.296L71.704,158.796L71.805,156.897L72.406,154.998L73.406,153.197L74.906,151.498L82.706,146.298L87.106,145.399L92.106,143.699L91.106,143.099L90.004,142.899L87.6,142.899L86.2,142.7L85.7,142.2L85.5,141.3L84.7,140.2L81.8,137.899L80.602,136.7L79.8,135L78.8,123.9L78.2,121.798L76.8,120.599L74.102,120.4L74.602,123.2L73.202,125.9L71.302,126.9L70.002,124.7L71.802,124.099L72.502,123.9L69.104,121.4L68,117.499L67.4,113.299L65.5,109.6L62.9,106.1L58.5,98.6L55.2,96.299L58.1,101.9L63.498,110.001L63.998,111.301L64.998,121.201L67.498,128.201L67.6,130.201L66.7,136.001L67.7,149.001L66.7,151.501L65.9,150.001L63.7,147.301L62.6,145.402L57.4,131.503L54.9,127.902L43.8,117.699L42.5,115.699L41.4,109.898L39.798,107.398L35.498,103.098L34.6,101.798L34.1,100.698L33.4,99.998L31.7,99.698L30.5,99.298L28,97.498L26.8,97.099L24.7,95.998L23.5,93.298L22.3,87.599L15.602,68.599L13.602,65.298L12.702,63.298L11.502,51.998L10.802,50.498L5.904,46.397L5.204,44.498L4.404,42.599L1.504,39.998L0.606,38.298L0,35.999L0.4,34.1L1,30.299L1.2,27.9L0.3,22.9L0.3,20.4L1,18.199L4.3,13.499L6,8.099L7.3,5.599L9.3,5.298L13.101,5.399L17.701,0L21.501,1.3L23.103,3.3L23.603,5.401L23.903,7.502L24.703,9.701L25.703,10.701L27.003,11.401L29.703,12.401L34.803,12.8L38.803,12L41.905,12.7L44.205,17.7L45.105,22.8L46.002,25.4L47.402,27.001L49.902,26.801L52.702,25.001L55.002,22.601L56.104,20.601L55.904,19.3L59.302,20.8L65.302,30.401L72.604,38.502L75.502,43.002L76.502,45.702L77.604,47.901L79.204,50.702L81.604,52.702L83.302,53.502L84.702,53.302L86.102,52.302L89,49.302L90.3,48.403L91.8,48.203L93.902,48.403L114.902,52.603L116.102,53.802L116.8,55.702L118.2,68.502L119.2,70.603L120.2,72.203L125.9,75.804L126.9,80.105L127.4,81.105L128.5,82.504L130.6,84.199L148.498,95.899L155.898,99.298L159.098,99.698L162.198,98.597L164.698,98.496L166.898,98.996L169.398,100.296L171.296,100.597L172.796,100.296L175.496,98.097L176.996,97.097L179.598,96.198L180.598,95.298L180.996,93.998L180.598,92.599L178.998,89.199L178.6,88.699L178.2,87.799L177.7,87.1L177.4,86.4L177.2,85.6L177.1,83.9L177.7,76.6L178.3,74.9L179.102,73.4L181.702,71.799L186.002,72.299L187.202,73.1L189.002,74.701L190.803,77.4L192.604,80.6L192.904,81.299L193.404,82.299L194.303,84.799L194.702,86.699L195.303,88.199L196.104,88.799L199.502,88.999L201.502,89.6L203.303,90.799L206.303,93.799L207.604,95.799L207.502,110.998L208.702,113.1L210.202,113.799L215.102,114.698L217.102,115.598L219,117.199L220.4,118.898L221.7,121.098L222.2,122.198L237.7,147.999L239.4,151.499L242.2,160.1L243.9,163.2L249.7,170.2L249.3,178.1L250,180.1L250.8,182.1L253.102,183.999L253.402,184.198L257.002,187.898L259.104,190.598L260.002,192.598L260.202,194.398L259.803,196.098L258.604,200.098L257.904,203.398L258.004,205.398L258.404,207.098L263.404,218.098L268.004,239.698L270.606,253.299L271.706,255.698L282.807,271.698L285.706,276.898L286.307,279.198L286.107,280.398L285.408,280.698L284.107,280.799L283.208,282.4L283.009,285.299L284.908,292.498L286.107,295.698L287.507,297.698L289.107,298.198L291.208,298.498L295.107,300.698L300.908,307.098L305.208,317.296L307.107,319.796L308.607,319.796L313.708,326.598L314.509,328.098L315.609,330.698L315.509,332.398L314.708,333.796L313.208,334.598L311.208,335.296L307.309,335.796L305.708,336.496L305.408,337.396L305.509,338.396L305.908,338.996L306.408,339.696L311.708,344.496L314.009,348.396L313.908,349.896L313.307,351.496L309.607,355.098L308.307,357.598L308.607,359.898L311.708,366.398L312.107,368.698L311.708,370.498L311.208,372.198L310.607,375.098L310.607,377.398L316.007,387.198L317.507,389.198L319.406,391.098L324.507,401.198L325.807,406.398L326.007,413.498L323.906,423.398L324.007,436.297L322.007,441.496L321.906,443.496L322.105,445.297L322.605,446.598L323.004,447.398L324.004,448.998L327.305,454.998L327.406,457.1L327.206,459.498L325.706,463.498L325.007,470.198L323.307,474.398L317.107,481.398L316.107,483.598L315.807,485.796L315.908,489.496L315.307,494.098L314.908,503.598L313.509,508.098L309.509,515.398L308.309,515.998L307.41,515.698L306.609,515.098L304.809,513.198L302.509,511.598L300.609,511.198L297.71,510.898L295.301,509.799ZM189.9,339.799L190.1,340.999L189.7,343.999L188.6,346.898L186.798,349.297L184.298,350.997L182.198,351.297L179.098,351.196L176.398,350.596L175.296,349.696L174.598,348.096L173.198,346.596L170.298,344.096L158.698,330.196L158.198,329.196L157.098,325.896L168.296,325.096L170.996,323.995L172.296,322.096L173.598,321.495L175.998,324.097L178.6,326.198L179.7,326.498L181,326.698L183.9,326.798L188.1,326.298L188.9,327.198L189.2,330.198L188.5,333.998L188.5,335.397L188.8,336.897L189.9,339.799ZM177.3,248.099L177.8,247.498L177.602,246.697L176.902,245.498L181.602,239.697L182.602,239.597L183.602,239.897L185.8,240.097L186.7,240.397L187.9,241.296L188.5,242.296L188.9,243.296L189.6,244.296L195.4,248.796L197.4,250.796L199.4,249.796L202,249.397L204.602,249.796L206.902,251.296L209.102,252.996L213.702,255.696L215.502,257.696L215.802,259.496L215.702,262.097L214.902,264.496L213.502,265.496L211.802,266.296L209.002,270.097L207.104,271.698L206.904,271.998L206.504,272.298L205.704,272.498L205.004,272.198L204.704,271.498L204.504,270.898L204.004,270.698L202.504,271.398L202.504,272.398L203.004,273.498L202.805,274.599L201.805,275.099L200.504,275.2L197.805,275L195.305,275.3L194.606,275.101L193.305,274.101L191.805,272.601L189.004,268.202L188.504,266.702L188.204,265.402L187.004,263.902L186.704,262.402L186.604,262.101L186.302,261.902L186.002,261.502L185.902,260.702L186.202,260.202L187.404,260.202L187.504,259.401L186.704,257.401L185.004,256.401L181.004,255.101L179.305,253.901L178.106,252.601L176,248.199L177.3,248.099ZM160.4,216.199L153.798,210.799L151.9,207.999L147.8,194.199L147.3,190.098L149.602,190.297L152.102,191.997L153.402,193.196L154.3,194.297L154.7,195.098L155.5,196.198L157.2,197.198L158.9,198.398L159.6,200.297L159.1,206.196L159.6,208.497L160.998,212.297L161.198,214.196L160.4,216.199ZM119.2,208.499L117,205.6L117.102,205.6L117.702,205.9L118.102,206.4L119.2,208.499ZM101.6,200.599L101.998,205.899L101.198,205.899L100.598,203.5L99.998,198.1L99.1,195.999L97.498,193.6L90.099,180L89.699,177.8L89.399,177.2L88.699,176.7L88.099,176L87.997,174.8L88.397,173.5L88.997,173L89.697,173.2L90.497,174L92.599,175.3L93.997,177.3L94.497,178.402L94.697,179.601L95.097,181.402L100.795,196.101L101.6,200.599Z" style="fill:none;fill-rule:nonzero;stroke:black;stroke-width:0.17px;"/>
</svg>
