<?xml version="1.0" encoding="UTF-8" standalone="no"?>
<!DOCTYPE svg PUBLIC "-//W3C//DTD SVG 1.1//EN" "http://www.w3.org/Graphics/SVG/1.1/DTD/svg11.dtd">
<svg width="100%" height="100%" viewBox="0 0 1588 1059" version="1.1" xmlns="http://www.w3.org/2000/svg" xmlns:xlink="http://www.w3.org/1999/xlink" xml:space="preserve" xmlns:serif="http://www.serif.com/" style="fill-rule:evenodd;clip-rule:evenodd;stroke-linecap:round;stroke-linejoin:round;stroke-miterlimit:2;">
    <g transform="matrix(4.16667,0,0,4.16667,-706.25,-595.833)">
        <clipPath id="_clip1">
            <path d="M480.123,268.05L479.438,267.82L478.791,267.453L476.602,266.779L476.059,266.752L473.618,267.094L472.414,267.539L471.402,268.198L470.463,269.076L469.686,270.182L467.74,274.113L466.76,275.365L462.019,279.98L459.203,281.846L457.734,282.412L456.887,282.248L454.587,280.744L453.396,280.264L450.744,280.117L448.467,280.863L446.88,282.531L446.297,285.256L444.687,283.807L445.513,281.203L447.357,278.48L448.815,276.748L449.997,274.801L451.154,267.859L452.025,267.737L452.244,267.094L452.24,266.125L452.421,265.068L452.983,264.091L454.223,262.924L455.5,260.575L456.779,258.873L458.316,257.566L459.94,257.26L461.791,257.115L463.303,256.072L464.397,254.509L465.021,252.779L461.581,248.162L461.141,247.4L459.932,246.525L456.639,242.156L456.414,241.955L455.84,241.563L455.566,241.252L455.525,240.94L455.615,240.091L455.592,239.745L454.858,237.45L454.726,236.658L454.587,230.765L454.972,227.962L456.202,223.196L456.016,221.99L455.059,221.187L453.185,220.647L449.997,220.336L446.68,220.455L443.8,219.574L443.227,216.657L444.1,213.143L445.53,210.622L446.314,210.087L447.212,209.687L448.064,209.147L448.704,208.21L448.806,207.478L448.485,206.095L448.481,205.41L448.846,204.383L449.308,203.484L449.616,202.608L449.511,201.583L446.094,198.604L445.253,198.211L444.185,197.5L443.227,196.653L442.263,195.231L441.519,195.07L440.667,195.07L439.876,194.955L439.357,195.07L437.937,195.01L436.944,194.672L437.716,193.968L438.569,193.368L438.421,192.915L437.157,192.091L435.967,190.792L435.088,189.573L434.751,188.132L435.178,186.122L435.267,184.983L434.664,184.444L433.832,184.045L433.258,183.305L432.851,181.101L432.568,180.416L431.785,179.626L429.728,178.208L429.135,177.42L428.592,175.289L428.247,174.664L427.721,174.243L426.421,173.762L425.97,173.472L425.481,172.71L424.54,169.969L422.632,166.306L419.831,162.745L416.542,159.572L410.576,155.801L409.987,154.867L408.899,149.508L408.308,147.724L407.425,146.956L406.313,146.847L403.599,146.022L401.556,145.823L350.402,146.107L350.019,151.036L349.463,151.795L331.846,155.626L330.479,155.566L329.155,155.279L327.65,154.719L325.746,153.555L324.282,152.229L322.84,151.291L320.982,151.23L308.924,153.792L305.287,155.119L302.395,156.787L301.915,157.532L301.859,158.038L301.961,158.576L301.971,159.428L300.875,165.426L300.92,165.68L301.228,166.591L301.26,166.99L301.009,167.184L300.597,167.13L300.2,167.13L300.038,167.529L300.058,168.524L299.951,168.806L299.691,168.855L297.201,170.388L296.461,171.13L295.155,173.421L294.914,173.675L294.814,177.104L294.489,177.809L293.851,177.864L293.062,177.76L292.32,178.04L291.945,178.717L291.243,181.382L291.031,181.757L290.861,181.953L290.6,182.092L290.148,182.232L289.535,182.516L289.481,182.854L289.634,183.23L289.623,183.616L286.889,192.406L286.517,192.915L285.961,193.368L285.693,193.684L285.484,194.16L285.17,194.672L284.778,194.578L284.368,194.3L284.025,194.249L282.671,195.01L282.22,195.414L281.572,196.26L281.592,196.902L281.915,197.649L281.866,198.271L280.76,198.585L279.37,199.287L277.451,202.462L276.113,203.566L274.42,203.85L272.881,203.74L271.311,203.85L269.56,204.785L267.997,203.177L266.316,204.328L265.043,206.822L264.676,209.147L265.026,209.969L266.131,211.329L266.214,211.98L265.922,212.066L264.665,212.205L264.211,212.437L263.436,213.54L262.772,214.701L261.713,217.252L260.622,218.58L259.167,219.518L256.071,221.018L253.634,222.811L252.418,223.002L250.593,222.35L247.546,220.455L246.283,220.145L244.187,220.511L240.678,221.618L238.83,223.002L238.83,223.512L240.115,224.99L239.84,228.811L241.568,230.227L241.754,229.746L241.933,229.493L242.085,229.151L242.536,229.064L243.708,230.227L243.723,229.603L243.812,229.466L243.986,229.435L244.298,229.064L244.865,230.991L246.45,232.131L248.465,232.582L250.33,232.388L253.745,231.138L255.569,230.823L256.959,231.274L256.959,231.868L255.136,231.955L253.145,232.331L251.54,233.058L250.745,234.678L250.48,234.785L250.269,235.04L250.33,235.667L250.63,235.781L251.214,235.754L251.773,235.92L252.026,236.513L252.531,237.317L253.693,237.45L254.976,237.227L255.859,236.827L256.827,237.286L258.32,237.568L259.691,237.568L260.299,237.112L260.825,236.858L264.131,237.881L259.523,237.794L257.225,238.023L255.588,238.729L254.312,238.955L248.142,238.984L247.489,238.478L247.219,237.957L246.861,237.673L245.95,237.881L243.708,240.402L244.109,248.953L243.708,249.014L243.575,251.483L243.628,252.805L244.002,253.69L244.754,254.626L245.574,256.009L246.234,257.458L246.741,259.839L247.334,261.111L249.465,264.653L249.95,265.28L250.601,265.537L251.431,265.28L251.814,264.711L251.814,263.998L251.479,263.325L253.184,261.876L254.366,260.152L254.236,258.367L252.026,256.714L253.131,256.148L251.822,255.726L250.601,255.164L249.944,254.283L250.33,252.896L250.625,253.776L251.074,254.313L251.705,254.421L252.525,253.971L253.987,255.895L255.121,256.858L256.406,257.26L257.321,256.858L257.89,255.895L258.648,253.406L259.152,253.406L259.407,253.944L259.691,254.253L260.133,254.395L260.834,254.509L260.834,255.046L259.436,255.922L258.622,257.089L257.67,258.082L255.859,258.425L256.693,259.527L258.027,259.976L259.457,259.871L261.54,258.62L262.6,258.62L263.806,258.846L265.223,258.901L268.082,258.052L269.655,256.398L270.939,254.197L272.949,251.763L270.056,258.082L268.515,260.004L268.571,259.976L268.75,260.883L270.261,261.005L271.97,260.798L273.446,261.111L272.702,261.452L271.095,262.582L270.432,262.809L269.539,262.725L268.036,262.298L262.727,261.928L261.937,261.702L261.45,262.416L261.051,263.209L260.812,264.091L260.834,265.019L259.785,264.535L259.152,264.992L258.651,265.872L258.051,266.665L257.023,267.231L254.606,268.167L253.675,268.872L252.905,270.8L254.084,272.016L256.301,272.787L258.648,273.324L258.648,273.859L257.553,273.859L257.87,274.828L258.471,275.449L259.31,275.844L260.299,276.063L260.299,276.613L258.148,276.943L256.114,275.529L254.158,273.691L251.399,272.246L249.761,269.494L248.736,268.361L247.501,267.68L246.077,267.231L244.616,267.202L243.257,267.769L242.895,267.094L242.71,266.888L242.167,267.231L241.68,266.919L239.971,266.665L240.306,267.426L241.343,268.927L241.568,269.701L241.44,270.718L241.087,271.367L239.971,272.787L240.982,273.066L241.479,273.832L241.82,274.623L242.41,274.967L244.449,277.656L244.851,278.539L245.02,279.129L245.402,279.266L245.778,279.324L245.95,279.611L246.114,279.668L248.892,284.117L249.839,284.879L249.444,285.789L249.479,286.781L249.839,288.475L250.008,291.91L249.839,293.178L250.33,293.178L251.53,291.674L253.523,290.158L255.726,288.877L257.553,288.17L261.094,287.625L261.752,287.652L262.131,287.742L262.483,287.742L263.033,287.625L263.626,287.314L264.042,286.98L264.503,286.666L265.223,286.529L264.686,287.488L264.353,288.475L264.184,289.527L264.131,290.664L264.506,291.963L265.417,292.645L266.502,293.104L267.42,293.719L268.649,295.762L269.285,297.316L270.37,298.305L272.949,298.676L272.115,299.529L271.4,300.551L270.898,301.688L270.71,302.818L270.207,303.889L270.068,304.48L270.432,304.77L270.6,305.023L271.944,308.967L273.678,310.553L275.707,311.967L277.328,313.615L274.671,312.469L273.339,312.086L272.078,311.904L270.575,312.279L267.843,313.811L266.273,314.121L267.972,316.109L269.041,317.045L269.91,317.406L271.124,317.771L271.877,318.658L272.949,320.754L276.733,323.213L280.809,321.545L282.262,321.314L280.845,321.996L280.045,322.705L279.793,323.672L280.068,325.15L280.794,326.617L281.794,327.354L282.959,327.889L286.149,330.156L286.965,330.469L287.483,330.557L287.992,330.557L293.145,331.541L293.771,331.49L294.943,332.42L297.538,331.461L301.53,328.99L303.909,325.34L305.347,324.063L306.966,325.15L305.844,325.43L305.375,326.279L305.446,327.408L305.926,328.453L305.421,328.99L304.992,328.6L303.675,327.889L300.589,332.135L299.596,334.861L301.53,336.736L301.53,335.596L302.084,335.596L302.554,336.051L303.083,336.025L303.674,335.623L304.273,335.084L304.352,335.877L304.305,336.504L304.075,336.988L303.675,337.316L303.675,337.836L305.016,338.975L305.443,340.67L306.031,342.219L307.847,342.879L308.731,342.965L310.333,343.334L310.849,343.385L311.833,343.133L313.541,342.426L315.295,342.084L316.941,341.324L317.73,341.121L319.271,341.09L320.22,340.639L321.63,340.236L322.153,339.906L322.369,339.191L322.669,338.744L323.436,338.596L324.351,338.596L325.151,338.436L325.27,338.744L325.746,339.477L326.281,339.166L326.844,339.08L327.389,339.053L327.887,338.939L328.483,338.939L328.14,340.521L327.043,341.09L325.572,341.301L324.107,341.744L324.261,341.996L324.44,342.594L324.594,342.879L322.466,342.992L320.922,343.695L319.56,344.543L317.981,344.979L317.614,344.807L316.641,344.094L316.061,343.936L315.517,344.008L314.541,344.346L314.135,344.438L312.114,344.41L311.187,344.543L310.311,344.979L308.869,344.496L307.811,345.377L306.966,346.586L305.465,347.893L304.432,349.428L303.72,350.918L303.979,351.602L304.636,351.916L305.298,352.514L305.978,352.857L307.407,352.082L308.262,352.168L309.762,352.764L310.406,353.242L311.056,354.24L311.676,354.404L312.469,354.52L313.074,354.84L313.465,355.34L313.598,356.057L310.966,354.863L307.956,353.898L305.023,354.014L302.584,356.057L317.967,360.959L337.322,368.605L356.109,375.41L367.464,382.006L371.714,385.551L372.832,386.719L373.567,388.518L374.063,388.518L374.722,388.07L375.704,387.922L377.942,387.98L377.651,388.459L377.409,388.775L377.026,388.951L376.304,389.061L377.515,390.141L379.036,391.188L380.644,392.033L383.942,392.777L385.276,393.854L387.772,392.654L388.392,392.287L388.222,390.275L388.558,388.916L390.753,387.666L391.524,386.34L392.022,384.809L392.196,383.621L391.905,382.006L392.166,381.473L393.919,381.268L394.514,381.043L394.938,380.621L395.103,379.908L394.839,378.926L393.7,377.047L393.49,376.227L393.737,375.91L395.19,374.584L397.983,370.221L399.35,369.939L405.955,366.963L406.646,366.307L413.305,357.787L425.219,348.408L428.495,346.561L431.55,345.852L432.612,345.408L433.509,344.691L445.062,330.668L448.11,328.082L451.896,326.029L452.483,325.824L454.33,325.535L454.123,306.08L454.238,305.141L454.568,304.404L455.289,303.801L457.322,302.674L458.173,301.852L460.042,298.422L461.223,296.953L463.107,296.016L464.709,295.762L471.182,295.734L472.833,295.504L474.406,295.025L475.963,294.117L477.935,292.225L478.156,290.723L477.531,289.104L476.944,286.838L477.107,285.023L478.52,281.963L480.988,272.074L481.047,267.915L480.123,268.05ZM303.183,345.57L302.684,343.217L302.759,342.279L303.675,341.744L302.833,340.553L301.879,339.566L300.737,338.854L299.3,338.436L296.206,338.543L295.423,338.121L296.606,336.736L295.031,336.08L293.377,335.963L288.582,336.367L285.547,337.154L284.201,337.316L275.447,337.35L272.354,337.836L271.168,338.283L270.185,339.314L269.871,340.418L266.868,341.121L266.868,341.744L275.082,343.936L281.898,344.947L284.51,346.279L291.828,348.209L292.995,348.316L294.652,348.912L296.247,350.414L297.662,352.395L298.75,354.404L297.1,354.404L297.832,355.598L299.126,356.057L300.523,355.85L301.53,354.926L301.606,353.898L300.913,351.234L300.989,349.967L301.7,348.652L302.417,347.865L302.968,347.018L303.183,345.57Z"/>
        </clipPath>
        <g clip-path="url(#_clip1)">
            <rect x="169.5" y="143" width="381" height="84.667" style="fill:rgb(33,179,75);fill-rule:nonzero;"/>
            <rect x="169.5" y="227.667" width="381" height="84.666" style="fill:white;fill-rule:nonzero;"/>
            <rect x="169.5" y="312.333" width="381" height="84.667" style="fill:rgb(25,114,185);fill-rule:nonzero;"/>
        </g>
    </g>
    <g transform="matrix(4.16667,0,0,4.16667,-706.25,-595.833)">
        <path d="M480.123,268.05L479.438,267.82L478.791,267.453L476.602,266.779L476.059,266.752L473.618,267.094L472.414,267.539L471.402,268.198L470.463,269.076L469.686,270.182L467.74,274.113L466.76,275.365L462.019,279.98L459.203,281.846L457.734,282.412L456.887,282.248L454.587,280.744L453.396,280.264L450.744,280.117L448.467,280.863L446.88,282.531L446.297,285.256L444.687,283.807L445.513,281.203L447.357,278.48L448.815,276.748L449.997,274.801L451.154,267.859L452.025,267.737L452.244,267.094L452.24,266.125L452.421,265.068L452.983,264.091L454.223,262.924L455.5,260.575L456.779,258.873L458.316,257.566L459.94,257.26L461.791,257.115L463.303,256.072L464.397,254.509L465.021,252.779L461.581,248.162L461.141,247.4L459.932,246.525L456.639,242.156L456.414,241.955L455.84,241.563L455.566,241.252L455.525,240.94L455.615,240.091L455.592,239.745L454.858,237.45L454.726,236.658L454.587,230.765L454.972,227.962L456.202,223.196L456.016,221.99L455.059,221.187L453.185,220.647L449.997,220.336L446.68,220.455L443.8,219.574L443.227,216.657L444.1,213.143L445.53,210.622L446.314,210.087L447.212,209.687L448.064,209.147L448.704,208.21L448.806,207.478L448.485,206.095L448.481,205.41L448.846,204.383L449.308,203.484L449.616,202.608L449.511,201.583L446.094,198.604L445.253,198.211L444.185,197.5L443.227,196.653L442.263,195.231L441.519,195.07L440.667,195.07L439.876,194.955L439.357,195.07L437.937,195.01L436.944,194.672L437.716,193.968L438.569,193.368L438.421,192.915L437.157,192.091L435.967,190.792L435.088,189.573L434.751,188.132L435.178,186.122L435.267,184.983L434.664,184.444L433.832,184.045L433.258,183.305L432.851,181.101L432.568,180.416L431.785,179.626L429.728,178.208L429.135,177.42L428.592,175.289L428.247,174.664L427.721,174.243L426.421,173.762L425.97,173.472L425.481,172.71L424.54,169.969L422.632,166.306L419.831,162.745L416.542,159.572L410.576,155.801L409.987,154.867L408.899,149.508L408.308,147.724L407.425,146.956L406.313,146.847L403.599,146.022L401.556,145.823L350.402,146.107L350.019,151.036L349.463,151.795L331.846,155.626L330.479,155.566L329.155,155.279L327.65,154.719L325.746,153.555L324.282,152.229L322.84,151.291L320.982,151.23L308.924,153.792L305.287,155.119L302.395,156.787L301.915,157.532L301.859,158.038L301.961,158.576L301.971,159.428L300.875,165.426L300.92,165.68L301.228,166.591L301.26,166.99L301.009,167.184L300.597,167.13L300.2,167.13L300.038,167.529L300.058,168.524L299.951,168.806L299.691,168.855L297.201,170.388L296.461,171.13L295.155,173.421L294.914,173.675L294.814,177.104L294.489,177.809L293.851,177.864L293.062,177.76L292.32,178.04L291.945,178.717L291.243,181.382L291.031,181.757L290.861,181.953L290.6,182.092L290.148,182.232L289.535,182.516L289.481,182.854L289.634,183.23L289.623,183.616L286.889,192.406L286.517,192.915L285.961,193.368L285.693,193.684L285.484,194.16L285.17,194.672L284.778,194.578L284.368,194.3L284.025,194.249L282.671,195.01L282.22,195.414L281.572,196.26L281.592,196.902L281.915,197.649L281.866,198.271L280.76,198.585L279.37,199.287L277.451,202.462L276.113,203.566L274.42,203.85L272.881,203.74L271.311,203.85L269.56,204.785L267.997,203.177L266.316,204.328L265.043,206.822L264.676,209.147L265.026,209.969L266.131,211.329L266.214,211.98L265.922,212.066L264.665,212.205L264.211,212.437L263.436,213.54L262.772,214.701L261.713,217.252L260.622,218.58L259.167,219.518L256.071,221.018L253.634,222.811L252.418,223.002L250.593,222.35L247.546,220.455L246.283,220.145L244.187,220.511L240.678,221.618L238.83,223.002L238.83,223.512L240.115,224.99L239.84,228.811L241.568,230.227L241.754,229.746L241.933,229.493L242.085,229.151L242.536,229.064L243.708,230.227L243.723,229.603L243.812,229.466L243.986,229.435L244.298,229.064L244.865,230.991L246.45,232.131L248.465,232.582L250.33,232.388L253.745,231.138L255.569,230.823L256.959,231.274L256.959,231.868L255.136,231.955L253.145,232.331L251.54,233.058L250.745,234.678L250.48,234.785L250.269,235.04L250.33,235.667L250.63,235.781L251.214,235.754L251.773,235.92L252.026,236.513L252.531,237.317L253.693,237.45L254.976,237.227L255.859,236.827L256.827,237.286L258.32,237.568L259.691,237.568L260.299,237.112L260.825,236.858L264.131,237.881L259.523,237.794L257.225,238.023L255.588,238.729L254.312,238.955L248.142,238.984L247.489,238.478L247.219,237.957L246.861,237.673L245.95,237.881L243.708,240.402L244.109,248.953L243.708,249.014L243.575,251.483L243.628,252.805L244.002,253.69L244.754,254.626L245.574,256.009L246.234,257.458L246.741,259.839L247.334,261.111L249.465,264.653L249.95,265.28L250.601,265.537L251.431,265.28L251.814,264.711L251.814,263.998L251.479,263.325L253.184,261.876L254.366,260.152L254.236,258.367L252.026,256.714L253.131,256.148L251.822,255.726L250.601,255.164L249.944,254.283L250.33,252.896L250.625,253.776L251.074,254.313L251.705,254.421L252.525,253.971L253.987,255.895L255.121,256.858L256.406,257.26L257.321,256.858L257.89,255.895L258.648,253.406L259.152,253.406L259.407,253.944L259.691,254.253L260.133,254.395L260.834,254.509L260.834,255.046L259.436,255.922L258.622,257.089L257.67,258.082L255.859,258.425L256.693,259.527L258.027,259.976L259.457,259.871L261.54,258.62L262.6,258.62L263.806,258.846L265.223,258.901L268.082,258.052L269.655,256.398L270.939,254.197L272.949,251.763L270.056,258.082L268.515,260.004L268.571,259.976L268.75,260.883L270.261,261.005L271.97,260.798L273.446,261.111L272.702,261.452L271.095,262.582L270.432,262.809L269.539,262.725L268.036,262.298L262.727,261.928L261.937,261.702L261.45,262.416L261.051,263.209L260.812,264.091L260.834,265.019L259.785,264.535L259.152,264.992L258.651,265.872L258.051,266.665L257.023,267.231L254.606,268.167L253.675,268.872L252.905,270.8L254.084,272.016L256.301,272.787L258.648,273.324L258.648,273.859L257.553,273.859L257.87,274.828L258.471,275.449L259.31,275.844L260.299,276.063L260.299,276.613L258.148,276.943L256.114,275.529L254.158,273.691L251.399,272.246L249.761,269.494L248.736,268.361L247.501,267.68L246.077,267.231L244.616,267.202L243.257,267.769L242.895,267.094L242.71,266.888L242.167,267.231L241.68,266.919L239.971,266.665L240.306,267.426L241.343,268.927L241.568,269.701L241.44,270.718L241.087,271.367L239.971,272.787L240.982,273.066L241.479,273.832L241.82,274.623L242.41,274.967L244.449,277.656L244.851,278.539L245.02,279.129L245.402,279.266L245.778,279.324L245.95,279.611L246.114,279.668L248.892,284.117L249.839,284.879L249.444,285.789L249.479,286.781L249.839,288.475L250.008,291.91L249.839,293.178L250.33,293.178L251.53,291.674L253.523,290.158L255.726,288.877L257.553,288.17L261.094,287.625L261.752,287.652L262.131,287.742L262.483,287.742L263.033,287.625L263.626,287.314L264.042,286.98L264.503,286.666L265.223,286.529L264.686,287.488L264.353,288.475L264.184,289.527L264.131,290.664L264.506,291.963L265.417,292.645L266.502,293.104L267.42,293.719L268.649,295.762L269.285,297.316L270.37,298.305L272.949,298.676L272.115,299.529L271.4,300.551L270.898,301.688L270.71,302.818L270.207,303.889L270.068,304.48L270.432,304.77L270.6,305.023L271.944,308.967L273.678,310.553L275.707,311.967L277.328,313.615L274.671,312.469L273.339,312.086L272.078,311.904L270.575,312.279L267.843,313.811L266.273,314.121L267.972,316.109L269.041,317.045L269.91,317.406L271.124,317.771L271.877,318.658L272.949,320.754L276.733,323.213L280.809,321.545L282.262,321.314L280.845,321.996L280.045,322.705L279.793,323.672L280.068,325.15L280.794,326.617L281.794,327.354L282.959,327.889L286.149,330.156L286.965,330.469L287.483,330.557L287.992,330.557L293.145,331.541L293.771,331.49L294.943,332.42L297.538,331.461L301.53,328.99L303.909,325.34L305.347,324.063L306.966,325.15L305.844,325.43L305.375,326.279L305.446,327.408L305.926,328.453L305.421,328.99L304.992,328.6L303.675,327.889L300.589,332.135L299.596,334.861L301.53,336.736L301.53,335.596L302.084,335.596L302.554,336.051L303.083,336.025L303.674,335.623L304.273,335.084L304.352,335.877L304.305,336.504L304.075,336.988L303.675,337.316L303.675,337.836L305.016,338.975L305.443,340.67L306.031,342.219L307.847,342.879L308.731,342.965L310.333,343.334L310.849,343.385L311.833,343.133L313.541,342.426L315.295,342.084L316.941,341.324L317.73,341.121L319.271,341.09L320.22,340.639L321.63,340.236L322.153,339.906L322.369,339.191L322.669,338.744L323.436,338.596L324.351,338.596L325.151,338.436L325.27,338.744L325.746,339.477L326.281,339.166L326.844,339.08L327.389,339.053L327.887,338.939L328.483,338.939L328.14,340.521L327.043,341.09L325.572,341.301L324.107,341.744L324.261,341.996L324.44,342.594L324.594,342.879L322.466,342.992L320.922,343.695L319.56,344.543L317.981,344.979L317.614,344.807L316.641,344.094L316.061,343.936L315.517,344.008L314.541,344.346L314.135,344.438L312.114,344.41L311.187,344.543L310.311,344.979L308.869,344.496L307.811,345.377L306.966,346.586L305.465,347.893L304.432,349.428L303.72,350.918L303.979,351.602L304.636,351.916L305.298,352.514L305.978,352.857L307.407,352.082L308.262,352.168L309.762,352.764L310.406,353.242L311.056,354.24L311.676,354.404L312.469,354.52L313.074,354.84L313.465,355.34L313.598,356.057L310.966,354.863L307.956,353.898L305.023,354.014L302.584,356.057L317.967,360.959L337.322,368.605L356.109,375.41L367.464,382.006L371.714,385.551L372.832,386.719L373.567,388.518L374.063,388.518L374.722,388.07L375.704,387.922L377.942,387.98L377.651,388.459L377.409,388.775L377.026,388.951L376.304,389.061L377.515,390.141L379.036,391.188L380.644,392.033L383.942,392.777L385.276,393.854L387.772,392.654L388.392,392.287L388.222,390.275L388.558,388.916L390.753,387.666L391.524,386.34L392.022,384.809L392.196,383.621L391.905,382.006L392.166,381.473L393.919,381.268L394.514,381.043L394.938,380.621L395.103,379.908L394.839,378.926L393.7,377.047L393.49,376.227L393.737,375.91L395.19,374.584L397.983,370.221L399.35,369.939L405.955,366.963L406.646,366.307L413.305,357.787L425.219,348.408L428.495,346.561L431.55,345.852L432.612,345.408L433.509,344.691L445.062,330.668L448.11,328.082L451.896,326.029L452.483,325.824L454.33,325.535L454.123,306.08L454.238,305.141L454.568,304.404L455.289,303.801L457.322,302.674L458.173,301.852L460.042,298.422L461.223,296.953L463.107,296.016L464.709,295.762L471.182,295.734L472.833,295.504L474.406,295.025L475.963,294.117L477.935,292.225L478.156,290.723L477.531,289.104L476.944,286.838L477.107,285.023L478.52,281.963L480.988,272.074L481.047,267.915L480.123,268.05ZM303.183,345.57L302.684,343.217L302.759,342.279L303.675,341.744L302.833,340.553L301.879,339.566L300.737,338.854L299.3,338.436L296.206,338.543L295.423,338.121L296.606,336.736L295.031,336.08L293.377,335.963L288.582,336.367L285.547,337.154L284.201,337.316L275.447,337.35L272.354,337.836L271.168,338.283L270.185,339.314L269.871,340.418L266.868,341.121L266.868,341.744L275.082,343.936L281.898,344.947L284.51,346.279L291.828,348.209L292.995,348.316L294.652,348.912L296.247,350.414L297.662,352.395L298.75,354.404L297.1,354.404L297.832,355.598L299.126,356.057L300.523,355.85L301.53,354.926L301.606,353.898L300.913,351.234L300.989,349.967L301.7,348.652L302.417,347.865L302.968,347.018L303.183,345.57Z" style="fill:none;stroke:rgb(153,153,153);stroke-width:0.25px;"/>
    </g>
</svg>
