<?xml version="1.0" encoding="UTF-8" standalone="no"?>
<!DOCTYPE svg PUBLIC "-//W3C//DTD SVG 1.1//EN" "http://www.w3.org/Graphics/SVG/1.1/DTD/svg11.dtd">
<svg width="100%" height="100%" viewBox="0 0 2726 1372" version="1.1" xmlns="http://www.w3.org/2000/svg" xmlns:xlink="http://www.w3.org/1999/xlink" xml:space="preserve" xmlns:serif="http://www.serif.com/" style="fill-rule:evenodd;clip-rule:evenodd;stroke-miterlimit:2;">
    <g transform="matrix(4.16667,0,0,4.16667,29.3,-431.242)">
        <clipPath id="_clip1">
            <path d="M262.659,168.77L262.816,169.491L262.891,169.416L262.868,168.949L262.659,168.77ZM457.206,339.552L456.345,336.612L456.137,335.296L456.541,315.728L454.458,308.645L453.178,306.63L452.992,304.865L452.737,304.204L451.992,303.491L451.523,303.294L451.378,303.561L451.604,304.204L451.604,304.777L451.095,305.477L450.74,306.456L450.534,307.606L450.458,308.807L449.89,308.807L449.908,307.566L449.277,304.204L448.762,304.204L448.084,305.063L447.402,304.923L447.257,304.279L448.144,303.643L447.522,303.111L447.292,302.632L447.129,302.155L446.72,301.622L446.291,300.895L446.649,300.385L447.257,299.927L447.57,299.353L447.478,299.025L447.089,298.226L447.001,297.958L447.49,295.847L447.57,295.684L446.029,291.806L445.584,291.142L443.645,289.729L442.674,289.38L442.974,290.521L442.459,291.142L442.064,290.366L441.92,289.786L442.035,289.313L442.459,288.814L441.556,287.313L440.687,286.326L438.478,284.271L438.616,283.38L438.089,282.754L437.192,282.308L436.207,281.948L435.59,282.794L434.76,283.097L433.802,282.97L432.788,282.518L433.39,280.676L434.252,279.789L435.393,279.69L436.774,280.189L437.852,281.117L439.9,283.696L440.751,284.271L442.596,283.72L442.39,282.105L441.238,280.287L437.638,276.566L436.786,275.161L436.207,273.425L435.639,273.425L433.869,273.735L432.139,271.779L431.166,268.94L431.665,267.122L431.959,266.927L432.417,266.632L432.788,266.609L432.19,265.608L430.508,264.318L429.91,263.199L429.883,262.177L430.171,261.51L430.345,260.83L429.91,259.795L429.476,260.125L428.632,260.531L428.202,260.872L428.15,260.505L428.029,260.284L427.863,260.096L427.688,259.795L428.058,259.383L427.688,258.603L427.439,258.982L426.911,259.385L426.502,259.795L425.482,257.441L424.88,256.461L423.943,255.456L423.242,254.296L422.571,251.296L421.905,250.083L421.391,250.083L420.899,251.871L419.497,251.987L418.038,250.922L417.355,249.178L417.217,248.914L416.5,248.7L416.215,248.378L416.1,247.873L416.1,247.457L416.163,247.219L416.215,247.24L416.129,246.414L416.215,243.784L416.84,243.784L418.114,247.253L419.058,251.168L420.575,249.089L419.914,245.302L417.923,238.614L417.744,237.27L417.009,234.689L416.482,231.51L415.585,231.111L414.45,231.111L413.386,230.612L412.929,229.575L412.506,226.667L412.528,226.068L413.501,226.531L414.601,228.737L415.654,229.477L415.579,227.23L414.276,222.949L413.688,219.62L413.004,218.477L412.064,217.498L411.052,216.927L410.145,216.857L409.264,217.121L407.081,218.113L407.94,220.062L406.643,220.876L402.817,220.952L401,220.428L399.691,219.172L398.603,217.671L397.422,216.408L395.691,217.828L394.395,218.027L394.025,217.274L395.102,215.84L396.496,215.257L397.937,215.588L399.383,216.472L400.785,217.544L401.393,216.263L401.079,215.417L400.483,214.628L400.27,213.513L400.924,212.087L401.833,212.237L402.395,213.315L401.964,214.651L404.032,214.327L403.777,212.298L401.964,208.403L401.491,208.658L400.27,208.974L401.052,208.063L401.908,207.666L402.522,207.063L402.533,205.563L401.764,204.32L399.453,201.815L399.691,201.019L398.887,200.575L398.418,200.473L398.149,200.787L397.937,201.583L396.763,197.233L395.744,195.07L393.701,194.146L392.752,193.172L390.969,188.875L389.753,187.9L388.219,187.458L387.144,186.338L384.474,181.797L381.459,178.188L380.892,179.557L380.041,181.041L378.905,182.11L377.487,182.217L376.174,181.2L376.95,180.272L377.848,179.455L376.869,178.757L376.835,177.174L373.823,174.384L372.888,173.079L374.199,173.682L376.492,174.262L377.487,174.781L378.402,176.242L378.623,176.484L379.387,176.209L379.774,175.626L379.792,175.044L379.474,174.781L377.864,173.749L376.301,171.364L375.121,168.697L374.651,166.827L374.269,167.094L373.98,167.222L373.726,167.43L373.454,167.915L372.888,167.915L372.685,166.008L371.474,165.254L370.132,165.033L369.489,164.735L369.952,163.55L371.058,163.57L373.454,164.45L369.489,156.602L368.597,154.023L368.065,153.657L366.914,153.928L366.711,154.626L367.104,155.574L367.781,156.602L366.091,155.684L361.773,151.696L361.341,150.827L361.976,150.617L363.493,150.867L363.985,151.12L364.87,152.235L365.513,152.519L366.52,151.994L365.391,150.537L363.597,148.87L362.665,147.719L361.987,146.604L339.016,128.153L335.768,126.318L334.159,125.151L323.26,112.471L322.497,111.332L321.738,108.617L320.581,107.808L318.924,107.5L315.481,107.672L313.171,108.047L311.43,108.807L311.592,110.069L312.848,110.967L317.641,112.083L320.674,113.701L326.674,120.553L333.979,126.475L336.995,127.994L336.995,128.609L330.813,125.786L328.215,124.171L318.543,113.756L317.641,113.221L316.933,113.313L315.949,113.609L315.064,113.64L314.687,112.907L314.277,112.688L312.28,112.177L311.592,112.083L310.879,111.847L310.637,111.241L310.707,109.5L310.225,108.387L308.992,108.246L305.602,108.624L299.089,108.052L297.62,108.702L294.332,111.705L292.526,112.596L293.086,113.559L294.262,115.082L294.807,116.009L295.141,117.092L295.303,118.047L295.658,118.849L296.566,119.469L296.665,118.88L297.324,119.15L298.238,119.722L300.137,120.391L303.326,122.876L307.32,125.078L309.322,125.896L311.337,126.284L310.417,125.269L308.79,123.866L307.871,122.876L309.659,123.626L312.771,126.318L314.352,127.142L314.919,127.6L315.522,127.927L316.158,127.727L316.702,126.678L316.17,125.847L315.267,125.171L314.687,124.581L314.492,122.548L315.522,122.571L317.079,123.455L322.271,125.699L324.799,127.33L330.726,132.409L331.491,132.635L334.21,132.562L334.639,132.639L335.757,133.446L336.058,133.278L336.335,132.84L336.995,132.588L338.708,132.501L339.276,132.588L339.848,132.921L341.348,134.046L341.857,134.289L343.594,134.659L345.538,135.559L351.206,139.402L347.258,138.651L342.008,136.315L337.573,135.101L335.559,134.91L328.035,137.865L323.914,138.86L322.177,137.698L322.692,137.135L322.403,136.561L322.177,135.997L323.185,135.484L322.704,134.582L320.736,132.875L319.48,132.075L314.687,130.884L309.665,127.998L307.146,126.992L304.461,126.905L305.694,128.435L311.853,132.016L313.479,133.214L314.694,134.413L315.649,135.686L316.442,137.135L315.487,137.28L314.739,137.561L314.121,137.917L313.606,138.321L311.77,140.726L311.019,141.106L309.357,141.355L307.291,141.998L305.462,142.909L304.461,143.946L304.513,145.059L304.901,147.006L305.555,148.855L306.452,149.682L308.756,150.867L309.729,151.05L309.891,151.527L309.694,152.237L309.694,157.072L308.841,160.481L306.167,167.344L305.602,170.236L304.612,172.317L304.043,174.343L303.001,175.253L300.49,176.484L295.658,180.797L294.917,181.023L293.794,181.229L293.022,181.644L293.353,182.475L293.794,183.208L294.03,184.179L294.238,186.145L294.083,192.112L293.926,193.01L295.941,198.178L295.193,206.279L294.418,207.945L294.238,208.687L294.059,208.853L293.092,211.812L292.016,212.965L290.68,213.875L289.55,214.962L289.071,216.666L289.071,220.126L288.892,221.343L288.457,221.897L287.919,222.355L287.42,223.277L286.616,231.407L285.847,234.887L285.662,236.628L285.441,237.548L284.358,238.962L283.954,239.754L283.797,240.683L283.954,241.023L284.256,241.298L284.526,242.025L284.561,242.759L284.457,244.477L284.526,245.486L284.787,246.109L285.197,246.707L285.563,247.415L285.662,248.378L282.872,253.679L283.108,254.578L283.943,255.103L284.979,256.395L285.853,258.006L286.228,259.481L284.256,260.862L280.399,260.56L277.749,258.647L279.41,255.192L277.534,252.986L277.39,250.511L278.803,246.055L278.872,245.44L278.803,243.468L278.93,242.584L279.229,242.35L279.619,242.31L279.978,242.025L280.823,240.368L281.639,238.101L280.643,238.115L279.833,237.792L279.212,237.182L278.803,236.348L280.359,233.574L281.639,230.612L279.172,234.458L278.803,235.49L278.431,237.076L277.477,238.962L276.197,240.62L274.809,241.509L275.248,243.002L275.688,247.915L275.375,249.465L275.208,249.182L275.208,249.091L275.144,249.048L274.809,248.894L274.821,251.557L276.91,260.941L278.275,264.338L279.126,268.643L280.1,270.686L282.257,281.1L282.241,284.16L282.484,285.682L283.108,286.829L283.572,288.085L283.369,289.688L282.953,291.348L282.825,292.797L282.222,292.391L281.975,292.432L281.639,292.797L282.131,293.866L286.228,323.57L286.061,324.161L285.743,324.782L285.598,325.439L285.945,326.152L286.448,326.478L287.537,326.715L287.936,326.984L288.346,327.9L288.526,329.017L288.555,331.581L288.503,331.529L288.294,331.588L288.05,331.924L287.936,332.718L287.42,332.718L287.021,332.051L286.228,329.254L285.835,328.533L285.377,327.912L285.07,327.118L285.095,325.846L284.556,327.906L288.538,341.96L288.555,342.943L288.329,343.898L287.42,346.099L287.42,352.083L288.653,358.986L297.521,381.613L298.209,386.325L298.008,386.329L297.573,386.291L297.167,386.407L297.075,386.892L297.301,387.35L297.671,387.667L298.029,387.894L298.209,388.027L299.529,393.363L301.051,396.091L301.747,399.974L302.453,401.409L302.586,401.832L302.556,403.214L302.707,403.991L306.551,412.066L307.586,413.413L307.801,413.778L307.767,414.483L307.871,414.837L308.124,415.138L308.687,415.572L315.464,422.731L317.008,423.974L317.641,423.356L318.832,423.942L320.656,425.389L323.144,425.898L327.29,427.38L327.607,427.589L328.127,428.333L328.423,428.571L328.862,428.582L329.182,428.361L329.489,428.085L329.875,427.954L330.531,428.124L330.882,428.519L331.155,428.913L331.544,429.087L334.333,429.486L335.601,429.389L336.995,428.571L337.615,429.504L338.06,430.406L338.766,431.089L340.121,431.361L344.954,430.794L346.372,431.211L347.831,431.971L349.208,432.5L350.378,432.239L352.415,430.725L353.55,430.078L354.66,429.655L356.09,429.458L359.494,429.655L360.963,427.954L367.371,423.229L369.554,422.395L371.803,422.835L373.066,421.065L375.156,420.265L379.757,419.427L383.959,417.998L392.623,416.137L394.429,415.353L396.235,414.268L397.195,413.836L397.931,413.639L398.395,413.111L398.557,411.712L398.87,411.05L399.524,410.871L400.125,411.341L400.27,412.619L410.295,409.066L413.386,407.393L428.829,395.314L430.951,394.18L432.503,393.712L437.349,390.303L439.965,387.691L447.789,375.361L448.728,372.96L448.144,370.934L450.511,367.246L450.985,365.825L451.251,364.786L452.461,362.469L452.737,360.967L452.813,359.167L453.033,357.808L456.87,344.601L457.341,341.287L457.206,339.552ZM270.328,170.291L269.298,170.937L270.126,170.885L270.38,170.679L272.083,170.679L271.816,170.369L270.328,170.291ZM292.982,180.942L292.573,180.426L292.259,181.87L292.982,180.942ZM277.657,134.91L276.684,132.896L276.26,132.588L274.554,132.464L273.119,132.016L272.771,131.132L272.199,130.434L271.648,130.321L271.404,131.191L271.404,134.602L272.257,135.651L274.219,136.289L276.313,136.165L277.657,134.91ZM290.101,124.224L291.397,125.151L292.439,125.026L293.938,124.151L294.522,124.296L295.362,124.815L296.542,125.177L297.625,125.167L298.209,124.581L297.84,123.795L296.751,123.183L295.466,122.644L294.522,122.05L294.326,121.534L294.204,120.285L293.926,120.033L292.312,120.125L291.97,120.033L291.298,119.266L290.935,118.425L290.807,117.457L290.778,116.319L290.997,115.19L291.316,114.208L291.235,113.506L290.256,113.221L288.434,113.601L287.919,115.082L287.71,116.906L286.802,118.331L288.81,122.323L290.101,124.224ZM275.19,168.274L274.924,169.071L275.324,169.877L276.26,170.236L278.08,170.433L279.989,170.949L283.393,172.459L286.825,175.479L287.687,175.916L288.352,176.433L289.244,177.517L290.546,178.51L292.526,178.757L291.796,177.438L287.936,173.079L289.336,173.317L291.733,174.497L293.092,174.781L290.256,172.056L286.877,170.103L283.334,168.764L279.978,167.915L276.26,167.915L275.19,168.274ZM298.325,153.415L298.743,153.133L299.257,152.534L299.373,151.965L299.147,151.583L298.609,151.16L298.118,151.867L297.62,152.15L298.325,153.415ZM287.386,129.527L288.138,129.425L288.399,129.012L288.625,127.279L288.294,126.137L287.461,125.52L286.755,125.513L286.721,125.978L287.194,126.817L286.843,127.098L286.172,127.163L285.569,126.652L284.979,125.143L284.544,124.699L284.237,125.133L284.121,128.246L284.66,128.994L287.386,129.527ZM443.641,283.929L443.593,284.786L443.87,285.607L444.583,287.12L444.732,287.992L447.507,292.054L447.858,292.797L448.773,293.565L448.999,295.37L448.669,300.784L448.773,301.599L449.289,302.149L450.458,303.077L451.707,302.067L451.753,300.396L450.342,293.14L447.384,288.472L446.43,285.925L445.683,284.814L444.647,282.418L443.593,281.381L443.998,282.354L443.895,283.161L443.641,283.929Z"/>
        </clipPath>
        <g clip-path="url(#_clip1)">
            <rect x="-7.032" y="103.498" width="654" height="327" style="fill:rgb(253,183,19);fill-rule:nonzero;"/>
            <rect x="227.318" y="130.748" width="395.125" height="272.5" style="fill:rgb(141,31,41);fill-rule:nonzero;"/>
            <path d="M264.888,176.494C264.888,176.494 261.183,168.95 257.09,165.876C251.025,161.323 238.59,161.652 233.313,156.339C226.989,150.074 233.803,141.797 233.746,141.079L233.4,136.708C233.4,136.708 237.664,136.656 239.459,136.376C242.159,135.956 243.212,133.759 248.239,134.085C260.877,134.905 260.368,146.292 261.082,156.021C261.717,159.726 263.185,164.557 264.021,168.261C264.736,171.438 264.888,176.494 264.888,176.494Z" style="fill:rgb(253,183,19);fill-rule:nonzero;"/>
            <path d="M264.888,176.494C264.888,176.494 261.183,168.95 257.09,165.876C251.025,161.323 238.59,161.652 233.313,156.339C226.989,150.074 233.803,141.797 233.746,141.079L233.4,136.708C233.4,136.708 237.664,136.656 239.459,136.376C242.159,135.956 243.212,133.759 248.239,134.085C260.877,134.905 260.368,146.292 261.082,156.021C261.717,159.726 263.185,164.557 264.021,168.261C264.736,171.438 264.888,176.494 264.888,176.494Z" style="fill:none;stroke:rgb(3,4,4);stroke-width:0.53px;"/>
            <path d="M264.888,357.502C264.888,357.502 261.183,365.046 257.09,368.119C251.025,372.673 238.59,372.344 233.313,377.656C226.989,383.922 233.803,392.198 233.746,392.917L233.4,397.288C233.4,397.288 237.664,397.34 239.459,397.619C242.159,398.04 243.212,400.236 248.239,399.91C260.877,399.091 260.368,387.704 261.082,377.975C261.717,374.27 263.185,369.438 264.021,365.734C264.736,362.559 264.888,357.502 264.888,357.502Z" style="fill:rgb(253,183,19);fill-rule:nonzero;"/>
            <path d="M264.888,357.502C264.888,357.502 261.183,365.046 257.09,368.119C251.025,372.673 238.59,372.344 233.313,377.656C226.989,383.922 233.803,392.198 233.746,392.917L233.4,397.288C233.4,397.288 237.664,397.34 239.459,397.619C242.159,398.04 243.212,400.236 248.239,399.91C260.877,399.091 260.368,387.704 261.082,377.975C261.717,374.27 263.185,369.438 264.021,365.734C264.736,362.559 264.888,357.502 264.888,357.502Z" style="fill:none;stroke:rgb(3,4,4);stroke-width:0.53px;"/>
            <path d="M381.739,230.626C381.953,230.299 381.48,228.645 380.689,226.95C379.456,224.309 378.959,223.87 377.201,223.87C371.696,223.87 362.846,221.41 353.721,217.343C348.452,214.995 346.632,214.455 346.001,215.053C344.389,216.58 347.068,220.204 351.217,222.109C354.898,223.799 365.188,225.875 369.882,225.875C372.605,225.875 372.67,225.998 371.12,228.238L369.98,229.885L373.061,229.965C374.755,230.008 377.094,230.273 378.259,230.554C381.282,231.283 381.312,231.283 381.74,230.626L381.739,230.626ZM324.386,266.803C324.781,266.429 324.609,265.854 323.947,265.332C322.496,264.192 322.573,262.496 324.165,260.553C325.36,259.095 325.51,256.913 325.921,234.898C326.63,196.96 329.451,168.424 333.17,161.578C334.65,158.853 334.442,158.842 330.617,161.444C325.689,164.797 321.937,169.164 318.613,175.414C312.336,187.213 310.155,203.088 310.155,236.974C310.155,256.216 310.287,258.733 311.383,260.542C312.424,262.26 312.479,262.894 311.748,264.729C311.273,265.919 311.059,267.056 311.27,267.255C312.671,268.583 322.879,268.23 324.386,266.803ZM328.633,272.69C335.459,269.652 336.049,261.989 329.613,259.978C326.94,259.143 325.234,259.592 324.211,261.403C323.428,262.789 323.952,265.309 325.023,265.309C325.385,265.309 325.682,265.775 325.682,266.346C325.682,269.006 315.259,270.212 310.985,268.045C309.484,267.285 308.83,265.309 310.08,265.309C311.014,265.309 311.659,263.296 311.182,261.872C310.532,259.932 308.577,259.261 305.741,260.002C299.343,261.675 299.522,269.193 306.037,272.384C311.379,275 323.088,275.159 328.633,272.69ZM323.424,280.272C323.669,278.644 320.96,277.173 315.634,276.042C311.726,275.213 310.001,275.683 310.294,277.499C310.454,278.49 311.756,279.215 315.448,280.367C321.357,282.211 323.135,282.19 323.424,280.272ZM327.163,280.611C328.289,279.47 329.21,278.122 329.21,277.616C329.21,275.979 324.762,278.877 324.195,280.885C323.515,283.293 324.618,283.191 327.163,280.611ZM323.42,285.643C323.637,284.213 322.722,283.701 315.258,281.074C309.685,279.112 307.218,280.037 308.999,283.421C309.619,284.599 310.661,285.138 312.996,285.487C314.733,285.747 317.107,286.256 318.271,286.617C321.382,287.583 323.18,287.243 323.42,285.643ZM323.42,291.012C323.572,290.009 322.952,289.34 321.094,288.501C317.085,286.69 312.292,285.852 311.138,286.759C309.012,288.43 310.428,290.674 313.864,291.077C315.248,291.24 317.123,291.661 318.032,292.015C320.673,293.041 323.185,292.572 323.42,291.012ZM327.233,296.263C329.021,294.641 329.868,292.712 328.793,292.712C327.556,292.712 324.272,295.658 324.272,296.768C324.272,298.5 324.883,298.396 327.233,296.263ZM323.214,296.426C323.214,294.648 319.55,292.753 315.167,292.261C311.627,291.864 311.569,291.887 311.569,293.654C311.569,295.118 312.126,295.693 314.569,296.757C318.494,298.466 323.214,298.285 323.214,296.426ZM357.288,323.091C360.013,322.017 365.911,317.023 365.911,315.789C365.911,315.401 364.283,313.611 362.294,311.812C358.107,308.022 353.553,301.643 352.373,297.912C351.757,295.968 348.784,292.638 340.409,284.516L329.265,273.707L326.053,274.521C324.287,274.968 322.131,275.346 321.264,275.358C319.768,275.381 319.795,275.467 321.783,277.006L323.881,278.63L326.821,276.997C329.672,275.415 329.774,275.405 330.125,276.679C330.331,277.424 329.887,278.716 329.099,279.665C328.334,280.584 327.9,281.628 328.132,281.983C328.363,282.339 327.629,283.082 326.5,283.635C324.408,284.66 322.956,288.033 324.607,288.033C326.093,288.033 329.369,283.991 328.991,282.624C328.798,281.924 328.891,281.204 329.199,281.023C330.475,280.277 330.396,283.45 329.099,285.012C328.334,285.931 327.9,286.975 328.132,287.33C328.363,287.686 327.629,288.429 326.5,288.981C324.422,290 322.954,293.381 324.591,293.381C326.196,293.381 329.418,289.518 329.02,288.072C328.811,287.316 328.891,286.551 329.199,286.371C330.059,285.868 330.522,288.373 329.797,289.601C329.408,290.258 329.411,291.156 329.806,291.867C330.52,293.157 329.795,295.634 328.48,296.404C327.917,296.734 328.298,297.382 329.666,298.414C331.645,299.909 331.684,300.065 331.684,306.66C331.684,312.172 331.906,313.594 332.918,314.553C334.055,315.629 334.153,315.634 334.153,314.601C334.153,313.474 336.133,312.095 337.752,312.095C338.23,312.095 341.213,314.624 344.383,317.715C347.572,320.824 350.909,323.471 351.854,323.64C352.792,323.807 353.809,323.984 354.113,324.035C354.417,324.085 355.845,323.66 357.289,323.092L357.288,323.091ZM318.234,340.018C318.838,339.2 319.333,337.881 319.333,337.086C319.333,335.884 319.87,335.563 322.511,335.188L325.689,334.736L323.569,333.048C321.052,331.041 320.818,329.474 323.038,329.47C325.248,329.47 328.992,327.175 329.562,325.476C329.826,324.687 329.659,323.633 329.185,323.091C327.945,321.677 325.616,321.89 325.183,323.457C324.718,325.142 323.939,325.146 322.173,323.474C319.518,320.958 319.458,315.752 322.051,312.72C323.272,311.291 323.261,311.197 321.704,309.722C320.028,308.135 318.832,304.994 319.619,304.249C319.869,304.012 321.193,304.201 322.561,304.669C324.503,305.334 325.271,305.345 326.072,304.716C328.497,302.809 325.869,300.358 321.98,300.898C320.415,301.116 319.769,300.898 319.544,300.087C319.374,299.472 318.004,298.667 316.462,298.277C313.707,297.581 313.687,297.59 313.687,299.488C313.687,301.569 312.499,301.961 310.242,300.626C308.408,299.542 306.629,300.384 306.629,302.337C306.629,304.159 308.462,305.058 311.746,304.846C314.265,304.684 314.359,306.557 311.966,309.249L310.246,311.186L311.609,313.144C313.627,316.044 313.458,320.86 311.252,323.252L309.523,325.127L308.39,323.623C306.813,321.534 304.657,321.674 304.066,323.904C303.679,325.365 303.999,326.032 305.828,327.58C307.058,328.62 308.853,329.472 309.816,329.472C312.203,329.472 312.11,331.349 309.629,333.244L307.688,334.728L310.688,335.192C312.337,335.449 313.687,335.93 313.687,336.263C313.687,337.537 315.766,341.502 316.434,341.502C316.82,341.502 317.63,340.834 318.234,340.017L318.234,340.018ZM463.55,364.586L466.112,362.939L467.851,364.586C470.128,366.743 472.797,366.695 474.987,364.457C475.942,363.48 476.801,362.804 476.894,362.953C476.987,363.103 477.413,363.826 477.841,364.562C478.383,365.492 479.495,365.96 481.505,366.102C483.926,366.272 484.575,366.039 485.537,364.648L486.684,362.991L489.206,364.611C496.111,369.05 499.79,364.394 496.704,355.123C495.135,350.409 495.998,347.759 501.055,341.759C503.187,339.229 504.934,336.528 504.936,335.758C504.936,334.529 504.542,334.364 501.703,334.421C498.987,334.476 498.192,334.184 496.763,332.61C494.438,330.05 494.576,327.119 497.176,323.866L499.252,321.268L495.567,318.768C493.541,317.392 489.888,314.139 487.448,311.537C481.969,305.696 476.581,302.926 469.477,302.297L464.714,301.876L464.721,305.481C464.729,310.123 466.908,314.588 472.854,322.151C479.615,330.751 480.087,332.083 480.36,343.323L480.593,352.829L478.636,354.686C476.868,356.362 476.071,356.576 470.366,356.905C464.937,357.219 463.795,357.499 462.202,358.91C460.085,360.785 459.452,361.806 458.799,364.395C458.418,365.903 458.572,366.232 459.661,366.232C460.391,366.232 462.141,365.491 463.55,364.586ZM414.358,194.004C413.326,193.026 414.136,192.787 418.764,192.7C424.491,192.594 427.97,191.639 432.073,189.049C435.361,186.973 436.253,187.381 433.132,189.534C430.285,191.497 425.844,193.006 421.557,193.468C419.48,193.691 417.115,194.001 416.299,194.156C415.483,194.311 414.61,194.243 414.358,194.004ZM381.83,202.333C380.345,200.325 380.447,198.995 382.255,196.818C383.562,195.245 384.159,195.031 386.439,195.321C387.903,195.507 391.053,196.8 393.438,198.194C396.194,199.805 399.044,200.884 401.251,201.152C403.162,201.384 404.727,201.472 404.727,201.347C404.727,201.221 403.932,199.928 402.962,198.472C400.657,195.015 400.736,194.644 403.335,196.715C406.004,198.841 409.194,199.463 416.326,199.246L419.811,199.14L417.789,197.143C414.963,194.348 415.833,194.098 418.954,196.807C421.882,199.348 421.699,199.527 415.536,200.142C412.918,200.403 410.102,200.214 407.761,199.619C404.259,198.728 404.123,198.742 404.786,199.916C405.169,200.592 405.788,201.146 406.163,201.146C406.537,201.146 406.844,201.488 406.844,201.907C406.844,203.196 399.279,202.063 395.665,200.233C387.407,196.052 386.368,195.69 384.403,196.31C383.31,196.654 382.215,197.663 381.838,198.673C380.579,202.046 385.361,204.667 387.334,201.686C387.905,200.822 387.772,200.231 386.768,199.18C385.392,197.739 385.521,197.535 387.378,198.209C388.697,198.689 388.874,201.855 387.647,203.017C386.243,204.347 383.04,203.97 381.83,202.333ZM434.986,207.828C433.353,206.357 432.229,204.953 432.486,204.709C432.744,204.465 433.035,204.395 433.132,204.554C433.229,204.712 434.563,206.116 436.098,207.672C439.631,211.256 438.904,211.358 434.986,207.828ZM395.079,221.777C390.594,218.032 389.912,217.175 390.012,215.4L390.117,213.51L390.41,215.335C390.581,216.401 391.775,217.998 393.281,219.173L395.86,221.186L397.444,219.354C398.316,218.346 399.041,217.145 399.055,216.685C399.092,215.487 399.307,215.588 402.344,218.223C405.042,220.564 405.084,220.576 405.485,219.059C405.71,218.212 405.63,216.62 405.31,215.52C404.428,212.496 404.601,212.039 405.937,213.863C406.603,214.772 407.673,216.057 408.315,216.718C409.434,217.87 409.502,217.855 409.918,216.384C410.157,215.539 410.357,213.992 410.362,212.946L410.372,211.044L412.806,213.803C415.078,216.379 415.288,216.475 415.981,215.247C416.39,214.524 416.729,212.785 416.734,211.382C416.742,209.57 416.934,209.113 417.395,209.803C418.164,210.955 417.63,214.092 416.208,216.766L415.188,218.684L413.85,216.599C412.137,213.932 411.566,213.975 410.469,216.852C409.43,219.572 408.755,219.779 407.743,217.688C407.088,216.334 406.964,216.5 406.499,219.343L405.982,222.502L402.888,220.101L399.793,217.699L398.401,219.281C397.637,220.15 397,221.238 396.987,221.698C396.959,222.694 396.214,222.725 395.079,221.777ZM413.9,247.723C413.9,246.742 411.021,244.084 408.104,242.372C405.812,241.027 405.433,240.987 405.428,242.083C405.42,243.749 403.939,247.932 403.358,247.932C403.03,247.932 402.545,247.114 402.28,246.115C402.016,245.116 400.904,243.147 399.813,241.739L397.825,239.18L396.277,241.551C394.835,243.762 392.336,245.926 391.228,245.926C390.963,245.926 390.91,244.762 391.112,243.339C391.331,241.793 391.162,240.567 390.692,240.292C390.26,240.039 389.906,240.127 389.906,240.488C389.906,241.321 386.436,245.258 385.702,245.258C385.398,245.258 384.976,244.13 384.76,242.751C384.545,241.373 384.18,239.192 383.948,237.906C383.716,236.619 384.21,237.492 385.046,239.845L386.565,244.123L388.231,241.516C389.149,240.082 389.9,238.515 389.902,238.033C389.902,237.552 390.214,237.339 390.591,237.56C390.968,237.78 391.492,239.504 391.757,241.39L392.237,244.82L394.071,242.809C395.079,241.704 396.261,240.223 396.697,239.52C397.475,238.264 397.519,238.265 399.065,239.577C399.933,240.313 401.266,242.071 402.027,243.485C402.79,244.899 403.516,245.952 403.64,245.824C403.765,245.696 404.044,244.238 404.261,242.584C404.478,240.93 404.671,239.516 404.69,239.44C404.798,239.031 410.214,242.551 412.218,244.333C413.506,245.479 414.729,246.256 414.936,246.06C415.143,245.864 415.313,244.174 415.313,242.304C415.313,239.406 415.005,238.629 413.232,237.045C411.195,235.224 411.138,235.214 410.385,236.546C409.407,238.275 408.255,238.3 408.255,236.593C408.255,235.346 404.404,230.554 403.402,230.554C403.143,230.554 402.331,231.606 401.6,232.893C400.868,234.18 400.081,235.231 399.852,235.229C398.863,235.224 393.435,229.171 393.438,228.079C393.438,227.209 393.803,227.432 394.755,228.883C395.478,229.985 396.923,231.632 397.965,232.541C400.075,234.383 400.843,233.935 401.658,230.387C401.89,229.376 402.293,228.548 402.554,228.548C403.456,228.548 408.183,233.568 408.847,235.232L409.514,236.903L410.02,235.065C410.638,232.818 411.319,232.734 412.306,234.785C412.719,235.642 414.754,237.423 416.831,238.743L420.605,241.144L421.362,238.729C421.779,237.401 422.331,236.638 422.589,237.034C422.974,237.623 421.992,241.624 421.252,242.485C421.142,242.614 419.918,241.901 418.534,240.901L416.018,239.084L416.008,242.338C416.001,244.128 415.807,246.269 415.573,247.096C415.115,248.713 413.9,249.168 413.9,247.723ZM364.405,364.855L366.781,363.484L367.798,364.858C369.151,366.689 372.898,366.669 375.385,364.816L377.285,363.399L378.878,364.816C380.971,366.679 384.88,366.681 387.375,364.823C389.122,363.521 389.366,363.495 390.521,364.485C391.21,365.076 393.23,365.747 395.01,365.979C398.216,366.396 398.265,366.372 400.141,363.558C401.712,361.201 401.958,360.247 401.582,357.961C401.334,356.445 401.066,354.007 400.988,352.541C400.845,349.887 400.86,349.87 404.727,348.524C406.861,347.781 409.332,346.784 410.218,346.309C411.762,345.48 416.018,340.478 416.018,339.491C416.018,339.23 414.355,338.831 412.322,338.603C404.239,337.696 402.87,333.354 408.125,325.292C416.695,312.143 421.867,299.336 421.901,291.179C421.917,287.532 422.125,286.308 422.594,287.101C424.508,290.341 421.078,303.929 415.881,313.686L413.789,317.614L415.786,317.154C416.884,316.901 423.34,314.178 430.133,311.102C448.726,302.681 455.111,301.03 467.145,301.537C477.225,301.962 481.518,303.932 488.636,311.396C492.405,315.352 496.038,318.181 502.683,322.34C516.839,331.201 517.429,331.969 518.103,342.39C518.784,352.948 518.445,353.521 510.459,355.285C503.634,356.793 499.354,359.975 498.207,364.396C497.594,366.757 498.884,366.824 502.325,364.612L504.847,362.992L505.969,364.612C507.442,366.744 510.576,366.752 513.179,364.633L515.143,363.031L517.153,364.633C520.275,367.12 524.428,366.517 525.599,363.405C525.824,362.807 526.426,362.998 527.643,364.057C529.924,366.039 535.771,366.889 536.402,365.33C536.644,364.735 536.186,363.267 535.385,362.066C531.983,356.966 530.919,354.533 530.874,351.756C530.813,347.895 531.966,346.03 536.358,342.89C541.694,339.074 543.343,334.151 539.285,334.151C536.779,334.151 534.254,331.938 532.644,328.328C529.369,320.992 530.011,312.767 534.925,299.085C539.916,285.188 540.47,282.625 540.49,273.33C540.506,265.815 540.316,264.516 538.607,260.396C537.562,257.876 535.44,254.125 533.894,252.06L531.08,248.305L534.692,245.313C545.72,236.177 543.464,221.225 530.189,215.464C526.128,213.702 525.113,213.545 517.995,213.593C513.727,213.622 507.216,214.184 503.528,214.842C499.769,215.513 493.404,216.052 489.039,216.07C482.104,216.098 480.927,215.927 478.255,214.504C475.468,213.021 474.99,212.317 474.444,208.888C474.332,208.184 473.84,207.48 473.35,207.326C472.402,207.027 468.024,210.826 467.378,212.509C467.059,213.339 466.798,213.282 465.862,212.174C465.24,211.439 464.372,209.75 463.934,208.421C462.829,205.077 464.185,202.57 468.115,200.692L471.165,199.234L469.366,198.119C465.656,195.816 459.347,197.392 457.065,201.19C456.42,202.264 455.716,203.146 455.501,203.147C455.285,203.149 454.059,202.125 452.774,200.87C447.983,196.188 449.632,189.263 456.039,187.148C459.456,186.021 462.48,186.881 463.109,189.16C464.07,192.638 467.056,188.066 466.521,183.936C466.164,181.191 466.218,181.096 468.117,181.096C470.759,181.096 476.382,184.563 478.121,187.264C480.141,190.402 479.994,195.343 477.771,199.025L476.025,201.917L478.309,201.46C481.657,200.789 484.91,198.71 486.556,196.188C488.295,193.522 488.482,188.332 486.939,185.531C485.444,182.816 485.616,182.385 487.826,183.302C491.584,184.863 493.594,186.583 495.102,189.533C496.459,192.188 496.535,192.848 495.8,195.612C495.347,197.317 494.338,199.562 493.558,200.598C492.344,202.213 492.303,202.483 493.271,202.483C495.071,202.483 498.832,200.778 500.168,199.356C500.843,198.638 501.827,196.869 502.355,195.425L503.314,192.8L504.417,194.802C505.977,197.631 509.008,200.177 512.703,201.761C516.677,203.465 518.333,203.561 516.254,201.967C514.853,200.892 512.27,193.313 513.052,192.572C513.513,192.136 518.909,196.288 525.071,201.819C530.9,207.052 534.563,208.766 539.916,208.766C546.755,208.766 550.736,202.813 547.663,197.185C545.87,193.903 541.879,193.446 539.545,196.257C538.471,197.549 538.176,198.578 538.49,199.933C538.876,201.594 538.726,201.815 537.213,201.815C535.225,201.815 531.307,199.272 524.348,193.465C513.735,184.61 500.842,177.104 491.531,174.362C485.556,172.603 472.793,171.917 466.719,173.028C460.145,174.23 452.369,177.993 448.133,182.02C440.628,189.156 440.508,198.652 447.816,207.3L449.909,209.777L448.492,211.978C446.431,215.181 446.607,219.491 448.931,222.666C449.954,224.064 450.985,225.207 451.224,225.207C451.462,225.206 451.724,224.307 451.805,223.208C452.01,220.431 453.202,218.57 455.248,217.833C457.091,217.17 458.282,217.483 466.721,220.852C475.598,224.395 490.197,224.638 505.722,221.502C513.331,219.965 522.307,220.055 526.254,221.709C533.491,224.741 535.169,232.628 529.849,238.616C527.546,241.208 525.325,242.264 517.867,244.311C512.193,245.868 510.85,245.971 497.952,245.842C486.933,245.732 482.973,245.944 478.476,246.883C473.592,247.902 470.589,248.005 456.244,247.644L439.66,247.226L441.499,248.749C442.511,249.586 443.939,250.617 444.675,251.039C445.926,251.757 445.884,251.853 444.024,252.543C442.932,252.948 440.507,253.279 438.636,253.279L435.232,253.279L434.775,256.171C434.523,257.761 434.542,259.618 434.817,260.297C435.224,261.298 435.071,261.443 434.017,261.059C433.301,260.799 431.308,260.287 429.588,259.922C427.867,259.557 425.552,258.813 424.441,258.27C422.575,257.356 422.367,257.38 421.681,258.597C421.066,259.684 415.303,263.974 414.456,263.974C414.32,263.974 414.144,263.146 414.065,262.135C413.986,261.125 413.154,258.493 412.217,256.287C411.28,254.082 410.301,251.675 410.042,250.94C409.651,249.831 409.475,249.774 409.004,250.606C408.691,251.157 408.235,252.661 407.99,253.948C407.745,255.234 406.877,257.324 406.061,258.593L404.575,260.898L403.629,258.926C402.612,256.81 400.925,254.616 400.313,254.616C400.107,254.616 399.756,255.293 399.533,256.12C399.067,257.847 395.066,262.637 394.089,262.637C393.729,262.637 393.435,261.283 393.435,259.629C393.435,257.975 393.116,256.621 392.729,256.621C392.341,256.621 392.022,257.049 392.022,257.572C392.022,258.844 388.605,262.637 387.459,262.637C386.959,262.637 386.154,263.088 385.671,263.639C384.411,265.077 383.381,264.875 383.91,263.294C384.159,262.554 383.997,260.824 383.552,259.451C383.106,258.079 382.632,256.618 382.498,256.205C382.33,255.685 381.105,255.822 378.514,256.653C374.325,257.996 372.921,257.759 375.075,256.071C375.863,255.455 377.061,253.318 377.737,251.324C378.413,249.33 379.411,247.561 379.955,247.392C380.716,247.156 380.676,247.448 379.778,248.66C379.138,249.526 378.612,250.694 378.609,251.256C378.609,251.817 378.125,253.148 377.538,254.214C376.952,255.28 376.583,256.257 376.719,256.386C376.854,256.514 378.448,255.909 380.26,255.041L383.554,253.461L383.567,254.874C383.575,255.651 383.972,257.701 384.45,259.43L385.318,262.573L387.561,261.542C389.852,260.489 392.022,256.734 392.022,253.823C392.022,252.384 392.847,252.604 393.185,254.134C393.284,254.583 393.801,256.268 394.334,257.878L395.304,260.806L396.84,258.957C397.684,257.94 398.743,255.946 399.192,254.525C399.973,252.06 401.197,250.999 401.197,252.79C401.197,254.081 404.719,258.709 405.398,258.312C405.727,258.12 406.381,256.382 406.852,254.451C407.831,250.435 409.41,247.704 410.414,248.292C410.791,248.512 410.938,248.941 410.741,249.244C410.543,249.547 411.354,252.158 412.544,255.046C413.732,257.934 414.927,260.842 415.197,261.508C415.632,262.578 416.024,262.422 418.573,260.171C420.159,258.77 421.6,257.202 421.773,256.686C422.035,255.906 422.389,255.934 423.872,256.855C425.947,258.143 432.923,260.216 433.461,259.707C433.663,259.516 433.87,257.684 433.921,255.636L434.014,251.912L436.02,252.329C437.123,252.557 439.442,252.543 441.174,252.297L444.323,251.85L441.517,249.924C439.974,248.866 438.413,247.495 438.049,246.879C437.661,246.223 436.287,245.666 434.73,245.533C430.526,245.176 423.074,240.997 423.074,238.996C423.074,238.62 424.107,239.259 425.368,240.416C428.167,242.98 432.055,244.59 435.45,244.59L437.991,244.59L436.42,242.5C435.517,241.299 434.707,239.021 434.517,237.147C434.214,234.16 433.898,233.685 430.779,231.517C428.905,230.214 426.585,228.262 425.622,227.178L423.872,225.208L422.979,227.547C422.487,228.834 421.888,229.887 421.645,229.887C421.402,229.887 420.458,229.134 419.546,228.215C418.635,227.297 417.706,226.548 417.482,226.552C417.259,226.556 416.451,227.794 415.688,229.303L414.3,232.046L413.227,230.465C412.637,229.595 411.243,228.057 410.129,227.046C409.017,226.035 408.431,225.208 408.828,225.208C409.226,225.208 410.6,226.261 411.882,227.548L414.213,229.888L415.161,228.174C415.724,227.156 415.935,225.594 415.68,224.33C415.309,222.487 415.36,222.38 416.066,223.537C416.516,224.272 417.88,225.681 419.097,226.669L421.311,228.465L422.838,225.667C424.358,222.882 424.369,222.876 425.061,224.539C425.985,226.763 432.68,232.25 438.379,235.457C439.258,235.951 438.887,234.252 437.265,230.344C436.835,229.31 436.483,227.443 436.483,226.198C436.483,224.351 435.951,223.528 433.588,221.73C430.177,219.134 429.073,217.288 428.431,213.101C428.17,211.404 427.573,209.517 427.104,208.907C426.407,208.003 426.292,208.509 426.479,211.658C426.604,213.78 426.328,216.419 425.865,217.522L425.023,219.527L424.373,217.855C424.015,216.937 422.433,215.339 420.855,214.304C419.279,213.27 418.173,212.25 418.396,212.038C418.621,211.825 420.243,212.768 422.001,214.133C424.68,216.211 425.271,216.436 425.641,215.521C426.077,214.445 425.641,209.765 424.798,206.494C424.378,204.86 424.415,204.869 426.43,206.884C427.915,208.369 428.737,210.142 429.373,213.233C430.183,217.161 430.59,217.814 434.222,221.003C436.403,222.918 438.301,224.377 438.44,224.247C438.579,224.115 438.854,219.161 439.052,213.238C439.431,201.879 439.002,199.176 436.267,195.667L434.861,193.864L437.07,191.481C439.953,188.372 441.276,185.88 441.851,182.48L442.317,179.715L439.824,182.076C437.782,184.01 436.808,184.438 434.442,184.438C432.101,184.438 431.187,184.045 429.608,182.363C427.715,180.346 424.36,178.405 421.134,177.46C419.942,177.111 419.546,177.263 419.546,178.069C419.546,178.66 418.888,180.366 418.083,181.859L416.62,184.575L413.556,181.545C411.676,179.688 409.444,178.241 407.784,177.804C403.544,176.689 403.314,176.8 403.314,179.959C403.314,184.751 401.269,185.645 397.586,182.459C394.779,180.031 392.45,179.503 387.127,180.088L383.016,180.54L383.755,182.396C384.373,183.946 384.234,184.599 382.91,186.36C380.763,189.215 377.971,190.453 373.674,190.453C371.694,190.453 369.218,190.862 368.169,191.363C367.121,191.864 364.517,192.44 362.382,192.645C360.247,192.849 357.972,193.213 357.326,193.455C356.314,193.833 356.204,193.521 356.529,191.221C357.027,187.702 354.569,185.105 350.738,185.105C345.766,185.105 343.473,189.552 345.42,195.418C345.795,196.547 346.285,198.327 346.51,199.375C346.742,200.461 348.982,203.343 351.725,206.087C354.368,208.733 356.867,211.485 357.277,212.204C357.687,212.923 359.043,214.077 360.29,214.768L362.558,216.025L362.259,213.598C361.93,210.932 362.511,210.514 363.93,212.396C364.438,213.067 365.726,214.155 366.793,214.811C368.474,215.845 368.733,215.866 368.733,214.969C368.733,214.399 369.076,213.086 369.495,212.051L370.257,210.169L371.578,212.729C372.306,214.137 374.67,217.338 376.832,219.841C381.027,224.697 383.584,230.125 382.265,231.375C381.729,231.881 380.283,231.842 377.284,231.24C374.96,230.772 372.086,230.526 370.896,230.691C368.467,231.029 368.275,230.715 369.77,228.844C371.347,226.871 371.096,226.544 367.998,226.544C364.414,226.544 355.517,224.827 352.102,223.475C348.781,222.161 348.015,222.489 347.037,225.638C346.597,227.056 345.792,229.624 345.247,231.346L344.257,234.477L347.85,234.131C349.827,233.94 352.368,233.508 353.498,233.169C354.629,232.831 355.656,232.651 355.782,232.77C355.907,232.888 355.402,234.111 354.662,235.488L353.314,237.991L355.555,237.534C356.787,237.283 358.64,236.668 359.674,236.168C361.472,235.298 361.617,235.361 363.035,237.638C364.779,240.438 366.175,240.323 366.484,237.354C366.805,234.284 367.814,234.738 369.714,238.806C371.541,242.718 373.44,244.099 373.806,241.78C373.927,241.01 374.911,239.757 375.993,238.995C378.181,237.454 379.828,237.916 380.773,240.336C381.752,242.84 379.57,245.422 373.224,249.269C360.51,256.975 353.121,267.515 351.011,280.949C349.108,293.065 355.051,305.586 366.974,314.579C372.68,318.883 381.743,323.426 381.168,321.691C378.722,314.332 378.802,300.288 381.304,297.918C381.679,297.563 381.551,299.028 381.017,301.175C379.03,309.171 379.894,315.543 384.985,330.476C389.591,343.982 388.953,349.755 382.436,353.569C380.342,354.795 378.994,354.997 373.364,354.929C367.257,354.854 366.592,354.978 364.631,356.54C362.729,358.055 360.265,363.029 360.265,365.35C360.265,366.607 361.661,366.441 364.405,364.857L364.405,364.855Z" style="fill:rgb(3,4,4);fill-rule:nonzero;"/>
            <path d="M381.739,230.626C381.953,230.299 381.48,228.645 380.689,226.95C379.456,224.309 378.959,223.87 377.201,223.87C371.696,223.87 362.846,221.41 353.721,217.343C348.452,214.995 346.632,214.455 346.001,215.053C344.389,216.58 347.068,220.204 351.217,222.109C354.898,223.799 365.188,225.875 369.882,225.875C372.605,225.875 372.67,225.998 371.12,228.238L369.98,229.885L373.061,229.965C374.755,230.008 377.094,230.273 378.259,230.554C381.282,231.283 381.312,231.283 381.74,230.626L381.739,230.626ZM324.386,266.803C324.781,266.429 324.609,265.854 323.947,265.332C322.496,264.192 322.573,262.496 324.165,260.553C325.36,259.095 325.51,256.913 325.921,234.898C326.63,196.96 329.451,168.424 333.17,161.578C334.65,158.853 334.442,158.842 330.617,161.444C325.689,164.797 321.937,169.164 318.613,175.414C312.336,187.213 310.155,203.088 310.155,236.974C310.155,256.216 310.287,258.733 311.383,260.542C312.424,262.26 312.479,262.894 311.748,264.729C311.273,265.919 311.059,267.056 311.27,267.255C312.671,268.583 322.879,268.23 324.386,266.803ZM328.633,272.69C335.459,269.652 336.049,261.989 329.613,259.978C326.94,259.143 325.234,259.592 324.211,261.403C323.428,262.789 323.952,265.309 325.023,265.309C325.385,265.309 325.682,265.775 325.682,266.346C325.682,269.006 315.259,270.212 310.985,268.045C309.484,267.285 308.83,265.309 310.08,265.309C311.014,265.309 311.659,263.296 311.182,261.872C310.532,259.932 308.577,259.261 305.741,260.002C299.343,261.675 299.522,269.193 306.037,272.384C311.379,275 323.088,275.159 328.633,272.69ZM323.424,280.272C323.669,278.644 320.96,277.173 315.634,276.042C311.726,275.213 310.001,275.683 310.294,277.499C310.454,278.49 311.756,279.215 315.448,280.367C321.357,282.211 323.135,282.19 323.424,280.272ZM327.163,280.611C328.289,279.47 329.21,278.122 329.21,277.616C329.21,275.979 324.762,278.877 324.195,280.885C323.515,283.293 324.618,283.191 327.163,280.611ZM323.42,285.643C323.637,284.213 322.722,283.701 315.258,281.074C309.685,279.112 307.218,280.037 308.999,283.421C309.619,284.599 310.661,285.138 312.996,285.487C314.733,285.747 317.107,286.256 318.271,286.617C321.382,287.583 323.18,287.243 323.42,285.643ZM323.42,291.012C323.572,290.009 322.952,289.34 321.094,288.501C317.085,286.69 312.292,285.852 311.138,286.759C309.012,288.43 310.428,290.674 313.864,291.077C315.248,291.24 317.123,291.661 318.032,292.015C320.673,293.041 323.185,292.572 323.42,291.012ZM327.233,296.263C329.021,294.641 329.868,292.712 328.793,292.712C327.556,292.712 324.272,295.658 324.272,296.768C324.272,298.5 324.883,298.396 327.233,296.263ZM323.214,296.426C323.214,294.648 319.55,292.753 315.167,292.261C311.627,291.864 311.569,291.887 311.569,293.654C311.569,295.118 312.126,295.693 314.569,296.757C318.494,298.466 323.214,298.285 323.214,296.426ZM357.288,323.091C360.013,322.017 365.911,317.023 365.911,315.789C365.911,315.401 364.283,313.611 362.294,311.812C358.107,308.022 353.553,301.643 352.373,297.912C351.757,295.968 348.784,292.638 340.409,284.516L329.265,273.707L326.053,274.521C324.287,274.968 322.131,275.346 321.264,275.358C319.768,275.381 319.795,275.467 321.783,277.006L323.881,278.63L326.821,276.997C329.672,275.415 329.774,275.405 330.125,276.679C330.331,277.424 329.887,278.716 329.099,279.665C328.334,280.584 327.9,281.628 328.132,281.983C328.363,282.339 327.629,283.082 326.5,283.635C324.408,284.66 322.956,288.033 324.607,288.033C326.093,288.033 329.369,283.991 328.991,282.624C328.798,281.924 328.891,281.204 329.199,281.023C330.475,280.277 330.396,283.45 329.099,285.012C328.334,285.931 327.9,286.975 328.132,287.33C328.363,287.686 327.629,288.429 326.5,288.981C324.422,290 322.954,293.381 324.591,293.381C326.196,293.381 329.418,289.518 329.02,288.072C328.811,287.316 328.891,286.551 329.199,286.371C330.059,285.868 330.522,288.373 329.797,289.601C329.408,290.258 329.411,291.156 329.806,291.867C330.52,293.157 329.795,295.634 328.48,296.404C327.917,296.734 328.298,297.382 329.666,298.414C331.645,299.909 331.684,300.065 331.684,306.66C331.684,312.172 331.906,313.594 332.918,314.553C334.055,315.629 334.153,315.634 334.153,314.601C334.153,313.474 336.133,312.095 337.752,312.095C338.23,312.095 341.213,314.624 344.383,317.715C347.572,320.824 350.909,323.471 351.854,323.64C352.792,323.807 353.809,323.984 354.113,324.035C354.417,324.085 355.845,323.66 357.289,323.092L357.288,323.091ZM318.234,340.018C318.838,339.2 319.333,337.881 319.333,337.086C319.333,335.884 319.87,335.563 322.511,335.188L325.689,334.736L323.569,333.048C321.052,331.041 320.818,329.474 323.038,329.47C325.248,329.47 328.992,327.175 329.562,325.476C329.826,324.687 329.659,323.633 329.185,323.091C327.945,321.677 325.616,321.89 325.183,323.457C324.718,325.142 323.939,325.146 322.173,323.474C319.518,320.958 319.458,315.752 322.051,312.72C323.272,311.291 323.261,311.197 321.704,309.722C320.028,308.135 318.832,304.994 319.619,304.249C319.869,304.012 321.193,304.201 322.561,304.669C324.503,305.334 325.271,305.345 326.072,304.716C328.497,302.809 325.869,300.358 321.98,300.898C320.415,301.116 319.769,300.898 319.544,300.087C319.374,299.472 318.004,298.667 316.462,298.277C313.707,297.581 313.687,297.59 313.687,299.488C313.687,301.569 312.499,301.961 310.242,300.626C308.408,299.542 306.629,300.384 306.629,302.337C306.629,304.159 308.462,305.058 311.746,304.846C314.265,304.684 314.359,306.557 311.966,309.249L310.246,311.186L311.609,313.144C313.627,316.044 313.458,320.86 311.252,323.252L309.523,325.127L308.39,323.623C306.813,321.534 304.657,321.674 304.066,323.904C303.679,325.365 303.999,326.032 305.828,327.58C307.058,328.62 308.853,329.472 309.816,329.472C312.203,329.472 312.11,331.349 309.629,333.244L307.688,334.728L310.688,335.192C312.337,335.449 313.687,335.93 313.687,336.263C313.687,337.537 315.766,341.502 316.434,341.502C316.82,341.502 317.63,340.834 318.234,340.017L318.234,340.018ZM463.55,364.586L466.112,362.939L467.851,364.586C470.128,366.743 472.797,366.695 474.987,364.457C475.942,363.48 476.801,362.804 476.894,362.953C476.987,363.103 477.413,363.826 477.841,364.562C478.383,365.492 479.495,365.96 481.505,366.102C483.926,366.272 484.575,366.039 485.537,364.648L486.684,362.991L489.206,364.611C496.111,369.05 499.79,364.394 496.704,355.123C495.135,350.409 495.998,347.759 501.055,341.759C503.187,339.229 504.934,336.528 504.936,335.758C504.936,334.529 504.542,334.364 501.703,334.421C498.987,334.476 498.192,334.184 496.763,332.61C494.438,330.05 494.576,327.119 497.176,323.866L499.252,321.268L495.567,318.768C493.541,317.392 489.888,314.139 487.448,311.537C481.969,305.696 476.581,302.926 469.477,302.297L464.714,301.876L464.721,305.481C464.729,310.123 466.908,314.588 472.854,322.151C479.615,330.751 480.087,332.083 480.36,343.323L480.593,352.829L478.636,354.686C476.868,356.362 476.071,356.576 470.366,356.905C464.937,357.219 463.795,357.499 462.202,358.91C460.085,360.785 459.452,361.806 458.799,364.395C458.418,365.903 458.572,366.232 459.661,366.232C460.391,366.232 462.141,365.491 463.55,364.586ZM414.358,194.004C413.326,193.026 414.136,192.787 418.764,192.7C424.491,192.594 427.97,191.639 432.073,189.049C435.361,186.973 436.253,187.381 433.132,189.534C430.285,191.497 425.844,193.006 421.557,193.468C419.48,193.691 417.115,194.001 416.299,194.156C415.483,194.311 414.61,194.243 414.358,194.004ZM381.83,202.333C380.345,200.325 380.447,198.995 382.255,196.818C383.562,195.245 384.159,195.031 386.439,195.321C387.903,195.507 391.053,196.8 393.438,198.194C396.194,199.805 399.044,200.884 401.251,201.152C403.162,201.384 404.727,201.472 404.727,201.347C404.727,201.221 403.932,199.928 402.962,198.472C400.657,195.015 400.736,194.644 403.335,196.715C406.004,198.841 409.194,199.463 416.326,199.246L419.811,199.14L417.789,197.143C414.963,194.348 415.833,194.098 418.954,196.807C421.882,199.348 421.699,199.527 415.536,200.142C412.918,200.403 410.102,200.214 407.761,199.619C404.259,198.728 404.123,198.742 404.786,199.916C405.169,200.592 405.788,201.146 406.163,201.146C406.537,201.146 406.844,201.488 406.844,201.907C406.844,203.196 399.279,202.063 395.665,200.233C387.407,196.052 386.368,195.69 384.403,196.31C383.31,196.654 382.215,197.663 381.838,198.673C380.579,202.046 385.361,204.667 387.334,201.686C387.905,200.822 387.772,200.231 386.768,199.18C385.392,197.739 385.521,197.535 387.378,198.209C388.697,198.689 388.874,201.855 387.647,203.017C386.243,204.347 383.04,203.97 381.83,202.333ZM434.986,207.828C433.353,206.357 432.229,204.953 432.486,204.709C432.744,204.465 433.035,204.395 433.132,204.554C433.229,204.712 434.563,206.116 436.098,207.672C439.631,211.256 438.904,211.358 434.986,207.828ZM395.079,221.777C390.594,218.032 389.912,217.175 390.012,215.4L390.117,213.51L390.41,215.335C390.581,216.401 391.775,217.998 393.281,219.173L395.86,221.186L397.444,219.354C398.316,218.346 399.041,217.145 399.055,216.685C399.092,215.487 399.307,215.588 402.344,218.223C405.042,220.564 405.084,220.576 405.485,219.059C405.71,218.212 405.63,216.62 405.31,215.52C404.428,212.496 404.601,212.039 405.937,213.863C406.603,214.772 407.673,216.057 408.315,216.718C409.434,217.87 409.502,217.855 409.918,216.384C410.157,215.539 410.357,213.992 410.362,212.946L410.372,211.044L412.806,213.803C415.078,216.379 415.288,216.475 415.981,215.247C416.39,214.524 416.729,212.785 416.734,211.382C416.742,209.57 416.934,209.113 417.395,209.803C418.164,210.955 417.63,214.092 416.208,216.766L415.188,218.684L413.85,216.599C412.137,213.932 411.566,213.975 410.469,216.852C409.43,219.572 408.755,219.779 407.743,217.688C407.088,216.334 406.964,216.5 406.499,219.343L405.982,222.502L402.888,220.101L399.793,217.699L398.401,219.281C397.637,220.15 397,221.238 396.987,221.698C396.959,222.694 396.214,222.725 395.079,221.777ZM413.9,247.723C413.9,246.742 411.021,244.084 408.104,242.372C405.812,241.027 405.433,240.987 405.428,242.083C405.42,243.749 403.939,247.932 403.358,247.932C403.03,247.932 402.545,247.114 402.28,246.115C402.016,245.116 400.904,243.147 399.813,241.739L397.825,239.18L396.277,241.551C394.835,243.762 392.336,245.926 391.228,245.926C390.963,245.926 390.91,244.762 391.112,243.339C391.331,241.793 391.162,240.567 390.692,240.292C390.26,240.039 389.906,240.127 389.906,240.488C389.906,241.321 386.436,245.258 385.702,245.258C385.398,245.258 384.976,244.13 384.76,242.751C384.545,241.373 384.18,239.192 383.948,237.906C383.716,236.619 384.21,237.492 385.046,239.845L386.565,244.123L388.231,241.516C389.149,240.082 389.9,238.515 389.902,238.033C389.902,237.552 390.214,237.339 390.591,237.56C390.968,237.78 391.492,239.504 391.757,241.39L392.237,244.82L394.071,242.809C395.079,241.704 396.261,240.223 396.697,239.52C397.475,238.264 397.519,238.265 399.065,239.577C399.933,240.313 401.266,242.071 402.027,243.485C402.79,244.899 403.516,245.952 403.64,245.824C403.765,245.696 404.044,244.238 404.261,242.584C404.478,240.93 404.671,239.516 404.69,239.44C404.798,239.031 410.214,242.551 412.218,244.333C413.506,245.479 414.729,246.256 414.936,246.06C415.143,245.864 415.313,244.174 415.313,242.304C415.313,239.406 415.005,238.629 413.232,237.045C411.195,235.224 411.138,235.214 410.385,236.546C409.407,238.275 408.255,238.3 408.255,236.593C408.255,235.346 404.404,230.554 403.402,230.554C403.143,230.554 402.331,231.606 401.6,232.893C400.868,234.18 400.081,235.231 399.852,235.229C398.863,235.224 393.435,229.171 393.438,228.079C393.438,227.209 393.803,227.432 394.755,228.883C395.478,229.985 396.923,231.632 397.965,232.541C400.075,234.383 400.843,233.935 401.658,230.387C401.89,229.376 402.293,228.548 402.554,228.548C403.456,228.548 408.183,233.568 408.847,235.232L409.514,236.903L410.02,235.065C410.638,232.818 411.319,232.734 412.306,234.785C412.719,235.642 414.754,237.423 416.831,238.743L420.605,241.144L421.362,238.729C421.779,237.401 422.331,236.638 422.589,237.034C422.974,237.623 421.992,241.624 421.252,242.485C421.142,242.614 419.918,241.901 418.534,240.901L416.018,239.084L416.008,242.338C416.001,244.128 415.807,246.269 415.573,247.096C415.115,248.713 413.9,249.168 413.9,247.723ZM364.405,364.855L366.781,363.484L367.798,364.858C369.151,366.689 372.898,366.669 375.385,364.816L377.285,363.399L378.878,364.816C380.971,366.679 384.88,366.681 387.375,364.823C389.122,363.521 389.366,363.495 390.521,364.485C391.21,365.076 393.23,365.747 395.01,365.979C398.216,366.396 398.265,366.372 400.141,363.558C401.712,361.201 401.958,360.247 401.582,357.961C401.334,356.445 401.066,354.007 400.988,352.541C400.845,349.887 400.86,349.87 404.727,348.524C406.861,347.781 409.332,346.784 410.218,346.309C411.762,345.48 416.018,340.478 416.018,339.491C416.018,339.23 414.355,338.831 412.322,338.603C404.239,337.696 402.87,333.354 408.125,325.292C416.695,312.143 421.867,299.336 421.901,291.179C421.917,287.532 422.125,286.308 422.594,287.101C424.508,290.341 421.078,303.929 415.881,313.686L413.789,317.614L415.786,317.154C416.884,316.901 423.34,314.178 430.133,311.102C448.726,302.681 455.111,301.03 467.145,301.537C477.225,301.962 481.518,303.932 488.636,311.396C492.405,315.352 496.038,318.181 502.683,322.34C516.839,331.201 517.429,331.969 518.103,342.39C518.784,352.948 518.445,353.521 510.459,355.285C503.634,356.793 499.354,359.975 498.207,364.396C497.594,366.757 498.884,366.824 502.325,364.612L504.847,362.992L505.969,364.612C507.442,366.744 510.576,366.752 513.179,364.633L515.143,363.031L517.153,364.633C520.275,367.12 524.428,366.517 525.599,363.405C525.824,362.807 526.426,362.998 527.643,364.057C529.924,366.039 535.771,366.889 536.402,365.33C536.644,364.735 536.186,363.267 535.385,362.066C531.983,356.966 530.919,354.533 530.874,351.756C530.813,347.895 531.966,346.03 536.358,342.89C541.694,339.074 543.343,334.151 539.285,334.151C536.779,334.151 534.254,331.938 532.644,328.328C529.369,320.992 530.011,312.767 534.925,299.085C539.916,285.188 540.47,282.625 540.49,273.33C540.506,265.815 540.316,264.516 538.607,260.396C537.562,257.876 535.44,254.125 533.894,252.06L531.08,248.305L534.692,245.313C545.72,236.177 543.464,221.225 530.189,215.464C526.128,213.702 525.113,213.545 517.995,213.593C513.727,213.622 507.216,214.184 503.528,214.842C499.769,215.513 493.404,216.052 489.039,216.07C482.104,216.098 480.927,215.927 478.255,214.504C475.468,213.021 474.99,212.317 474.444,208.888C474.332,208.184 473.84,207.48 473.35,207.326C472.402,207.027 468.024,210.826 467.378,212.509C467.059,213.339 466.798,213.282 465.862,212.174C465.24,211.439 464.372,209.75 463.934,208.421C462.829,205.077 464.185,202.57 468.115,200.692L471.165,199.234L469.366,198.119C465.656,195.816 459.347,197.392 457.065,201.19C456.42,202.264 455.716,203.146 455.501,203.147C455.285,203.149 454.059,202.125 452.774,200.87C447.983,196.188 449.632,189.263 456.039,187.148C459.456,186.021 462.48,186.881 463.109,189.16C464.07,192.638 467.056,188.066 466.521,183.936C466.164,181.191 466.218,181.096 468.117,181.096C470.759,181.096 476.382,184.563 478.121,187.264C480.141,190.402 479.994,195.343 477.771,199.025L476.025,201.917L478.309,201.46C481.657,200.789 484.91,198.71 486.556,196.188C488.295,193.522 488.482,188.332 486.939,185.531C485.444,182.816 485.616,182.385 487.826,183.302C491.584,184.863 493.594,186.583 495.102,189.533C496.459,192.188 496.535,192.848 495.8,195.612C495.347,197.317 494.338,199.562 493.558,200.598C492.344,202.213 492.303,202.483 493.271,202.483C495.071,202.483 498.832,200.778 500.168,199.356C500.843,198.638 501.827,196.869 502.355,195.425L503.314,192.8L504.417,194.802C505.977,197.631 509.008,200.177 512.703,201.761C516.677,203.465 518.333,203.561 516.254,201.967C514.853,200.892 512.27,193.313 513.052,192.572C513.513,192.136 518.909,196.288 525.071,201.819C530.9,207.052 534.563,208.766 539.916,208.766C546.755,208.766 550.736,202.813 547.663,197.185C545.87,193.903 541.879,193.446 539.545,196.257C538.471,197.549 538.176,198.578 538.49,199.933C538.876,201.594 538.726,201.815 537.213,201.815C535.225,201.815 531.307,199.272 524.348,193.465C513.735,184.61 500.842,177.104 491.531,174.362C485.556,172.603 472.793,171.917 466.719,173.028C460.145,174.23 452.369,177.993 448.133,182.02C440.628,189.156 440.508,198.652 447.816,207.3L449.909,209.777L448.492,211.978C446.431,215.181 446.607,219.491 448.931,222.666C449.954,224.064 450.985,225.207 451.224,225.207C451.462,225.206 451.724,224.307 451.805,223.208C452.01,220.431 453.202,218.57 455.248,217.833C457.091,217.17 458.282,217.483 466.721,220.852C475.598,224.395 490.197,224.638 505.722,221.502C513.331,219.965 522.307,220.055 526.254,221.709C533.491,224.741 535.169,232.628 529.849,238.616C527.546,241.208 525.325,242.264 517.867,244.311C512.193,245.868 510.85,245.971 497.952,245.842C486.933,245.732 482.973,245.944 478.476,246.883C473.592,247.902 470.589,248.005 456.244,247.644L439.66,247.226L441.499,248.749C442.511,249.586 443.939,250.617 444.675,251.039C445.926,251.757 445.884,251.853 444.024,252.543C442.932,252.948 440.507,253.279 438.636,253.279L435.232,253.279L434.775,256.171C434.523,257.761 434.542,259.618 434.817,260.297C435.224,261.298 435.071,261.443 434.017,261.059C433.301,260.799 431.308,260.287 429.588,259.922C427.867,259.557 425.552,258.813 424.441,258.27C422.575,257.356 422.367,257.38 421.681,258.597C421.066,259.684 415.303,263.974 414.456,263.974C414.32,263.974 414.144,263.146 414.065,262.135C413.986,261.125 413.154,258.493 412.217,256.287C411.28,254.082 410.301,251.675 410.042,250.94C409.651,249.831 409.475,249.774 409.004,250.606C408.691,251.157 408.235,252.661 407.99,253.948C407.745,255.234 406.877,257.324 406.061,258.593L404.575,260.898L403.629,258.926C402.612,256.81 400.925,254.616 400.313,254.616C400.107,254.616 399.756,255.293 399.533,256.12C399.067,257.847 395.066,262.637 394.089,262.637C393.729,262.637 393.435,261.283 393.435,259.629C393.435,257.975 393.116,256.621 392.729,256.621C392.341,256.621 392.022,257.049 392.022,257.572C392.022,258.844 388.605,262.637 387.459,262.637C386.959,262.637 386.154,263.088 385.671,263.639C384.411,265.077 383.381,264.875 383.91,263.294C384.159,262.554 383.997,260.824 383.552,259.451C383.106,258.079 382.632,256.618 382.498,256.205C382.33,255.685 381.105,255.822 378.514,256.653C374.325,257.996 372.921,257.759 375.075,256.071C375.863,255.455 377.061,253.318 377.737,251.324C378.413,249.33 379.411,247.561 379.955,247.392C380.716,247.156 380.676,247.448 379.778,248.66C379.138,249.526 378.612,250.694 378.609,251.256C378.609,251.817 378.125,253.148 377.538,254.214C376.952,255.28 376.583,256.257 376.719,256.386C376.854,256.514 378.448,255.909 380.26,255.041L383.554,253.461L383.567,254.874C383.575,255.651 383.972,257.701 384.45,259.43L385.318,262.573L387.561,261.542C389.852,260.489 392.022,256.734 392.022,253.823C392.022,252.384 392.847,252.604 393.185,254.134C393.284,254.583 393.801,256.268 394.334,257.878L395.304,260.806L396.84,258.957C397.684,257.94 398.743,255.946 399.192,254.525C399.973,252.06 401.197,250.999 401.197,252.79C401.197,254.081 404.719,258.709 405.398,258.312C405.727,258.12 406.381,256.382 406.852,254.451C407.831,250.435 409.41,247.704 410.414,248.292C410.791,248.512 410.938,248.941 410.741,249.244C410.543,249.547 411.354,252.158 412.544,255.046C413.732,257.934 414.927,260.842 415.197,261.508C415.632,262.578 416.024,262.422 418.573,260.171C420.159,258.77 421.6,257.202 421.773,256.686C422.035,255.906 422.389,255.934 423.872,256.855C425.947,258.143 432.923,260.216 433.461,259.707C433.663,259.516 433.87,257.684 433.921,255.636L434.014,251.912L436.02,252.329C437.123,252.557 439.442,252.543 441.174,252.297L444.323,251.85L441.517,249.924C439.974,248.866 438.413,247.495 438.049,246.879C437.661,246.223 436.287,245.666 434.73,245.533C430.526,245.176 423.074,240.997 423.074,238.996C423.074,238.62 424.107,239.259 425.368,240.416C428.167,242.98 432.055,244.59 435.45,244.59L437.991,244.59L436.42,242.5C435.517,241.299 434.707,239.021 434.517,237.147C434.214,234.16 433.898,233.685 430.779,231.517C428.905,230.214 426.585,228.262 425.622,227.178L423.872,225.208L422.979,227.547C422.487,228.834 421.888,229.887 421.645,229.887C421.402,229.887 420.458,229.134 419.546,228.215C418.635,227.297 417.706,226.548 417.482,226.552C417.259,226.556 416.451,227.794 415.688,229.303L414.3,232.046L413.227,230.465C412.637,229.595 411.243,228.057 410.129,227.046C409.017,226.035 408.431,225.208 408.828,225.208C409.226,225.208 410.6,226.261 411.882,227.548L414.213,229.888L415.161,228.174C415.724,227.156 415.935,225.594 415.68,224.33C415.309,222.487 415.36,222.38 416.066,223.537C416.516,224.272 417.88,225.681 419.097,226.669L421.311,228.465L422.838,225.667C424.358,222.882 424.369,222.876 425.061,224.539C425.985,226.763 432.68,232.25 438.379,235.457C439.258,235.951 438.887,234.252 437.265,230.344C436.835,229.31 436.483,227.443 436.483,226.198C436.483,224.351 435.951,223.528 433.588,221.73C430.177,219.134 429.073,217.288 428.431,213.101C428.17,211.404 427.573,209.517 427.104,208.907C426.407,208.003 426.292,208.509 426.479,211.658C426.604,213.78 426.328,216.419 425.865,217.522L425.023,219.527L424.373,217.855C424.015,216.937 422.433,215.339 420.855,214.304C419.279,213.27 418.173,212.25 418.396,212.038C418.621,211.825 420.243,212.768 422.001,214.133C424.68,216.211 425.271,216.436 425.641,215.521C426.077,214.445 425.641,209.765 424.798,206.494C424.378,204.86 424.415,204.869 426.43,206.884C427.915,208.369 428.737,210.142 429.373,213.233C430.183,217.161 430.59,217.814 434.222,221.003C436.403,222.918 438.301,224.377 438.44,224.247C438.579,224.115 438.854,219.161 439.052,213.238C439.431,201.879 439.002,199.176 436.267,195.667L434.861,193.864L437.07,191.481C439.953,188.372 441.276,185.88 441.851,182.48L442.317,179.715L439.824,182.076C437.782,184.01 436.808,184.438 434.442,184.438C432.101,184.438 431.187,184.045 429.608,182.363C427.715,180.346 424.36,178.405 421.134,177.46C419.942,177.111 419.546,177.263 419.546,178.069C419.546,178.66 418.888,180.366 418.083,181.859L416.62,184.575L413.556,181.545C411.676,179.688 409.444,178.241 407.784,177.804C403.544,176.689 403.314,176.8 403.314,179.959C403.314,184.751 401.269,185.645 397.586,182.459C394.779,180.031 392.45,179.503 387.127,180.088L383.016,180.54L383.755,182.396C384.373,183.946 384.234,184.599 382.91,186.36C380.763,189.215 377.971,190.453 373.674,190.453C371.694,190.453 369.218,190.862 368.169,191.363C367.121,191.864 364.517,192.44 362.382,192.645C360.247,192.849 357.972,193.213 357.326,193.455C356.314,193.833 356.204,193.521 356.529,191.221C357.027,187.702 354.569,185.105 350.738,185.105C345.766,185.105 343.473,189.552 345.42,195.418C345.795,196.547 346.285,198.327 346.51,199.375C346.742,200.461 348.982,203.343 351.725,206.087C354.368,208.733 356.867,211.485 357.277,212.204C357.687,212.923 359.043,214.077 360.29,214.768L362.558,216.025L362.259,213.598C361.93,210.932 362.511,210.514 363.93,212.396C364.438,213.067 365.726,214.155 366.793,214.811C368.474,215.845 368.733,215.866 368.733,214.969C368.733,214.399 369.076,213.086 369.495,212.051L370.257,210.169L371.578,212.729C372.306,214.137 374.67,217.338 376.832,219.841C381.027,224.697 383.584,230.125 382.265,231.375C381.729,231.881 380.283,231.842 377.284,231.24C374.96,230.772 372.086,230.526 370.896,230.691C368.467,231.029 368.275,230.715 369.77,228.844C371.347,226.871 371.096,226.544 367.998,226.544C364.414,226.544 355.517,224.827 352.102,223.475C348.781,222.161 348.015,222.489 347.037,225.638C346.597,227.056 345.792,229.624 345.247,231.346L344.257,234.477L347.85,234.131C349.827,233.94 352.368,233.508 353.498,233.169C354.629,232.831 355.656,232.651 355.782,232.77C355.907,232.888 355.402,234.111 354.662,235.488L353.314,237.991L355.555,237.534C356.787,237.283 358.64,236.668 359.674,236.168C361.472,235.298 361.617,235.361 363.035,237.638C364.779,240.438 366.175,240.323 366.484,237.354C366.805,234.284 367.814,234.738 369.714,238.806C371.541,242.718 373.44,244.099 373.806,241.78C373.927,241.01 374.911,239.757 375.993,238.995C378.181,237.454 379.828,237.916 380.773,240.336C381.752,242.84 379.57,245.422 373.224,249.269C360.51,256.975 353.121,267.515 351.011,280.949C349.108,293.065 355.051,305.586 366.974,314.579C372.68,318.883 381.743,323.426 381.168,321.691C378.722,314.332 378.802,300.288 381.304,297.918C381.679,297.563 381.551,299.028 381.017,301.175C379.03,309.171 379.894,315.543 384.985,330.476C389.591,343.982 388.953,349.755 382.436,353.569C380.342,354.795 378.994,354.997 373.364,354.929C367.257,354.854 366.592,354.978 364.631,356.54C362.729,358.055 360.265,363.029 360.265,365.35C360.265,366.607 361.661,366.441 364.405,364.857L364.405,364.855Z" style="fill:none;stroke:rgb(3,4,4);stroke-width:1.39px;"/>
            <path d="M381.739,230.626C381.953,230.299 381.48,228.645 380.689,226.95C379.456,224.309 378.959,223.87 377.201,223.87C371.696,223.87 362.846,221.41 353.721,217.343C348.452,214.995 346.632,214.455 346.001,215.053C344.389,216.58 347.068,220.204 351.217,222.109C354.898,223.799 365.188,225.875 369.882,225.875C372.605,225.875 372.67,225.998 371.12,228.238L369.98,229.885L373.061,229.965C374.755,230.008 377.094,230.273 378.259,230.554C381.282,231.283 381.312,231.283 381.74,230.626L381.739,230.626ZM324.386,266.803C324.781,266.429 324.609,265.854 323.947,265.332C322.496,264.192 322.573,262.496 324.165,260.553C325.36,259.095 325.51,256.913 325.921,234.898C326.63,196.96 329.451,168.424 333.17,161.578C334.65,158.853 334.442,158.842 330.617,161.444C325.689,164.797 321.937,169.164 318.613,175.414C312.336,187.213 310.155,203.088 310.155,236.974C310.155,256.216 310.287,258.733 311.383,260.542C312.424,262.26 312.479,262.894 311.748,264.729C311.273,265.919 311.059,267.056 311.27,267.255C312.671,268.583 322.879,268.23 324.386,266.803ZM328.633,272.69C335.459,269.652 336.049,261.989 329.613,259.978C326.94,259.143 325.234,259.592 324.211,261.403C323.428,262.789 323.952,265.309 325.023,265.309C325.385,265.309 325.682,265.775 325.682,266.346C325.682,269.006 315.259,270.212 310.985,268.045C309.484,267.285 308.83,265.309 310.08,265.309C311.014,265.309 311.659,263.296 311.182,261.872C310.532,259.932 308.577,259.261 305.741,260.002C299.343,261.675 299.522,269.193 306.037,272.384C311.379,275 323.088,275.159 328.633,272.69ZM323.424,280.272C323.669,278.644 320.96,277.173 315.634,276.042C311.726,275.213 310.001,275.683 310.294,277.499C310.454,278.49 311.756,279.215 315.448,280.367C321.357,282.211 323.135,282.19 323.424,280.272ZM327.163,280.611C328.289,279.47 329.21,278.122 329.21,277.616C329.21,275.979 324.762,278.877 324.195,280.885C323.515,283.293 324.618,283.191 327.163,280.611ZM323.42,285.643C323.637,284.213 322.722,283.701 315.258,281.074C309.685,279.112 307.218,280.037 308.999,283.421C309.619,284.599 310.661,285.138 312.996,285.487C314.733,285.747 317.107,286.256 318.271,286.617C321.382,287.583 323.18,287.243 323.42,285.643ZM323.42,291.012C323.572,290.009 322.952,289.34 321.094,288.501C317.085,286.69 312.292,285.852 311.138,286.759C309.012,288.43 310.428,290.674 313.864,291.077C315.248,291.24 317.123,291.661 318.032,292.015C320.673,293.041 323.185,292.572 323.42,291.012ZM327.233,296.263C329.021,294.641 329.868,292.712 328.793,292.712C327.556,292.712 324.272,295.658 324.272,296.768C324.272,298.5 324.883,298.396 327.233,296.263ZM323.214,296.426C323.214,294.648 319.55,292.753 315.167,292.261C311.627,291.864 311.569,291.887 311.569,293.654C311.569,295.118 312.126,295.693 314.569,296.757C318.494,298.466 323.214,298.285 323.214,296.426ZM357.288,323.091C360.013,322.017 365.911,317.023 365.911,315.789C365.911,315.401 364.283,313.611 362.294,311.812C358.107,308.022 353.553,301.643 352.373,297.912C351.757,295.968 348.784,292.638 340.409,284.516L329.265,273.707L326.053,274.521C324.287,274.968 322.131,275.346 321.264,275.358C319.768,275.381 319.795,275.467 321.783,277.006L323.881,278.63L326.821,276.997C329.672,275.415 329.774,275.405 330.125,276.679C330.331,277.424 329.887,278.716 329.099,279.665C328.334,280.584 327.9,281.628 328.132,281.983C328.363,282.339 327.629,283.082 326.5,283.635C324.408,284.66 322.956,288.033 324.607,288.033C326.093,288.033 329.369,283.991 328.991,282.624C328.798,281.924 328.891,281.204 329.199,281.023C330.475,280.277 330.396,283.45 329.099,285.012C328.334,285.931 327.9,286.975 328.132,287.33C328.363,287.686 327.629,288.429 326.5,288.981C324.422,290 322.954,293.381 324.591,293.381C326.196,293.381 329.418,289.518 329.02,288.072C328.811,287.316 328.891,286.551 329.199,286.371C330.059,285.868 330.522,288.373 329.797,289.601C329.408,290.258 329.411,291.156 329.806,291.867C330.52,293.157 329.795,295.634 328.48,296.404C327.917,296.734 328.298,297.382 329.666,298.414C331.645,299.909 331.684,300.065 331.684,306.66C331.684,312.172 331.906,313.594 332.918,314.553C334.055,315.629 334.153,315.634 334.153,314.601C334.153,313.474 336.133,312.095 337.752,312.095C338.23,312.095 341.213,314.624 344.383,317.715C347.572,320.824 350.909,323.471 351.854,323.64C352.792,323.807 353.809,323.984 354.113,324.035C354.417,324.085 355.845,323.66 357.289,323.092L357.288,323.091ZM318.234,340.018C318.838,339.2 319.333,337.881 319.333,337.086C319.333,335.884 319.87,335.563 322.511,335.188L325.689,334.736L323.569,333.048C321.052,331.041 320.818,329.474 323.038,329.47C325.248,329.47 328.992,327.175 329.562,325.476C329.826,324.687 329.659,323.633 329.185,323.091C327.945,321.677 325.616,321.89 325.183,323.457C324.718,325.142 323.939,325.146 322.173,323.474C319.518,320.958 319.458,315.752 322.051,312.72C323.272,311.291 323.261,311.197 321.704,309.722C320.028,308.135 318.832,304.994 319.619,304.249C319.869,304.012 321.193,304.201 322.561,304.669C324.503,305.334 325.271,305.345 326.072,304.716C328.497,302.809 325.869,300.358 321.98,300.898C320.415,301.116 319.769,300.898 319.544,300.087C319.374,299.472 318.004,298.667 316.462,298.277C313.707,297.581 313.687,297.59 313.687,299.488C313.687,301.569 312.499,301.961 310.242,300.626C308.408,299.542 306.629,300.384 306.629,302.337C306.629,304.159 308.462,305.058 311.746,304.846C314.265,304.684 314.359,306.557 311.966,309.249L310.246,311.186L311.609,313.144C313.627,316.044 313.458,320.86 311.252,323.252L309.523,325.127L308.39,323.623C306.813,321.534 304.657,321.674 304.066,323.904C303.679,325.365 303.999,326.032 305.828,327.58C307.058,328.62 308.853,329.472 309.816,329.472C312.203,329.472 312.11,331.349 309.629,333.244L307.688,334.728L310.688,335.192C312.337,335.449 313.687,335.93 313.687,336.263C313.687,337.537 315.766,341.502 316.434,341.502C316.82,341.502 317.63,340.834 318.234,340.017L318.234,340.018ZM463.55,364.586L466.112,362.939L467.851,364.586C470.128,366.743 472.797,366.695 474.987,364.457C475.942,363.48 476.801,362.804 476.894,362.953C476.987,363.103 477.413,363.826 477.841,364.562C478.383,365.492 479.495,365.96 481.505,366.102C483.926,366.272 484.575,366.039 485.537,364.648L486.684,362.991L489.206,364.611C496.111,369.05 499.79,364.394 496.704,355.123C495.135,350.409 495.998,347.759 501.055,341.759C503.187,339.229 504.934,336.528 504.936,335.758C504.936,334.529 504.542,334.364 501.703,334.421C498.987,334.476 498.192,334.184 496.763,332.61C494.438,330.05 494.576,327.119 497.176,323.866L499.252,321.268L495.567,318.768C493.541,317.392 489.888,314.139 487.448,311.537C481.969,305.696 476.581,302.926 469.477,302.297L464.714,301.876L464.721,305.481C464.729,310.123 466.908,314.588 472.854,322.151C479.615,330.751 480.087,332.083 480.36,343.323L480.593,352.829L478.636,354.686C476.868,356.362 476.071,356.576 470.366,356.905C464.937,357.219 463.795,357.499 462.202,358.91C460.085,360.785 459.452,361.806 458.799,364.395C458.418,365.903 458.572,366.232 459.661,366.232C460.391,366.232 462.141,365.491 463.55,364.586ZM414.358,194.004C413.326,193.026 414.136,192.787 418.764,192.7C424.491,192.594 427.97,191.639 432.073,189.049C435.361,186.973 436.253,187.381 433.132,189.534C430.285,191.497 425.844,193.006 421.557,193.468C419.48,193.691 417.115,194.001 416.299,194.156C415.483,194.311 414.61,194.243 414.358,194.004ZM381.83,202.333C380.345,200.325 380.447,198.995 382.255,196.818C383.562,195.245 384.159,195.031 386.439,195.321C387.903,195.507 391.053,196.8 393.438,198.194C396.194,199.805 399.044,200.884 401.251,201.152C403.162,201.384 404.727,201.472 404.727,201.347C404.727,201.221 403.932,199.928 402.962,198.472C400.657,195.015 400.736,194.644 403.335,196.715C406.004,198.841 409.194,199.463 416.326,199.246L419.811,199.14L417.789,197.143C414.963,194.348 415.833,194.098 418.954,196.807C421.882,199.348 421.699,199.527 415.536,200.142C412.918,200.403 410.102,200.214 407.761,199.619C404.259,198.728 404.123,198.742 404.786,199.916C405.169,200.592 405.788,201.146 406.163,201.146C406.537,201.146 406.844,201.488 406.844,201.907C406.844,203.196 399.279,202.063 395.665,200.233C387.407,196.052 386.368,195.69 384.403,196.31C383.31,196.654 382.215,197.663 381.838,198.673C380.579,202.046 385.361,204.667 387.334,201.686C387.905,200.822 387.772,200.231 386.768,199.18C385.392,197.739 385.521,197.535 387.378,198.209C388.697,198.689 388.874,201.855 387.647,203.017C386.243,204.347 383.04,203.97 381.83,202.333ZM434.986,207.828C433.353,206.357 432.229,204.953 432.486,204.709C432.744,204.465 433.035,204.395 433.132,204.554C433.229,204.712 434.563,206.116 436.098,207.672C439.631,211.256 438.904,211.358 434.986,207.828ZM395.079,221.777C390.594,218.032 389.912,217.175 390.012,215.4L390.117,213.51L390.41,215.335C390.581,216.401 391.775,217.998 393.281,219.173L395.86,221.186L397.444,219.354C398.316,218.346 399.041,217.145 399.055,216.685C399.092,215.487 399.307,215.588 402.344,218.223C405.042,220.564 405.084,220.576 405.485,219.059C405.71,218.212 405.63,216.62 405.31,215.52C404.428,212.496 404.601,212.039 405.937,213.863C406.603,214.772 407.673,216.057 408.315,216.718C409.434,217.87 409.502,217.855 409.918,216.384C410.157,215.539 410.357,213.992 410.362,212.946L410.372,211.044L412.806,213.803C415.078,216.379 415.288,216.475 415.981,215.247C416.39,214.524 416.729,212.785 416.734,211.382C416.742,209.57 416.934,209.113 417.395,209.803C418.164,210.955 417.63,214.092 416.208,216.766L415.188,218.684L413.85,216.599C412.137,213.932 411.566,213.975 410.469,216.852C409.43,219.572 408.755,219.779 407.743,217.688C407.088,216.334 406.964,216.5 406.499,219.343L405.982,222.502L402.888,220.101L399.793,217.699L398.401,219.281C397.637,220.15 397,221.238 396.987,221.698C396.959,222.694 396.214,222.725 395.079,221.777ZM413.9,247.723C413.9,246.742 411.021,244.084 408.104,242.372C405.812,241.027 405.433,240.987 405.428,242.083C405.42,243.749 403.939,247.932 403.358,247.932C403.03,247.932 402.545,247.114 402.28,246.115C402.016,245.116 400.904,243.147 399.813,241.739L397.825,239.18L396.277,241.551C394.835,243.762 392.336,245.926 391.228,245.926C390.963,245.926 390.91,244.762 391.112,243.339C391.331,241.793 391.162,240.567 390.692,240.292C390.26,240.039 389.906,240.127 389.906,240.488C389.906,241.321 386.436,245.258 385.702,245.258C385.398,245.258 384.976,244.13 384.76,242.751C384.545,241.373 384.18,239.192 383.948,237.906C383.716,236.619 384.21,237.492 385.046,239.845L386.565,244.123L388.231,241.516C389.149,240.082 389.9,238.515 389.902,238.033C389.902,237.552 390.214,237.339 390.591,237.56C390.968,237.78 391.492,239.504 391.757,241.39L392.237,244.82L394.071,242.809C395.079,241.704 396.261,240.223 396.697,239.52C397.475,238.264 397.519,238.265 399.065,239.577C399.933,240.313 401.266,242.071 402.027,243.485C402.79,244.899 403.516,245.952 403.64,245.824C403.765,245.696 404.044,244.238 404.261,242.584C404.478,240.93 404.671,239.516 404.69,239.44C404.798,239.031 410.214,242.551 412.218,244.333C413.506,245.479 414.729,246.256 414.936,246.06C415.143,245.864 415.313,244.174 415.313,242.304C415.313,239.406 415.005,238.629 413.232,237.045C411.195,235.224 411.138,235.214 410.385,236.546C409.407,238.275 408.255,238.3 408.255,236.593C408.255,235.346 404.404,230.554 403.402,230.554C403.143,230.554 402.331,231.606 401.6,232.893C400.868,234.18 400.081,235.231 399.852,235.229C398.863,235.224 393.435,229.171 393.438,228.079C393.438,227.209 393.803,227.432 394.755,228.883C395.478,229.985 396.923,231.632 397.965,232.541C400.075,234.383 400.843,233.935 401.658,230.387C401.89,229.376 402.293,228.548 402.554,228.548C403.456,228.548 408.183,233.568 408.847,235.232L409.514,236.903L410.02,235.065C410.638,232.818 411.319,232.734 412.306,234.785C412.719,235.642 414.754,237.423 416.831,238.743L420.605,241.144L421.362,238.729C421.779,237.401 422.331,236.638 422.589,237.034C422.974,237.623 421.992,241.624 421.252,242.485C421.142,242.614 419.918,241.901 418.534,240.901L416.018,239.084L416.008,242.338C416.001,244.128 415.807,246.269 415.573,247.096C415.115,248.713 413.9,249.168 413.9,247.723ZM364.405,364.855L366.781,363.484L367.798,364.858C369.151,366.689 372.898,366.669 375.385,364.816L377.285,363.399L378.878,364.816C380.971,366.679 384.88,366.681 387.375,364.823C389.122,363.521 389.366,363.495 390.521,364.485C391.21,365.076 393.23,365.747 395.01,365.979C398.216,366.396 398.265,366.372 400.141,363.558C401.712,361.201 401.958,360.247 401.582,357.961C401.334,356.445 401.066,354.007 400.988,352.541C400.845,349.887 400.86,349.87 404.727,348.524C406.861,347.781 409.332,346.784 410.218,346.309C411.762,345.48 416.018,340.478 416.018,339.491C416.018,339.23 414.355,338.831 412.322,338.603C404.239,337.696 402.87,333.354 408.125,325.292C416.695,312.143 421.867,299.336 421.901,291.179C421.917,287.532 422.125,286.308 422.594,287.101C424.508,290.341 421.078,303.929 415.881,313.686L413.789,317.614L415.786,317.154C416.884,316.901 423.34,314.178 430.133,311.102C448.726,302.681 455.111,301.03 467.145,301.537C477.225,301.962 481.518,303.932 488.636,311.396C492.405,315.352 496.038,318.181 502.683,322.34C516.839,331.201 517.429,331.969 518.103,342.39C518.784,352.948 518.445,353.521 510.459,355.285C503.634,356.793 499.354,359.975 498.207,364.396C497.594,366.757 498.884,366.824 502.325,364.612L504.847,362.992L505.969,364.612C507.442,366.744 510.576,366.752 513.179,364.633L515.143,363.031L517.153,364.633C520.275,367.12 524.428,366.517 525.599,363.405C525.824,362.807 526.426,362.998 527.643,364.057C529.924,366.039 535.771,366.889 536.402,365.33C536.644,364.735 536.186,363.267 535.385,362.066C531.983,356.966 530.919,354.533 530.874,351.756C530.813,347.895 531.966,346.03 536.358,342.89C541.694,339.074 543.343,334.151 539.285,334.151C536.779,334.151 534.254,331.938 532.644,328.328C529.369,320.992 530.011,312.767 534.925,299.085C539.916,285.188 540.47,282.625 540.49,273.33C540.506,265.815 540.316,264.516 538.607,260.396C537.562,257.876 535.44,254.125 533.894,252.06L531.08,248.305L534.692,245.313C545.72,236.177 543.464,221.225 530.189,215.464C526.128,213.702 525.113,213.545 517.995,213.593C513.727,213.622 507.216,214.184 503.528,214.842C499.769,215.513 493.404,216.052 489.039,216.07C482.104,216.098 480.927,215.927 478.255,214.504C475.468,213.021 474.99,212.317 474.444,208.888C474.332,208.184 473.84,207.48 473.35,207.326C472.402,207.027 468.024,210.826 467.378,212.509C467.059,213.339 466.798,213.282 465.862,212.174C465.24,211.439 464.372,209.75 463.934,208.421C462.829,205.077 464.185,202.57 468.115,200.692L471.165,199.234L469.366,198.119C465.656,195.816 459.347,197.392 457.065,201.19C456.42,202.264 455.716,203.146 455.501,203.147C455.285,203.149 454.059,202.125 452.774,200.87C447.983,196.188 449.632,189.263 456.039,187.148C459.456,186.021 462.48,186.881 463.109,189.16C464.07,192.638 467.056,188.066 466.521,183.936C466.164,181.191 466.218,181.096 468.117,181.096C470.759,181.096 476.382,184.563 478.121,187.264C480.141,190.402 479.994,195.343 477.771,199.025L476.025,201.917L478.309,201.46C481.657,200.789 484.91,198.71 486.556,196.188C488.295,193.522 488.482,188.332 486.939,185.531C485.444,182.816 485.616,182.385 487.826,183.302C491.584,184.863 493.594,186.583 495.102,189.533C496.459,192.188 496.535,192.848 495.8,195.612C495.347,197.317 494.338,199.562 493.558,200.598C492.344,202.213 492.303,202.483 493.271,202.483C495.071,202.483 498.832,200.778 500.168,199.356C500.843,198.638 501.827,196.869 502.355,195.425L503.314,192.8L504.417,194.802C505.977,197.631 509.008,200.177 512.703,201.761C516.677,203.465 518.333,203.561 516.254,201.967C514.853,200.892 512.27,193.313 513.052,192.572C513.513,192.136 518.909,196.288 525.071,201.819C530.9,207.052 534.563,208.766 539.916,208.766C546.755,208.766 550.736,202.813 547.663,197.185C545.87,193.903 541.879,193.446 539.545,196.257C538.471,197.549 538.176,198.578 538.49,199.933C538.876,201.594 538.726,201.815 537.213,201.815C535.225,201.815 531.307,199.272 524.348,193.465C513.735,184.61 500.842,177.104 491.531,174.362C485.556,172.603 472.793,171.917 466.719,173.028C460.145,174.23 452.369,177.993 448.133,182.02C440.628,189.156 440.508,198.652 447.816,207.3L449.909,209.777L448.492,211.978C446.431,215.181 446.607,219.491 448.931,222.666C449.954,224.064 450.985,225.207 451.224,225.207C451.462,225.206 451.724,224.307 451.805,223.208C452.01,220.431 453.202,218.57 455.248,217.833C457.091,217.17 458.282,217.483 466.721,220.852C475.598,224.395 490.197,224.638 505.722,221.502C513.331,219.965 522.307,220.055 526.254,221.709C533.491,224.741 535.169,232.628 529.849,238.616C527.546,241.208 525.325,242.264 517.867,244.311C512.193,245.868 510.85,245.971 497.952,245.842C486.933,245.732 482.973,245.944 478.476,246.883C473.592,247.902 470.589,248.005 456.244,247.644L439.66,247.226L441.499,248.749C442.511,249.586 443.939,250.617 444.675,251.039C445.926,251.757 445.884,251.853 444.024,252.543C442.932,252.948 440.507,253.279 438.636,253.279L435.232,253.279L434.775,256.171C434.523,257.761 434.542,259.618 434.817,260.297C435.224,261.298 435.071,261.443 434.017,261.059C433.301,260.799 431.308,260.287 429.588,259.922C427.867,259.557 425.552,258.813 424.441,258.27C422.575,257.356 422.367,257.38 421.681,258.597C421.066,259.684 415.303,263.974 414.456,263.974C414.32,263.974 414.144,263.146 414.065,262.135C413.986,261.125 413.154,258.493 412.217,256.287C411.28,254.082 410.301,251.675 410.042,250.94C409.651,249.831 409.475,249.774 409.004,250.606C408.691,251.157 408.235,252.661 407.99,253.948C407.745,255.234 406.877,257.324 406.061,258.593L404.575,260.898L403.629,258.926C402.612,256.81 400.925,254.616 400.313,254.616C400.107,254.616 399.756,255.293 399.533,256.12C399.067,257.847 395.066,262.637 394.089,262.637C393.729,262.637 393.435,261.283 393.435,259.629C393.435,257.975 393.116,256.621 392.729,256.621C392.341,256.621 392.022,257.049 392.022,257.572C392.022,258.844 388.605,262.637 387.459,262.637C386.959,262.637 386.154,263.088 385.671,263.639C384.411,265.077 383.381,264.875 383.91,263.294C384.159,262.554 383.997,260.824 383.552,259.451C383.106,258.079 382.632,256.618 382.498,256.205C382.33,255.685 381.105,255.822 378.514,256.653C374.325,257.996 372.921,257.759 375.075,256.071C375.863,255.455 377.061,253.318 377.737,251.324C378.413,249.33 379.411,247.561 379.955,247.392C380.716,247.156 380.676,247.448 379.778,248.66C379.138,249.526 378.612,250.694 378.609,251.256C378.609,251.817 378.125,253.148 377.538,254.214C376.952,255.28 376.583,256.257 376.719,256.386C376.854,256.514 378.448,255.909 380.26,255.041L383.554,253.461L383.567,254.874C383.575,255.651 383.972,257.701 384.45,259.43L385.318,262.573L387.561,261.542C389.852,260.489 392.022,256.734 392.022,253.823C392.022,252.384 392.847,252.604 393.185,254.134C393.284,254.583 393.801,256.268 394.334,257.878L395.304,260.806L396.84,258.957C397.684,257.94 398.743,255.946 399.192,254.525C399.973,252.06 401.197,250.999 401.197,252.79C401.197,254.081 404.719,258.709 405.398,258.312C405.727,258.12 406.381,256.382 406.852,254.451C407.831,250.435 409.41,247.704 410.414,248.292C410.791,248.512 410.938,248.941 410.741,249.244C410.543,249.547 411.354,252.158 412.544,255.046C413.732,257.934 414.927,260.842 415.197,261.508C415.632,262.578 416.024,262.422 418.573,260.171C420.159,258.77 421.6,257.202 421.773,256.686C422.035,255.906 422.389,255.934 423.872,256.855C425.947,258.143 432.923,260.216 433.461,259.707C433.663,259.516 433.87,257.684 433.921,255.636L434.014,251.912L436.02,252.329C437.123,252.557 439.442,252.543 441.174,252.297L444.323,251.85L441.517,249.924C439.974,248.866 438.413,247.495 438.049,246.879C437.661,246.223 436.287,245.666 434.73,245.533C430.526,245.176 423.074,240.997 423.074,238.996C423.074,238.62 424.107,239.259 425.368,240.416C428.167,242.98 432.055,244.59 435.45,244.59L437.991,244.59L436.42,242.5C435.517,241.299 434.707,239.021 434.517,237.147C434.214,234.16 433.898,233.685 430.779,231.517C428.905,230.214 426.585,228.262 425.622,227.178L423.872,225.208L422.979,227.547C422.487,228.834 421.888,229.887 421.645,229.887C421.402,229.887 420.458,229.134 419.546,228.215C418.635,227.297 417.706,226.548 417.482,226.552C417.259,226.556 416.451,227.794 415.688,229.303L414.3,232.046L413.227,230.465C412.637,229.595 411.243,228.057 410.129,227.046C409.017,226.035 408.431,225.208 408.828,225.208C409.226,225.208 410.6,226.261 411.882,227.548L414.213,229.888L415.161,228.174C415.724,227.156 415.935,225.594 415.68,224.33C415.309,222.487 415.36,222.38 416.066,223.537C416.516,224.272 417.88,225.681 419.097,226.669L421.311,228.465L422.838,225.667C424.358,222.882 424.369,222.876 425.061,224.539C425.985,226.763 432.68,232.25 438.379,235.457C439.258,235.951 438.887,234.252 437.265,230.344C436.835,229.31 436.483,227.443 436.483,226.198C436.483,224.351 435.951,223.528 433.588,221.73C430.177,219.134 429.073,217.288 428.431,213.101C428.17,211.404 427.573,209.517 427.104,208.907C426.407,208.003 426.292,208.509 426.479,211.658C426.604,213.78 426.328,216.419 425.865,217.522L425.023,219.527L424.373,217.855C424.015,216.937 422.433,215.339 420.855,214.304C419.279,213.27 418.173,212.25 418.396,212.038C418.621,211.825 420.243,212.768 422.001,214.133C424.68,216.211 425.271,216.436 425.641,215.521C426.077,214.445 425.641,209.765 424.798,206.494C424.378,204.86 424.415,204.869 426.43,206.884C427.915,208.369 428.737,210.142 429.373,213.233C430.183,217.161 430.59,217.814 434.222,221.003C436.403,222.918 438.301,224.377 438.44,224.247C438.579,224.115 438.854,219.161 439.052,213.238C439.431,201.879 439.002,199.176 436.267,195.667L434.861,193.864L437.07,191.481C439.953,188.372 441.276,185.88 441.851,182.48L442.317,179.715L439.824,182.076C437.782,184.01 436.808,184.438 434.442,184.438C432.101,184.438 431.187,184.045 429.608,182.363C427.715,180.346 424.36,178.405 421.134,177.46C419.942,177.111 419.546,177.263 419.546,178.069C419.546,178.66 418.888,180.366 418.083,181.859L416.62,184.575L413.556,181.545C411.676,179.688 409.444,178.241 407.784,177.804C403.544,176.689 403.314,176.8 403.314,179.959C403.314,184.751 401.269,185.645 397.586,182.459C394.779,180.031 392.45,179.503 387.127,180.088L383.016,180.54L383.755,182.396C384.373,183.946 384.234,184.599 382.91,186.36C380.763,189.215 377.971,190.453 373.674,190.453C371.694,190.453 369.218,190.862 368.169,191.363C367.121,191.864 364.517,192.44 362.382,192.645C360.247,192.849 357.972,193.213 357.326,193.455C356.314,193.833 356.204,193.521 356.529,191.221C357.027,187.702 354.569,185.105 350.738,185.105C345.766,185.105 343.473,189.552 345.42,195.418C345.795,196.547 346.285,198.327 346.51,199.375C346.742,200.461 348.982,203.343 351.725,206.087C354.368,208.733 356.867,211.485 357.277,212.204C357.687,212.923 359.043,214.077 360.29,214.768L362.558,216.025L362.259,213.598C361.93,210.932 362.511,210.514 363.93,212.396C364.438,213.067 365.726,214.155 366.793,214.811C368.474,215.845 368.733,215.866 368.733,214.969C368.733,214.399 369.076,213.086 369.495,212.051L370.257,210.169L371.578,212.729C372.306,214.137 374.67,217.338 376.832,219.841C381.027,224.697 383.584,230.125 382.265,231.375C381.729,231.881 380.283,231.842 377.284,231.24C374.96,230.772 372.086,230.526 370.896,230.691C368.467,231.029 368.275,230.715 369.77,228.844C371.347,226.871 371.096,226.544 367.998,226.544C364.414,226.544 355.517,224.827 352.102,223.475C348.781,222.161 348.015,222.489 347.037,225.638C346.597,227.056 345.792,229.624 345.247,231.346L344.257,234.477L347.85,234.131C349.827,233.94 352.368,233.508 353.498,233.169C354.629,232.831 355.656,232.651 355.782,232.77C355.907,232.888 355.402,234.111 354.662,235.488L353.314,237.991L355.555,237.534C356.787,237.283 358.64,236.668 359.674,236.168C361.472,235.298 361.617,235.361 363.035,237.638C364.779,240.438 366.175,240.323 366.484,237.354C366.805,234.284 367.814,234.738 369.714,238.806C371.541,242.718 373.44,244.099 373.806,241.78C373.927,241.01 374.911,239.757 375.993,238.995C378.181,237.454 379.828,237.916 380.773,240.336C381.752,242.84 379.57,245.422 373.224,249.269C360.51,256.975 353.121,267.515 351.011,280.949C349.108,293.065 355.051,305.586 366.974,314.579C372.68,318.883 381.743,323.426 381.168,321.691C378.722,314.332 378.802,300.288 381.304,297.918C381.679,297.563 381.551,299.028 381.017,301.175C379.03,309.171 379.894,315.543 384.985,330.476C389.591,343.982 388.953,349.755 382.436,353.569C380.342,354.795 378.994,354.997 373.364,354.929C367.257,354.854 366.592,354.978 364.631,356.54C362.729,358.055 360.265,363.029 360.265,365.35C360.265,366.607 361.661,366.441 364.405,364.857L364.405,364.855Z" style="fill:rgb(253,183,19);fill-rule:nonzero;"/>
        </g>
    </g>
    <g transform="matrix(4.16667,0,0,4.16667,29.3,-431.242)">
        <path d="M262.659,168.77L262.816,169.491L262.891,169.416L262.868,168.949L262.659,168.77ZM457.206,339.552L456.345,336.612L456.137,335.296L456.541,315.728L454.458,308.645L453.178,306.63L452.992,304.865L452.737,304.204L451.992,303.491L451.523,303.294L451.378,303.561L451.604,304.204L451.604,304.777L451.095,305.477L450.74,306.456L450.534,307.606L450.458,308.807L449.89,308.807L449.908,307.566L449.277,304.204L448.762,304.204L448.084,305.063L447.402,304.923L447.257,304.279L448.144,303.643L447.522,303.111L447.292,302.632L447.129,302.155L446.72,301.622L446.291,300.895L446.649,300.385L447.257,299.927L447.57,299.353L447.478,299.025L447.089,298.226L447.001,297.958L447.49,295.847L447.57,295.684L446.029,291.806L445.584,291.142L443.645,289.729L442.674,289.38L442.974,290.521L442.459,291.142L442.064,290.366L441.92,289.786L442.035,289.313L442.459,288.814L441.556,287.313L440.687,286.326L438.478,284.271L438.616,283.38L438.089,282.754L437.192,282.308L436.207,281.948L435.59,282.794L434.76,283.097L433.802,282.97L432.788,282.518L433.39,280.676L434.252,279.789L435.393,279.69L436.774,280.189L437.852,281.117L439.9,283.696L440.751,284.271L442.596,283.72L442.39,282.105L441.238,280.287L437.638,276.566L436.786,275.161L436.207,273.425L435.639,273.425L433.869,273.735L432.139,271.779L431.166,268.94L431.665,267.122L431.959,266.927L432.417,266.632L432.788,266.609L432.19,265.608L430.508,264.318L429.91,263.199L429.883,262.177L430.171,261.51L430.345,260.83L429.91,259.795L429.476,260.125L428.632,260.531L428.202,260.872L428.15,260.505L428.029,260.284L427.863,260.096L427.688,259.795L428.058,259.383L427.688,258.603L427.439,258.982L426.911,259.385L426.502,259.795L425.482,257.441L424.88,256.461L423.943,255.456L423.242,254.296L422.571,251.296L421.905,250.083L421.391,250.083L420.899,251.871L419.497,251.987L418.038,250.922L417.355,249.178L417.217,248.914L416.5,248.7L416.215,248.378L416.1,247.873L416.1,247.457L416.163,247.219L416.215,247.24L416.129,246.414L416.215,243.784L416.84,243.784L418.114,247.253L419.058,251.168L420.575,249.089L419.914,245.302L417.923,238.614L417.744,237.27L417.009,234.689L416.482,231.51L415.585,231.111L414.45,231.111L413.386,230.612L412.929,229.575L412.506,226.667L412.528,226.068L413.501,226.531L414.601,228.737L415.654,229.477L415.579,227.23L414.276,222.949L413.688,219.62L413.004,218.477L412.064,217.498L411.052,216.927L410.145,216.857L409.264,217.121L407.081,218.113L407.94,220.062L406.643,220.876L402.817,220.952L401,220.428L399.691,219.172L398.603,217.671L397.422,216.408L395.691,217.828L394.395,218.027L394.025,217.274L395.102,215.84L396.496,215.257L397.937,215.588L399.383,216.472L400.785,217.544L401.393,216.263L401.079,215.417L400.483,214.628L400.27,213.513L400.924,212.087L401.833,212.237L402.395,213.315L401.964,214.651L404.032,214.327L403.777,212.298L401.964,208.403L401.491,208.658L400.27,208.974L401.052,208.063L401.908,207.666L402.522,207.063L402.533,205.563L401.764,204.32L399.453,201.815L399.691,201.019L398.887,200.575L398.418,200.473L398.149,200.787L397.937,201.583L396.763,197.233L395.744,195.07L393.701,194.146L392.752,193.172L390.969,188.875L389.753,187.9L388.219,187.458L387.144,186.338L384.474,181.797L381.459,178.188L380.892,179.557L380.041,181.041L378.905,182.11L377.487,182.217L376.174,181.2L376.95,180.272L377.848,179.455L376.869,178.757L376.835,177.174L373.823,174.384L372.888,173.079L374.199,173.682L376.492,174.262L377.487,174.781L378.402,176.242L378.623,176.484L379.387,176.209L379.774,175.626L379.792,175.044L379.474,174.781L377.864,173.749L376.301,171.364L375.121,168.697L374.651,166.827L374.269,167.094L373.98,167.222L373.726,167.43L373.454,167.915L372.888,167.915L372.685,166.008L371.474,165.254L370.132,165.033L369.489,164.735L369.952,163.55L371.058,163.57L373.454,164.45L369.489,156.602L368.597,154.023L368.065,153.657L366.914,153.928L366.711,154.626L367.104,155.574L367.781,156.602L366.091,155.684L361.773,151.696L361.341,150.827L361.976,150.617L363.493,150.867L363.985,151.12L364.87,152.235L365.513,152.519L366.52,151.994L365.391,150.537L363.597,148.87L362.665,147.719L361.987,146.604L339.016,128.153L335.768,126.318L334.159,125.151L323.26,112.471L322.497,111.332L321.738,108.617L320.581,107.808L318.924,107.5L315.481,107.672L313.171,108.047L311.43,108.807L311.592,110.069L312.848,110.967L317.641,112.083L320.674,113.701L326.674,120.553L333.979,126.475L336.995,127.994L336.995,128.609L330.813,125.786L328.215,124.171L318.543,113.756L317.641,113.221L316.933,113.313L315.949,113.609L315.064,113.64L314.687,112.907L314.277,112.688L312.28,112.177L311.592,112.083L310.879,111.847L310.637,111.241L310.707,109.5L310.225,108.387L308.992,108.246L305.602,108.624L299.089,108.052L297.62,108.702L294.332,111.705L292.526,112.596L293.086,113.559L294.262,115.082L294.807,116.009L295.141,117.092L295.303,118.047L295.658,118.849L296.566,119.469L296.665,118.88L297.324,119.15L298.238,119.722L300.137,120.391L303.326,122.876L307.32,125.078L309.322,125.896L311.337,126.284L310.417,125.269L308.79,123.866L307.871,122.876L309.659,123.626L312.771,126.318L314.352,127.142L314.919,127.6L315.522,127.927L316.158,127.727L316.702,126.678L316.17,125.847L315.267,125.171L314.687,124.581L314.492,122.548L315.522,122.571L317.079,123.455L322.271,125.699L324.799,127.33L330.726,132.409L331.491,132.635L334.21,132.562L334.639,132.639L335.757,133.446L336.058,133.278L336.335,132.84L336.995,132.588L338.708,132.501L339.276,132.588L339.848,132.921L341.348,134.046L341.857,134.289L343.594,134.659L345.538,135.559L351.206,139.402L347.258,138.651L342.008,136.315L337.573,135.101L335.559,134.91L328.035,137.865L323.914,138.86L322.177,137.698L322.692,137.135L322.403,136.561L322.177,135.997L323.185,135.484L322.704,134.582L320.736,132.875L319.48,132.075L314.687,130.884L309.665,127.998L307.146,126.992L304.461,126.905L305.694,128.435L311.853,132.016L313.479,133.214L314.694,134.413L315.649,135.686L316.442,137.135L315.487,137.28L314.739,137.561L314.121,137.917L313.606,138.321L311.77,140.726L311.019,141.106L309.357,141.355L307.291,141.998L305.462,142.909L304.461,143.946L304.513,145.059L304.901,147.006L305.555,148.855L306.452,149.682L308.756,150.867L309.729,151.05L309.891,151.527L309.694,152.237L309.694,157.072L308.841,160.481L306.167,167.344L305.602,170.236L304.612,172.317L304.043,174.343L303.001,175.253L300.49,176.484L295.658,180.797L294.917,181.023L293.794,181.229L293.022,181.644L293.353,182.475L293.794,183.208L294.03,184.179L294.238,186.145L294.083,192.112L293.926,193.01L295.941,198.178L295.193,206.279L294.418,207.945L294.238,208.687L294.059,208.853L293.092,211.812L292.016,212.965L290.68,213.875L289.55,214.962L289.071,216.666L289.071,220.126L288.892,221.343L288.457,221.897L287.919,222.355L287.42,223.277L286.616,231.407L285.847,234.887L285.662,236.628L285.441,237.548L284.358,238.962L283.954,239.754L283.797,240.683L283.954,241.023L284.256,241.298L284.526,242.025L284.561,242.759L284.457,244.477L284.526,245.486L284.787,246.109L285.197,246.707L285.563,247.415L285.662,248.378L282.872,253.679L283.108,254.578L283.943,255.103L284.979,256.395L285.853,258.006L286.228,259.481L284.256,260.862L280.399,260.56L277.749,258.647L279.41,255.192L277.534,252.986L277.39,250.511L278.803,246.055L278.872,245.44L278.803,243.468L278.93,242.584L279.229,242.35L279.619,242.31L279.978,242.025L280.823,240.368L281.639,238.101L280.643,238.115L279.833,237.792L279.212,237.182L278.803,236.348L280.359,233.574L281.639,230.612L279.172,234.458L278.803,235.49L278.431,237.076L277.477,238.962L276.197,240.62L274.809,241.509L275.248,243.002L275.688,247.915L275.375,249.465L275.208,249.182L275.208,249.091L275.144,249.048L274.809,248.894L274.821,251.557L276.91,260.941L278.275,264.338L279.126,268.643L280.1,270.686L282.257,281.1L282.241,284.16L282.484,285.682L283.108,286.829L283.572,288.085L283.369,289.688L282.953,291.348L282.825,292.797L282.222,292.391L281.975,292.432L281.639,292.797L282.131,293.866L286.228,323.57L286.061,324.161L285.743,324.782L285.598,325.439L285.945,326.152L286.448,326.478L287.537,326.715L287.936,326.984L288.346,327.9L288.526,329.017L288.555,331.581L288.503,331.529L288.294,331.588L288.05,331.924L287.936,332.718L287.42,332.718L287.021,332.051L286.228,329.254L285.835,328.533L285.377,327.912L285.07,327.118L285.095,325.846L284.556,327.906L288.538,341.96L288.555,342.943L288.329,343.898L287.42,346.099L287.42,352.083L288.653,358.986L297.521,381.613L298.209,386.325L298.008,386.329L297.573,386.291L297.167,386.407L297.075,386.892L297.301,387.35L297.671,387.667L298.029,387.894L298.209,388.027L299.529,393.363L301.051,396.091L301.747,399.974L302.453,401.409L302.586,401.832L302.556,403.214L302.707,403.991L306.551,412.066L307.586,413.413L307.801,413.778L307.767,414.483L307.871,414.837L308.124,415.138L308.687,415.572L315.464,422.731L317.008,423.974L317.641,423.356L318.832,423.942L320.656,425.389L323.144,425.898L327.29,427.38L327.607,427.589L328.127,428.333L328.423,428.571L328.862,428.582L329.182,428.361L329.489,428.085L329.875,427.954L330.531,428.124L330.882,428.519L331.155,428.913L331.544,429.087L334.333,429.486L335.601,429.389L336.995,428.571L337.615,429.504L338.06,430.406L338.766,431.089L340.121,431.361L344.954,430.794L346.372,431.211L347.831,431.971L349.208,432.5L350.378,432.239L352.415,430.725L353.55,430.078L354.66,429.655L356.09,429.458L359.494,429.655L360.963,427.954L367.371,423.229L369.554,422.395L371.803,422.835L373.066,421.065L375.156,420.265L379.757,419.427L383.959,417.998L392.623,416.137L394.429,415.353L396.235,414.268L397.195,413.836L397.931,413.639L398.395,413.111L398.557,411.712L398.87,411.05L399.524,410.871L400.125,411.341L400.27,412.619L410.295,409.066L413.386,407.393L428.829,395.314L430.951,394.18L432.503,393.712L437.349,390.303L439.965,387.691L447.789,375.361L448.728,372.96L448.144,370.934L450.511,367.246L450.985,365.825L451.251,364.786L452.461,362.469L452.737,360.967L452.813,359.167L453.033,357.808L456.87,344.601L457.341,341.287L457.206,339.552ZM270.328,170.291L269.298,170.937L270.126,170.885L270.38,170.679L272.083,170.679L271.816,170.369L270.328,170.291ZM292.982,180.942L292.573,180.426L292.259,181.87L292.982,180.942ZM277.657,134.91L276.684,132.896L276.26,132.588L274.554,132.464L273.119,132.016L272.771,131.132L272.199,130.434L271.648,130.321L271.404,131.191L271.404,134.602L272.257,135.651L274.219,136.289L276.313,136.165L277.657,134.91ZM290.101,124.224L291.397,125.151L292.439,125.026L293.938,124.151L294.522,124.296L295.362,124.815L296.542,125.177L297.625,125.167L298.209,124.581L297.84,123.795L296.751,123.183L295.466,122.644L294.522,122.05L294.326,121.534L294.204,120.285L293.926,120.033L292.312,120.125L291.97,120.033L291.298,119.266L290.935,118.425L290.807,117.457L290.778,116.319L290.997,115.19L291.316,114.208L291.235,113.506L290.256,113.221L288.434,113.601L287.919,115.082L287.71,116.906L286.802,118.331L288.81,122.323L290.101,124.224ZM275.19,168.274L274.924,169.071L275.324,169.877L276.26,170.236L278.08,170.433L279.989,170.949L283.393,172.459L286.825,175.479L287.687,175.916L288.352,176.433L289.244,177.517L290.546,178.51L292.526,178.757L291.796,177.438L287.936,173.079L289.336,173.317L291.733,174.497L293.092,174.781L290.256,172.056L286.877,170.103L283.334,168.764L279.978,167.915L276.26,167.915L275.19,168.274ZM298.325,153.415L298.743,153.133L299.257,152.534L299.373,151.965L299.147,151.583L298.609,151.16L298.118,151.867L297.62,152.15L298.325,153.415ZM287.386,129.527L288.138,129.425L288.399,129.012L288.625,127.279L288.294,126.137L287.461,125.52L286.755,125.513L286.721,125.978L287.194,126.817L286.843,127.098L286.172,127.163L285.569,126.652L284.979,125.143L284.544,124.699L284.237,125.133L284.121,128.246L284.66,128.994L287.386,129.527ZM443.641,283.929L443.593,284.786L443.87,285.607L444.583,287.12L444.732,287.992L447.507,292.054L447.858,292.797L448.773,293.565L448.999,295.37L448.669,300.784L448.773,301.599L449.289,302.149L450.458,303.077L451.707,302.067L451.753,300.396L450.342,293.14L447.384,288.472L446.43,285.925L445.683,284.814L444.647,282.418L443.593,281.381L443.998,282.354L443.895,283.161L443.641,283.929Z" style="fill:none;stroke:rgb(153,153,153);stroke-width:0.25px;stroke-linecap:round;stroke-linejoin:round;"/>
    </g>
</svg>
