<?xml version="1.0" encoding="UTF-8" standalone="no"?>
<!DOCTYPE svg PUBLIC "-//W3C//DTD SVG 1.1//EN" "http://www.w3.org/Graphics/SVG/1.1/DTD/svg11.dtd">
<svg width="100%" height="100%" viewBox="0 0 53 98" version="1.1" xmlns="http://www.w3.org/2000/svg" xmlns:xlink="http://www.w3.org/1999/xlink" xml:space="preserve" xmlns:serif="http://www.serif.com/" style="fill-rule:evenodd;clip-rule:evenodd;">
    <g>
        <clipPath id="_clip1">
            <path d="M4.071,25.358L3.029,24.017L2.633,23.313L2.121,24.288L1.75,25.629L1.608,27.175L1.75,28.792L1.213,36.154L3.65,44.296L4.725,51.867L0,57.604L1.146,59.95L2.821,65.858L4.071,67.904L10.633,75.533L10.971,76.079L11.433,76.575L12.583,77.312L13.825,77.854L14.288,77.804L14.533,77.517L14.867,77.312L13.429,75.804L12.967,72.854L13.571,70.812L15.267,72.004L15.133,71.271L15.267,70.713L15.171,70.317L14.392,70.204L14.392,69.229L16.129,68.225L18.333,70.042L22.45,76.367L25.883,79.996L26.621,82.021L26.029,84.542L29.688,85.883L30.325,85.15L30.533,82.196L29.733,80.425L28.488,78.7L28.488,77.275L31.413,76.367L31.075,78.346L33.708,89.542L34.975,92.162L36.729,94.458L38.675,96.171L43.45,97.575L48.162,96.008L51.5,92.05L52.092,86.396L48.529,80.167L48.071,78.988L45.625,59.821L44.454,56.083L42.192,53.079L41.904,55.958L42.513,59.821L42.513,62.571L40.371,62.029L40.229,62.533L40.192,62.758L40.05,62.842L39.442,62.904L38.787,61.292L37.733,61.388L36.854,62.663L36.762,64.583L35.467,63.463L34.479,62.029L33.279,61.196L31.379,61.992L31.842,60.521L32.479,59.467L34.063,57.542L33.121,55.892L32.592,54.454L32.338,52.858L32.292,50.767L32.592,48.992L33.121,47.379L33.475,45.783L33.183,44.012L30.387,43.596L29.554,43.133L28.121,37.113L25.567,32.992L25.038,30.967L24.783,29.029L23.629,25.313L23.25,23.35L23.296,21.3L24.225,15.796L23.442,11.175L19.421,3.992L17.883,0L15.521,2.363L14.579,12.042L13.525,16.158L11.333,18.667L6.671,22.55L4.425,26.096L4.071,25.358Z"/>
        </clipPath>
        <g clip-path="url(#_clip1)">
            <g transform="matrix(0.162873,0,0,0.162873,0,0)">
                <rect x="0" y="0" width="900" height="600" style="fill:rgb(30,181,58);"/>
            </g>
            <g transform="matrix(0.162873,0,0,0.162873,0,0)">
                <path d="M0,200L300,0L900,0L900,300L0,300L0,200Z" style="fill:rgb(0,163,221);fill-rule:nonzero;"/>
            </g>
            <g transform="matrix(0.162873,0,0,0.162873,0,0)">
                <path d="M0,200L300,0" style="fill:none;fill-rule:nonzero;stroke:rgb(252,209,22);stroke-width:79.17px;"/>
            </g>
            <g transform="matrix(0.162873,0,0,0.162873,0,0)">
                <path d="M0,200L300,0" style="fill:none;fill-rule:nonzero;stroke:black;stroke-width:54.17px;"/>
            </g>
            <g transform="matrix(0.162873,0,0,0.162873,0,0)">
                <rect x="300" y="0" width="600" height="300" style="fill:rgb(0,163,221);"/>
            </g>
            <g transform="matrix(0.162873,0,0,0.162873,0,0)">
                <rect x="0" y="200" width="900" height="200"/>
            </g>
        </g>
    </g>
</svg>
