<?xml version="1.0" encoding="UTF-8" standalone="no"?>
<!DOCTYPE svg PUBLIC "-//W3C//DTD SVG 1.1//EN" "http://www.w3.org/Graphics/SVG/1.1/DTD/svg11.dtd">
<svg width="100%" height="100%" viewBox="0 0 1467 1276" version="1.1" xmlns="http://www.w3.org/2000/svg" xmlns:xlink="http://www.w3.org/1999/xlink" xml:space="preserve" xmlns:serif="http://www.serif.com/" style="fill-rule:evenodd;clip-rule:evenodd;stroke-miterlimit:2;">
    <g transform="matrix(4.16667,0,0,4.16667,-799.533,-487.342)">
        <clipPath id="_clip1">
            <path d="M413.19,120.92L413.253,124.439L413.314,128.561L413.402,133.757L413.463,136.786L418.179,136.745L421.19,136.724L428.049,136.684L432.574,136.652L434.447,137.041L436.14,138.227L436.82,138.954L437.445,139.429L438.146,139.531L439.076,139.117L439.566,138.698L440.355,137.809L440.963,137.502L441.32,137.588L441.657,137.838L441.97,137.855L442.312,137.247L443.366,136.592L445.239,136.745L449.497,137.751L450.297,138.049L450.982,138.534L451.592,139.291L452.378,140.764L452.911,141.373L453.729,141.818L454.144,142.114L454.323,142.514L454.456,142.913L454.72,143.199L454.869,143.229L455.195,143.152L455.375,143.138L455.563,143.239L455.55,143.449L455.509,143.659L455.579,143.793L456.398,143.894L457.304,143.894L458.147,144.028L458.771,144.477L460.408,145.275L467.409,145.735L468.447,146.21L469.609,147.156L472.146,149.94L472.958,150.635L474.728,151.556L475.229,151.971L475.602,152.742L475.813,154.403L476.165,155.075L476.835,155.397L481.214,156.097L489.509,155.887L492.817,156.395L497.17,158.128L503.818,160.813L508.846,162.833L509.322,163.278L509.532,163.901L509.562,164.915L509.977,166.632L511.106,167.493L511.356,167.595L511.716,167.35L512.31,167.125L512.959,167L514.268,167.093L516.849,167.672L518.169,167.748L518.849,167.568L520.112,166.765L520.807,166.47L521.331,166.409L521.033,167.655L519.847,172.258L519.13,173.67L518.468,174.529L515.453,177.465L515.511,177.752L517.887,181.977L519.638,185.096L520.722,187.623L521.299,190.303L521.361,192.384L521.524,193.33L521.969,194.195L522.322,194.506L523.273,195.027L523.556,195.411L523.602,196.112L523.336,196.808L522.547,198.025L520.899,201.247L520.617,201.568L520.247,201.809L519.979,202.106L519.995,202.597L520.426,204.081L520.617,204.438L521.361,205.012L522.932,205.728L523.515,206.494L523.672,207.404L523.515,208.248L522.813,209.88L522.664,211.558L522.781,213.47L522.607,215.091L521.539,215.802L520.84,216.13L520.379,216.855L520.112,217.776L519.995,218.626L520.068,219.484L520.559,220.717L520.635,221.49L520.471,222.067L520.143,222.363L519.815,222.574L519.593,222.926L519.668,223.34L520.189,223.954L520.143,224.323L519.919,225.198L520.01,226.194L521.479,230.715L521.627,232.174L521.596,232.501L521.211,233.447L520.899,234.03L520.646,234.358L520.572,234.725L520.75,235.38L521.392,236.311L523.366,237.917L524.123,238.766L524.445,239.594L524.255,240.084L523.038,241.007L522.159,242.295L522.042,242.264L522.103,242.694L522.633,243.317L522.781,243.779L522.5,244.669L521.744,245.236L520.823,245.666L520.01,246.172L519.253,246.555L518.468,246.796L517.739,247.092L517.219,247.696L517.116,248.442L517.249,249.343L517.794,250.918L519.06,253.423L519.386,254.631L519.294,256.098L518.998,257.271L518.552,258.222L517.827,258.816L516.716,258.908L514.994,258.773L513.715,258.962L509.681,260.86L509.619,261.248L509.906,263.637L510.171,264.292L510.703,264.634L510.258,264.974L509.71,265.269L509.307,265.643L509.25,266.189L509.562,267.171L509.635,267.662L509.562,268.226L509.665,268.817L509.992,269.161L510.468,269.319L511.046,269.35L513.656,268.966L514.385,269.043L514.846,269.232L515.081,269.427L515.211,269.74L515.305,270.26L515.511,270.792L515.839,271.128L516.24,271.446L516.594,271.888L516.861,273.402L515.648,278.884L515.604,279.979L515.453,280.764L515.11,281.507L514.503,282.484L512.927,284.27L512.825,284.697L512.917,286.003L512.646,287.804L512.706,288.725L513.151,289.24L513.956,289.284L514.729,289.183L515.305,289.388L515.604,290.35L515.616,291.168L515.305,294.376L515.32,294.777L515.422,295.22L515.482,295.801L515.305,296.216L515.064,296.601L514.932,297.06L515.064,298.042L515.539,298.532L516.313,298.698L517.279,298.752L518.231,298.486L519.474,297.193L520.261,296.927L521.004,297.356L521.078,298.247L520.722,299.971L521.078,300.756L521.775,301.47L522.68,302.032L523.602,302.435L524.03,302.92L523.896,303.77L523.615,304.823L523.539,306.649L522.742,309.262L522.577,312.556L522.828,313.593L522.961,313.938L520.705,313.864L520.128,314.366L519.888,315.718L519.565,316.356L518.896,316.566L518.215,316.698L517.827,317.098L517.513,319.268L517.31,319.946L516.729,321.001L516.642,321.435L516.701,321.743L516.982,322.355L516.999,322.694L516.701,324.058L516.461,324.697L516.149,325.276L514.281,327.593L511.552,330.958L510.227,333.525L508.846,336.2L507.793,337.371L505.981,337.684L504.008,337.433L502.181,337.668L500.861,339.392L500.417,341.278L500.33,343.128L500.94,347.927L501.518,352.571L501.253,354.277L500.27,356.252L498.147,358.965L494.899,363.138L495.135,363.525L495.742,363.909L496.114,364.426L496.304,364.456L496.483,364.456L496.617,364.549L496.603,364.846L496.454,365.126L496.29,365.377L496.234,365.557L499.307,370.777L499.409,371.197L497.794,370.145L496.29,371.832L494.259,374.093L492.062,376.527L489.851,378.96L487.643,381.406L485.442,383.855L483.231,386.289L481.035,388.739L478.824,391.184L476.626,393.639L474.416,396.083L472.217,398.535L470.007,400.985L467.813,403.448L465.615,405.894L463.405,408.344L461.191,410.81L458.996,413.259L456.813,415.691L454.065,417.62L450.71,420L449.733,418.556L449.318,418.213L448.9,418.2L448.221,418.486L447.878,418.526L447.551,418.394L446.886,417.964L446.588,417.872L446.292,417.65L445.444,416.612L444.983,416.327L444.359,416.434L442.968,417.103L442.252,417.269L441.525,417.114L440.088,416.479L435.517,415.396L432.979,415.13L431.762,414.782L430.382,415.351L425.706,415.724L424.874,415.974L423.748,416.789L423.124,416.981L422.826,416.879L422.188,416.434L421.799,416.327L420.588,416.347L417.868,416.031L417.069,416.05L416.267,416.271L414.68,416.997L413.877,417.269L412.169,417.564L410.608,417.605L409.174,417.269L407.853,416.327L407.269,415.811L406.635,415.427L405.849,415.188L404.809,415.099L402.952,415.365L402.212,415.304L401.203,414.782L399.997,413.914L399.394,413.657L398.146,413.51L398.038,413.36L397.981,413.155L397.179,412.291L396.748,412.082L395.86,411.876L395.445,411.714L394.284,410.998L393.676,410.823L392.161,410.69L391.123,410.139L389.702,409.831L387.253,408.21L386.403,407.959L383.554,408.107L383.063,408.297L382.29,407.749L381.446,407.888L379.888,408.594L378.466,408.449L377.663,408.645L377.305,409.381L376.85,409.831L375.806,409.725L373.697,409.218L372.825,409.413L371.295,410.272L370.391,410.752L369.766,410.732L369.5,410.66L369.218,410.481L365.996,407.693L365.73,407.273L365.403,406.385L365.183,405.986L364.764,405.463L364.56,405.33L360.58,405.454L359.037,405.168L357.465,404.349L356.202,402.997L355.398,401.28L355.072,399.367L355.251,397.466L355.712,396.503L356.408,395.419L356.913,394.366L356.81,393.485L356.126,392.955L354.438,392.424L353.691,391.916L352.474,391.618L349.906,391.47L348.648,391.129L342.475,388.249L340.558,387.641L338.926,386.346L338.333,386.173L337.085,386.04L335.75,385.696L335.274,385.773L334.844,385.979L333.362,386.368L332.69,386.632L331.98,386.765L331.09,386.557L327.658,384.776L325.982,384.198L324.427,383.902L319.425,383.826L316.279,383.206L313.845,383.053L313.145,382.833L312.566,382.448L312.05,381.881L311.81,381.478L311.441,380.561L311.217,380.205L310.936,380.025L310.695,380.071L310.49,380.025L310.327,379.579L310.536,379.003L310.373,378.752L310.075,378.646L309.928,378.572L310.014,378.143L310.342,377.612L310.475,377.254L310.357,376.776L309.109,374.226L308.424,373.479L308.158,373.07L308.086,372.723L308.117,372.026L308.01,371.668L307.626,371.033L306.112,369.209L305.043,367.516L303.78,365.972L300.871,363.834L300.236,363.153L298.778,361.162L298.435,360.313L298.452,359.549L298.957,357.175L299.019,356.223L298.691,353.711L298.691,353.267L298.793,352.275L298.778,351.753L298.839,351.159L299.075,350.762L299.386,350.37L299.612,349.87L300.246,346.251L300.144,344.465L299.105,340.92L299.433,339.313L299.949,337.739L300.072,335.979L299.76,335.193L299.167,334.609L298.41,334.302L296.717,334.282L295.26,333.603L292.871,334.03L289.501,333.603L284.74,333.585L283.287,333.781L281.696,334.6L282.352,328.154L281.594,322.928L279.456,317.426L278.893,316.652L278.137,316.178L277.257,315.926L276.382,315.778L275.865,315.763L275.446,315.787L275.017,315.778L274.511,315.585L274.055,315.216L273.324,314.174L272.94,313.743L271.529,312.956L270.179,312.812L268.782,312.837L267.269,312.556L262.507,310.137L260.932,309.842L259.939,309.824L259.105,309.662L258.394,309.294L257.739,308.624L257.163,307.82L256.702,307.329L256.092,306.992L254.197,306.439L253.408,306.103L252.846,305.488L252.55,304.495L252.191,303.667L251.465,302.91L249.772,301.812L248.969,301.483L247.308,301.111L246.535,300.803L245.737,300.058L244.577,298.247L243.63,297.744L242.352,297.521L242.008,297.377L241.508,297.028L241.518,296.941L241.789,296.793L242.101,296.246L242.397,295.326L242.29,294.968L241.876,294.39L241.549,294.053L241.134,293.735L240.674,293.53L238.433,293.484L236.546,292.979L234.915,291.956L233.846,290.35L229.826,278.954L228.86,277.011L227.581,275.334L226.543,273.585L226.221,272.752L226.057,271.682L226.19,270.777L226.885,269.13L227.019,268.226L225.894,264.706L220.61,259.96L219.112,256.645L218.856,253.414L218.365,251.869L217.311,250.907L215.695,250.089L214.478,249.036L212.488,246.172L211.91,245.578L210.484,244.613L207.712,241.671L207.175,240.781L206.955,240.188L206.566,238.336L206.229,237.456L204.873,235.247L203.522,231.846L202.633,230.23L201.359,229.203L199.933,228.358L198.792,227.126L197.054,224.16L195.836,221.131L195.555,220.078L195.555,218.83L197.263,215.077L197.544,215.373L198.332,215.741L199.622,216.738L200.438,217.142L200.853,217.199L202.158,217.142L203.554,217.658L203.999,217.746L207.175,217.746L207.384,217.792L207.783,218.012L208.054,218.072L208.29,217.971L208.663,217.572L208.898,217.464L211.732,216.917L213.956,215.951L214.984,215.834L215.517,216.191L216.038,216.652L217.608,217.066L218.529,217.526L219.377,218.063L219.746,218.519L220.15,219.203L222.063,220.017L222.64,220.774L221.96,221.015L221.915,221.633L222.211,222.363L222.64,222.87L225.208,224.067L226.989,224.143L227.479,224.067L229.796,222.87L230.077,223.167L230.328,222.63L230.998,222.482L231.785,222.467L232.378,222.287L232.425,222.124L232.332,221.561L232.378,221.397L232.628,221.296L233.355,221.116L234.071,220.717L235.048,220.523L235.421,220.313L236.92,219.157L237.289,218.962L237.676,219.127L237.973,219.484L238.208,219.898L238.433,220.171L238.818,220.313L240.75,220.539L241.15,220.732L241.492,220.968L241.758,221.232L242.055,221.311L243.63,221.07L245.558,221.443L248.791,223.208L250.544,223.77L251.66,223.966L252.354,224.252L252.903,224.691L253.558,225.439L254.134,225.929L254.82,226.283L257.209,227.054L257.802,227.156L258.308,227.008L259.51,225.899L260.057,225.572L260.743,225.393L261.75,225.274L265.713,223.442L266.721,223.77L268.266,222.748L268.696,222.574L270.685,222.482L271.309,222.287L272.449,221.664L273.698,220.467L275.267,218.933L276.679,217.199L276.576,216.161L276.515,215.077L276.592,214.631L277.021,213.991L288.151,202.388L292.458,198.464L294.681,196.184L295.827,193.984L296.687,190.497L297.372,188.983L303.1,180.359L304.762,178.54L306.925,177.23L317.241,172.78L321.384,169.334L324.233,167.493L339.503,161.483L341.494,161.109L342.666,161.109L343.258,161.022L343.616,160.695L344.444,159.892L344.788,159.154L346.464,157.893L347.027,157.222L347.313,155.638L347.473,155.278L348.501,153.617L348.484,152.618L347.784,150.809L347.636,150.052L347.784,149.121L348.782,146.788L348.07,145.541L348.29,143.808L348.838,141.998L349.078,140.529L348.96,140.305L348.766,140.069L348.572,139.752L348.501,139.352L348.618,138.881L349.195,137.987L349.328,137.69L350.25,136.534L351.645,135.154L352.449,134.78L353.354,134.617L355.251,134.586L356.274,134.397L356.81,133.88L357.7,132.183L358.115,131.712L358.785,131.118L359.614,130.613L360.463,130.402L360.846,130.167L362.33,128.593L371.607,124.317L372.23,124.184L375.867,123.856L376.624,123.386L378.184,122.067L379.176,121.78L380.081,121.902L380.898,122.123L381.76,122.255L382.783,122.108L385.187,121.31L386.997,121.012L388.72,120.226L389.702,120L391.567,120.179L395.16,121.155L396.986,121.366L398.647,121.1L400.308,120.639L402.001,120.389L403.68,120.757L404.749,121.499L405.239,121.662L405.918,121.514L406.246,121.31L406.887,120.757L407.245,120.609L408.313,120.757L410.328,121.637L411.53,121.605L413.19,120.92Z"/>
        </clipPath>
        <g clip-path="url(#_clip1)">
            <rect x="191.888" y="116.962" width="351.942" height="306.075" style="fill:rgb(50,147,68);fill-rule:nonzero;"/>
            <rect x="191.888" y="160.688" width="351.942" height="218.625" style="fill:rgb(253,210,6);fill-rule:nonzero;"/>
            <rect x="191.888" y="204.413" width="351.942" height="131.175" style="fill:rgb(222,37,38);fill-rule:nonzero;"/>
            <rect x="191.888" y="248.138" width="351.942" height="43.724" style="fill:rgb(3,4,4);fill-rule:nonzero;"/>
            <path d="M203.02,116.962L407.069,270L203.02,423.037L191.888,423.037L191.888,116.962L203.02,116.962Z" style="fill:rgb(3,4,4);fill-rule:nonzero;"/>
            <path d="M191.888,116.962L395.938,270L191.888,423.037" style="fill:white;fill-rule:nonzero;"/>
            <path d="M200.551,245.979L244.938,277.396L235.214,324.044L274.479,301.579L313.745,324.044L304.021,277.396L348.408,245.979L297.325,238.557L274.479,192.267L251.634,238.557L200.551,245.979Z" style="fill:rgb(222,37,38);fill-rule:nonzero;"/>
            <path d="M261.448,250.833C266.249,261.291 267.449,261.977 279.45,266.092C291.451,270.206 325.355,274.106 328.699,274.492C326.513,272.307 288.323,244.018 280.479,238.36C272.635,232.702 270.449,230.13 270.449,230.13C270.449,230.13 263.377,217.4 260.933,213.671C258.491,209.942 253.99,204.67 248.075,204.67C242.16,204.67 238.56,208.142 236.845,214.313C235.902,214.571 230.844,217.658 231.016,220.829C232.473,220.658 241.646,218.085 244.818,228.458C247.989,238.831 248.161,255.804 244.903,264.205C241.646,272.606 236.588,278.95 236.588,286.322C236.588,287.352 237.273,289.408 238.988,289.408C239.588,292.666 244.389,315.897 244.389,315.897L312.797,315.897L323.663,273.893" style="fill:rgb(255,199,25);fill-rule:nonzero;"/>
            <path d="M261.448,250.833C266.249,261.291 267.449,261.977 279.45,266.092C291.451,270.206 325.355,274.106 328.699,274.492C326.513,272.307 288.323,244.018 280.479,238.36C272.635,232.702 270.449,230.13 270.449,230.13C270.449,230.13 263.377,217.4 260.933,213.671C258.491,209.942 253.99,204.67 248.075,204.67C242.16,204.67 238.56,208.142 236.845,214.313C235.902,214.571 230.844,217.658 231.016,220.829C232.473,220.658 241.646,218.085 244.818,228.458C247.989,238.831 248.161,255.804 244.903,264.205C241.646,272.606 236.588,278.95 236.588,286.322C236.588,287.352 237.273,289.408 238.988,289.408C239.588,292.666 244.389,315.897 244.389,315.897L312.797,315.897L323.663,273.893" style="fill:none;stroke:rgb(3,4,4);stroke-width:0.06px;"/>
            <path d="M238.988,289.408C238.988,289.408 253.561,288.552 257.505,288.552C261.448,288.552 298.154,288.597 318.634,293.331" style="fill:none;stroke:rgb(3,4,4);stroke-width:0.06px;"/>
            <path d="M244.134,289.119C244.134,289.119 242.674,287.352 243.617,283.837C244.56,280.322 254.848,271.234 254.848,258.376" style="fill:none;stroke:rgb(3,4,4);stroke-width:0.06px;"/>
            <path d="M252.961,288.552C252.961,288.552 251.761,282.808 264.877,277.922C268.563,276.808 279.107,270.892 279.45,266.092" style="fill:none;stroke:rgb(3,4,4);stroke-width:0.06px;"/>
            <path d="M263.482,278.467C263.482,278.467 295.653,278.607 321.112,283.751" style="fill:none;stroke:rgb(3,4,4);stroke-width:0.06px;"/>
            <path d="M271.546,274.628C271.546,274.628 282.6,275.007 284.401,274.492C286.201,273.979 289.387,272.641 290.655,268.873" style="fill:none;stroke:rgb(3,4,4);stroke-width:0.06px;"/>
            <path d="M278.1,274.76C278.1,274.76 284.013,271.686 285.171,267.688" style="fill:none;stroke:rgb(3,4,4);stroke-width:0.06px;"/>
            <path d="M260.247,315.897C260.247,315.897 257.719,298.367 257.204,288.552L263.806,294.853L270.789,288.745L276.793,295.152L283.735,289.262L289.737,296.01L296.611,290.163L302.081,296.524L308.937,291.566L317.087,299.312" style="fill:none;stroke:rgb(3,4,4);stroke-width:0.06px;"/>
            <path d="M315.656,304.847C291.168,301.34 258.398,301.567 258.398,301.567" style="fill:none;stroke:rgb(3,4,4);stroke-width:0.06px;"/>
            <path d="M247.015,240.977C247.015,240.977 266.934,231.458 270.449,230.13" style="fill:none;stroke:rgb(3,4,4);stroke-width:0.06px;"/>
            <path d="M257.751,295.496L264.447,301.592L270.496,295.542L276.615,301.852L283.222,296.01L289.305,302.403L296.167,296.738L301.771,303.285L308.596,298.067L315.77,304.403" style="fill:none;stroke:rgb(3,4,4);stroke-width:0.3px;"/>
            <path d="M276.75,281.266C278.218,281.266 279.407,282.455 279.407,283.923C279.407,285.39 278.218,286.58 276.75,286.58C275.283,286.58 274.093,285.39 274.093,283.923C274.093,282.455 275.283,281.266 276.75,281.266Z" style="fill:none;stroke:rgb(3,4,4);stroke-width:0.3px;"/>
            <path d="M287.969,282.018C289.437,282.018 290.626,283.207 290.626,284.675C290.626,286.143 289.437,287.332 287.969,287.332C286.501,287.332 285.311,286.143 285.311,284.675C285.311,283.207 286.501,282.018 287.969,282.018Z" style="fill:none;stroke:rgb(3,4,4);stroke-width:0.3px;"/>
            <path d="M246.21,210.842C247.347,210.842 248.268,211.763 248.268,212.899C248.268,214.036 247.347,214.957 246.21,214.957C245.074,214.957 244.153,214.036 244.153,212.899C244.153,211.763 245.074,210.842 246.21,210.842Z" style="fill:none;stroke:rgb(3,4,4);stroke-width:0.3px;"/>
        </g>
    </g>
    <g transform="matrix(4.16667,0,0,4.16667,-799.533,-487.342)">
        <path d="M413.19,120.92L413.253,124.439L413.314,128.561L413.402,133.757L413.463,136.786L418.179,136.745L421.19,136.724L428.049,136.684L432.574,136.652L434.447,137.041L436.14,138.227L436.82,138.954L437.445,139.429L438.146,139.531L439.076,139.117L439.566,138.698L440.355,137.809L440.963,137.502L441.32,137.588L441.657,137.838L441.97,137.855L442.312,137.247L443.366,136.592L445.239,136.745L449.497,137.751L450.297,138.049L450.982,138.534L451.592,139.291L452.378,140.764L452.911,141.373L453.729,141.818L454.144,142.114L454.323,142.514L454.456,142.913L454.72,143.199L454.869,143.229L455.195,143.152L455.375,143.138L455.563,143.239L455.55,143.449L455.509,143.659L455.579,143.793L456.398,143.894L457.304,143.894L458.147,144.028L458.771,144.477L460.408,145.275L467.409,145.735L468.447,146.21L469.609,147.156L472.146,149.94L472.958,150.635L474.728,151.556L475.229,151.971L475.602,152.742L475.813,154.403L476.165,155.075L476.835,155.397L481.214,156.097L489.509,155.887L492.817,156.395L497.17,158.128L503.818,160.813L508.846,162.833L509.322,163.278L509.532,163.901L509.562,164.915L509.977,166.632L511.106,167.493L511.356,167.595L511.716,167.35L512.31,167.125L512.959,167L514.268,167.093L516.849,167.672L518.169,167.748L518.849,167.568L520.112,166.765L520.807,166.47L521.331,166.409L521.033,167.655L519.847,172.258L519.13,173.67L518.468,174.529L515.453,177.465L515.511,177.752L517.887,181.977L519.638,185.096L520.722,187.623L521.299,190.303L521.361,192.384L521.524,193.33L521.969,194.195L522.322,194.506L523.273,195.027L523.556,195.411L523.602,196.112L523.336,196.808L522.547,198.025L520.899,201.247L520.617,201.568L520.247,201.809L519.979,202.106L519.995,202.597L520.426,204.081L520.617,204.438L521.361,205.012L522.932,205.728L523.515,206.494L523.672,207.404L523.515,208.248L522.813,209.88L522.664,211.558L522.781,213.47L522.607,215.091L521.539,215.802L520.84,216.13L520.379,216.855L520.112,217.776L519.995,218.626L520.068,219.484L520.559,220.717L520.635,221.49L520.471,222.067L520.143,222.363L519.815,222.574L519.593,222.926L519.668,223.34L520.189,223.954L520.143,224.323L519.919,225.198L520.01,226.194L521.479,230.715L521.627,232.174L521.596,232.501L521.211,233.447L520.899,234.03L520.646,234.358L520.572,234.725L520.75,235.38L521.392,236.311L523.366,237.917L524.123,238.766L524.445,239.594L524.255,240.084L523.038,241.007L522.159,242.295L522.042,242.264L522.103,242.694L522.633,243.317L522.781,243.779L522.5,244.669L521.744,245.236L520.823,245.666L520.01,246.172L519.253,246.555L518.468,246.796L517.739,247.092L517.219,247.696L517.116,248.442L517.249,249.343L517.794,250.918L519.06,253.423L519.386,254.631L519.294,256.098L518.998,257.271L518.552,258.222L517.827,258.816L516.716,258.908L514.994,258.773L513.715,258.962L509.681,260.86L509.619,261.248L509.906,263.637L510.171,264.292L510.703,264.634L510.258,264.974L509.71,265.269L509.307,265.643L509.25,266.189L509.562,267.171L509.635,267.662L509.562,268.226L509.665,268.817L509.992,269.161L510.468,269.319L511.046,269.35L513.656,268.966L514.385,269.043L514.846,269.232L515.081,269.427L515.211,269.74L515.305,270.26L515.511,270.792L515.839,271.128L516.24,271.446L516.594,271.888L516.861,273.402L515.648,278.884L515.604,279.979L515.453,280.764L515.11,281.507L514.503,282.484L512.927,284.27L512.825,284.697L512.917,286.003L512.646,287.804L512.706,288.725L513.151,289.24L513.956,289.284L514.729,289.183L515.305,289.388L515.604,290.35L515.616,291.168L515.305,294.376L515.32,294.777L515.422,295.22L515.482,295.801L515.305,296.216L515.064,296.601L514.932,297.06L515.064,298.042L515.539,298.532L516.313,298.698L517.279,298.752L518.231,298.486L519.474,297.193L520.261,296.927L521.004,297.356L521.078,298.247L520.722,299.971L521.078,300.756L521.775,301.47L522.68,302.032L523.602,302.435L524.03,302.92L523.896,303.77L523.615,304.823L523.539,306.649L522.742,309.262L522.577,312.556L522.828,313.593L522.961,313.938L520.705,313.864L520.128,314.366L519.888,315.718L519.565,316.356L518.896,316.566L518.215,316.698L517.827,317.098L517.513,319.268L517.31,319.946L516.729,321.001L516.642,321.435L516.701,321.743L516.982,322.355L516.999,322.694L516.701,324.058L516.461,324.697L516.149,325.276L514.281,327.593L511.552,330.958L510.227,333.525L508.846,336.2L507.793,337.371L505.981,337.684L504.008,337.433L502.181,337.668L500.861,339.392L500.417,341.278L500.33,343.128L500.94,347.927L501.518,352.571L501.253,354.277L500.27,356.252L498.147,358.965L494.899,363.138L495.135,363.525L495.742,363.909L496.114,364.426L496.304,364.456L496.483,364.456L496.617,364.549L496.603,364.846L496.454,365.126L496.29,365.377L496.234,365.557L499.307,370.777L499.409,371.197L497.794,370.145L496.29,371.832L494.259,374.093L492.062,376.527L489.851,378.96L487.643,381.406L485.442,383.855L483.231,386.289L481.035,388.739L478.824,391.184L476.626,393.639L474.416,396.083L472.217,398.535L470.007,400.985L467.813,403.448L465.615,405.894L463.405,408.344L461.191,410.81L458.996,413.259L456.813,415.691L454.065,417.62L450.71,420L449.733,418.556L449.318,418.213L448.9,418.2L448.221,418.486L447.878,418.526L447.551,418.394L446.886,417.964L446.588,417.872L446.292,417.65L445.444,416.612L444.983,416.327L444.359,416.434L442.968,417.103L442.252,417.269L441.525,417.114L440.088,416.479L435.517,415.396L432.979,415.13L431.762,414.782L430.382,415.351L425.706,415.724L424.874,415.974L423.748,416.789L423.124,416.981L422.826,416.879L422.188,416.434L421.799,416.327L420.588,416.347L417.868,416.031L417.069,416.05L416.267,416.271L414.68,416.997L413.877,417.269L412.169,417.564L410.608,417.605L409.174,417.269L407.853,416.327L407.269,415.811L406.635,415.427L405.849,415.188L404.809,415.099L402.952,415.365L402.212,415.304L401.203,414.782L399.997,413.914L399.394,413.657L398.146,413.51L398.038,413.36L397.981,413.155L397.179,412.291L396.748,412.082L395.86,411.876L395.445,411.714L394.284,410.998L393.676,410.823L392.161,410.69L391.123,410.139L389.702,409.831L387.253,408.21L386.403,407.959L383.554,408.107L383.063,408.297L382.29,407.749L381.446,407.888L379.888,408.594L378.466,408.449L377.663,408.645L377.305,409.381L376.85,409.831L375.806,409.725L373.697,409.218L372.825,409.413L371.295,410.272L370.391,410.752L369.766,410.732L369.5,410.66L369.218,410.481L365.996,407.693L365.73,407.273L365.403,406.385L365.183,405.986L364.764,405.463L364.56,405.33L360.58,405.454L359.037,405.168L357.465,404.349L356.202,402.997L355.398,401.28L355.072,399.367L355.251,397.466L355.712,396.503L356.408,395.419L356.913,394.366L356.81,393.485L356.126,392.955L354.438,392.424L353.691,391.916L352.474,391.618L349.906,391.47L348.648,391.129L342.475,388.249L340.558,387.641L338.926,386.346L338.333,386.173L337.085,386.04L335.75,385.696L335.274,385.773L334.844,385.979L333.362,386.368L332.69,386.632L331.98,386.765L331.09,386.557L327.658,384.776L325.982,384.198L324.427,383.902L319.425,383.826L316.279,383.206L313.845,383.053L313.145,382.833L312.566,382.448L312.05,381.881L311.81,381.478L311.441,380.561L311.217,380.205L310.936,380.025L310.695,380.071L310.49,380.025L310.327,379.579L310.536,379.003L310.373,378.752L310.075,378.646L309.928,378.572L310.014,378.143L310.342,377.612L310.475,377.254L310.357,376.776L309.109,374.226L308.424,373.479L308.158,373.07L308.086,372.723L308.117,372.026L308.01,371.668L307.626,371.033L306.112,369.209L305.043,367.516L303.78,365.972L300.871,363.834L300.236,363.153L298.778,361.162L298.435,360.313L298.452,359.549L298.957,357.175L299.019,356.223L298.691,353.711L298.691,353.267L298.793,352.275L298.778,351.753L298.839,351.159L299.075,350.762L299.386,350.37L299.612,349.87L300.246,346.251L300.144,344.465L299.105,340.92L299.433,339.313L299.949,337.739L300.072,335.979L299.76,335.193L299.167,334.609L298.41,334.302L296.717,334.282L295.26,333.603L292.871,334.03L289.501,333.603L284.74,333.585L283.287,333.781L281.696,334.6L282.352,328.154L281.594,322.928L279.456,317.426L278.893,316.652L278.137,316.178L277.257,315.926L276.382,315.778L275.865,315.763L275.446,315.787L275.017,315.778L274.511,315.585L274.055,315.216L273.324,314.174L272.94,313.743L271.529,312.956L270.179,312.812L268.782,312.837L267.269,312.556L262.507,310.137L260.932,309.842L259.939,309.824L259.105,309.662L258.394,309.294L257.739,308.624L257.163,307.82L256.702,307.329L256.092,306.992L254.197,306.439L253.408,306.103L252.846,305.488L252.55,304.495L252.191,303.667L251.465,302.91L249.772,301.812L248.969,301.483L247.308,301.111L246.535,300.803L245.737,300.058L244.577,298.247L243.63,297.744L242.352,297.521L242.008,297.377L241.508,297.028L241.518,296.941L241.789,296.793L242.101,296.246L242.397,295.326L242.29,294.968L241.876,294.39L241.549,294.053L241.134,293.735L240.674,293.53L238.433,293.484L236.546,292.979L234.915,291.956L233.846,290.35L229.826,278.954L228.86,277.011L227.581,275.334L226.543,273.585L226.221,272.752L226.057,271.682L226.19,270.777L226.885,269.13L227.019,268.226L225.894,264.706L220.61,259.96L219.112,256.645L218.856,253.414L218.365,251.869L217.311,250.907L215.695,250.089L214.478,249.036L212.488,246.172L211.91,245.578L210.484,244.613L207.712,241.671L207.175,240.781L206.955,240.188L206.566,238.336L206.229,237.456L204.873,235.247L203.522,231.846L202.633,230.23L201.359,229.203L199.933,228.358L198.792,227.126L197.054,224.16L195.836,221.131L195.555,220.078L195.555,218.83L197.263,215.077L197.544,215.373L198.332,215.741L199.622,216.738L200.438,217.142L200.853,217.199L202.158,217.142L203.554,217.658L203.999,217.746L207.175,217.746L207.384,217.792L207.783,218.012L208.054,218.072L208.29,217.971L208.663,217.572L208.898,217.464L211.732,216.917L213.956,215.951L214.984,215.834L215.517,216.191L216.038,216.652L217.608,217.066L218.529,217.526L219.377,218.063L219.746,218.519L220.15,219.203L222.063,220.017L222.64,220.774L221.96,221.015L221.915,221.633L222.211,222.363L222.64,222.87L225.208,224.067L226.989,224.143L227.479,224.067L229.796,222.87L230.077,223.167L230.328,222.63L230.998,222.482L231.785,222.467L232.378,222.287L232.425,222.124L232.332,221.561L232.378,221.397L232.628,221.296L233.355,221.116L234.071,220.717L235.048,220.523L235.421,220.313L236.92,219.157L237.289,218.962L237.676,219.127L237.973,219.484L238.208,219.898L238.433,220.171L238.818,220.313L240.75,220.539L241.15,220.732L241.492,220.968L241.758,221.232L242.055,221.311L243.63,221.07L245.558,221.443L248.791,223.208L250.544,223.77L251.66,223.966L252.354,224.252L252.903,224.691L253.558,225.439L254.134,225.929L254.82,226.283L257.209,227.054L257.802,227.156L258.308,227.008L259.51,225.899L260.057,225.572L260.743,225.393L261.75,225.274L265.713,223.442L266.721,223.77L268.266,222.748L268.696,222.574L270.685,222.482L271.309,222.287L272.449,221.664L273.698,220.467L275.267,218.933L276.679,217.199L276.576,216.161L276.515,215.077L276.592,214.631L277.021,213.991L288.151,202.388L292.458,198.464L294.681,196.184L295.827,193.984L296.687,190.497L297.372,188.983L303.1,180.359L304.762,178.54L306.925,177.23L317.241,172.78L321.384,169.334L324.233,167.493L339.503,161.483L341.494,161.109L342.666,161.109L343.258,161.022L343.616,160.695L344.444,159.892L344.788,159.154L346.464,157.893L347.027,157.222L347.313,155.638L347.473,155.278L348.501,153.617L348.484,152.618L347.784,150.809L347.636,150.052L347.784,149.121L348.782,146.788L348.07,145.541L348.29,143.808L348.838,141.998L349.078,140.529L348.96,140.305L348.766,140.069L348.572,139.752L348.501,139.352L348.618,138.881L349.195,137.987L349.328,137.69L350.25,136.534L351.645,135.154L352.449,134.78L353.354,134.617L355.251,134.586L356.274,134.397L356.81,133.88L357.7,132.183L358.115,131.712L358.785,131.118L359.614,130.613L360.463,130.402L360.846,130.167L362.33,128.593L371.607,124.317L372.23,124.184L375.867,123.856L376.624,123.386L378.184,122.067L379.176,121.78L380.081,121.902L380.898,122.123L381.76,122.255L382.783,122.108L385.187,121.31L386.997,121.012L388.72,120.226L389.702,120L391.567,120.179L395.16,121.155L396.986,121.366L398.647,121.1L400.308,120.639L402.001,120.389L403.68,120.757L404.749,121.499L405.239,121.662L405.918,121.514L406.246,121.31L406.887,120.757L407.245,120.609L408.313,120.757L410.328,121.637L411.53,121.605L413.19,120.92Z" style="fill:none;stroke:rgb(135,135,136);stroke-width:0.25px;stroke-linecap:round;stroke-linejoin:round;"/>
    </g>
</svg>
