<?xml version="1.0" encoding="UTF-8" standalone="no"?>
<!DOCTYPE svg PUBLIC "-//W3C//DTD SVG 1.1//EN" "http://www.w3.org/Graphics/SVG/1.1/DTD/svg11.dtd">
<svg width="100%" height="100%" viewBox="0 0 1942 1295" version="1.1" xmlns="http://www.w3.org/2000/svg" xmlns:xlink="http://www.w3.org/1999/xlink" xml:space="preserve" xmlns:serif="http://www.serif.com/" style="fill-rule:evenodd;clip-rule:evenodd;stroke-linejoin:round;stroke-miterlimit:2;">
    <g transform="matrix(4.16667,0,0,4.16667,-529.167,-477.779)">
        <clipPath id="_clip1">
            <path d="M460.371,404.793L460.22,404.678L460.105,404.603L459.758,404.407L459.797,404.18L459.948,403.834L459.948,403.601L459.873,403.525L459.488,403.297L459.411,403.178L459.374,402.641L459.336,402.409L459.26,402.18L459.065,401.91L458.566,401.334L458.258,400.681L458.067,400.143L458.029,399.914L458.029,398.95L457.915,398.489L457.568,397.876L457.454,397.529L457.492,396.955L457.915,396.068L458.029,395.568L457.953,395.031L457.53,394.109L457.454,393.572L457.53,393.264L457.721,392.88L457.953,392.532L457.645,392.457L457.299,392.457L456.951,392.494L456.685,392.494L456.608,392.264L456.608,391.92L456.49,391.035L456.57,390.343L457.299,389.648L457.492,389.036L457.416,388.343L457.146,387.768L456.837,387.228L456.453,386.345L455.916,385.536L455.725,385.345L455.454,385.23L455.185,385.23L454.917,385.308L454.57,385.422L454.456,385.308L454.376,385.193L454.301,385.036L453.953,383.73L453.725,383.231L453.302,382.694L452.804,382.271L452.381,382.115L451.265,382.23L451.15,382.192L450.88,382.001L450.728,381.963L450.609,382.001L450.306,382.155L450.187,382.192L449.883,382.155L449.688,382.077L449.498,381.963L447.536,379.888L445.076,377.313L442.501,374.582L439.774,371.699L437.58,369.395L435.585,367.28L433.471,365.053L431.201,361.747L429.666,358.094L430.127,358.094L430.973,358.326L431.396,358.364L431.894,358.247L432.93,357.786L433.509,357.635L434.008,357.401L433.969,357.134L433.661,356.94L433.276,356.864L432.934,356.864L432.777,356.711L432.701,356.326L432.549,355.943L432.164,355.789L431.779,355.828L431.471,355.597L431.281,354.903L431.242,353.444L430.973,351.868L430.739,351.178L430.316,350.446L429.433,349.331L429.281,348.984L429.087,348.332L428.896,348.063L428.587,347.871L427.434,347.486L423.286,344.643L422.36,343.72L421.671,342.605L421.324,341.374L421.13,339.415L420.939,338.993L420.979,338.799L421.093,338.529L421.21,337.877L421.21,337.607L420.825,335.147L420.67,334.841L420.517,334.572L420.402,334.302L420.479,333.611L420.364,333.38L420.208,333.15L420.094,332.843L420.094,332.343L420.364,331.382L420.247,330.382L420.247,329.076L420.133,328.501L419.941,327.885L419.671,327.348L419.249,326.924L418.712,326.653L417.596,326.27L417.059,325.926L416.636,325.461L416.518,325.194L416.75,325.118L417.059,324.848L417.287,324.426L417.443,323.965L417.481,323.618L417.596,323.503L417.866,323.081L418.095,322.657L418.095,322.464L418.441,322.349L418.556,322.04L418.518,321.313L418.593,320.888L418.979,320.16L419.055,319.89L419.096,319.082L419.055,318.773L418.864,318.351L418.479,317.736L418.364,317.391L418.327,316.931L418.403,316.507L418.864,315.315L419.21,313.895L419.401,313.51L419.21,312.973L419.016,310.165L418.632,309.705L418.518,309.167L418.17,308.665L417.866,308.665L417.173,309.088L416.788,309.126L415.98,309.049L415.521,309.049L415.098,308.782L414.906,308.36L414.789,307.898L414.598,307.476L414.214,307.053L413.829,306.745L413.521,306.398L413.292,306.167L413.06,305.861L412.983,305.668L413.06,305.477L413.254,305.282L413.368,305.245L413.638,305.439L413.791,305.439L413.905,305.321L413.98,305.093L414.061,304.978L414.175,304.707L414.138,304.438L414.1,304.361L414.442,304.053L415.06,303.478L415.443,303.364L416.213,302.632L416.598,302.132L416.826,301.71L417.904,301.71L421.633,299.943L422.094,299.635L423.054,298.365L423.323,297.905L423.362,297.635L423.362,297.364L423.244,296.751L423.282,296.442L423.938,295.56L427.205,288.183L427.552,287.796L427.975,287.488L429.547,286.72L429.855,286.448L430.05,286.067L430.473,284.876L431.01,283.798L431.894,281.532L432.316,279.917L432.507,279.418L432.777,278.995L433.01,278.839L433.622,278.572L433.854,278.302L433.931,278.031L433.817,276.497L433.854,276.265L433.969,275.959L434.316,275.343L434.814,274.111L435.774,273.268L437.774,272.15L439.004,271.19L439.118,271.039L439.352,270.616L439.504,270.459L439.735,270.383L440.235,270.345L440.35,270.307L440.387,269.96L439.889,269.499L440.003,269.077L441.427,267.195L441.618,266.811L442.695,265.424L443.385,264.004L443.73,262.427L443.73,259.737L443.156,259.623L442.35,259.429L441.773,259.392L440.544,258.507L439.655,256.355L438.044,250.742L433.817,241.749L433.433,241.25L431.933,239.75L430.815,237.944L430.393,237.407L429.855,237.022L429.204,236.79L428.241,236.638L427.898,236.523L427.818,236.33L427.818,236.101L427.742,235.792L427.513,235.137L427.357,234.908L427.167,234.753L426.973,234.677L426.82,234.563L426.664,234.254L426.436,233.987L425.396,233.217L425.054,233.023L424.82,232.986L424.592,232.986L424.36,233.023L424.09,233.1L423.667,232.986L412.062,223.646L411.563,222.8L411.33,221.685L403.872,213.114L401.568,211.309L401.53,210.925L403.142,208.617L405.259,206.774L406.063,205.658L407.332,203.159L407.411,202.892L407.411,202.622L407.487,202.428L407.716,202.352L414.48,201.891L422.094,203.776L423.13,203.814L426.397,202.813L427.59,202.851L429.124,203.235L429.933,203.273L430.664,203.121L430.934,202.93L431.396,202.507L431.699,202.313L431.933,202.238L433.124,202.124L434.7,202.199L439.081,203.621L440.54,203.582L446.382,202.161L446.843,202.044L445.693,201.008L444.771,200.699L443.038,199.663L441.85,198.623L441.85,198.509L441.465,198.277L440.501,196.895L436.891,193.549L436.62,193.089L436.468,192.552L436.43,191.897L436.312,191.36L436.083,191.051L435.736,190.785L435.352,190.362L435.005,189.36L434.776,188.9L434.239,188.671L434.122,188.553L433.931,188.438L433.661,188.4L433.353,188.363L433.086,188.286L432.854,188.169L432.701,188.016L432.507,187.517L432.507,186.862L432.663,186.21L432.93,185.749L432.972,185.326L432.777,184.672L430.778,180.829L430.701,179.831L431.01,178.714L431.087,178.061L430.934,177.599L430.664,177.215L429.97,175.524L429.586,170.568L429.78,168.915L429.895,168.492L430.511,167.609L430.701,167.186L430.664,166.916L430.55,166.763L430.393,166.646L430.316,166.455L430.316,166.146L430.432,165.723L430.587,164.341L430.739,163.842L430.973,163.377L432.164,162.071L432.507,161.343L432.202,160.497L431.471,159.572L431.201,159.112L430.778,157.919L430.701,157.382L430.739,156.883L430.934,156.308L431.01,156.271L431.396,156.271L431.51,156.152L431.471,155.962L431.201,155.691L431.162,155.577L431.318,155.307L431.741,154.922L431.894,154.655L431.238,153.117L431.048,152.846L430.625,152.809L430.316,152.58L430.127,152.157L430.088,151.502L430.202,151.311L430.473,151.04L430.664,150.813L430.55,150.542L430.436,150.39L430.316,150.119L430.278,149.849L430.393,149.735L431.124,149.62L431.01,149.312L430.55,148.928L430.278,148.542L430.316,148.237L430.393,148.043L430.393,147.891L430.202,147.659L430.05,147.392L430.05,147.083L430.127,146.814L430.241,146.661L429.741,146.238L429.281,146.044L428.82,146.083L428.355,146.428L428.05,146.467L427.666,146.199L427.087,145.506L426.436,145.045L426.283,144.852L426.203,144.467L426.321,144.353L426.512,144.314L426.626,144.124L426.588,143.854L426.474,143.701L426.359,143.583L426.283,143.393L426.283,143.084L426.436,142.624L426.474,142.315L426.512,140.472L426.55,140.239L426.127,138.243L425.78,137.588L425.78,137.474L425.819,137.166L425.78,137.051L425.666,136.975L425.477,136.937L425.357,136.937L425.4,137.051L425.206,136.857L425.092,136.857L425.054,136.819L425.054,136.514L425.092,136.32L425.319,135.936L425.4,135.782L424.555,132.516L424.246,131.979L423.362,132.169L422.901,132.13L422.707,131.708L422.631,131.441L422.44,131.17L422.208,130.98L421.979,130.9L421.824,130.98L421.438,131.632L421.134,131.17L421.516,130.287L421.324,129.864L420.901,129.711L420.133,129.941L419.71,129.67L419.557,129.518L419.096,129.209L419.016,129.056L419.016,128.904L418.979,128.748L418.787,128.672L418.593,128.711L418.095,129.095L417.866,129.133L417.748,128.98L417.71,128.748L417.71,128.478L417.481,128.558L417.325,128.558L417.135,128.478L417.096,128.25L417.096,127.248L416.636,126.749L415.829,126.136L415.558,125.751L415.558,125.404L415.98,124.174L416.019,123.637L415.943,123.176L415.715,122.792L415.329,122.407L414.1,120.522L413.638,120.216L404.414,120.293L407.373,134.477L407.411,136.552L407.602,137.128L407.602,137.626L407.449,138.434L407.449,138.742L407.678,139.165L408.024,139.394L408.447,139.473L413.829,139.626L415.481,140.049L416.213,140.433L416.289,140.704L416.138,141.085L416.175,141.317L416.366,141.508L417.135,142.087L417.404,142.202L417.404,142.395L417.287,142.433L417.021,142.586L417.519,142.97L418.056,143.24L418.479,143.583L418.636,144.124L418.787,144.238L419.135,144.124L419.481,143.93L419.71,143.854L420.019,144.006L420.133,144.277L420.17,144.546L419.671,145.045L419.596,145.198L419.481,145.354L419.324,145.66L418.864,147.544L418.94,147.811L418.479,148.12L418.518,148.619L419.016,149.773L419.055,150.081L419.055,150.272L418.94,151.155L418.632,152L418.095,154.693L417.904,155.154L416.94,156.422L416.826,156.655L416.864,156.883L417.096,157.192L417.211,157.23L417.633,157.23L417.827,157.345L417.941,157.539L418.019,157.729L418.17,157.923L418.593,158.346L418.864,158.807L419.016,159.344L419.016,159.999L418.94,160.536L418.75,161.188L418.479,161.804L418.17,162.303L417.748,162.535L416.403,163.034L415.866,163.381L414.906,164.227L414.366,164.531L412.831,165.031L412.328,165.301L409.985,167.452L409.791,167.529L409.103,167.609L408.793,167.76L408.063,168.492L407.602,168.835L407.064,169.105L406.486,169.261L405.949,169.182L404.105,168.416L403.065,168.107L402.258,168.107L401.26,168.915L400.262,169.913L399.417,171.028L398.8,172.142L398.377,173.181L398.068,173.604L397.07,174.18L396.647,174.525L396.378,174.986L396.264,175.524L396.415,176.525L396.11,177.255L391.46,183.902L390.729,185.44L389.769,188.747L388.886,193.745L388.307,195.397L388.307,195.743L388.5,196.28L388.539,196.588L388.5,196.932L388.077,197.819L387.77,198.2L387.232,198.623L386.615,198.97L386.116,199.164L384.078,199.393L383.195,199.74L382.849,200.547L382.849,201.083L383.156,201.967L383.271,202.467L383.156,203.083L382.54,204.043L382.35,204.583L382.387,205.197L382.658,205.62L383.427,206.427L383.693,207.003L383.618,207.426L383.348,207.848L383.119,208.465L382.772,210.232L382.658,211.923L381.927,213.808L380.236,214.498L378.16,214.806L376.355,215.614L376.008,215.88L375.238,216.844L374.969,217.152L374.74,217.305L373.201,218.036L373.011,218.151L372.817,218.611L372.934,218.687L373.663,218.801L373.895,219.342L374.123,220.149L374.086,221.187L373.971,221.685L373.818,222.146L372.625,224.297L372.088,225.569L372.047,226.644L372.203,227.527L371.625,232.486L371.32,233.603L370.74,234.371L370.395,234.524L370.089,234.524L369.744,234.448L369.357,234.448L369.05,234.6L368.859,234.908L368.627,235.64L368.242,236.485L367.781,236.984L365.093,238.405L364.67,238.481L364.285,238.405L363.439,238.021L363.094,237.944L362.632,237.982L362.286,238.138L361.978,238.366L361.555,238.561L361.17,238.599L360.789,238.561L360.057,238.329L360.286,238.713L360.903,240.214L360.979,240.599L360.979,241.326L360.75,241.559L359.98,242.096L359.786,242.366L359.635,242.672L359.44,242.979L359.135,243.211L358.595,243.288L357.597,243.135L357.022,243.364L356.405,244.209L356.214,245.364L356.291,246.555L356.714,248.669L356.675,249.169L356.481,249.743L355.407,251.244L355.253,251.896L355.253,252.936L355.407,253.933L355.597,254.588L355.676,255.011L355.521,255.395L354.522,256.432L351.948,260.046L351.023,261.737L350.832,262.274L350.756,262.85L350.794,263.39L351.179,264.925L351.064,265.466L350.756,265.771L350.333,266.041L349.64,267.08L346.452,270.154L344.836,272.576L344.297,273.075L343.835,273.422L343.607,273.651L343.76,273.807L344.377,273.921L344.761,274.229L346.068,276.111L347.065,277.228L347.373,277.88L347.142,278.457L346.875,278.572L346.643,278.534L346.414,278.421L346.105,278.378L345.76,278.496L345.451,278.687L344.338,279.688L343.954,279.917L343.875,280.148L343.835,280.415L343.683,280.61L343.493,280.687L343.069,280.687L342.761,280.762L342.491,280.724L342.377,280.762L342.262,280.876L342.183,281.224L342.069,281.378L340.571,282.339L338.957,283.798L338.496,284.452L338.339,285.146L338.534,285.526L339.109,286.183L339.224,286.643L339.147,287.374L338.995,288.063L338.225,289.835L337.612,290.681L336.881,291.064L335.841,291.178L335.151,291.716L334.767,292.601L334.612,293.678L334.458,294.29L333.96,294.751L333.266,295.099L332.614,295.255L332.345,295.255L331.77,295.099L331.499,295.062L331.423,295.099L331.153,295.369L331.001,295.444L330.806,295.407L330.539,295.211L330.383,295.174L328.002,295.407L327.31,295.331L326.887,294.946L326.389,293.716L325.965,291.678L325.889,290.681L325.927,289.641L325.851,288.411L325.349,287.374L324.464,286.681L322.043,286.22L321.197,285.375L320.66,284.222L320.431,283.028L320.008,281.993L319.162,281.417L317.011,280.61L315.164,279.646L314.471,279.418L314.01,279.032L313.857,277.727L313.396,277.109L313.012,277.841L312.665,278.801L312.436,279.802L312.281,281.799L312.166,281.878L312.014,281.915L311.858,282.03L311.553,282.453L311.32,282.799L311.206,283.223L311.206,283.798L304.48,283.913L303.749,283.722L303.211,283.299L302.941,282.799L302.556,280.876L302.366,280.454L301.982,280.378L301.365,280.724L294.947,286.144L294.333,286.411L293.832,286.259L293.333,286.025L292.718,285.988L292.216,286.529L290.22,292.87L289.912,293.138L288.643,293.138L287.875,293.293L287.49,293.599L286.876,294.751L286.454,295.174L285.913,295.444L284.724,295.868L283.955,296.328L283.186,297.868L282.455,298.29L282.032,298.327L281.686,298.29L281.38,298.327L281.035,298.519L280.687,298.903L279.956,300.48L279.304,301.401L275.729,304.285L273.306,306.782L272.769,307.591L272.422,307.938L272,308.165L271.847,308.36L271.81,309.088L271.732,309.435L271.272,309.473L270.693,309.282L270.118,309.206L269.657,309.628L269.311,310.052L268.389,310.664L268.118,311.086L268.157,311.624L268.426,312.047L268.655,312.513L268.541,313.163L268.081,313.738L267.62,314.085L267.425,314.47L267.772,315.125L268.312,315.624L268.889,316.047L269.387,316.545L269.657,317.239L269.543,317.891L269.158,318.389L268.655,318.853L268.274,319.353L268.118,319.928L268.157,320.426L268.31,321.271L268.31,321.813L268.157,322.389L267.581,323.503L267.425,324.155L267.464,324.502L267.695,325.118L267.734,325.385L267.041,328.923L266.85,329.266L266.581,329.384L266.274,329.423L265.966,329.536L265.697,329.807L265.197,330.576L265.045,330.92L264.66,332.074L264.428,332.572L264.043,333.111L263.007,334.724L262.852,335.186L262.161,335.727L261.928,336.109L262.005,336.647L262.084,336.995L262.161,337.378L261.7,337.801L261.586,337.84L261.278,338.068L261.239,338.567L261.316,339.607L261.122,339.413L260.969,339.722L261.008,340.03L261.122,340.338L261.122,340.643L260.969,340.836L260.2,341.336L259.739,341.874L259.549,342.22L259.471,342.565L259.586,342.989L259.815,343.22L260.394,343.22L260.739,342.951L260.161,343.874L260.01,344.22L259.586,344.144L259.471,344.604L259.625,345.218L260.01,345.603L260.318,345.678L260.584,345.678L260.816,345.564L260.969,344.989L261.164,344.832L261.431,344.832L261.739,344.989L261.431,345.218L261.122,345.564L261.008,345.873L261.278,346.025L264.545,345.795L265.083,345.488L264.93,344.795L264.66,344.565L264.352,344.411L264.123,344.182L263.468,341.76L263.083,340.99L262.893,340.259L263.315,339.607L263.468,340.643L264.622,342.297L264.889,343.259L265.083,343.682L265.506,343.911L265.929,344.065L266.119,344.296L266.236,344.372L266.736,344.681L266.926,344.757L267.044,344.681L267.387,344.065L267.158,343.949L267.044,343.76L267.002,343.488L267.002,343.143L268.274,344.144L268.351,344.565L268.58,344.757L268.811,344.643L268.964,344.22L268.773,343.644L267.965,342.413L268.081,342.068L268.274,342.144L268.503,342.376L268.694,342.681L268.889,343.103L269.463,343.297L269.657,343.488L269.81,343.99L269.733,344.334L269.619,344.643L269.543,344.95L269.695,345.335L270.042,345.141L270.618,344.489L270.347,345.103L269.657,346.257L269.501,346.909L270.156,350.637L270.618,351.639L271.233,352.521L272.038,353.253L271.961,353.981L271.462,355.557L271.501,356.288L271.81,356.48L274.075,357.557L275.461,358.44L275.846,358.516L276.113,358.44L276.574,358.402L277.035,358.402L277.343,358.44L277.728,358.711L277.804,359.016L277.766,359.361L277.766,359.824L278.036,359.785L278.805,359.9L279.689,359.093L279.841,358.632L280.112,358.209L280.764,358.058L280.764,358.209L280.303,358.825L280.188,359.785L280.456,360.67L281.224,361.053L281.647,361.093L282.531,361.324L283.033,361.361L283.955,361.286L284.377,361.168L284.724,361.016L284.493,360.824L284.069,360.594L283.993,360.398L284.031,360.018L284.031,359.516L284.107,359.286L284.069,358.978L283.879,358.786L283.186,358.364L283.224,358.094L283.342,357.903L283.571,357.786L283.879,357.749L283.879,357.979L283.955,358.094L284.069,358.172L284.225,358.288L284.568,358.825L284.915,359.093L285.109,359.172L285.3,359.21L285.684,359.361L286.068,358.863L285.837,358.44L285.414,358.094L285.109,357.786L284.838,357.172L284.838,357.058L284.568,356.903L284.339,356.864L284.146,356.789L283.955,356.557L284.686,355.751L284.991,355.635L285.376,356.02L285.223,356.635L285.494,357.248L285.954,357.71L286.454,357.979L286.8,357.635L286.8,358.209L287.299,358.288L288.03,358.094L288.605,357.786L289.066,357.286L289.912,355.979L290.373,355.635L290.373,356.172L290.566,356.172L290.757,355.865L290.989,355.635L291.489,355.288L291.911,355.097L291.949,355.249L291.835,355.52L291.718,355.672L290.951,356.058L289.797,357.786L289.375,358.172L288.876,358.44L288.453,359.055L288.335,359.709L288.758,360.132L289.565,360.207L292.178,359.785L292.178,359.9L292.14,359.938L292.064,359.938L291.988,359.977L292.102,360.132L292.14,360.207L292.14,360.323L291.603,360.323L290.872,360.438L290.182,360.67L289.835,361.016L289.989,361.516L290.566,361.861L291.797,362.285L291.451,362.285L291.641,362.513L291.755,362.784L291.755,363.053L291.603,363.319L291.374,362.936L291.028,362.668L290.144,362.246L289.874,362.898L289.336,362.784L288.335,361.898L287.875,362.321L287.569,362.936L287.49,363.591L287.721,364.128L287.913,364.359L287.989,364.513L288.106,364.627L288.373,364.782L289.181,365.012L289.451,365.167L288.453,365.167L288.03,365.128L287.683,364.974L287.569,364.744L287.337,364.165L287.223,364.052L287.067,363.974L286.415,363.361L286.568,363.974L286.914,364.63L288.144,366.359L288.914,368.202L288.491,368.396L288.373,368.74L288.491,369.086L288.796,369.242L290.605,369.086L291.295,368.857L291.988,368.395L292.718,368.126L293.564,368.355L292.872,368.355L292.296,368.589L290.144,370.24L289.489,370.549L288.914,370.663L291.451,372.354L292.563,373.315L294.524,375.736L295.218,377.005L295.369,377.234L295.561,377.428L295.792,377.58L296.063,377.659L296.485,377.619L296.485,377.812L296.177,377.966L296.024,378.003L295.754,378.003L295.754,378.159L296.216,378.772L297.214,382.578L297.176,383.384L296.87,384.115L296.292,384.808L295.792,385.536L295.408,386.613L295.141,387.806L295.062,391.111L294.985,391.534L294.524,392.608L293.718,396.068L293.64,400.911L293.447,401.373L293.447,401.526L293.103,401.834L293.37,402.257L293.409,402.755L293.333,403.297L293.37,403.834L293.718,404.256L294.333,404.793L294.985,405.253L295.447,405.448L295.907,405.562L297.56,406.369L298.097,406.446L332.882,406.446L333.037,406.178L333.152,405.87L333.19,405.562L333.19,405.253L333.229,404.831L333.38,404.526L333.575,404.256L333.727,403.871L333.689,403.525L333.575,403.178L333.613,402.949L340.571,402.716L341.26,402.488L341.607,402.411L341.955,402.451L342.224,402.603L342.761,403.025L344.106,403.448L344.528,403.486L345.413,403.372L347.68,403.448L349.678,403.297L351.64,403.411L353.178,403.297L353.639,403.297L354.714,403.448L355.83,403.486L356.367,403.372L357.368,403.025L357.868,402.949L358.133,402.874L358.674,402.603L358.903,402.565L359.249,402.68L360.095,403.183L360.556,403.297L361.98,402.949L362.979,403.025L364.438,403.486L364.898,403.643L365.516,403.486L365.938,403.795L366.551,404.027L370.089,404.564L370.627,404.45L370.973,404.218L371.281,403.989L371.625,403.834L372.088,403.948L372.703,404.218L373.201,404.332L373.434,404.027L373.818,404.18L374.162,404.218L374.471,404.103L374.74,403.871L375.51,404.141L375.97,404.218L376.236,404.141L376.584,403.985L377.007,404.065L377.738,404.371L378.854,404.218L379.082,404.103L379.619,403.604L379.928,403.372L380.16,403.297L380.967,403.334L381.694,403.486L382.078,403.757L382.235,403.834L382.464,403.834L382.849,403.681L383.043,403.643L383.348,403.757L383.77,404.065L384.155,404.407L384.387,404.716L384.501,405.102L384.387,405.87L384.387,406.521L388.886,406.561L392.918,406.602L398.225,406.641L402.875,406.678L407.026,406.716L409.791,406.755L410.024,406.716L411.178,406.255L412.831,406.483L413.254,406.716L413.752,407.178L414.138,407.253L414.289,407.215L414.826,406.906L416.902,406.483L417.135,406.407L417.211,406.178L417.173,405.946L417.173,405.715L417.401,405.486L417.558,405.334L418.247,405.523L419.093,406.483L419.71,406.755L419.478,407.178L419.71,407.292L420.402,407.253L420.745,407.486L421.248,408.023L421.63,408.174L421.438,407.562L421.63,407.447L422.36,407.832L421.976,408.099L421.824,408.174L422.094,408.253L422.36,408.213L422.593,408.138L422.707,408.138L422.745,408.331L422.745,408.906L422.821,409.02L424.437,408.83L424.82,408.753L425.015,408.521L425.054,408.213L425.054,407.907L425.243,407.752L425.629,408.138L425.975,408.636L426.051,408.868L426.55,409.215L426.283,409.943L426.165,410.597L427.205,410.674L427.78,410.597L428.013,410.482L428.241,409.865L428.473,409.904L429.704,410.905L430.127,411.02L430.625,410.868L430.934,411.328L431.356,411.173L431.779,410.749L432.047,410.327L432.202,410.327L432.587,410.482L432.93,409.714L433.775,410.022L434.122,409.865L434.545,409.752L435.085,409.984L435.085,410.099L435.237,410.482L435.352,410.674L435.508,410.749L436.392,411.059L436.582,411.214L436.738,411.405L436.776,411.595L436.738,411.942L436.7,412.098L436.738,412.213L436.967,412.44L437.081,412.482L437.698,412.749L437.698,412.825L438.007,412.788L438.506,412.56L439.043,412.365L440.387,411.595L441.541,411.442L442.695,411.635L444.923,412.288L447.422,412.56L447.536,412.674L447.807,412.788L448.111,412.905L448.729,413.02L448.919,413.134L449.921,414.402L450.263,414.555L450.957,414.786L451.573,415.209L451.802,415.323L451.996,415.518L452.072,415.903L452.187,416.132L452.495,416.132L452.842,416.018L453.108,415.865L453.185,416.286L453.569,416.478L454.067,416.591L454.533,416.786L454.799,416.631L455.107,416.631L455.416,416.749L455.645,416.938L455.759,417.247L455.722,417.515L455.645,417.746L455.645,418.018L455.877,418.478L456.913,419.784L458.105,418.093L458.338,418.018L458.875,418.207L459.146,418.093L459.221,417.67L458.604,414.786L457.721,412.52L457.26,411.751L457.027,411.557L456.876,411.481L456.762,411.328L456.723,410.365L456.799,410.099L457.185,409.562L457.185,409.328L457.107,409.139L457.07,408.906L457.07,408.753L457.107,408.598L457.185,408.483L457.299,408.444L457.45,408.444L457.488,408.061L457.413,407.83L457.299,407.601L457.26,407.253L457.299,406.944L457.606,406.369L457.797,405.792L458.22,405.523L458.761,405.601L459.26,406.061L460.295,405.292L460.528,405.025L460.371,404.793Z"/>
        </clipPath>
        <g clip-path="url(#_clip1)">
            <rect x="127" y="114.667" width="155.333" height="310.666" style="fill:rgb(7,122,95);fill-rule:nonzero;"/>
            <rect x="282.333" y="114.667" width="155.334" height="310.666" style="fill:rgb(207,32,40);fill-rule:nonzero;"/>
            <rect x="437.667" y="114.667" width="155.333" height="310.666" style="fill:rgb(251,209,19);fill-rule:nonzero;"/>
            <path d="M399.395,257.2L369.3,257.2L360,228.578L350.7,257.2L320.604,257.2L344.952,274.889L335.652,303.512L360,285.821L384.347,303.512L375.047,274.889L399.395,257.2Z" style="fill:rgb(251,209,19);fill-rule:nonzero;"/>
        </g>
    </g>
</svg>
