<?xml version="1.0" encoding="UTF-8" standalone="no"?>
<!DOCTYPE svg PUBLIC "-//W3C//DTD SVG 1.1//EN" "http://www.w3.org/Graphics/SVG/1.1/DTD/svg11.dtd">
<svg width="100%" height="100%" viewBox="0 0 2233 1489" version="1.1" xmlns="http://www.w3.org/2000/svg" xmlns:xlink="http://www.w3.org/1999/xlink" xml:space="preserve" xmlns:serif="http://www.serif.com/" style="fill-rule:evenodd;clip-rule:evenodd;stroke-linecap:round;stroke-linejoin:round;stroke-miterlimit:2;">
    <g transform="matrix(4.16667,0,0,4.16667,-383.862,-380.913)">
        <clipPath id="_clip1">
            <path d="M470.311,264.253L470.311,267.63L470.066,268.283L469.496,268.26L467.059,267.424L464.514,267.032L462.112,267.032L460.737,267.335L457.988,268.341L456.415,268.497L453.193,267.816L451.686,268.002L451.138,268.379L449.801,270.005L448.15,271.03L447.753,271.52L447.598,272.192L447.753,272.813L448.106,273.374L448.55,273.855L449.001,274.47L449.207,275.142L449.253,275.856L448.985,278.371L448.825,278.853L447.885,280.574L447.722,280.772L447.014,281.046L446.54,281.312L446.125,281.651L444.24,283.633L443.991,284.076L443.879,284.601L443.863,285.009L443.746,285.362L443.331,285.747L442.564,286.264L442.394,286.598L442.394,287.153L442.564,288.335L442.682,288.712L443,289.399L443.036,289.591L442.934,289.886L442.72,290.041L438.513,291.172L437.618,291.607L436.775,292.251L436.378,293.013L436.856,293.811L437.501,294.292L437.664,294.587L437.96,296.892L438.033,297.024L438.136,297.137L438.209,297.261L438.188,297.425L438.085,297.528L437.797,297.661L437.708,297.751L437.524,298.12L437.501,298.29L437.56,298.54L437.751,299.006L438.003,299.324L438.35,299.511L439.534,299.717L439.903,299.954L440.094,300.366L440.234,301.061L440.206,301.69L439.896,302.052L439.406,302.243L438.846,302.355L438.372,302.62L437.596,303.353L437.19,303.626L433.864,305.208L433.266,305.615L432.756,306.125L430.849,308.558L430.339,309.393L430.309,309.583L430.806,310.05L431.129,310.47L431.203,310.788L431.159,311.122L431.159,311.593L431.536,312.421L432.866,313.671L433.177,314.499L433.191,315.731L433.281,316.14L433.554,316.648L434.292,317.55L434.544,318.039L434.374,318.934L433.627,319.901L431.699,321.941L431.351,322.186L429.104,323.079L428.734,323.286L428.02,323.981L427.413,324.816L425.688,328.09L425.164,329.679L424.833,330.344L424.779,330.478L424.868,330.723L425.439,331.431L426.259,332.984L426.694,333.405L427.426,333.767L428.292,333.93L429.178,333.937L429.998,333.825L430.981,333.537L431.788,333.094L432.461,332.444L433.06,331.556L435.683,333.301L437.825,334.101L438.1,334.373L437.059,336.828L436.577,337.528L436.615,337.788L437.308,338.873L438.846,343.626L438.904,343.878L438.92,344.138L438.897,344.402L438.357,346.738L438.492,346.686L438.617,346.621L438.846,346.442L440.206,346.015L441.026,345.867L441.307,346.035L441.484,345.731L441.589,345.836L441.609,346.17L441.551,346.539L441.182,347.616L440.013,354.167L440.109,355.186L440.532,356.185L441.166,357.078L441.92,357.794L442.639,358.158L444.322,358.727L444.862,359.228L444.921,359.422L444.928,360.063L445.135,360.152L447.131,359.946L447.62,359.954L447.923,360.211L448.203,361.719L448.735,363.293L448.794,364.189L448.697,364.566L448.344,365.305L448.219,365.689L448.15,366.109L448.137,366.538L448.076,366.767L447.745,367.131L447.612,367.345L446.798,370.322L445.639,370.213L444.368,369.806L443.843,369.362L443.059,369.164L442.86,369.141L442.134,369.164L441.92,369.118L441.521,368.927L441.345,368.868L440.848,368.927L440.404,369.06L439.962,369.02L439.488,368.593L439.297,368.779L439.045,368.756L438.741,368.651L438.41,368.593L438.128,368.644L437.929,368.792L437.545,369.229L437.287,369.393L436.969,369.487L436.332,369.592L435.874,369.716L435.438,369.895L435.174,370.042L434.781,370.389L434.56,370.552L434.389,370.536L434.063,370.404L433.798,370.603L433.568,370.9L432.971,371.395L432.741,372.06L432.461,372.503L431.87,372.192L431.544,372.245L429.784,372.067L429.384,372.237L429.15,372.638L429.007,373.073L428.867,373.368L429.076,373.811L428.847,374.049L427.573,374.367L427.212,374.535L426.57,374.978L426.089,375.436L426.015,375.467L425.91,375.645L425.684,375.6L425.269,375.394L425.055,375.416L424.654,375.519L424.484,375.549L424.263,375.615L424.138,375.763L424.041,375.91L423.924,375.984L423.605,376.007L423.251,376.103L422.964,376.303L422.844,376.634L422.793,377.049L422.6,377.678L422.556,378.091L422.6,378.519L422.793,379.333L422.844,379.68L422.918,379.873L423.287,380.294L423.414,380.484L423.422,380.627L423.384,380.768L423.399,380.915L423.555,381.062L422.918,382.141L422.844,382.586L422.859,382.812L422.948,383.123L422.971,383.302L422.882,383.5L422.673,383.561L422.432,383.59L422.253,383.663L422.009,384.078L421.84,384.499L421.573,384.832L421.033,384.957L420.924,385.023L420.256,385.229L420.177,385.186L419.961,385.283L419.695,385.229L419.443,385.15L419.245,385.12L418.58,385.525L417.994,386.294L416.909,388.793L416.354,389.651L415.666,390.331L414.943,390.611L414.663,390.553L413.805,390.219L413.51,390.035L413.214,390.277L412.142,391.52L411.986,391.816L411.928,392.149L411.749,392.192L410.598,392.946L410.382,393.316L410.065,394.085L410.051,394.159L410.065,394.454L410.035,394.536L409.961,394.528L409.864,394.506L409.783,394.528L409.511,394.78L409.363,394.883L409.215,394.948L409.134,394.913L408.942,394.707L408.846,394.661L408.727,394.684L408.675,394.734L408.652,394.788L408.624,394.816L408.512,394.875L408.372,394.972L408.255,395.091L408.196,395.178L408.128,395.585L407.832,396.156L407.766,396.472L407.751,397.189L407.626,397.455L407.33,397.56L407.33,397.699L407.42,397.788L407.447,397.854L407.479,398.127L407.152,397.987L407.043,398.061L407.005,398.247L406.91,398.431L406.459,398.69L406.266,398.853L406.185,399.074L406.009,399.386L405.201,400.264L404.979,400.45L404.514,400.648L404.365,401.107L404.33,401.64L404.197,402.044L404.07,402.083L403.923,402.024L403.79,401.935L403.686,401.889L403.611,401.935L403.487,402.134L403.398,402.18L403.153,402.259L403.044,402.467L402.947,402.712L402.764,402.91L402.608,402.755L402.407,402.91L401.463,403.198L400.611,403.626L400.879,404.492L399.807,404.492L399.667,404.477L399.311,404.359L399.297,404.367L398.905,404.345L398.883,404.359L398.432,404.107L398.24,404.077L398.166,404.286L398.144,404.551L398.07,404.749L397.922,404.877L397.662,404.92L397.285,405.149L397.418,405.645L397.64,406.14L397.515,406.361L396.982,406.547L396.688,406.976L396.438,407.5L396.007,407.943L395.758,407.841L395.535,407.861L395.334,407.966L394.942,408.254L394.817,408.327L394.426,408.401L392.695,408.312L392.275,408.401L391.81,408.017L391.564,407.861L391.352,407.803L391.041,407.892L390.449,408.305L390.131,408.401L389.777,408.292L389.533,408.04L389.35,407.78L389.193,407.671L389.016,407.736L388.984,407.885L389,408.032L388.978,408.099L388.794,408.091L388.506,407.974L388.336,407.943L388.165,408.024L387.551,408.534L387.492,408.653L387.523,408.77L387.531,408.875L387.403,408.964L387.271,408.934L387.197,408.615L387.041,408.534L386.96,408.572L386.887,408.661L386.836,408.778L386.82,408.895L386.754,409.074L386.591,409.104L386.407,409.081L386.252,409.112L385.712,409.466L385.409,409.54L385.105,409.393L384.846,409.762L384.582,409.879L382.829,409.776L382.394,409.828L381.838,409.968L381.594,409.983L381.418,410.026L380.906,410.243L380.805,410.337L380.618,410.419L379.701,410.403L379.363,410.559L378.808,410.189L378.174,410.324L377.56,410.574L377.078,410.559L376.879,410.671L376.76,410.655L376.681,410.597L376.568,410.559L374.965,410.582L374.773,410.485L373.974,410.788L373.693,410.849L373.34,410.811L372.939,410.714L372.586,410.574L372.341,410.411L372.15,410.655L371.949,410.582L371.727,410.391L371.478,410.256L371.269,410.264L370.841,410.383L369.982,410.427L369.725,410.53L369.621,410.775L369.496,410.804L368.94,410.671L368.766,410.701L368.617,410.701L368.07,410.53L367.234,410.768L366.422,411.165L365.955,411.491L365.645,411.771L365.513,411.919L365.459,412.074L365.373,412.155L364.957,412.288L364.631,412.467L364.471,412.505L364.352,412.578L364.308,412.792L364.242,412.983L364.094,413.08L363.9,413.088L363.717,413.006L363.235,413.717L363.235,414.025L363.59,414.308L363.931,414.122L364.07,414.32L364.129,414.677L364.234,414.957L364.477,415.136L366.982,416.208L367.176,416.547L367.499,416.737L368.136,417.211L368.564,417.692L367.876,418.159L367.67,418.49L367.25,418.734L366.391,420.421L364.301,422.799L364.086,423.207L363.893,423.716L363.605,424.085L362.925,424.742L362.047,426.074L361.596,426.472L361.227,426.658L359.998,427.078L359.112,427.521L358.395,428.15L357.981,428.971L357.966,429.992L357.367,430.878L355.666,431.239L346.502,431.477L344.551,431.942L342.888,432.564L342.076,432.712L341.202,432.682L338.319,432.192L337.95,432.172L337.486,432.2L337.086,432.327L336.651,432.926L336.251,433.132L335.815,433.257L335.062,433.331L334.639,433.436L334.292,433.68L334.106,434.15L333.857,434.313L332.866,434.019L332.591,434.337L332.171,434.602L329.346,435.6L329.007,435.837L328.712,436.117L328.587,436.361L328.513,436.746L328.371,436.843L328.203,436.812L328.04,436.835L327.663,437.182L326.932,438.075L326.524,438.452L326.229,438.646L326.096,438.639L325.984,438.521L325.748,438.394L325.335,438.254L325.047,438.506L324.95,438.697L324.971,438.875L324.904,438.973L324.27,438.86L324.041,438.883L323.863,439.008L323.715,439.26L323.31,439.214L322.408,439.354L321.593,439.591L321.277,439.77L321.054,440.042L320.893,440.457L320.914,440.604L321.002,440.694L321.076,440.796L321.033,440.959L320.959,440.997C320.865,440.984 320.771,440.972 320.677,440.959L320.175,441.382L320.02,441.461L319.541,441.514L319.25,441.32L318.792,440.559L318.018,439.695L317.536,439.318L317.042,439.074L316.235,438.837L316.013,438.608L315.924,438.149L315.97,437.893L316.059,437.679L316.095,437.465L315.993,437.166L315.83,436.983L315.644,436.901L315.445,436.851L315.224,436.762L314.882,436.51L314.653,436.191L314.566,435.807L314.676,435.172L314.691,434.978L314.676,434.788L314.646,434.609L313.82,434.861L313.448,435.048L313.117,435.335L312.985,435.541L312.732,436.089L312.6,436.252L312.31,436.326L312.104,436.26L311.913,436.171L311.684,436.163L311.365,436.428L311.261,436.863L311.261,438.292L311.174,438.588L310.922,438.756L309.073,439.016L308.637,439.193L307.914,439.746L307.491,439.999L307.04,440.058L306.562,440.05L305.851,440.294L304.521,440.465L304.055,440.62L303.709,440.804L303.414,441.114L302.955,441.759L302.652,442.061L301.964,442.475L301.595,442.63L298.844,443.259L298.098,443.31L297.293,443.037L296.221,442.039L295.304,441.965L293.773,442.171L293.012,442.12L292.296,441.891L293.154,440.783L293.715,439.637L293.99,438.387L294.002,436.244C293.63,436.167 293.259,436.083 292.887,436L292.436,435.977L291.445,435.254L290.737,433.532L289.451,429.029L286.066,421.816L285.748,421.403L284.543,420.212L283.657,418.772L283.308,418.35L282.88,418.039L282.348,417.868L281.563,417.751L281.283,417.67L281.209,417.529L281.209,417.339L281.159,417.079L280.965,416.547L280.848,416.348L280.7,416.221L280.545,416.162L280.412,416.065L280.3,415.808L280.117,415.606L279.289,414.995L278.999,414.832L278.808,414.786L278.622,414.786L278.438,414.817L278.237,414.884L277.906,414.779L268.607,407.309L268.215,406.634L268.017,405.732L262.051,398.866L260.189,397.411L260.151,397.101L261.43,395.267L263.139,393.782L263.796,392.888L264.81,390.871L264.861,390.654L264.868,390.448L264.919,390.293L265.09,390.227L270.507,389.865L276.62,391.373L277.463,391.416L280.086,390.603L281.054,390.634L282.274,390.93L282.916,390.973L283.501,390.841L283.723,390.692L284.093,390.353L284.33,390.211L284.513,390.152L285.473,390.049L286.724,390.102L290.241,391.24L291.425,391.21L296.117,390.056L296.486,389.954L295.577,389.134L294.838,388.897L293.45,388.061L292.482,387.227L292.495,387.138L292.192,386.962L291.417,385.851L288.534,383.177L288.305,382.812L288.173,382.385L288.127,381.853L288.045,381.433L287.847,381.18L287.574,380.951L287.271,380.62L286.981,379.827L286.79,379.466L286.37,379.272L286.272,379.171L286.133,379.073L285.911,379.03L285.667,379.008L285.438,378.941L285.244,378.853L285.119,378.742L284.979,378.335L284.994,377.811L285.119,377.301L285.333,376.924L285.363,376.591L285.2,376.081L283.604,372.991L283.545,372.192L283.805,371.29L283.878,370.766L283.744,370.396L283.53,370.078L282.962,368.726L282.666,364.742L282.814,363.428L282.916,363.095L283.405,362.392L283.545,362.037L283.522,361.823L283.436,361.711L283.323,361.617L283.257,361.462L283.257,361.217L283.361,360.892L283.494,359.791L283.626,359.376L283.817,358.999L284.78,357.936L285.061,357.351L284.816,356.663L284.225,355.925L284.003,355.548L283.677,354.595L283.611,354.173L283.649,353.76L283.817,353.302L283.891,353.278L284.034,353.286L284.174,353.27L284.255,353.177L284.232,353.036L284.011,352.828L283.973,352.738L284.085,352.532L284.424,352.214L284.543,352L284.034,350.774L283.891,350.546L283.537,350.5L283.285,350.329L283.145,349.99L283.102,349.458L283.206,349.295L283.405,349.119L283.553,348.934L283.463,348.728L283.382,348.607L283.28,348.386L283.234,348.18L283.323,348.083L283.922,347.988L283.833,347.752L283.471,347.44L283.257,347.13L283.293,346.87L283.346,346.707L283.331,346.575L283.183,346.404L283.071,346.198L283.079,345.948L283.153,345.719L283.257,345.584L282.857,345.238L282.473,345.075L282.096,345.113L281.734,345.386L281.482,345.416L281.187,345.186L280.728,344.646L280.196,344.285L280.086,344.138L280.02,343.827L280.122,343.73L280.285,343.691L280.374,343.552L280.338,343.338L280.249,343.221L280.145,343.132L280.086,342.969L280.086,342.717L280.196,342.354L280.234,342.098L280.265,340.618L280.3,340.427L279.946,338.814L279.658,338.29L279.643,338.2L279.679,337.959L279.658,337.869L279.554,337.796L279.414,337.75L279.333,337.766L279.368,337.869L279.2,337.714L279.103,337.699L279.073,337.655L279.088,337.419L279.126,337.278L279.294,336.953L279.368,336.841L278.683,334.218L278.438,333.782L277.743,333.944L277.381,333.899L277.226,333.561L277.175,333.353L277.032,333.138L276.849,332.97L276.655,332.895L276.546,332.962L276.228,333.494L275.983,333.138L276.294,332.436L276.146,332.088L275.815,331.971L275.201,332.142L274.853,331.94L274.72,331.823L274.358,331.586L274.284,331.462L274.277,331.326L274.233,331.217L274.07,331.15L273.93,331.179L273.53,331.489L273.332,331.52L273.235,331.403L273.205,331.209L273.205,330.995L273.029,331.069L272.901,331.054L272.82,330.949L272.784,330.767L272.784,329.961L272.407,329.569L271.763,329.08L271.549,328.777L271.557,328.505L271.883,327.529L271.911,327.094L271.852,326.737L271.674,326.421L271.378,326.103L270.403,324.58L270.041,324.343L262.643,324.409L253.063,311.025C252.329,307.607 251.587,304.189 250.81,300.781L250.669,300.094L250.448,299.11C250.215,298.248 249.984,297.385 249.752,296.522L249.76,295.26L250.448,294.308L250.98,294.04L251.734,293.722L252.584,293.655L253.42,293.492L254.12,292.901L254.283,292.517L254.314,292.111L254.174,291.292L254.107,291.164L253.886,290.966L253.848,290.853L253.922,290.736L254.337,290.448L255.009,289.702L255.215,289.539L255.636,289.442L256.036,289.415L256.354,289.243L256.538,288.739L256.517,288.296L256.221,287.38L256.131,286.944L256.161,286.485L256.272,286.073C256.78,284.973 257.298,283.877 257.808,282.777C261.549,277.529 265.275,272.27 269.015,267.02C275.027,260.535 281.075,254.082 287.075,247.585C288.611,245.922 290.15,244.261 291.69,242.6L291.97,242.192L292.105,241.718C292.754,233.463 293.466,225.208 294.202,216.96C294.946,208.617 295.634,200.266 296.313,191.917C296.739,186.678 297.21,181.443 297.632,176.204L298.284,174.461C299.659,171.975 301.021,169.481 302.385,166.989L302.532,166.612L302.489,166.24L302.193,165.761C300.201,163.565 298.23,161.349 296.236,159.155L294.535,157.8L294.158,157.372L293.862,156.893L293.613,156.322L293.442,155.319L293.618,154.29L294.138,153.434L294.978,152.945C294.746,152.583 294.515,152.221 294.285,151.858L293.929,151.32C292.151,148.494 290.319,145.702 288.527,142.885L287.803,142.006L287.403,141.724L286.413,141.209L286.087,140.875L285.998,140.521C285.968,136.89 285.886,133.257 285.822,129.625C284.536,122.096 283.201,114.565 281.808,107.055L281.808,107.04L281.815,107.024L281.831,107.017L281.846,107.017C288.739,103.734 295.564,100.298 302.415,96.929L302.843,96.868C310.433,100.96 318.053,105.001 325.662,109.06C333.498,113.239 341.345,117.397 349.185,121.568C357.037,125.746 364.907,129.891 372.764,134.06C380.626,138.23 388.513,142.354 396.375,146.522C404.235,150.688 412.122,154.805 419.996,158.944C427.861,163.079 435.737,167.193 443.611,171.313C451.466,175.422 459.332,179.512 467.191,183.613C468.211,184.145 469.23,184.676 470.25,185.207C470.25,193.8 470.252,202.394 470.265,210.987C470.278,219.71 470.276,228.433 470.29,237.156C470.304,246.188 470.311,255.221 470.311,264.253Z"/>
        </clipPath>
        <g clip-path="url(#_clip1)">
            <rect x="92.127" y="91.419" width="535.745" height="357.162" style="fill:rgb(31,45,97);fill-rule:nonzero;"/>
            <rect x="270.709" y="91.419" width="357.163" height="357.162" style="fill:rgb(253,204,5);fill-rule:nonzero;"/>
            <rect x="449.291" y="91.419" width="178.581" height="357.162" style="fill:rgb(198,32,50);fill-rule:nonzero;"/>
        </g>
    </g>
    <g transform="matrix(4.16667,0,0,4.16667,-383.862,-380.913)">
        <path d="M470.311,264.253L470.311,267.63L470.066,268.283L469.496,268.26L467.059,267.424L464.514,267.032L462.112,267.032L460.737,267.335L457.988,268.341L456.415,268.497L453.193,267.816L451.686,268.002L451.138,268.379L449.801,270.005L448.15,271.03L447.753,271.52L447.598,272.192L447.753,272.813L448.106,273.374L448.55,273.855L449.001,274.47L449.207,275.142L449.253,275.856L448.985,278.371L448.825,278.853L447.885,280.574L447.722,280.772L447.014,281.046L446.54,281.312L446.125,281.651L444.24,283.633L443.991,284.076L443.879,284.601L443.863,285.009L443.746,285.362L443.331,285.747L442.564,286.264L442.394,286.598L442.394,287.153L442.564,288.335L442.682,288.712L443,289.399L443.036,289.591L442.934,289.886L442.72,290.041L438.513,291.172L437.618,291.607L436.775,292.251L436.378,293.013L436.856,293.811L437.501,294.292L437.664,294.587L437.96,296.892L438.033,297.024L438.136,297.137L438.209,297.261L438.188,297.425L438.085,297.528L437.797,297.661L437.708,297.751L437.524,298.12L437.501,298.29L437.56,298.54L437.751,299.006L438.003,299.324L438.35,299.511L439.534,299.717L439.903,299.954L440.094,300.366L440.234,301.061L440.206,301.69L439.896,302.052L439.406,302.243L438.846,302.355L438.372,302.62L437.596,303.353L437.19,303.626L433.864,305.208L433.266,305.615L432.756,306.125L430.849,308.558L430.339,309.393L430.309,309.583L430.806,310.05L431.129,310.47L431.203,310.788L431.159,311.122L431.159,311.593L431.536,312.421L432.866,313.671L433.177,314.499L433.191,315.731L433.281,316.14L433.554,316.648L434.292,317.55L434.544,318.039L434.374,318.934L433.627,319.901L431.699,321.941L431.351,322.186L429.104,323.079L428.734,323.286L428.02,323.981L427.413,324.816L425.688,328.09L425.164,329.679L424.833,330.344L424.779,330.478L424.868,330.723L425.439,331.431L426.259,332.984L426.694,333.405L427.426,333.767L428.292,333.93L429.178,333.937L429.998,333.825L430.981,333.537L431.788,333.094L432.461,332.444L433.06,331.556L435.683,333.301L437.825,334.101L438.1,334.373L437.059,336.828L436.577,337.528L436.615,337.788L437.308,338.873L438.846,343.626L438.904,343.878L438.92,344.138L438.897,344.402L438.357,346.738L438.492,346.686L438.617,346.621L438.846,346.442L440.206,346.015L441.026,345.867L441.307,346.035L441.484,345.731L441.589,345.836L441.609,346.17L441.551,346.539L441.182,347.616L440.013,354.167L440.109,355.186L440.532,356.185L441.166,357.078L441.92,357.794L442.639,358.158L444.322,358.727L444.862,359.228L444.921,359.422L444.928,360.063L445.135,360.152L447.131,359.946L447.62,359.954L447.923,360.211L448.203,361.719L448.735,363.293L448.794,364.189L448.697,364.566L448.344,365.305L448.219,365.689L448.15,366.109L448.137,366.538L448.076,366.767L447.745,367.131L447.612,367.345L446.798,370.322L445.639,370.213L444.368,369.806L443.843,369.362L443.059,369.164L442.86,369.141L442.134,369.164L441.92,369.118L441.521,368.927L441.345,368.868L440.848,368.927L440.404,369.06L439.962,369.02L439.488,368.593L439.297,368.779L439.045,368.756L438.741,368.651L438.41,368.593L438.128,368.644L437.929,368.792L437.545,369.229L437.287,369.393L436.969,369.487L436.332,369.592L435.874,369.716L435.438,369.895L435.174,370.042L434.781,370.389L434.56,370.552L434.389,370.536L434.063,370.404L433.798,370.603L433.568,370.9L432.971,371.395L432.741,372.06L432.461,372.503L431.87,372.192L431.544,372.245L429.784,372.067L429.384,372.237L429.15,372.638L429.007,373.073L428.867,373.368L429.076,373.811L428.847,374.049L427.573,374.367L427.212,374.535L426.57,374.978L426.089,375.436L426.015,375.467L425.91,375.645L425.684,375.6L425.269,375.394L425.055,375.416L424.654,375.519L424.484,375.549L424.263,375.615L424.138,375.763L424.041,375.91L423.924,375.984L423.605,376.007L423.251,376.103L422.964,376.303L422.844,376.634L422.793,377.049L422.6,377.678L422.556,378.091L422.6,378.519L422.793,379.333L422.844,379.68L422.918,379.873L423.287,380.294L423.414,380.484L423.422,380.627L423.384,380.768L423.399,380.915L423.555,381.062L422.918,382.141L422.844,382.586L422.859,382.812L422.948,383.123L422.971,383.302L422.882,383.5L422.673,383.561L422.432,383.59L422.253,383.663L422.009,384.078L421.84,384.499L421.573,384.832L421.033,384.957L420.924,385.023L420.256,385.229L420.177,385.186L419.961,385.283L419.695,385.229L419.443,385.15L419.245,385.12L418.58,385.525L417.994,386.294L416.909,388.793L416.354,389.651L415.666,390.331L414.943,390.611L414.663,390.553L413.805,390.219L413.51,390.035L413.214,390.277L412.142,391.52L411.986,391.816L411.928,392.149L411.749,392.192L410.598,392.946L410.382,393.316L410.065,394.085L410.051,394.159L410.065,394.454L410.035,394.536L409.961,394.528L409.864,394.506L409.783,394.528L409.511,394.78L409.363,394.883L409.215,394.948L409.134,394.913L408.942,394.707L408.846,394.661L408.727,394.684L408.675,394.734L408.652,394.788L408.624,394.816L408.512,394.875L408.372,394.972L408.255,395.091L408.196,395.178L408.128,395.585L407.832,396.156L407.766,396.472L407.751,397.189L407.626,397.455L407.33,397.56L407.33,397.699L407.42,397.788L407.447,397.854L407.479,398.127L407.152,397.987L407.043,398.061L407.005,398.247L406.91,398.431L406.459,398.69L406.266,398.853L406.185,399.074L406.009,399.386L405.201,400.264L404.979,400.45L404.514,400.648L404.365,401.107L404.33,401.64L404.197,402.044L404.07,402.083L403.923,402.024L403.79,401.935L403.686,401.889L403.611,401.935L403.487,402.134L403.398,402.18L403.153,402.259L403.044,402.467L402.947,402.712L402.764,402.91L402.608,402.755L402.407,402.91L401.463,403.198L400.611,403.626L400.879,404.492L399.807,404.492L399.667,404.477L399.311,404.359L399.297,404.367L398.905,404.345L398.883,404.359L398.432,404.107L398.24,404.077L398.166,404.286L398.144,404.551L398.07,404.749L397.922,404.877L397.662,404.92L397.285,405.149L397.418,405.645L397.64,406.14L397.515,406.361L396.982,406.547L396.688,406.976L396.438,407.5L396.007,407.943L395.758,407.841L395.535,407.861L395.334,407.966L394.942,408.254L394.817,408.327L394.426,408.401L392.695,408.312L392.275,408.401L391.81,408.017L391.564,407.861L391.352,407.803L391.041,407.892L390.449,408.305L390.131,408.401L389.777,408.292L389.533,408.04L389.35,407.78L389.193,407.671L389.016,407.736L388.984,407.885L389,408.032L388.978,408.099L388.794,408.091L388.506,407.974L388.336,407.943L388.165,408.024L387.551,408.534L387.492,408.653L387.523,408.77L387.531,408.875L387.403,408.964L387.271,408.934L387.197,408.615L387.041,408.534L386.96,408.572L386.887,408.661L386.836,408.778L386.82,408.895L386.754,409.074L386.591,409.104L386.407,409.081L386.252,409.112L385.712,409.466L385.409,409.54L385.105,409.393L384.846,409.762L384.582,409.879L382.829,409.776L382.394,409.828L381.838,409.968L381.594,409.983L381.418,410.026L380.906,410.243L380.805,410.337L380.618,410.419L379.701,410.403L379.363,410.559L378.808,410.189L378.174,410.324L377.56,410.574L377.078,410.559L376.879,410.671L376.76,410.655L376.681,410.597L376.568,410.559L374.965,410.582L374.773,410.485L373.974,410.788L373.693,410.849L373.34,410.811L372.939,410.714L372.586,410.574L372.341,410.411L372.15,410.655L371.949,410.582L371.727,410.391L371.478,410.256L371.269,410.264L370.841,410.383L369.982,410.427L369.725,410.53L369.621,410.775L369.496,410.804L368.94,410.671L368.766,410.701L368.617,410.701L368.07,410.53L367.234,410.768L366.422,411.165L365.955,411.491L365.645,411.771L365.513,411.919L365.459,412.074L365.373,412.155L364.957,412.288L364.631,412.467L364.471,412.505L364.352,412.578L364.308,412.792L364.242,412.983L364.094,413.08L363.9,413.088L363.717,413.006L363.235,413.717L363.235,414.025L363.59,414.308L363.931,414.122L364.07,414.32L364.129,414.677L364.234,414.957L364.477,415.136L366.982,416.208L367.176,416.547L367.499,416.737L368.136,417.211L368.564,417.692L367.876,418.159L367.67,418.49L367.25,418.734L366.391,420.421L364.301,422.799L364.086,423.207L363.893,423.716L363.605,424.085L362.925,424.742L362.047,426.074L361.596,426.472L361.227,426.658L359.998,427.078L359.112,427.521L358.395,428.15L357.981,428.971L357.966,429.992L357.367,430.878L355.666,431.239L346.502,431.477L344.551,431.942L342.888,432.564L342.076,432.712L341.202,432.682L338.319,432.192L337.95,432.172L337.486,432.2L337.086,432.327L336.651,432.926L336.251,433.132L335.815,433.257L335.062,433.331L334.639,433.436L334.292,433.68L334.106,434.15L333.857,434.313L332.866,434.019L332.591,434.337L332.171,434.602L329.346,435.6L329.007,435.837L328.712,436.117L328.587,436.361L328.513,436.746L328.371,436.843L328.203,436.812L328.04,436.835L327.663,437.182L326.932,438.075L326.524,438.452L326.229,438.646L326.096,438.639L325.984,438.521L325.748,438.394L325.335,438.254L325.047,438.506L324.95,438.697L324.971,438.875L324.904,438.973L324.27,438.86L324.041,438.883L323.863,439.008L323.715,439.26L323.31,439.214L322.408,439.354L321.593,439.591L321.277,439.77L321.054,440.042L320.893,440.457L320.914,440.604L321.002,440.694L321.076,440.796L321.033,440.959L320.959,440.997C320.865,440.984 320.771,440.972 320.677,440.959L320.175,441.382L320.02,441.461L319.541,441.514L319.25,441.32L318.792,440.559L318.018,439.695L317.536,439.318L317.042,439.074L316.235,438.837L316.013,438.608L315.924,438.149L315.97,437.893L316.059,437.679L316.095,437.465L315.993,437.166L315.83,436.983L315.644,436.901L315.445,436.851L315.224,436.762L314.882,436.51L314.653,436.191L314.566,435.807L314.676,435.172L314.691,434.978L314.676,434.788L314.646,434.609L313.82,434.861L313.448,435.048L313.117,435.335L312.985,435.541L312.732,436.089L312.6,436.252L312.31,436.326L312.104,436.26L311.913,436.171L311.684,436.163L311.365,436.428L311.261,436.863L311.261,438.292L311.174,438.588L310.922,438.756L309.073,439.016L308.637,439.193L307.914,439.746L307.491,439.999L307.04,440.058L306.562,440.05L305.851,440.294L304.521,440.465L304.055,440.62L303.709,440.804L303.414,441.114L302.955,441.759L302.652,442.061L301.964,442.475L301.595,442.63L298.844,443.259L298.098,443.31L297.293,443.037L296.221,442.039L295.304,441.965L293.773,442.171L293.012,442.12L292.296,441.891L293.154,440.783L293.715,439.637L293.99,438.387L294.002,436.244C293.63,436.167 293.259,436.083 292.887,436L292.436,435.977L291.445,435.254L290.737,433.532L289.451,429.029L286.066,421.816L285.748,421.403L284.543,420.212L283.657,418.772L283.308,418.35L282.88,418.039L282.348,417.868L281.563,417.751L281.283,417.67L281.209,417.529L281.209,417.339L281.159,417.079L280.965,416.547L280.848,416.348L280.7,416.221L280.545,416.162L280.412,416.065L280.3,415.808L280.117,415.606L279.289,414.995L278.999,414.832L278.808,414.786L278.622,414.786L278.438,414.817L278.237,414.884L277.906,414.779L268.607,407.309L268.215,406.634L268.017,405.732L262.051,398.866L260.189,397.411L260.151,397.101L261.43,395.267L263.139,393.782L263.796,392.888L264.81,390.871L264.861,390.654L264.868,390.448L264.919,390.293L265.09,390.227L270.507,389.865L276.62,391.373L277.463,391.416L280.086,390.603L281.054,390.634L282.274,390.93L282.916,390.973L283.501,390.841L283.723,390.692L284.093,390.353L284.33,390.211L284.513,390.152L285.473,390.049L286.724,390.102L290.241,391.24L291.425,391.21L296.117,390.056L296.486,389.954L295.577,389.134L294.838,388.897L293.45,388.061L292.482,387.227L292.495,387.138L292.192,386.962L291.417,385.851L288.534,383.177L288.305,382.812L288.173,382.385L288.127,381.853L288.045,381.433L287.847,381.18L287.574,380.951L287.271,380.62L286.981,379.827L286.79,379.466L286.37,379.272L286.272,379.171L286.133,379.073L285.911,379.03L285.667,379.008L285.438,378.941L285.244,378.853L285.119,378.742L284.979,378.335L284.994,377.811L285.119,377.301L285.333,376.924L285.363,376.591L285.2,376.081L283.604,372.991L283.545,372.192L283.805,371.29L283.878,370.766L283.744,370.396L283.53,370.078L282.962,368.726L282.666,364.742L282.814,363.428L282.916,363.095L283.405,362.392L283.545,362.037L283.522,361.823L283.436,361.711L283.323,361.617L283.257,361.462L283.257,361.217L283.361,360.892L283.494,359.791L283.626,359.376L283.817,358.999L284.78,357.936L285.061,357.351L284.816,356.663L284.225,355.925L284.003,355.548L283.677,354.595L283.611,354.173L283.649,353.76L283.817,353.302L283.891,353.278L284.034,353.286L284.174,353.27L284.255,353.177L284.232,353.036L284.011,352.828L283.973,352.738L284.085,352.532L284.424,352.214L284.543,352L284.034,350.774L283.891,350.546L283.537,350.5L283.285,350.329L283.145,349.99L283.102,349.458L283.206,349.295L283.405,349.119L283.553,348.934L283.463,348.728L283.382,348.607L283.28,348.386L283.234,348.18L283.323,348.083L283.922,347.988L283.833,347.752L283.471,347.44L283.257,347.13L283.293,346.87L283.346,346.707L283.331,346.575L283.183,346.404L283.071,346.198L283.079,345.948L283.153,345.719L283.257,345.584L282.857,345.238L282.473,345.075L282.096,345.113L281.734,345.386L281.482,345.416L281.187,345.186L280.728,344.646L280.196,344.285L280.086,344.138L280.02,343.827L280.122,343.73L280.285,343.691L280.374,343.552L280.338,343.338L280.249,343.221L280.145,343.132L280.086,342.969L280.086,342.717L280.196,342.354L280.234,342.098L280.265,340.618L280.3,340.427L279.946,338.814L279.658,338.29L279.643,338.2L279.679,337.959L279.658,337.869L279.554,337.796L279.414,337.75L279.333,337.766L279.368,337.869L279.2,337.714L279.103,337.699L279.073,337.655L279.088,337.419L279.126,337.278L279.294,336.953L279.368,336.841L278.683,334.218L278.438,333.782L277.743,333.944L277.381,333.899L277.226,333.561L277.175,333.353L277.032,333.138L276.849,332.97L276.655,332.895L276.546,332.962L276.228,333.494L275.983,333.138L276.294,332.436L276.146,332.088L275.815,331.971L275.201,332.142L274.853,331.94L274.72,331.823L274.358,331.586L274.284,331.462L274.277,331.326L274.233,331.217L274.07,331.15L273.93,331.179L273.53,331.489L273.332,331.52L273.235,331.403L273.205,331.209L273.205,330.995L273.029,331.069L272.901,331.054L272.82,330.949L272.784,330.767L272.784,329.961L272.407,329.569L271.763,329.08L271.549,328.777L271.557,328.505L271.883,327.529L271.911,327.094L271.852,326.737L271.674,326.421L271.378,326.103L270.403,324.58L270.041,324.343L262.643,324.409L253.063,311.025C252.329,307.607 251.587,304.189 250.81,300.781L250.669,300.094L250.448,299.11C250.215,298.248 249.984,297.385 249.752,296.522L249.76,295.26L250.448,294.308L250.98,294.04L251.734,293.722L252.584,293.655L253.42,293.492L254.12,292.901L254.283,292.517L254.314,292.111L254.174,291.292L254.107,291.164L253.886,290.966L253.848,290.853L253.922,290.736L254.337,290.448L255.009,289.702L255.215,289.539L255.636,289.442L256.036,289.415L256.354,289.243L256.538,288.739L256.517,288.296L256.221,287.38L256.131,286.944L256.161,286.485L256.272,286.073C256.78,284.973 257.298,283.877 257.808,282.777C261.549,277.529 265.275,272.27 269.015,267.02C275.027,260.535 281.075,254.082 287.075,247.585C288.611,245.922 290.15,244.261 291.69,242.6L291.97,242.192L292.105,241.718C292.754,233.463 293.466,225.208 294.202,216.96C294.946,208.617 295.634,200.266 296.313,191.917C296.739,186.678 297.21,181.443 297.632,176.204L298.284,174.461C299.659,171.975 301.021,169.481 302.385,166.989L302.532,166.612L302.489,166.24L302.193,165.761C300.201,163.565 298.23,161.349 296.236,159.155L294.535,157.8L294.158,157.372L293.862,156.893L293.613,156.322L293.442,155.319L293.618,154.29L294.138,153.434L294.978,152.945C294.746,152.583 294.515,152.221 294.285,151.858L293.929,151.32C292.151,148.494 290.319,145.702 288.527,142.885L287.803,142.006L287.403,141.724L286.413,141.209L286.087,140.875L285.998,140.521C285.968,136.89 285.886,133.257 285.822,129.625C284.536,122.096 283.201,114.565 281.808,107.055L281.808,107.04L281.815,107.024L281.831,107.017L281.846,107.017C288.739,103.734 295.564,100.298 302.415,96.929L302.843,96.868C310.433,100.96 318.053,105.001 325.662,109.06C333.498,113.239 341.345,117.397 349.185,121.568C357.037,125.746 364.907,129.891 372.764,134.06C380.626,138.23 388.513,142.354 396.375,146.522C404.235,150.688 412.122,154.805 419.996,158.944C427.861,163.079 435.737,167.193 443.611,171.313C451.466,175.422 459.332,179.512 467.191,183.613C468.211,184.145 469.23,184.676 470.25,185.207C470.25,193.8 470.252,202.394 470.265,210.987C470.278,219.71 470.276,228.433 470.29,237.156C470.304,246.188 470.311,255.221 470.311,264.253Z" style="fill:none;stroke:rgb(153,153,153);stroke-width:0.25px;"/>
    </g>
</svg>
