<?xml version="1.0" encoding="UTF-8" standalone="no"?>
<!DOCTYPE svg PUBLIC "-//W3C//DTD SVG 1.1//EN" "http://www.w3.org/Graphics/SVG/1.1/DTD/svg11.dtd">
<svg width="100%" height="100%" viewBox="0 0 2300 1150" version="1.1" xmlns="http://www.w3.org/2000/svg" xmlns:xlink="http://www.w3.org/1999/xlink" xml:space="preserve" xmlns:serif="http://www.serif.com/" style="fill-rule:evenodd;clip-rule:evenodd;stroke-linejoin:round;stroke-miterlimit:2;">
    <g transform="matrix(4.16667,0,0,4.16667,-350,-558.333)">
        <clipPath id="_clip1">
            <path d="M511.528,298.772L510.159,298.088L508.683,297.594L506.73,296.933L504.768,296.273L502.805,295.615L500.845,294.955L498.89,294.305L496.928,293.646L494.967,292.983L493.004,292.324L491.042,291.666L489.087,291.007L487.128,290.348L485.164,289.689L483.209,289.026L481.25,288.368L479.287,287.709L477.323,287.05L475.265,286.373L473.211,285.697L471.151,285.013L469.089,284.338L467.037,283.661L464.976,282.977L462.916,282.301L460.862,281.624L458.803,280.951L456.749,280.267L454.689,279.591L452.627,278.906L450.573,278.229L448.514,277.554L446.454,276.869L444.4,276.192L442.52,275.573L441.614,275.039L439.984,273.554L437.007,270.853L434.93,268.955L433.132,267.316L432.794,267.134L432.422,267.159L431.854,267.381L431.416,267.338L429.62,266.259L428.399,265.526L428.104,265.162L428.004,264.72L427.947,263.935L427.797,263.506L427.271,262.444L427.056,262.237L426.587,261.924L426.362,261.717L426.206,261.46L425.985,260.95L425.763,260.719L425.564,260.621L424.937,260.464L424.426,259.904L424.113,258.973L423.437,255.223L422.993,254.464L422.118,254.067L421.056,253.885L420.198,253.541L419.548,252.888L419.103,251.799L418.912,251.024L418.616,250.251L418.195,249.559L417.642,248.991L415.4,247.54L414.798,246.815L414.14,245.372L413.702,243.863L413.406,241.702L413.151,241.06L412.787,240.599L411.5,239.343L410.875,238.364L410.412,237.31L410.381,236.807L410.686,236.583L411.145,236.443L411.6,236.188L411.881,235.793L412.055,235.33L412.276,234.367L412.497,233.796L412.779,233.418L413.61,232.742L413.975,232.355L414.122,231.993L414.222,231.604L414.403,231.134L414.756,230.757L415.738,230.35L416.134,230.021L416.307,229.617L416.546,228.655L416.835,228.152L416.471,228.019L416.241,228.226L416.003,228.513L415.656,228.637L415.349,228.586L414.772,228.413L413.81,228.322L413.29,228.209L412.895,227.87L412.302,226.583L411.855,226.419L411.296,226.393L409.637,225.999L408.574,226.081L406.473,226.723L404.913,227.745L404.412,227.984L404.066,227.962L403.702,227.836L403.175,227.753L402.407,228.009L402.211,228.035L401.791,228.019L401.592,228.035L400.76,228.413L400.447,228.486L400.001,228.486L398.797,228.209L397.513,228.348L396.885,228.555L396.16,229.296L395.516,229.453L394.198,229.51L394.041,229.578L393.934,229.691L393.811,229.782L393.604,229.749L393.465,229.635L393.405,229.495L393.323,229.37L390.57,228.819L389.985,228.595L389.698,228.209L390.119,227.541L390.258,226.526L390.314,221.976L390.027,219.411L389.426,216.684L389.408,215.397L390.102,213.247L390.423,211.448L390.795,210.698L391.129,210.468L392.056,210.065L392.286,209.758L392.416,209.42L392.615,209.281L392.871,209.199L393.201,209.051L393.521,208.795L393.786,208.54L396.604,204.532L397.553,202.784L397.809,202.498L398.362,202.225L398.541,201.936L398.896,201.072L402.013,196.825L402.723,195.277L404.132,193.388L403.01,192.209L401.106,189.629L399.59,187.033L398.476,186.076L397.175,185.352L395.845,184.797L394.024,183.627L392.797,181.92L390.982,177.997L390.24,176.761L389.448,175.722L388.533,174.772L386.755,173.316L384.314,171.296L380.259,168.708L377.108,166.694L376.4,165.995L374.751,163.078L372.938,159.871L370.464,157.058L368.023,154.289L366.598,153.274L365.016,152.673L362.905,152.377L362.246,152.161L359.771,150.974L358.414,150.267L355.034,147.133L354.119,146.59L353.104,146.176L351.012,145.667L350.599,145.675L349.444,146.011L349.105,146.02L348.1,145.841L347.671,145.946L346.946,146.557L346.492,146.687L346.058,146.605L345.702,146.44L344.472,145.378L343.822,144.966L343.123,144.735L342.379,144.758L341.043,144.991L340.419,144.932L339.214,144.571L339.083,144.503L338.941,144.363L338.464,143.787L338.109,143.488L337.649,143.227L337.243,143.227L337.063,143.705L336.644,144.264L335.694,144.727L333.783,145.261L333.336,145.286L332.067,145.083L331.491,145.171L331.178,145.46L330.666,146.275L330.082,146.283L329.592,145.395L328.916,143.406L328.596,142.898L328.191,142.401L327.724,141.975L327.212,141.651L326.979,141.554L326.312,141.404L325.479,141.304L325.448,141.222L325.141,141.52L325.11,141.915L325.141,142.369L325.076,142.807L324.747,143.241L324.269,143.54L323.295,143.994L322.522,144.702L322.093,145L321.053,145.104L319.659,145.675L319.216,145.781L318.787,145.824L318.358,145.781L317.929,145.642L317.477,145.625L316.034,146.375L315.159,146.605L313.378,146.812L312.225,146.795L312.026,146.852L311.839,146.837L311.549,146.613L311.418,146.4L311.259,145.88L311.071,145.707L309.824,145.022L309.455,144.744L309.182,144.389L308.992,143.969L308.771,143.054L308.623,142.747L308.376,142.56L308.103,142.409L307.881,142.205L307.765,141.966L307.657,141.304L307.461,140.836L307.223,140.541L306.867,140.389L306.313,140.358L304.979,140.588L304.558,140.514L302.026,139.466L301.831,139.31L301.697,139.08L301.68,138.864L301.632,138.677L301.402,138.503L301.138,138.46L301.038,138.347L300.99,138.19L300.899,138.018L300.882,137.941L300.891,137.688L300.882,137.588L300.8,137.506L300.569,137.481L300.47,137.398L300.024,136.515L299.735,136.103L299.331,135.75L298.385,138.04L296.868,141.685L295.36,145.286L293.892,148.798L292.556,152.014L291.707,154.024L291.451,154.297L291.03,154.024L290.783,153.738L290.676,153.34L290.653,152.732L290.576,152.5L290.397,152.317L290.155,152.204L289.917,152.152L289.622,152.047L289.48,151.775L289.357,151.181L289.193,150.727L289.085,150.587L288.145,149.794L287.807,149.599L287.741,149.343L287.75,148.798L287.716,148.445L287.627,148.247L287.272,147.891L286.389,146.613L285.946,146.358L285.375,145.872L285.054,145.923L284.551,146.096L282.821,146.063L282.011,146.244L281.344,146.747L280.992,147.267L280.801,147.735L280.728,148.221L280.71,148.798L280.646,149.3L280.472,149.698L280.216,149.993L279.927,150.202L279.745,150.232L279.316,150.184L279.128,150.202L278.79,150.479L278.648,150.522L278.41,150.505L278.213,150.439L278.023,150.332L277.842,150.202L277.421,149.616L277.282,149.525L276.506,149.425L274.981,148.979L274.231,148.871L272.641,148.871L272.41,148.931L272.029,149.162L271.831,149.218L270.777,149.218L270.314,149.292L269.589,149.63L269.269,149.707L268.774,149.721L268.379,149.812L268.081,150.05L267.908,150.522L267.462,150.514L265.36,157.033L265.263,157.536L265.269,158.146L265.394,158.731L265.806,159.928L265.862,161.124L264.471,164.56L264.388,165.038L264.306,166.39L264.09,167.066L260.622,172.063L258.368,179.908L258.403,180.363L258.584,180.741L258.657,180.948L258.667,181.152L258.459,181.5L258.113,181.846L257.842,182.258L257.859,182.787L258.411,183.735L258.51,184.09L258.51,184.667L258.056,187.312L257.859,187.774L257.488,187.922L256.851,187.749L256.639,187.633L256.508,187.536L256.351,187.454L256.071,187.402L255.872,187.411L248.824,188.434L248.23,188.633L247.875,188.788L247.793,188.863L247.793,188.993L247.637,189.595L247.605,189.852L247.523,190.099L247.291,190.346L247.086,190.436L246.631,190.47L246.432,190.553L246.219,190.792L241.833,198.112L241.586,198.771L241.52,199.438L241.456,199.736L241.239,200.057L240.992,200.254L240.481,200.518L240.259,200.717L240.078,200.98L239.666,202.018L239.436,203.321L239.229,203.881L238.776,204.409L237.901,204.913L237.688,205.12L237.621,205.332L237.604,205.875L237.555,206.108L236.854,206.898L234.777,207.699L233.871,208.284L233.516,208.735L233.204,209.29L232.948,209.867L232.783,210.426L232.766,210.906L232.939,211.804L232.899,212.775L233.07,213.263L233.559,214.227L233.615,214.672L233.524,215.133L230.582,221.621L230.516,222.133L230.747,222.774L231.15,223.229L231.448,223.714L231.357,224.45L229.815,228.976L229.797,229.231L230.03,229.543L230.721,230.046L230.846,230.401L230.664,231.208L230.277,231.776L229.016,232.734L228.587,233.137L228.488,233.418L228.488,233.705L228.349,234.125L228.051,234.522L227.794,234.554L227.508,234.464L227.119,234.506L226.832,234.761L226.517,235.486L226.329,235.676L226.087,235.586L226.048,235.239L226.147,234.532L225.997,234.168L225.684,233.895L224.999,233.458L222.182,230.969L221.892,230.862L221.497,231.009L218.679,232.946L218.273,233.302L217.912,233.796L217.003,235.546L214.992,238.381L214.813,239.221L214.918,240.193L216.057,245.389L216.08,246.451L215.884,247.439L215.81,247.578L215.577,247.812L215.52,247.934L215.512,248.206L215.594,248.775L215.555,249.039L215.026,249.831L213.648,251.101L210.765,259.254L210.029,262.748L210.12,264.555L211.078,283.999L210.878,285.112L210.575,285.649L210.098,286.183L207.788,288.255L207.311,288.532L206.874,288.657L205.555,288.657L204.754,288.758L204.359,288.856L203.987,289.021L203.749,289.187L202.777,290.019L202.678,290.05L202.422,290.083L201.36,289.953L200.797,289.309L200.337,288.51L199.601,287.891L199.132,287.817L198.786,287.956L198.457,288.138L198.01,288.22L197.658,288.072L197.312,287.782L196.914,287.561L196.437,287.578L196.57,287.761L196.562,287.843L196.337,287.964L194.764,288.146L194.468,288.081L194.278,288.098L194.105,288.187L193.784,288.436L193.559,288.51L191.022,287.947L190.607,288.016L189.94,288.601L189.966,288.692L190.031,288.831L189.858,288.987L189.506,289.053L189.182,289.208L189.077,289.373L189.042,289.556L189.042,289.953L189.017,290.059L188.903,290.214L188.886,290.348L188.935,290.422L189.142,290.569L189.182,290.651L189.133,290.933L188.926,291.379L188.886,291.549L188.96,291.83L189.125,292.052L189.29,292.226L189.455,292.489L189.67,292.614L189.983,292.745L189.949,293.052L189.784,293.174L189.571,293.239L189.364,293.399L189.182,293.66L189.091,293.875L189.051,294.114L189.042,294.444L189.116,294.568L189.429,294.799L189.506,294.921L189.446,295.385L189.256,295.714L188.969,295.944L188.565,296.134L187.863,296.251L187.764,296.364L187.725,296.563L187.608,296.802L187.469,297.022L186.142,298.375L185.844,298.781L185.728,299.012L185.623,299.506L185.514,299.662L185.398,299.787L185.276,300.043L184.972,300.372L184.881,300.628L185.472,302.186L185.671,302.557L186.074,302.795L186.165,302.992L186.233,303.207L186.315,303.346L186.48,303.421L187.114,303.486L187.634,303.719L187.937,303.767L188.085,303.571L188.202,303.512L188.96,303.346L189.159,303.381L189.826,303.653L190.585,303.767L190.781,303.827L191.136,304.139L191.508,304.568L191.929,304.938L193.221,305.267L193.52,305.258L194.096,304.889L194.3,304.78L195.314,304.576L195.917,304.56L196.315,304.707L196.528,304.872L196.957,304.989L197.187,305.103L197.417,305.318L197.741,305.738L197.979,305.921L198.482,306.06L199.999,305.921L200.246,305.985L200.88,306.396L201.615,306.61L201.837,306.719L202.149,307.073L202.891,308.097L204.07,308.968L204.303,309.028L204.78,309.085L205.027,309.142L205.729,309.554L208.62,312.505L209.024,313.149L209.183,313.931L209.197,316.115L209.257,316.24L209.404,316.305L210.475,317.146L211.111,317.939L211.563,318.269L212,318.169L212.387,317.988L212.711,318.178L212.924,318.589L213.041,319.066L213.041,320.055L213.098,320.584L213.279,320.813L213.461,320.873L213.608,321.004L213.839,321.311L214.796,322.01L214.901,322.149L215.026,322.555L215.182,322.66L215.347,322.736L215.421,322.818L218.728,323.608L220.228,324.657L220.435,324.961L220.591,325.316L220.69,325.729L220.722,326.183L220.673,326.248L220.458,326.403L220.401,326.43L220.426,326.568L220.534,326.808L220.565,326.907L220.722,327.864L220.995,328.086L221.406,328.177L222.403,328.177L222.915,328.242L223.31,328.398L224.894,329.446L225.042,329.703L225.156,330.131L225.437,330.452L225.593,330.552L225.832,331.506L226.073,332.446L226.593,333.782L226.781,335.125L226.979,335.597L227.911,337.188L228.059,337.79L228.076,339.164L228.189,339.636L229.016,341.054L229.459,342.198L229.849,342.644L230.286,343.048L230.689,343.542L230.871,343.996L231.118,345.514L230.871,346.008L230.789,346.271L230.78,346.536L230.894,346.789L231.274,347.203L231.349,347.464L231.297,347.798L231.224,348.059L231.184,348.314L231.224,348.63L231.457,349.141L233.342,351.811L233.672,352.428L233.879,353.788L234.126,354.234L235.166,355.001L237.036,356.089L237.936,356.813L238.109,357.277L238.206,357.555L238.067,357.819L237.868,358.066L237.694,358.313L237.672,358.603L237.763,358.816L238.529,360.021L238.882,360.406L239.311,360.615L239.87,360.531L240.398,360.159L241.348,359.122L241.867,358.785L242.288,358.703L242.774,358.703L243.268,358.768L243.68,358.875L244.217,359.18L245.223,359.995L245.782,360.146L246.345,360.029L246.756,359.839L247.191,359.733L247.785,359.898L249.318,360.836L250.597,361.333L250.713,361.537L250.077,362.452L249.92,362.989L249.92,362.998L249.995,363.44L250.458,364.324L250.662,364.884L250.671,365.363L250.48,365.833L249.591,366.955L249.466,367.259L249.37,372.121L249.565,373.262L250.137,374.224L251.199,375.346L253.318,377.596L253.367,377.999L253.67,378.545L253.696,378.99L253.63,379.46L253.622,379.854L253.778,380.183L254.199,380.448L255.105,381.231L255.599,381.552L256.135,381.684L259.638,381.652L260.439,381.544L260.687,381.544L260.917,381.601L261.337,381.809L261.644,381.848L265.979,381.766L269.632,381.692L269.836,381.734L270.183,381.939L270.382,381.99L274.881,381.947L276.268,382.328L277.932,383.17L278.887,383.382L279.111,383.556L279.48,384.166L279.645,384.282L280.117,384.248L280.291,384.297L280.446,384.513L280.538,384.734L280.66,385.254L280.736,385.376L280.85,385.402L280.992,385.402L281.131,385.436L282.392,386.242L284.676,387.703L286.951,389.159L289.613,390.859L291.5,392.071L293.644,393.449L296.05,394.988L298.277,396.406L300.609,397.9L301.328,398.361L301.757,398.79L302.356,399.738L302.711,400.159L303.01,400.323L303.708,400.537L304.246,401.008L304.533,401.048L305.268,400.866L306.001,400.81L308.483,401.091L310.972,401.369L312.282,401.264L313.469,400.744L313.503,400.61L313.478,400.406L313.526,400.208L313.75,400.116L313.873,400.176L314.318,400.537L314.509,400.761L314.549,400.94L314.64,401.083L314.969,401.156L315.276,401.196L315.398,401.173L315.736,401.048L315.778,401.122L315.801,401.247L315.926,401.33L317.287,401.429L317.278,401.273L317.31,400.94L317.304,400.784L317.938,401.616L318.301,401.988L318.73,402.219L321.028,402.838L322.77,403.307L323.377,403.299L324.359,403.11L324.747,403.158L325.102,403.289L325.465,403.289L326.809,403.003L327.031,403.06L329.428,404.155L330.345,404.346L331.235,404.329L332.289,403.718L332.595,403.744L332.7,403.983L332.487,404.411L335.405,404.494L336.123,404.741L336.328,404.997L336.445,405.309L336.625,405.625L336.996,405.872L337.739,405.829L338.135,405.221L338.646,403.67L339.248,402.951L340.779,401.559L342.617,399.895L343.063,399.31L343.453,398.592L344.103,396.878L344.555,395.656L345.026,395.089L347.028,394.125L349.04,393.16L351.307,392.071L352.363,391.552L352.468,391.413L352.451,391.271L352.468,391.175L352.702,391.196L352.767,391.239L352.832,391.257L352.897,391.257L355.263,390.43L357.11,389.797L357.235,389.68L357.374,389.303L357.505,389.178L360.524,388.023L362.987,387.084L364.925,386.343L366.402,385.376L366.911,386.052L368.322,387.001L368.898,387.651L369.285,388.37L369.524,388.608L369.953,388.825L371.065,389.203L371.446,389.425L372.055,389.987L373.557,392.071L374.594,392.878L375.725,393.333L376.943,393.473L379.327,393.342L381.949,393.193L383.119,392.864L383.735,392.83L385.607,392.367L385.979,392.393L386.596,392.648L386.926,392.714L387.264,392.631L388.256,392.071L389.369,392.436L390.396,392.97L391.437,393.177L392.582,392.532L392.897,392.071L393.218,391.816L393.34,391.526L393.323,390.811L393.481,390.356L393.895,389.995L395.541,388.989L396.859,387.941L397.669,387.538L398.428,387.348L400.447,387.331L402.211,387.308L404.955,386.845L408.531,386.234L412.046,385.641L413.711,385.362L414.682,384.973L415.557,384.405L416.272,383.605L416.628,382.854L417.04,381.231L417.354,380.448L417.511,380.192L417.693,379.971L419.448,378.536L421.4,376.937L424.057,375.685L426.718,374.422L429.34,373.187L430.956,372.42L433.577,371.826L435.351,371.415L437.648,370.886L438.35,370.73L440.387,370.011L441.245,369.807L442.645,369.889L443.854,369.954L445.068,370.028L446.281,370.094L447.491,370.168L448.695,370.236L449.906,370.31L451.118,370.375L452.332,370.448L453.533,370.514L454.746,370.588L455.957,370.656L457.169,370.722L458.383,370.795L459.592,370.86L460.797,370.935L462.01,371.002L463.277,371.076L463.953,370.795L465.799,368.81L467.129,367.357L469.634,364.628L472.14,361.9L474.645,359.171L477.15,356.436L479.659,353.705L482.164,350.979L484.67,348.24L487.166,345.514L488.593,344.053L490.019,342.594L491.436,341.136L492.865,339.676L494.291,338.216L495.717,336.758L497.144,335.298L498.569,333.839L500.061,332.398L500.538,331.936L501.586,330.929L502.631,329.924L503.103,329.464L504.239,328.367L505.378,327.271L506.506,326.183L507.645,325.086L508.781,323.989L509.912,322.894L511.049,321.797L512.179,320.7L513.314,319.604L514.455,318.507L515.581,317.419L516.721,316.323L517.857,315.227L518.995,314.13L520.124,313.033L521.263,311.937L522.391,310.84L523.53,309.744L524.666,308.647L525.797,307.551L526.933,306.455L528.072,305.35L529.2,304.261L530.339,303.156L531.467,302.061L532.605,300.967L533.742,299.869L534.881,298.772L511.528,298.772Z"/>
        </clipPath>
        <g clip-path="url(#_clip1)">
            <rect x="84" y="134" width="552" height="276" style="fill:rgb(219,31,39);fill-rule:nonzero;"/>
            <rect x="84" y="134" width="552" height="184" style="fill:rgb(249,221,7);fill-rule:nonzero;"/>
            <rect x="84" y="134" width="552" height="92" style="fill:rgb(12,137,67);fill-rule:nonzero;"/>
            <path d="M360,180C410.81,180 452,221.19 452,272C452,322.811 410.81,364 360,364C309.19,364 268,322.811 268,272C268,221.19 309.19,180 360,180Z" style="fill:rgb(36,77,161);fill-rule:nonzero;"/>
            <path d="M360,198.114L376.524,248.97L415.65,248.97L407.208,255.104L350.351,255.104L352.343,248.97L370.075,248.97L356.775,208.038L360,198.114ZM429.998,248.97L386.736,280.401L398.827,317.612L390.386,311.479L372.815,257.403L379.265,257.403L384.744,274.269L419.563,248.97L429.998,248.97ZM403.261,331.258L360,299.827L328.346,322.824L331.571,312.9L377.57,279.479L379.563,285.613L365.217,296.036L400.036,321.334L403.261,331.258ZM316.739,331.258L333.263,280.401L301.61,257.403L312.044,257.403L358.043,290.824L352.826,294.614L338.48,284.191L325.181,325.124L316.739,331.258ZM290.002,248.97L343.476,248.97L355.566,211.759L358.791,221.684L341.22,275.759L336.003,271.968L341.483,255.104L298.444,255.104L290.002,248.97Z" style="fill:rgb(249,221,7);fill-rule:nonzero;"/>
            <path d="M392.082,282.424L429.998,294.743L392.082,282.424ZM379.827,244.709L403.261,212.457M340.172,244.709L316.739,212.457M327.917,282.424L290.002,294.743M360,305.733L360,345.6" style="fill:rgb(3,4,4);fill-rule:nonzero;"/>
            <path d="M338.932,245.61L315.499,213.358L317.979,211.555L341.413,243.808L338.932,245.61ZM381.068,245.61L378.587,243.808L402.021,211.555L404.501,213.358L381.068,245.61ZM290.476,296.201L289.528,293.285L327.444,280.966L328.392,283.882L290.476,296.201ZM429.523,296.201L391.608,283.882L392.557,280.966L430.472,293.285L429.523,296.201ZM361.533,345.6L358.467,345.6L358.467,305.733L361.533,305.733L361.533,345.6Z" style="fill:rgb(249,221,7);fill-rule:nonzero;"/>
        </g>
    </g>
</svg>
