<?xml version="1.0" encoding="UTF-8" standalone="no"?>
<!DOCTYPE svg PUBLIC "-//W3C//DTD SVG 1.1//EN" "http://www.w3.org/Graphics/SVG/1.1/DTD/svg11.dtd">
<svg width="100%" height="100%" viewBox="0 0 2222 730" version="1.1" xmlns="http://www.w3.org/2000/svg" xmlns:xlink="http://www.w3.org/1999/xlink" xml:space="preserve" xmlns:serif="http://www.serif.com/" style="fill-rule:evenodd;clip-rule:evenodd;stroke-linecap:round;stroke-linejoin:round;stroke-miterlimit:2;">
    <g transform="matrix(4.16667,0,0,4.16667,-385.092,-764.225)">
        <clipPath id="_clip1">
            <path d="M603.921,264.327L602.259,263.004L598.526,260.779L597.022,259.496L596.17,258.059L595.116,254.915L594.271,253.417L591.517,251.185L587.559,249.165L583.378,247.711L579.916,247.12L577.719,247.48L574.363,249.447L572.428,250.321L570.71,250.568L567.839,250.321L566.083,250.389L562.741,251.185L555.129,255.148L545.624,257.236L542.511,258.639L533.374,264.327L523.714,267.771L520.86,268.452L517.854,268.05L513.892,266.184L500.614,256.659L498.95,254.854L497.879,252.585L495.69,245.264L494.114,242.076L491.886,239.291L488.706,236.727L481.634,233.402L474.868,232.885L468.198,234.679L458.083,240.332L456.054,241.036L453.745,240.149L446.989,236.089L445.848,234.8L442.655,223.891L441.181,220.806L439.1,217.904L433.282,213.195L427.272,211.212L410.652,210.446L400.847,206.727L397.325,206.563L385.313,210.972L372.919,218.889L369.413,219.743L368.024,218.702L364.827,214.456L363.289,212.958L356.167,211.856L348.541,214.759L341.578,219.803L336.45,225.394L334.626,228.236L332.924,231.782L331.624,235.446L331.022,238.869L330.693,245.568L328.101,246.421L320.046,246.421L309.836,246.385L299.599,246.385L289.378,246.323L279.153,246.258L268.917,246.204L258.702,246.204L248.47,246.141L238.249,246.08L228.031,246.08L217.81,246.025L207.588,246.025L197.353,245.958L187.13,245.9L176.913,245.9L166.695,245.839L156.458,245.802L157.56,247.48L158.49,249.745L158.688,252.351L157.267,259.456L157.267,262.879L157.626,263.524L159.263,264.509L160.3,266.364L163.334,268.63L164.021,269.793L164.376,271.075L165.998,274.441L166.364,276.764L165.992,278.503L163.986,282.695L162.999,284.155L168.325,284.494L181.079,287.637L184.617,287.874L190.305,287.695L195.896,286.876L199.176,285.195L198.367,284.915L197.597,284.376L196.813,284.155L196.813,283.055L197.513,282.811L199.176,281.989L198.184,280.086L198.535,278.682L201.317,276.119L201.998,278.047L201.688,280.025L201.206,281.771L201.317,283.055L202.714,284.029L203.959,283.573L205.16,282.532L206.423,281.989L207.989,280.823L214.907,273.854L219.509,270.374L222.492,268.81L225.571,268.109L228.833,268.568L234.036,270.49L286.786,266.364L292.66,264.564L299.889,260.621L302.873,259.977L305.757,260.323L310.177,262.424L312.988,262.241L314.639,261.201L317.057,257.933L318.716,256.59L321.968,255.675L324.135,256.194L325.975,257.117L328.269,257.654L328.958,257.993L329.959,258.819L331.216,259.618L332.705,259.977L334.061,259.618L335.468,259.034L336.922,258.755L338.375,259.456L342.36,263.048L345.082,264.965L347.424,265.789L349.98,266.184L355.626,267.771L358.712,268.109L360.542,267.468L362.257,265.908L363.451,263.622L363.765,261.085L365,261.085L363.337,267.992L357.449,270.438L350.216,269.975L344.576,268.109L342.826,266.427L341.277,264.043L339.253,262.002L336.136,261.085L334.608,261.481L332.907,262.18L331.141,262.466L329.434,261.661L327.979,260.566L326.105,259.496L324.06,258.876L322.083,258.917L320.49,260.037L317.874,264.162L316.465,265.789L314.603,267.125L313.031,267.814L311.315,268.05L309,268.109L307.381,267.534L305.037,265.089L303.433,264.564L301.905,264.965L298.812,267.229L297.258,268.109L287.67,271.075L284.279,271.415L273.657,270.19L270.066,270.374L269.578,270.733L268.917,271.415L268.037,272.177L266.805,272.697L265.251,272.994L264.418,272.938L263.506,272.814L261.698,272.697L258.557,272.994L249.751,275.079L226.655,273.854L223.978,272.759L222.357,272.481L221.645,273.277L221.124,275.022L219.893,276.36L213.304,281.887L211.95,283.968L211.418,287.058L211.523,288.456L211.811,289.779L212.348,290.781L213.158,291.177L214.204,291.878L214.547,293.507L214.637,295.369L215.399,299.957L216.099,300.935L217.663,299.834L218.989,298.51L220.505,297.573L222.167,296.991L223.997,296.813L223.997,298.032L218.36,301.119L214.377,302.276L211.418,301.533L211.016,298.51L211.703,294.67L211.016,291.359L206.423,289.903L203.143,290.838L197.077,294.851L194.01,295.766L191.327,297.116L189.104,299.436L187.199,300.135L185.563,296.813L183.571,297.81L181.321,298.147L176.49,298.032L176.49,299.195L178.742,299.026L180.53,299.614L181.689,300.998L182.097,303.158L182.735,303.621L185.737,306.702L186.7,308.388L184.555,306.759L183.095,306.827L179.856,309.553L180.829,307.165L180.753,304.204L179.816,301.578L178.213,300.413L174.868,300.135L173.177,299.313L171.894,298.147L169.752,296.813L167.382,296.13L159.059,295.766L157.715,294.787L151.649,287.637L152.03,284.79L150.871,279.782L148.707,274.955L146.122,272.697L148.011,270.674L150.751,270.49L152.541,269.975L151.649,266.946L149.902,265.145L147.356,264.162L144.423,264.267L141.536,265.789L139.835,264.965L138.422,264.043L137.481,262.823L137.138,261.085L132.935,264.617L123.305,276.418L121.419,277.922L119.274,279.082L117.275,279.569L115.563,280.67L113.781,285.83L112.317,287.637L113.859,291.422L114.458,292.344L113.169,295.029L113.912,297.231L116.701,300.413L117.634,302.699L118.015,304.842L117.613,312.753L117.745,314.713L120.929,323.021L121.227,325.59L120.075,327.971L119.375,329.375L119.767,330.535L122.332,331.396L124.824,333.56L124.973,329.653L125.578,327.792L126.615,326.411L129.218,323.849L129.737,322.284L132.177,318.154L137.92,316.873L145.082,316.942L172.207,317.156L197.213,317.4L233.641,317.732L255.09,317.919L270.06,318.099L276.229,318.099L277.337,317.275L277.641,305.36L277.982,290.781L278.639,288.456L280.541,287.336L292.022,286.296L299.414,283.913L301.483,283.852L312.589,284.952L315.273,284.674L320.229,283.055L324.034,280.95L327.876,279.505L333.014,279.72L350.98,283.573L357.046,283.573L362.405,282.593L367.794,280.547L372.531,277.409L375.913,272.994L376.919,268.35L377.538,257.933L379.831,254.213L386.985,246.782L390.743,245.264L395.278,248.222L402.675,255.148L410.841,261.085L410.871,261.085L410.899,261.14L410.931,261.14L421.686,266.649L427.253,268.109L433.562,268.63L436.038,269.33L441.532,272.697L444.56,273.698L447.919,274.317L449.683,275.438L453.006,280.025L457.593,284.155L463.103,286.475L469.106,287.181L475.214,286.475L480.556,285.13L482.429,285.774L488.663,291.587L490.849,292.862L493.229,293.507L498.41,293.741L500.604,294.385L502.442,296.231L503.71,297.932L505.261,299.373L507.016,300.535L513.008,303.621L517.313,304.842L521.763,305.183L531.121,304.381L540.067,306.061L544.836,305.881L548.43,304.143L556.329,298.147L558.802,297.047L561.647,297.116L568.718,294.549L575.348,294.45L581.962,292.685L594.396,291.587L602.55,288.037L607.241,280.895L607.868,272.293L603.921,264.327Z"/>
        </clipPath>
        <g clip-path="url(#_clip1)">
            <rect x="92.422" y="183.414" width="533.155" height="58.391" style="fill:rgb(207,32,40);fill-rule:nonzero;"/>
            <rect x="92.422" y="241.805" width="533.155" height="58.39" style="fill:white;fill-rule:nonzero;"/>
            <rect x="92.422" y="251.537" width="533.155" height="38.927" style="fill:rgb(42,51,131);fill-rule:nonzero;"/>
            <rect x="92.422" y="300.195" width="533.155" height="58.391" style="fill:rgb(59,120,57);fill-rule:nonzero;"/>
        </g>
    </g>
    <g transform="matrix(4.16667,0,0,4.16667,-385.092,-764.225)">
        <path d="M603.921,264.327L602.259,263.004L598.526,260.779L597.022,259.496L596.17,258.059L595.116,254.915L594.271,253.417L591.517,251.185L587.559,249.165L583.378,247.711L579.916,247.12L577.719,247.48L574.363,249.447L572.428,250.321L570.71,250.568L567.839,250.321L566.083,250.389L562.741,251.185L555.129,255.148L545.624,257.236L542.511,258.639L533.374,264.327L523.714,267.771L520.86,268.452L517.854,268.05L513.892,266.184L500.614,256.659L498.95,254.854L497.879,252.585L495.69,245.264L494.114,242.076L491.886,239.291L488.706,236.727L481.634,233.402L474.868,232.885L468.198,234.679L458.083,240.332L456.054,241.036L453.745,240.149L446.989,236.089L445.848,234.8L442.655,223.891L441.181,220.806L439.1,217.904L433.282,213.195L427.272,211.212L410.652,210.446L400.847,206.727L397.325,206.563L385.313,210.972L372.919,218.889L369.413,219.743L368.024,218.702L364.827,214.456L363.289,212.958L356.167,211.856L348.541,214.759L341.578,219.803L336.45,225.394L334.626,228.236L332.924,231.782L331.624,235.446L331.022,238.869L330.693,245.568L328.101,246.421L320.046,246.421L309.836,246.385L299.599,246.385L289.378,246.323L279.153,246.258L268.917,246.204L258.702,246.204L248.47,246.141L238.249,246.08L228.031,246.08L217.81,246.025L207.588,246.025L197.353,245.958L187.13,245.9L176.913,245.9L166.695,245.839L156.458,245.802L157.56,247.48L158.49,249.745L158.688,252.351L157.267,259.456L157.267,262.879L157.626,263.524L159.263,264.509L160.3,266.364L163.334,268.63L164.021,269.793L164.376,271.075L165.998,274.441L166.364,276.764L165.992,278.503L163.986,282.695L162.999,284.155L168.325,284.494L181.079,287.637L184.617,287.874L190.305,287.695L195.896,286.876L199.176,285.195L198.367,284.915L197.597,284.376L196.813,284.155L196.813,283.055L197.513,282.811L199.176,281.989L198.184,280.086L198.535,278.682L201.317,276.119L201.998,278.047L201.688,280.025L201.206,281.771L201.317,283.055L202.714,284.029L203.959,283.573L205.16,282.532L206.423,281.989L207.989,280.823L214.907,273.854L219.509,270.374L222.492,268.81L225.571,268.109L228.833,268.568L234.036,270.49L286.786,266.364L292.66,264.564L299.889,260.621L302.873,259.977L305.757,260.323L310.177,262.424L312.988,262.241L314.639,261.201L317.057,257.933L318.716,256.59L321.968,255.675L324.135,256.194L325.975,257.117L328.269,257.654L328.958,257.993L329.959,258.819L331.216,259.618L332.705,259.977L334.061,259.618L335.468,259.034L336.922,258.755L338.375,259.456L342.36,263.048L345.082,264.965L347.424,265.789L349.98,266.184L355.626,267.771L358.712,268.109L360.542,267.468L362.257,265.908L363.451,263.622L363.765,261.085L365,261.085L363.337,267.992L357.449,270.438L350.216,269.975L344.576,268.109L342.826,266.427L341.277,264.043L339.253,262.002L336.136,261.085L334.608,261.481L332.907,262.18L331.141,262.466L329.434,261.661L327.979,260.566L326.105,259.496L324.06,258.876L322.083,258.917L320.49,260.037L317.874,264.162L316.465,265.789L314.603,267.125L313.031,267.814L311.315,268.05L309,268.109L307.381,267.534L305.037,265.089L303.433,264.564L301.905,264.965L298.812,267.229L297.258,268.109L287.67,271.075L284.279,271.415L273.657,270.19L270.066,270.374L269.578,270.733L268.917,271.415L268.037,272.177L266.805,272.697L265.251,272.994L264.418,272.938L263.506,272.814L261.698,272.697L258.557,272.994L249.751,275.079L226.655,273.854L223.978,272.759L222.357,272.481L221.645,273.277L221.124,275.022L219.893,276.36L213.304,281.887L211.95,283.968L211.418,287.058L211.523,288.456L211.811,289.779L212.348,290.781L213.158,291.177L214.204,291.878L214.547,293.507L214.637,295.369L215.399,299.957L216.099,300.935L217.663,299.834L218.989,298.51L220.505,297.573L222.167,296.991L223.997,296.813L223.997,298.032L218.36,301.119L214.377,302.276L211.418,301.533L211.016,298.51L211.703,294.67L211.016,291.359L206.423,289.903L203.143,290.838L197.077,294.851L194.01,295.766L191.327,297.116L189.104,299.436L187.199,300.135L185.563,296.813L183.571,297.81L181.321,298.147L176.49,298.032L176.49,299.195L178.742,299.026L180.53,299.614L181.689,300.998L182.097,303.158L182.735,303.621L185.737,306.702L186.7,308.388L184.555,306.759L183.095,306.827L179.856,309.553L180.829,307.165L180.753,304.204L179.816,301.578L178.213,300.413L174.868,300.135L173.177,299.313L171.894,298.147L169.752,296.813L167.382,296.13L159.059,295.766L157.715,294.787L151.649,287.637L152.03,284.79L150.871,279.782L148.707,274.955L146.122,272.697L148.011,270.674L150.751,270.49L152.541,269.975L151.649,266.946L149.902,265.145L147.356,264.162L144.423,264.267L141.536,265.789L139.835,264.965L138.422,264.043L137.481,262.823L137.138,261.085L132.935,264.617L123.305,276.418L121.419,277.922L119.274,279.082L117.275,279.569L115.563,280.67L113.781,285.83L112.317,287.637L113.859,291.422L114.458,292.344L113.169,295.029L113.912,297.231L116.701,300.413L117.634,302.699L118.015,304.842L117.613,312.753L117.745,314.713L120.929,323.021L121.227,325.59L120.075,327.971L119.375,329.375L119.767,330.535L122.332,331.396L124.824,333.56L124.973,329.653L125.578,327.792L126.615,326.411L129.218,323.849L129.737,322.284L132.177,318.154L137.92,316.873L145.082,316.942L172.207,317.156L197.213,317.4L233.641,317.732L255.09,317.919L270.06,318.099L276.229,318.099L277.337,317.275L277.641,305.36L277.982,290.781L278.639,288.456L280.541,287.336L292.022,286.296L299.414,283.913L301.483,283.852L312.589,284.952L315.273,284.674L320.229,283.055L324.034,280.95L327.876,279.505L333.014,279.72L350.98,283.573L357.046,283.573L362.405,282.593L367.794,280.547L372.531,277.409L375.913,272.994L376.919,268.35L377.538,257.933L379.831,254.213L386.985,246.782L390.743,245.264L395.278,248.222L402.675,255.148L410.841,261.085L410.871,261.085L410.899,261.14L410.931,261.14L421.686,266.649L427.253,268.109L433.562,268.63L436.038,269.33L441.532,272.697L444.56,273.698L447.919,274.317L449.683,275.438L453.006,280.025L457.593,284.155L463.103,286.475L469.106,287.181L475.214,286.475L480.556,285.13L482.429,285.774L488.663,291.587L490.849,292.862L493.229,293.507L498.41,293.741L500.604,294.385L502.442,296.231L503.71,297.932L505.261,299.373L507.016,300.535L513.008,303.621L517.313,304.842L521.763,305.183L531.121,304.381L540.067,306.061L544.836,305.881L548.43,304.143L556.329,298.147L558.802,297.047L561.647,297.116L568.718,294.549L575.348,294.45L581.962,292.685L594.396,291.587L602.55,288.037L607.241,280.895L607.868,272.293L603.921,264.327Z" style="fill:none;stroke:rgb(153,153,153);stroke-width:0.25px;"/>
    </g>
</svg>
