<?xml version="1.0" encoding="UTF-8" standalone="no"?>
<!DOCTYPE svg PUBLIC "-//W3C//DTD SVG 1.1//EN" "http://www.w3.org/Graphics/SVG/1.1/DTD/svg11.dtd">
<svg width="100%" height="100%" viewBox="0 0 1942 1295" version="1.1" xmlns="http://www.w3.org/2000/svg" xmlns:xlink="http://www.w3.org/1999/xlink" xml:space="preserve" xmlns:serif="http://www.serif.com/" style="fill-rule:evenodd;clip-rule:evenodd;stroke-linecap:round;stroke-linejoin:round;stroke-miterlimit:2;">
    <g transform="matrix(4.16667,0,0,4.16667,-531.067,-477.775)">
        <clipPath id="_clip1">
            <path d="M387.279,152.371L387.164,152.725L387.085,153.126L387.178,154.007L387.313,154.445L387.513,154.692L387.585,154.729L387.628,154.775L387.686,154.814L387.779,154.82L387.779,154.534L387.914,154.534L388.185,154.737L388.436,154.854L389.171,154.972L389.465,154.839L389.584,154.82L389.584,154.869L389.621,154.965L389.685,155.068L389.784,155.115L389.991,155.102L390.212,155.061L390.414,154.97L390.549,154.82L390.527,154.554L390.284,154.337L390.005,154.15L389.863,153.986L389.971,153.712L390.197,153.333L390.306,152.994L390.063,152.846L390.05,152.629L389.892,152.167L389.69,151.744L389.514,151.641L389.728,151.284L389.749,150.937L389.584,150.681L389.234,150.575L388.814,150.598L388.586,150.696L388.5,150.932L388.478,151.357L388.541,151.525L388.671,151.682L388.771,151.839L388.741,151.999L388.586,152.085L388.385,152.063L388.185,151.972L388.05,151.844L387.786,151.961L387.464,151.818L387.164,151.727L386.964,151.999L387.265,152.115L387.279,152.371ZM423.048,223.933L422.878,224.206L422.807,224.533L422.771,224.861L422.698,225.16L421.328,227.304L420.878,227.823L420.708,228.103L420.642,228.467L420.622,229.052L420.57,229.323L420.487,229.608L419.999,230.659L419.894,231.203L420.071,231.779L420.449,231.309L421.021,230.067L421.741,229.094L422.728,226.939L423.262,225.311L423.989,223.798L424.076,223.291L423.299,223.741L423.048,223.933ZM433.666,193.218L433.501,192.539L433.23,192.031L432.98,191.84L432.71,191.69L432.503,191.468L432.33,190.76L432.123,190.426L431.146,189.227L430.772,188.664L429.332,185.465L429.091,184.136L428.952,183.765L428.795,183.502L428.554,183.323L428.018,183.044L427.834,182.793L428.288,182.527L428.461,181.859L428.403,181.1L427.853,179.974L427.703,177.666L427.454,176.682L427.418,176.318L427.461,175.998L427.661,175.354L427.911,173.762L427.897,173.164L427.555,172.548L427.053,172.076L426.91,171.835L426.869,171.406L426.891,170.668L426.955,170.305L427.132,169.729L427.161,168.986L427.104,168.393L426.696,166.851L426.482,162.722L426.298,162.045L425.833,161.068L425.675,160.837L425.562,160.502L425.728,159.796L425.675,159.568L425.619,159.444L425.619,159.331L425.596,159.248L425.477,159.218L425.391,159.211L425.312,159.188L425.248,159.147L425.198,159.061L425.135,158.919L425.056,158.49L425.056,158.318L425.082,157.946L425.056,157.782L424.977,157.668L424.733,157.481L424.642,157.368L424.413,156.805L424.121,155.597L424.076,155.046L424.234,154.347L424.256,153.988L424.076,153.689L423.861,153.664L423.641,153.781L423.399,153.855L423.127,153.689L423.043,153.385L423.112,152.499L423.048,152.143L422.499,151.335L422.421,151.075L422.398,150.745L422.308,150.329L422.284,150.017L422.463,148.353L422.421,147.246L422.314,147.047L421.849,146.488L421.741,146.193L421.657,145.773L421.448,145.593L421.17,145.504L420.899,145.353L420.607,144.988L420.686,144.834L420.907,144.77L421.051,144.663L421.035,144.245L420.851,144.085L420.57,144.068L420.285,144.087L420.035,143.998L419.842,143.78L419.585,143.236L419.557,143.044L419.649,142.527L419.557,142.392L419.05,141.917L418.816,141.745L418.543,141.612L418.265,141.54L418.321,141.465L418.415,141.26L418.145,141.152L417.916,141.189L417.773,141.367L417.673,141.932L417.552,142.122L417.417,142.295L417.3,142.527L417.138,142.419L416.966,142.392L416.786,142.429L416.608,142.527L416.708,142.261L416.973,141.809L417.022,141.54L416.979,141.317L416.779,140.878L416.736,140.613L416.58,140.253L416.223,139.843L415.81,139.479L415.51,139.28L415.288,139.304L415.13,139.453L414.995,139.472L414.803,139.124L414.744,138.876L414.759,138.652L414.846,138.433L415.01,138.217L415.115,137.765L414.815,136.588L414.938,136.032L414.931,136.603L414.987,136.858L415.152,137.085L415.352,137.125L415.4,136.858L415.352,136.312L415.231,135.877L414.668,134.615L414.274,135.098L414.037,135.068L413.774,134.74L413.282,134.334L413.502,134.133L413.724,134.157L413.967,134.266L414.252,134.334L414.402,134.231L414.396,133.997L414.274,133.741L413.925,133.404L413.839,133.25L413.719,133.134L413.41,133.082L413.126,133.109L412.904,133.203L412.731,133.374L412.589,133.643L412.573,133.19L412.424,132.917L412.217,132.687L412.025,132.366L411.961,132.081L411.954,131.842L411.897,131.603L411.313,130.688L411.084,130.545L410.711,130.752L410.618,131.027L410.903,131.603L410.79,131.958L410.625,132.068L410.434,132.1L410.032,132.085L409.833,132.034L409.84,131.908L409.927,131.771L409.953,131.667L409.739,131.353L409.575,131.21L409.413,131.293L409.198,131.667L409.063,131.82L408.955,131.746L408.891,131.564L408.854,131.383L408.905,131.269L409.198,131.022L409.262,130.886L409.104,130.71L408.733,130.585L408.313,130.521L408.013,130.531L408.347,129.913L408.404,129.669L408.163,129.546L408.22,129.315L408.327,129.108L408.482,128.951L408.704,128.843L408.756,129.124L408.905,129.414L409.127,129.633L409.405,129.699L409.555,129.571L409.69,129.337L409.84,129.158L410.032,129.194L410.79,130.049L410.911,130.039L410.869,129.733L410.512,128.974L410.427,128.358L410.482,127.826L410.427,127.327L410.032,126.806L409.897,126.561L409.89,125.967L409.755,125.673L409.198,125.04L408.989,124.892L408.626,124.809L408.268,125.014L407.663,125.673L407.606,125.824L407.642,125.974L407.706,126.102L407.734,126.166L407.676,126.215L407.469,126.307L407.386,126.407L407.247,126.516L407.128,126.659L407.041,126.868L407.456,126.954L407.749,127.301L407.904,127.748L407.885,128.144L407.734,127.992L407.6,128.144L406.942,127.222L406.635,127.007L406.334,127.357L405.521,127.613L405.25,127.992L405.997,127.952L406.215,127.992L406.377,128.09L406.462,128.213L406.526,128.336L406.635,128.425L406.863,128.483L407.013,128.469L407.149,128.503L407.318,128.705L407.441,128.98L407.391,129.089L407.198,129.124L407.056,129.247L406.897,129.345L406.741,129.473L406.635,129.699L406.613,129.926L406.677,130.095L406.748,130.246L406.77,130.403L406.656,130.784L406.428,131.121L406.121,131.229L405.79,130.95L405.506,131.249L405.242,131.754L404.983,132.032L404.687,131.667L404.442,131.968L404.198,132.12L403.992,132.294L403.857,132.661L403.601,132.543L403.313,132.617L403.05,132.819L402.878,133.082L402.844,133.248L402.878,133.538L402.878,133.643L402.651,134.084L402.6,134.206L402.551,135.303L402.465,135.608L402.273,135.836L401.965,136.041L401.65,136.141L401.429,136.018L400.816,134.842L400.388,134.473L399.694,134.334L399.194,134.305L398.973,134.246L398.737,134.13L398.508,134.15L398.151,134.711L397.91,134.908L398.737,135.316L398.789,134.915L398.958,135.193L399.273,136.032L399.923,136.625L400.107,136.972L400.114,137.577L400.415,137.415L400.692,137.307L400.93,137.332L401.079,137.577L401.038,137.637L400.809,138.143L400.816,138.281L400.93,138.534L400.944,138.702L400.872,138.849L400.757,138.95L400.667,139.071L400.658,139.28L400.744,139.491L400.844,139.511L400.959,139.481L401.079,139.56L401.387,140.003L401.458,140.229L401.563,141.154L401.643,141.386L401.772,141.668L401.943,141.917L402.351,142.402L402.465,142.665L402.423,143.217L402.101,144.55L402.187,145.071L401.965,145.175L401.695,145.44L401.458,145.746L401.357,145.982L401.309,146.238L401.188,146.569L401.03,146.887L400.473,147.64L400.201,148.216L399.743,149.842L399.702,150.186L399.688,150.866L399.751,151.188L400.051,151.667L400.114,151.921L399.359,152.832L399.073,153.422L399.423,153.83L398.924,154.47L398.26,155.041L397.524,155.469L396.788,155.678L396.567,155.65L396.331,155.582L396.075,155.54L395.823,155.602L395.575,155.712L395.382,155.742L395.189,155.7L394.119,155.277L393.747,155.029L393.74,154.692L393.54,154.485L393.398,154.249L393.218,154.057L392.896,153.986L392.825,154.551L392.832,154.837L392.896,155.115L393.034,155.356L393.391,155.818L393.549,156.399L393.905,157.117L393.947,157.304L393.755,157.349L393.511,157.221L393.047,156.805L393.054,156.911L393.041,157.127L393.047,157.225L392.805,157.195L392.435,157.21L392.055,157.274L391.792,157.368L391.59,157.575L391.376,157.89L391.206,158.262L391.105,158.64L390.513,157.767L390.271,157.654L389.885,157.826L389.979,158.198L390.414,158.926L390.342,159.211L389.971,159.875L389.863,160.21L389.849,161.294L389.705,161.617L390.05,162.151L389.764,162.658L389.184,163.037L388.613,163.189L388.163,163.074L387.564,162.781L387.036,162.387L386.807,161.975L387.021,161.723L387.065,161.561L386.75,161.445L386.687,161.339L386.672,161.196L386.672,161.053L386.622,160.709L386.271,159.769L386.179,159.267L386.022,158.84L385.715,158.667L385.15,158.926L385.05,158.561L384.979,157.989L384.836,157.462L384.521,157.225L383.78,157.225L383.808,157.376L384.173,157.782L383.859,157.904L383.78,158.067L383.773,158.254L383.694,158.426L383.451,158.524L383.294,158.411L383.251,158.183L383.357,157.934L383.244,157.976L383.045,158.013L382.929,158.077L382.794,157.762L382.914,157.533L383.123,157.363L383.21,157.225L383.045,157.012L382.839,157.012L382.624,157.142L382.444,157.304L382.359,158.224L382.193,158.731L381.888,158.712L381.48,158.574L381.209,159.004L381.045,159.617L380.987,160.055L381.025,160.566L381.218,160.758L381.466,160.874L381.675,161.196L380.797,161.595L380.631,162.747L380.946,164.102L381.474,165.094L381.702,165.271L382.516,165.6L383.495,166.235L383.495,166.494L381.952,167.301L382.696,167.999L383.136,168.314L383.938,168.592L384.122,168.957L384.173,169.434L384.173,169.914L384.052,170.356L383.501,171.097L383.357,171.555L383.395,171.798L383.516,172.057L383.672,172.293L383.83,172.477L383.838,172.647L383.623,172.833L383.364,172.996L383.21,173.126L383.188,173.318L383.215,173.562L383.202,173.798L383.067,173.96L382.794,173.96L382.673,173.698L382.644,173.375L382.644,173.19L382.707,172.647L383.001,171.583L383.067,171.056L383.15,170.792L383.315,170.59L383.443,170.398L383.424,170.128L383.294,169.963L383.132,169.872L382.959,169.808L382.794,169.714L381.96,169.121L381.531,168.991L381.259,169.276L381.659,169.513L381.967,170.004L382.167,170.578L382.238,171.056L382.208,171.342L382.129,171.692L382.001,172.034L381.822,172.264L381.659,172.319L381.259,172.264L380.987,172.332L380.332,172.369L379.396,171.692L378.911,171.839L378.74,172.061L378.653,172.283L378.623,172.897L378.567,173.228L378.418,173.397L377.932,173.689L377.52,174.219L377.269,174.875L377.14,175.575L377.104,176.468L377.147,176.532L377.377,176.711L377.339,176.768L377.253,176.839L377.246,176.96L377.591,177.681L377.682,177.782L377.761,177.897L377.797,178.094L377.753,178.232L377.546,178.438L377.505,178.522L377.605,178.753L378.025,179.508L378.146,179.666L378.354,179.565L378.604,179.316L379.176,178.532L379.318,178.638L379.438,178.938L379.603,179.23L379.91,179.482L380.188,179.546L380.452,179.497L380.71,179.388L381.346,179.009L381.652,178.96L382.031,179.167L382.475,179.645L382.73,179.86L383.001,179.952L383.409,180.278L383.595,181.036L383.595,181.893L383.488,182.508L383.15,183.029L383.038,182.636L383.067,181.224L382.91,180.552L382.509,180.116L381.975,180.052L381.416,180.51L381.687,180.722L381.859,181.145L381.83,181.603L381.537,181.937L381.495,181.682L381.517,181.194L381.416,180.943L381.194,180.786L380.561,180.616L380.296,180.51L379.896,180.159L379.039,178.96L378.945,179.403L378.661,179.61L378.36,179.781L378.226,180.095L378.146,180.38L377.962,180.688L377.505,181.217L377.396,181.292L377.047,181.46L376.896,181.578L376.818,181.735L376.818,182.114L376.761,182.286L376.104,182.958L376.011,183.216L375.905,183.822L374.456,186.585L374.341,186.927L374.362,187.471L374.298,187.663L374.069,187.482L373.491,187.951L373.235,188.491L373.041,189.078L372.677,189.641L372.478,189.797L371.813,190.162L371.57,190.211L371.285,190.057L371.221,189.797L371.428,187.256L371.635,186.637L371.942,186.142L373.105,184.787L373.327,184.279L373.378,184.221L373.312,184.008L373.184,183.908L373.056,183.866L372.962,183.788L372.892,183.465L372.978,182.192L372.947,181.979L372.535,181.501L372.414,181.251L372.328,181.017L372.2,180.938L371.921,181.145L369.393,183.814L368.787,184.787L368.656,184.787L368.972,185.256L369.156,185.376L369.472,185.357L369.7,185.244L369.821,184.907L370.042,184.712L370.372,184.778L370.5,185.214L370.442,185.691L370.178,185.928L369.7,185.977L369.243,186.135L368.822,186.378L367.801,187.34L367.523,187.714L367.08,188.939L366.322,189.613L365.451,190.185L364.781,190.785L364.23,191.555L364.054,192.005L364.088,192.475L364.23,192.654L364.572,192.846L364.696,193.275L364.846,193.375L365.075,193.382L365.345,193.339L365.15,193.845L365.124,194.082L365.181,194.352L365.766,194.082L365.946,194.052L366.202,194.066L366.266,194.13L366.258,194.259L366.544,195.582L366.881,196.217L366.951,196.311L367.129,196.409L367.302,196.467L367.466,196.473L367.602,196.507L367.681,196.623L367.616,196.994L367.294,197.216L366.565,197.494L365.901,197.272L365.274,197.453L364.639,197.794L363.953,198.052L363.239,198.159L362.86,198.279L362.632,198.485L362.447,199.179L362.297,199.465L362.075,199.42L362.012,198.928L362.253,198.223L363.16,196.416L363.367,196.194L363.675,195.989L363.931,195.779L364.23,195.245L364.438,194.975L364.438,194.716L364.096,194.489L363.404,194.205L363.082,194.024L362.867,193.845L362.703,193.631L362.46,193.117L362.425,193.004L362.433,192.453L362.402,192.261L362.339,192.104L362.211,192.031L361.896,192.104L361.333,192.404L360.483,192.659L358.956,194.052L356.869,195.56L355.706,195.846L355.491,196.066L355.563,196.273L356.19,196.443L356.456,196.623L355.999,196.758L355.465,196.753L354.928,196.808L354.448,197.13L354.215,197.359L353.351,197.988L352.8,198.5L352.578,198.628L352.571,198.496L352.529,198.394L352.484,198.309L352.458,198.2L351.985,198.545L350.709,199.986L349.809,200.7L349.422,201.098L349.203,201.863L348.902,202.437L348.84,202.776L348.938,202.928L349.173,202.928L349.444,202.892L349.666,202.919L349.888,203.233L349.801,203.647L349.267,204.492L349.016,204.701L348.78,204.833L348.746,204.976L349.117,205.197L349.294,205.234L349.943,205.197L350.442,205.377L351.287,206.161L351.678,206.338L352.165,207.205L352.387,207.761L352.18,207.925L351.764,207.604L351.415,207.104L351.029,206.732L350.494,206.782L350.637,207.155L350.651,207.611L350.48,207.977L350.079,208.068L349.924,207.948L349.695,207.547L349.529,207.498L349.417,207.633L349.395,207.884L349.41,208.154L349.388,208.354L348.944,207.982L348.622,207.588L347.909,206.127L347.653,205.749L347.331,205.418L346.896,205.055L347.259,204.784L347.402,204.483L347.496,204.149L347.732,203.777L347.574,203.593L347.487,203.391L347.459,203.169L347.459,202.928L347.36,202.786L347.124,202.698L346.617,202.634L345.611,202.634L345.123,202.734L344.676,202.919L344.203,203.207L343.726,203.579L343.311,204.012L343.013,204.492L342.897,204.949L343.168,204.818L343.64,204.449L344.133,204.206L344.125,204.569L343.975,204.791L343.79,204.976L343.704,205.197L343.832,205.557L344.031,205.813L344.031,205.94L343.569,205.926L343.013,205.625L342.84,205.61L342.499,205.64L342.326,205.625L342.026,205.561L341.861,205.482L341.79,205.313L341.771,204.985L341.812,204.3L341.655,204.115L341.22,204.048L340.904,204.063L340.634,204.119L340.378,204.213L339.15,204.927L338.692,204.998L337.964,204.528L337.664,204.492L337.35,204.492L337.049,204.419L336.714,204.285L336.507,204.3L335.837,204.727L335.187,205.418L335.043,205.714L335.156,205.898L335.371,206.078L335.528,206.338L335.543,206.555L335.493,206.718L335.423,206.875L335.378,207.055L335.365,207.588L335.378,207.64L335.223,207.874L334.9,208.196L334.845,208.433L335.052,209.51L334.859,209.867L334.702,209.912L334.563,209.51L334.207,209.682L334.194,209.468L334.416,208.868L334.409,208.568L334.38,208.489L334.301,208.44L334.151,208.218L334,207.64L333.737,207.81L333.588,207.884L333.451,207.925L330.146,208.282L329.961,208.455L329.969,208.71L330.138,209.069L330.374,209.318L330.775,209.468L330.824,209.653L330.688,209.976L330.404,210.174L329.717,210.433L329.495,210.64L329.323,210.902L329.124,211.132L328.816,211.23L328.497,211.166L328.347,210.996L328.31,210.718L328.339,210.359L328.452,209.941L328.46,209.796L328.452,209.596L328.433,209.498L328.076,208.331L328.047,207.667L328.004,207.367L327.862,207.239L327.067,207.783L325.825,208.317L325.276,208.64L324.826,209.075L324.368,209.641L323.685,210.797L323.283,211.294L322.697,211.672L321.521,212.231L321.684,212.374L321.413,212.494L320.835,212.581L320.558,212.66L320.279,212.829L320.13,213.001L319.998,213.203L319.807,213.452L319.521,213.545L319.157,213.444L318.808,213.245L318.316,212.839L318.064,212.824L317.523,212.952L313.11,212.524L312.419,212.637L311.74,212.637L311.409,212.73L311.247,212.923L311.177,213.208L311.117,214.386L311.068,214.664L310.925,214.894L310.74,215.107L310.546,215.393L310.39,215.688L310.305,215.951L310.354,216.628L310.662,217.263L311.418,218.407L311.612,218.993L311.619,219.578L311.461,220.156L311.139,220.698L311.124,220.186L310.91,220.085L310.682,220.321L310.583,220.828L310.662,221.255L311.034,222.149L311.139,222.563L310.962,223.498L310.368,224.326L309.668,225.104L309.135,225.883L308.748,226.76L308.504,227.153L308.177,227.524L308.027,227.739L307.861,228.216L307.757,228.388L307.206,228.959L307.063,229.18L306.378,230.987L305.884,231.793L305.32,231.779L305.256,232.773L305.192,233.073L305.042,233.378L304.712,233.714L303.173,236.114L302.985,236.719L302.857,236.876L302.621,236.756L302.493,236.82L302.129,237.691L301.101,239.383L300.886,239.996L300.707,241.291L300.707,241.948L300.822,242.454L302.092,244.268L302.377,245.232L302.857,245.68L302.971,246.002L302.866,246.937L302.272,249.557L302.307,250.95L303.101,255.056L303.094,259.268L303.256,259.896L304.558,261.79L306.014,263.803L306.969,266.42L307.456,267.901L307.542,268.563L307.527,268.772L307.406,269.299L307.348,269.412L307.178,269.585L307.142,269.728L307.163,269.813L307.249,269.963L307.262,270.02L307.262,271.326L306.991,271.985L306.848,273.226L306.991,273.954L307.341,274.647L309.205,277.074L309.592,277.768L309.747,278.466L309.889,278.717L310.854,279.645L311.247,280.281L311.548,280.958L311.945,282.373L312.032,283.207L311.769,283.578L311.318,283.657L311.153,283.879L311.112,284.209L311.004,284.614L310.883,284.734L310.534,284.965L310.44,285.065L310.411,285.306L310.462,285.513L310.534,285.707L310.583,285.921L310.605,286.657L310.534,287.014L310.368,287.313L310.219,287.535L309.824,288.278L309.747,288.554L309.833,288.928L310.031,289.297L310.305,289.634L310.583,289.877L310.712,289.919L310.996,289.935L311.139,290.02L311.239,290.167L311.418,290.763L311.796,290.812L311.945,291.526L311.938,292.441L311.832,293.095L311.51,293.897L311.124,294.573L310.654,295.175L309.446,296.353L309.007,297.022L307.534,299.979L307.332,300.757L307.406,301.45L307.119,301.729L306.229,302.428L305.947,302.792L305.456,303.962L305.35,303.699L305.32,303.571L305.32,303.377L304.791,304.068L304.513,305.028L304.329,306.042L304.078,306.913L302.985,308.944L302.621,309.271L301.957,309.433L301.537,309.853L300.259,312.337L299.495,316.5L298.773,318.521L298.667,319.15L298.458,319.691L297.974,320.27L297.38,320.735L296.889,320.927L296.518,320.844L296.153,320.686L295.782,320.592L295.019,320.806L293.897,320.776L293.811,320.844L293.548,321.234L292.989,321.527L292.613,321.898L292.448,321.898L292.291,321.527L292.163,322.064L291.742,323.055L291.584,323.589L291.584,329.366L291.141,329.102L290.755,329.151L290.405,329.424L289.05,331.059L288.821,331.457L288.728,332.294L288.757,333.393L288.683,334.414L288.271,334.993L288.405,334.208L288.378,333.843L288.135,333.529L287.962,333.758L287.827,334.001L287.736,334.265L287.708,334.55L287.857,335.143L287.8,335.206L287.708,335.256L287.621,335.292L287.579,335.305L287.507,335.42L287.422,335.492L287.343,335.601L287.306,335.814L287.306,336.333L287.264,336.555L287.065,336.983L287.016,337.229L287.027,339.192L287.3,340.063L287.992,340.068L288.015,340.462L288.101,340.846L288.128,341.22L287.992,341.555L287.571,341.155L287.016,341.204L286.585,341.539L286.536,341.998L286.758,342.504L286.893,343.04L286.893,343.247L286.878,343.469L286.885,343.68L287.364,344.667L287.65,345.717L287.857,347.723L287.778,348.724L287.785,349.231L287.928,349.742L288.034,349.937L288.314,350.301L288.412,350.492L288.529,351.273L288.77,351.886L288.877,353.02L289.126,353.614L289.235,354.513L289.336,354.813L289.562,355.278L289.985,355.942L290.676,356.713L291.047,356.99L291.333,357.261L291.67,357.947L291.892,358.27L293.27,359.288L293.818,359.89L294.096,360.805L294.362,362.431L294.446,364.4L294.662,365.164L294.738,365.657L294.79,365.774L294.948,365.922L295.083,365.958L295.21,365.981L295.353,366.059L296.21,366.886L296.597,367.415L297.137,367.865L297.354,368.165L297.418,368.387L297.41,368.563L297.28,368.928L297.196,369.078L296.889,369.378L296.852,369.784L297.125,370.355L297.16,370.714L296.81,371.198L295.447,371.796L294.997,372.225L294.911,372.919L294.948,374.469L294.662,374.927L294.911,375.311L295.039,375.711L295.21,376.589L295.454,377.239L295.475,377.49L295.432,377.702L295.253,378.11L295.21,378.323L295.568,380.452L295.297,384.24L295.632,387.543L296.318,389.113L296.938,389.77L298.338,390.731L299.017,391.317L299.1,391.497L299.167,391.947L299.217,392.145L299.33,392.318L299.431,392.419L299.524,392.498L300.395,393.447L300.602,393.824L300.794,394.56L300.602,396.546L300.801,397.267L302.272,399.279L302.464,400.007L302.599,401.756L302.836,402.236L304.442,403.329L304.671,403.385L305.32,403.378L306.034,403.749L307.255,405.085L307.97,405.375L308.354,405.398L308.685,405.465L308.991,405.597L309.325,405.818L309.84,406.34L310.118,406.504L310.44,406.441L310.534,406.933L310.354,407.182L310.021,407.169L309.611,406.877L308.991,406.147L308.634,405.833L308.241,405.671L308.398,406.155L309.048,406.905L309.349,407.763L309.727,407.97L312.704,408.584L314.832,408.697L316.966,409.012L317.765,409.248L319.128,409.902L320.629,411.01L320.971,411.324L321.221,412.004L321.485,412.31L322.093,412.752L324.248,413.566L324.863,414.036L325.033,414.4L325.228,415.259L325.411,415.508L325.761,415.57L326.068,415.48L326.361,415.345L326.668,415.271L332.431,415.022L333.823,414.715L334.845,413.75L335.293,413.709L335.716,413.539L336.1,413.259L338.129,411.33L340.956,409.755L343.505,408.431L347.503,406.662L350.515,405.919L352.85,405.855L354.928,406.141L355.6,406.335L355.92,406.348L357.305,405.962L357.492,405.818L357.691,405.582L357.897,405.582L358.104,405.661L358.27,405.671L358.469,405.499L358.754,405.1L358.99,404.948L359.575,404.722L359.79,404.568L360.24,404.155L361.419,403.299L361.438,403.235L361.497,403.205L361.731,403.243L361.939,403.742L362.004,403.835L362.204,403.72L363.175,402.541L363.746,402.008L364.088,401.793L364.688,401.558L364.831,401.38L364.918,400.941L364.909,400.563L364.86,400.214L364.873,399.894L365.053,399.579L365.061,399.928L365.124,400.258L365.259,400.551L365.473,400.807L365.701,400.25L365.53,398.82L365.808,398.138L366.844,397.346L366.986,396.996L366.979,396.309L367.03,395.972L367.538,395.18L369.234,390.874L369.764,387.307L369.486,386.099L369.587,385.971L370.022,386.17L370.264,386.248L370.421,386.113L371.635,382.758L371.985,382.021L372.121,381.466L372.121,381.289L372.034,381.215L371.991,381.15L372.121,381.037L372.143,381.037L372.356,380.959L372.399,380.959L372.5,380.866L372.827,380.659L372.962,380.517L373.319,379.872L374.419,376.919L375.463,372.255L375.384,371.684L375.02,371.497L374.692,371.47L374.547,371.342L374.761,370.861L374.982,370.563L375.098,370.613L375.218,370.861L375.448,371.162L377.847,363.815L378.339,360.639L379.097,358.496L379.782,356.07L379.896,354.014L380.282,352.685L381.131,346.918L381.803,345.461L382.08,344.024L387.229,332.053L389.776,323.798L390.063,323.262L390.354,322.484L390.691,320.635L390.726,319.978L390.798,319.685L391.532,317.957L391.72,317.229L391.792,316.493L391.87,316.122L392.228,315.479L392.354,315.159L392.396,314.808L392.348,314.522L392.198,314.444L391.934,314.718L391.848,314.406L392.013,314.087L392.283,313.745L392.497,313.393L394.511,305.761L396.124,300.786L397.28,297.672L398.951,294.188L399.01,293.909L398.895,293.587L398.409,292.911L398.324,292.663L398.503,292.441L398.774,292.633L399.016,292.981L399.146,293.248L399.803,291.312L399.795,290.52L399.837,290.02L400.53,286.648L403.08,280.13L404.92,273.462L405.662,272.325L407.235,268.721L408.282,264.771L409.477,262.302L409.953,260.853L410.104,260.589L410.49,260.112L410.634,259.839L411.14,255.634L411.754,254.463L411.954,254.335L412.161,254.249L412.281,254.128L412.24,253.885L412.139,253.735L411.918,253.464L411.818,253.307L411.739,253.022L411.711,252.657L411.739,252.286L412.725,249.085L413.431,246.572L413.674,245.117L413.561,243.753L412.589,238.569L411.981,237.585L411.891,237.263L412.089,235.765L413.126,233.314L414.067,230.667L415.416,227.946L415.674,227.616L415.994,227.39L416.401,227.304L417.417,227.21L417.923,226.939L419.106,226.76L419.751,226.511L420.363,226.169L419.822,226.223L419.342,226.147L418.899,225.917L418.479,225.524L418.171,225.067L418.029,224.624L417.995,223.662L418.892,222.934L419.478,222.255L420.55,220.393L420.642,220.126L420.642,219.408L420.656,219.241L420.742,218.94L420.82,218.136L420.779,217.813L420.565,217.679L420.199,217.371L420.086,216.642L420.122,215.821L420.558,213.868L420.472,213.267L420.007,212.588L419.421,212.216L418.1,211.747L417.581,211.23L417.323,210.644L417.18,209.953L417.194,209.252L417.379,208.655L417.995,207.562L418.145,207.212L418.208,206.856L418.151,206.619L417.852,206.054L417.649,205.403L417.515,204.349L417.223,203.662L417.066,202.963L416.838,202.693L416.608,202.471L416.474,202.205L416.522,202.205L416.736,201.635L416.76,201.345L416.736,201.059L416.301,199.858L416.279,199.322L417.431,197.693L417.878,197.272L418.543,197.051L419.85,197.051L420.585,196.964L421.114,196.695L421.492,196.738L421.591,196.766L421.721,196.95L421.692,197.088L421.62,197.216L421.591,197.339L421.757,198.394L421.741,198.766L421.629,199.408L421.685,199.672L422.256,200.429L422.356,200.493L422.529,200.5L422.664,200.527L422.777,200.591L422.905,200.707L423.107,201.029L423.077,201.3L422.949,201.578L422.834,201.92L422.826,202.258L422.886,202.606L422.99,202.934L423.127,203.219L423.299,203.451L423.563,203.722L423.848,203.948L424.091,204.048L424.136,204.198L424.226,205.271L424.376,205.892L424.755,206.349L425.747,207.212L426.242,207.141L426.583,207.475L426.989,208.512L427.281,208.267L427.597,208.263L427.919,208.305L428.246,208.218L428.476,207.953L428.939,206.782L430.401,204.882L430.532,204.607L430.33,204.492L430.488,203.893L432.281,200.479L432.417,199.922L432.451,199.536L432.815,198.485L432.95,197.767L433.036,197.629L433.279,197.374L433.366,197.208L433.352,197.081L433.303,196.9L433.258,196.695L433.303,196.488L433.494,195.98L433.524,195.838L433.486,195.624L433.445,195.481L433.452,195.332L433.645,195.012L433.758,194.681L433.78,194.553L433.666,193.218Z"/>
        </clipPath>
        <g clip-path="url(#_clip1)">
            <rect x="197.056" y="114.666" width="466" height="310.667" style="fill:white;fill-rule:nonzero;"/>
            <rect x="352.389" y="114.666" width="310.667" height="310.667" style="fill:rgb(239,66,54);fill-rule:nonzero;"/>
            <rect x="352.389" y="270" width="310.149" height="155.333" style="fill:rgb(12,127,64);fill-rule:nonzero;"/>
        </g>
    </g>
    <g transform="matrix(4.16667,0,0,4.16667,-531.067,-477.775)">
        <path d="M387.279,152.371L387.164,152.725L387.085,153.126L387.178,154.007L387.313,154.445L387.513,154.692L387.585,154.729L387.628,154.775L387.686,154.814L387.779,154.82L387.779,154.534L387.914,154.534L388.185,154.737L388.436,154.854L389.171,154.972L389.465,154.839L389.584,154.82L389.584,154.869L389.621,154.965L389.685,155.068L389.784,155.115L389.991,155.102L390.212,155.061L390.414,154.97L390.549,154.82L390.527,154.554L390.284,154.337L390.005,154.15L389.863,153.986L389.971,153.712L390.197,153.333L390.306,152.994L390.063,152.846L390.05,152.629L389.892,152.167L389.69,151.744L389.514,151.641L389.728,151.284L389.749,150.937L389.584,150.681L389.234,150.575L388.814,150.598L388.586,150.696L388.5,150.932L388.478,151.357L388.541,151.525L388.671,151.682L388.771,151.839L388.741,151.999L388.586,152.085L388.385,152.063L388.185,151.972L388.05,151.844L387.786,151.961L387.464,151.818L387.164,151.727L386.964,151.999L387.265,152.115L387.279,152.371ZM423.048,223.933L422.878,224.206L422.807,224.533L422.771,224.861L422.698,225.16L421.328,227.304L420.878,227.823L420.708,228.103L420.642,228.467L420.622,229.052L420.57,229.323L420.487,229.608L419.999,230.659L419.894,231.203L420.071,231.779L420.449,231.309L421.021,230.067L421.741,229.094L422.728,226.939L423.262,225.311L423.989,223.798L424.076,223.291L423.299,223.741L423.048,223.933ZM433.666,193.218L433.501,192.539L433.23,192.031L432.98,191.84L432.71,191.69L432.503,191.468L432.33,190.76L432.123,190.426L431.146,189.227L430.772,188.664L429.332,185.465L429.091,184.136L428.952,183.765L428.795,183.502L428.554,183.323L428.018,183.044L427.834,182.793L428.288,182.527L428.461,181.859L428.403,181.1L427.853,179.974L427.703,177.666L427.454,176.682L427.418,176.318L427.461,175.998L427.661,175.354L427.911,173.762L427.897,173.164L427.555,172.548L427.053,172.076L426.91,171.835L426.869,171.406L426.891,170.668L426.955,170.305L427.132,169.729L427.161,168.986L427.104,168.393L426.696,166.851L426.482,162.722L426.298,162.045L425.833,161.068L425.675,160.837L425.562,160.502L425.728,159.796L425.675,159.568L425.619,159.444L425.619,159.331L425.596,159.248L425.477,159.218L425.391,159.211L425.312,159.188L425.248,159.147L425.198,159.061L425.135,158.919L425.056,158.49L425.056,158.318L425.082,157.946L425.056,157.782L424.977,157.668L424.733,157.481L424.642,157.368L424.413,156.805L424.121,155.597L424.076,155.046L424.234,154.347L424.256,153.988L424.076,153.689L423.861,153.664L423.641,153.781L423.399,153.855L423.127,153.689L423.043,153.385L423.112,152.499L423.048,152.143L422.499,151.335L422.421,151.075L422.398,150.745L422.308,150.329L422.284,150.017L422.463,148.353L422.421,147.246L422.314,147.047L421.849,146.488L421.741,146.193L421.657,145.773L421.448,145.593L421.17,145.504L420.899,145.353L420.607,144.988L420.686,144.834L420.907,144.77L421.051,144.663L421.035,144.245L420.851,144.085L420.57,144.068L420.285,144.087L420.035,143.998L419.842,143.78L419.585,143.236L419.557,143.044L419.649,142.527L419.557,142.392L419.05,141.917L418.816,141.745L418.543,141.612L418.265,141.54L418.321,141.465L418.415,141.26L418.145,141.152L417.916,141.189L417.773,141.367L417.673,141.932L417.552,142.122L417.417,142.295L417.3,142.527L417.138,142.419L416.966,142.392L416.786,142.429L416.608,142.527L416.708,142.261L416.973,141.809L417.022,141.54L416.979,141.317L416.779,140.878L416.736,140.613L416.58,140.253L416.223,139.843L415.81,139.479L415.51,139.28L415.288,139.304L415.13,139.453L414.995,139.472L414.803,139.124L414.744,138.876L414.759,138.652L414.846,138.433L415.01,138.217L415.115,137.765L414.815,136.588L414.938,136.032L414.931,136.603L414.987,136.858L415.152,137.085L415.352,137.125L415.4,136.858L415.352,136.312L415.231,135.877L414.668,134.615L414.274,135.098L414.037,135.068L413.774,134.74L413.282,134.334L413.502,134.133L413.724,134.157L413.967,134.266L414.252,134.334L414.402,134.231L414.396,133.997L414.274,133.741L413.925,133.404L413.839,133.25L413.719,133.134L413.41,133.082L413.126,133.109L412.904,133.203L412.731,133.374L412.589,133.643L412.573,133.19L412.424,132.917L412.217,132.687L412.025,132.366L411.961,132.081L411.954,131.842L411.897,131.603L411.313,130.688L411.084,130.545L410.711,130.752L410.618,131.027L410.903,131.603L410.79,131.958L410.625,132.068L410.434,132.1L410.032,132.085L409.833,132.034L409.84,131.908L409.927,131.771L409.953,131.667L409.739,131.353L409.575,131.21L409.413,131.293L409.198,131.667L409.063,131.82L408.955,131.746L408.891,131.564L408.854,131.383L408.905,131.269L409.198,131.022L409.262,130.886L409.104,130.71L408.733,130.585L408.313,130.521L408.013,130.531L408.347,129.913L408.404,129.669L408.163,129.546L408.22,129.315L408.327,129.108L408.482,128.951L408.704,128.843L408.756,129.124L408.905,129.414L409.127,129.633L409.405,129.699L409.555,129.571L409.69,129.337L409.84,129.158L410.032,129.194L410.79,130.049L410.911,130.039L410.869,129.733L410.512,128.974L410.427,128.358L410.482,127.826L410.427,127.327L410.032,126.806L409.897,126.561L409.89,125.967L409.755,125.673L409.198,125.04L408.989,124.892L408.626,124.809L408.268,125.014L407.663,125.673L407.606,125.824L407.642,125.974L407.706,126.102L407.734,126.166L407.676,126.215L407.469,126.307L407.386,126.407L407.247,126.516L407.128,126.659L407.041,126.868L407.456,126.954L407.749,127.301L407.904,127.748L407.885,128.144L407.734,127.992L407.6,128.144L406.942,127.222L406.635,127.007L406.334,127.357L405.521,127.613L405.25,127.992L405.997,127.952L406.215,127.992L406.377,128.09L406.462,128.213L406.526,128.336L406.635,128.425L406.863,128.483L407.013,128.469L407.149,128.503L407.318,128.705L407.441,128.98L407.391,129.089L407.198,129.124L407.056,129.247L406.897,129.345L406.741,129.473L406.635,129.699L406.613,129.926L406.677,130.095L406.748,130.246L406.77,130.403L406.656,130.784L406.428,131.121L406.121,131.229L405.79,130.95L405.506,131.249L405.242,131.754L404.983,132.032L404.687,131.667L404.442,131.968L404.198,132.12L403.992,132.294L403.857,132.661L403.601,132.543L403.313,132.617L403.05,132.819L402.878,133.082L402.844,133.248L402.878,133.538L402.878,133.643L402.651,134.084L402.6,134.206L402.551,135.303L402.465,135.608L402.273,135.836L401.965,136.041L401.65,136.141L401.429,136.018L400.816,134.842L400.388,134.473L399.694,134.334L399.194,134.305L398.973,134.246L398.737,134.13L398.508,134.15L398.151,134.711L397.91,134.908L398.737,135.316L398.789,134.915L398.958,135.193L399.273,136.032L399.923,136.625L400.107,136.972L400.114,137.577L400.415,137.415L400.692,137.307L400.93,137.332L401.079,137.577L401.038,137.637L400.809,138.143L400.816,138.281L400.93,138.534L400.944,138.702L400.872,138.849L400.757,138.95L400.667,139.071L400.658,139.28L400.744,139.491L400.844,139.511L400.959,139.481L401.079,139.56L401.387,140.003L401.458,140.229L401.563,141.154L401.643,141.386L401.772,141.668L401.943,141.917L402.351,142.402L402.465,142.665L402.423,143.217L402.101,144.55L402.187,145.071L401.965,145.175L401.695,145.44L401.458,145.746L401.357,145.982L401.309,146.238L401.188,146.569L401.03,146.887L400.473,147.64L400.201,148.216L399.743,149.842L399.702,150.186L399.688,150.866L399.751,151.188L400.051,151.667L400.114,151.921L399.359,152.832L399.073,153.422L399.423,153.83L398.924,154.47L398.26,155.041L397.524,155.469L396.788,155.678L396.567,155.65L396.331,155.582L396.075,155.54L395.823,155.602L395.575,155.712L395.382,155.742L395.189,155.7L394.119,155.277L393.747,155.029L393.74,154.692L393.54,154.485L393.398,154.249L393.218,154.057L392.896,153.986L392.825,154.551L392.832,154.837L392.896,155.115L393.034,155.356L393.391,155.818L393.549,156.399L393.905,157.117L393.947,157.304L393.755,157.349L393.511,157.221L393.047,156.805L393.054,156.911L393.041,157.127L393.047,157.225L392.805,157.195L392.435,157.21L392.055,157.274L391.792,157.368L391.59,157.575L391.376,157.89L391.206,158.262L391.105,158.64L390.513,157.767L390.271,157.654L389.885,157.826L389.979,158.198L390.414,158.926L390.342,159.211L389.971,159.875L389.863,160.21L389.849,161.294L389.705,161.617L390.05,162.151L389.764,162.658L389.184,163.037L388.613,163.189L388.163,163.074L387.564,162.781L387.036,162.387L386.807,161.975L387.021,161.723L387.065,161.561L386.75,161.445L386.687,161.339L386.672,161.196L386.672,161.053L386.622,160.709L386.271,159.769L386.179,159.267L386.022,158.84L385.715,158.667L385.15,158.926L385.05,158.561L384.979,157.989L384.836,157.462L384.521,157.225L383.78,157.225L383.808,157.376L384.173,157.782L383.859,157.904L383.78,158.067L383.773,158.254L383.694,158.426L383.451,158.524L383.294,158.411L383.251,158.183L383.357,157.934L383.244,157.976L383.045,158.013L382.929,158.077L382.794,157.762L382.914,157.533L383.123,157.363L383.21,157.225L383.045,157.012L382.839,157.012L382.624,157.142L382.444,157.304L382.359,158.224L382.193,158.731L381.888,158.712L381.48,158.574L381.209,159.004L381.045,159.617L380.987,160.055L381.025,160.566L381.218,160.758L381.466,160.874L381.675,161.196L380.797,161.595L380.631,162.747L380.946,164.102L381.474,165.094L381.702,165.271L382.516,165.6L383.495,166.235L383.495,166.494L381.952,167.301L382.696,167.999L383.136,168.314L383.938,168.592L384.122,168.957L384.173,169.434L384.173,169.914L384.052,170.356L383.501,171.097L383.357,171.555L383.395,171.798L383.516,172.057L383.672,172.293L383.83,172.477L383.838,172.647L383.623,172.833L383.364,172.996L383.21,173.126L383.188,173.318L383.215,173.562L383.202,173.798L383.067,173.96L382.794,173.96L382.673,173.698L382.644,173.375L382.644,173.19L382.707,172.647L383.001,171.583L383.067,171.056L383.15,170.792L383.315,170.59L383.443,170.398L383.424,170.128L383.294,169.963L383.132,169.872L382.959,169.808L382.794,169.714L381.96,169.121L381.531,168.991L381.259,169.276L381.659,169.513L381.967,170.004L382.167,170.578L382.238,171.056L382.208,171.342L382.129,171.692L382.001,172.034L381.822,172.264L381.659,172.319L381.259,172.264L380.987,172.332L380.332,172.369L379.396,171.692L378.911,171.839L378.74,172.061L378.653,172.283L378.623,172.897L378.567,173.228L378.418,173.397L377.932,173.689L377.52,174.219L377.269,174.875L377.14,175.575L377.104,176.468L377.147,176.532L377.377,176.711L377.339,176.768L377.253,176.839L377.246,176.96L377.591,177.681L377.682,177.782L377.761,177.897L377.797,178.094L377.753,178.232L377.546,178.438L377.505,178.522L377.605,178.753L378.025,179.508L378.146,179.666L378.354,179.565L378.604,179.316L379.176,178.532L379.318,178.638L379.438,178.938L379.603,179.23L379.91,179.482L380.188,179.546L380.452,179.497L380.71,179.388L381.346,179.009L381.652,178.96L382.031,179.167L382.475,179.645L382.73,179.86L383.001,179.952L383.409,180.278L383.595,181.036L383.595,181.893L383.488,182.508L383.15,183.029L383.038,182.636L383.067,181.224L382.91,180.552L382.509,180.116L381.975,180.052L381.416,180.51L381.687,180.722L381.859,181.145L381.83,181.603L381.537,181.937L381.495,181.682L381.517,181.194L381.416,180.943L381.194,180.786L380.561,180.616L380.296,180.51L379.896,180.159L379.039,178.96L378.945,179.403L378.661,179.61L378.36,179.781L378.226,180.095L378.146,180.38L377.962,180.688L377.505,181.217L377.396,181.292L377.047,181.46L376.896,181.578L376.818,181.735L376.818,182.114L376.761,182.286L376.104,182.958L376.011,183.216L375.905,183.822L374.456,186.585L374.341,186.927L374.362,187.471L374.298,187.663L374.069,187.482L373.491,187.951L373.235,188.491L373.041,189.078L372.677,189.641L372.478,189.797L371.813,190.162L371.57,190.211L371.285,190.057L371.221,189.797L371.428,187.256L371.635,186.637L371.942,186.142L373.105,184.787L373.327,184.279L373.378,184.221L373.312,184.008L373.184,183.908L373.056,183.866L372.962,183.788L372.892,183.465L372.978,182.192L372.947,181.979L372.535,181.501L372.414,181.251L372.328,181.017L372.2,180.938L371.921,181.145L369.393,183.814L368.787,184.787L368.656,184.787L368.972,185.256L369.156,185.376L369.472,185.357L369.7,185.244L369.821,184.907L370.042,184.712L370.372,184.778L370.5,185.214L370.442,185.691L370.178,185.928L369.7,185.977L369.243,186.135L368.822,186.378L367.801,187.34L367.523,187.714L367.08,188.939L366.322,189.613L365.451,190.185L364.781,190.785L364.23,191.555L364.054,192.005L364.088,192.475L364.23,192.654L364.572,192.846L364.696,193.275L364.846,193.375L365.075,193.382L365.345,193.339L365.15,193.845L365.124,194.082L365.181,194.352L365.766,194.082L365.946,194.052L366.202,194.066L366.266,194.13L366.258,194.259L366.544,195.582L366.881,196.217L366.951,196.311L367.129,196.409L367.302,196.467L367.466,196.473L367.602,196.507L367.681,196.623L367.616,196.994L367.294,197.216L366.565,197.494L365.901,197.272L365.274,197.453L364.639,197.794L363.953,198.052L363.239,198.159L362.86,198.279L362.632,198.485L362.447,199.179L362.297,199.465L362.075,199.42L362.012,198.928L362.253,198.223L363.16,196.416L363.367,196.194L363.675,195.989L363.931,195.779L364.23,195.245L364.438,194.975L364.438,194.716L364.096,194.489L363.404,194.205L363.082,194.024L362.867,193.845L362.703,193.631L362.46,193.117L362.425,193.004L362.433,192.453L362.402,192.261L362.339,192.104L362.211,192.031L361.896,192.104L361.333,192.404L360.483,192.659L358.956,194.052L356.869,195.56L355.706,195.846L355.491,196.066L355.563,196.273L356.19,196.443L356.456,196.623L355.999,196.758L355.465,196.753L354.928,196.808L354.448,197.13L354.215,197.359L353.351,197.988L352.8,198.5L352.578,198.628L352.571,198.496L352.529,198.394L352.484,198.309L352.458,198.2L351.985,198.545L350.709,199.986L349.809,200.7L349.422,201.098L349.203,201.863L348.902,202.437L348.84,202.776L348.938,202.928L349.173,202.928L349.444,202.892L349.666,202.919L349.888,203.233L349.801,203.647L349.267,204.492L349.016,204.701L348.78,204.833L348.746,204.976L349.117,205.197L349.294,205.234L349.943,205.197L350.442,205.377L351.287,206.161L351.678,206.338L352.165,207.205L352.387,207.761L352.18,207.925L351.764,207.604L351.415,207.104L351.029,206.732L350.494,206.782L350.637,207.155L350.651,207.611L350.48,207.977L350.079,208.068L349.924,207.948L349.695,207.547L349.529,207.498L349.417,207.633L349.395,207.884L349.41,208.154L349.388,208.354L348.944,207.982L348.622,207.588L347.909,206.127L347.653,205.749L347.331,205.418L346.896,205.055L347.259,204.784L347.402,204.483L347.496,204.149L347.732,203.777L347.574,203.593L347.487,203.391L347.459,203.169L347.459,202.928L347.36,202.786L347.124,202.698L346.617,202.634L345.611,202.634L345.123,202.734L344.676,202.919L344.203,203.207L343.726,203.579L343.311,204.012L343.013,204.492L342.897,204.949L343.168,204.818L343.64,204.449L344.133,204.206L344.125,204.569L343.975,204.791L343.79,204.976L343.704,205.197L343.832,205.557L344.031,205.813L344.031,205.94L343.569,205.926L343.013,205.625L342.84,205.61L342.499,205.64L342.326,205.625L342.026,205.561L341.861,205.482L341.79,205.313L341.771,204.985L341.812,204.3L341.655,204.115L341.22,204.048L340.904,204.063L340.634,204.119L340.378,204.213L339.15,204.927L338.692,204.998L337.964,204.528L337.664,204.492L337.35,204.492L337.049,204.419L336.714,204.285L336.507,204.3L335.837,204.727L335.187,205.418L335.043,205.714L335.156,205.898L335.371,206.078L335.528,206.338L335.543,206.555L335.493,206.718L335.423,206.875L335.378,207.055L335.365,207.588L335.378,207.64L335.223,207.874L334.9,208.196L334.845,208.433L335.052,209.51L334.859,209.867L334.702,209.912L334.563,209.51L334.207,209.682L334.194,209.468L334.416,208.868L334.409,208.568L334.38,208.489L334.301,208.44L334.151,208.218L334,207.64L333.737,207.81L333.588,207.884L333.451,207.925L330.146,208.282L329.961,208.455L329.969,208.71L330.138,209.069L330.374,209.318L330.775,209.468L330.824,209.653L330.688,209.976L330.404,210.174L329.717,210.433L329.495,210.64L329.323,210.902L329.124,211.132L328.816,211.23L328.497,211.166L328.347,210.996L328.31,210.718L328.339,210.359L328.452,209.941L328.46,209.796L328.452,209.596L328.433,209.498L328.076,208.331L328.047,207.667L328.004,207.367L327.862,207.239L327.067,207.783L325.825,208.317L325.276,208.64L324.826,209.075L324.368,209.641L323.685,210.797L323.283,211.294L322.697,211.672L321.521,212.231L321.684,212.374L321.413,212.494L320.835,212.581L320.558,212.66L320.279,212.829L320.13,213.001L319.998,213.203L319.807,213.452L319.521,213.545L319.157,213.444L318.808,213.245L318.316,212.839L318.064,212.824L317.523,212.952L313.11,212.524L312.419,212.637L311.74,212.637L311.409,212.73L311.247,212.923L311.177,213.208L311.117,214.386L311.068,214.664L310.925,214.894L310.74,215.107L310.546,215.393L310.39,215.688L310.305,215.951L310.354,216.628L310.662,217.263L311.418,218.407L311.612,218.993L311.619,219.578L311.461,220.156L311.139,220.698L311.124,220.186L310.91,220.085L310.682,220.321L310.583,220.828L310.662,221.255L311.034,222.149L311.139,222.563L310.962,223.498L310.368,224.326L309.668,225.104L309.135,225.883L308.748,226.76L308.504,227.153L308.177,227.524L308.027,227.739L307.861,228.216L307.757,228.388L307.206,228.959L307.063,229.18L306.378,230.987L305.884,231.793L305.32,231.779L305.256,232.773L305.192,233.073L305.042,233.378L304.712,233.714L303.173,236.114L302.985,236.719L302.857,236.876L302.621,236.756L302.493,236.82L302.129,237.691L301.101,239.383L300.886,239.996L300.707,241.291L300.707,241.948L300.822,242.454L302.092,244.268L302.377,245.232L302.857,245.68L302.971,246.002L302.866,246.937L302.272,249.557L302.307,250.95L303.101,255.056L303.094,259.268L303.256,259.896L304.558,261.79L306.014,263.803L306.969,266.42L307.456,267.901L307.542,268.563L307.527,268.772L307.406,269.299L307.348,269.412L307.178,269.585L307.142,269.728L307.163,269.813L307.249,269.963L307.262,270.02L307.262,271.326L306.991,271.985L306.848,273.226L306.991,273.954L307.341,274.647L309.205,277.074L309.592,277.768L309.747,278.466L309.889,278.717L310.854,279.645L311.247,280.281L311.548,280.958L311.945,282.373L312.032,283.207L311.769,283.578L311.318,283.657L311.153,283.879L311.112,284.209L311.004,284.614L310.883,284.734L310.534,284.965L310.44,285.065L310.411,285.306L310.462,285.513L310.534,285.707L310.583,285.921L310.605,286.657L310.534,287.014L310.368,287.313L310.219,287.535L309.824,288.278L309.747,288.554L309.833,288.928L310.031,289.297L310.305,289.634L310.583,289.877L310.712,289.919L310.996,289.935L311.139,290.02L311.239,290.167L311.418,290.763L311.796,290.812L311.945,291.526L311.938,292.441L311.832,293.095L311.51,293.897L311.124,294.573L310.654,295.175L309.446,296.353L309.007,297.022L307.534,299.979L307.332,300.757L307.406,301.45L307.119,301.729L306.229,302.428L305.947,302.792L305.456,303.962L305.35,303.699L305.32,303.571L305.32,303.377L304.791,304.068L304.513,305.028L304.329,306.042L304.078,306.913L302.985,308.944L302.621,309.271L301.957,309.433L301.537,309.853L300.259,312.337L299.495,316.5L298.773,318.521L298.667,319.15L298.458,319.691L297.974,320.27L297.38,320.735L296.889,320.927L296.518,320.844L296.153,320.686L295.782,320.592L295.019,320.806L293.897,320.776L293.811,320.844L293.548,321.234L292.989,321.527L292.613,321.898L292.448,321.898L292.291,321.527L292.163,322.064L291.742,323.055L291.584,323.589L291.584,329.366L291.141,329.102L290.755,329.151L290.405,329.424L289.05,331.059L288.821,331.457L288.728,332.294L288.757,333.393L288.683,334.414L288.271,334.993L288.405,334.208L288.378,333.843L288.135,333.529L287.962,333.758L287.827,334.001L287.736,334.265L287.708,334.55L287.857,335.143L287.8,335.206L287.708,335.256L287.621,335.292L287.579,335.305L287.507,335.42L287.422,335.492L287.343,335.601L287.306,335.814L287.306,336.333L287.264,336.555L287.065,336.983L287.016,337.229L287.027,339.192L287.3,340.063L287.992,340.068L288.015,340.462L288.101,340.846L288.128,341.22L287.992,341.555L287.571,341.155L287.016,341.204L286.585,341.539L286.536,341.998L286.758,342.504L286.893,343.04L286.893,343.247L286.878,343.469L286.885,343.68L287.364,344.667L287.65,345.717L287.857,347.723L287.778,348.724L287.785,349.231L287.928,349.742L288.034,349.937L288.314,350.301L288.412,350.492L288.529,351.273L288.77,351.886L288.877,353.02L289.126,353.614L289.235,354.513L289.336,354.813L289.562,355.278L289.985,355.942L290.676,356.713L291.047,356.99L291.333,357.261L291.67,357.947L291.892,358.27L293.27,359.288L293.818,359.89L294.096,360.805L294.362,362.431L294.446,364.4L294.662,365.164L294.738,365.657L294.79,365.774L294.948,365.922L295.083,365.958L295.21,365.981L295.353,366.059L296.21,366.886L296.597,367.415L297.137,367.865L297.354,368.165L297.418,368.387L297.41,368.563L297.28,368.928L297.196,369.078L296.889,369.378L296.852,369.784L297.125,370.355L297.16,370.714L296.81,371.198L295.447,371.796L294.997,372.225L294.911,372.919L294.948,374.469L294.662,374.927L294.911,375.311L295.039,375.711L295.21,376.589L295.454,377.239L295.475,377.49L295.432,377.702L295.253,378.11L295.21,378.323L295.568,380.452L295.297,384.24L295.632,387.543L296.318,389.113L296.938,389.77L298.338,390.731L299.017,391.317L299.1,391.497L299.167,391.947L299.217,392.145L299.33,392.318L299.431,392.419L299.524,392.498L300.395,393.447L300.602,393.824L300.794,394.56L300.602,396.546L300.801,397.267L302.272,399.279L302.464,400.007L302.599,401.756L302.836,402.236L304.442,403.329L304.671,403.385L305.32,403.378L306.034,403.749L307.255,405.085L307.97,405.375L308.354,405.398L308.685,405.465L308.991,405.597L309.325,405.818L309.84,406.34L310.118,406.504L310.44,406.441L310.534,406.933L310.354,407.182L310.021,407.169L309.611,406.877L308.991,406.147L308.634,405.833L308.241,405.671L308.398,406.155L309.048,406.905L309.349,407.763L309.727,407.97L312.704,408.584L314.832,408.697L316.966,409.012L317.765,409.248L319.128,409.902L320.629,411.01L320.971,411.324L321.221,412.004L321.485,412.31L322.093,412.752L324.248,413.566L324.863,414.036L325.033,414.4L325.228,415.259L325.411,415.508L325.761,415.57L326.068,415.48L326.361,415.345L326.668,415.271L332.431,415.022L333.823,414.715L334.845,413.75L335.293,413.709L335.716,413.539L336.1,413.259L338.129,411.33L340.956,409.755L343.505,408.431L347.503,406.662L350.515,405.919L352.85,405.855L354.928,406.141L355.6,406.335L355.92,406.348L357.305,405.962L357.492,405.818L357.691,405.582L357.897,405.582L358.104,405.661L358.27,405.671L358.469,405.499L358.754,405.1L358.99,404.948L359.575,404.722L359.79,404.568L360.24,404.155L361.419,403.299L361.438,403.235L361.497,403.205L361.731,403.243L361.939,403.742L362.004,403.835L362.204,403.72L363.175,402.541L363.746,402.008L364.088,401.793L364.688,401.558L364.831,401.38L364.918,400.941L364.909,400.563L364.86,400.214L364.873,399.894L365.053,399.579L365.061,399.928L365.124,400.258L365.259,400.551L365.473,400.807L365.701,400.25L365.53,398.82L365.808,398.138L366.844,397.346L366.986,396.996L366.979,396.309L367.03,395.972L367.538,395.18L369.234,390.874L369.764,387.307L369.486,386.099L369.587,385.971L370.022,386.17L370.264,386.248L370.421,386.113L371.635,382.758L371.985,382.021L372.121,381.466L372.121,381.289L372.034,381.215L371.991,381.15L372.121,381.037L372.143,381.037L372.356,380.959L372.399,380.959L372.5,380.866L372.827,380.659L372.962,380.517L373.319,379.872L374.419,376.919L375.463,372.255L375.384,371.684L375.02,371.497L374.692,371.47L374.547,371.342L374.761,370.861L374.982,370.563L375.098,370.613L375.218,370.861L375.448,371.162L377.847,363.815L378.339,360.639L379.097,358.496L379.782,356.07L379.896,354.014L380.282,352.685L381.131,346.918L381.803,345.461L382.08,344.024L387.229,332.053L389.776,323.798L390.063,323.262L390.354,322.484L390.691,320.635L390.726,319.978L390.798,319.685L391.532,317.957L391.72,317.229L391.792,316.493L391.87,316.122L392.228,315.479L392.354,315.159L392.396,314.808L392.348,314.522L392.198,314.444L391.934,314.718L391.848,314.406L392.013,314.087L392.283,313.745L392.497,313.393L394.511,305.761L396.124,300.786L397.28,297.672L398.951,294.188L399.01,293.909L398.895,293.587L398.409,292.911L398.324,292.663L398.503,292.441L398.774,292.633L399.016,292.981L399.146,293.248L399.803,291.312L399.795,290.52L399.837,290.02L400.53,286.648L403.08,280.13L404.92,273.462L405.662,272.325L407.235,268.721L408.282,264.771L409.477,262.302L409.953,260.853L410.104,260.589L410.49,260.112L410.634,259.839L411.14,255.634L411.754,254.463L411.954,254.335L412.161,254.249L412.281,254.128L412.24,253.885L412.139,253.735L411.918,253.464L411.818,253.307L411.739,253.022L411.711,252.657L411.739,252.286L412.725,249.085L413.431,246.572L413.674,245.117L413.561,243.753L412.589,238.569L411.981,237.585L411.891,237.263L412.089,235.765L413.126,233.314L414.067,230.667L415.416,227.946L415.674,227.616L415.994,227.39L416.401,227.304L417.417,227.21L417.923,226.939L419.106,226.76L419.751,226.511L420.363,226.169L419.822,226.223L419.342,226.147L418.899,225.917L418.479,225.524L418.171,225.067L418.029,224.624L417.995,223.662L418.892,222.934L419.478,222.255L420.55,220.393L420.642,220.126L420.642,219.408L420.656,219.241L420.742,218.94L420.82,218.136L420.779,217.813L420.565,217.679L420.199,217.371L420.086,216.642L420.122,215.821L420.558,213.868L420.472,213.267L420.007,212.588L419.421,212.216L418.1,211.747L417.581,211.23L417.323,210.644L417.18,209.953L417.194,209.252L417.379,208.655L417.995,207.562L418.145,207.212L418.208,206.856L418.151,206.619L417.852,206.054L417.649,205.403L417.515,204.349L417.223,203.662L417.066,202.963L416.838,202.693L416.608,202.471L416.474,202.205L416.522,202.205L416.736,201.635L416.76,201.345L416.736,201.059L416.301,199.858L416.279,199.322L417.431,197.693L417.878,197.272L418.543,197.051L419.85,197.051L420.585,196.964L421.114,196.695L421.492,196.738L421.591,196.766L421.721,196.95L421.692,197.088L421.62,197.216L421.591,197.339L421.757,198.394L421.741,198.766L421.629,199.408L421.685,199.672L422.256,200.429L422.356,200.493L422.529,200.5L422.664,200.527L422.777,200.591L422.905,200.707L423.107,201.029L423.077,201.3L422.949,201.578L422.834,201.92L422.826,202.258L422.886,202.606L422.99,202.934L423.127,203.219L423.299,203.451L423.563,203.722L423.848,203.948L424.091,204.048L424.136,204.198L424.226,205.271L424.376,205.892L424.755,206.349L425.747,207.212L426.242,207.141L426.583,207.475L426.989,208.512L427.281,208.267L427.597,208.263L427.919,208.305L428.246,208.218L428.476,207.953L428.939,206.782L430.401,204.882L430.532,204.607L430.33,204.492L430.488,203.893L432.281,200.479L432.417,199.922L432.451,199.536L432.815,198.485L432.95,197.767L433.036,197.629L433.279,197.374L433.366,197.208L433.352,197.081L433.303,196.9L433.258,196.695L433.303,196.488L433.494,195.98L433.524,195.838L433.486,195.624L433.445,195.481L433.452,195.332L433.645,195.012L433.758,194.681L433.78,194.553L433.666,193.218Z" style="fill:none;stroke:rgb(153,153,153);stroke-width:0.25px;"/>
    </g>
</svg>
