<?xml version="1.0" encoding="UTF-8" standalone="no"?>
<!DOCTYPE svg PUBLIC "-//W3C//DTD SVG 1.1//EN" "http://www.w3.org/Graphics/SVG/1.1/DTD/svg11.dtd">
<svg width="100%" height="100%" viewBox="0 0 2308 1539" version="1.1" xmlns="http://www.w3.org/2000/svg" xmlns:xlink="http://www.w3.org/1999/xlink" xml:space="preserve" xmlns:serif="http://www.serif.com/" style="fill-rule:evenodd;clip-rule:evenodd;stroke-linecap:round;stroke-linejoin:round;stroke-miterlimit:2;">
    <g transform="matrix(4.16667,0,0,4.16667,-346.362,-355.913)">
        <clipPath id="_clip1">
            <path d="M379.334,215.165L379.842,215.307L380.334,215.089L380.542,214.511L380.366,213.931L380.383,213.417L381.11,213.036L379.842,212.412L379.367,212.8L379.018,214.051L378.657,214.592L378.908,214.854L379.334,215.165ZM373.299,212.374L373.529,212.704L373.76,212.942L374.034,212.953L374.403,212.585L374.575,211.947L374.326,211.386L373.803,211.081L373.151,211.217L373.134,211.226L372.775,211.521L372.819,211.829L373.299,212.374ZM429.698,350.386L430.935,347.468L432.616,343.487L431.666,343.502L431.076,343.426L430.774,343.011L430.315,333.359L430.059,332.566L429.54,331.901L427.35,329.682L424.1,325.575L419.38,319.615L415.497,314.703L412.481,308.914L408.63,304.336L404.527,299.431L399.704,293.685L395.787,289.019L391.859,285.436L387.276,281.234L385.866,280.378L385.604,280.282L385.502,280.635L385.392,281.361L385.71,284.377L385.392,287.303L385.609,288.517L386.627,289.559L387.468,289.97L388.135,290.051L392.776,289.904L394.477,290.222L395.11,291.096L395.346,292.395L395.869,293.979L396.377,294.727L396.946,295.388L397.104,295.693L397.154,296.47L397.487,297.519L397.611,298.388L397.728,299.978L398.055,301.277L399.66,303.764L400.163,305.002L400.135,305.714L399.978,306.473L399.961,307.253L400.321,307.996L401.735,310.196L401.928,311.831L402.369,313.229L404.222,316.999L404.953,318.091L404.938,318.551L404.696,319.358L404.353,320.124L404.035,320.451L403.702,320.566L403.037,321.057L402.621,321.09L402.387,320.915L402.227,320.615L402.112,320.331L402.004,320.134L399.862,318.254L399.01,316.923L398.469,316.289L397.728,316.032L397.536,315.748L396.427,314.433L396.153,313.982L395.804,312.673L394.936,311.181L393.844,310.214L392.811,310.373L392.586,310.115L392.078,309.656L391.859,309.389L390.401,309.756L389.402,308.488L389.004,306.588L389.417,305.002L388.8,304.62L387.817,303.604L387.228,303.113L385.884,302.731L385.011,303.331L384.851,304.512L385.551,305.813L385.852,306.915L385.06,307.996L384.026,309.122L383.584,310.373L383.791,310.803L384.141,311.264L384.425,311.722L384.345,312.104L383.835,312.432L383.66,312.655L383.584,313.032L383.283,313.557L382.585,314.016L381.776,314.332L381.127,314.446L380.415,314.682L379.668,315.081L378.957,315.257L378.323,314.792L378.21,314.114L378.449,313.524L378.482,312.923L377.733,312.257L376.942,311.974L376.26,311.896L375.576,311.722L374.8,311.132L374.467,310.661L374.106,309.962L373.833,309.215L373.725,308.613L373.473,308.122L371.855,306.247L371.632,305.604L370.872,301.637L371.092,300.469L371.823,299.464L372.964,298.229L373.282,297.705L374.058,295.552L373.992,295.203L373.676,294.427L373.725,293.979L373.976,293.652L374.74,293.046L374.975,292.701L375.057,291.859L374.914,291.203L374.898,290.561L375.406,289.73L375.608,288.986L375.101,288.369L374.407,287.828L374.058,287.369L373.806,286.726L372.475,285.534L371.855,284.868L371.282,283.584L370.933,283.043L370.349,282.649L369.633,282.568L368.239,283.092L367.414,283.251L366.781,283.061L366.354,282.6L365.989,282.027L365.116,280.984L364.164,278.902L361.706,274.873L361.155,273.375L360.98,271.846L361.564,270.556L362.515,269.191L362.738,267.901L362.324,264.738L362.247,257.287L361.706,254.988L361.771,254.201L362.139,252.847L361.996,252.202L361.865,252.655L361.614,253.18L361.297,253.447L360.947,253.142L360.837,252.596L361.123,251.524L361.089,250.929L360.597,250.126L359.236,248.918L358.947,247.958L359.554,245.734L359.505,244.741L357.807,244.009L357.13,243.222L356.19,241.528L355.495,239.426L355.287,238.261L355.272,237.125L355.415,236L355.622,235.584L356.031,235.098L356.319,234.667L356.337,234.251L356.19,233.225L354.798,229.149L353.748,228.483L352.862,228.483L351.979,228.631L350.946,228.391L351.039,228.036L350.978,227.61L350.756,227.265L349.929,226.942L349.787,226.516L349.771,226.004L349.694,225.555L348.886,223.371L348.47,220.416L348.47,219.606L348.996,217.389L349.17,215.931L349.694,213.657L349.913,211.91L350.197,211.123L350.787,210.391L355.89,206.469L355.339,205.546L355.339,204.21L355.686,202.842L356.19,201.83L356.621,201.41L357.681,200.793L358.188,200.4L358.348,200.155L358.505,199.592L358.664,199.31L358.964,199.033L359.457,198.747L361.28,197.005L361.679,196.096L361.706,194.615L361.473,193.409L361.248,192.762L360.947,192.296L360.738,191.831L360.738,190.507L359.87,187.271L359.572,181.583L358.664,178.99L358.271,178.561L357.871,178.272L357.556,177.884L357.413,177.157L357.539,176.019L357.506,175.56L357.271,175.125L356.763,173.948L357.08,172.798L358.331,170.608L357.697,169.742L357.413,168.248L357.572,162.523L356.813,153.772L356.19,151.319L356.205,150.612L356.479,149.047L356.496,148.504L356.129,147.744L355.622,147.041L355.339,146.332L355.713,145.545L356.031,145.259L357.112,144.617L357.413,144.3L357.396,143.961L357.206,143.595L357.112,143.208L357.031,141.779L357.287,141.364L358.03,140.733L358.429,140.586L358.729,140.643L358.997,140.594L359.28,140.107L359.188,139.974L358.664,138.846L358.204,137.261L357.855,136.634L356.256,134.809L355.765,134.107L355.539,133.424L355.238,132.782L354.528,132.135L353.103,131.105L350.613,128.598L346.904,123.256L345.603,120.216L345.096,117.125L345.096,115.58L344.985,115.139L344.711,115.004L344.353,114.969L344.02,114.797L342.955,112.309L342.604,109.182L342.813,107.707L343.143,107.352L342.637,106.985L342.145,106.087L341.068,105.175L339.803,104.418L338.736,103.986L337.578,103.225L336.426,102.069L335.203,101.307L333.76,101.706L332.575,102.375L331.432,102.522L330.226,102.313L328.86,101.883L327.34,101.725L326.249,102.178L325.184,102.796L323.791,103.132L321.918,103L321.064,102.736L320.366,102.247L319.826,101.403L319.05,99.723L318.226,98.942L315.706,97.154L314.898,96.873L314.5,96.946L313.789,97.413L313.408,97.536L312.866,97.484L311.932,97.206L311.298,97.208L311.015,97.353L310.397,97.863L309.982,98.003L309.808,97.904L308.49,97.385L307.289,97.121L306.874,96.957L304.114,94.821L301.865,92.592L301.072,92.133L300.204,92.168L299.345,92.602L298.663,93.338L298.762,95.979L298.964,96.591L299.412,96.951L299.68,96.858L299.979,96.638L300.505,96.616L300.804,96.798L301.454,97.402L301.854,97.584L301.865,98.823L301.072,102.085L301.63,103.315L302.213,103.508L302.722,103.288L303.214,102.943L303.815,102.796L304.306,103.025L304.498,103.506L304.596,104.053L304.831,104.483L305.829,104.844L306.224,104.017L306.37,102.679L306.623,101.504L307.671,102.007L310.097,102.129L310.998,102.763L311.631,103.899L311.839,104.502L311.899,105.19L311.773,105.675L311.555,106.041L311.391,106.466L311.522,107.136L311.949,107.774L313.073,108.468L313.564,108.995L314.216,110.228L314.597,110.774L315.133,111.252L315.69,111.541L317.339,112.15L317.641,112.5L318.338,114.289L318.639,115.554L318.306,116.506L316.973,118.571L316.133,120.71L315.898,121.854L315.865,123.023L316.466,123.853L320.142,125.477L321.081,126.279L321.808,127.08L322.632,127.749L323.791,128.155L324.632,129.253L325.517,129.876L326.167,130.611L326.267,132.04L325.975,134.574L326.134,135.664L327.326,138.46L327.708,138.99L328.958,140.107L329.308,140.495L330.176,142.531L330.876,143.328L332.095,143.486L332.095,144.679L332.411,145.505L332.493,146.296L331.75,147.4L331.05,148.031L329.291,149.304L328.718,149.561L328.117,149.954L325.934,152.406L325.2,154.231L324.708,155.018L323.791,155.583L323.107,155.709L322.299,156.52L321.698,156.788L321.016,156.749L319.525,156.46L318.908,156.569L318.289,156.817L317.148,157.039L316.547,157.244L315.991,157.716L315.15,158.994L314.482,159.399L313.948,159.382L313.472,159.257L313.057,159.401L312.664,160.202L312.615,160.852L312.982,161.103L313.532,161.103L314.149,161.013L314.8,161.567L315.133,162.998L315.422,165.711L315.848,167.076L316.498,168.335L317.323,169.477L318.338,170.479L319.765,172.998L319.383,174.355L318.766,175.628L315.608,180.476L315.548,180.773L315.706,181.285L315.642,181.563L315.39,181.773L314.707,182.071L314.5,182.314L314.423,182.953L314.516,183.543L314.5,184.124L314.122,184.748L312.982,183.805L312.549,184.45L312.756,188.325L312.708,188.888L312.424,189.738L311.757,191.154L311.915,191.507L312.664,191.786L313.408,191.788L314.198,191.69L314.93,191.818L315.548,192.509L315.799,193.245L316.307,200.647L316.166,202.315L315.564,204.033L315.581,204.765L316.089,205.766L316.258,206.415L316.1,207.124L315.848,207.846L315.422,210.178L313.665,214.347L313.5,215.86L313.564,217.394L313.899,218.138L315.165,219.344L315.69,219.973L316.242,221.463L317.039,224.644L317.907,225.998L319.476,226.55L322.792,225.55L324.551,226.167L325.299,226.139L325.819,226.33L325.882,227.26L325.484,228.003L324.125,228.828L323.791,229.582L323.107,229.707L322.901,230.045L322.872,231.17L322.474,231.706L321.108,232.259L320.601,232.722L319.891,233.781L318.972,234.706L317.939,235.355L316.958,235.579L316.591,235.464L316.231,235.225L315.783,235.005L315.231,234.962L314.024,235.164L313.674,235.322L313.155,235.902L312.407,237.476L311.773,237.912L311.331,238.053L311.047,238.217L310.856,238.381L310.632,238.535L310.363,238.807L310.205,239.118L309.999,239.343L309.539,239.365L309.348,239.135L308.807,238.119L308.49,237.803L308.064,237.682L307.731,237.726L307.021,237.912L306.671,238.119L306.255,238.464L305.864,238.65L305.545,238.349L305.354,237.995L305.114,237.742L304.797,237.671L304.437,237.824L303.798,238.393L303.323,239.01L301.947,241.746L300.329,244.156L299.728,245.396L299.57,246.199L299.837,249.559L300.121,250.05L301.344,250.814L302.438,251.83L302.82,252.945L302.611,254.213L301.388,257.01L300.679,262.078L300.739,262.875L300.93,263.641L301.281,264.421L301.996,265.476L302.138,266.005L301.897,266.646L300.537,267.038L299.428,268.452L298.603,270.238L297.363,275.286L296.57,277.04L295.288,277.723L294.463,277.844L294.086,278.352L293.987,279.066L294.02,279.908L293.812,280.951L293.245,281.35L291.578,281.602L290.977,281.983L289.77,283.011L289.202,283.109L288.378,282.825L287.727,282.76L287.301,283.119L287.093,284.07L287.629,285.534L289.043,285.852L290.693,285.861L291.879,286.386L293.595,288.801L293.83,289.336L293.453,289.846L291.803,290.621L291.327,291.128L291.578,292.385L292.863,292.953L294.527,293.285L295.904,293.795L296.57,294.362L298.79,297.12L298.98,297.815L299.079,298.503L299.345,299.229L299.728,299.53L300.537,299.486L300.896,299.672L301.153,300.07L301.17,300.306L301.09,300.578L300.93,302.895L301.153,303.588L302.198,304.938L303.023,304.745L304.437,302.462L305.039,301.779L305.673,301.446L307.224,300.989L307.638,300.589L308.064,299.42L308.506,299.169L309.157,299.704L310.554,302.338L311.315,303.255L313.789,304.62L314.8,305.412L315.292,306.729L315.074,309.012L315.265,309.831L316.389,311.689L316.767,312.104L317.399,312.53L317.798,312.688L318.133,312.988L318.874,314.433L319.667,315.523L321.933,320.134L322.743,321.232L323.333,321.69L325.233,322.548L325.819,323.072L326.117,323.608L326.342,324.198L326.724,324.783L327.242,325.192L328.451,325.749L328.958,326.165L329.34,326.75L330.26,329.234L330.642,329.857L331.177,330.327L331.953,330.567L332.4,330.252L332.542,329.425L332.542,327.842L332.935,326.493L333.619,325.466L334.568,325.159L336.978,327.018L338.244,327.148L339.517,326.685L342.129,325.083L343.354,324.766L344.67,324.783L349.388,325.416L349.755,325.182L350.263,324.024L350.596,323.543L352.038,322.93L355.304,322.85L359.741,321.249L360.091,321.216L360.806,321.292L361.172,321.216L361.505,320.997L361.832,320.724L362.165,320.516L362.564,320.439L363.814,321.117L364.799,322.515L366.257,325.531L367.306,326.809L369.648,329.126L370.382,330.585L370.441,332.119L369.824,334.862L370.25,336.45L371.014,337.942L371.49,339.303L371.74,340.744L371.757,344.153L371.855,344.934L372.125,345.852L372.533,346.595L373.025,347.277L373.343,347.992L373.266,348.768L372.933,349.446L372.014,350.713L371.757,351.368L371.855,352.013L372.14,352.604L372.249,353.128L371.841,353.63L371.74,354.428L372.665,361.245L372.489,362.446L371.664,363.648L371.058,364.096L370.474,364.413L369.917,364.795L369.414,365.474L369.207,366.041L368.983,367.221L368.682,367.789L367.78,368.346L366.907,369.768L366.099,370.182L365.53,370.957L365.53,372.53L365.94,375.316L365.799,377.157L365.258,378.633L362.472,382.533L361.979,382.817L361.04,383.101L360.281,383.467L359.488,384.084L358.221,385.467L357.729,386.624L357.506,388.241L357.588,389.9L358.079,391.186L358.632,391.677L360.122,392.393L360.773,392.785L364.531,396.735L365.273,397.777L365.481,399.102L364.59,402.094L364.422,403.662L366.257,407.737L367.147,408.638L368.682,408.687L370.682,408.987L371.681,410.015L372.933,413.237L373.424,413.969L373.976,414.522L375.435,415.614L375.739,415.947L375.976,416.373L376.531,417.755L376.801,417.957L377.148,418.088L379.984,419.607L380.573,420.241L381.367,421.813L381.824,422.431L383.917,424.207L384.283,424.841L384.6,425.839L385.042,426.556L385.725,426.965L386.518,427.298L387.228,427.834L387.418,428.215L387.561,429.123L387.768,429.473L388.085,429.646L388.769,429.767L389.069,429.882L389.687,430.324L390.068,430.75L390.893,431.866L392.226,432.908L393.511,433.116L394.837,432.99L396.312,433.034L397.327,433.782L397.736,435.226L397.771,436.924L397.629,438.426L397.104,439.693L396.121,440.409L394.979,440.966L394.013,441.773L393.667,443.227L395.126,445.478L394.979,446.685L395.662,447.351L398.027,447.717L402.562,447.869L405.128,447.585L405.461,447.061L405.714,446.417L405.821,445.642L405.763,444.691L405.363,442.942L405.43,442.184L405.904,441.326L406.127,440.726L405.855,440.332L404.412,439.459L404.204,439.25L404.178,438.949L404.396,438.715L404.681,438.507L404.828,438.283L404.713,436.525L404.828,435.541L405.954,434.592L405.714,433.417L404.828,431.609L404.637,430.674L404.512,427.599L404.363,427.341L403.287,426.172L403.162,426.074L402.78,425.922L402.638,425.823L402.462,425.572L402.244,425.091L402.036,424.873L401.735,424.714L400.753,424.332L400.338,424.251L399.846,424.098L399.579,423.698L399.403,423.224L398.677,422.065L397.944,420.006L398.52,419.607L401.637,417.52L402.256,416.864L402.511,416.046L402.496,414.189L402.736,413.313L403.796,412.047L403.971,411.571L403.43,410.271L403.337,409.779L403.637,407.622L404.461,405.885L405.714,404.389L408.838,401.553L409.678,400.979L410.706,400.717L411.579,400.761L412.514,401.013L413.257,401.525L413.573,402.303L413.955,402.661L414.558,402.945L415.114,402.968L415.413,402.537L415.54,401.82L415.764,401.553L416.856,401.443L421.139,400.144L421.598,400.127L422.455,400.286L422.864,400.236L423.341,399.997L426.592,397.736L427.274,396.97L427.7,395.977L427.749,395.245L427.491,393.817L427.481,393.092L428.24,390.175L428.683,383.5L428.967,379.392L429.383,373.607L429.759,367.996L428.476,362.796L427.241,357.722L427.225,356.646L427.525,355.487L429.698,350.386Z"/>
        </clipPath>
        <g clip-path="url(#_clip1)">
            <rect x="83.127" y="85.419" width="553.745" height="369.162" style="fill:rgb(3,4,4);fill-rule:nonzero;"/>
            <path d="M360,146.331C403.834,146.331 439.37,181.866 439.37,225.701C439.37,269.536 403.834,305.07 360,305.07C316.165,305.07 280.63,269.536 280.63,225.701C280.63,181.866 316.165,146.331 360,146.331Z" style="fill:rgb(207,32,40);fill-rule:nonzero;"/>
            <rect x="83.127" y="208.473" width="553.745" height="123.054" style="fill:rgb(207,32,40);fill-rule:nonzero;"/>
            <path d="M360,100.185C357.292,100.185 356.309,104.247 356.309,108.184C356.309,118.028 357.539,122.95 360,137.102C362.511,122.95 363.691,117.905 363.691,108.184C363.691,104.123 362.461,100.185 360,100.185Z" style="fill:rgb(207,32,40);fill-rule:nonzero;"/>
            <path d="M370.939,100.663C368.242,100.427 366.908,104.386 366.564,108.31C365.706,118.117 366.504,123.127 367.722,137.438C371.456,123.56 373.072,118.637 373.92,108.953C374.273,104.907 373.392,100.877 370.939,100.663Z" style="fill:rgb(207,32,40);fill-rule:nonzero;"/>
            <path d="M381.795,102.092C379.129,101.623 377.455,105.451 376.771,109.329C375.062,119.023 375.418,124.084 375.385,138.447C380.314,124.948 382.354,120.184 384.042,110.611C384.747,106.611 384.219,102.52 381.795,102.092Z" style="fill:rgb(207,32,40);fill-rule:nonzero;"/>
            <path d="M392.485,104.462C389.871,103.762 387.868,107.429 386.85,111.232C384.302,120.742 384.216,125.814 382.931,140.121C389.019,127.102 391.465,122.534 393.981,113.144C395.032,109.222 394.862,105.099 392.485,104.462Z" style="fill:rgb(207,32,40);fill-rule:nonzero;"/>
            <path d="M402.929,107.755C400.385,106.829 398.07,110.309 396.724,114.008C393.356,123.259 392.83,128.305 390.303,142.445C397.502,130.005 400.337,125.668 403.662,116.534C405.051,112.718 405.241,108.597 402.929,107.755Z" style="fill:rgb(207,32,40);fill-rule:nonzero;"/>
            <path d="M413.045,111.945C410.591,110.801 407.982,114.065 406.318,117.634C402.158,126.556 401.193,131.537 397.443,145.403C405.699,133.638 408.902,129.565 413.01,120.755C414.726,117.074 415.275,112.985 413.045,111.945Z" style="fill:rgb(207,32,40);fill-rule:nonzero;"/>
            <path d="M422.758,117.001C420.413,115.647 417.529,118.672 415.562,122.083C410.639,130.608 409.243,135.486 404.3,148.972C413.549,137.972 417.095,134.193 421.955,125.774C423.985,122.257 424.889,118.232 422.758,117.001Z" style="fill:rgb(207,32,40);fill-rule:nonzero;"/>
            <path d="M431.992,122.885C429.775,121.332 426.639,124.094 424.381,127.319C418.734,135.383 416.919,140.121 410.818,153.124C420.991,142.973 424.853,139.518 430.429,131.554C432.758,128.228 434.009,124.296 431.992,122.885Z" style="fill:rgb(207,32,40);fill-rule:nonzero;"/>
            <path d="M440.679,129.551C438.605,127.811 435.241,130.289 432.71,133.305C426.382,140.846 424.161,145.408 416.95,157.83C427.97,148.603 432.117,145.498 438.366,138.051C440.976,134.939 442.564,131.133 440.679,129.551Z" style="fill:rgb(207,32,40);fill-rule:nonzero;"/>
            <path d="M448.752,136.948C446.838,135.034 443.271,137.209 440.486,139.994C433.525,146.954 430.915,151.305 422.648,163.052C434.431,154.821 438.833,152.088 445.707,145.214C448.578,142.343 450.493,138.688 448.752,136.948Z" style="fill:rgb(207,32,40);fill-rule:nonzero;"/>
            <path d="M456.149,145.021C454.41,142.947 450.667,144.803 447.649,147.334C440.108,153.662 437.129,157.769 427.87,168.75C440.324,161.577 444.949,159.239 452.396,152.99C455.507,150.38 457.732,146.906 456.149,145.021Z" style="fill:rgb(207,32,40);fill-rule:nonzero;"/>
            <path d="M462.815,153.708C461.263,151.491 457.372,153.013 454.146,155.272C446.083,160.918 442.756,164.75 432.575,174.882C445.607,168.822 450.418,166.896 458.382,161.32C461.708,158.991 464.228,155.724 462.815,153.708Z" style="fill:rgb(207,32,40);fill-rule:nonzero;"/>
            <path d="M257.183,153.708C255.631,155.926 258.393,159.062 261.618,161.32C269.683,166.966 274.42,168.781 287.424,174.882C277.272,164.709 273.816,160.848 265.854,155.272C262.527,152.943 258.596,151.692 257.183,153.708Z" style="fill:rgb(207,32,40);fill-rule:nonzero;"/>
            <path d="M263.85,145.021C262.109,147.095 264.587,150.459 267.604,152.99C275.145,159.318 279.707,161.539 292.129,168.75C282.902,157.731 279.797,153.583 272.35,147.334C269.239,144.725 265.432,143.136 263.85,145.021Z" style="fill:rgb(207,32,40);fill-rule:nonzero;"/>
            <path d="M271.247,136.948C269.333,138.862 271.508,142.43 274.293,145.214C281.254,152.175 285.604,154.786 297.351,163.052C289.12,151.27 286.387,146.867 279.513,139.994C276.642,137.122 272.987,135.208 271.247,136.948Z" style="fill:rgb(207,32,40);fill-rule:nonzero;"/>
            <path d="M279.32,129.551C277.246,131.291 279.103,135.034 281.633,138.051C287.961,145.591 292.068,148.571 303.05,157.83C295.876,145.376 293.538,140.751 287.289,133.305C284.679,130.194 281.206,127.969 279.32,129.551Z" style="fill:rgb(207,32,40);fill-rule:nonzero;"/>
            <path d="M288.007,122.885C285.79,124.437 287.312,128.329 289.571,131.554C295.217,139.618 299.048,142.944 309.181,153.124C303.121,140.093 301.195,135.282 295.619,127.319C293.29,123.993 290.023,121.473 288.007,122.885Z" style="fill:rgb(207,32,40);fill-rule:nonzero;"/>
            <path d="M297.242,117.001C294.898,118.355 296.076,122.364 298.044,125.774C302.967,134.3 306.493,137.947 315.701,148.972C310.799,135.461 309.299,130.501 304.439,122.083C302.408,118.566 299.374,115.771 297.242,117.001Z" style="fill:rgb(207,32,40);fill-rule:nonzero;"/>
            <path d="M306.955,111.945C304.501,113.089 305.325,117.186 306.989,120.755C311.149,129.676 314.345,133.617 322.556,145.403C318.851,131.517 317.789,126.445 313.681,117.634C311.964,113.954 309.186,110.905 306.955,111.945Z" style="fill:rgb(207,32,40);fill-rule:nonzero;"/>
            <path d="M317.071,107.755C314.527,108.681 314.991,112.833 316.338,116.534C319.705,125.785 322.545,129.989 329.697,142.445C327.216,128.288 326.601,123.144 323.276,114.008C321.887,110.192 319.384,106.913 317.071,107.755Z" style="fill:rgb(207,32,40);fill-rule:nonzero;"/>
            <path d="M327.514,104.462C324.899,105.163 325,109.34 326.018,113.144C328.566,122.653 331.029,127.088 337.068,140.121C335.831,125.802 335.666,120.623 333.15,111.232C332.099,107.31 329.892,103.825 327.514,104.462Z" style="fill:rgb(207,32,40);fill-rule:nonzero;"/>
            <path d="M338.204,102.092C335.538,102.562 335.274,106.733 335.958,110.611C337.667,120.305 339.734,124.939 344.615,138.447C344.63,124.076 344.917,118.902 343.229,109.329C342.523,105.329 340.628,101.665 338.204,102.092Z" style="fill:rgb(207,32,40);fill-rule:nonzero;"/>
            <path d="M349.06,100.663C346.364,100.899 345.737,105.03 346.08,108.953C346.938,118.76 348.593,123.556 352.278,137.438C353.545,123.123 354.282,117.994 353.435,108.31C353.081,104.264 351.512,100.448 349.06,100.663Z" style="fill:rgb(207,32,40);fill-rule:nonzero;"/>
            <rect x="83.127" y="199.244" width="553.745" height="9.229" style="fill:rgb(3,4,4);fill-rule:nonzero;"/>
            <rect x="83.127" y="331.527" width="553.745" height="123.054" style="fill:rgb(50,159,72);fill-rule:nonzero;"/>
        </g>
    </g>
    <g transform="matrix(4.16667,0,0,4.16667,-346.362,-355.913)">
        <path d="M379.334,215.165L379.842,215.307L380.334,215.089L380.542,214.511L380.366,213.931L380.383,213.417L381.11,213.036L379.842,212.412L379.367,212.8L379.018,214.051L378.657,214.592L378.908,214.854L379.334,215.165ZM373.299,212.374L373.529,212.704L373.76,212.942L374.034,212.953L374.403,212.585L374.575,211.947L374.326,211.386L373.803,211.081L373.151,211.217L373.134,211.226L372.775,211.521L372.819,211.829L373.299,212.374ZM429.698,350.386L430.935,347.468L432.616,343.487L431.666,343.502L431.076,343.426L430.774,343.011L430.315,333.359L430.059,332.566L429.54,331.901L427.35,329.682L424.1,325.575L419.38,319.615L415.497,314.703L412.481,308.914L408.63,304.336L404.527,299.431L399.704,293.685L395.787,289.019L391.859,285.436L387.276,281.234L385.866,280.378L385.604,280.282L385.502,280.635L385.392,281.361L385.71,284.377L385.392,287.303L385.609,288.517L386.627,289.559L387.468,289.97L388.135,290.051L392.776,289.904L394.477,290.222L395.11,291.096L395.346,292.395L395.869,293.979L396.377,294.727L396.946,295.388L397.104,295.693L397.154,296.47L397.487,297.519L397.611,298.388L397.728,299.978L398.055,301.277L399.66,303.764L400.163,305.002L400.135,305.714L399.978,306.473L399.961,307.253L400.321,307.996L401.735,310.196L401.928,311.831L402.369,313.229L404.222,316.999L404.953,318.091L404.938,318.551L404.696,319.358L404.353,320.124L404.035,320.451L403.702,320.566L403.037,321.057L402.621,321.09L402.387,320.915L402.227,320.615L402.112,320.331L402.004,320.134L399.862,318.254L399.01,316.923L398.469,316.289L397.728,316.032L397.536,315.748L396.427,314.433L396.153,313.982L395.804,312.673L394.936,311.181L393.844,310.214L392.811,310.373L392.586,310.115L392.078,309.656L391.859,309.389L390.401,309.756L389.402,308.488L389.004,306.588L389.417,305.002L388.8,304.62L387.817,303.604L387.228,303.113L385.884,302.731L385.011,303.331L384.851,304.512L385.551,305.813L385.852,306.915L385.06,307.996L384.026,309.122L383.584,310.373L383.791,310.803L384.141,311.264L384.425,311.722L384.345,312.104L383.835,312.432L383.66,312.655L383.584,313.032L383.283,313.557L382.585,314.016L381.776,314.332L381.127,314.446L380.415,314.682L379.668,315.081L378.957,315.257L378.323,314.792L378.21,314.114L378.449,313.524L378.482,312.923L377.733,312.257L376.942,311.974L376.26,311.896L375.576,311.722L374.8,311.132L374.467,310.661L374.106,309.962L373.833,309.215L373.725,308.613L373.473,308.122L371.855,306.247L371.632,305.604L370.872,301.637L371.092,300.469L371.823,299.464L372.964,298.229L373.282,297.705L374.058,295.552L373.992,295.203L373.676,294.427L373.725,293.979L373.976,293.652L374.74,293.046L374.975,292.701L375.057,291.859L374.914,291.203L374.898,290.561L375.406,289.73L375.608,288.986L375.101,288.369L374.407,287.828L374.058,287.369L373.806,286.726L372.475,285.534L371.855,284.868L371.282,283.584L370.933,283.043L370.349,282.649L369.633,282.568L368.239,283.092L367.414,283.251L366.781,283.061L366.354,282.6L365.989,282.027L365.116,280.984L364.164,278.902L361.706,274.873L361.155,273.375L360.98,271.846L361.564,270.556L362.515,269.191L362.738,267.901L362.324,264.738L362.247,257.287L361.706,254.988L361.771,254.201L362.139,252.847L361.996,252.202L361.865,252.655L361.614,253.18L361.297,253.447L360.947,253.142L360.837,252.596L361.123,251.524L361.089,250.929L360.597,250.126L359.236,248.918L358.947,247.958L359.554,245.734L359.505,244.741L357.807,244.009L357.13,243.222L356.19,241.528L355.495,239.426L355.287,238.261L355.272,237.125L355.415,236L355.622,235.584L356.031,235.098L356.319,234.667L356.337,234.251L356.19,233.225L354.798,229.149L353.748,228.483L352.862,228.483L351.979,228.631L350.946,228.391L351.039,228.036L350.978,227.61L350.756,227.265L349.929,226.942L349.787,226.516L349.771,226.004L349.694,225.555L348.886,223.371L348.47,220.416L348.47,219.606L348.996,217.389L349.17,215.931L349.694,213.657L349.913,211.91L350.197,211.123L350.787,210.391L355.89,206.469L355.339,205.546L355.339,204.21L355.686,202.842L356.19,201.83L356.621,201.41L357.681,200.793L358.188,200.4L358.348,200.155L358.505,199.592L358.664,199.31L358.964,199.033L359.457,198.747L361.28,197.005L361.679,196.096L361.706,194.615L361.473,193.409L361.248,192.762L360.947,192.296L360.738,191.831L360.738,190.507L359.87,187.271L359.572,181.583L358.664,178.99L358.271,178.561L357.871,178.272L357.556,177.884L357.413,177.157L357.539,176.019L357.506,175.56L357.271,175.125L356.763,173.948L357.08,172.798L358.331,170.608L357.697,169.742L357.413,168.248L357.572,162.523L356.813,153.772L356.19,151.319L356.205,150.612L356.479,149.047L356.496,148.504L356.129,147.744L355.622,147.041L355.339,146.332L355.713,145.545L356.031,145.259L357.112,144.617L357.413,144.3L357.396,143.961L357.206,143.595L357.112,143.208L357.031,141.779L357.287,141.364L358.03,140.733L358.429,140.586L358.729,140.643L358.997,140.594L359.28,140.107L359.188,139.974L358.664,138.846L358.204,137.261L357.855,136.634L356.256,134.809L355.765,134.107L355.539,133.424L355.238,132.782L354.528,132.135L353.103,131.105L350.613,128.598L346.904,123.256L345.603,120.216L345.096,117.125L345.096,115.58L344.985,115.139L344.711,115.004L344.353,114.969L344.02,114.797L342.955,112.309L342.604,109.182L342.813,107.707L343.143,107.352L342.637,106.985L342.145,106.087L341.068,105.175L339.803,104.418L338.736,103.986L337.578,103.225L336.426,102.069L335.203,101.307L333.76,101.706L332.575,102.375L331.432,102.522L330.226,102.313L328.86,101.883L327.34,101.725L326.249,102.178L325.184,102.796L323.791,103.132L321.918,103L321.064,102.736L320.366,102.247L319.826,101.403L319.05,99.723L318.226,98.942L315.706,97.154L314.898,96.873L314.5,96.946L313.789,97.413L313.408,97.536L312.866,97.484L311.932,97.206L311.298,97.208L311.015,97.353L310.397,97.863L309.982,98.003L309.808,97.904L308.49,97.385L307.289,97.121L306.874,96.957L304.114,94.821L301.865,92.592L301.072,92.133L300.204,92.168L299.345,92.602L298.663,93.338L298.762,95.979L298.964,96.591L299.412,96.951L299.68,96.858L299.979,96.638L300.505,96.616L300.804,96.798L301.454,97.402L301.854,97.584L301.865,98.823L301.072,102.085L301.63,103.315L302.213,103.508L302.722,103.288L303.214,102.943L303.815,102.796L304.306,103.025L304.498,103.506L304.596,104.053L304.831,104.483L305.829,104.844L306.224,104.017L306.37,102.679L306.623,101.504L307.671,102.007L310.097,102.129L310.998,102.763L311.631,103.899L311.839,104.502L311.899,105.19L311.773,105.675L311.555,106.041L311.391,106.466L311.522,107.136L311.949,107.774L313.073,108.468L313.564,108.995L314.216,110.228L314.597,110.774L315.133,111.252L315.69,111.541L317.339,112.15L317.641,112.5L318.338,114.289L318.639,115.554L318.306,116.506L316.973,118.571L316.133,120.71L315.898,121.854L315.865,123.023L316.466,123.853L320.142,125.477L321.081,126.279L321.808,127.08L322.632,127.749L323.791,128.155L324.632,129.253L325.517,129.876L326.167,130.611L326.267,132.04L325.975,134.574L326.134,135.664L327.326,138.46L327.708,138.99L328.958,140.107L329.308,140.495L330.176,142.531L330.876,143.328L332.095,143.486L332.095,144.679L332.411,145.505L332.493,146.296L331.75,147.4L331.05,148.031L329.291,149.304L328.718,149.561L328.117,149.954L325.934,152.406L325.2,154.231L324.708,155.018L323.791,155.583L323.107,155.709L322.299,156.52L321.698,156.788L321.016,156.749L319.525,156.46L318.908,156.569L318.289,156.817L317.148,157.039L316.547,157.244L315.991,157.716L315.15,158.994L314.482,159.399L313.948,159.382L313.472,159.257L313.057,159.401L312.664,160.202L312.615,160.852L312.982,161.103L313.532,161.103L314.149,161.013L314.8,161.567L315.133,162.998L315.422,165.711L315.848,167.076L316.498,168.335L317.323,169.477L318.338,170.479L319.765,172.998L319.383,174.355L318.766,175.628L315.608,180.476L315.548,180.773L315.706,181.285L315.642,181.563L315.39,181.773L314.707,182.071L314.5,182.314L314.423,182.953L314.516,183.543L314.5,184.124L314.122,184.748L312.982,183.805L312.549,184.45L312.756,188.325L312.708,188.888L312.424,189.738L311.757,191.154L311.915,191.507L312.664,191.786L313.408,191.788L314.198,191.69L314.93,191.818L315.548,192.509L315.799,193.245L316.307,200.647L316.166,202.315L315.564,204.033L315.581,204.765L316.089,205.766L316.258,206.415L316.1,207.124L315.848,207.846L315.422,210.178L313.665,214.347L313.5,215.86L313.564,217.394L313.899,218.138L315.165,219.344L315.69,219.973L316.242,221.463L317.039,224.644L317.907,225.998L319.476,226.55L322.792,225.55L324.551,226.167L325.299,226.139L325.819,226.33L325.882,227.26L325.484,228.003L324.125,228.828L323.791,229.582L323.107,229.707L322.901,230.045L322.872,231.17L322.474,231.706L321.108,232.259L320.601,232.722L319.891,233.781L318.972,234.706L317.939,235.355L316.958,235.579L316.591,235.464L316.231,235.225L315.783,235.005L315.231,234.962L314.024,235.164L313.674,235.322L313.155,235.902L312.407,237.476L311.773,237.912L311.331,238.053L311.047,238.217L310.856,238.381L310.632,238.535L310.363,238.807L310.205,239.118L309.999,239.343L309.539,239.365L309.348,239.135L308.807,238.119L308.49,237.803L308.064,237.682L307.731,237.726L307.021,237.912L306.671,238.119L306.255,238.464L305.864,238.65L305.545,238.349L305.354,237.995L305.114,237.742L304.797,237.671L304.437,237.824L303.798,238.393L303.323,239.01L301.947,241.746L300.329,244.156L299.728,245.396L299.57,246.199L299.837,249.559L300.121,250.05L301.344,250.814L302.438,251.83L302.82,252.945L302.611,254.213L301.388,257.01L300.679,262.078L300.739,262.875L300.93,263.641L301.281,264.421L301.996,265.476L302.138,266.005L301.897,266.646L300.537,267.038L299.428,268.452L298.603,270.238L297.363,275.286L296.57,277.04L295.288,277.723L294.463,277.844L294.086,278.352L293.987,279.066L294.02,279.908L293.812,280.951L293.245,281.35L291.578,281.602L290.977,281.983L289.77,283.011L289.202,283.109L288.378,282.825L287.727,282.76L287.301,283.119L287.093,284.07L287.629,285.534L289.043,285.852L290.693,285.861L291.879,286.386L293.595,288.801L293.83,289.336L293.453,289.846L291.803,290.621L291.327,291.128L291.578,292.385L292.863,292.953L294.527,293.285L295.904,293.795L296.57,294.362L298.79,297.12L298.98,297.815L299.079,298.503L299.345,299.229L299.728,299.53L300.537,299.486L300.896,299.672L301.153,300.07L301.17,300.306L301.09,300.578L300.93,302.895L301.153,303.588L302.198,304.938L303.023,304.745L304.437,302.462L305.039,301.779L305.673,301.446L307.224,300.989L307.638,300.589L308.064,299.42L308.506,299.169L309.157,299.704L310.554,302.338L311.315,303.255L313.789,304.62L314.8,305.412L315.292,306.729L315.074,309.012L315.265,309.831L316.389,311.689L316.767,312.104L317.399,312.53L317.798,312.688L318.133,312.988L318.874,314.433L319.667,315.523L321.933,320.134L322.743,321.232L323.333,321.69L325.233,322.548L325.819,323.072L326.117,323.608L326.342,324.198L326.724,324.783L327.242,325.192L328.451,325.749L328.958,326.165L329.34,326.75L330.26,329.234L330.642,329.857L331.177,330.327L331.953,330.567L332.4,330.252L332.542,329.425L332.542,327.842L332.935,326.493L333.619,325.466L334.568,325.159L336.978,327.018L338.244,327.148L339.517,326.685L342.129,325.083L343.354,324.766L344.67,324.783L349.388,325.416L349.755,325.182L350.263,324.024L350.596,323.543L352.038,322.93L355.304,322.85L359.741,321.249L360.091,321.216L360.806,321.292L361.172,321.216L361.505,320.997L361.832,320.724L362.165,320.516L362.564,320.439L363.814,321.117L364.799,322.515L366.257,325.531L367.306,326.809L369.648,329.126L370.382,330.585L370.441,332.119L369.824,334.862L370.25,336.45L371.014,337.942L371.49,339.303L371.74,340.744L371.757,344.153L371.855,344.934L372.125,345.852L372.533,346.595L373.025,347.277L373.343,347.992L373.266,348.768L372.933,349.446L372.014,350.713L371.757,351.368L371.855,352.013L372.14,352.604L372.249,353.128L371.841,353.63L371.74,354.428L372.665,361.245L372.489,362.446L371.664,363.648L371.058,364.096L370.474,364.413L369.917,364.795L369.414,365.474L369.207,366.041L368.983,367.221L368.682,367.789L367.78,368.346L366.907,369.768L366.099,370.182L365.53,370.957L365.53,372.53L365.94,375.316L365.799,377.157L365.258,378.633L362.472,382.533L361.979,382.817L361.04,383.101L360.281,383.467L359.488,384.084L358.221,385.467L357.729,386.624L357.506,388.241L357.588,389.9L358.079,391.186L358.632,391.677L360.122,392.393L360.773,392.785L364.531,396.735L365.273,397.777L365.481,399.102L364.59,402.094L364.422,403.662L366.257,407.737L367.147,408.638L368.682,408.687L370.682,408.987L371.681,410.015L372.933,413.237L373.424,413.969L373.976,414.522L375.435,415.614L375.739,415.947L375.976,416.373L376.531,417.755L376.801,417.957L377.148,418.088L379.984,419.607L380.573,420.241L381.367,421.813L381.824,422.431L383.917,424.207L384.283,424.841L384.6,425.839L385.042,426.556L385.725,426.965L386.518,427.298L387.228,427.834L387.418,428.215L387.561,429.123L387.768,429.473L388.085,429.646L388.769,429.767L389.069,429.882L389.687,430.324L390.068,430.75L390.893,431.866L392.226,432.908L393.511,433.116L394.837,432.99L396.312,433.034L397.327,433.782L397.736,435.226L397.771,436.924L397.629,438.426L397.104,439.693L396.121,440.409L394.979,440.966L394.013,441.773L393.667,443.227L395.126,445.478L394.979,446.685L395.662,447.351L398.027,447.717L402.562,447.869L405.128,447.585L405.461,447.061L405.714,446.417L405.821,445.642L405.763,444.691L405.363,442.942L405.43,442.184L405.904,441.326L406.127,440.726L405.855,440.332L404.412,439.459L404.204,439.25L404.178,438.949L404.396,438.715L404.681,438.507L404.828,438.283L404.713,436.525L404.828,435.541L405.954,434.592L405.714,433.417L404.828,431.609L404.637,430.674L404.512,427.599L404.363,427.341L403.287,426.172L403.162,426.074L402.78,425.922L402.638,425.823L402.462,425.572L402.244,425.091L402.036,424.873L401.735,424.714L400.753,424.332L400.338,424.251L399.846,424.098L399.579,423.698L399.403,423.224L398.677,422.065L397.944,420.006L398.52,419.607L401.637,417.52L402.256,416.864L402.511,416.046L402.496,414.189L402.736,413.313L403.796,412.047L403.971,411.571L403.43,410.271L403.337,409.779L403.637,407.622L404.461,405.885L405.714,404.389L408.838,401.553L409.678,400.979L410.706,400.717L411.579,400.761L412.514,401.013L413.257,401.525L413.573,402.303L413.955,402.661L414.558,402.945L415.114,402.968L415.413,402.537L415.54,401.82L415.764,401.553L416.856,401.443L421.139,400.144L421.598,400.127L422.455,400.286L422.864,400.236L423.341,399.997L426.592,397.736L427.274,396.97L427.7,395.977L427.749,395.245L427.491,393.817L427.481,393.092L428.24,390.175L428.683,383.5L428.967,379.392L429.383,373.607L429.759,367.996L428.476,362.796L427.241,357.722L427.225,356.646L427.525,355.487L429.698,350.386Z" style="fill:none;stroke:rgb(153,153,153);stroke-width:0.25px;"/>
    </g>
</svg>
