<?xml version="1.0" encoding="UTF-8" standalone="no"?>
<!DOCTYPE svg PUBLIC "-//W3C//DTD SVG 1.1//EN" "http://www.w3.org/Graphics/SVG/1.1/DTD/svg11.dtd">
<svg width="100%" height="100%" viewBox="0 0 2384 1192" version="1.1" xmlns="http://www.w3.org/2000/svg" xmlns:xlink="http://www.w3.org/1999/xlink" xml:space="preserve" xmlns:serif="http://www.serif.com/" style="fill-rule:evenodd;clip-rule:evenodd;stroke-linecap:round;stroke-linejoin:round;stroke-miterlimit:2;">
    <g transform="matrix(4.16667,0,0,4.16667,-308.333,-529.167)">
        <clipPath id="_clip1">
            <path d="M535.303,179.404L535.168,179.124L534.817,178.939L534.571,179.032L534.171,179.237L533.787,179.373L533.624,179.237L533.436,178.62L532.975,178.241L532.39,177.932L531.811,177.521L532.098,177.364L532.212,177.314L532.212,177.099L531.893,176.963L531.027,176.314L530.821,176.097L530.761,175.832L530.918,175.388L530.821,175.089L530.019,174.667L528.156,174.213L522.163,174.029L521.71,173.936L521.328,173.699L521.06,173.245L521.042,172.908L521.216,171.989L521.227,171.424L521.031,170.796L520.987,168.5L517.702,152.671L504.357,134.024L497.151,133.715L496.264,133.857L495.998,134.075L496.019,134.588L495.576,134.901L494.411,135.99L494.206,136.261L494.053,136.569L494.042,136.683L494.185,136.895L494.237,137.062L494.155,137.3L493.968,137.338L493.762,137.329L493.631,137.382L493.361,137.793L493.425,137.938L493.837,137.988L493.301,138.677L492.599,138.935L491.807,139.081L491.022,139.429L491.125,139.194L491.189,138.893L491.125,138.659L490.849,138.596L490.686,138.719L490.47,139.223L490.254,139.429L490.264,139.109L490.254,139.007L489.768,139.173L489.224,139.194L488.895,139.071L489.057,138.783L489.057,138.596L488.244,138.669L487.503,138.935L484.877,140.251L484.076,140.408L483.26,140.224L483.135,140.717L482.869,140.738L482.5,140.564L482.046,140.429L482.046,140.656L482.294,140.728L482.5,140.842L482.674,141.026L482.858,141.263L482.479,141.583L481.667,142.488L481.645,142.569L481.684,142.806L481.667,142.889L481.58,142.91L481.326,142.871L481.251,142.889L481.131,142.963L480.737,143.094L480.654,143.208L480.768,143.56L480.953,143.775L480.963,143.889L480.552,143.929L480.491,143.817L480.324,143.613L480.15,143.488L480.08,143.602L480.037,143.62L479.842,144.116L479.09,145.031L478.606,145.401L477.947,145.556L477.606,145.709L477.4,146.401L477.152,146.554L476.713,146.461L476.415,146.256L476.166,146.001L475.856,145.763L475.814,146.238L475.766,146.423L475.57,146.618L475.371,146.77L475.154,146.834L475.062,146.66L474.91,146.77L473.849,147.771L473.768,148.253L473.385,148.8L473.179,149.244L473.643,149.417L473.47,150.077L473.302,150.386L473.064,150.652L472.849,150.727L472.192,150.84L472.058,150.954L471.81,152.541L471.677,152.887L471.266,153.083L470.79,152.991L470.233,152.796L469.566,152.683L467.731,152.622L467.26,152.487L466.979,152.65L466.763,152.497L466.546,152.238L466.259,152.075L465.982,152.118L465.806,152.26L465.673,152.416L465.57,152.487L465.332,152.444L465.279,152.331L465.273,152.167L465.159,151.961L464.829,151.787L463.356,151.262L462.87,151.365L462.253,151.787L461.842,151.859L460.872,151.94L459.166,151.518L458.588,151.241L457.249,150.169L453.194,147.689L449.969,146.38L441.144,144.145L426.943,144.23L421.642,143.602L418.831,143.825L403.858,147.041L402.645,147.554L397.116,150.652L396.591,151.149L396.467,151.458L396.364,152.188L396.218,152.487L395.991,152.725L395.867,152.753L395.726,152.725L395.417,152.838L394.86,153.196L393.881,154.122L388.671,160.271L388.33,160.56L388.021,160.766L387.816,160.857L387.199,160.9L380.999,160.179L380.475,160.208L378.921,160.652L377.838,160.652L368.314,159.541L360.632,157.266L359.56,156.645L359.057,156.039L358.223,154.658L357.645,154.031L356.378,153.073L355.679,152.735L354.898,152.569L354.547,152.569L353.827,152.65L353.486,152.764L353.156,152.931L353.031,153.012L352.918,153.001L352.63,152.887L352.414,152.753L349.501,150.099L348.781,149.223L348.39,148.893L347.975,148.698L347.113,148.459L346.69,148.253L345.7,147.484L344.899,146.987L344.218,146.331L343.877,146.082L343.075,145.773L335.68,144.723L334.683,144.815L333.686,145.259L323.076,151.652L322.172,151.94L321.121,151.94L318.083,151.376L317.424,151.497L315.653,153.586L314.273,154.804L313.655,155.112L312.957,155.226L310.785,155.237L309.816,155.133L308.919,154.793L307.981,154.094L306.921,153.104L305.193,151.117L302.091,145.433L297.337,140.224L293.239,136.342L291.291,135.217L289.179,134.767L288.625,134.88L286.937,135.827L286.635,135.909L286.44,135.827L286.256,135.66L285.989,135.519L269.482,128.969L268.535,128.763L264.221,129.515L263.418,129.926L263.077,130.371L262.592,131.459L262.19,131.935L261.295,132.584L260.956,132.715L259.959,132.911L255.775,132.727L252.819,133.262L251.134,133.159L250.463,132.861L249.814,132.232L249.144,131.935L248.206,132.038L238.932,134.302L237.345,134.929L235.986,135.898L231.394,140.284L230.578,140.685L229.706,140.852L227.822,140.912L227.757,148.048L226.739,155.112L222.083,162.415L220.189,164.214L213.816,169.004L213.691,169.324L213.979,176.705L213.199,180.597L213.177,181.885L213.908,184.057L214.043,185.068L213.546,186.054L213.053,186.568L212.724,186.991L212.599,187.477L212.766,189.155L212.858,189.453L213.021,189.762L213.124,189.865L213.249,189.936L213.93,190.667L214.288,191.214L214.434,191.803L214.228,192.441L213.877,192.788L212.375,193.686L211.737,194.364L209.707,197.807L209.356,199.144L209.182,199.587L208.597,201.18L208.646,201.862L209.08,202.665L214.309,210.026L215.008,210.697L215.246,210.736L215.526,210.687L215.792,210.697L216.04,210.932L215.743,212.085L215.743,212.723L215.864,213.312L216.08,213.859L216.377,214.363L216.978,217L216.945,217.861L216.307,219.419L216.275,219.933L216.42,220.282L216.658,220.53L216.913,220.736L217.131,220.994L217.275,221.314L217.553,222.279L217.822,222.598L218.201,222.712L218.614,222.797L218.985,223.013L219.252,223.577L219.398,224.433L219.408,226.058L219.191,226.854L218.439,228.315L218.18,229.105L218.152,230.621L217.953,231.168L217.513,231.725L217.059,231.796L215.186,230.816L214.58,230.702L214,230.887L213.432,231.456L213.237,231.732L213.156,231.92L213.124,232.505L213.014,232.857L212.279,233.978L211.673,235.315L211.705,235.862L212.116,236.543L214.103,238.58L214.362,238.953L214.455,239.414L214.352,240.105L214.082,240.755L213.712,241.021L213.291,241.227L212.837,241.66L212.652,242.132L212.468,244.645L212.177,245.233L211.233,246.354L210.459,247.757L209.945,248.239L208.192,248.044L207.06,248.353L204.959,249.207L204.487,249.56L204.228,250.145L204.167,250.815L204.271,251.39L204.629,252.298L204.856,253.192L204.65,253.955L203.703,254.491L203.188,254.459L202.622,254.356L202.148,254.501L201.933,255.222L201.964,255.417L202.118,255.796L202.089,255.942L200.304,258.27L200.091,258.455L199.616,258.618L199.41,258.773L198.842,259.679L198.728,260.495L198.927,261.318L199.296,262.233L199.398,262.727L199.398,264.633L199.214,265.239L198.618,266.385L197.65,269.401L197.196,270.316L196.486,270.81L194.488,271.324L194.148,271.324L193.86,271.193L193.573,270.998L193.253,270.842L192.934,270.81L192.037,270.831L191.728,270.895L191.419,271.101L191.171,271.356L190.883,271.563L190.493,271.615L188.247,271.427L188.339,272.211L188.279,274.063L188.115,274.869L188.02,275.054L187.693,275.547L187.618,275.61L187.672,275.845L187.796,275.909L187.938,275.958L188.052,276.165L188.041,276.608L187.683,277.452L187.569,277.896L187.608,278.161L187.753,278.605L187.722,278.875L187.569,279.028L187.076,279.254L186.909,279.472L186.898,279.78L187.537,287.811L187.31,288.8L187.076,289.151L186.497,289.801L186.341,290.17L186.334,290.428L186.405,290.972L186.405,291.24L186.188,292.454L186.146,293.012L186.249,293.71L186.476,294.359L187.055,295.577L187.25,296.205L187.239,296.841L187.001,297.376L186.703,297.873L186.476,298.365L186.395,298.901L186.334,300.651L185.961,302.507L185.859,304.349L185.756,304.607L185.458,305.161L185.387,305.388L185.415,305.636L185.652,305.995L185.983,306.829L186.682,307.613L186.941,308.024L187.022,308.446L186.682,313.348L186.828,314.49L187.413,315.583L188.279,316.602L188.929,317.673L188.846,318.896L188.771,319.156L188.75,319.319L188.658,319.384L188.03,319.259L187.722,319.259L187.505,319.384L187.435,319.713L188.041,326.888L188.012,327.299L187.916,327.569L187.683,327.878L187.413,328.435L187.289,328.619L187.26,328.825L187.374,329.205L187.618,329.514L188.393,330.142L188.556,330.422L188.442,330.741L188.144,330.894L187.764,331.007L187.423,331.164L186.671,332.213L186.763,333.275L187.168,334.396L187.31,335.62L187.001,336.848L186.919,337.477L187.065,338.05L187.289,338.349L187.537,338.525L187.835,338.608L188.197,338.646L188.37,338.781L188.423,339.069L188.527,340.421L188.36,340.747L188.002,340.985L187.477,341.45L187.136,342.078L187.125,342.675L187.384,343.909L187.321,344.527L186.682,346.383L186.352,348.277L186.341,350.059L192.891,349.459L197.402,349.675L201.245,349.235L204.516,349.387L206.216,349.203L206.36,348.554L206.205,348.412L206.155,348.245L206.08,348.093L205.938,347.937L205.783,347.677L205.907,347.504L206.112,347.34L206.226,347.135L206.308,346.783L206.72,346.155L206.843,345.847L206.822,345.576L206.659,345.148L206.616,344.941L206.729,344.703L207,344.641L207.298,344.622L207.536,344.537L208.174,343.838L208.533,343.529L209.036,343.241L209.008,343.654L208.802,344.271L208.83,344.63L208.955,345.013L209.036,345.104L209.231,345.251L209.583,345.229L209.966,345.364L210.027,345.435L210.406,345.413L210.747,345.343L211.087,345.229L212.106,344.683L212.415,344.641L212.939,344.63L214.362,344.179L215.928,343.27L217.563,342.652L219.22,343.046L219.436,342.983L219.614,342.983L219.799,343.064L220.025,343.241L217.595,343.59L217.233,343.735L217.08,344.362L216.658,344.828L216.08,345.175L215.423,345.435L215.029,345.312L213.745,345.723L213.124,345.847L211.932,345.847L211.645,345.949L211.633,346.197L211.694,346.523L211.633,346.844L211.241,347.298L210.79,347.535L210.292,347.628L209.739,347.639L209.356,347.78L209.129,347.773L209.036,347.535L208.862,347.514L207.833,348.451L207.72,348.018L207.667,347.574L207.493,347.421L207.039,347.844L206.864,347.688L206.691,347.648L206.506,347.699L206.226,347.844L206.637,348.143L206.925,348.473L207.287,348.728L207.936,348.83L220.373,348.213L227.839,348.83L235.996,350.336L239.013,351.655L240.123,352.375L241.915,354.044L242.884,354.65L245.077,356.03L245.975,356.75L246.994,357.812L247.734,358.954L248.259,359.55L249.413,360.048L249.998,360.601L253.55,365.186L254.632,367.572L254.941,367.595L256.403,366.224L256.836,365.915L259.039,364.752L260.191,364.411L261.194,363.528L261.799,363.415L261.13,364.524L258.742,365.391L257.827,366.193L257.794,366.479L257.907,366.782L257.979,367.038L257.827,367.222L257.609,367.172L257.021,366.707L256.694,366.593L256.321,366.82L256.056,367.356L255.878,368.017L255.807,368.603L255.91,369.272L256.187,369.798L256.467,370.199L256.732,371.022L257.096,371.618L257.556,372.197L258,372.597L258.39,372.867L258.566,372.949L259.31,372.679L259.988,372.278L260.306,372.197L261.009,372.137L261.513,371.938L261.881,371.558L262.202,370.983L262.996,368.818L263.181,368.818L263.219,369.365L263.16,369.788L262.613,371.373L262.602,371.877L262.84,372.288L263.397,372.597L263.88,372.629L264.405,372.506L264.88,372.268L265.188,372.002L265.547,371.104L265.827,370.816L266.381,370.806L266.889,371.032L267.484,371.443L267.978,371.938L268.194,372.392L268.194,372.711L268.155,372.896L267.999,372.98L267.69,372.987L267.62,372.856L267.463,372.207L267.382,372.002L267.073,371.774L266.63,371.649L266.154,371.64L265.785,371.796L265.558,372.137L265.075,373.176L264.788,373.587L264.59,373.587L263.982,373.246L262.9,373.072L260.051,372.949L259.834,372.987L259.586,373.165L259.104,373.68L258.907,373.794L258.834,374.07L258.887,374.688L259.104,375.316L259.709,375.728L260.626,376.572L260.739,376.728L260.874,377.047L261.009,377.199L264.302,378.303L265.98,378.396L265.806,378.147L265.611,377.746L265.537,377.366L265.683,377.199L266.044,377.254L266.154,377.395L266.208,377.583L266.381,377.778L266.999,378.034L267.474,377.93L267.854,377.502L268.194,376.788L268.01,376.036L268.41,375.401L269.109,375.049L269.791,375.195L269.925,375.049L270.111,374.925L270.181,374.78L270.717,374.936L271.129,374.72L271.529,374.379L271.995,374.184L271.583,374.833L271.242,375.212L270.891,375.379L269.916,375.358L269.472,375.45L269.092,375.699L268.904,376.036L268.844,376.5L268.886,376.976L268.989,377.388L269.266,377.816L269.965,378.428L270.181,378.786L270.007,378.786L269.709,378.591L269.255,378.569L268.779,378.661L267.761,379.055L267.598,379.169L267.442,379.363L267.215,379.797L266.98,379.981L266.732,379.631L266.651,379.445L266.58,379.169L266.033,379.332L264.096,379.375L263.418,379.506L263.251,379.899L263.869,382.515L263.993,383.853L263.944,384.914L263.993,385.151L264.302,385.305L265.005,385.18L265.384,385.347L265.806,385.19L266.022,385.162L266.289,385.151L266.392,385.026L266.371,384.492L266.484,384.367L266.785,384.541L267.577,385.418L267.793,385.769L267.204,385.623L266.58,385.563L267.198,387.149L266.825,386.922L266.3,386.212L265.98,385.943L265.537,385.797L265.086,385.758L264.734,385.894L264.59,386.252L264.685,386.706L264.891,387.015L265.096,387.23L265.188,387.447L265.249,387.93L265.416,388.373L265.785,389.136L265.941,389.587L266.208,390.946L267.009,393.192L267.938,394.242L268.194,394.931L267.198,394.335L267.516,394.708L268.248,395.952L268.389,396.424L268.73,396.982L269.997,397.767L270.007,398.309L269.802,398.188L269.709,398.146L269.586,398.113L269.862,399.348L270.675,400.473L273.396,402.986L273.571,403.109L274.351,403.912L274.578,404.221L275.196,404.892L275.607,405.055L276.022,405.146L276.37,405.313L276.597,405.682L276.38,405.569L276.001,405.396L275.794,405.271L276.143,405.714L277.328,406.392L277.813,406.878L277.988,406.878L277.967,406.559L278.048,406.342L278.254,406.25L278.584,406.278L278.287,407.013L278.637,407.712L279.283,408.247L279.883,408.464L280.109,408.616L280.489,408.937L280.933,409.223L281.376,409.276L281.703,408.946L281.61,408.464L281.177,407.475L281.622,407.744L281.777,407.864L281.993,406.878L282.167,406.878L282.135,407.371L282.167,407.864L282.221,407.967L282.59,408.535L282.541,408.616L282.374,408.658L282.416,409.688L282.643,409.844L283.279,409.872L283.732,410.061L284.073,410.359L284.3,410.388L284.372,409.759L284.247,409.309L284.01,408.968L283.857,408.648L283.981,408.269L283.857,408.011L283.732,407.598L283.673,407.176L283.764,406.878L284.116,406.765L284.463,406.91L284.762,406.991L285.092,407.021L284.978,407.804L284.978,408.269L285.112,408.216L285.442,408.145L285.578,408.081L285.493,408.485L285.092,409.174L284.978,409.656L284.957,410.182L285.06,410.594L285.319,410.884L285.794,411.058L285.896,410.934L286.092,410.799L286.185,410.668L286.927,410.863L288.004,410.799L288.832,410.522L288.995,410.245L288.604,410.143L288.41,410.143L288.182,410.245L288.182,409.834L288.356,409.668L288.594,409.585L288.779,409.45L288.984,409.028L289.179,408.464L289.211,407.69L289.016,407.208L288.697,406.753L288.377,406.083L288.913,406.196L289.243,406.456L289.487,406.775L289.779,407.052L289.552,406.537L289.406,405.817L289.356,405.075L289.396,404.497L289.573,404.497L290.035,405.909L290.169,407.475L291.167,406.278L291.404,406.187L291.578,406.196L291.815,406.25L292.199,406.278L290.294,408.422L289.694,409.656L290.396,410.462L290.96,410.257L292.309,410.213L292.866,409.965L293.402,409.834L294.133,409.78L294.608,409.607L294.392,409.06L294.771,408.946L295.162,408.876L295.967,409.422L297.663,409.575L299.118,409.234L299.167,408.269L299.551,407.144L299.661,405.959L299.374,404.94L298.55,404.302L299.445,404.21L299.877,404.962L300.002,406.022L299.962,407.339L300.044,408.247L300.374,409.185L300.538,409.358L301.351,409.276L302.258,409.287L302.557,409.194L302.773,408.876L302.752,408.535L302.464,407.527L302.226,406.971L301.875,406.342L301.754,405.867L301.733,404.507L301.578,404.096L301.762,403.982L301.928,403.852L302.063,403.685L302.177,403.489L302.33,403.841L302.411,405.622L302.497,406.022L302.773,406.683L302.822,406.299L302.833,405.725L302.968,405.486L302.773,404.519L302.968,403.202L303.411,401.975L303.965,401.307L303.997,402.151L303.936,402.471L303.277,404.21L303.163,404.674L303.163,405.682L303.235,405.807L303.504,406.033L303.564,406.176L303.536,406.321L303.391,406.526L303.277,408.247L303.37,408.658L304.008,409.028L305.089,409.12L306.254,409.039L307.169,408.876L307.89,408.485L307.521,408.063L306.921,407.545L306.996,406.878L306.591,406.412L306.293,405.558L305.718,402.708L305.778,402.293L305.924,402.06L306.574,401.502L306.027,400.565L305.647,400.111L305.275,399.916L305.016,399.7L304.895,399.196L304.781,398.113L304.533,397.063L304.328,396.538L304.072,396.321L303.699,396.147L303.553,395.736L303.493,395.212L303.37,394.718L303.627,394.839L303.873,394.881L304.11,394.839L304.358,394.718L304.409,394.984L304.491,395.2L304.781,395.53L305.14,395.2L305.398,395.222L305.479,395.467L305.275,395.829L304.976,396.229L304.874,396.602L304.966,397.312L305.409,399.114L305.924,400.083L306.676,400.501L307.159,400.7L307.241,401.14L307.116,401.605L306.996,401.894L306.769,402.184L306.574,402.39L306.428,402.666L306.379,403.202L306.499,403.933L306.818,404.848L307.262,405.611L307.766,405.867L307.559,406.374L307.603,406.89L307.83,407.35L308.167,407.69L308.837,407.442L309.487,407.588L310.136,407.886L310.774,408.081L310.671,407.918L310.629,407.783L310.618,407.647L311.165,407.896L311.474,408.031L311.853,408.081L312.133,407.956L312.307,407.68L312.36,407.403L311.988,406.938L310.949,404.892L310.896,404.21L311.176,402.202L310.938,401.833L310.413,401.708L309.866,401.843L309.578,402.293L309.373,401.967L309.466,401.789L309.661,401.658L309.774,401.399L309.735,401.172L309.621,400.988L309.373,400.689L308.961,399.977L308.816,399.587L308.766,399.104L309.61,400.051L309.919,400.545L310.174,401.102L310.455,400.988L310.568,400.906L310.689,401.151L310.845,401.265L311.051,401.307L311.349,401.307L310.701,399.564L310.374,399.104L310.504,398.865L310.434,398.178L310.568,397.734L310.917,398.373L311.04,398.845L311.226,398.855L311.771,398.113L311.896,398.373L312.042,399.001L312.161,399.319L312.762,399.969L312.945,400.289L312.762,400.236L312.492,400.186L312.35,400.111L312.411,400.513L312.328,401.122L312.184,401.658L312.059,401.894L311.733,402.119L311.864,402.602L312.35,403.397L312.411,404.88L312.595,405.6L312.945,406.278L313.163,406.278L313.954,406.083L313.646,405.644L313.493,405.125L313.563,404.643L313.954,404.302L313.841,404.869L314.017,405.303L314.418,405.622L314.955,405.867L314.934,405.725L314.955,405.271L315.561,405.509L316.055,405.291L316.86,404.394L317.044,403.88L316.786,403.386L316.345,402.954L315.962,402.688L316.725,402.314L316.612,401.357L315.951,400.37L315.057,399.916L314.521,399.742L314.245,399.31L313.954,398.309L313.769,398.093L313.585,398.075L313.428,398.021L313.347,397.734L313.418,397.691L313.574,397.496L313.72,397.22L313.758,396.932L314.078,397.382L314.553,398.702L314.78,399.001L315.305,399.434L315.551,399.7L315.632,399.732L316.282,399.732L316.693,399.536L316.881,399.536L316.962,399.803L316.962,400.598L317.218,401.193L319.063,403.202L319.72,404.138L319.854,404.302L321.165,404.096L321.337,403.841L321.38,403.581L321.235,403.386L320.443,403.223L319.947,402.829L319.568,402.688L319.752,402.511L319.545,402.418L319.351,402.293L319.351,402.109L319.627,401.995L319.731,401.789L319.763,401.595L319.854,401.502L320.39,401.471L320.585,401.41L320.763,401.307L321.132,401.801L321.771,402.098L322.534,402.255L323.265,402.293L324.272,402.829L324.911,402.894L325.17,402.293L325.365,402.293L325.631,402.541L325.972,402.511L326.303,402.325L326.579,402.109L327.064,401.573L327.157,401.502L327.064,401.254L326.661,400.782L326.67,400.598L326.909,400.246L326.92,399.958L326.827,399.64L326.752,399.206L326.848,398.926L327.064,398.67L327.559,398.309L327.732,398.309L327.207,399.657L327.115,400.399L327.559,400.906L327.413,401.193L327.331,401.307L327.867,401.967L327.949,402.109L327.835,402.418L327.64,402.595L327.434,402.716L327.331,402.894L327.392,403.223L327.64,403.24L327.98,403.19L328.35,403.305L328.186,403.397L328.104,403.489L328.051,403.581L327.949,403.706L330.536,403.88L330.936,403.993L331.316,404.376L332.171,404.507L333.118,404.458L333.746,404.302L333.562,404.178L333.335,404.107L333.065,404.085L332.746,404.096L332.962,403.787L333.313,403.674L333.686,403.717L333.964,403.88L338.944,403.305L340.232,403.305L340.79,403.234L341.769,402.727L342.323,402.716L343.539,402.894L346.031,402.894L347.698,403.077L348.965,403.077L349.242,403.024L349.533,402.894L349.934,402.006L350.211,401.534L350.778,401.193L351.229,400.793L351.138,400.111L350.882,399.884L350.541,399.791L350.265,399.628L350.15,399.206L350.188,398.937L350.427,398.291L350.529,398.113L350.16,397.631L349.729,396.375L349.43,396.126L349.149,395.964L348.819,395.579L348.521,395.119L348.337,394.718L348.81,394.399L348.698,393.718L347.937,392.337L347.547,391.833L345.948,390.329L345.948,390.144L346.123,390.144L346.279,390.359L346.566,390.69L346.918,391.01L347.244,391.146L347.596,391.248L347.812,391.503L348.142,392.131L348.306,392.617L348.337,392.635L349.025,393.028L349.831,393.625L350.065,393.944L349.934,394.335L350.509,394.653L350.746,394.718L350.611,394.994L350.529,395.119L351.282,395.797L352.116,395.839L352.766,395.335L352.95,394.335L353.134,394.335L353.003,395.355L352.712,396.396L352.766,397.188L353.632,397.517L354.011,397.446L354.579,397.166L354.834,397.095L354.958,397.23L354.898,397.507L354.753,397.815L354.64,398.011L354.505,398.291L354.7,398.361L354.99,398.341L355.122,398.309L355.555,398.443L355.948,398.507L356.285,398.373L356.533,397.908L356.556,397.642L356.359,397.22L356.338,396.932L356.42,396.642L356.679,396.087L356.739,395.829L356.854,395.591L357.108,395.303L357.421,395.045L357.645,394.931L357.914,394.994L358.109,395.13L358.17,395.271L358.666,394.789L358.563,394.367L358.467,393.966L358.376,393.348L358.634,392.905L359.426,392.315L359.614,391.79L360.757,389.992L360.757,389.98L361.188,389.381L361.455,388.807L361.889,387.539L362.073,387.149L362.641,386.284L362.928,385.975L363.259,385.829L363.599,385.769L363.908,385.634L364.112,385.254L364.894,381.298L364.865,380.989L364.628,380.29L364.596,379.911L364.779,379.197L365.408,377.974L365.596,377.313L365.586,376.706L365.482,376.139L365.44,375.574L365.614,374.946L366.058,374.379L366.604,373.854L367.048,373.29L367.183,372.576L366.881,371.807L366.338,371.228L365.678,370.734L365.088,370.167L364.709,369.425L364.937,369.002L365.451,368.635L365.965,368.006L366.09,367.274L365.83,366.76L365.521,366.307L365.473,365.71L365.781,365.235L366.81,364.546L367.2,364.053L367.697,363.578L368.325,363.659L368.963,363.887L369.479,363.826L369.581,363.443L369.642,362.619L369.808,362.413L370.27,362.176L370.643,361.786L371.26,360.892L371.26,360.881L373.956,358.088L377.951,354.877L378.693,353.848L379.527,352.088L379.929,351.645L380.328,351.417L380.669,351.385L381.042,351.417L381.504,351.385L382.316,350.902L383.192,349.203L384.059,348.667L385.396,348.175L385.992,347.876L386.457,347.421L387.139,346.134L387.568,345.775L388.434,345.598L389.835,345.588L390.193,345.3L392.429,338.235L392.976,337.618L393.675,337.671L394.242,337.948L394.81,338.114L395.487,337.823L402.635,331.791L403.314,331.397L403.728,331.493L403.961,331.965L404.383,334.108L404.682,334.683L405.303,335.158L406.104,335.393L413.609,335.283L413.631,334.634L413.754,334.169L413.992,333.779L414.351,333.293L414.538,333.161L414.702,333.118L414.826,333.025L414.988,330.791L415.238,329.69L415.606,328.63L416.028,327.807L416.564,328.495L416.722,329.937L417.246,330.348L418.017,330.606L420.057,331.688L422.454,332.582L423.413,333.232L423.888,334.396L424.155,335.723L424.74,336.989L425.67,337.927L428.388,338.423L429.384,339.203L429.942,340.368L430.034,341.759L429.995,342.923L430.087,344.054L430.569,346.308L431.148,347.699L431.62,348.143L432.412,348.245L435.069,347.969L435.236,348.018L435.556,348.224L435.769,348.256L435.946,348.185L436.255,347.904L436.357,347.844L436.677,347.876L437.315,348.029L437.634,348.05L438.355,347.876L439.107,347.504L439.672,346.979L439.859,346.308L440.033,345.104L440.467,344.114L441.236,343.497L442.39,343.384L443.185,342.944L443.872,341.985L444.717,340.017L444.905,339.247L444.987,338.451L444.842,337.927L444.202,337.206L444.007,336.763L444.174,335.982L444.696,335.251L446.488,333.602L448.177,332.544L448.291,332.388L448.394,332.009L448.507,331.874L448.652,331.83L448.95,331.862L449.279,331.791L449.734,331.77L449.93,331.699L450.092,331.473L450.146,331.192L450.238,330.926L450.671,330.648L451.906,329.523L452.247,329.329L452.638,329.205L452.967,329.236L453.223,329.36L453.471,329.421L453.759,329.308L454.018,328.65L453.656,327.92L452.523,326.682L451.072,324.592L450.66,324.244L449.969,324.109L449.795,323.942L450.033,323.677L450.558,323.285L451.144,322.739L452.957,320.054L456.497,316.602L457.271,315.448L457.732,315.128L458.094,314.803L458.208,314.202L457.796,312.484L457.743,311.863L457.836,311.229L458.034,310.629L459.084,308.724L461.977,304.71L463.088,303.557L463.254,303.136L463.172,302.649L462.967,301.93L462.81,300.807L462.81,299.665L462.974,298.952L464.158,297.263L464.386,296.635L464.417,296.061L463.953,293.689L463.882,292.362L464.108,291.096L464.775,290.138L465.404,289.882L466.529,290.066L467.146,289.984L467.493,289.736L467.721,289.396L467.906,289.048L468.133,288.739L469.01,288.129L469.258,287.863L469.247,287.051L469.165,286.639L468.474,284.979L468.235,284.557L469.041,284.814L469.453,284.875L469.864,284.837L470.318,284.642L470.655,284.403L471.028,284.22L471.554,284.155L471.933,284.258L472.87,284.691L473.302,284.772L473.757,284.67L476.741,283.095L477.256,282.53L477.688,281.583L477.947,280.76L478.153,280.407L478.493,280.244L478.905,280.263L479.274,280.337L479.637,280.337L480.026,280.171L480.654,279.305L480.985,278.048L481.635,272.52L481.429,271.449L481.457,270.268L482.046,268.865L483.395,266.456L483.568,265.951L483.682,265.405L483.714,264.241L483.476,263.354L483.199,262.77L482.365,262.635L482.229,262.542L482.425,262.006L482.62,261.864L484.331,261.06L484.58,260.896L484.898,260.565L485.743,259.483L486.133,259.175L488.152,258.291L490.448,257.939L492.354,257.188L493.167,255.098L493.311,253.192L493.691,251.216L493.968,250.517L494.248,250.031L494.32,249.56L494,248.898L493.145,248.012L492.847,247.55L492.805,246.88L493.02,246.283L493.712,245.201L493.837,244.503L493.724,243.945L493.372,242.977L493.361,242.391L493.875,241.395L494.854,241.011L497.141,240.763L497.687,240.527L498.375,240.128L498.992,239.652L499.333,239.208L499.798,238.223L499.858,237.817L499.809,237.48L499.613,236.88L499.621,236.501L500.27,234.666L501.27,229.105L502.36,225.423L503.165,223.723L508.363,216.307L508.726,215.484L508.541,214.363L508.662,213.767L508.981,213.248L509.456,212.848L510.567,212.208L510.918,211.748L511.412,210.573L512.115,209.338L513.078,208.111L514.184,207L515.293,206.095L516.202,206.095L517.344,206.422L519.392,207.288L519.992,207.38L520.638,207.216L521.258,206.897L521.783,206.517L522.585,205.684L522.943,205.528L523.728,205.435L523.956,205.343L526.56,202.945L527.105,202.632L528.834,202.089L529.444,201.727L530.513,200.769L531.122,200.399L532.634,199.854L533.128,199.587L533.478,199.042L533.787,198.339L534.015,197.597L534.117,196.979L534.107,196.238L533.933,195.642L533.613,195.138L533.138,194.655L532.986,194.457L532.882,194.25L532.759,194.055L532.543,193.92L532.049,193.932L531.925,193.892L531.655,193.53L531.616,193.275L531.761,193.016L532.819,191.597L533.047,191.1L533.664,188.083L533.993,187.157L534.107,186.157L534.096,185.951L534.047,185.621L533.5,184.347L533.436,183.779L533.965,183.439L533.891,183.12L534.394,181L534.571,180.65L534.714,180.476L534.789,180.288L535.352,179.724L535.303,179.404ZM327.445,404.892L326.951,404.952L325.89,405.21L325.365,405.271L324.851,405.146L323.811,404.611L323.46,404.497L322.047,404.92L321.76,405.075L321.494,405.6L321.668,405.969L322.111,406.208L324.251,406.331L324.765,406.278L326.22,405.765L326.67,405.682L327.786,405.725L328.29,405.622L328.555,405.271L328.712,404.88L328.413,404.787L327.445,404.892ZM319.659,404.674L319.205,404.507L318.754,403.727L318.35,403.489L318.25,403.972L318.127,404.252L317.559,404.892L316.899,405.898L315.973,406.89L315.695,407.435L315.973,407.772L316.962,407.864L319.557,407.329L319.968,407.166L320.369,406.916L320.638,406.63L320.763,406.176L320.771,405.725L320.833,405.335L321.008,404.994L321.359,404.674L320.987,404.539L319.659,404.674Z"/>
        </clipPath>
        <g clip-path="url(#_clip1)">
            <rect x="74" y="127" width="572" height="286" style="fill:rgb(1,135,81);fill-rule:nonzero;"/>
            <rect x="264.667" y="127" width="190.666" height="286" style="fill:white;fill-rule:nonzero;"/>
        </g>
    </g>
    <g transform="matrix(4.16667,0,0,4.16667,-308.333,-529.167)">
        <path d="M535.303,179.404L535.168,179.124L534.817,178.939L534.571,179.032L534.171,179.237L533.787,179.373L533.624,179.237L533.436,178.62L532.975,178.241L532.39,177.932L531.811,177.521L532.098,177.364L532.212,177.314L532.212,177.099L531.893,176.963L531.027,176.314L530.821,176.097L530.761,175.832L530.918,175.388L530.821,175.089L530.019,174.667L528.156,174.213L522.163,174.029L521.71,173.936L521.328,173.699L521.06,173.245L521.042,172.908L521.216,171.989L521.227,171.424L521.031,170.796L520.987,168.5L517.702,152.671L504.357,134.024L497.151,133.715L496.264,133.857L495.998,134.075L496.019,134.588L495.576,134.901L494.411,135.99L494.206,136.261L494.053,136.569L494.042,136.683L494.185,136.895L494.237,137.062L494.155,137.3L493.968,137.338L493.762,137.329L493.631,137.382L493.361,137.793L493.425,137.938L493.837,137.988L493.301,138.677L492.599,138.935L491.807,139.081L491.022,139.429L491.125,139.194L491.189,138.893L491.125,138.659L490.849,138.596L490.686,138.719L490.47,139.223L490.254,139.429L490.264,139.109L490.254,139.007L489.768,139.173L489.224,139.194L488.895,139.071L489.057,138.783L489.057,138.596L488.244,138.669L487.503,138.935L484.877,140.251L484.076,140.408L483.26,140.224L483.135,140.717L482.869,140.738L482.5,140.564L482.046,140.429L482.046,140.656L482.294,140.728L482.5,140.842L482.674,141.026L482.858,141.263L482.479,141.583L481.667,142.488L481.645,142.569L481.684,142.806L481.667,142.889L481.58,142.91L481.326,142.871L481.251,142.889L481.131,142.963L480.737,143.094L480.654,143.208L480.768,143.56L480.953,143.775L480.963,143.889L480.552,143.929L480.491,143.817L480.324,143.613L480.15,143.488L480.08,143.602L480.037,143.62L479.842,144.116L479.09,145.031L478.606,145.401L477.947,145.556L477.606,145.709L477.4,146.401L477.152,146.554L476.713,146.461L476.415,146.256L476.166,146.001L475.856,145.763L475.814,146.238L475.766,146.423L475.57,146.618L475.371,146.77L475.154,146.834L475.062,146.66L474.91,146.77L473.849,147.771L473.768,148.253L473.385,148.8L473.179,149.244L473.643,149.417L473.47,150.077L473.302,150.386L473.064,150.652L472.849,150.727L472.192,150.84L472.058,150.954L471.81,152.541L471.677,152.887L471.266,153.083L470.79,152.991L470.233,152.796L469.566,152.683L467.731,152.622L467.26,152.487L466.979,152.65L466.763,152.497L466.546,152.238L466.259,152.075L465.982,152.118L465.806,152.26L465.673,152.416L465.57,152.487L465.332,152.444L465.279,152.331L465.273,152.167L465.159,151.961L464.829,151.787L463.356,151.262L462.87,151.365L462.253,151.787L461.842,151.859L460.872,151.94L459.166,151.518L458.588,151.241L457.249,150.169L453.194,147.689L449.969,146.38L441.144,144.145L426.943,144.23L421.642,143.602L418.831,143.825L403.858,147.041L402.645,147.554L397.116,150.652L396.591,151.149L396.467,151.458L396.364,152.188L396.218,152.487L395.991,152.725L395.867,152.753L395.726,152.725L395.417,152.838L394.86,153.196L393.881,154.122L388.671,160.271L388.33,160.56L388.021,160.766L387.816,160.857L387.199,160.9L380.999,160.179L380.475,160.208L378.921,160.652L377.838,160.652L368.314,159.541L360.632,157.266L359.56,156.645L359.057,156.039L358.223,154.658L357.645,154.031L356.378,153.073L355.679,152.735L354.898,152.569L354.547,152.569L353.827,152.65L353.486,152.764L353.156,152.931L353.031,153.012L352.918,153.001L352.63,152.887L352.414,152.753L349.501,150.099L348.781,149.223L348.39,148.893L347.975,148.698L347.113,148.459L346.69,148.253L345.7,147.484L344.899,146.987L344.218,146.331L343.877,146.082L343.075,145.773L335.68,144.723L334.683,144.815L333.686,145.259L323.076,151.652L322.172,151.94L321.121,151.94L318.083,151.376L317.424,151.497L315.653,153.586L314.273,154.804L313.655,155.112L312.957,155.226L310.785,155.237L309.816,155.133L308.919,154.793L307.981,154.094L306.921,153.104L305.193,151.117L302.091,145.433L297.337,140.224L293.239,136.342L291.291,135.217L289.179,134.767L288.625,134.88L286.937,135.827L286.635,135.909L286.44,135.827L286.256,135.66L285.989,135.519L269.482,128.969L268.535,128.763L264.221,129.515L263.418,129.926L263.077,130.371L262.592,131.459L262.19,131.935L261.295,132.584L260.956,132.715L259.959,132.911L255.775,132.727L252.819,133.262L251.134,133.159L250.463,132.861L249.814,132.232L249.144,131.935L248.206,132.038L238.932,134.302L237.345,134.929L235.986,135.898L231.394,140.284L230.578,140.685L229.706,140.852L227.822,140.912L227.757,148.048L226.739,155.112L222.083,162.415L220.189,164.214L213.816,169.004L213.691,169.324L213.979,176.705L213.199,180.597L213.177,181.885L213.908,184.057L214.043,185.068L213.546,186.054L213.053,186.568L212.724,186.991L212.599,187.477L212.766,189.155L212.858,189.453L213.021,189.762L213.124,189.865L213.249,189.936L213.93,190.667L214.288,191.214L214.434,191.803L214.228,192.441L213.877,192.788L212.375,193.686L211.737,194.364L209.707,197.807L209.356,199.144L209.182,199.587L208.597,201.18L208.646,201.862L209.08,202.665L214.309,210.026L215.008,210.697L215.246,210.736L215.526,210.687L215.792,210.697L216.04,210.932L215.743,212.085L215.743,212.723L215.864,213.312L216.08,213.859L216.377,214.363L216.978,217L216.945,217.861L216.307,219.419L216.275,219.933L216.42,220.282L216.658,220.53L216.913,220.736L217.131,220.994L217.275,221.314L217.553,222.279L217.822,222.598L218.201,222.712L218.614,222.797L218.985,223.013L219.252,223.577L219.398,224.433L219.408,226.058L219.191,226.854L218.439,228.315L218.18,229.105L218.152,230.621L217.953,231.168L217.513,231.725L217.059,231.796L215.186,230.816L214.58,230.702L214,230.887L213.432,231.456L213.237,231.732L213.156,231.92L213.124,232.505L213.014,232.857L212.279,233.978L211.673,235.315L211.705,235.862L212.116,236.543L214.103,238.58L214.362,238.953L214.455,239.414L214.352,240.105L214.082,240.755L213.712,241.021L213.291,241.227L212.837,241.66L212.652,242.132L212.468,244.645L212.177,245.233L211.233,246.354L210.459,247.757L209.945,248.239L208.192,248.044L207.06,248.353L204.959,249.207L204.487,249.56L204.228,250.145L204.167,250.815L204.271,251.39L204.629,252.298L204.856,253.192L204.65,253.955L203.703,254.491L203.188,254.459L202.622,254.356L202.148,254.501L201.933,255.222L201.964,255.417L202.118,255.796L202.089,255.942L200.304,258.27L200.091,258.455L199.616,258.618L199.41,258.773L198.842,259.679L198.728,260.495L198.927,261.318L199.296,262.233L199.398,262.727L199.398,264.633L199.214,265.239L198.618,266.385L197.65,269.401L197.196,270.316L196.486,270.81L194.488,271.324L194.148,271.324L193.86,271.193L193.573,270.998L193.253,270.842L192.934,270.81L192.037,270.831L191.728,270.895L191.419,271.101L191.171,271.356L190.883,271.563L190.493,271.615L188.247,271.427L188.339,272.211L188.279,274.063L188.115,274.869L188.02,275.054L187.693,275.547L187.618,275.61L187.672,275.845L187.796,275.909L187.938,275.958L188.052,276.165L188.041,276.608L187.683,277.452L187.569,277.896L187.608,278.161L187.753,278.605L187.722,278.875L187.569,279.028L187.076,279.254L186.909,279.472L186.898,279.78L187.537,287.811L187.31,288.8L187.076,289.151L186.497,289.801L186.341,290.17L186.334,290.428L186.405,290.972L186.405,291.24L186.188,292.454L186.146,293.012L186.249,293.71L186.476,294.359L187.055,295.577L187.25,296.205L187.239,296.841L187.001,297.376L186.703,297.873L186.476,298.365L186.395,298.901L186.334,300.651L185.961,302.507L185.859,304.349L185.756,304.607L185.458,305.161L185.387,305.388L185.415,305.636L185.652,305.995L185.983,306.829L186.682,307.613L186.941,308.024L187.022,308.446L186.682,313.348L186.828,314.49L187.413,315.583L188.279,316.602L188.929,317.673L188.846,318.896L188.771,319.156L188.75,319.319L188.658,319.384L188.03,319.259L187.722,319.259L187.505,319.384L187.435,319.713L188.041,326.888L188.012,327.299L187.916,327.569L187.683,327.878L187.413,328.435L187.289,328.619L187.26,328.825L187.374,329.205L187.618,329.514L188.393,330.142L188.556,330.422L188.442,330.741L188.144,330.894L187.764,331.007L187.423,331.164L186.671,332.213L186.763,333.275L187.168,334.396L187.31,335.62L187.001,336.848L186.919,337.477L187.065,338.05L187.289,338.349L187.537,338.525L187.835,338.608L188.197,338.646L188.37,338.781L188.423,339.069L188.527,340.421L188.36,340.747L188.002,340.985L187.477,341.45L187.136,342.078L187.125,342.675L187.384,343.909L187.321,344.527L186.682,346.383L186.352,348.277L186.341,350.059L192.891,349.459L197.402,349.675L201.245,349.235L204.516,349.387L206.216,349.203L206.36,348.554L206.205,348.412L206.155,348.245L206.08,348.093L205.938,347.937L205.783,347.677L205.907,347.504L206.112,347.34L206.226,347.135L206.308,346.783L206.72,346.155L206.843,345.847L206.822,345.576L206.659,345.148L206.616,344.941L206.729,344.703L207,344.641L207.298,344.622L207.536,344.537L208.174,343.838L208.533,343.529L209.036,343.241L209.008,343.654L208.802,344.271L208.83,344.63L208.955,345.013L209.036,345.104L209.231,345.251L209.583,345.229L209.966,345.364L210.027,345.435L210.406,345.413L210.747,345.343L211.087,345.229L212.106,344.683L212.415,344.641L212.939,344.63L214.362,344.179L215.928,343.27L217.563,342.652L219.22,343.046L219.436,342.983L219.614,342.983L219.799,343.064L220.025,343.241L217.595,343.59L217.233,343.735L217.08,344.362L216.658,344.828L216.08,345.175L215.423,345.435L215.029,345.312L213.745,345.723L213.124,345.847L211.932,345.847L211.645,345.949L211.633,346.197L211.694,346.523L211.633,346.844L211.241,347.298L210.79,347.535L210.292,347.628L209.739,347.639L209.356,347.78L209.129,347.773L209.036,347.535L208.862,347.514L207.833,348.451L207.72,348.018L207.667,347.574L207.493,347.421L207.039,347.844L206.864,347.688L206.691,347.648L206.506,347.699L206.226,347.844L206.637,348.143L206.925,348.473L207.287,348.728L207.936,348.83L220.373,348.213L227.839,348.83L235.996,350.336L239.013,351.655L240.123,352.375L241.915,354.044L242.884,354.65L245.077,356.03L245.975,356.75L246.994,357.812L247.734,358.954L248.259,359.55L249.413,360.048L249.998,360.601L253.55,365.186L254.632,367.572L254.941,367.595L256.403,366.224L256.836,365.915L259.039,364.752L260.191,364.411L261.194,363.528L261.799,363.415L261.13,364.524L258.742,365.391L257.827,366.193L257.794,366.479L257.907,366.782L257.979,367.038L257.827,367.222L257.609,367.172L257.021,366.707L256.694,366.593L256.321,366.82L256.056,367.356L255.878,368.017L255.807,368.603L255.91,369.272L256.187,369.798L256.467,370.199L256.732,371.022L257.096,371.618L257.556,372.197L258,372.597L258.39,372.867L258.566,372.949L259.31,372.679L259.988,372.278L260.306,372.197L261.009,372.137L261.513,371.938L261.881,371.558L262.202,370.983L262.996,368.818L263.181,368.818L263.219,369.365L263.16,369.788L262.613,371.373L262.602,371.877L262.84,372.288L263.397,372.597L263.88,372.629L264.405,372.506L264.88,372.268L265.188,372.002L265.547,371.104L265.827,370.816L266.381,370.806L266.889,371.032L267.484,371.443L267.978,371.938L268.194,372.392L268.194,372.711L268.155,372.896L267.999,372.98L267.69,372.987L267.62,372.856L267.463,372.207L267.382,372.002L267.073,371.774L266.63,371.649L266.154,371.64L265.785,371.796L265.558,372.137L265.075,373.176L264.788,373.587L264.59,373.587L263.982,373.246L262.9,373.072L260.051,372.949L259.834,372.987L259.586,373.165L259.104,373.68L258.907,373.794L258.834,374.07L258.887,374.688L259.104,375.316L259.709,375.728L260.626,376.572L260.739,376.728L260.874,377.047L261.009,377.199L264.302,378.303L265.98,378.396L265.806,378.147L265.611,377.746L265.537,377.366L265.683,377.199L266.044,377.254L266.154,377.395L266.208,377.583L266.381,377.778L266.999,378.034L267.474,377.93L267.854,377.502L268.194,376.788L268.01,376.036L268.41,375.401L269.109,375.049L269.791,375.195L269.925,375.049L270.111,374.925L270.181,374.78L270.717,374.936L271.129,374.72L271.529,374.379L271.995,374.184L271.583,374.833L271.242,375.212L270.891,375.379L269.916,375.358L269.472,375.45L269.092,375.699L268.904,376.036L268.844,376.5L268.886,376.976L268.989,377.388L269.266,377.816L269.965,378.428L270.181,378.786L270.007,378.786L269.709,378.591L269.255,378.569L268.779,378.661L267.761,379.055L267.598,379.169L267.442,379.363L267.215,379.797L266.98,379.981L266.732,379.631L266.651,379.445L266.58,379.169L266.033,379.332L264.096,379.375L263.418,379.506L263.251,379.899L263.869,382.515L263.993,383.853L263.944,384.914L263.993,385.151L264.302,385.305L265.005,385.18L265.384,385.347L265.806,385.19L266.022,385.162L266.289,385.151L266.392,385.026L266.371,384.492L266.484,384.367L266.785,384.541L267.577,385.418L267.793,385.769L267.204,385.623L266.58,385.563L267.198,387.149L266.825,386.922L266.3,386.212L265.98,385.943L265.537,385.797L265.086,385.758L264.734,385.894L264.59,386.252L264.685,386.706L264.891,387.015L265.096,387.23L265.188,387.447L265.249,387.93L265.416,388.373L265.785,389.136L265.941,389.587L266.208,390.946L267.009,393.192L267.938,394.242L268.194,394.931L267.198,394.335L267.516,394.708L268.248,395.952L268.389,396.424L268.73,396.982L269.997,397.767L270.007,398.309L269.802,398.188L269.709,398.146L269.586,398.113L269.862,399.348L270.675,400.473L273.396,402.986L273.571,403.109L274.351,403.912L274.578,404.221L275.196,404.892L275.607,405.055L276.022,405.146L276.37,405.313L276.597,405.682L276.38,405.569L276.001,405.396L275.794,405.271L276.143,405.714L277.328,406.392L277.813,406.878L277.988,406.878L277.967,406.559L278.048,406.342L278.254,406.25L278.584,406.278L278.287,407.013L278.637,407.712L279.283,408.247L279.883,408.464L280.109,408.616L280.489,408.937L280.933,409.223L281.376,409.276L281.703,408.946L281.61,408.464L281.177,407.475L281.622,407.744L281.777,407.864L281.993,406.878L282.167,406.878L282.135,407.371L282.167,407.864L282.221,407.967L282.59,408.535L282.541,408.616L282.374,408.658L282.416,409.688L282.643,409.844L283.279,409.872L283.732,410.061L284.073,410.359L284.3,410.388L284.372,409.759L284.247,409.309L284.01,408.968L283.857,408.648L283.981,408.269L283.857,408.011L283.732,407.598L283.673,407.176L283.764,406.878L284.116,406.765L284.463,406.91L284.762,406.991L285.092,407.021L284.978,407.804L284.978,408.269L285.112,408.216L285.442,408.145L285.578,408.081L285.493,408.485L285.092,409.174L284.978,409.656L284.957,410.182L285.06,410.594L285.319,410.884L285.794,411.058L285.896,410.934L286.092,410.799L286.185,410.668L286.927,410.863L288.004,410.799L288.832,410.522L288.995,410.245L288.604,410.143L288.41,410.143L288.182,410.245L288.182,409.834L288.356,409.668L288.594,409.585L288.779,409.45L288.984,409.028L289.179,408.464L289.211,407.69L289.016,407.208L288.697,406.753L288.377,406.083L288.913,406.196L289.243,406.456L289.487,406.775L289.779,407.052L289.552,406.537L289.406,405.817L289.356,405.075L289.396,404.497L289.573,404.497L290.035,405.909L290.169,407.475L291.167,406.278L291.404,406.187L291.578,406.196L291.815,406.25L292.199,406.278L290.294,408.422L289.694,409.656L290.396,410.462L290.96,410.257L292.309,410.213L292.866,409.965L293.402,409.834L294.133,409.78L294.608,409.607L294.392,409.06L294.771,408.946L295.162,408.876L295.967,409.422L297.663,409.575L299.118,409.234L299.167,408.269L299.551,407.144L299.661,405.959L299.374,404.94L298.55,404.302L299.445,404.21L299.877,404.962L300.002,406.022L299.962,407.339L300.044,408.247L300.374,409.185L300.538,409.358L301.351,409.276L302.258,409.287L302.557,409.194L302.773,408.876L302.752,408.535L302.464,407.527L302.226,406.971L301.875,406.342L301.754,405.867L301.733,404.507L301.578,404.096L301.762,403.982L301.928,403.852L302.063,403.685L302.177,403.489L302.33,403.841L302.411,405.622L302.497,406.022L302.773,406.683L302.822,406.299L302.833,405.725L302.968,405.486L302.773,404.519L302.968,403.202L303.411,401.975L303.965,401.307L303.997,402.151L303.936,402.471L303.277,404.21L303.163,404.674L303.163,405.682L303.235,405.807L303.504,406.033L303.564,406.176L303.536,406.321L303.391,406.526L303.277,408.247L303.37,408.658L304.008,409.028L305.089,409.12L306.254,409.039L307.169,408.876L307.89,408.485L307.521,408.063L306.921,407.545L306.996,406.878L306.591,406.412L306.293,405.558L305.718,402.708L305.778,402.293L305.924,402.06L306.574,401.502L306.027,400.565L305.647,400.111L305.275,399.916L305.016,399.7L304.895,399.196L304.781,398.113L304.533,397.063L304.328,396.538L304.072,396.321L303.699,396.147L303.553,395.736L303.493,395.212L303.37,394.718L303.627,394.839L303.873,394.881L304.11,394.839L304.358,394.718L304.409,394.984L304.491,395.2L304.781,395.53L305.14,395.2L305.398,395.222L305.479,395.467L305.275,395.829L304.976,396.229L304.874,396.602L304.966,397.312L305.409,399.114L305.924,400.083L306.676,400.501L307.159,400.7L307.241,401.14L307.116,401.605L306.996,401.894L306.769,402.184L306.574,402.39L306.428,402.666L306.379,403.202L306.499,403.933L306.818,404.848L307.262,405.611L307.766,405.867L307.559,406.374L307.603,406.89L307.83,407.35L308.167,407.69L308.837,407.442L309.487,407.588L310.136,407.886L310.774,408.081L310.671,407.918L310.629,407.783L310.618,407.647L311.165,407.896L311.474,408.031L311.853,408.081L312.133,407.956L312.307,407.68L312.36,407.403L311.988,406.938L310.949,404.892L310.896,404.21L311.176,402.202L310.938,401.833L310.413,401.708L309.866,401.843L309.578,402.293L309.373,401.967L309.466,401.789L309.661,401.658L309.774,401.399L309.735,401.172L309.621,400.988L309.373,400.689L308.961,399.977L308.816,399.587L308.766,399.104L309.61,400.051L309.919,400.545L310.174,401.102L310.455,400.988L310.568,400.906L310.689,401.151L310.845,401.265L311.051,401.307L311.349,401.307L310.701,399.564L310.374,399.104L310.504,398.865L310.434,398.178L310.568,397.734L310.917,398.373L311.04,398.845L311.226,398.855L311.771,398.113L311.896,398.373L312.042,399.001L312.161,399.319L312.762,399.969L312.945,400.289L312.762,400.236L312.492,400.186L312.35,400.111L312.411,400.513L312.328,401.122L312.184,401.658L312.059,401.894L311.733,402.119L311.864,402.602L312.35,403.397L312.411,404.88L312.595,405.6L312.945,406.278L313.163,406.278L313.954,406.083L313.646,405.644L313.493,405.125L313.563,404.643L313.954,404.302L313.841,404.869L314.017,405.303L314.418,405.622L314.955,405.867L314.934,405.725L314.955,405.271L315.561,405.509L316.055,405.291L316.86,404.394L317.044,403.88L316.786,403.386L316.345,402.954L315.962,402.688L316.725,402.314L316.612,401.357L315.951,400.37L315.057,399.916L314.521,399.742L314.245,399.31L313.954,398.309L313.769,398.093L313.585,398.075L313.428,398.021L313.347,397.734L313.418,397.691L313.574,397.496L313.72,397.22L313.758,396.932L314.078,397.382L314.553,398.702L314.78,399.001L315.305,399.434L315.551,399.7L315.632,399.732L316.282,399.732L316.693,399.536L316.881,399.536L316.962,399.803L316.962,400.598L317.218,401.193L319.063,403.202L319.72,404.138L319.854,404.302L321.165,404.096L321.337,403.841L321.38,403.581L321.235,403.386L320.443,403.223L319.947,402.829L319.568,402.688L319.752,402.511L319.545,402.418L319.351,402.293L319.351,402.109L319.627,401.995L319.731,401.789L319.763,401.595L319.854,401.502L320.39,401.471L320.585,401.41L320.763,401.307L321.132,401.801L321.771,402.098L322.534,402.255L323.265,402.293L324.272,402.829L324.911,402.894L325.17,402.293L325.365,402.293L325.631,402.541L325.972,402.511L326.303,402.325L326.579,402.109L327.064,401.573L327.157,401.502L327.064,401.254L326.661,400.782L326.67,400.598L326.909,400.246L326.92,399.958L326.827,399.64L326.752,399.206L326.848,398.926L327.064,398.67L327.559,398.309L327.732,398.309L327.207,399.657L327.115,400.399L327.559,400.906L327.413,401.193L327.331,401.307L327.867,401.967L327.949,402.109L327.835,402.418L327.64,402.595L327.434,402.716L327.331,402.894L327.392,403.223L327.64,403.24L327.98,403.19L328.35,403.305L328.186,403.397L328.104,403.489L328.051,403.581L327.949,403.706L330.536,403.88L330.936,403.993L331.316,404.376L332.171,404.507L333.118,404.458L333.746,404.302L333.562,404.178L333.335,404.107L333.065,404.085L332.746,404.096L332.962,403.787L333.313,403.674L333.686,403.717L333.964,403.88L338.944,403.305L340.232,403.305L340.79,403.234L341.769,402.727L342.323,402.716L343.539,402.894L346.031,402.894L347.698,403.077L348.965,403.077L349.242,403.024L349.533,402.894L349.934,402.006L350.211,401.534L350.778,401.193L351.229,400.793L351.138,400.111L350.882,399.884L350.541,399.791L350.265,399.628L350.15,399.206L350.188,398.937L350.427,398.291L350.529,398.113L350.16,397.631L349.729,396.375L349.43,396.126L349.149,395.964L348.819,395.579L348.521,395.119L348.337,394.718L348.81,394.399L348.698,393.718L347.937,392.337L347.547,391.833L345.948,390.329L345.948,390.144L346.123,390.144L346.279,390.359L346.566,390.69L346.918,391.01L347.244,391.146L347.596,391.248L347.812,391.503L348.142,392.131L348.306,392.617L348.337,392.635L349.025,393.028L349.831,393.625L350.065,393.944L349.934,394.335L350.509,394.653L350.746,394.718L350.611,394.994L350.529,395.119L351.282,395.797L352.116,395.839L352.766,395.335L352.95,394.335L353.134,394.335L353.003,395.355L352.712,396.396L352.766,397.188L353.632,397.517L354.011,397.446L354.579,397.166L354.834,397.095L354.958,397.23L354.898,397.507L354.753,397.815L354.64,398.011L354.505,398.291L354.7,398.361L354.99,398.341L355.122,398.309L355.555,398.443L355.948,398.507L356.285,398.373L356.533,397.908L356.556,397.642L356.359,397.22L356.338,396.932L356.42,396.642L356.679,396.087L356.739,395.829L356.854,395.591L357.108,395.303L357.421,395.045L357.645,394.931L357.914,394.994L358.109,395.13L358.17,395.271L358.666,394.789L358.563,394.367L358.467,393.966L358.376,393.348L358.634,392.905L359.426,392.315L359.614,391.79L360.757,389.992L360.757,389.98L361.188,389.381L361.455,388.807L361.889,387.539L362.073,387.149L362.641,386.284L362.928,385.975L363.259,385.829L363.599,385.769L363.908,385.634L364.112,385.254L364.894,381.298L364.865,380.989L364.628,380.29L364.596,379.911L364.779,379.197L365.408,377.974L365.596,377.313L365.586,376.706L365.482,376.139L365.44,375.574L365.614,374.946L366.058,374.379L366.604,373.854L367.048,373.29L367.183,372.576L366.881,371.807L366.338,371.228L365.678,370.734L365.088,370.167L364.709,369.425L364.937,369.002L365.451,368.635L365.965,368.006L366.09,367.274L365.83,366.76L365.521,366.307L365.473,365.71L365.781,365.235L366.81,364.546L367.2,364.053L367.697,363.578L368.325,363.659L368.963,363.887L369.479,363.826L369.581,363.443L369.642,362.619L369.808,362.413L370.27,362.176L370.643,361.786L371.26,360.892L371.26,360.881L373.956,358.088L377.951,354.877L378.693,353.848L379.527,352.088L379.929,351.645L380.328,351.417L380.669,351.385L381.042,351.417L381.504,351.385L382.316,350.902L383.192,349.203L384.059,348.667L385.396,348.175L385.992,347.876L386.457,347.421L387.139,346.134L387.568,345.775L388.434,345.598L389.835,345.588L390.193,345.3L392.429,338.235L392.976,337.618L393.675,337.671L394.242,337.948L394.81,338.114L395.487,337.823L402.635,331.791L403.314,331.397L403.728,331.493L403.961,331.965L404.383,334.108L404.682,334.683L405.303,335.158L406.104,335.393L413.609,335.283L413.631,334.634L413.754,334.169L413.992,333.779L414.351,333.293L414.538,333.161L414.702,333.118L414.826,333.025L414.988,330.791L415.238,329.69L415.606,328.63L416.028,327.807L416.564,328.495L416.722,329.937L417.246,330.348L418.017,330.606L420.057,331.688L422.454,332.582L423.413,333.232L423.888,334.396L424.155,335.723L424.74,336.989L425.67,337.927L428.388,338.423L429.384,339.203L429.942,340.368L430.034,341.759L429.995,342.923L430.087,344.054L430.569,346.308L431.148,347.699L431.62,348.143L432.412,348.245L435.069,347.969L435.236,348.018L435.556,348.224L435.769,348.256L435.946,348.185L436.255,347.904L436.357,347.844L436.677,347.876L437.315,348.029L437.634,348.05L438.355,347.876L439.107,347.504L439.672,346.979L439.859,346.308L440.033,345.104L440.467,344.114L441.236,343.497L442.39,343.384L443.185,342.944L443.872,341.985L444.717,340.017L444.905,339.247L444.987,338.451L444.842,337.927L444.202,337.206L444.007,336.763L444.174,335.982L444.696,335.251L446.488,333.602L448.177,332.544L448.291,332.388L448.394,332.009L448.507,331.874L448.652,331.83L448.95,331.862L449.279,331.791L449.734,331.77L449.93,331.699L450.092,331.473L450.146,331.192L450.238,330.926L450.671,330.648L451.906,329.523L452.247,329.329L452.638,329.205L452.967,329.236L453.223,329.36L453.471,329.421L453.759,329.308L454.018,328.65L453.656,327.92L452.523,326.682L451.072,324.592L450.66,324.244L449.969,324.109L449.795,323.942L450.033,323.677L450.558,323.285L451.144,322.739L452.957,320.054L456.497,316.602L457.271,315.448L457.732,315.128L458.094,314.803L458.208,314.202L457.796,312.484L457.743,311.863L457.836,311.229L458.034,310.629L459.084,308.724L461.977,304.71L463.088,303.557L463.254,303.136L463.172,302.649L462.967,301.93L462.81,300.807L462.81,299.665L462.974,298.952L464.158,297.263L464.386,296.635L464.417,296.061L463.953,293.689L463.882,292.362L464.108,291.096L464.775,290.138L465.404,289.882L466.529,290.066L467.146,289.984L467.493,289.736L467.721,289.396L467.906,289.048L468.133,288.739L469.01,288.129L469.258,287.863L469.247,287.051L469.165,286.639L468.474,284.979L468.235,284.557L469.041,284.814L469.453,284.875L469.864,284.837L470.318,284.642L470.655,284.403L471.028,284.22L471.554,284.155L471.933,284.258L472.87,284.691L473.302,284.772L473.757,284.67L476.741,283.095L477.256,282.53L477.688,281.583L477.947,280.76L478.153,280.407L478.493,280.244L478.905,280.263L479.274,280.337L479.637,280.337L480.026,280.171L480.654,279.305L480.985,278.048L481.635,272.52L481.429,271.449L481.457,270.268L482.046,268.865L483.395,266.456L483.568,265.951L483.682,265.405L483.714,264.241L483.476,263.354L483.199,262.77L482.365,262.635L482.229,262.542L482.425,262.006L482.62,261.864L484.331,261.06L484.58,260.896L484.898,260.565L485.743,259.483L486.133,259.175L488.152,258.291L490.448,257.939L492.354,257.188L493.167,255.098L493.311,253.192L493.691,251.216L493.968,250.517L494.248,250.031L494.32,249.56L494,248.898L493.145,248.012L492.847,247.55L492.805,246.88L493.02,246.283L493.712,245.201L493.837,244.503L493.724,243.945L493.372,242.977L493.361,242.391L493.875,241.395L494.854,241.011L497.141,240.763L497.687,240.527L498.375,240.128L498.992,239.652L499.333,239.208L499.798,238.223L499.858,237.817L499.809,237.48L499.613,236.88L499.621,236.501L500.27,234.666L501.27,229.105L502.36,225.423L503.165,223.723L508.363,216.307L508.726,215.484L508.541,214.363L508.662,213.767L508.981,213.248L509.456,212.848L510.567,212.208L510.918,211.748L511.412,210.573L512.115,209.338L513.078,208.111L514.184,207L515.293,206.095L516.202,206.095L517.344,206.422L519.392,207.288L519.992,207.38L520.638,207.216L521.258,206.897L521.783,206.517L522.585,205.684L522.943,205.528L523.728,205.435L523.956,205.343L526.56,202.945L527.105,202.632L528.834,202.089L529.444,201.727L530.513,200.769L531.122,200.399L532.634,199.854L533.128,199.587L533.478,199.042L533.787,198.339L534.015,197.597L534.117,196.979L534.107,196.238L533.933,195.642L533.613,195.138L533.138,194.655L532.986,194.457L532.882,194.25L532.759,194.055L532.543,193.92L532.049,193.932L531.925,193.892L531.655,193.53L531.616,193.275L531.761,193.016L532.819,191.597L533.047,191.1L533.664,188.083L533.993,187.157L534.107,186.157L534.096,185.951L534.047,185.621L533.5,184.347L533.436,183.779L533.965,183.439L533.891,183.12L534.394,181L534.571,180.65L534.714,180.476L534.789,180.288L535.352,179.724L535.303,179.404ZM327.445,404.892L326.951,404.952L325.89,405.21L325.365,405.271L324.851,405.146L323.811,404.611L323.46,404.497L322.047,404.92L321.76,405.075L321.494,405.6L321.668,405.969L322.111,406.208L324.251,406.331L324.765,406.278L326.22,405.765L326.67,405.682L327.786,405.725L328.29,405.622L328.555,405.271L328.712,404.88L328.413,404.787L327.445,404.892ZM319.659,404.674L319.205,404.507L318.754,403.727L318.35,403.489L318.25,403.972L318.127,404.252L317.559,404.892L316.899,405.898L315.973,406.89L315.695,407.435L315.973,407.772L316.962,407.864L319.557,407.329L319.968,407.166L320.369,406.916L320.638,406.63L320.763,406.176L320.771,405.725L320.833,405.335L321.008,404.994L321.359,404.674L320.987,404.539L319.659,404.674Z" style="fill:none;stroke:rgb(153,153,153);stroke-width:0.25px;"/>
    </g>
</svg>
