<?xml version="1.0" encoding="UTF-8" standalone="no"?>
<!DOCTYPE svg PUBLIC "-//W3C//DTD SVG 1.1//EN" "http://www.w3.org/Graphics/SVG/1.1/DTD/svg11.dtd">
<svg width="100%" height="100%" viewBox="0 0 1258 1109" version="1.1" xmlns="http://www.w3.org/2000/svg" xmlns:xlink="http://www.w3.org/1999/xlink" xml:space="preserve" xmlns:serif="http://www.serif.com/" style="fill-rule:evenodd;clip-rule:evenodd;stroke-linecap:round;stroke-linejoin:round;stroke-miterlimit:2;">
    <g transform="matrix(4.16667,0,0,4.16667,-862.975,-579.167)">
        <clipPath id="_clip1">
            <path d="M264.596,328.568L264.195,329.526L258.329,337.914L246.007,350.656L242.717,356.557L235.041,362.264L231.664,368.215L224.337,374.779L222.005,377.807L218.283,380.242L222.267,387.554L223.224,390.684L226.147,399.893L226.147,399.841L228.83,397.403L237.271,391.14L243.066,384.942L243.535,381.652L242.163,375.09L242.212,371.817L245.746,365.101L264.388,347.259L266.858,345.59L266.912,345.59L272.271,340.646L272.62,336.559L269.485,332.656L264.596,328.568ZM441.968,202.264L442.279,201.148L442.681,200.436L443.343,199.929L444.144,199.475L442.838,197.195L442.228,193.524L442.279,189.834L442.977,187.554L441.515,184.682L441.617,178.87L440.768,176.956L440.768,175.633L441.968,175.633L441.968,176.956L442.977,176.956L442.732,175.233L442.228,173.716L428.947,170.271L425.05,169.259L421.169,169.16L416.868,167.904L415.965,162.996L416.068,156.992L414.608,152.398L409.698,149.371L404.807,148.811L394.399,149.316L391.422,148.254L386.726,144.375L384.236,143.052L381.313,143.258L378.998,144.964L374.854,149.821L369.756,153.006L364.848,155.374L360.513,158.507L357.276,164.109L354.649,177.513L353.43,181.481L352.82,181.952L350.662,182.752L350,183.22L349.339,185.694L348.729,191.784L348.226,194.325L350.296,194.984L351.462,196.395L351.722,198.468L351.167,200.94L349.947,203.308L343.525,209.223L341.368,212.044L341.002,213.923L343.682,219.874L344.536,223.164L346.607,241.386L346.659,244.976L346.415,249.272L346.415,249.426L346.469,249.533L346.571,249.638L346.659,249.728L346.815,250.333L346.869,251.027L346.815,251.761L346.659,252.405L345.961,258.167L349.183,265.737L351.167,272.195L346.659,274.735L342.222,276.303L340.914,279.729L342.481,282.947L347.877,283.927L350.452,283.977L351.619,283.715L353.291,282.707L356.161,279.573L357.379,278.772L359.747,279.173L368.328,283.314L379.745,285.996L382.582,287.72L383.836,290.088L384.148,293.324L383.888,297.468L383.279,298.508L382.528,298.77L381.659,298.369L380.756,297.468L370.607,299.692L367.474,301.242L364.552,303.627L358.79,309.477L345.563,319.43L342.517,323.016L339.591,328.729L338.844,333.979L338.79,339.341L337.836,345.59L330.456,357.964L328.037,364.37L329.95,370.845L333.587,373.578L337.921,374.291L342.481,373.578L346.659,372.096L356.51,370.738L377.065,370.95L386.672,367.364L404.599,352.413L414.086,347L425.311,346.061L425.416,346.149L425.45,346.061L425.45,345.887L425.416,345.59L426.319,331.351L428.947,317.357L436.727,299.275L441.968,293.461L438.487,283.054L438.487,281.662L440.313,279.225L436.258,263.77L436.727,262.203L437.738,261.648L438.886,261.297L439.654,260.43L439.757,258.861L438.8,256.74L438.487,255.139L438.381,252.51L438.034,250.49L436.258,245.95L435.964,237.002L436.867,233.661L439.654,231.398L437.878,229.031L437.98,226.805L440.768,222.053L439.895,220.852L439.895,219.769L440.66,218.917L441.968,218.202L441.968,216.74L441.271,214.479L444.144,202.264L441.968,202.264Z"/>
        </clipPath>
        <g clip-path="url(#_clip1)">
            <rect x="207.114" y="139" width="301.816" height="88.667" style="fill:rgb(3,4,4);fill-rule:nonzero;"/>
            <rect x="207.114" y="227.667" width="301.816" height="88.666" style="fill:white;fill-rule:nonzero;"/>
            <rect x="207.114" y="316.333" width="301.816" height="88.667" style="fill:rgb(13,123,62);fill-rule:nonzero;"/>
            <path d="M207.114,139L384.447,272L207.114,405L207.114,139Z" style="fill:rgb(207,32,40);fill-rule:nonzero;"/>
        </g>
    </g>
    <g transform="matrix(4.16667,0,0,4.16667,-862.975,-579.167)">
        <path d="M264.596,328.568L264.195,329.526L258.329,337.914L246.007,350.656L242.717,356.557L235.041,362.264L231.664,368.215L224.337,374.779L222.005,377.807L218.283,380.242L222.267,387.554L223.224,390.684L226.147,399.893L226.147,399.841L228.83,397.403L237.271,391.14L243.066,384.942L243.535,381.652L242.163,375.09L242.212,371.817L245.746,365.101L264.388,347.259L266.858,345.59L266.912,345.59L272.271,340.646L272.62,336.559L269.485,332.656L264.596,328.568ZM441.968,202.264L442.279,201.148L442.681,200.436L443.343,199.929L444.144,199.475L442.838,197.195L442.228,193.524L442.279,189.834L442.977,187.554L441.515,184.682L441.617,178.87L440.768,176.956L440.768,175.633L441.968,175.633L441.968,176.956L442.977,176.956L442.732,175.233L442.228,173.716L428.947,170.271L425.05,169.259L421.169,169.16L416.868,167.904L415.965,162.996L416.068,156.992L414.608,152.398L409.698,149.371L404.807,148.811L394.399,149.316L391.422,148.254L386.726,144.375L384.236,143.052L381.313,143.258L378.998,144.964L374.854,149.821L369.756,153.006L364.848,155.374L360.513,158.507L357.276,164.109L354.649,177.513L353.43,181.481L352.82,181.952L350.662,182.752L350,183.22L349.339,185.694L348.729,191.784L348.226,194.325L350.296,194.984L351.462,196.395L351.722,198.468L351.167,200.94L349.947,203.308L343.525,209.223L341.368,212.044L341.002,213.923L343.682,219.874L344.536,223.164L346.607,241.386L346.659,244.976L346.415,249.272L346.415,249.426L346.469,249.533L346.571,249.638L346.659,249.728L346.815,250.333L346.869,251.027L346.815,251.761L346.659,252.405L345.961,258.167L349.183,265.737L351.167,272.195L346.659,274.735L342.222,276.303L340.914,279.729L342.481,282.947L347.877,283.927L350.452,283.977L351.619,283.715L353.291,282.707L356.161,279.573L357.379,278.772L359.747,279.173L368.328,283.314L379.745,285.996L382.582,287.72L383.836,290.088L384.148,293.324L383.888,297.468L383.279,298.508L382.528,298.77L381.659,298.369L380.756,297.468L370.607,299.692L367.474,301.242L364.552,303.627L358.79,309.477L345.563,319.43L342.517,323.016L339.591,328.729L338.844,333.979L338.79,339.341L337.836,345.59L330.456,357.964L328.037,364.37L329.95,370.845L333.587,373.578L337.921,374.291L342.481,373.578L346.659,372.096L356.51,370.738L377.065,370.95L386.672,367.364L404.599,352.413L414.086,347L425.311,346.061L425.416,346.149L425.45,346.061L425.45,345.887L425.416,345.59L426.319,331.351L428.947,317.357L436.727,299.275L441.968,293.461L438.487,283.054L438.487,281.662L440.313,279.225L436.258,263.77L436.727,262.203L437.738,261.648L438.886,261.297L439.654,260.43L439.757,258.861L438.8,256.74L438.487,255.139L438.381,252.51L438.034,250.49L436.258,245.95L435.964,237.002L436.867,233.661L439.654,231.398L437.878,229.031L437.98,226.805L440.768,222.053L439.895,220.852L439.895,219.769L440.66,218.917L441.968,218.202L441.968,216.74L441.271,214.479L444.144,202.264L441.968,202.264Z" style="fill:none;stroke:rgb(153,153,153);stroke-width:0.25px;"/>
    </g>
</svg>
