<?xml version="1.0" encoding="UTF-8" standalone="no"?>
<!DOCTYPE svg PUBLIC "-//W3C//DTD SVG 1.1//EN" "http://www.w3.org/Graphics/SVG/1.1/DTD/svg11.dtd">
<svg width="100%" height="100%" viewBox="0 0 1843 1130" version="1.1" xmlns="http://www.w3.org/2000/svg" xmlns:xlink="http://www.w3.org/1999/xlink" xml:space="preserve" xmlns:serif="http://www.serif.com/" style="fill-rule:evenodd;clip-rule:evenodd;stroke-linecap:round;stroke-linejoin:round;stroke-miterlimit:2;">
    <g transform="matrix(4.16667,0,0,4.16667,-578.671,-564.237)">
        <clipPath id="_clip1">
            <path d="M509.882,224.186L509.624,224.235L509.582,224.054L509.582,223.758L509.467,223.473L508.723,222.698L508.42,222.516L508.673,222.88L508.699,223.311L508.527,223.593L508.176,223.537L508.063,223.298L507.997,222.559L507.808,222.27L507.519,222.479L507.072,222.44L506.776,222.257L506.945,222.005L506.366,221.084L506.019,220.726L505.737,220.984L505.955,221.115L505.932,221.267L505.746,221.356L505.479,221.306L505.237,221.223L504.732,221.161L504.495,221.104L504.312,220.998L504.159,220.872L503.997,220.77L503.763,220.733L503.146,220.845L502.913,220.845L503.045,220.681L503.241,220.667L503.485,220.681L503.751,220.606L503.965,220.392L504.009,220.172L503.997,219.963L504.021,219.812L504.204,219.679L504.458,219.541L504.607,219.381L504.495,219.186L503.871,219.56L503.751,219.692L503.341,220.524L502.383,220.253L500.594,219.186L500.801,218.602L500.951,218.3L501.313,218.048L501.167,217.783L500.883,217.518L500.152,217.171L499.686,216.628L498.937,215.533L498.47,215.066L497.965,214.682L495.688,213.4L495.395,213.105L495.348,212.859L495.354,212.608L495.209,212.267L495.097,212.784L494.988,213.009L494.712,213.162L494.674,212.81L494.857,212.078L494.712,211.759L494.404,211.656L494.038,211.68L493.705,211.62L493.489,211.242L493.167,211.485L492.752,211.593L491.909,211.624L491.7,211.574L491.56,211.485L491.428,211.448L491.233,211.567L491.013,211.637L490.817,211.53L490.653,211.322L490.553,211.103L490.018,210.049L489.82,209.695L489.172,209.135L488.933,208.796L488.78,207.823L488.536,207.037L488.429,205.629L488.247,205.334L487.862,205.586L487.837,205.278L487.52,204.296L487.527,204.161L487.621,203.916L487.616,203.79L487.516,203.653L487.347,203.558L487.193,203.425L487.13,203.206L486.991,201.264L486.278,197.268L485.914,196.19L485.63,195.704L485.563,195.528L485.529,195.37L485.563,195.011L485.429,193.875L485.484,193.593L485.78,193.172L485.877,192.963L485.914,192.622L485.914,191.393L485.807,190.757L484.678,187.768L484.553,187.125L484.558,186.617L484.646,186.439L484.86,186.169L484.924,185.961L484.919,185.835L484.591,184.53L484.522,183.98L484.344,183.413L484.307,183.186L484.44,181.819L484.434,181.535L484.307,180.772L484.44,179.424L484.37,178.864L484.434,178.618L484.976,178.698L485.145,178.516L485.24,178.214L485.29,177.913L485.252,176.683L484.459,174.42L484.193,173.243L484.034,170.74L483.809,169.549L483.33,168.432L482.812,167.822L482.725,167.653L482.725,167.342L482.852,167.242L483.034,167.183L483.21,167L483.278,166.788L483.285,166.566L483.21,166.083L483.273,165.919L483.33,165.691L483.285,165.565L483.064,165.552L482.978,165.446L482.931,164.986L483.053,164.481L483.349,164.16L483.827,164.26L484.024,164.499L483.992,164.72L483.872,164.942L483.827,165.175L483.902,165.426L484.018,165.609L484.161,165.646L484.307,165.446L484.804,165.824L485.081,165.728L485.278,165.993L485.563,166.731L485.996,167.235L486.034,167.392L485.884,167.48L485.642,167.379L485.233,167.066L485.126,166.895L485.046,166.706L484.912,166.549L484.685,166.484L484.558,166.58L484.609,166.788L484.74,167.027L484.867,167.192L485.354,168.043L485.682,168.313L486.034,168.043L486.382,168.187L486.606,168.03L486.727,167.7L486.764,167.331L486.633,167.009L484.729,164.581L483.203,163.131L480.892,159.56L479.938,157.264L479.807,157.082L479.605,156.88L479.497,156.672L479.485,156.433L479.429,156.211L479.178,156.042L479.34,155.512L478.932,152.884L478.917,150.57L478.746,150.319L478.318,149.997L478.641,149.885L478.924,149.848L479.002,149.808L479.044,149.722L479.101,149.43L416.77,149.43L412.614,149.437L381.833,149.437L382.398,147.734L382.816,146.507L382.835,146.027L382.678,145.604L382.286,145.221L381.957,145.05L381.612,145L381.271,145.056L380.938,145.239L380.472,145.743L379.607,147.515L378.725,149.309L378.492,149.457L374.333,149.457L372.594,149.448L336.108,149.448L334.374,149.443L290.929,149.443L289.196,149.437L266.609,149.437L266.609,161.337L266.602,163.707L266.602,179.708L266.595,181.504L266.595,187.33L266.576,187.359L266.563,187.39L266.526,187.446L266.489,187.455L266.45,187.455L266.413,187.46L266.367,187.466L261.97,187.466L259.789,187.46L253.158,187.46L251.634,187.455L248.758,187.455L248.758,201.238L248.765,205.605L248.765,209.96L248.771,214.309L248.771,218.658L248.778,222.993L248.784,227.331L248.784,231.655L248.791,235.979L248.791,240.294L248.797,244.605L248.797,248.91L248.804,253.208L248.804,257.508L248.81,261.8L248.81,267.156L248.602,267.712L248.115,267.692L246.037,266.98L243.867,266.646L241.819,266.646L240.646,266.904L238.303,267.762L236.96,267.894L234.213,267.314L232.927,267.473L232.46,267.794L231.32,269.181L229.913,270.055L229.574,270.473L229.442,271.045L229.574,271.576L229.876,272.054L230.254,272.464L230.638,272.987L230.814,273.561L230.854,274.171L230.625,276.315L230.489,276.725L229.687,278.192L229.548,278.363L228.944,278.596L228.541,278.823L228.187,279.111L226.579,280.802L226.366,281.18L226.271,281.627L226.258,281.975L226.158,282.275L225.804,282.604L225.15,283.046L225.005,283.33L225.005,283.803L225.15,284.811L225.25,285.133L225.522,285.72L225.552,285.881L225.465,286.134L225.282,286.267L221.695,287.23L220.933,287.602L220.213,288.151L219.875,288.801L220.283,289.48L220.833,289.891L220.972,290.143L221.224,292.108L221.286,292.221L221.373,292.317L221.437,292.423L221.419,292.563L221.33,292.651L221.084,292.765L221.009,292.841L220.852,293.155L220.833,293.301L220.882,293.514L221.045,293.911L221.26,294.183L221.556,294.341L222.565,294.517L222.88,294.719L223.043,295.07L223.163,295.663L223.139,296.199L222.874,296.509L222.457,296.672L221.979,296.767L221.576,296.993L220.913,297.618L220.567,297.851L217.731,299.199L217.221,299.547L216.787,299.981L215.16,302.055L214.725,302.768L214.699,302.931L215.123,303.328L215.399,303.687L215.461,303.958L215.425,304.242L215.425,304.644L215.746,305.351L216.88,306.416L217.145,307.122L217.157,308.173L217.234,308.521L217.466,308.956L218.096,309.725L218.311,310.142L218.166,310.904L217.529,311.729L215.885,313.469L215.588,313.678L213.672,314.438L213.357,314.615L212.747,315.208L212.23,315.92L210.759,318.711L210.313,320.066L210.03,320.634L209.984,320.748L210.06,320.957L210.546,321.561L211.246,322.886L211.617,323.243L212.241,323.552L212.979,323.691L213.735,323.697L214.434,323.603L215.272,323.357L215.961,322.979L216.534,322.426L217.045,321.667L219.282,323.155L221.108,323.837L221.343,324.069L220.455,326.163L220.044,326.76L220.077,326.981L220.668,327.907L221.979,331.96L222.029,332.175L222.042,332.396L222.022,332.622L221.562,334.613L221.677,334.57L221.784,334.514L221.979,334.361L223.139,333.997L223.838,333.871L224.077,334.014L224.229,333.756L224.318,333.845L224.336,334.129L224.286,334.444L223.971,335.363L222.974,340.949L223.057,341.817L223.417,342.669L223.958,343.431L224.601,344.041L225.213,344.353L226.648,344.837L227.109,345.265L227.159,345.43L227.166,345.977L227.341,346.053L229.044,345.877L229.461,345.884L229.72,346.104L229.958,347.389L230.412,348.731L230.463,349.495L230.38,349.816L230.078,350.447L229.972,350.774L229.913,351.133L229.902,351.497L229.85,351.693L229.568,352.003L229.455,352.187L228.76,354.725L228.798,355.223L231.338,358.923L233.193,360.229L236.437,363.38L242.381,372.964L242.747,373.772L243.27,376.881L243.181,377.565L242.942,378.104L242.279,379.117L242.06,379.634L242.071,379.83L242.242,380.277L242.279,380.517L242.255,381.069L242.306,381.241L242.444,381.467L242.575,381.467L242.677,381.506L242.777,381.65L242.784,381.769L242.336,383.17L242.319,383.491L242.501,384.038L242.525,384.304L242.369,384.519L242.127,384.701L241.441,385.563L241.05,385.961L240.842,386.086L240.553,386.14L239.973,386.112L239.702,386.219L239.413,386.66L239.015,388.949L239.065,389.383L239.298,389.748L239.771,390.026L240.262,389.99L240.924,389.34L241.239,389.352L241.365,389.742L241.341,390.368L241.12,391.388L240.818,391.879L240.08,392.71L239.847,393.178L239.841,393.605L239.986,394.086L240.258,394.482L240.622,394.646L240.888,394.589L241.309,394.268L241.554,394.122L241.882,394.06L242.186,394.092L242.468,394.211L242.733,394.4L242.966,394.496L243.539,394.482L244.115,394.633L244.404,394.553L244.964,394.294L245.583,394.274L246.71,394.533L247.7,394.434L248.413,394.729L248.758,394.778L249.264,394.689L251.128,395L252.131,394.867L252.213,394.755L252.25,394.496L252.356,394.351L253.385,393.568L253.927,393.317L255.875,392.087L256.284,391.998L257.903,391.829L258.778,391.54L258.957,391.438L259.057,391.318L259.057,389.41L259.077,389.29L259.183,389.019L260.803,386.282L260.872,386.106L260.893,386.01L261.23,382.583L261.357,382.256L261.496,382.047L262.013,381.576L263.109,380.347L263.236,379.936L263.272,379.721L263.242,374.938L263.306,374.567L263.368,374.452L263.438,374.383L263.5,374.365L263.67,374.353L263.865,374.319L264.018,374.246L264.176,374.156L264.787,373.646L265.403,373.275L265.637,373.01L266.129,372.348L266.367,372.096L266.52,371.894L266.678,371.565L266.778,371.251L267.245,370.28L267.44,369.75L267.458,369.649L267.465,369.537L267.453,369.435L267.401,369.246L267.251,368.907L267.226,368.817L267.189,368.623L267.2,368.471L267.245,368.275L268.14,366.354L268.315,366.134L268.441,366.021L268.555,365.976L268.832,365.893L269.097,365.786L269.286,365.75L269.74,365.786L269.949,365.756L270.376,365.584L270.483,365.584L270.692,365.61L270.811,365.592L270.969,365.528L271.096,365.497L271.222,365.484L271.437,365.521L271.53,365.554L271.712,365.635L271.814,365.666L271.914,365.687L272.028,365.687L272.123,365.66L272.292,365.598L272.394,365.592L272.59,365.617L272.69,365.617L272.79,365.598L273.118,365.446L273.213,365.415L273.422,365.389L273.535,365.389L273.75,365.372L273.933,365.313L274.102,365.232L274.367,365.144L274.569,365.106L274.784,365.087L275.5,365.112L275.703,365.074L275.93,365.011L275.986,365.005L277.303,364.54L278.072,364.349L278.174,364.338L278.747,364.331L279.155,364.262L279.44,364.186L279.54,364.167L280.258,364.198L280.404,364.18L280.563,364.136L280.935,363.953L281.734,363.745L281.929,363.726L281.992,363.774L282.768,364.739L282.863,364.892L282.893,364.974L282.919,365.074L283.026,367.86L283.059,367.961L283.108,368.036L283.221,368.169L283.36,368.281L284.003,368.659L284.274,368.781L284.759,368.919L284.809,368.944L284.924,369.033L284.987,369.096L285.094,369.233L286.16,370.985L286.366,371.251L286.624,371.521L288,372.045L294.736,379.936L295.525,380.446L295.965,380.647L296.999,380.737L297.188,380.718L304.084,378.379L308.704,378.272L309.523,378.418L312.074,378.411L313.525,378.594L313.625,378.581L313.997,378.481L314.099,378.467L316.385,378.802L318.151,378.714L318.44,378.656L318.624,378.587L320.444,382.375L321.302,383.333L335.565,383.459L335.344,383.012L335.27,382.375L335.293,381.606L335.658,380.92L336.812,379.777L338.163,378.739L338.521,378.448L340.714,377.289L342.858,376.506L346.972,375.594L348.479,374.163L349.311,372.845L349.337,370.257L349.884,369.833L350.868,369.233L355.626,366.92L356.433,366.43L364.853,371.812L369.58,376.059L369.864,376.268L370.11,376.35L370.361,376.198L370.568,376.003L370.916,375.877L371.144,375.82L373.167,375.765L376.99,375.556L378.246,375.045L385.924,367.443L387.877,365.018L388.374,364.527L389.482,362.793L390.656,359.824L390.889,359.483L399.304,352.35L399.599,351.782L399.684,351.335L398.406,348.926L398.139,347.703L398.08,345.82L398.331,342.895L398.244,341.043L398.212,340.828L398.125,340.545L398.075,340.436L393.379,335.168L405.239,335.117L405.266,334.677L405.254,334.45L405.221,334.235L404.995,333.605L404.861,332.768L404.856,332.529L404.876,332.3L404.946,331.866L404.946,331.632L404.938,331.519L404.913,331.412L404.918,331.316L404.97,331.24L413.497,331.35L413.382,332.844L412.35,336.347L412.368,338.451L412.124,340.854L412.067,341.049L411.833,341.566L411.626,341.86L411.392,342.146L411.328,342.252L411.248,342.43L411.241,342.692L413.011,356.101L412.94,356.435L412.88,356.654L412.408,357.492L412.286,357.771L412.263,357.979L412.45,358.121L416.377,359.573L416.567,359.66L416.718,359.781L418.135,361.501L425.862,367.847L426.135,368.163L426.928,370.154L427.021,370.451L427.048,370.929L427.029,371.301L426.827,372.493L426.896,373.027L427.029,373.388L427.135,373.792L427.135,373.918L427.118,374.023L427.062,374.213L425.911,376.513L425.541,378.146L425.428,379.519L425.496,380.313L425.623,380.831L425.687,380.943L425.735,381.032L425.785,381.083L425.844,381.109L428.874,381.122L428.806,379.74L429.367,377.069L431.571,370.836L432.625,369.864L433.028,369.259L433.059,369.057L432.996,368.623L433.003,368.414L433.047,368.321L433.226,368.143L433.282,368.036L433.43,367.28L433.413,366.468L432.543,362.496L432.463,361.754L432.599,361.11L434.137,358.942L434.831,357.604L435.108,357.227L435.418,356.956L437.572,355.475L437.876,355.361L438.097,355.444L440.251,357.347L440.774,357.681L441.014,357.889L441.129,358.167L441.052,358.708L441.082,358.974L441.268,359.043L441.41,358.897L441.652,358.343L441.87,358.148L442.169,358.115L442.387,358.185L442.584,358.161L442.812,357.857L442.917,357.535L442.917,357.316L442.992,357.102L443.321,356.793L444.286,356.061L444.582,355.626L444.72,355.01L444.624,354.737L444.096,354.354L443.92,354.114L443.932,353.92L445.112,350.46L445.18,349.896L444.952,349.525L444.645,349.179L444.469,348.688L444.519,348.297L446.77,343.336L446.837,342.983L446.795,342.644L446.422,341.906L446.29,341.533L446.321,340.79L446.189,340.104L446.201,339.737L446.328,339.31L446.522,338.868L446.762,338.444L447.032,338.1L447.727,337.652L449.313,337.039L449.852,336.437L449.887,336.258L449.9,335.844L449.952,335.681L450.114,335.521L450.783,335.137L451.131,334.733L451.288,334.305L451.464,333.309L451.778,332.516L451.917,332.313L452.088,332.162L452.478,331.96L452.668,331.81L452.832,331.564L452.882,331.337L452.934,330.826L453.121,330.321L456.476,324.726L456.637,324.543L456.79,324.479L457.137,324.453L457.292,324.384L457.471,324.195L457.534,324.007L457.558,323.811L457.677,323.351L457.677,323.251L457.74,323.194L458.013,323.074L458.466,322.923L463.854,322.141L464.005,322.135L464.221,322.173L464.341,322.236L464.441,322.311L464.604,322.399L465.09,322.531L465.374,322.418L465.523,322.065L465.871,320.043L465.871,319.602L465.796,319.331L465.374,318.605L465.362,318.2L465.568,317.886L465.834,317.621L465.991,317.356L465.983,317.199L465.928,317.041L465.789,316.752L465.764,316.405L467.486,310.406L470.139,306.586L470.303,306.068L470.366,305.034L470.43,304.671L471.493,302.042L471.448,301.128L471.134,300.214L471.04,299.767L471.035,299.299L471.107,298.915L472.716,293.931L472.319,290.563L472.049,288.297L471.777,285.995L471.448,283.197L471.084,280.122L470.883,278.382L470.906,277.979L471.052,277.656L472.363,276.377L472.692,275.874L473.594,273.195L473.938,272.626L474.525,272.235L474.279,271.431L474.328,270.655L475.293,267.125L475.516,266.715L476.396,265.803L476.877,265.014L477.731,262.583L478.539,260.287L479.133,258.605L479.422,258.119L480.171,257.35L480.356,256.876L480.305,256.485L479.982,255.736L479.889,255.345L479.912,254.948L479.976,254.62L479.982,254.294L479.849,253.92L479.598,253.582L479.323,253.278L479.089,252.957L478.962,252.528L478.98,252.27L479.196,251.532L479.253,251.173L479.22,250.574L479.246,250.242L479.41,249.894L479.68,249.648L480.267,249.225L480.462,248.967L480.903,247.859L480.967,246.749L481.004,246.667L481.131,246.517L481.161,246.441L481.143,246.333L481.037,246.163L481.009,246.093L481.049,245.351L481.004,245.116L480.847,244.884L480.663,244.701L480.603,244.506L481.037,243.882L481.119,243.521L481.056,243.17L480.694,242.671L480.659,242.507L480.694,242.349L480.813,242.212L481.175,242.167L481.464,242.293L481.729,242.475L482.051,242.607L482.511,242.684L482.694,242.753L483.387,243.177L483.564,243.207L484.527,243.048L484.797,243.087L485.335,243.055L486.185,242.533L486.703,242.488L488.372,242.955L489.374,241.758L489.526,241.384L489.609,240.97L489.996,240.271L490.111,239.893L490.193,239.117L490.182,238.776L489.979,237.925L490.022,237.716L490.219,237.597L492.58,236.867L493.301,236.765L494.031,236.381L494.808,234.982L495.43,234.648L495.796,234.75L496.331,235.266L496.735,235.393L497.165,235.291L497.512,235.019L498.07,234.302L499.294,233.481L499.716,233.325L500.127,233.332L500.289,233.514L500.31,233.822L500.282,234.194L500.385,234.597L500.657,234.597L500.951,234.339L501.134,233.98L501.141,233.785L501.097,233.66L501.07,233.538L501.152,233.375L501.261,233.355L501.89,233.153L502.181,233.338L502.453,233.614L502.768,233.809L503.188,233.747L503.485,233.444L503.535,233.079L503.51,232.682L503.605,232.315L503.908,232.032L504.796,231.604L505.157,231.32L505.654,230.519L506.725,227.672L507.225,226.946L509.77,224.822L509.814,224.653L509.985,224.407L510.016,224.186L509.882,224.186ZM485.934,171.42L485.713,171.496L485.661,171.64L485.649,171.772L485.611,171.874L485.571,172.511L485.745,173.28L485.795,173.165L485.889,173.06L485.996,172.876L486.255,171.59L486.236,171.458L486.109,171.42L485.934,171.42Z"/>
        </clipPath>
        <g clip-path="url(#_clip1)">
            <rect x="197.921" y="135.417" width="442.254" height="90.389" style="fill:rgb(212,31,54);fill-rule:nonzero;"/>
            <rect x="197.921" y="225.806" width="442.254" height="90.388" style="fill:white;fill-rule:nonzero;"/>
            <rect x="197.921" y="316.194" width="442.254" height="90.39" style="fill:rgb(3,4,4);fill-rule:nonzero;"/>
            <path d="M197.921,135.417L378.699,271L197.921,406.584L197.921,135.417Z" style="fill:rgb(14,114,59);fill-rule:nonzero;"/>
        </g>
    </g>
    <g transform="matrix(4.16667,0,0,4.16667,-578.671,-564.237)">
        <path d="M509.882,224.186L509.624,224.235L509.582,224.054L509.582,223.758L509.467,223.473L508.723,222.698L508.42,222.516L508.673,222.88L508.699,223.311L508.527,223.593L508.176,223.537L508.063,223.298L507.997,222.559L507.808,222.27L507.519,222.479L507.072,222.44L506.776,222.257L506.945,222.005L506.366,221.084L506.019,220.726L505.737,220.984L505.955,221.115L505.932,221.267L505.746,221.356L505.479,221.306L505.237,221.223L504.732,221.161L504.495,221.104L504.312,220.998L504.159,220.872L503.997,220.77L503.763,220.733L503.146,220.845L502.913,220.845L503.045,220.681L503.241,220.667L503.485,220.681L503.751,220.606L503.965,220.392L504.009,220.172L503.997,219.963L504.021,219.812L504.204,219.679L504.458,219.541L504.607,219.381L504.495,219.186L503.871,219.56L503.751,219.692L503.341,220.524L502.383,220.253L500.594,219.186L500.801,218.602L500.951,218.3L501.313,218.048L501.167,217.783L500.883,217.518L500.152,217.171L499.686,216.628L498.937,215.533L498.47,215.066L497.965,214.682L495.688,213.4L495.395,213.105L495.348,212.859L495.354,212.608L495.209,212.267L495.097,212.784L494.988,213.009L494.712,213.162L494.674,212.81L494.857,212.078L494.712,211.759L494.404,211.656L494.038,211.68L493.705,211.62L493.489,211.242L493.167,211.485L492.752,211.593L491.909,211.624L491.7,211.574L491.56,211.485L491.428,211.448L491.233,211.567L491.013,211.637L490.817,211.53L490.653,211.322L490.553,211.103L490.018,210.049L489.82,209.695L489.172,209.135L488.933,208.796L488.78,207.823L488.536,207.037L488.429,205.629L488.247,205.334L487.862,205.586L487.837,205.278L487.52,204.296L487.527,204.161L487.621,203.916L487.616,203.79L487.516,203.653L487.347,203.558L487.193,203.425L487.13,203.206L486.991,201.264L486.278,197.268L485.914,196.19L485.63,195.704L485.563,195.528L485.529,195.37L485.563,195.011L485.429,193.875L485.484,193.593L485.78,193.172L485.877,192.963L485.914,192.622L485.914,191.393L485.807,190.757L484.678,187.768L484.553,187.125L484.558,186.617L484.646,186.439L484.86,186.169L484.924,185.961L484.919,185.835L484.591,184.53L484.522,183.98L484.344,183.413L484.307,183.186L484.44,181.819L484.434,181.535L484.307,180.772L484.44,179.424L484.37,178.864L484.434,178.618L484.976,178.698L485.145,178.516L485.24,178.214L485.29,177.913L485.252,176.683L484.459,174.42L484.193,173.243L484.034,170.74L483.809,169.549L483.33,168.432L482.812,167.822L482.725,167.653L482.725,167.342L482.852,167.242L483.034,167.183L483.21,167L483.278,166.788L483.285,166.566L483.21,166.083L483.273,165.919L483.33,165.691L483.285,165.565L483.064,165.552L482.978,165.446L482.931,164.986L483.053,164.481L483.349,164.16L483.827,164.26L484.024,164.499L483.992,164.72L483.872,164.942L483.827,165.175L483.902,165.426L484.018,165.609L484.161,165.646L484.307,165.446L484.804,165.824L485.081,165.728L485.278,165.993L485.563,166.731L485.996,167.235L486.034,167.392L485.884,167.48L485.642,167.379L485.233,167.066L485.126,166.895L485.046,166.706L484.912,166.549L484.685,166.484L484.558,166.58L484.609,166.788L484.74,167.027L484.867,167.192L485.354,168.043L485.682,168.313L486.034,168.043L486.382,168.187L486.606,168.03L486.727,167.7L486.764,167.331L486.633,167.009L484.729,164.581L483.203,163.131L480.892,159.56L479.938,157.264L479.807,157.082L479.605,156.88L479.497,156.672L479.485,156.433L479.429,156.211L479.178,156.042L479.34,155.512L478.932,152.884L478.917,150.57L478.746,150.319L478.318,149.997L478.641,149.885L478.924,149.848L479.002,149.808L479.044,149.722L479.101,149.43L416.77,149.43L412.614,149.437L381.833,149.437L382.398,147.734L382.816,146.507L382.835,146.027L382.678,145.604L382.286,145.221L381.957,145.05L381.612,145L381.271,145.056L380.938,145.239L380.472,145.743L379.607,147.515L378.725,149.309L378.492,149.457L374.333,149.457L372.594,149.448L336.108,149.448L334.374,149.443L290.929,149.443L289.196,149.437L266.609,149.437L266.609,161.337L266.602,163.707L266.602,179.708L266.595,181.504L266.595,187.33L266.576,187.359L266.563,187.39L266.526,187.446L266.489,187.455L266.45,187.455L266.413,187.46L266.367,187.466L261.97,187.466L259.789,187.46L253.158,187.46L251.634,187.455L248.758,187.455L248.758,201.238L248.765,205.605L248.765,209.96L248.771,214.309L248.771,218.658L248.778,222.993L248.784,227.331L248.784,231.655L248.791,235.979L248.791,240.294L248.797,244.605L248.797,248.91L248.804,253.208L248.804,257.508L248.81,261.8L248.81,267.156L248.602,267.712L248.115,267.692L246.037,266.98L243.867,266.646L241.819,266.646L240.646,266.904L238.303,267.762L236.96,267.894L234.213,267.314L232.927,267.473L232.46,267.794L231.32,269.181L229.913,270.055L229.574,270.473L229.442,271.045L229.574,271.576L229.876,272.054L230.254,272.464L230.638,272.987L230.814,273.561L230.854,274.171L230.625,276.315L230.489,276.725L229.687,278.192L229.548,278.363L228.944,278.596L228.541,278.823L228.187,279.111L226.579,280.802L226.366,281.18L226.271,281.627L226.258,281.975L226.158,282.275L225.804,282.604L225.15,283.046L225.005,283.33L225.005,283.803L225.15,284.811L225.25,285.133L225.522,285.72L225.552,285.881L225.465,286.134L225.282,286.267L221.695,287.23L220.933,287.602L220.213,288.151L219.875,288.801L220.283,289.48L220.833,289.891L220.972,290.143L221.224,292.108L221.286,292.221L221.373,292.317L221.437,292.423L221.419,292.563L221.33,292.651L221.084,292.765L221.009,292.841L220.852,293.155L220.833,293.301L220.882,293.514L221.045,293.911L221.26,294.183L221.556,294.341L222.565,294.517L222.88,294.719L223.043,295.07L223.163,295.663L223.139,296.199L222.874,296.509L222.457,296.672L221.979,296.767L221.576,296.993L220.913,297.618L220.567,297.851L217.731,299.199L217.221,299.547L216.787,299.981L215.16,302.055L214.725,302.768L214.699,302.931L215.123,303.328L215.399,303.687L215.461,303.958L215.425,304.242L215.425,304.644L215.746,305.351L216.88,306.416L217.145,307.122L217.157,308.173L217.234,308.521L217.466,308.956L218.096,309.725L218.311,310.142L218.166,310.904L217.529,311.729L215.885,313.469L215.588,313.678L213.672,314.438L213.357,314.615L212.747,315.208L212.23,315.92L210.759,318.711L210.313,320.066L210.03,320.634L209.984,320.748L210.06,320.957L210.546,321.561L211.246,322.886L211.617,323.243L212.241,323.552L212.979,323.691L213.735,323.697L214.434,323.603L215.272,323.357L215.961,322.979L216.534,322.426L217.045,321.667L219.282,323.155L221.108,323.837L221.343,324.069L220.455,326.163L220.044,326.76L220.077,326.981L220.668,327.907L221.979,331.96L222.029,332.175L222.042,332.396L222.022,332.622L221.562,334.613L221.677,334.57L221.784,334.514L221.979,334.361L223.139,333.997L223.838,333.871L224.077,334.014L224.229,333.756L224.318,333.845L224.336,334.129L224.286,334.444L223.971,335.363L222.974,340.949L223.057,341.817L223.417,342.669L223.958,343.431L224.601,344.041L225.213,344.353L226.648,344.837L227.109,345.265L227.159,345.43L227.166,345.977L227.341,346.053L229.044,345.877L229.461,345.884L229.72,346.104L229.958,347.389L230.412,348.731L230.463,349.495L230.38,349.816L230.078,350.447L229.972,350.774L229.913,351.133L229.902,351.497L229.85,351.693L229.568,352.003L229.455,352.187L228.76,354.725L228.798,355.223L231.338,358.923L233.193,360.229L236.437,363.38L242.381,372.964L242.747,373.772L243.27,376.881L243.181,377.565L242.942,378.104L242.279,379.117L242.06,379.634L242.071,379.83L242.242,380.277L242.279,380.517L242.255,381.069L242.306,381.241L242.444,381.467L242.575,381.467L242.677,381.506L242.777,381.65L242.784,381.769L242.336,383.17L242.319,383.491L242.501,384.038L242.525,384.304L242.369,384.519L242.127,384.701L241.441,385.563L241.05,385.961L240.842,386.086L240.553,386.14L239.973,386.112L239.702,386.219L239.413,386.66L239.015,388.949L239.065,389.383L239.298,389.748L239.771,390.026L240.262,389.99L240.924,389.34L241.239,389.352L241.365,389.742L241.341,390.368L241.12,391.388L240.818,391.879L240.08,392.71L239.847,393.178L239.841,393.605L239.986,394.086L240.258,394.482L240.622,394.646L240.888,394.589L241.309,394.268L241.554,394.122L241.882,394.06L242.186,394.092L242.468,394.211L242.733,394.4L242.966,394.496L243.539,394.482L244.115,394.633L244.404,394.553L244.964,394.294L245.583,394.274L246.71,394.533L247.7,394.434L248.413,394.729L248.758,394.778L249.264,394.689L251.128,395L252.131,394.867L252.213,394.755L252.25,394.496L252.356,394.351L253.385,393.568L253.927,393.317L255.875,392.087L256.284,391.998L257.903,391.829L258.778,391.54L258.957,391.438L259.057,391.318L259.057,389.41L259.077,389.29L259.183,389.019L260.803,386.282L260.872,386.106L260.893,386.01L261.23,382.583L261.357,382.256L261.496,382.047L262.013,381.576L263.109,380.347L263.236,379.936L263.272,379.721L263.242,374.938L263.306,374.567L263.368,374.452L263.438,374.383L263.5,374.365L263.67,374.353L263.865,374.319L264.018,374.246L264.176,374.156L264.787,373.646L265.403,373.275L265.637,373.01L266.129,372.348L266.367,372.096L266.52,371.894L266.678,371.565L266.778,371.251L267.245,370.28L267.44,369.75L267.458,369.649L267.465,369.537L267.453,369.435L267.401,369.246L267.251,368.907L267.226,368.817L267.189,368.623L267.2,368.471L267.245,368.275L268.14,366.354L268.315,366.134L268.441,366.021L268.555,365.976L268.832,365.893L269.097,365.786L269.286,365.75L269.74,365.786L269.949,365.756L270.376,365.584L270.483,365.584L270.692,365.61L270.811,365.592L270.969,365.528L271.096,365.497L271.222,365.484L271.437,365.521L271.53,365.554L271.712,365.635L271.814,365.666L271.914,365.687L272.028,365.687L272.123,365.66L272.292,365.598L272.394,365.592L272.59,365.617L272.69,365.617L272.79,365.598L273.118,365.446L273.213,365.415L273.422,365.389L273.535,365.389L273.75,365.372L273.933,365.313L274.102,365.232L274.367,365.144L274.569,365.106L274.784,365.087L275.5,365.112L275.703,365.074L275.93,365.011L275.986,365.005L277.303,364.54L278.072,364.349L278.174,364.338L278.747,364.331L279.155,364.262L279.44,364.186L279.54,364.167L280.258,364.198L280.404,364.18L280.563,364.136L280.935,363.953L281.734,363.745L281.929,363.726L281.992,363.774L282.768,364.739L282.863,364.892L282.893,364.974L282.919,365.074L283.026,367.86L283.059,367.961L283.108,368.036L283.221,368.169L283.36,368.281L284.003,368.659L284.274,368.781L284.759,368.919L284.809,368.944L284.924,369.033L284.987,369.096L285.094,369.233L286.16,370.985L286.366,371.251L286.624,371.521L288,372.045L294.736,379.936L295.525,380.446L295.965,380.647L296.999,380.737L297.188,380.718L304.084,378.379L308.704,378.272L309.523,378.418L312.074,378.411L313.525,378.594L313.625,378.581L313.997,378.481L314.099,378.467L316.385,378.802L318.151,378.714L318.44,378.656L318.624,378.587L320.444,382.375L321.302,383.333L335.565,383.459L335.344,383.012L335.27,382.375L335.293,381.606L335.658,380.92L336.812,379.777L338.163,378.739L338.521,378.448L340.714,377.289L342.858,376.506L346.972,375.594L348.479,374.163L349.311,372.845L349.337,370.257L349.884,369.833L350.868,369.233L355.626,366.92L356.433,366.43L364.853,371.812L369.58,376.059L369.864,376.268L370.11,376.35L370.361,376.198L370.568,376.003L370.916,375.877L371.144,375.82L373.167,375.765L376.99,375.556L378.246,375.045L385.924,367.443L387.877,365.018L388.374,364.527L389.482,362.793L390.656,359.824L390.889,359.483L399.304,352.35L399.599,351.782L399.684,351.335L398.406,348.926L398.139,347.703L398.08,345.82L398.331,342.895L398.244,341.043L398.212,340.828L398.125,340.545L398.075,340.436L393.379,335.168L405.239,335.117L405.266,334.677L405.254,334.45L405.221,334.235L404.995,333.605L404.861,332.768L404.856,332.529L404.876,332.3L404.946,331.866L404.946,331.632L404.938,331.519L404.913,331.412L404.918,331.316L404.97,331.24L413.497,331.35L413.382,332.844L412.35,336.347L412.368,338.451L412.124,340.854L412.067,341.049L411.833,341.566L411.626,341.86L411.392,342.146L411.328,342.252L411.248,342.43L411.241,342.692L413.011,356.101L412.94,356.435L412.88,356.654L412.408,357.492L412.286,357.771L412.263,357.979L412.45,358.121L416.377,359.573L416.567,359.66L416.718,359.781L418.135,361.501L425.862,367.847L426.135,368.163L426.928,370.154L427.021,370.451L427.048,370.929L427.029,371.301L426.827,372.493L426.896,373.027L427.029,373.388L427.135,373.792L427.135,373.918L427.118,374.023L427.062,374.213L425.911,376.513L425.541,378.146L425.428,379.519L425.496,380.313L425.623,380.831L425.687,380.943L425.735,381.032L425.785,381.083L425.844,381.109L428.874,381.122L428.806,379.74L429.367,377.069L431.571,370.836L432.625,369.864L433.028,369.259L433.059,369.057L432.996,368.623L433.003,368.414L433.047,368.321L433.226,368.143L433.282,368.036L433.43,367.28L433.413,366.468L432.543,362.496L432.463,361.754L432.599,361.11L434.137,358.942L434.831,357.604L435.108,357.227L435.418,356.956L437.572,355.475L437.876,355.361L438.097,355.444L440.251,357.347L440.774,357.681L441.014,357.889L441.129,358.167L441.052,358.708L441.082,358.974L441.268,359.043L441.41,358.897L441.652,358.343L441.87,358.148L442.169,358.115L442.387,358.185L442.584,358.161L442.812,357.857L442.917,357.535L442.917,357.316L442.992,357.102L443.321,356.793L444.286,356.061L444.582,355.626L444.72,355.01L444.624,354.737L444.096,354.354L443.92,354.114L443.932,353.92L445.112,350.46L445.18,349.896L444.952,349.525L444.645,349.179L444.469,348.688L444.519,348.297L446.77,343.336L446.837,342.983L446.795,342.644L446.422,341.906L446.29,341.533L446.321,340.79L446.189,340.104L446.201,339.737L446.328,339.31L446.522,338.868L446.762,338.444L447.032,338.1L447.727,337.652L449.313,337.039L449.852,336.437L449.887,336.258L449.9,335.844L449.952,335.681L450.114,335.521L450.783,335.137L451.131,334.733L451.288,334.305L451.464,333.309L451.778,332.516L451.917,332.313L452.088,332.162L452.478,331.96L452.668,331.81L452.832,331.564L452.882,331.337L452.934,330.826L453.121,330.321L456.476,324.726L456.637,324.543L456.79,324.479L457.137,324.453L457.292,324.384L457.471,324.195L457.534,324.007L457.558,323.811L457.677,323.351L457.677,323.251L457.74,323.194L458.013,323.074L458.466,322.923L463.854,322.141L464.005,322.135L464.221,322.173L464.341,322.236L464.441,322.311L464.604,322.399L465.09,322.531L465.374,322.418L465.523,322.065L465.871,320.043L465.871,319.602L465.796,319.331L465.374,318.605L465.362,318.2L465.568,317.886L465.834,317.621L465.991,317.356L465.983,317.199L465.928,317.041L465.789,316.752L465.764,316.405L467.486,310.406L470.139,306.586L470.303,306.068L470.366,305.034L470.43,304.671L471.493,302.042L471.448,301.128L471.134,300.214L471.04,299.767L471.035,299.299L471.107,298.915L472.716,293.931L472.319,290.563L472.049,288.297L471.777,285.995L471.448,283.197L471.084,280.122L470.883,278.382L470.906,277.979L471.052,277.656L472.363,276.377L472.692,275.874L473.594,273.195L473.938,272.626L474.525,272.235L474.279,271.431L474.328,270.655L475.293,267.125L475.516,266.715L476.396,265.803L476.877,265.014L477.731,262.583L478.539,260.287L479.133,258.605L479.422,258.119L480.171,257.35L480.356,256.876L480.305,256.485L479.982,255.736L479.889,255.345L479.912,254.948L479.976,254.62L479.982,254.294L479.849,253.92L479.598,253.582L479.323,253.278L479.089,252.957L478.962,252.528L478.98,252.27L479.196,251.532L479.253,251.173L479.22,250.574L479.246,250.242L479.41,249.894L479.68,249.648L480.267,249.225L480.462,248.967L480.903,247.859L480.967,246.749L481.004,246.667L481.131,246.517L481.161,246.441L481.143,246.333L481.037,246.163L481.009,246.093L481.049,245.351L481.004,245.116L480.847,244.884L480.663,244.701L480.603,244.506L481.037,243.882L481.119,243.521L481.056,243.17L480.694,242.671L480.659,242.507L480.694,242.349L480.813,242.212L481.175,242.167L481.464,242.293L481.729,242.475L482.051,242.607L482.511,242.684L482.694,242.753L483.387,243.177L483.564,243.207L484.527,243.048L484.797,243.087L485.335,243.055L486.185,242.533L486.703,242.488L488.372,242.955L489.374,241.758L489.526,241.384L489.609,240.97L489.996,240.271L490.111,239.893L490.193,239.117L490.182,238.776L489.979,237.925L490.022,237.716L490.219,237.597L492.58,236.867L493.301,236.765L494.031,236.381L494.808,234.982L495.43,234.648L495.796,234.75L496.331,235.266L496.735,235.393L497.165,235.291L497.512,235.019L498.07,234.302L499.294,233.481L499.716,233.325L500.127,233.332L500.289,233.514L500.31,233.822L500.282,234.194L500.385,234.597L500.657,234.597L500.951,234.339L501.134,233.98L501.141,233.785L501.097,233.66L501.07,233.538L501.152,233.375L501.261,233.355L501.89,233.153L502.181,233.338L502.453,233.614L502.768,233.809L503.188,233.747L503.485,233.444L503.535,233.079L503.51,232.682L503.605,232.315L503.908,232.032L504.796,231.604L505.157,231.32L505.654,230.519L506.725,227.672L507.225,226.946L509.77,224.822L509.814,224.653L509.985,224.407L510.016,224.186L509.882,224.186ZM485.934,171.42L485.713,171.496L485.661,171.64L485.649,171.772L485.611,171.874L485.571,172.511L485.745,173.28L485.795,173.165L485.889,173.06L485.996,172.876L486.255,171.59L486.236,171.458L486.109,171.42L485.934,171.42Z" style="fill:none;stroke:rgb(153,153,153);stroke-width:0.25px;"/>
    </g>
</svg>
