<?xml version="1.0" encoding="UTF-8" standalone="no"?>
<!DOCTYPE svg PUBLIC "-//W3C//DTD SVG 1.1//EN" "http://www.w3.org/Graphics/SVG/1.1/DTD/svg11.dtd">
<svg width="100%" height="100%" viewBox="0 0 2067 1278" version="1.1" xmlns="http://www.w3.org/2000/svg" xmlns:xlink="http://www.w3.org/1999/xlink" xml:space="preserve" xmlns:serif="http://www.serif.com/" style="fill-rule:evenodd;clip-rule:evenodd;stroke-linecap:round;stroke-linejoin:round;stroke-miterlimit:2;">
    <g transform="matrix(4.16667,0,0,4.16667,-465.508,-486.317)">
        <clipPath id="_clip1">
            <path d="M416.666,405.257L415.515,400.8L413.986,398.348L413.464,397.974L412.188,397.325L411.814,397.014L411.688,396.486L411.832,395.212L411.749,394.629L411.372,394.122L410.389,393.307L410.242,392.889L410.158,392.218L409.74,392.073L409.155,392.111L408.589,392.053L408.128,391.776L407.628,391.382L407.165,390.922L406.808,390.416L406.621,389.81L406.665,389.268L406.768,388.785L406.747,388.325L406.098,387.133L405.322,386.506L404.948,385.835L405.449,384.516L406.79,382.72L407.021,381.796L406.686,380.371L406.225,379.158L405.972,378.133L405.932,377.108L406.37,374.615L406.268,373.8L405.723,373.148L404.76,372.445L404.089,371.456L402.939,367.231L407.418,367.272L408.484,366.934L408.443,358.229L408.401,349.611L408.381,340.755L408.316,328.74L408.275,316.964L408.232,307.566L408.381,298.087L408.484,291.26L407.857,286.157L407.545,285.607L407.209,285.486L407.021,285.254L407.313,283.793L407.313,282.766L407.418,282.263L409.364,279.039L409.573,277.994L409.322,277.407L407.792,275.482L407.501,274.812L407.418,274.099L407.292,264.348L407.209,258.823L407.121,252.31L407.039,244.862L406.703,243.233L406.245,241.791L405.029,239.656L401.35,235.805L396.596,230.843L395.171,228.643L394.314,226.256L393.917,220.212L393.229,218.518L392.225,219.016L391.344,218.12L390.737,216.67L390.549,215.46L390.802,214.667L391.848,213.051L392.225,212.302L392.287,211.695L392.266,210.498L392.41,209.892L392.496,209.165L392.036,206.38L391.971,201.728L391.848,195.204L391.782,190.349L391.011,188.314L384.772,184.155L376.277,178.499L367.822,172.874L362.171,169.125L357.692,166.132L357.21,165.232L357.17,163.854L357.985,157.68L358.865,154.349L358.905,152.005L358.426,146.61L359.284,144.598L362.507,141.541L363.278,140.436L363.449,139.81L363.552,138.447L363.658,137.797L364.599,136.038L364.494,135.389L364.011,134.176L363.867,133.529L364.031,132.332L365.562,128.632L357.859,128.776L352.148,128.885L348.44,129.612L341.034,132.208L341.745,129.656L340.782,129.425L340.991,129.171L341.074,128.942L341.117,128.696L341.2,128.423L341.179,128.235L341.096,128.083L340.969,128.005L329.167,125.595L315.649,122.834L308.387,121.348L302.275,120.092L302.716,121.095L303.7,121.996L304.911,122.667L306,122.942L307.089,122.834L309.098,122.308L310.208,122.292L312.195,123.043L313.075,124.442L313.262,126.31L313.097,128.423L312.971,129.171L312.552,129.592L312.029,129.93L311.546,130.427L311.253,130.975L309.978,137.005L310.017,137.588L310.331,138.757L310.226,139.406L309.703,139.89L308.491,140.704L307.656,141.771L307.216,142.817L306.902,145.334L306.335,147.7L306.292,148.932L306.902,150.187L307.424,150.605L308.073,150.915L308.762,151.111L310.144,151.276L310.563,151.565L310.94,151.925L311.462,152.279L313.324,152.907L313.869,153.224L314.329,153.786L315.021,155.128L315.523,155.711L318.643,157.68L319.583,158.684L322.615,164.293L322.785,164.524L323.226,164.46L323.474,164.106L323.644,163.723L323.809,163.536L325.377,164.164L325.944,164.25L326.615,164.063L327.181,163.79L327.704,163.623L328.31,163.766L328.896,164.352L328.937,165.022L328.727,165.65L328.646,166.153L329.316,167.241L330.318,168.166L330.946,169.105L330.423,170.322L331.259,170.322L333.855,169.882L334.421,170.149L335.633,171.159L334.169,172.248L333.898,173.143L333.729,174.13L333.29,174.943L333.395,176.956L333.081,181.182L333.668,182.725L334.421,183.21L335.069,183.375L335.549,183.778L335.719,184.99L335.467,186.159L334.796,186.333L333.898,186.18L332.849,186.368L333.206,186.96L333.167,187.356L332.976,187.711L332.849,188.273L332.958,188.675L333.668,190.073L334.065,191.265L334.021,191.749L333.603,192.123L332.849,192.945L332.37,193.839L332.243,194.676L332.518,197.084L332.496,197.754L331.242,202.398L331.323,203.512L331.638,204.158L332.056,204.621L332.452,205.227L332.727,206.107L332.849,207.196L332.683,208.24L332.078,208.969L331.01,209.1L330.025,208.55L328.436,206.899L327.599,208.594L327.639,210.334L328.579,211.587L330.423,211.775L332.831,211.168L334.003,211.398L334.504,212.633L334.107,213.447L333.145,213.722L332.056,213.555L331.242,213.014L330.174,213.701L328.75,213.786L325.756,213.447L325.609,213.83L325.339,215.525L325.36,215.898L325.504,216.066L325.944,216.44L326.532,216.866L327.137,217.131L328.666,216.845L329.504,216.881L330.025,217.529L329.795,218.157L329.042,218.662L328.101,219.036L325.63,219.542L325.63,220.377L326.049,221.344L325.57,222.009L325.839,222.809L326.928,222.932L328.039,222.722L330.736,221.763L331.198,221.381L331.428,220.883L331.617,219.664L331.908,219.21L332.81,218.807L334.125,218.575L336.512,218.43L337.645,218.618L340.782,219.772L341.161,220.293L341.265,220.883L341.138,221.489L340.742,222.161L340.721,222.217L340.742,222.282L340.782,222.347L342.542,222.953L343.609,223.876L343.984,225.275L343.439,228.312L343.335,230.048L343.087,230.799L342.498,231.426L341.827,231.809L341.349,232.395L341.283,233.56L342.018,235.696L342.037,236.641L341.326,237.873L339.988,239.063L339.609,239.632L339.609,240.57L339.296,242.496L338.29,244.343L337.685,246.159L338.482,248.02L338.503,248.02L341.349,252.86L342.102,255.788L340.782,257.648L340.49,258.405L340.386,259.328L340.198,260.123L339.527,260.432L338.774,260.309L338.167,260.123L337.624,260.035L336.996,260.244L337.31,260.497L336.909,261.478L336.282,262.169L335.654,260.827L334.965,260.562L334.212,260.706L333.812,261.268L334.316,264.226L336.052,267.945L338.416,271.235L340.782,272.845L341.789,274.02L343.23,275.338L344.78,276.442L348.649,278.268L349.699,280.467L350.453,282.725L352.732,284.585L352.857,285.209L352.836,285.904L352.984,286.761L352.941,287.367L352.962,287.642L353.215,287.851L353.925,287.953L354.135,288.162L354.366,289.635L353.925,290.526L352.962,291.118L350.345,292.287L349.364,292.935L347.395,294.695L346.894,294.948L346.433,294.983L346.14,295.213L346.076,295.994L346.306,296.621L346.768,297.06L347.186,297.58L347.29,298.401L346.956,299.173L346.498,299.526L346.202,299.944L346.515,301.408L346.725,304.192L347.29,306.416L347.313,307.566L347.269,309.781L347.896,313.99L347.835,317.57L348.379,320.959L348.253,324.054L348.422,325.229L346.707,324.934L345.931,326.152L345.762,327.993L345.782,329.6L345.431,330.398L344.633,330.819L343.692,331.063L342.916,331.426L342.311,332.009L341.932,332.636L341.722,333.371L341.492,336.825L341.789,339.754L342.75,342.348L344.611,344L345.701,344.144L346.873,343.935L349.05,343.143L349.447,343.661L350.388,347.556L350.326,348.834L349.529,351.01L348.985,353.773L347.542,357.327L347.356,359.656L347.604,362.312L347.564,364.908L346.433,366.934L345.678,367.373L343.169,368.023L342.311,368.088L341.431,368.341L342.123,369.263L343.796,370.555L344.507,371.815L344.362,372.819L343.104,374.889L342.708,376.143L342.896,376.714L343.46,377.044L344.193,377.592L345.91,380.774L346.306,381.295L347.313,381.524L348.357,382.087L349.216,382.908L349.717,383.865L349.782,384.834L349.26,387.825L349.595,389.059L350.366,389.769L351.203,390.378L351.729,391.316L352.292,391.382L353.946,391.316L354.491,391.426L355.245,392.174L355.202,392.724L354.784,393.286L354.405,394.034L354.3,395.609L354.679,397.069L355.389,398.477L356.33,399.898L357.567,401.174L360.494,402.616L361.984,403.562L363.929,405.884L364.683,406.446L365.896,406.785L370.414,406.806L371.965,411.54L372.885,412.85L373.367,413.188L373.806,413.377L374.248,413.627L374.705,414.148L375.481,415.347L376.108,416.073L376.927,416.491L381.842,417.063L382.533,417.979L382.385,420.092L382.785,419.989L383.266,419.969L387.49,418.107L396.888,415.258L408.128,413.377L407.71,412.122L408.926,411.475L416.539,409.67L417.777,409.614L416.666,405.257Z"/>
        </clipPath>
        <g clip-path="url(#_clip1)">
            <rect x="195.722" y="116.716" width="496.025" height="306.567" style="fill:rgb(10,107,79);fill-rule:nonzero;"/>
            <rect x="195.722" y="178.03" width="496.025" height="61.313" style="fill:rgb(253,207,5);fill-rule:nonzero;"/>
            <rect x="195.722" y="300.656" width="496.025" height="61.314" style="fill:rgb(253,207,5);fill-rule:nonzero;"/>
            <rect x="195.722" y="116.716" width="183.94" height="183.94" style="fill:rgb(212,31,54);fill-rule:nonzero;"/>
            <path d="M343.089,190.687L300.769,190.687L287.692,150.439L274.614,190.687L232.295,190.687L266.532,215.562L253.455,255.81L287.691,230.936L321.928,255.81L308.851,215.562L343.089,190.687Z" style="fill:white;fill-rule:nonzero;"/>
        </g>
    </g>
    <g transform="matrix(4.16667,0,0,4.16667,-465.508,-486.317)">
        <path d="M416.666,405.257L415.515,400.8L413.986,398.348L413.464,397.974L412.188,397.325L411.814,397.014L411.688,396.486L411.832,395.212L411.749,394.629L411.372,394.122L410.389,393.307L410.242,392.889L410.158,392.218L409.74,392.073L409.155,392.111L408.589,392.053L408.128,391.776L407.628,391.382L407.165,390.922L406.808,390.416L406.621,389.81L406.665,389.268L406.768,388.785L406.747,388.325L406.098,387.133L405.322,386.506L404.948,385.835L405.449,384.516L406.79,382.72L407.021,381.796L406.686,380.371L406.225,379.158L405.972,378.133L405.932,377.108L406.37,374.615L406.268,373.8L405.723,373.148L404.76,372.445L404.089,371.456L402.939,367.231L407.418,367.272L408.484,366.934L408.443,358.229L408.401,349.611L408.381,340.755L408.316,328.74L408.275,316.964L408.232,307.566L408.381,298.087L408.484,291.26L407.857,286.157L407.545,285.607L407.209,285.486L407.021,285.254L407.313,283.793L407.313,282.766L407.418,282.263L409.364,279.039L409.573,277.994L409.322,277.407L407.792,275.482L407.501,274.812L407.418,274.099L407.292,264.348L407.209,258.823L407.121,252.31L407.039,244.862L406.703,243.233L406.245,241.791L405.029,239.656L401.35,235.805L396.596,230.843L395.171,228.643L394.314,226.256L393.917,220.212L393.229,218.518L392.225,219.016L391.344,218.12L390.737,216.67L390.549,215.46L390.802,214.667L391.848,213.051L392.225,212.302L392.287,211.695L392.266,210.498L392.41,209.892L392.496,209.165L392.036,206.38L391.971,201.728L391.848,195.204L391.782,190.349L391.011,188.314L384.772,184.155L376.277,178.499L367.822,172.874L362.171,169.125L357.692,166.132L357.21,165.232L357.17,163.854L357.985,157.68L358.865,154.349L358.905,152.005L358.426,146.61L359.284,144.598L362.507,141.541L363.278,140.436L363.449,139.81L363.552,138.447L363.658,137.797L364.599,136.038L364.494,135.389L364.011,134.176L363.867,133.529L364.031,132.332L365.562,128.632L357.859,128.776L352.148,128.885L348.44,129.612L341.034,132.208L341.745,129.656L340.782,129.425L340.991,129.171L341.074,128.942L341.117,128.696L341.2,128.423L341.179,128.235L341.096,128.083L340.969,128.005L329.167,125.595L315.649,122.834L308.387,121.348L302.275,120.092L302.716,121.095L303.7,121.996L304.911,122.667L306,122.942L307.089,122.834L309.098,122.308L310.208,122.292L312.195,123.043L313.075,124.442L313.262,126.31L313.097,128.423L312.971,129.171L312.552,129.592L312.029,129.93L311.546,130.427L311.253,130.975L309.978,137.005L310.017,137.588L310.331,138.757L310.226,139.406L309.703,139.89L308.491,140.704L307.656,141.771L307.216,142.817L306.902,145.334L306.335,147.7L306.292,148.932L306.902,150.187L307.424,150.605L308.073,150.915L308.762,151.111L310.144,151.276L310.563,151.565L310.94,151.925L311.462,152.279L313.324,152.907L313.869,153.224L314.329,153.786L315.021,155.128L315.523,155.711L318.643,157.68L319.583,158.684L322.615,164.293L322.785,164.524L323.226,164.46L323.474,164.106L323.644,163.723L323.809,163.536L325.377,164.164L325.944,164.25L326.615,164.063L327.181,163.79L327.704,163.623L328.31,163.766L328.896,164.352L328.937,165.022L328.727,165.65L328.646,166.153L329.316,167.241L330.318,168.166L330.946,169.105L330.423,170.322L331.259,170.322L333.855,169.882L334.421,170.149L335.633,171.159L334.169,172.248L333.898,173.143L333.729,174.13L333.29,174.943L333.395,176.956L333.081,181.182L333.668,182.725L334.421,183.21L335.069,183.375L335.549,183.778L335.719,184.99L335.467,186.159L334.796,186.333L333.898,186.18L332.849,186.368L333.206,186.96L333.167,187.356L332.976,187.711L332.849,188.273L332.958,188.675L333.668,190.073L334.065,191.265L334.021,191.749L333.603,192.123L332.849,192.945L332.37,193.839L332.243,194.676L332.518,197.084L332.496,197.754L331.242,202.398L331.323,203.512L331.638,204.158L332.056,204.621L332.452,205.227L332.727,206.107L332.849,207.196L332.683,208.24L332.078,208.969L331.01,209.1L330.025,208.55L328.436,206.899L327.599,208.594L327.639,210.334L328.579,211.587L330.423,211.775L332.831,211.168L334.003,211.398L334.504,212.633L334.107,213.447L333.145,213.722L332.056,213.555L331.242,213.014L330.174,213.701L328.75,213.786L325.756,213.447L325.609,213.83L325.339,215.525L325.36,215.898L325.504,216.066L325.944,216.44L326.532,216.866L327.137,217.131L328.666,216.845L329.504,216.881L330.025,217.529L329.795,218.157L329.042,218.662L328.101,219.036L325.63,219.542L325.63,220.377L326.049,221.344L325.57,222.009L325.839,222.809L326.928,222.932L328.039,222.722L330.736,221.763L331.198,221.381L331.428,220.883L331.617,219.664L331.908,219.21L332.81,218.807L334.125,218.575L336.512,218.43L337.645,218.618L340.782,219.772L341.161,220.293L341.265,220.883L341.138,221.489L340.742,222.161L340.721,222.217L340.742,222.282L340.782,222.347L342.542,222.953L343.609,223.876L343.984,225.275L343.439,228.312L343.335,230.048L343.087,230.799L342.498,231.426L341.827,231.809L341.349,232.395L341.283,233.56L342.018,235.696L342.037,236.641L341.326,237.873L339.988,239.063L339.609,239.632L339.609,240.57L339.296,242.496L338.29,244.343L337.685,246.159L338.482,248.02L338.503,248.02L341.349,252.86L342.102,255.788L340.782,257.648L340.49,258.405L340.386,259.328L340.198,260.123L339.527,260.432L338.774,260.309L338.167,260.123L337.624,260.035L336.996,260.244L337.31,260.497L336.909,261.478L336.282,262.169L335.654,260.827L334.965,260.562L334.212,260.706L333.812,261.268L334.316,264.226L336.052,267.945L338.416,271.235L340.782,272.845L341.789,274.02L343.23,275.338L344.78,276.442L348.649,278.268L349.699,280.467L350.453,282.725L352.732,284.585L352.857,285.209L352.836,285.904L352.984,286.761L352.941,287.367L352.962,287.642L353.215,287.851L353.925,287.953L354.135,288.162L354.366,289.635L353.925,290.526L352.962,291.118L350.345,292.287L349.364,292.935L347.395,294.695L346.894,294.948L346.433,294.983L346.14,295.213L346.076,295.994L346.306,296.621L346.768,297.06L347.186,297.58L347.29,298.401L346.956,299.173L346.498,299.526L346.202,299.944L346.515,301.408L346.725,304.192L347.29,306.416L347.313,307.566L347.269,309.781L347.896,313.99L347.835,317.57L348.379,320.959L348.253,324.054L348.422,325.229L346.707,324.934L345.931,326.152L345.762,327.993L345.782,329.6L345.431,330.398L344.633,330.819L343.692,331.063L342.916,331.426L342.311,332.009L341.932,332.636L341.722,333.371L341.492,336.825L341.789,339.754L342.75,342.348L344.611,344L345.701,344.144L346.873,343.935L349.05,343.143L349.447,343.661L350.388,347.556L350.326,348.834L349.529,351.01L348.985,353.773L347.542,357.327L347.356,359.656L347.604,362.312L347.564,364.908L346.433,366.934L345.678,367.373L343.169,368.023L342.311,368.088L341.431,368.341L342.123,369.263L343.796,370.555L344.507,371.815L344.362,372.819L343.104,374.889L342.708,376.143L342.896,376.714L343.46,377.044L344.193,377.592L345.91,380.774L346.306,381.295L347.313,381.524L348.357,382.087L349.216,382.908L349.717,383.865L349.782,384.834L349.26,387.825L349.595,389.059L350.366,389.769L351.203,390.378L351.729,391.316L352.292,391.382L353.946,391.316L354.491,391.426L355.245,392.174L355.202,392.724L354.784,393.286L354.405,394.034L354.3,395.609L354.679,397.069L355.389,398.477L356.33,399.898L357.567,401.174L360.494,402.616L361.984,403.562L363.929,405.884L364.683,406.446L365.896,406.785L370.414,406.806L371.965,411.54L372.885,412.85L373.367,413.188L373.806,413.377L374.248,413.627L374.705,414.148L375.481,415.347L376.108,416.073L376.927,416.491L381.842,417.063L382.533,417.979L382.385,420.092L382.785,419.989L383.266,419.969L387.49,418.107L396.888,415.258L408.128,413.377L407.71,412.122L408.926,411.475L416.539,409.67L417.777,409.614L416.666,405.257Z" style="fill:none;stroke:rgb(153,153,153);stroke-width:0.25px;"/>
    </g>
</svg>
