<?xml version="1.0" encoding="UTF-8" standalone="no"?>
<!DOCTYPE svg PUBLIC "-//W3C//DTD SVG 1.1//EN" "http://www.w3.org/Graphics/SVG/1.1/DTD/svg11.dtd">
<svg width="100%" height="100%" viewBox="0 0 1914 1276" version="1.1" xmlns="http://www.w3.org/2000/svg" xmlns:xlink="http://www.w3.org/1999/xlink" xml:space="preserve" xmlns:serif="http://www.serif.com/" style="fill-rule:evenodd;clip-rule:evenodd;stroke-linecap:round;stroke-linejoin:round;stroke-miterlimit:2;">
    <g transform="matrix(4.16667,0,0,4.16667,-543.05,-487.038)">
        <clipPath id="_clip1">
            <path d="M407.271,334.739L407.175,335.855L407.678,336.888L408.069,336.306L408.244,334.563L408.806,333.983L407.852,333.973L407.271,334.739ZM413.57,339.909L413.738,339.344L413.854,339.115L412.468,339.453L411.745,339.865L411.603,340.601L412.057,341.928L413.55,341.314L414.156,340.857L414.582,340.16L413.46,340.16L413.57,339.909ZM435.839,347.955L434.066,349.148L433.151,349.548L433.151,349.864L434.008,349.754L434.607,349.837L435.001,350.219L435.315,351.004L435.678,350.612L436.402,351.328L436.948,349.304L437.098,348.193L436.575,347.703L435.839,347.955ZM385.194,343.9L385.42,344.568L385.905,345.216L386.955,344.405L388.059,342.952L388.451,341.461L387.33,340.51L387.33,341.593L386.987,341.593L386.466,341.386L386.131,341.863L386.027,342.663L386.253,343.39L385.441,343.438L385.194,343.9ZM237.352,413.365L236.487,411.61L236.282,410.842L236.023,410.953L235.425,411.127L235.179,411.223L235.16,411.056L235.179,410.513L234.78,410.513L235.005,412.461L234.927,413.279L234.464,413.738L234.367,412.563L234.109,411.211L234.109,410.048L234.78,409.431L233.793,408.813L232.278,407.089L231.175,406.188L231.117,406.497L230.84,407.263L230.498,406.583L230.557,405.988L230.911,405.657L232.361,406.027L232.838,406.49L233.238,407.07L233.709,407.603L234.289,407.938L235.469,408.406L235.915,408.681L236.533,409.598L237.235,411.973L237.726,413.034L237.352,413.365ZM504.563,240.977L503.33,239.817L502.859,239.269L502.466,238.347L502.26,237.29L502.188,236.199L502.278,235.175L502.768,232.828L502.768,231.808L500.37,226.077L497.359,218.868L497.026,216.799L497.483,215.504L498.442,214.77L499.514,214.164L500.3,213.228L500.442,212.035L499.957,211.139L498.492,209.655L498.196,208.656L497.895,206.033L497.354,205.317L496.889,205.388L496.527,205.826L496.102,206.213L495.379,206.161L494.871,205.671L492.646,201.055L491.84,196.477L490.758,193.15L490.551,192.687L490.195,192.234L489.913,192.172L488.396,191.449L488.307,191.313L488.211,191.217L488.115,191.037L487.997,190.85L487.791,190.759L487.661,190.843L487.417,191.256L487.283,191.351L487.082,191.462L486.476,191.938L486.141,192.055L485.437,191.862L484.947,191.365L484.162,190.108L482.479,188.237L481.938,187.322L480.402,179.354L479.785,178.244L478.661,177.509L476.175,176.795L475.071,176.092L474.491,174.885L473.968,168.405L473.273,166.311L472.878,165.751L472.397,165.207L471.97,164.648L471.835,164.009L472.001,163.417L472.523,162.126L472.603,161.624L472.397,161.044L471.737,159.908L471.705,159.342L471.981,158.884L472.465,158.671L473.008,158.529L473.492,158.276L474.504,156.737L475.005,154.621L475.143,150.379L474.781,149.271L474,148.774L473.008,148.471L472.021,147.948L470.299,146.125L469.339,145.739L467.895,146.15L467.354,146.666L467.115,147.181L466.871,147.394L466.251,147.052L465.465,144.925L464.286,143.417L464.252,143.159L463.692,143.205L462.641,143.5L461.597,143.565L460.674,143.797L460.23,143.829L459.552,143.57L459.906,143.165L460.978,142.488L460.292,141.688L459.475,141.378L459.359,141.083L461.904,139.78L462.466,139.07L462.337,138.349L461.151,137.737L460.126,137.737L458.03,138.483L457.193,138.646L455.975,138.206L456.064,137.253L456.735,136.04L457.297,134.687L457.168,133.836L456.54,133.229L455.763,132.713L455.136,132.133L454.729,131.296L454.742,130.754L454.967,130.257L455.175,129.522L455.317,128.291L455.305,127.672L455.148,127.06L454.709,126.466L454.11,125.924L453.64,125.351L453.582,124.628L453.659,123.005L452.989,121.779L451.804,120.838L450.275,120.108L445.967,124.397L441.61,128.743L435.685,134.655L430.609,139.715L426.716,143.602L424.492,144.899L422.189,145.183L413.681,144.758L408.852,144.513L407.204,144.204L406.078,143.623L399.4,138.181L398.335,137.743L397.393,138.079L394.184,140.458L390.031,142.553L385.577,143.893L377.244,144.564L367.518,145.35L365.188,145.892L355.428,151.798L354.809,152.507L354.752,153.189L354.97,155.079L354.951,155.897L354.731,156.981L354.37,157.433L353.739,157.458L350.406,156.787L349.503,156.337L348.704,155.499L347.672,153.875L347.079,153.551L342.495,153.269L341.76,152.894L341.404,152.003L341.237,149.581L341.037,148.575L340.289,147.31L336.512,143.107L335.268,142.062L333.881,141.431L333.714,141.393L333.597,141.702L329.382,146.421L328.884,146.86L327.924,147.271L322.425,148.084L321.49,148.542L320.863,149.309L320.226,149.856L319.271,149.657L312.501,145.995L308.124,143.635L306.035,142.971L303.862,142.667L301.374,142.667L299.987,143.049L296.597,145.679L296.112,145.865L295.126,146.067L294.623,146.265L292.992,147.556L292.289,147.884L291.749,147.955L290.697,147.936L290.136,148.122L289.556,148.637L289.278,149.218L289.104,149.825L288.885,150.443L285.39,155.525L284.204,157.793L283.979,158.618L285.146,158.193L286.15,157.343L286.997,157.053L287.687,158.309L287.705,158.774L287.351,160.27L287.421,160.87L287.963,161.971L288.06,162.584L287.725,163.712L287.047,164.686L285.513,166.356L284.469,168.148L284.372,168.405L284.32,168.96L284.146,169.23L283.907,169.36L283.251,169.503L283.063,169.625L282.109,171.487L279.137,180.417L278.911,181.539L278.989,182.552L279.626,183.338L282.096,185.047L283.011,185.885L284.23,188.005L284.811,190.095L284.733,192.198L283.424,195.742L283.051,196.271L282.843,196.375L282.212,196.49L281.987,196.638L281.858,196.935L281.839,197.458L281.773,197.734L279.994,202.474L279.846,203.364L279.717,203.776L278.686,205.383L278.46,205.923L278.409,206.896L278.596,208.843L278.557,209.792L278.138,210.636L277.479,211.712L276.996,212.809L277.146,213.712L277.905,213.944L281.62,213.976L282.141,214.279L282.27,214.917L282.251,215.717L282.399,216.49L282.946,217.354L283.805,218.392L284.792,219.275L285.693,219.675L287.203,218.939L287.95,217.246L288.814,215.8L290.781,215.808L291.677,216.374L294.668,219.714L294.791,219.933L294.92,220.319L294.842,220.617L294.546,220.771L294.379,220.99L294.636,221.467L295.404,221.867L297.743,222.26L298.446,222.293L299.33,222.158L301.896,221.196L301.973,223.467L302.161,224.574L302.553,225.478L303.656,226.329L306.667,228.019L306.809,228.236L308.221,227.097L308.685,226.315L308.846,225.227L309.232,224.213L309.78,223.273L312.038,220.785L313.057,220.158L315.861,219.146L316.486,218.753L317.027,218.128L317.26,217.509L317.498,216.104L317.808,215.562L317.808,218.128L317.498,219.379L316.563,219.921L315.628,220.158L314.533,220.785L312.74,222.106L312.431,222.421L311.883,222.886L311.573,223.352L311.496,223.82L311.573,226.239L311.651,226.704L312.353,227.49L313.127,228.734L313.442,229.977L312.586,230.842L313.908,234.111L313.991,235.902L312.973,237.386L313.908,239.727L314.068,240.501L314.068,241.751L313.991,242.06L313.83,242.3L313.752,242.531L313.442,244.485L312.74,245.807L311.573,246.509L310.013,246.038L309.543,247.127L309.232,249.862L308.924,251.028L308.221,252.35L307.44,253.215L305.332,254.697L302.295,257.572L299.098,259.295L298.473,259.448L297.77,259.372L297.151,259.133L296.603,259.055L295.978,259.448L295.591,259.21L295.196,259.055L294.5,260.693L293.018,261.473L291.148,261.789L289.665,262.562L288.73,263.893L287.093,267.013L278.208,277.223L277.661,278.079L277.583,278.86L277.583,279.711L277.35,280.651L271.504,286.81L271.657,287.124L271.657,287.358L271.342,287.514L270.8,287.591L271.264,287.898L271.504,287.977L271.504,288.292L270.8,288.524L270.098,288.524L269.472,288.211L269.008,287.666L268.537,288.056L268.305,288.449L268.15,288.918L267.757,289.071L267.602,288.524L267.679,287.977L267.834,287.436L267.912,286.81L266.977,287.666L266.358,288.056L265.888,288.056L265.578,287.514L265.732,286.967L266.12,286.493L266.358,286.031L266.436,284.862L266.196,284.161L265.732,283.457L265.263,282.445L265.578,281.435L265.263,280.346L265.185,279.403L266.358,278.86L266.358,278.467L265.578,278.079L264.784,277.287L263.785,278.141L263.115,278.603L262.368,278.906L261.355,279.164L260.652,279.248L259.446,279.112L258.828,279.164L257.95,279.854L257.286,280.911L256.648,281.6L255.732,281.181L255.152,280.716L254.669,280.626L254.218,280.771L253.76,281.003L252.148,282.645L252,282.988L251.903,284.117L251.755,284.663L251.575,285.126L250.898,285.752L250.917,286.77L251.194,288.906L250.839,289.886L249.641,291.136L249.401,291.974L249.228,292.168L248.273,293.948L247.687,294.618L247.19,294.916L241.522,296.185L239.293,297.184L237.384,298.647L236.7,299.041L235.688,301.129L235.617,301.665L235.915,304.392L235.256,308.833L235.217,309.918L236.21,314.18L236.34,316.229L235.404,318.233L231.607,322.604L230.988,323.592L230.608,324.721L228.925,333.378L228.745,333.777L228.215,334.113L227.835,333.973L227.461,333.644L226.83,333.405L226.547,333.998L224.206,337.221L223.742,338.65L223.665,339.556L224.302,341.854L224.348,342.855L224.064,343.849L223.277,345.783L222.995,347.396L223.284,346.868L223.961,346.286L225.308,346.118L226.469,346.548L227.268,347.436L227.57,348.62L227.848,349.098L228.494,349.163L229.112,349.148L229.389,349.341L229.408,349.974L229.486,350.438L229.692,350.763L230.111,350.984L230.814,351.068L231.297,350.857L231.743,350.516L232.245,350.246L233.612,349.888L234.277,349.846L234.239,350.283L233.554,352.507L233.052,355.881L232.432,357.943L231.537,359.761L230.472,361.405L229.666,362.165L227.926,362.965L226.056,364.557L225.025,364.888L223.98,365.049L222.84,365.396L222.104,365.995L220.891,367.563L220.455,367.734L220.673,368.2L220.918,369.011L221.104,372.242L220.981,372.971L220.563,373.255L220.002,373.302L219.493,373.436L219.287,374.009L219.39,374.325L219.783,374.889L219.912,375.201L219.835,375.615L219.596,375.886L219.292,376.099L219.113,376.384L218.455,380.521L218.416,381.632L218.88,383.68L218.996,384.789L218.867,387.951L218.712,388.71L218.112,389.417L216.546,389.949L215.965,390.871L215.889,391.353L215.927,391.876L216.133,392.862L216.186,393.647L215.985,394.15L215.721,394.613L215.56,395.241L215.702,396.16L216.488,398.193L216.713,399.207L216.656,400.158L215.999,403.416L216.011,404.684L216.443,405.523L216.985,406.335L217.307,407.471L217.249,407.91L216.747,409.244L216.778,409.797L217.396,410.856L217.603,411.449L217.623,412.448L217.12,415.543L219.248,415.658L220.356,415.574L221.344,415.313L222.432,414.699L223.252,414.11L224.134,413.652L225.418,413.428L226.063,413.57L227.185,414.249L227.558,414.383L227.99,414.125L228.306,413.078L228.791,412.52L229.279,412.216L229.737,412.075L230.208,412.15L230.789,412.436L232.29,414.588L232.51,415.696L232.646,417.861L233.173,418.976L234.07,419.825L235.114,420.108L236.217,419.991L237.378,419.565L240.988,417.581L241.536,417.472L242.019,416.324L242.709,415.616L244.541,414.643L246.707,413.803L247.274,413.261L247.551,412.467L247.867,410.425L248.241,409.709L248.673,409.462L249.093,409.393L249.519,409.355L249.918,409.238L250.717,408.754L253.09,406.532L253.779,405.652L254.341,404.7L254.437,404.348L254.566,403.59L254.714,403.28L255.095,402.971L255.978,402.576L256.312,402.307L256.578,401.507L256.913,399.331L257.363,398.572L258.183,398.29L259.047,398.418L259.962,398.69L260.846,398.808L261.683,398.6L262.374,398.29L263.108,398.193L264.43,398.61L264.463,398.638L264.547,398.556L264.973,398.213L265.63,398.271L266.022,398.537L266.307,398.826L266.604,398.962L267.248,398.923L268.234,398.69L270.891,398.445L272.051,398.568L273.321,398.973L273.998,398.418L275.906,396.435L276.674,396.026L278.673,395.402L280.678,394.363L282.548,394.833L283.386,395.247L333.94,395.247L334.049,395.063L334.197,394.539L334.113,394.106L333.372,393.737L333.236,393.274L333.029,390.927L333.178,387.971L332.734,387.058L331.689,386.865L330.483,386.896L329.568,386.676L329.362,385.899L329.484,384.569L329.857,383.315L330.451,382.76L330.47,382.34L332.476,380.212L333.714,377.734L334.107,377.33L334.578,377.194L334.745,376.859L334.68,376.44L334.068,375.439L334.01,374.951L334.455,372.824L334.642,372.281L336.286,370.014L336.686,369.271L336.827,368.491L337.312,367.318L338.459,366.535L340.812,365.434L341.514,364.727L343.372,362.392L343.746,361.629L344.229,360.289L345.312,359.054L346.421,358.599L347.001,359.65L347.4,359.65L347.317,358.884L346.982,357.994L346.512,357.169L346.092,356.576L345.938,356.227L345.887,355.822L345.751,355.479L345.352,355.345L344.912,355.357L344.584,355.345L344.332,355.144L344.068,354.616L344.364,353.275L344.384,352.448L343.92,352.091L343.378,352.141L341.541,352.779L342.012,350.649L342.257,349.864L341.952,349.808L341.166,349.54L342.237,349.039L345.145,346.987L346.073,347.357L348.162,347.473L349.129,347.703L348.704,346.468L346.794,346.021L346.273,344.828L347.079,345.048L347.4,345.216L349.49,344.389L350.953,344.866L352.431,345.794L354.435,346.298L355.408,346.078L356.021,345.5L356.362,344.688L356.442,343.752L356.305,343.308L355.802,342.338L355.686,341.754L355.782,341.52L356.442,340.51L356.396,340.846L356.383,341.103L356.305,341.333L356.041,341.593L356.828,342.648L358.212,343.604L359.689,344.003L360.78,343.384L360.876,342.367L360.23,341.461L358.568,340.16L358.986,339.763L360.631,340.495L362.668,341.059L364.151,341.966L364.131,343.752L365.255,343.796L365.595,343.752L365.035,342.663L365.37,339.624L364.86,337.968L365.949,337.646L366.749,338.381L367.799,338.125L368.762,337.26L369.207,336.203L369.818,336.756L369.767,337.468L369.342,338.176L368.872,338.716L367.729,339.574L367.844,339.909L368.684,340.694L369.45,340.883L370.031,340.293L370.481,339.501L371.025,338.912L371.152,338.473L371.36,338.072L371.772,337.962L372.017,338.224L372.499,339.763L372.953,339.49L373.254,338.577L373.59,338.357L374.111,338.523L374.486,339.009L375.027,340.152L375.712,339.285L374.325,337.086L374.679,336.19L375.15,336.515L376.13,336.917L376.658,336.783L375.776,335.442L376.808,335.12L377.199,335.08L377.199,334.72L376.757,334.563L375.783,333.973L376.008,333.275L375.344,332.481L375.59,332.013L376.168,331.857L376.658,332.077L377.021,332.134L377.199,331.495L378.142,331.334L378.723,329.832L379.148,328.071L379.709,327.14L380.631,327.248L380.851,327.887L380.65,328.595L379.824,329.416L379.844,330.298L380.308,330.774L381.191,330.015L381.584,330.76L380.348,332.82L380.547,333.418L382.082,333.638L382.551,333.303L382.978,332.565L383.391,331.482L383.918,331.619L384.253,332.128L384.498,332.779L384.796,333.321L384.086,333.702L383.184,334.848L382.811,335.08L381.843,335.043L381.578,335.08L381.037,335.351L380.609,335.47L380.109,335.442L380.516,336.15L380.553,337.272L380.819,337.627L381.655,337.77L382.339,337.48L382.842,337.08L383.198,336.875L383.648,336.814L384.326,336.641L384.938,336.364L385.202,335.995L385.582,335.815L386.406,336.125L387.755,336.875L387.775,335.893L387.863,335.153L388.09,334.553L388.465,333.973L388.846,333.973L389.109,334.58L389.622,334.59L390.313,334.475L391.041,334.727L390.836,334.308L390.721,333.874L390.631,332.928L391.041,332.928L391.309,333.585L392.028,332.432L392.835,332.174L392.694,332.385L392.59,332.54L392.449,332.928L392.992,332.9L393.17,332.928L392.733,333.442L392.469,333.973L392.558,334.423L393.178,334.714L392.617,334.915L392.019,335.281L391.701,335.771L391.946,336.364L392.558,336.81L392.822,336.81L392.862,336.944L392.841,337.803L393.274,338.42L394.292,338.37L397.774,337.145L398.933,336.515L402.609,333.713L403.021,333.321L403.402,332.657L404.086,330.76L402.307,330.697L400.792,330.397L402.255,329.485L402.68,329.292L402.68,328.93L402.281,328.93L402.281,328.607L402.81,328.75L403.749,329.2L405.079,329.46L405.053,329.832L404.473,330.582L404.718,331.169L405.2,331.032L405.691,330.618L405.893,330.397L405.969,330.13L405.893,329.755L405.873,329.426L406.093,329.292L406.491,329.228L406.793,329.072L407.374,328.604L406.793,327.887L406.473,326.803L406.658,325.804L407.536,325.363L408.509,325.138L410.152,324.151L411.145,323.928L411.325,323.787L412.486,323.088L412.789,322.817L412.849,322.122L412.641,321.902L412.223,321.875L410.745,321.567L409.624,321.489L408.709,321.077L408.404,319.915L409.655,320.2L410.984,319.955L411.751,319.266L411.299,318.146L413.002,317.356L413.473,317.036L413.892,319.31L415.388,319.414L416.808,318.428L417.148,317.43L417.896,316.286L418.902,316.603L419.108,316.938L418.225,318.146L417.027,320.227L417.291,320.55L417.702,320.795L417.89,321.025L416.987,321.827L415.736,321.961L414.931,322.349L415.33,323.932L415.91,323.527L417.896,322.823L418.082,323.297L418.043,323.774L417.838,324.219L417.535,324.625L418.475,324.404L419.418,324.492L420.333,324.845L421.157,325.376L421.083,324.918L420.979,324.625L420.798,324.417L420.416,324.271L421.926,323.707L422.648,323.632L423.358,323.939L422.59,324.271L423.169,325.056L424.111,325.376L424.712,325.682L424.413,326.428L425.415,326.656L425.393,327.544L424.724,328.234L423.71,327.86L424.045,327.667L424.413,327.537L423.68,327.209L422.823,326.955L422.034,326.905L421.515,327.14L421.087,326.9L420.668,326.79L419.702,326.777L420.004,327.255L420.41,327.529L421.519,327.852L420.811,328.245L421.486,328.699L421.764,328.847L422.254,328.93L421.113,329.64L421.816,330.483L423.184,331.457L424.06,332.555L424.427,332.555L424.272,331.063L424.355,330.329L424.607,330.009L425.079,330.23L425.213,330.794L425.156,332.161L425.602,331.766L426.182,330.98L426.633,330.748L426.555,331.334L426.367,331.883L425.865,332.913L426.349,332.836L426.67,332.674L426.84,332.348L426.947,331.83L427.341,331.83L427.443,332.657L427.967,332.986L428.528,332.772L428.805,332L429.25,331.522L430.241,331.096L431.236,330.49L431.672,329.477L431.301,326.706L431.358,326.088L431.861,325.571L432.538,325.435L433.247,325.615L433.885,326.088L434.845,325.295L435.305,325.081L436.051,324.973L436.69,325.048L437.476,325.295L438.187,325.648L438.561,326.093L437.366,326.3L436.405,326.75L435.697,327.493L435.334,328.607L435.943,328.342L436.581,328.3L437.231,328.402L437.875,328.604L437.875,328.922L437.385,329.343L436.677,330.168L436.135,331.11L436.059,331.83L436.772,332.262L438.978,332.394L439.683,332.54L440.242,332.023L440.262,331.473L440.152,330.825L440.377,330L441.138,330.844L441.325,331.916L441.383,333.107L441.849,334.352L442.132,333.675L442.338,332.258L442.558,331.473L444.163,332.52L445.852,333.309L445.948,332.32L446.45,331.967L447.031,331.688L447.294,330.917L449.687,328.957L450.021,328.604L450.448,328.538L450.533,328.465L450.584,328.538L450.926,328.93L451.126,329.215L451.263,329.519L453.654,326.353L455.543,324.895L456.013,324.197L456.154,323.119L455.555,321.201L455.497,320.239L455.721,319.75L456.645,318.68L457.019,318.129L457.186,317.687L458.515,312.31L459.411,310.692L460.984,309.623L463.131,308.846L464.858,307.985L466.121,306.622L466.961,304.366L467.307,302.496L467.728,302.031L471.146,300.338L472.063,299.517L472.809,297.401L474.335,295.423L475.701,292.054L476.018,290.975L476.064,288.61L476.322,287.499L476.766,286.416L477.287,285.474L478.38,284.418L479.255,284.623L480.12,285.115L481.221,284.902L481.801,283.94L481.879,282.749L482.254,281.788L484.82,281.206L486.63,279.48L487.72,278.816L492.079,278.371L493.782,277.608L494.438,275.477L493.891,273.381L492.975,271.24L492.77,269.371L495.922,266.812L497.046,262.562L498.254,260.758L498.804,260.485L499.906,260.268L500.429,260.023L500.97,259.526L501.37,258.927L503.053,255.387L503.374,254.246L503.426,244.008L503.651,243.363L504.639,242.124L504.826,241.557L504.563,240.977ZM443.196,337.434L442.184,337.642L441.53,336.394L440.146,336.374L439.044,337.168L439.264,338.357L439.861,338.641L441.931,339.065L442.543,339.115L443.163,338.896L443.654,338.626L444.245,338.601L445.091,339.115L445.258,338.315L444.422,337.711L443.196,337.434ZM418.663,327.345L418.135,326.803L417.128,326.803L417.128,327.162L417.521,327.259L417.864,327.475L418.091,327.802L418.221,328.26L417.883,328.26L417.394,328.021L417.02,328.406L416.871,329.085L417.136,329.705L416.69,329.535L416.588,329.471L416.408,329.315L415.943,329.885L415.436,329.832L415.157,329.435L415.323,328.957L415.323,328.635L414.161,328.626L414.065,328.044L414.587,327.305L415.316,326.803L414.284,326.424L413.222,326.468L411.133,326.803L410.843,326.993L409.67,328.452L409.347,329.008L409.555,329.343L410.211,329.709L412.003,331.535L412.204,331.87L412.41,332.037L412.357,332.396L412.057,332.779L411.495,332.955L410.953,332.913L409.494,332.593L410.579,334.392L410.933,334.392L411.553,333.805L412.486,334.423L413.253,335.647L413.46,336.906L414.061,336.705L414.438,336.297L414.619,335.75L414.582,335.107L414.938,335.107L414.896,337.201L415.234,338.014L416.104,338.37L416.458,338.271L416.601,338.176L416.748,337.98L415.665,337.396L415.388,336.215L415.704,335.038L416.394,334.396L415.704,334.048L415.312,333.468L415.272,332.791L415.665,332.201L415.351,331.393L415.686,330.953L416.303,331.051L416.748,331.876L417.128,331.389L417.521,331.058L417.883,330.953L418.221,331.122L418.551,330.503L418.702,329.832L418.985,329.246L419.677,328.949L419.051,328.137L418.663,327.345ZM364.841,356.053L364.151,355.184L363.731,354.423L363.492,353.831L362.874,353.224L362.05,352.895L361.212,353.16L361.693,353.313L362.198,353.61L362.643,354.036L363.042,354.602L362.539,354.876L362.396,355.221L362.584,355.629L363.034,356.033L363.126,355.736L363.185,355.736L363.37,355.634L363.468,355.996L363.642,356.241L363.88,356.452L364.126,356.75L365.079,356.685L364.841,356.053ZM362.648,361.102L362.385,360.23L361.225,358.999L360.836,358.187L360.366,358.421L360.16,358.741L360.218,359.149L360.475,359.619L359.979,359.852L359.496,359.878L359.045,359.684L358.632,359.246L359.045,358.555L356.743,359.398L355.415,359.715L354.294,359.631L353.583,358.875L353.771,357.828L354.712,356.033L354.629,355.098L353.842,354.817L351.417,354.964L350.052,354.655L349.406,354.602L348.903,354.849L348.969,355.363L348.923,355.868L348.162,356.033L348.162,356.364L349.586,356.846L350.354,357.246L350.689,357.646L350.76,358.053L350.916,358.174L351.153,358.264L351.417,358.562L351.417,358.752L351.095,359.142L351.018,359.445L351.656,359.839L353.12,360.278L354.629,360.421L355.415,359.962L355.75,359.962L356.222,360.458L357.04,360.919L357.588,361.449L357.227,362.152L357.736,362.385L358.271,362.804L358.632,363.358L358.632,363.979L358.316,364.247L357.847,364.222L357.415,364.017L356.975,363.482L356.415,363.964L355.943,364.668L355.943,365.038L355.325,365.062L354.86,365.183L354.544,365.415L354.3,365.75L354.3,366.144L354.557,366.613L354.377,367.304L353.591,368.656L352.707,369.62L352.508,370.147L352.83,370.824L354.306,370.824L354.286,370.451L354.345,370.024L354.726,369.059L354.958,369.151L355.544,369.285L355.763,369.381L355.584,368.656L355.563,367.664L355.428,367.229L357.452,366.839L358.334,366.897L358.334,367.229L358.032,367.602L358.149,367.94L358.613,368.2L359.233,368.299L359.438,368.114L359.6,367.729L359.922,367.348L360.501,367.214L360.077,365.26L359.851,362.842L360.463,361.063L362.648,361.102ZM387.517,346.688L387.097,347.042L386.979,347.703L386.458,347.582L385.897,347.368L386.059,346.51L385.687,345.622L385.034,344.874L384.409,344.453L384.543,345.061L384.829,345.641L385.497,346.648L385.497,346.969L384.976,346.834L384.641,346.545L384.479,346.118L384.417,345.551L384.15,346.041L383.836,346.275L383.422,346.233L382.957,345.906L383.094,346.528L383.292,347.104L383.339,347.626L382.957,348.093L382.513,348.051L382.133,347.615L381.72,347.423L381.16,348.097L380.431,347.703L380.728,348.323L381.197,348.686L381.815,348.826L382.597,348.813L383.552,349.083L384.737,348.528L385.497,348.826L384.776,349.18L384.776,349.54L386.059,349.368L387.147,348.878L388.079,348.065L388.8,346.983L388.116,346.671L387.517,346.688ZM373.242,362.546L372.843,362.871L372.449,362.661L372.204,362.688L372.076,363.067L372.107,363.823L372.076,363.979L371.41,364.506L370.378,364.63L369.542,365.038L370.759,365.737L370.541,366.747L369.639,367.71L368.852,368.299L369.025,368.696L369.219,368.914L369.521,369.007L369.941,369.051L370.442,368.789L370.985,368.372L371.25,367.847L371.004,367.214L371.605,366.994L371.998,366.608L373.101,364.611L373.242,364.039L373.224,363.263L373.578,363.263L373.932,363.979L373.951,363.451L374.003,363.005L374.307,362.146L373.538,362.377L373.242,362.546ZM336.608,394.539L336.131,394.292L336.15,395.223L336.146,395.247L336.846,395.247L336.814,394.885L336.608,394.539ZM366.395,360.804L366.156,360.297L365.595,359.945L365.067,360.069L365.035,360.601L365.273,361.254L365.595,361.786L365.241,361.677L364.487,361.554L364.131,361.418L364.248,361.945L364.397,362.198L364.595,362.236L366.072,361.836L366.711,361.748L367.388,361.786L367.388,361.424L366.696,361.254L366.395,360.804Z"/>
        </clipPath>
        <g clip-path="url(#_clip1)">
            <rect x="130.332" y="116.889" width="459.335" height="306.222" style="fill:rgb(3,4,4);fill-rule:nonzero;"/>
            <rect x="130.332" y="167.926" width="459.335" height="51.037" style="fill:rgb(250,220,4);fill-rule:nonzero;"/>
            <rect x="130.332" y="218.963" width="459.335" height="51.037" style="fill:rgb(218,31,38);fill-rule:nonzero;"/>
            <rect x="130.332" y="321.037" width="459.335" height="51.037" style="fill:rgb(250,220,4);fill-rule:nonzero;"/>
            <rect x="130.332" y="372.074" width="459.335" height="51.037" style="fill:rgb(218,31,38);fill-rule:nonzero;"/>
            <path d="M360,222.28C386.354,222.28 407.72,243.645 407.72,270C407.72,296.354 386.354,317.72 360,317.72C333.645,317.72 312.28,296.354 312.28,270C312.28,243.645 333.645,222.28 360,222.28Z" style="fill:white;fill-rule:nonzero;"/>
            <path d="M351.589,233.453L348.494,227.752C349.688,226.558 351.697,225.634 354.901,225.634C354.901,225.852 354.575,231.878 354.575,231.878L351.589,233.453Z" style="fill:rgb(218,31,38);fill-rule:nonzero;"/>
            <path d="M348.811,227.801L351.693,233.109L354.328,231.72C354.44,229.649 354.593,226.768 354.635,225.892C352.115,225.935 350.11,226.592 348.811,227.801ZM351.485,233.796L348.179,227.706L348.313,227.571C349.748,226.137 352.026,225.379 354.901,225.379L355.156,225.379L355.156,225.634C355.156,225.852 354.863,231.274 354.83,231.892L354.822,232.037L351.485,233.796Z" style="fill:rgb(3,4,4);fill-rule:nonzero;"/>
            <path d="M354.575,231.933L355.009,225.634C355.009,225.634 361.416,225.254 364.892,229.435C364.945,229.381 361.471,234.321 361.471,234.321L354.575,231.933Z" style="fill:rgb(250,220,4);fill-rule:nonzero;"/>
            <path d="M354.843,231.755L361.373,234.018C362.539,232.359 364.151,230.062 364.572,229.453C361.559,225.994 356.388,225.873 355.248,225.882L354.843,231.755ZM361.569,234.625L354.307,232.11L354.77,225.393L354.994,225.379C355.261,225.363 361.57,225.041 365.088,229.272C365.241,229.395 365.241,229.395 363.395,232.028L361.569,234.625Z" style="fill:rgb(3,4,4);fill-rule:nonzero;"/>
            <path d="M361.579,234.267L364.729,229.381C366.846,231.606 367.714,233.181 368.04,235.57C368.095,235.625 363.045,236.819 363.045,236.765C363.045,236.71 361.634,234.321 361.579,234.267Z" style="fill:rgb(218,31,38);fill-rule:nonzero;"/>
            <path d="M361.878,234.275C362.165,234.738 362.894,235.935 363.181,236.488C363.916,236.346 366.98,235.616 367.758,235.398C367.436,233.29 366.651,231.821 364.767,229.793L361.878,234.275ZM362.982,237.013C362.981,237.013 362.981,237.013 362.981,237.012L362.792,236.962L362.791,236.821C362.619,236.492 361.466,234.545 361.379,234.424L361.233,234.278L361.365,234.129L364.689,228.97L364.913,229.205C367.083,231.486 367.942,233.073 368.281,235.451L368.359,235.529L368.262,235.7C368.097,235.984 363.071,237.012 362.982,237.013Z" style="fill:rgb(3,4,4);fill-rule:nonzero;"/>
            <path d="M353.163,314.95C353.163,314.95 359.082,308.163 370.592,309.63C368.854,306.806 363.263,307.132 363.263,307.132C363.263,307.132 361.525,293.938 362.882,293.286C364.239,292.635 369.995,293.341 369.995,293.341C370.755,293.341 372.058,291.277 371.026,289.975C369.995,288.671 366.955,283.676 368.203,282.698C369.452,281.721 376.239,283.242 376.239,283.242L357.073,258.7C357.073,258.7 355.118,249.47 359.027,245.018C363.751,241.108 363.263,236.874 363.1,236.928C362.447,232.638 355.933,229.543 351.535,233.507C348.928,236.656 350.666,239.045 350.666,239.045C350.666,239.045 343.825,240.892 343.553,242.085C343.282,243.28 351.263,241.869 351.263,241.869L350.503,247.353C350.503,247.353 334.975,261.469 346.865,273.686C346.974,273.632 347.245,273.143 347.245,273.143C347.245,273.143 351.426,278.301 355.824,279.44C359.95,283.676 359.57,283.024 359.57,283.024C359.57,283.024 360.385,289.702 359.625,291.006C358.593,290.68 348.06,290.3 346.485,290.897C345.074,291.331 339.644,291.061 341.001,299.91C342.033,297.521 342.956,295.404 342.956,295.404C342.956,295.404 342.793,298.607 344.096,299.747C343.879,296.381 345.345,294.101 345.345,294.101C345.345,294.101 345.616,297.793 346.431,298.336C347.245,298.879 347.245,292.363 351.752,292.906C356.258,293.449 359.516,293.286 359.516,293.286C359.516,293.286 361.036,306.046 360.548,307.24C357.29,306.48 349.526,307.566 349.037,309.521C353.598,309.249 355.716,309.792 355.716,309.792C355.716,309.792 352.023,313.05 353.163,314.95Z" style="fill:rgb(3,4,4);fill-rule:nonzero;"/>
            <path d="M351.501,309.188C354.349,309.188 355.709,309.526 355.779,309.545L356.246,309.664L355.885,309.983C354.974,310.787 352.876,313.045 353.247,314.492C353.804,313.937 355.199,312.677 357.444,311.514C360.05,310.162 364.32,308.711 370.035,309.308C368.097,307.134 363.328,307.384 363.277,307.386L363.041,307.4L363.01,307.165C362.597,304.026 361.357,293.735 362.771,293.056C364.181,292.38 369.788,293.058 370.026,293.087C370.213,293.085 370.619,292.73 370.896,292.158C371.033,291.876 371.431,290.896 370.827,290.133C370.122,289.242 367.444,285.104 367.665,283.247C367.704,282.917 367.832,282.665 368.046,282.498C369.15,281.634 373.773,282.47 375.606,282.846L356.835,258.811L356.823,258.753C356.742,258.371 354.887,249.346 358.836,244.849C362.754,241.603 363.037,238.159 362.935,237.252L362.893,237.266L362.848,236.966C362.545,234.976 360.884,233.166 358.617,232.355C356.148,231.473 353.629,231.962 351.706,233.697C349.279,236.632 350.856,238.873 350.872,238.896L351.09,239.195L350.732,239.292C347.442,240.18 343.951,241.489 343.802,242.142C344.108,242.551 347.887,242.207 351.219,241.618L351.564,241.557L350.743,247.479L350.674,247.541C350.597,247.612 342.897,254.71 342.644,263.02C342.53,266.774 343.945,270.232 346.852,273.304C346.904,273.223 346.966,273.119 347.022,273.019L347.206,272.688L347.443,272.982C347.485,273.033 351.624,278.089 355.888,279.193L355.957,279.212L356.006,279.263C359.041,282.377 359.568,282.775 359.657,282.823L359.58,282.967L359.791,282.896L359.905,283.091L359.842,283.152C359.981,284.333 360.583,289.868 359.845,291.135L359.742,291.311L359.548,291.249C358.504,290.919 348.061,290.573 346.576,291.136C346.374,291.199 346.133,291.242 345.854,291.294C343.928,291.646 340.41,292.29 341.133,298.961C342.008,296.94 342.722,295.302 342.722,295.302L343.211,295.417C343.209,295.443 343.108,297.675 343.819,298.979C343.841,296.005 345.073,294.051 345.13,293.963L345.543,293.32L345.599,294.082C345.704,295.503 346.052,297.614 346.513,298.073C346.617,297.909 346.763,297.47 346.883,297.105C347.445,295.411 348.492,292.247 351.782,292.652C356.213,293.188 359.471,293.033 359.503,293.031L359.741,293.02L359.77,293.256C359.926,294.568 361.283,306.116 360.784,307.337L360.702,307.538L360.49,307.489C357.415,306.771 350.714,307.732 349.467,309.242C350.214,309.204 350.892,309.188 351.501,309.188ZM353.125,315.382L352.944,315.081C351.929,313.389 354.236,310.868 355.176,309.948C354.323,309.81 352.312,309.582 349.052,309.775L348.705,309.797L348.79,309.459C349.35,307.217 357.118,306.321 360.358,306.939C360.561,305.461 359.86,298.365 359.29,293.55C358.456,293.574 355.511,293.616 351.721,293.159C348.844,292.811 347.919,295.601 347.368,297.267C347.105,298.059 346.96,298.495 346.653,298.602C346.533,298.643 346.404,298.624 346.289,298.548C345.633,298.11 345.313,296.195 345.174,294.997C344.771,295.915 344.214,297.607 344.351,299.731L344.391,300.344L343.928,299.939C343.067,299.187 342.8,297.656 342.723,296.579C342.356,297.422 341.813,298.675 341.235,300.012L340.883,300.826L340.749,299.949C339.52,291.934 343.736,291.162 345.763,290.792C346.025,290.743 346.252,290.702 346.41,290.653C347.99,290.054 357.66,290.412 359.479,290.715C359.938,289.455 359.553,285.06 359.335,283.208C358.927,282.932 358.019,282.058 355.69,279.67C351.829,278.633 348.224,274.68 347.28,273.581C347.102,273.853 347.017,273.896 346.979,273.914L346.812,273.997L346.682,273.863C343.542,270.638 342.012,266.983 342.134,263.001C342.382,254.902 349.482,247.965 350.263,247.228L350.962,242.18C349.006,242.514 344.164,243.249 343.428,242.477C343.311,242.354 343.267,242.194 343.304,242.029C343.574,240.841 348.628,239.345 350.282,238.886C349.896,238.109 349.181,235.95 351.338,233.344C353.401,231.481 356.177,230.942 358.789,231.875C361.201,232.737 362.979,234.669 363.339,236.811L363.347,236.823C363.538,237.168 363.915,241.304 359.19,245.214C355.594,249.315 357.158,257.812 357.311,258.591L376.879,283.646L376.184,283.491C373.502,282.891 369.206,282.237 368.36,282.899C368.257,282.98 368.195,283.114 368.172,283.308C367.994,284.804 370.261,288.595 371.227,289.815C371.76,290.488 371.808,291.447 371.355,292.381C371.063,292.985 370.529,293.596 369.995,293.596C368.384,293.4 364.05,293.009 362.993,293.517C362.267,293.865 362.681,300.671 363.485,306.867C364.6,306.836 369.201,306.881 370.81,309.496L371.089,309.95L370.56,309.883C364.692,309.137 360.328,310.597 357.701,311.955C354.851,313.429 353.37,315.101 353.355,315.118L353.125,315.382Z" style="fill:rgb(3,4,4);fill-rule:nonzero;"/>
            <path d="M354.994,245.329C354.994,245.329 343.695,257.783 348.569,267.313C348.829,265.984 348.715,265.149 348.878,265.204C348.607,265.041 350.28,266.35 350.152,266.096C350.188,265.407 349.643,263.93 349.643,263.93C350.152,264.057 350.662,264.185 351.172,264.312C350.875,263.76 350.577,263.208 350.28,262.656C351.002,262.741 351.724,262.825 352.446,262.911C352.446,262.911 351.682,260.872 351.936,260.872C352.191,260.872 353.72,260.999 353.72,260.999C350.507,255.232 353.538,250.444 354.994,245.329Z" style="fill:rgb(156,166,156);fill-rule:nonzero;"/>
            <path d="M354.379,246.461C351.988,249.445 345.283,258.806 348.445,266.437C348.477,266.151 348.493,265.907 348.506,265.716C348.52,265.51 348.53,265.36 348.553,265.25L348.519,265.212L348.791,264.857L349.01,264.985L348.958,265.097L349.042,265.026C349.113,265.099 349.541,265.432 349.864,265.663C349.771,265.094 349.518,264.328 349.404,264.019L349.237,263.565L350.673,263.924L349.823,262.345L352.063,262.608C351.499,261.026 351.628,260.838 351.693,260.745L351.77,260.635L351.936,260.617C352.11,260.617 352.797,260.669 353.275,260.707C350.97,256.189 352.373,252.204 353.731,248.346C353.949,247.728 354.171,247.096 354.379,246.461ZM348.679,268.087L348.342,267.43C343.444,257.853 354.691,245.284 354.805,245.158L355.239,245.399C354.94,246.451 354.57,247.5 354.213,248.516C352.788,252.563 351.441,256.386 353.943,260.875L354.176,261.293L353.699,261.253C353.361,261.226 352.565,261.162 352.157,261.137C352.222,261.479 352.456,262.208 352.685,262.821L352.832,263.213L350.737,262.967L351.671,264.7L350.036,264.291C350.192,264.776 350.411,265.543 350.409,266.038L350.479,266.179L350.301,266.336C350.07,266.496 349.426,266.021 349.02,265.682C349.018,265.705 349.017,265.728 349.015,265.75C348.991,266.12 348.954,266.678 348.82,267.362L348.679,268.087Z" style="fill:rgb(156,166,156);fill-rule:nonzero;"/>
            <path d="M358.919,234.647C358.919,234.647 359.516,238.937 357.182,240.185C356.801,240.457 355.335,240.946 355.553,241.814C355.824,243.009 356.475,242.792 357.399,242.574C359.841,242.14 362.665,236.928 358.919,234.647Z" style="fill:rgb(156,166,156);fill-rule:nonzero;"/>
            <path d="M359.224,235.17C359.303,236.413 359.266,239.359 357.302,240.41C357.241,240.457 357.097,240.533 356.928,240.62C356.296,240.948 355.688,241.305 355.8,241.753C355.881,242.108 355.994,242.325 356.146,242.419C356.368,242.558 356.74,242.469 357.211,242.356L357.34,242.326C358.648,242.093 360.074,240.342 360.405,238.576C360.561,237.743 360.59,236.26 359.224,235.17ZM356.441,243C356.238,243 356.049,242.96 355.876,242.853C355.599,242.68 355.417,242.368 355.304,241.871C355.086,241 356.092,240.478 356.693,240.167C356.836,240.093 356.958,240.031 357.033,239.978C359.214,238.809 358.672,234.724 358.666,234.683L358.592,234.15L359.052,234.429C360.585,235.363 361.244,236.869 360.907,238.67C360.534,240.655 358.948,242.558 357.443,242.825L357.33,242.853C357.008,242.929 356.711,243 356.441,243Z" style="fill:rgb(156,166,156);fill-rule:nonzero;"/>
            <path d="M353.875,237.438C354.382,237.438 354.794,237.85 354.794,238.357C354.794,238.864 354.382,239.275 353.875,239.275C353.368,239.275 352.957,238.864 352.957,238.357C352.957,237.85 353.368,237.438 353.875,237.438Z" style="fill:white;fill-rule:nonzero;"/>
            <path d="M351.101,241.923C350.503,242.412 347.354,245.669 350.449,246.864C353.652,245.995 352.784,245.398 353.489,244.692C353.508,243.226 351.896,242.846 351.101,241.923Z" style="fill:rgb(218,31,38);fill-rule:nonzero;"/>
            <path d="M351.085,242.277C350.444,242.88 349.206,244.373 349.38,245.462C349.458,245.956 349.813,246.327 350.464,246.595C352.574,246.013 352.743,245.585 352.907,245.171C352.976,244.995 353.054,244.798 353.232,244.593C353.198,243.814 352.609,243.405 351.932,242.935C351.64,242.732 351.34,242.523 351.085,242.277ZM350.435,247.132L350.356,247.102C349.485,246.766 348.987,246.241 348.876,245.542C348.628,243.995 350.47,242.109 350.939,241.725L351.131,241.568L351.293,241.756C351.538,242.039 351.871,242.271 352.224,242.516C352.943,243.016 353.758,243.583 353.745,244.695L353.743,244.799L353.67,244.872C353.51,245.031 353.451,245.183 353.381,245.359C353.129,245.998 352.775,246.497 350.515,247.11L350.435,247.132Z" style="fill:rgb(3,4,4);fill-rule:nonzero;"/>
            <path d="M357.941,272.708C357.778,273.415 357.073,276.021 358.05,278.029C360.765,276.889 362.014,277.215 362.937,277.813C360.711,276.021 359.842,275.26 357.941,272.708Z" style="fill:rgb(156,166,156);fill-rule:nonzero;"/>
            <path d="M358.066,273.299C357.843,274.309 357.537,276.154 358.181,277.699C359.717,277.083 360.792,276.947 361.594,277.046C360.262,275.931 359.419,275.078 358.066,273.299ZM357.926,278.358L357.82,278.141C356.858,276.161 357.441,273.708 357.661,272.784L357.816,272.113L358.146,272.556C360.044,275.104 360.9,275.845 363.097,277.613L362.798,278.026C361.963,277.486 360.822,277.143 358.148,278.265L357.926,278.358Z" style="fill:rgb(156,166,156);fill-rule:nonzero;"/>
            <path d="M362.61,285.033L362.773,291.114C362.773,291.114 364.892,291.494 365.868,291.114C366.846,290.734 365.813,286.879 362.61,285.033Z" style="fill:white;fill-rule:nonzero;"/>
            <path d="M363.022,290.896C363.565,290.977 365.047,291.16 365.775,290.876C365.877,290.837 365.944,290.679 365.963,290.441C366.053,289.267 365.004,286.919 362.878,285.499L363.022,290.896ZM364.623,291.538C363.705,291.538 362.786,291.376 362.729,291.365L362.524,291.328L362.344,284.584L362.738,284.812C365.308,286.293 366.577,289.104 366.472,290.48C366.426,291.084 366.132,291.285 365.961,291.352C365.602,291.492 365.112,291.538 364.623,291.538Z" style="fill:white;fill-rule:nonzero;"/>
            <path d="M377.977,285.794C377.977,285.794 374.067,276.347 364.076,273.957C354.086,271.568 355.389,260.926 356.204,260.274C356.638,259.352 356.964,257.94 359.841,259.298C362.72,260.655 375.968,267.333 377.868,267.659C379.768,267.984 378.139,286.011 377.977,285.794Z" style="fill:rgb(156,166,156);fill-rule:nonzero;"/>
            <path d="M357.881,258.992C357.702,258.992 357.544,259.017 357.408,259.068C356.942,259.241 356.738,259.704 356.54,260.151C356.504,260.23 356.47,260.309 356.435,260.383L356.409,260.437L356.363,260.474C356.097,260.712 355.543,263.275 356.288,266.217C356.978,268.944 358.899,272.457 364.136,273.709C372.489,275.707 376.682,282.663 377.858,284.957C378.223,281.807 379.094,269.891 377.968,268.055C377.892,267.931 377.839,267.913 377.825,267.911C376.325,267.653 368.366,263.75 363.099,261.167C361.604,260.434 360.394,259.84 359.732,259.528C358.975,259.171 358.355,258.992 357.881,258.992ZM377.893,286.104L377.741,285.892C377.702,285.798 373.76,276.535 364.018,274.205C358.368,272.854 356.383,269.001 355.713,266.007C355.119,263.352 355.467,260.692 355.992,260.125C356.019,260.066 356.046,260.005 356.073,259.944C356.291,259.452 356.563,258.838 357.229,258.59C357.873,258.35 358.763,258.506 359.95,259.067C360.613,259.379 361.825,259.974 363.323,260.708C368.246,263.123 376.484,267.163 377.911,267.408C378.433,267.497 378.737,268.26 378.901,269.882C379.276,273.582 378.649,285.809 378.073,286.033L377.893,286.104Z" style="fill:rgb(3,4,4);fill-rule:nonzero;"/>
            <path d="M368.475,273.902C368.312,274.011 381.831,281.884 377.76,288.671C381.614,286.119 380.365,281.667 380.365,281.667C380.365,281.667 383.515,289.865 375.858,293.884C376.673,294.59 377.217,294.426 377.217,294.426L375.913,295.729C375.913,295.729 375.315,296.707 380.474,294.209C379.063,295.35 378.954,296.163 378.954,296.163C378.954,296.163 379.334,297.25 382.7,294.317C379.985,297.25 379.388,298.771 379.388,298.716C386.718,298.063 402.681,274.229 374.339,267.17C375.859,268.745 375.642,268.528 375.642,268.528L368.475,273.902Z" style="fill:rgb(218,31,38);fill-rule:nonzero;"/>
            <path d="M382.532,294.125L382.888,294.491C381.549,295.937 380.491,297.3 379.863,298.383C383.681,297.529 389.666,290.827 390.235,283.521C390.816,276.057 385.467,270.44 375.149,267.645C375.378,267.883 375.543,268.06 375.661,268.194L375.665,268.191L375.821,268.347L375.804,268.366C375.97,268.584 375.924,268.629 375.831,268.72L375.651,268.897L375.618,268.864L368.893,273.908C368.981,273.971 369.088,274.045 369.196,274.12C374.499,277.778 380.198,283.018 378.459,287.8C381.087,285.361 380.164,281.895 380.12,281.735L380.604,281.575C380.636,281.658 383.649,289.779 376.326,293.92C376.832,294.251 377.146,294.182 377.149,294.18L378.032,293.966L376.373,295.63C376.83,295.531 377.898,295.173 380.363,293.979L380.635,294.407C379.634,295.216 379.327,295.844 379.239,296.089C379.254,296.094 379.273,296.099 379.298,296.102C379.547,296.137 380.372,296.007 382.532,294.125ZM379.396,298.974C379.375,298.974 379.353,298.971 379.329,298.965L379.134,298.918L379.133,298.482L379.23,298.474C379.613,297.752 380.183,296.917 380.898,296.017C380.12,296.501 379.527,296.692 379.123,296.587C378.817,296.505 378.728,296.29 378.713,296.248L378.692,296.19L378.701,296.13C378.709,296.067 378.778,295.671 379.247,295.069C376.131,296.487 375.873,296.198 375.726,296.036C375.603,295.899 375.622,295.717 375.695,295.597L375.732,295.549L376.647,294.635C376.388,294.558 376.063,294.397 375.692,294.076L375.409,293.831L375.74,293.658C380.441,291.19 380.978,287.154 380.72,284.476C380.5,285.922 379.794,287.63 377.9,288.884L377.54,288.54C379.097,285.945 378.862,281.41 368.907,274.54C368.229,274.072 368.217,274.063 368.218,273.903L368.22,273.768L368.326,273.695L375.261,268.495C375.086,268.313 374.762,267.975 374.155,267.347L373.537,266.708L374.4,266.922C380.862,268.532 391.579,272.833 390.744,283.562C390.472,287.055 388.892,290.864 386.409,294.015C384.16,296.868 381.501,298.76 379.455,298.966C379.437,298.971 379.417,298.974 379.396,298.974Z" style="fill:rgb(3,4,4);fill-rule:nonzero;"/>
            <path d="M369.072,271.568C370.918,272.871 371.569,273.306 371.786,273.957C370.104,273.577 368.583,273.686 368.583,273.686C368.583,273.686 364.945,270.211 364.294,269.939C363.806,269.939 360.982,268.147 360.982,268.147C359.57,267.442 358.268,262.555 363.479,263.967C368.854,266.518 369.615,266.736 369.615,266.736C371.75,267.405 373.886,268.075 376.021,268.745C377.252,270.12 378.483,271.496 379.714,272.871C379.714,272.871 373.144,269.613 372.33,269.559C374.121,271.024 375.153,273.034 375.153,273.034C373.071,272.437 371.262,271.894 369.072,271.568Z" style="fill:white;fill-rule:nonzero;"/>
            <path d="M369.128,273.416C369.627,273.416 370.41,273.447 371.286,273.598C370.957,273.21 370.327,272.766 369.178,271.955L368.925,271.776L369.109,271.315C371.101,271.612 372.742,272.075 374.614,272.613C374.188,271.928 373.341,270.716 372.168,269.756L371.551,269.251L372.347,269.304C372.994,269.348 376.681,271.105 378.649,272.064L375.878,268.968L369.538,266.979C369.513,266.972 368.703,266.729 363.37,264.197C361.603,263.722 360.457,263.961 360.098,264.901C359.69,265.972 360.433,267.588 361.096,267.919C362.428,268.763 364.015,269.668 364.295,269.684L364.392,269.704C365.033,269.971 368.052,272.827 368.68,273.425C368.776,273.421 368.93,273.416 369.128,273.416ZM372.171,274.306L371.73,274.206C370.108,273.84 368.617,273.938 368.601,273.94L368.488,273.948L368.406,273.87C367.041,272.565 364.731,270.445 364.224,270.188C363.597,270.085 361.495,268.776 360.845,268.363C359.92,267.902 359.13,266.007 359.621,264.72C359.887,264.021 360.75,262.962 363.547,263.721C368.813,266.216 369.653,266.481 369.688,266.491L376.165,268.522L379.904,272.701L379.601,273.101C377.73,272.173 374.934,270.834 373.386,270.189C374.641,271.493 375.345,272.849 375.38,272.917L375.649,273.441L374.661,273.158C373.089,272.706 371.691,272.304 370.136,272.007C371.336,272.863 371.829,273.276 372.028,273.876L372.171,274.306Z" style="fill:rgb(3,4,4);fill-rule:nonzero;"/>
            <path d="M343.499,242.412C343.499,242.412 349.797,240.892 350.557,241.108" style="fill:rgb(3,4,4);fill-rule:nonzero;"/>
            <path d="M343.559,242.66L343.439,242.164C344.501,241.907 349.841,240.639 350.627,240.863L350.487,241.354C350.036,241.223 346.581,241.93 343.559,242.66Z" style="fill:white;fill-rule:nonzero;"/>
        </g>
    </g>
    <g transform="matrix(4.16667,0,0,4.16667,-543.05,-487.038)">
        <path d="M407.271,334.739L407.175,335.855L407.678,336.888L408.069,336.306L408.244,334.563L408.806,333.983L407.852,333.973L407.271,334.739ZM413.57,339.909L413.738,339.344L413.854,339.115L412.468,339.453L411.745,339.865L411.603,340.601L412.057,341.928L413.55,341.314L414.156,340.857L414.582,340.16L413.46,340.16L413.57,339.909ZM435.839,347.955L434.066,349.148L433.151,349.548L433.151,349.864L434.008,349.754L434.607,349.837L435.001,350.219L435.315,351.004L435.678,350.612L436.402,351.328L436.948,349.304L437.098,348.193L436.575,347.703L435.839,347.955ZM385.194,343.9L385.42,344.568L385.905,345.216L386.955,344.405L388.059,342.952L388.451,341.461L387.33,340.51L387.33,341.593L386.987,341.593L386.466,341.386L386.131,341.863L386.027,342.663L386.253,343.39L385.441,343.438L385.194,343.9ZM237.352,413.365L236.487,411.61L236.282,410.842L236.023,410.953L235.425,411.127L235.179,411.223L235.16,411.056L235.179,410.513L234.78,410.513L235.005,412.461L234.927,413.279L234.464,413.738L234.367,412.563L234.109,411.211L234.109,410.048L234.78,409.431L233.793,408.813L232.278,407.089L231.175,406.188L231.117,406.497L230.84,407.263L230.498,406.583L230.557,405.988L230.911,405.657L232.361,406.027L232.838,406.49L233.238,407.07L233.709,407.603L234.289,407.938L235.469,408.406L235.915,408.681L236.533,409.598L237.235,411.973L237.726,413.034L237.352,413.365ZM504.563,240.977L503.33,239.817L502.859,239.269L502.466,238.347L502.26,237.29L502.188,236.199L502.278,235.175L502.768,232.828L502.768,231.808L500.37,226.077L497.359,218.868L497.026,216.799L497.483,215.504L498.442,214.77L499.514,214.164L500.3,213.228L500.442,212.035L499.957,211.139L498.492,209.655L498.196,208.656L497.895,206.033L497.354,205.317L496.889,205.388L496.527,205.826L496.102,206.213L495.379,206.161L494.871,205.671L492.646,201.055L491.84,196.477L490.758,193.15L490.551,192.687L490.195,192.234L489.913,192.172L488.396,191.449L488.307,191.313L488.211,191.217L488.115,191.037L487.997,190.85L487.791,190.759L487.661,190.843L487.417,191.256L487.283,191.351L487.082,191.462L486.476,191.938L486.141,192.055L485.437,191.862L484.947,191.365L484.162,190.108L482.479,188.237L481.938,187.322L480.402,179.354L479.785,178.244L478.661,177.509L476.175,176.795L475.071,176.092L474.491,174.885L473.968,168.405L473.273,166.311L472.878,165.751L472.397,165.207L471.97,164.648L471.835,164.009L472.001,163.417L472.523,162.126L472.603,161.624L472.397,161.044L471.737,159.908L471.705,159.342L471.981,158.884L472.465,158.671L473.008,158.529L473.492,158.276L474.504,156.737L475.005,154.621L475.143,150.379L474.781,149.271L474,148.774L473.008,148.471L472.021,147.948L470.299,146.125L469.339,145.739L467.895,146.15L467.354,146.666L467.115,147.181L466.871,147.394L466.251,147.052L465.465,144.925L464.286,143.417L464.252,143.159L463.692,143.205L462.641,143.5L461.597,143.565L460.674,143.797L460.23,143.829L459.552,143.57L459.906,143.165L460.978,142.488L460.292,141.688L459.475,141.378L459.359,141.083L461.904,139.78L462.466,139.07L462.337,138.349L461.151,137.737L460.126,137.737L458.03,138.483L457.193,138.646L455.975,138.206L456.064,137.253L456.735,136.04L457.297,134.687L457.168,133.836L456.54,133.229L455.763,132.713L455.136,132.133L454.729,131.296L454.742,130.754L454.967,130.257L455.175,129.522L455.317,128.291L455.305,127.672L455.148,127.06L454.709,126.466L454.11,125.924L453.64,125.351L453.582,124.628L453.659,123.005L452.989,121.779L451.804,120.838L450.275,120.108L445.967,124.397L441.61,128.743L435.685,134.655L430.609,139.715L426.716,143.602L424.492,144.899L422.189,145.183L413.681,144.758L408.852,144.513L407.204,144.204L406.078,143.623L399.4,138.181L398.335,137.743L397.393,138.079L394.184,140.458L390.031,142.553L385.577,143.893L377.244,144.564L367.518,145.35L365.188,145.892L355.428,151.798L354.809,152.507L354.752,153.189L354.97,155.079L354.951,155.897L354.731,156.981L354.37,157.433L353.739,157.458L350.406,156.787L349.503,156.337L348.704,155.499L347.672,153.875L347.079,153.551L342.495,153.269L341.76,152.894L341.404,152.003L341.237,149.581L341.037,148.575L340.289,147.31L336.512,143.107L335.268,142.062L333.881,141.431L333.714,141.393L333.597,141.702L329.382,146.421L328.884,146.86L327.924,147.271L322.425,148.084L321.49,148.542L320.863,149.309L320.226,149.856L319.271,149.657L312.501,145.995L308.124,143.635L306.035,142.971L303.862,142.667L301.374,142.667L299.987,143.049L296.597,145.679L296.112,145.865L295.126,146.067L294.623,146.265L292.992,147.556L292.289,147.884L291.749,147.955L290.697,147.936L290.136,148.122L289.556,148.637L289.278,149.218L289.104,149.825L288.885,150.443L285.39,155.525L284.204,157.793L283.979,158.618L285.146,158.193L286.15,157.343L286.997,157.053L287.687,158.309L287.705,158.774L287.351,160.27L287.421,160.87L287.963,161.971L288.06,162.584L287.725,163.712L287.047,164.686L285.513,166.356L284.469,168.148L284.372,168.405L284.32,168.96L284.146,169.23L283.907,169.36L283.251,169.503L283.063,169.625L282.109,171.487L279.137,180.417L278.911,181.539L278.989,182.552L279.626,183.338L282.096,185.047L283.011,185.885L284.23,188.005L284.811,190.095L284.733,192.198L283.424,195.742L283.051,196.271L282.843,196.375L282.212,196.49L281.987,196.638L281.858,196.935L281.839,197.458L281.773,197.734L279.994,202.474L279.846,203.364L279.717,203.776L278.686,205.383L278.46,205.923L278.409,206.896L278.596,208.843L278.557,209.792L278.138,210.636L277.479,211.712L276.996,212.809L277.146,213.712L277.905,213.944L281.62,213.976L282.141,214.279L282.27,214.917L282.251,215.717L282.399,216.49L282.946,217.354L283.805,218.392L284.792,219.275L285.693,219.675L287.203,218.939L287.95,217.246L288.814,215.8L290.781,215.808L291.677,216.374L294.668,219.714L294.791,219.933L294.92,220.319L294.842,220.617L294.546,220.771L294.379,220.99L294.636,221.467L295.404,221.867L297.743,222.26L298.446,222.293L299.33,222.158L301.896,221.196L301.973,223.467L302.161,224.574L302.553,225.478L303.656,226.329L306.667,228.019L306.809,228.236L308.221,227.097L308.685,226.315L308.846,225.227L309.232,224.213L309.78,223.273L312.038,220.785L313.057,220.158L315.861,219.146L316.486,218.753L317.027,218.128L317.26,217.509L317.498,216.104L317.808,215.562L317.808,218.128L317.498,219.379L316.563,219.921L315.628,220.158L314.533,220.785L312.74,222.106L312.431,222.421L311.883,222.886L311.573,223.352L311.496,223.82L311.573,226.239L311.651,226.704L312.353,227.49L313.127,228.734L313.442,229.977L312.586,230.842L313.908,234.111L313.991,235.902L312.973,237.386L313.908,239.727L314.068,240.501L314.068,241.751L313.991,242.06L313.83,242.3L313.752,242.531L313.442,244.485L312.74,245.807L311.573,246.509L310.013,246.038L309.543,247.127L309.232,249.862L308.924,251.028L308.221,252.35L307.44,253.215L305.332,254.697L302.295,257.572L299.098,259.295L298.473,259.448L297.77,259.372L297.151,259.133L296.603,259.055L295.978,259.448L295.591,259.21L295.196,259.055L294.5,260.693L293.018,261.473L291.148,261.789L289.665,262.562L288.73,263.893L287.093,267.013L278.208,277.223L277.661,278.079L277.583,278.86L277.583,279.711L277.35,280.651L271.504,286.81L271.657,287.124L271.657,287.358L271.342,287.514L270.8,287.591L271.264,287.898L271.504,287.977L271.504,288.292L270.8,288.524L270.098,288.524L269.472,288.211L269.008,287.666L268.537,288.056L268.305,288.449L268.15,288.918L267.757,289.071L267.602,288.524L267.679,287.977L267.834,287.436L267.912,286.81L266.977,287.666L266.358,288.056L265.888,288.056L265.578,287.514L265.732,286.967L266.12,286.493L266.358,286.031L266.436,284.862L266.196,284.161L265.732,283.457L265.263,282.445L265.578,281.435L265.263,280.346L265.185,279.403L266.358,278.86L266.358,278.467L265.578,278.079L264.784,277.287L263.785,278.141L263.115,278.603L262.368,278.906L261.355,279.164L260.652,279.248L259.446,279.112L258.828,279.164L257.95,279.854L257.286,280.911L256.648,281.6L255.732,281.181L255.152,280.716L254.669,280.626L254.218,280.771L253.76,281.003L252.148,282.645L252,282.988L251.903,284.117L251.755,284.663L251.575,285.126L250.898,285.752L250.917,286.77L251.194,288.906L250.839,289.886L249.641,291.136L249.401,291.974L249.228,292.168L248.273,293.948L247.687,294.618L247.19,294.916L241.522,296.185L239.293,297.184L237.384,298.647L236.7,299.041L235.688,301.129L235.617,301.665L235.915,304.392L235.256,308.833L235.217,309.918L236.21,314.18L236.34,316.229L235.404,318.233L231.607,322.604L230.988,323.592L230.608,324.721L228.925,333.378L228.745,333.777L228.215,334.113L227.835,333.973L227.461,333.644L226.83,333.405L226.547,333.998L224.206,337.221L223.742,338.65L223.665,339.556L224.302,341.854L224.348,342.855L224.064,343.849L223.277,345.783L222.995,347.396L223.284,346.868L223.961,346.286L225.308,346.118L226.469,346.548L227.268,347.436L227.57,348.62L227.848,349.098L228.494,349.163L229.112,349.148L229.389,349.341L229.408,349.974L229.486,350.438L229.692,350.763L230.111,350.984L230.814,351.068L231.297,350.857L231.743,350.516L232.245,350.246L233.612,349.888L234.277,349.846L234.239,350.283L233.554,352.507L233.052,355.881L232.432,357.943L231.537,359.761L230.472,361.405L229.666,362.165L227.926,362.965L226.056,364.557L225.025,364.888L223.98,365.049L222.84,365.396L222.104,365.995L220.891,367.563L220.455,367.734L220.673,368.2L220.918,369.011L221.104,372.242L220.981,372.971L220.563,373.255L220.002,373.302L219.493,373.436L219.287,374.009L219.39,374.325L219.783,374.889L219.912,375.201L219.835,375.615L219.596,375.886L219.292,376.099L219.113,376.384L218.455,380.521L218.416,381.632L218.88,383.68L218.996,384.789L218.867,387.951L218.712,388.71L218.112,389.417L216.546,389.949L215.965,390.871L215.889,391.353L215.927,391.876L216.133,392.862L216.186,393.647L215.985,394.15L215.721,394.613L215.56,395.241L215.702,396.16L216.488,398.193L216.713,399.207L216.656,400.158L215.999,403.416L216.011,404.684L216.443,405.523L216.985,406.335L217.307,407.471L217.249,407.91L216.747,409.244L216.778,409.797L217.396,410.856L217.603,411.449L217.623,412.448L217.12,415.543L219.248,415.658L220.356,415.574L221.344,415.313L222.432,414.699L223.252,414.11L224.134,413.652L225.418,413.428L226.063,413.57L227.185,414.249L227.558,414.383L227.99,414.125L228.306,413.078L228.791,412.52L229.279,412.216L229.737,412.075L230.208,412.15L230.789,412.436L232.29,414.588L232.51,415.696L232.646,417.861L233.173,418.976L234.07,419.825L235.114,420.108L236.217,419.991L237.378,419.565L240.988,417.581L241.536,417.472L242.019,416.324L242.709,415.616L244.541,414.643L246.707,413.803L247.274,413.261L247.551,412.467L247.867,410.425L248.241,409.709L248.673,409.462L249.093,409.393L249.519,409.355L249.918,409.238L250.717,408.754L253.09,406.532L253.779,405.652L254.341,404.7L254.437,404.348L254.566,403.59L254.714,403.28L255.095,402.971L255.978,402.576L256.312,402.307L256.578,401.507L256.913,399.331L257.363,398.572L258.183,398.29L259.047,398.418L259.962,398.69L260.846,398.808L261.683,398.6L262.374,398.29L263.108,398.193L264.43,398.61L264.463,398.638L264.547,398.556L264.973,398.213L265.63,398.271L266.022,398.537L266.307,398.826L266.604,398.962L267.248,398.923L268.234,398.69L270.891,398.445L272.051,398.568L273.321,398.973L273.998,398.418L275.906,396.435L276.674,396.026L278.673,395.402L280.678,394.363L282.548,394.833L283.386,395.247L333.94,395.247L334.049,395.063L334.197,394.539L334.113,394.106L333.372,393.737L333.236,393.274L333.029,390.927L333.178,387.971L332.734,387.058L331.689,386.865L330.483,386.896L329.568,386.676L329.362,385.899L329.484,384.569L329.857,383.315L330.451,382.76L330.47,382.34L332.476,380.212L333.714,377.734L334.107,377.33L334.578,377.194L334.745,376.859L334.68,376.44L334.068,375.439L334.01,374.951L334.455,372.824L334.642,372.281L336.286,370.014L336.686,369.271L336.827,368.491L337.312,367.318L338.459,366.535L340.812,365.434L341.514,364.727L343.372,362.392L343.746,361.629L344.229,360.289L345.312,359.054L346.421,358.599L347.001,359.65L347.4,359.65L347.317,358.884L346.982,357.994L346.512,357.169L346.092,356.576L345.938,356.227L345.887,355.822L345.751,355.479L345.352,355.345L344.912,355.357L344.584,355.345L344.332,355.144L344.068,354.616L344.364,353.275L344.384,352.448L343.92,352.091L343.378,352.141L341.541,352.779L342.012,350.649L342.257,349.864L341.952,349.808L341.166,349.54L342.237,349.039L345.145,346.987L346.073,347.357L348.162,347.473L349.129,347.703L348.704,346.468L346.794,346.021L346.273,344.828L347.079,345.048L347.4,345.216L349.49,344.389L350.953,344.866L352.431,345.794L354.435,346.298L355.408,346.078L356.021,345.5L356.362,344.688L356.442,343.752L356.305,343.308L355.802,342.338L355.686,341.754L355.782,341.52L356.442,340.51L356.396,340.846L356.383,341.103L356.305,341.333L356.041,341.593L356.828,342.648L358.212,343.604L359.689,344.003L360.78,343.384L360.876,342.367L360.23,341.461L358.568,340.16L358.986,339.763L360.631,340.495L362.668,341.059L364.151,341.966L364.131,343.752L365.255,343.796L365.595,343.752L365.035,342.663L365.37,339.624L364.86,337.968L365.949,337.646L366.749,338.381L367.799,338.125L368.762,337.26L369.207,336.203L369.818,336.756L369.767,337.468L369.342,338.176L368.872,338.716L367.729,339.574L367.844,339.909L368.684,340.694L369.45,340.883L370.031,340.293L370.481,339.501L371.025,338.912L371.152,338.473L371.36,338.072L371.772,337.962L372.017,338.224L372.499,339.763L372.953,339.49L373.254,338.577L373.59,338.357L374.111,338.523L374.486,339.009L375.027,340.152L375.712,339.285L374.325,337.086L374.679,336.19L375.15,336.515L376.13,336.917L376.658,336.783L375.776,335.442L376.808,335.12L377.199,335.08L377.199,334.72L376.757,334.563L375.783,333.973L376.008,333.275L375.344,332.481L375.59,332.013L376.168,331.857L376.658,332.077L377.021,332.134L377.199,331.495L378.142,331.334L378.723,329.832L379.148,328.071L379.709,327.14L380.631,327.248L380.851,327.887L380.65,328.595L379.824,329.416L379.844,330.298L380.308,330.774L381.191,330.015L381.584,330.76L380.348,332.82L380.547,333.418L382.082,333.638L382.551,333.303L382.978,332.565L383.391,331.482L383.918,331.619L384.253,332.128L384.498,332.779L384.796,333.321L384.086,333.702L383.184,334.848L382.811,335.08L381.843,335.043L381.578,335.08L381.037,335.351L380.609,335.47L380.109,335.442L380.516,336.15L380.553,337.272L380.819,337.627L381.655,337.77L382.339,337.48L382.842,337.08L383.198,336.875L383.648,336.814L384.326,336.641L384.938,336.364L385.202,335.995L385.582,335.815L386.406,336.125L387.755,336.875L387.775,335.893L387.863,335.153L388.09,334.553L388.465,333.973L388.846,333.973L389.109,334.58L389.622,334.59L390.313,334.475L391.041,334.727L390.836,334.308L390.721,333.874L390.631,332.928L391.041,332.928L391.309,333.585L392.028,332.432L392.835,332.174L392.694,332.385L392.59,332.54L392.449,332.928L392.992,332.9L393.17,332.928L392.733,333.442L392.469,333.973L392.558,334.423L393.178,334.714L392.617,334.915L392.019,335.281L391.701,335.771L391.946,336.364L392.558,336.81L392.822,336.81L392.862,336.944L392.841,337.803L393.274,338.42L394.292,338.37L397.774,337.145L398.933,336.515L402.609,333.713L403.021,333.321L403.402,332.657L404.086,330.76L402.307,330.697L400.792,330.397L402.255,329.485L402.68,329.292L402.68,328.93L402.281,328.93L402.281,328.607L402.81,328.75L403.749,329.2L405.079,329.46L405.053,329.832L404.473,330.582L404.718,331.169L405.2,331.032L405.691,330.618L405.893,330.397L405.969,330.13L405.893,329.755L405.873,329.426L406.093,329.292L406.491,329.228L406.793,329.072L407.374,328.604L406.793,327.887L406.473,326.803L406.658,325.804L407.536,325.363L408.509,325.138L410.152,324.151L411.145,323.928L411.325,323.787L412.486,323.088L412.789,322.817L412.849,322.122L412.641,321.902L412.223,321.875L410.745,321.567L409.624,321.489L408.709,321.077L408.404,319.915L409.655,320.2L410.984,319.955L411.751,319.266L411.299,318.146L413.002,317.356L413.473,317.036L413.892,319.31L415.388,319.414L416.808,318.428L417.148,317.43L417.896,316.286L418.902,316.603L419.108,316.938L418.225,318.146L417.027,320.227L417.291,320.55L417.702,320.795L417.89,321.025L416.987,321.827L415.736,321.961L414.931,322.349L415.33,323.932L415.91,323.527L417.896,322.823L418.082,323.297L418.043,323.774L417.838,324.219L417.535,324.625L418.475,324.404L419.418,324.492L420.333,324.845L421.157,325.376L421.083,324.918L420.979,324.625L420.798,324.417L420.416,324.271L421.926,323.707L422.648,323.632L423.358,323.939L422.59,324.271L423.169,325.056L424.111,325.376L424.712,325.682L424.413,326.428L425.415,326.656L425.393,327.544L424.724,328.234L423.71,327.86L424.045,327.667L424.413,327.537L423.68,327.209L422.823,326.955L422.034,326.905L421.515,327.14L421.087,326.9L420.668,326.79L419.702,326.777L420.004,327.255L420.41,327.529L421.519,327.852L420.811,328.245L421.486,328.699L421.764,328.847L422.254,328.93L421.113,329.64L421.816,330.483L423.184,331.457L424.06,332.555L424.427,332.555L424.272,331.063L424.355,330.329L424.607,330.009L425.079,330.23L425.213,330.794L425.156,332.161L425.602,331.766L426.182,330.98L426.633,330.748L426.555,331.334L426.367,331.883L425.865,332.913L426.349,332.836L426.67,332.674L426.84,332.348L426.947,331.83L427.341,331.83L427.443,332.657L427.967,332.986L428.528,332.772L428.805,332L429.25,331.522L430.241,331.096L431.236,330.49L431.672,329.477L431.301,326.706L431.358,326.088L431.861,325.571L432.538,325.435L433.247,325.615L433.885,326.088L434.845,325.295L435.305,325.081L436.051,324.973L436.69,325.048L437.476,325.295L438.187,325.648L438.561,326.093L437.366,326.3L436.405,326.75L435.697,327.493L435.334,328.607L435.943,328.342L436.581,328.3L437.231,328.402L437.875,328.604L437.875,328.922L437.385,329.343L436.677,330.168L436.135,331.11L436.059,331.83L436.772,332.262L438.978,332.394L439.683,332.54L440.242,332.023L440.262,331.473L440.152,330.825L440.377,330L441.138,330.844L441.325,331.916L441.383,333.107L441.849,334.352L442.132,333.675L442.338,332.258L442.558,331.473L444.163,332.52L445.852,333.309L445.948,332.32L446.45,331.967L447.031,331.688L447.294,330.917L449.687,328.957L450.021,328.604L450.448,328.538L450.533,328.465L450.584,328.538L450.926,328.93L451.126,329.215L451.263,329.519L453.654,326.353L455.543,324.895L456.013,324.197L456.154,323.119L455.555,321.201L455.497,320.239L455.721,319.75L456.645,318.68L457.019,318.129L457.186,317.687L458.515,312.31L459.411,310.692L460.984,309.623L463.131,308.846L464.858,307.985L466.121,306.622L466.961,304.366L467.307,302.496L467.728,302.031L471.146,300.338L472.063,299.517L472.809,297.401L474.335,295.423L475.701,292.054L476.018,290.975L476.064,288.61L476.322,287.499L476.766,286.416L477.287,285.474L478.38,284.418L479.255,284.623L480.12,285.115L481.221,284.902L481.801,283.94L481.879,282.749L482.254,281.788L484.82,281.206L486.63,279.48L487.72,278.816L492.079,278.371L493.782,277.608L494.438,275.477L493.891,273.381L492.975,271.24L492.77,269.371L495.922,266.812L497.046,262.562L498.254,260.758L498.804,260.485L499.906,260.268L500.429,260.023L500.97,259.526L501.37,258.927L503.053,255.387L503.374,254.246L503.426,244.008L503.651,243.363L504.639,242.124L504.826,241.557L504.563,240.977ZM443.196,337.434L442.184,337.642L441.53,336.394L440.146,336.374L439.044,337.168L439.264,338.357L439.861,338.641L441.931,339.065L442.543,339.115L443.163,338.896L443.654,338.626L444.245,338.601L445.091,339.115L445.258,338.315L444.422,337.711L443.196,337.434ZM418.663,327.345L418.135,326.803L417.128,326.803L417.128,327.162L417.521,327.259L417.864,327.475L418.091,327.802L418.221,328.26L417.883,328.26L417.394,328.021L417.02,328.406L416.871,329.085L417.136,329.705L416.69,329.535L416.588,329.471L416.408,329.315L415.943,329.885L415.436,329.832L415.157,329.435L415.323,328.957L415.323,328.635L414.161,328.626L414.065,328.044L414.587,327.305L415.316,326.803L414.284,326.424L413.222,326.468L411.133,326.803L410.843,326.993L409.67,328.452L409.347,329.008L409.555,329.343L410.211,329.709L412.003,331.535L412.204,331.87L412.41,332.037L412.357,332.396L412.057,332.779L411.495,332.955L410.953,332.913L409.494,332.593L410.579,334.392L410.933,334.392L411.553,333.805L412.486,334.423L413.253,335.647L413.46,336.906L414.061,336.705L414.438,336.297L414.619,335.75L414.582,335.107L414.938,335.107L414.896,337.201L415.234,338.014L416.104,338.37L416.458,338.271L416.601,338.176L416.748,337.98L415.665,337.396L415.388,336.215L415.704,335.038L416.394,334.396L415.704,334.048L415.312,333.468L415.272,332.791L415.665,332.201L415.351,331.393L415.686,330.953L416.303,331.051L416.748,331.876L417.128,331.389L417.521,331.058L417.883,330.953L418.221,331.122L418.551,330.503L418.702,329.832L418.985,329.246L419.677,328.949L419.051,328.137L418.663,327.345ZM364.841,356.053L364.151,355.184L363.731,354.423L363.492,353.831L362.874,353.224L362.05,352.895L361.212,353.16L361.693,353.313L362.198,353.61L362.643,354.036L363.042,354.602L362.539,354.876L362.396,355.221L362.584,355.629L363.034,356.033L363.126,355.736L363.185,355.736L363.37,355.634L363.468,355.996L363.642,356.241L363.88,356.452L364.126,356.75L365.079,356.685L364.841,356.053ZM362.648,361.102L362.385,360.23L361.225,358.999L360.836,358.187L360.366,358.421L360.16,358.741L360.218,359.149L360.475,359.619L359.979,359.852L359.496,359.878L359.045,359.684L358.632,359.246L359.045,358.555L356.743,359.398L355.415,359.715L354.294,359.631L353.583,358.875L353.771,357.828L354.712,356.033L354.629,355.098L353.842,354.817L351.417,354.964L350.052,354.655L349.406,354.602L348.903,354.849L348.969,355.363L348.923,355.868L348.162,356.033L348.162,356.364L349.586,356.846L350.354,357.246L350.689,357.646L350.76,358.053L350.916,358.174L351.153,358.264L351.417,358.562L351.417,358.752L351.095,359.142L351.018,359.445L351.656,359.839L353.12,360.278L354.629,360.421L355.415,359.962L355.75,359.962L356.222,360.458L357.04,360.919L357.588,361.449L357.227,362.152L357.736,362.385L358.271,362.804L358.632,363.358L358.632,363.979L358.316,364.247L357.847,364.222L357.415,364.017L356.975,363.482L356.415,363.964L355.943,364.668L355.943,365.038L355.325,365.062L354.86,365.183L354.544,365.415L354.3,365.75L354.3,366.144L354.557,366.613L354.377,367.304L353.591,368.656L352.707,369.62L352.508,370.147L352.83,370.824L354.306,370.824L354.286,370.451L354.345,370.024L354.726,369.059L354.958,369.151L355.544,369.285L355.763,369.381L355.584,368.656L355.563,367.664L355.428,367.229L357.452,366.839L358.334,366.897L358.334,367.229L358.032,367.602L358.149,367.94L358.613,368.2L359.233,368.299L359.438,368.114L359.6,367.729L359.922,367.348L360.501,367.214L360.077,365.26L359.851,362.842L360.463,361.063L362.648,361.102ZM387.517,346.688L387.097,347.042L386.979,347.703L386.458,347.582L385.897,347.368L386.059,346.51L385.687,345.622L385.034,344.874L384.409,344.453L384.543,345.061L384.829,345.641L385.497,346.648L385.497,346.969L384.976,346.834L384.641,346.545L384.479,346.118L384.417,345.551L384.15,346.041L383.836,346.275L383.422,346.233L382.957,345.906L383.094,346.528L383.292,347.104L383.339,347.626L382.957,348.093L382.513,348.051L382.133,347.615L381.72,347.423L381.16,348.097L380.431,347.703L380.728,348.323L381.197,348.686L381.815,348.826L382.597,348.813L383.552,349.083L384.737,348.528L385.497,348.826L384.776,349.18L384.776,349.54L386.059,349.368L387.147,348.878L388.079,348.065L388.8,346.983L388.116,346.671L387.517,346.688ZM373.242,362.546L372.843,362.871L372.449,362.661L372.204,362.688L372.076,363.067L372.107,363.823L372.076,363.979L371.41,364.506L370.378,364.63L369.542,365.038L370.759,365.737L370.541,366.747L369.639,367.71L368.852,368.299L369.025,368.696L369.219,368.914L369.521,369.007L369.941,369.051L370.442,368.789L370.985,368.372L371.25,367.847L371.004,367.214L371.605,366.994L371.998,366.608L373.101,364.611L373.242,364.039L373.224,363.263L373.578,363.263L373.932,363.979L373.951,363.451L374.003,363.005L374.307,362.146L373.538,362.377L373.242,362.546ZM336.608,394.539L336.131,394.292L336.15,395.223L336.146,395.247L336.846,395.247L336.814,394.885L336.608,394.539ZM366.395,360.804L366.156,360.297L365.595,359.945L365.067,360.069L365.035,360.601L365.273,361.254L365.595,361.786L365.241,361.677L364.487,361.554L364.131,361.418L364.248,361.945L364.397,362.198L364.595,362.236L366.072,361.836L366.711,361.748L367.388,361.786L367.388,361.424L366.696,361.254L366.395,360.804Z" style="fill:none;stroke:rgb(153,153,153);stroke-width:0.25px;"/>
    </g>
</svg>
